<svg xmlns="http://www.w3.org/2000/svg" xmlns:xlink="http://www.w3.org/1999/xlink" viewBox="0 0 750 522.65"><defs><style>.cls-1{fill:none;}.cls-2{fill:#ffcbcf;}.cls-3{fill:#fff;}.cls-4{fill:#e25a6e;}.cls-5{fill:#f97885;}.cls-6{fill:#ff4b4c;}.cls-7{fill:#f2d18f;}.cls-8{fill:#f9df79;}.cls-9{fill:#6bb56b;}.cls-10{fill:#8f524a;}.cls-11{fill:#e29779;}.cls-12{fill:#b27850;}.cls-13{fill:#d2544b;}.cls-14{fill:#f7c963;}.cls-15{fill:#945a41;}.cls-16{fill:#f5dfdd;}.cls-17{fill:#d1bece;}.cls-18{fill:#edc9d0;}.cls-19{fill:#e2526d;}.cls-20{fill:#acc1c5;}.cls-21,.cls-22{fill:#cde6ea;}.cls-22{opacity:0.5;}.cls-23{fill:#e6a980;}.cls-24{fill:#9d5a52;}.cls-25{fill:#e26652;}.cls-26{fill:#ab3f42;}.cls-27{fill:#13a89d;}.cls-28{fill:#009d94;}.cls-29{fill:#1d6d69;}.cls-30{fill:#e2e091;}.cls-31{fill:#f79292;}.cls-32{fill:#d87171;}.cls-33{fill:#2e0000;}.cls-34{fill:#a8b76a;}.cls-35{fill:#b8bf73;}.cls-36{fill:#c7d384;}.cls-37{fill:#95a568;}.cls-38{clip-path:url(#clip-path);}.cls-39{fill:#247f7b;}.cls-40{fill:#ffe9e9;}.cls-41{fill:#e5aeae;}.cls-42{fill:#175363;}.cls-43{fill:#bc364b;}.cls-44{fill:#935862;}.cls-45{fill:#553138;}.cls-46{fill:#da8492;}.cls-47{fill:#a9464e;}.cls-48{fill:#85373e;}.cls-49{fill:#7a2c37;}.cls-50{fill:#963c4b;}.cls-51{fill:#ff858d;}.cls-52{fill:#c5677c;}</style><clipPath id="clip-path"><rect class="cls-1" x="243.89" y="252.81" width="247.19" height="247.19"/></clipPath></defs><g id="Слой_2" data-name="Слой 2"><g id="BACKGROUND"><rect class="cls-2" width="750" height="500"/></g><g id="OBJECTS"><path class="cls-3" d="M337.27,186.43a163.41,163.41,0,1,0-114.09,156c12.52,7.91,42.43,26.15,44.68,21.46S255,340.43,249,331.7A163.56,163.56,0,0,0,337.27,186.43Z"/><path class="cls-3" d="M86.71,343.16c-2.76,2.9-5.33,6-8.09,8.85-1.35,1.42-2.72,2.8-4.12,4.16A24.13,24.13,0,0,0,70.39,361,1.92,1.92,0,0,0,73,363.63a18.92,18.92,0,0,0,4.79-3.94q2.1-2.28,4.11-4.63a80.24,80.24,0,0,0,7.46-9.86A1.69,1.69,0,0,0,86.71,343.16Z"/><path class="cls-3" d="M101.43,350.71c-1.81,1.63-3,3.86-4.3,5.9s-2.71,4.35-4,6.54l-3.88,6.34c-1.27,2.08-3.14,4.45-3.27,7a1.91,1.91,0,0,0,2.86,1.63c2-1.28,3.16-4,4.31-6,1.25-2.24,2.49-4.48,3.74-6.71s2.43-4.33,3.6-6.52,2.6-4.41,3.15-6.87A1.3,1.3,0,0,0,101.43,350.71Z"/><path class="cls-3" d="M113.07,356.45a1.94,1.94,0,0,0-2.36,1.34,75.75,75.75,0,0,0-2.26,12.4c-.23,2.08-.39,4.15-.5,6.23s-.62,4.64,1,6.23a1.89,1.89,0,0,0,2.63,0c1.58-1.61,1.06-4.15,1.11-6.23s.14-3.86.3-5.78c.31-4,.9-7.89,1.45-11.83A2,2,0,0,0,113.07,356.45Z"/><path class="cls-4" d="M207.65,124.77s2.42.81,1.63,1.75a0,0,0,0,1,0,0c-.93,1.09-7,2-20.08,1.88v-.13c-6.82-.51-12.85-7.43-17.48-8.4-4.19-.87-9.61,3.32-7.64,7-9.34-1.69-13.79-4.61-13.89-6.79,0-.19,0-.29,0-.29a2.27,2.27,0,0,1,1.42-1.64c6.64-3.32,25.57-4.11,35.88-3.41,3.81,5.73,12.2,10.91,20.15,9.93Z"/><path class="cls-5" d="M156.51,162.52c-14,2.28-15.21,10.14-15.21,10.14-.1-9.6.19-17,5.42-29.19,2.61-6.08,3.36-21.14,3.46-23.41.1,2.18,4.55,5.1,13.89,6.79a91.46,91.46,0,0,0,12.18,1.25c4.91.18,9.21.29,12.94.31,13.08.08,19.15-.79,20.08-1.88a52,52,0,0,0-2.09,11.53s-6.64-1.4-22,11C173.68,158.4,170.49,160.24,156.51,162.52Z"/><path class="cls-6" d="M208.06,158.15c1.23,7.51-3.77,25-8.56,28.49-16.78,12.23-56.28,1.92-59.6-3.32-1.14-1.8,1.47-4.42,1.4-10.66,0,0,1.23-7.86,15.21-10.14s17.17-4.12,28.71-13.45c15.32-12.41,22-11,22-11A82.24,82.24,0,0,0,208.06,158.15Z"/><path class="cls-7" d="M189.19,128.28v.13c-3.73,0-8-.13-12.94-.31a91.46,91.46,0,0,1-12.18-1.25c-2-3.65,3.45-7.84,7.64-7C176.34,120.85,182.37,127.77,189.19,128.28Z"/><path class="cls-7" d="M235.71,93.11c1.94,5.09-6.29,16.52-17.68,7.9s-6.31-27.67,1.88-29c11.05-1.8,9.45,7,10.16,11.53C230.73,87.7,233.86,88.24,235.71,93.11Z"/><path class="cls-7" d="M187.49,114.72c-.2-.32-.4-.63-.58-1-4.37-7.69.43-14.66,6.12-16.08,6.29-1.57,8.05,6.22,12.58,7.86,4.72,1.72,7.52.18,10.84,2.44s4.54,9.79-2.45,14.35a14.67,14.67,0,0,1-6.36,2.31C199.69,125.63,191.3,120.45,187.49,114.72Z"/><path class="cls-2" d="M156.15,146.8a3.16,3.16,0,0,1,1.53-1.57c.63-.18,1.12.16,1.81.45a1.07,1.07,0,0,0,1.31-.74c.52-2.65-3-3.5-4.9-2.76-2.4.93-3.66,3.7-4.7,5.87a14.16,14.16,0,0,0-1.72,7.79c.34,2.7,1.89,5.36,4.63,6.19a5.14,5.14,0,0,0,4.28-.66,5.81,5.81,0,0,0,1.78-1.71,4.14,4.14,0,0,0,.56-2.15,1.35,1.35,0,0,0-1.7-1.29,5.19,5.19,0,0,0-1.59.72c-.37.27-.84.75-1.1.93a1.1,1.1,0,0,1-1.53,0c-1.35-.94-1.57-3.19-1.24-4.81A22.26,22.26,0,0,1,156.15,146.8Z"/><path class="cls-2" d="M166.22,144.31a1.26,1.26,0,0,0-2.28-.3,8.8,8.8,0,0,0-1.05,3.42c-.2,1.29-.37,2.6-.46,3.91-.16,2.42-.22,4.85-.19,7.27a2,2,0,1,0,4,0c-.08-2.38-.07-4.76,0-7.14.05-1.18.09-2.37.13-3.56A10.61,10.61,0,0,0,166.22,144.31Z"/><path class="cls-2" d="M171.05,149.42a2.22,2.22,0,0,0-2.2.06l-.53.25a10.26,10.26,0,0,1-1.62.54l-.95.21-.44.08c-.17,0-.38.07-.28,0a2.72,2.72,0,0,0-.46.21,1.29,1.29,0,0,0-.25,2,3.07,3.07,0,0,0,1.77.67,6.86,6.86,0,0,0,1.81,0,9,9,0,0,0,1.78-.34c.3-.1.6-.22.89-.34a2.13,2.13,0,0,0,1.34-1.9A1.75,1.75,0,0,0,171.05,149.42Z"/><path class="cls-2" d="M165.29,150.56h0C165.5,150.52,165.64,150.49,165.29,150.56Z"/><path class="cls-2" d="M174,157.39c-.08-.17-.09-.18-.1-.17a1.16,1.16,0,0,0,0-.16,7.71,7.71,0,0,1-.27-1.3c-.06-1.31-.07-2.62,0-3.93s.1-2.72.22-4.08a15.57,15.57,0,0,0,.08-4.31,1.59,1.59,0,0,0-2.88-.38,11.92,11.92,0,0,0-1.28,4.58c-.22,1.54-.4,3.07-.48,4.62a26.44,26.44,0,0,0,0,4c.16,1.6.5,3.63,2,4.5a2.12,2.12,0,0,0,3.15-1.81A3.91,3.91,0,0,0,174,157.39Z"/><path class="cls-2" d="M181,156.39c-.22-.17-.46-.33-.67-.5h0l0,0h0l0,0,0-.11c0-.1-.07-.21-.1-.31s-.12-.47-.17-.71a17.49,17.49,0,0,1-.13-3.1c0-1.19,0-2.39,0-3.58a17.43,17.43,0,0,0-.31-3.75,1.51,1.51,0,0,0-2.89,0,19.64,19.64,0,0,0-.72,4.39c-.15,1.42-.31,2.87-.35,4.3a11,11,0,0,0,.59,4.23c.72,1.84,2.35,3.2,4.35,2.29A2,2,0,0,0,181,156.39Z"/><path class="cls-2" d="M179.21,135.47a1,1,0,0,0,0,2.09A1,1,0,0,0,179.21,135.47Z"/><path class="cls-2" d="M186.65,149.42a23.35,23.35,0,0,0-.86-6.07c-.36-1-2-1.22-2.24,0a32,32,0,0,0-.27,5.62c-.05,2-.09,4-.19,6s-.19,3.84-.35,5.76-.75,4.1-.31,6a1.73,1.73,0,0,0,3.12.41c.93-1.76.84-4.2,1-6.15s.26-3.83.27-5.75S186.8,151.33,186.65,149.42Z"/><path class="cls-2" d="M190.48,140.65c-2.26-1.21-5.75-.91-6.71,1.84-.3.85.6,1.55,1.37,1.38a9.5,9.5,0,0,1,2.35-.41,2.1,2.1,0,0,1,1.48.7,3.23,3.23,0,0,1,.7,1.79,8.72,8.72,0,0,1,0,1.25c0,.18,0,.35-.05.52s-.06.39-.06.39a10.27,10.27,0,0,1-.32,1.21c0,.16-.11.33-.17.49l0,.07-.09.2a10.85,10.85,0,0,1-1.2,2l-.24.29-.43.45c-.14.15-.3.29-.45.43l-.3.26c-.39.29-.8.56-1.18.87a3,3,0,0,0-.91,1.39,1.69,1.69,0,0,0,1.17,2.07c1.49.44,2.75-.48,3.84-1.38a12.47,12.47,0,0,0,2.3-2.56,12.25,12.25,0,0,0,2.09-6.48C193.75,144.79,192.94,142,190.48,140.65Z"/><path class="cls-2" d="M196.55,153.83l.07.1Z"/><path class="cls-2" d="M198.54,143.25l0,0h0l0,0Z"/><path class="cls-2" d="M200.71,146.3a7.56,7.56,0,0,1-2.07-2.26,1.51,1.51,0,0,1-.11-.66.62.62,0,0,0,0-.13h0c0-.12,0-.14,0,0l.06-.1h0s0,0,0,0l.09,0a1.84,1.84,0,0,0,.56-.1.91.91,0,0,0,.65-.66c.26-1.46-1.29-2.21-2.54-1.94a3.17,3.17,0,0,0-2.27,2.55,5.22,5.22,0,0,0,1,3.94,29.46,29.46,0,0,0,2.47,2.65,4.92,4.92,0,0,1,.68,1,3.71,3.71,0,0,1,.3,1.22,2.46,2.46,0,0,1-.16,1.22,2.76,2.76,0,0,1-.53.78l-.17.16-.13.08c-.06,0-.51.25-.48.25l-.41.12a2,2,0,0,0-.41,0,.87.87,0,0,0-.35-.05c-.14-.09-.38-.26-.2-.12s.06.13-.18-.21l-.3-.38a3.59,3.59,0,0,0-.62-.54,1.51,1.51,0,0,0-1.5,0c-1.76.89-1.09,3.18.13,4.17a5,5,0,0,0,4,1,6.08,6.08,0,0,0,5-4.77A7.62,7.62,0,0,0,200.71,146.3Z"/><path class="cls-8" d="M271.39,162.05c-1.33,1.63-5.35,8.44-6.75,9s-4.15-4.54-4.15-4.54c2.22-2.42,2.86-5.06,4.89-5.42C266.65,160.9,268.9,161.51,271.39,162.05Z"/><path class="cls-9" d="M264.9,159.65c15.3-4.89,30.8-13,32.81-19.33a7.64,7.64,0,0,0,.09-3.77l.19,0c8.67-2.42,5.14,5.21,4.26,6.78s6.47,2.27,2.27,7.17a7.85,7.85,0,0,1-3.44,2.23c-4.75,1.63-11.34.16-14.21,1.24-3.67,1.38-1.74,5.09-5.94,7.88-2.4,1.61-6.19,1-9.54.23-2.49-.54-4.74-1.15-6-.92Z"/><path class="cls-9" d="M234.76,161.85c4.29,3.74,17.14,2,30.14-2.2l.48,1.48c-2,.36-2.67,3-4.89,5.42a11.32,11.32,0,0,1-4.37,3c-6.29,2.44-9.09-1.92-12.41-2.62-1.71-.36-3.74,2.1-5.94,4.19s-4.27,3.62-6.48,2.28C226.74,170.56,234.76,161.85,234.76,161.85Z"/><path class="cls-10" d="M302.84,156.08a5.76,5.76,0,0,1,.32,2.16c-.17,2.54-9.12,7.15-28.69,14.42-18.08,6.71-33.21,5.94-34.78,4.89a2.76,2.76,0,0,1-.89-1.29,20,20,0,0,1-1-5.17h0c2.2-2.09,4.23-4.55,5.94-4.19,3.32.7,6.12,5.06,12.41,2.62a11.32,11.32,0,0,0,4.37-3s2.75,5.13,4.15,4.54,5.42-7.41,6.75-9c3.35.73,7.14,1.38,9.54-.23,4.2-2.79,2.27-6.5,5.94-7.88,2.87-1.08,9.46.39,14.21-1.24A12.5,12.5,0,0,1,302.84,156.08Z"/><path class="cls-11" d="M302.84,156.08c3.73-1.21,6.58,7.7,5.18,10.64s-7.34,10.66-28.49,16.77-38.09,6.12-40.73,5.25S236,182.62,236,180s2.81-3.73,2.81-3.73a2.76,2.76,0,0,0,.89,1.29c1.57,1,16.7,1.82,34.78-4.89,19.57-7.27,28.52-11.88,28.69-14.42A5.76,5.76,0,0,0,302.84,156.08Z"/><path class="cls-11" d="M297.8,136.55a7.64,7.64,0,0,1-.09,3.77c-2,6.29-17.51,14.44-32.81,19.33-13,4.15-25.85,5.94-30.14,2.2a4.31,4.31,0,0,1-1-1.25c-5.77-11-2.62-35.83,23.07-44C279,109.48,295.9,126.4,297.8,136.55Z"/><path class="cls-2" d="M247.55,136.51c-1.39-.21-3.84,4.34-1.92,4.86S249,136.72,247.55,136.51Z"/><path class="cls-2" d="M256,128.21c-1.37.37-1.77,5.52.2,5.22S257.39,127.83,256,128.21Z"/><path class="cls-2" d="M272.82,120.62c-.45,1.34,3.58,4.57,4.44,2.77S273.28,119.29,272.82,120.62Z"/><path class="cls-2" d="M267.13,126.92c-.71.56.28,3.63,1.36,3S267.83,126.35,267.13,126.92Z"/><path class="cls-2" d="M247.31,126.81c-.86-.26-2.81,2.31-1.64,2.81S248.18,127.06,247.31,126.81Z"/><path class="cls-2" d="M260.5,119c-.79.45-.29,3.64.88,3.14S261.28,118.56,260.5,119Z"/><path class="cls-11" d="M136,59.53c2.94,1.41,4.32,4.63,4.16,8.1-2.13-2.1-8.59-4.43-16,1.17-7.9,5.92-7.47,13.08-7.47,13.08-2.72-1.12-4.72-3.47-5.23-7.39C110,63.78,127.36,55.39,136,59.53Z"/><path class="cls-11" d="M98.84,97.69c3.72,1.28,3.73-1.28,5.36-1.28,2.91,0,5.35,8.73,12.93,9.32s9.78-7,11.76-8.62,8.51,1.38,12.7-2.8,5.13-11,7.11-12.43,9.9-1.08,14-5.51-2-11.42-1.28-13.28c.38-1,1.53-1.39,2.2-2.31l.53.21s2.67,2.83,3.33,9.23c.81,7.9-5.71,21.76-20.87,31.46-18.66,11.93-30.74,8.45-36.34,6.48C99.88,104.53,96.72,96.8,96.72,96.8l.08-.23A7.34,7.34,0,0,0,98.84,97.69Z"/><path class="cls-5" d="M163.65,56.68c.75,2.21.51,3.35-.05,4.1-.67.92-1.82,1.29-2.2,2.31-.7,1.86,5.36,8.85,1.28,13.28s-12,4.08-14,5.51-2.91,8.24-7.11,12.43-10.72,1.16-12.7,2.8-4.19,9.2-11.76,8.62-10-9.32-12.93-9.32c-1.63,0-1.64,2.56-5.36,1.28a7.34,7.34,0,0,1-2-1.12c-2.55-2-5.44-6.27-7.17-14.69-2.58-12.6,9-28.23,21.71-35.22s27-7.6,32.47-6.64C154.53,41.88,162,51.78,163.65,56.68ZM140.16,67.63c.16-3.47-1.22-6.69-4.16-8.1-8.64-4.14-26,4.25-24.58,15,.51,3.92,2.51,6.27,5.23,7.39,6,2.49,15.55-.95,20.28-6.33A13,13,0,0,0,140.16,67.63Z"/><path class="cls-2" d="M104.64,88.46a5.72,5.72,0,0,1,1.3-1.84,6,6,0,0,1,1.85-1.29.38.38,0,0,1,.5.22.37.37,0,0,1,0,.29,5.83,5.83,0,0,1-1.3,1.84A5.55,5.55,0,0,1,105.15,89a.39.39,0,0,1-.51-.22A.41.41,0,0,1,104.64,88.46Z"/><path class="cls-2" d="M114.36,86.82a4.32,4.32,0,0,1,1.91.43,4.55,4.55,0,0,1,1.59,1.14.39.39,0,0,1,0,.55.35.35,0,0,1-.25.1,4.56,4.56,0,0,1-1.9-.42,4.38,4.38,0,0,1-1.59-1.14.4.4,0,0,1,.05-.56A.46.46,0,0,1,114.36,86.82Z"/><path class="cls-2" d="M122.49,90.13A5,5,0,0,1,122.7,88a5.25,5.25,0,0,1,1-1.88.39.39,0,0,1,.55,0,.36.36,0,0,1,.13.25,5.2,5.2,0,0,1-.2,2.09,5,5,0,0,1-1,1.87.41.41,0,0,1-.56,0A.47.47,0,0,1,122.49,90.13Z"/><path class="cls-2" d="M104.21,77.9a5.18,5.18,0,0,1,2.13.45,5.45,5.45,0,0,1,1.84,1.18.39.39,0,0,1,0,.55.39.39,0,0,1-.27.11,5.79,5.79,0,0,1-2.13-.45,5.41,5.41,0,0,1-1.83-1.18.39.39,0,0,1,0-.55A.4.4,0,0,1,104.21,77.9Z"/><path class="cls-2" d="M104.22,83a3.9,3.9,0,0,1-3.15,1.35.41.41,0,0,1-.37-.44.43.43,0,0,1,.09-.22,3.78,3.78,0,0,1,1.42-1,3.53,3.53,0,0,1,1.73-.32.4.4,0,0,1,.36.45A.32.32,0,0,1,104.22,83Z"/><path class="cls-2" d="M102.7,67.67a5,5,0,0,1,2,.79,5.26,5.26,0,0,1,1.57,1.45.4.4,0,0,1-.1.54.42.42,0,0,1-.28.07,5.47,5.47,0,0,1-2-.79,5,5,0,0,1-1.56-1.45.4.4,0,0,1,.1-.55A.46.46,0,0,1,102.7,67.67Z"/><path class="cls-2" d="M107.75,64.62a3.13,3.13,0,0,1,.61-1.56A3.3,3.3,0,0,1,109.61,62a.41.41,0,0,1,.55.19.52.52,0,0,1,0,.21,3.41,3.41,0,0,1-.61,1.57A3.18,3.18,0,0,1,108.33,65a.42.42,0,0,1-.55-.19A.42.42,0,0,1,107.75,64.62Z"/><path class="cls-2" d="M101.25,73.76a4.15,4.15,0,0,1-.53,1.86,4.41,4.41,0,0,1-1.22,1.49A.39.39,0,0,1,99,77a.39.39,0,0,1-.08-.25,4.56,4.56,0,0,1,.52-1.86,4.24,4.24,0,0,1,1.23-1.49.4.4,0,0,1,.55.08A.39.39,0,0,1,101.25,73.76Z"/><path class="cls-2" d="M112.87,55.06a4.52,4.52,0,0,1,1.48,1.36,4.63,4.63,0,0,1,.85,1.82.39.39,0,0,1-.31.46.38.38,0,0,1-.26,0,4.66,4.66,0,0,1-1.49-1.36,4.44,4.44,0,0,1-.84-1.81.4.4,0,0,1,.31-.47A.46.46,0,0,1,112.87,55.06Z"/><path class="cls-2" d="M117.83,56.93a1.74,1.74,0,0,1-.62-1.06,1.84,1.84,0,0,1,.15-1.22.44.44,0,0,1,.61-.2.24.24,0,0,1,.09.06,1.84,1.84,0,0,1,.62,1.06,1.78,1.78,0,0,1-.15,1.22.47.47,0,0,1-.62.2Z"/><path class="cls-2" d="M124,54.22a3.37,3.37,0,0,1,1.69-.39,3.48,3.48,0,0,1,1.69.39.4.4,0,0,1,.16.55.35.35,0,0,1-.16.16,3.61,3.61,0,0,1-1.69.4,3.39,3.39,0,0,1-1.69-.4.4.4,0,0,1-.16-.55A.41.41,0,0,1,124,54.22Z"/><path class="cls-2" d="M128.61,49.86A7.76,7.76,0,0,1,131,51.05a8.24,8.24,0,0,1,1.94,1.84.36.36,0,0,1-.08.52.39.39,0,0,1-.33.06,8.36,8.36,0,0,1-2.39-1.19,7.86,7.86,0,0,1-1.94-1.84.37.37,0,0,1,.08-.53A.39.39,0,0,1,128.61,49.86Z"/><path class="cls-2" d="M138.91,50.25a4.47,4.47,0,0,1-.15,2,4.57,4.57,0,0,1-.9,1.75.39.39,0,0,1-.56,0,.41.41,0,0,1-.13-.23,4.63,4.63,0,0,1,.15-2,4.35,4.35,0,0,1,.9-1.76.4.4,0,0,1,.56,0A.41.41,0,0,1,138.91,50.25Z"/><path class="cls-2" d="M135.31,47a2.32,2.32,0,0,1,.39,1.34,2.28,2.28,0,0,1-.39,1.34.44.44,0,0,1-.6.12.34.34,0,0,1-.12-.12,2.44,2.44,0,0,1-.39-1.34,2.32,2.32,0,0,1,.39-1.34.44.44,0,0,1,.61-.1A.36.36,0,0,1,135.31,47Z"/><path class="cls-2" d="M148,54.91a9.83,9.83,0,0,1-2.52,1.5,10,10,0,0,1-2.83.78.37.37,0,0,1-.41-.34.38.38,0,0,1,.12-.32,10.05,10.05,0,0,1,2.53-1.5,9.66,9.66,0,0,1,2.83-.78.37.37,0,0,1,.41.34A.39.39,0,0,1,148,54.91Z"/><path class="cls-2" d="M145.29,60.64a7.33,7.33,0,0,1,2.57.2,7.89,7.89,0,0,1,2.39,1,.38.38,0,0,1,.11.53.4.4,0,0,1-.27.17,7.83,7.83,0,0,1-2.57-.2,7.39,7.39,0,0,1-2.4-1,.39.39,0,0,1-.11-.53A.4.4,0,0,1,145.29,60.64Z"/><path class="cls-2" d="M149.46,57.17a3.55,3.55,0,0,1,1.31,1.17,3.62,3.62,0,0,1,.67,1.62.41.41,0,0,1-.35.46.47.47,0,0,1-.24,0,3.84,3.84,0,0,1-1.31-1.18,3.58,3.58,0,0,1-.67-1.62.41.41,0,0,1,.36-.45A.37.37,0,0,1,149.46,57.17Z"/><path class="cls-2" d="M147.66,70a6.79,6.79,0,0,1-2.16-1.2A7.19,7.19,0,0,1,143.82,67a.38.38,0,0,1,.44-.56,7.4,7.4,0,0,1,2.17,1.21,7,7,0,0,1,1.68,1.82A.4.4,0,0,1,148,70,.42.42,0,0,1,147.66,70Z"/><path class="cls-2" d="M141.48,77a5.59,5.59,0,0,1-.11,2.24,5.74,5.74,0,0,1-.86,2.07.39.39,0,0,1-.54.1.38.38,0,0,1-.16-.25,6,6,0,0,1,.1-2.24,5.59,5.59,0,0,1,.87-2.07.38.38,0,0,1,.54-.09A.38.38,0,0,1,141.48,77Z"/><path class="cls-2" d="M145.75,75.49a7.64,7.64,0,0,1,1.87-1.85,7.91,7.91,0,0,1,2.32-1.22.38.38,0,0,1,.48.25.42.42,0,0,1,0,.33,8.41,8.41,0,0,1-1.87,1.85,7.72,7.72,0,0,1-2.33,1.22.38.38,0,0,1-.47-.26A.4.4,0,0,1,145.75,75.49Z"/><path class="cls-2" d="M133.84,83.16a6.3,6.3,0,0,1,1.71,1.66,6.46,6.46,0,0,1,1.09,2.12.4.4,0,0,1-.27.47.37.37,0,0,1-.31,0,6.56,6.56,0,0,1-1.71-1.65,6.16,6.16,0,0,1-1.08-2.12.39.39,0,0,1,.57-.43Z"/><path class="cls-2" d="M137.16,79.77a2.64,2.64,0,0,1,.73,1.33,2.72,2.72,0,0,1,0,1.52.41.41,0,0,1-.53.26.42.42,0,0,1-.16-.09,2.8,2.8,0,0,1-.73-1.33,2.63,2.63,0,0,1,0-1.52.42.42,0,0,1,.54-.26A.38.38,0,0,1,137.16,79.77Z"/><path class="cls-2" d="M129.08,87.58a4.86,4.86,0,0,1,3.73.78.4.4,0,0,1,.08.56.44.44,0,0,1-.22.14,4.58,4.58,0,0,1-1.95,0,4.21,4.21,0,0,1-1.78-.78.39.39,0,0,1-.07-.56A.41.41,0,0,1,129.08,87.58Z"/><path class="cls-2" d="M112.93,90.82a4.72,4.72,0,0,1,.95,1.81,4.94,4.94,0,0,1,.21,2,.39.39,0,0,1-.44.33.36.36,0,0,1-.24-.13,4.92,4.92,0,0,1-1-1.8,4.78,4.78,0,0,1-.21-2,.38.38,0,0,1,.45-.33A.42.42,0,0,1,112.93,90.82Z"/><path class="cls-12" d="M91.73,132.64c-4.43,9.14-39.92,44.91-42.15,46.21-2.4,1.39-8.48-1.22-10.2-7.79-2.2-8.4,37.46-48.17,41.19-48.4,3.4-.19,11,3.21,11.6,8.4A3.43,3.43,0,0,1,91.73,132.64Z"/><path class="cls-13" d="M97.7,185.57c9.07-2.48,15.28,10.38,14,16a142.56,142.56,0,0,1-22.8-3.8S88.5,188.1,97.7,185.57Z"/><path class="cls-13" d="M68.17,165c10-3.69,18.62,8.11,13.5,15.9a11,11,0,0,1-18.39-.5C58.48,173,64.38,166.36,68.17,165Z"/><path class="cls-13" d="M109.25,170.56h0c-2,7.82-17.81,8.65-20.08-2.31-2.09-10.08,6.13-14.56,11.57-14l.37-.15c.63,1.5,1.25,2.91,1.86,4.17C105.12,162.72,107.24,166.81,109.25,170.56Z"/><path class="cls-14" d="M49.58,178.85c2.23-1.3,37.72-37.07,42.15-46.21l.45,0c1.86,2.2,5.45,13.15,8.93,21.45l-.37.15c-5.44-.56-13.66,3.92-11.57,14,2.27,11,18.12,10.13,20.08,2.31,9.14,17,16.15,26.9,14.51,30.08-.6,1.16-5.37,1.45-12,.93,1.23-5.63-5-18.49-14-16S89,197.78,89,197.78c-3.17-.79-6.28-1.71-9.18-2.73A115.53,115.53,0,0,1,49.58,178.85ZM68.17,165c-3.79,1.41-9.69,8-4.89,15.4a11,11,0,0,0,18.39.5C86.79,173.06,78.2,161.26,68.17,165Z"/><path class="cls-15" d="M41.08,169.39a7,7,0,0,1,2.87.78,9.69,9.69,0,0,1,2.41,1.71,10.12,10.12,0,0,1,1.78,2.35,8.57,8.57,0,0,1,1,2.74.48.48,0,0,1-.39.56.47.47,0,0,1-.47-.18l0,0c-.55-.73-1-1.45-1.57-2.12a17.91,17.91,0,0,0-1.7-1.88A15.77,15.77,0,0,0,43,171.7a23.23,23.23,0,0,0-2.16-1.38l-.06,0a.49.49,0,0,1-.18-.66A.48.48,0,0,1,41.08,169.39Z"/><path class="cls-16" d="M193,251.1s-5.82,56.5-6.55,57.81c-.33.59-1.81,1.43-4.17,2.19l5-58.67A52.24,52.24,0,0,0,193,251.1Z"/><path class="cls-6" d="M187.3,252.43l-5,58.67a39,39,0,0,1-6.23,1.4l2.46-58.9C181.9,253.3,184.85,252.88,187.3,252.43Z"/><path class="cls-16" d="M178.54,253.6l-2.46,58.9a48.09,48.09,0,0,1-5.39.45c-.81,0-1.63,0-2.44,0v-.48l1.59-58.45C173,254,175.88,253.84,178.54,253.6Z"/><path class="cls-6" d="M169.85,254.05l-1.59,58.45V313a61.65,61.65,0,0,1-6.54-.48l-3.48-58.89c3,.27,6.26.44,9.9.45Z"/><path class="cls-16" d="M158.23,253.61l3.48,58.89a56.38,56.38,0,0,1-5.85-1.05L148.7,252.3A92.25,92.25,0,0,0,158.23,253.61Z"/><path class="cls-6" d="M148.7,252.3l7.16,59.15a15.32,15.32,0,0,1-4.67-1.61c-1.44-1.16-8.6-58.14-8.72-59.1A54,54,0,0,0,148.7,252.3Z"/><path class="cls-17" d="M167.17,231.28s.23-1.48.6-3.69l.5-2.86c1.85,0,3.6,0,5.11-.09-.2,1.39-.38,2.71-.54,3.83-.28,2.14-.46,3.61-.46,3.61l0,.12a2.66,2.66,0,0,0-2.09.54,3.88,3.88,0,0,0-3.1-1.39Z"/><path class="cls-18" d="M191.14,209.12a5.27,5.27,0,0,1-.14,3.48c-.06.08-.23.12-.5.15C189.13,210.13,191.14,209.12,191.14,209.12Z"/><path class="cls-16" d="M168.27,224.73c.21-1.17.44-2.44.68-3.72a30,30,0,0,1,4.93.47c-.18,1.07-.34,2.13-.5,3.16C171.87,224.73,170.12,224.73,168.27,224.73Z"/><path class="cls-16" d="M190.5,212.75c-2.52.22-13.37-1.57-14.35-.59-.71.71-1.56,5-2.27,9.32A30,30,0,0,0,169,221c1.13-6,2.55-12.57,3.51-13.26,1.81-1.31,18.47,1.08,18.68,1.37C191.14,209.12,189.13,210.13,190.5,212.75Z"/><path class="cls-19" d="M157.3,230.27a17.4,17.4,0,0,1,10.25-2.7l.22,0c-.37,2.21-.6,3.69-.6,3.69v.07a3.88,3.88,0,0,1,3.1,1.39,2.66,2.66,0,0,1,2.09-.54l0-.12s.18-1.47.46-3.61h0a8.48,8.48,0,0,1,4.44,2,13.27,13.27,0,0,1,5.6.78,9.94,9.94,0,0,1,6,5c2.58,4.49,3.1,13.9,3.1,13.9a96.44,96.44,0,0,1-48.71,0l.11-.41A31,31,0,0,1,146.6,236C149.28,230.34,155.46,229.4,157.3,230.27Z"/><path class="cls-20" d="M178.23,222.67c0,1.35-2,1.82-4.85,2,.16-1,.32-2.09.5-3.16A24.4,24.4,0,0,1,178.23,222.67Z"/><path class="cls-20" d="M158.55,222.86l-.1-.27a28.52,28.52,0,0,1,9.81-1.59H169c-.24,1.28-.47,2.55-.68,3.72h0C162.9,224.73,158.55,223.89,158.55,222.86Z"/><path class="cls-21" d="M193.19,249.78s-.41.14-1.2.37c0,0-.52-9.41-3.1-13.9a9.94,9.94,0,0,0-6-5,13.27,13.27,0,0,0-5.6-.78,8.48,8.48,0,0,0-4.44-2h0c.16-1.12.34-2.44.54-3.83,2.87-.15,4.85-.62,4.85-2C194.44,228.81,193.19,249.78,193.19,249.78Z"/><path class="cls-22" d="M141.89,253.8a5.81,5.81,0,0,1-1.3-.53c-.39-.37,1.3-3.44,1.3-3.44.46.13.93.25,1.39.36a96.44,96.44,0,0,0,48.71,0c.79-.23,1.2-.37,1.2-.37s1.77,2.89,1.29,3.57a6.23,6.23,0,0,1-2,.82,55.14,55.14,0,0,1-5.73,1.32c-2.45.45-5.4.87-8.76,1.17-2.66.24-5.57.41-8.69.45h-1.72c-3.64,0-7-.18-9.9-.44a92,92,0,0,1-9.53-1.32A54,54,0,0,1,141.89,253.8Z"/><path class="cls-21" d="M168.26,224.73h0l-.5,2.86-.22,0a17.4,17.4,0,0,0-10.25,2.7c-1.84-.87-8,.07-10.7,5.72a31,31,0,0,0-3.21,13.79l-.11.41c-.46-.11-.93-.23-1.39-.36,0,0-.21-21.22,16.56-27.24l.1.27C158.55,223.89,162.9,224.73,168.26,224.73Z"/><path class="cls-5" d="M208.42,271.94a9,9,0,0,1-.08-7.34c4-9.34,19.63-12.87,31.71-25.49,12.75-13.33,19.12-27,27.25-29.74a11.13,11.13,0,0,1,6.45-.4h0c4.71,1.26,6.43,6,6.43,6-6.87,3.27-15.3,24.92-29.67,38.56-13.92,13.24-29.2,18.19-32.24,24.73h0A10.38,10.38,0,0,1,208.42,271.94Z"/><path class="cls-11" d="M273.75,209a11.13,11.13,0,0,0-6.45.4c-8.13,2.7-14.5,16.41-27.25,29.74-12.08,12.62-27.69,16.15-31.71,25.49a9,9,0,0,0,.08,7.34c-4.18-1.6-8.24-7.25-5.15-14.68,3.18-7.66,12.95-7.77,31.86-26.48,9.76-9.66,17.36-26.2,26.64-27.87C270.85,201.28,273.63,208.64,273.75,209Z"/><path class="cls-11" d="M281.72,214.51c20.68-1.07,14.59,31.46-12.39,57.92s-51.84,15.74-51.61,8a5.38,5.38,0,0,1,.55-2.21c3-6.54,18.32-11.49,32.24-24.73,14.37-13.64,22.8-35.29,29.67-38.56A3.91,3.91,0,0,1,281.72,214.51Z"/><path class="cls-6" d="M267.21,221.82c1-.48,1.32-2.19,0-2.58a10.39,10.39,0,0,0-9.1,1.78c-2.79,2.29-3.2,5.6-2.19,8.88a6.66,6.66,0,0,1,.58,3.16,4.34,4.34,0,0,1-1.69,2.59c-2.21,1.7-5.58.94-8.15,1.68-3.21.93-5.6,3.62-5.33,7.06.15,2,2.17,4.76.17,6.26s-5.5.63-7.91.45c-3.21-.25-7,0-9.18,2.73a6.88,6.88,0,0,0-1.4,4.86c.07,1.37.57,2.7.6,4.08.07,3.1-4.73,2-6.69,2.33a2.39,2.39,0,0,0-.65,4.53,10.51,10.51,0,0,0,10-1.24c2.54-2,2.9-5,2.35-8-.16-.91-.61-2.13-.28-3s1.65-1,2.52-1.1c3.13-.31,6.23.79,9.38.33,3.32-.48,6.5-2.55,7.34-6a8.21,8.21,0,0,0-.24-4.2c-.22-.83-1-2.26-.67-3.1s1.39-1.1,2.08-1.26c1.62-.36,3.31-.23,4.94-.57a10,10,0,0,0,7.12-5.43,8.28,8.28,0,0,0,.72-4.9c-.25-1.5-1.1-2.94-1.2-4.45C260.11,223.33,265,222.94,267.21,221.82Z"/><path class="cls-23" d="M105.77,259.76c.6-.31,3.52,2.85,6.26,3.89,0,0-29,47.16-32.59,46.38-4.93-1-3.31-55.58-3.31-55.58a13,13,0,0,0,4.51,1.14c1.35,0,.91,3.27,4.56,4.29s5.46-2.58,6.93-2.2,4.31,4.14,7.41,5S105,260.18,105.77,259.76Z"/><path class="cls-5" d="M114.86,257.32s2.91,5-.2,6.42a3.4,3.4,0,0,1-2.63-.09c-2.74-1-5.66-4.2-6.26-3.89-.8.42-3.13,3.8-6.23,2.92s-6-4.59-7.41-5-3.28,3.22-6.93,2.2-3.21-4.3-4.56-4.29a13,13,0,0,1-4.51-1.14c-1-.44-1.74-1-1.9-1.72-.41-1.82,2.45-3.38,3.06-5.71.76-2.84-3.68-7.39,3.08-18.63,7-11.73,19.06-13.24,28.23-8.54C135.82,233.8,114.86,257.32,114.86,257.32Z"/><path class="cls-24" d="M90.2,261a14.45,14.45,0,0,1-2.83,2.53c-1,.73-2,1.54-3,2.34A25.93,25.93,0,0,1,81.24,268a16.75,16.75,0,0,1-3.48,1.63.22.22,0,0,1-.28-.15.24.24,0,0,1,.11-.27c1.09-.59,2.13-1.29,3.16-2s2-1.44,3.11-2.11a31.06,31.06,0,0,0,3.07-2.18A18.61,18.61,0,0,1,90,260.72a.16.16,0,0,1,.21.06A.15.15,0,0,1,90.2,261Z"/><path class="cls-24" d="M99.5,265.1a45.34,45.34,0,0,1-5.11,4.29c-1.79,1.32-3.52,2.71-5.27,4.09s-3.58,2.64-5.44,3.88a45.48,45.48,0,0,1-5.8,3.34.21.21,0,0,1-.3-.11.23.23,0,0,1,.09-.29h0c3.77-2.3,7.26-5,10.91-7.56,1.82-1.26,3.63-2.54,5.36-3.93a57.35,57.35,0,0,1,5.37-3.94.15.15,0,0,1,.21,0A.19.19,0,0,1,99.5,265.1Z"/><path class="cls-24" d="M104.51,272.11a49.23,49.23,0,0,1-5.82,5.55c-2.06,1.71-4.08,3.47-6.17,5.16a61,61,0,0,1-6.58,4.66,37.51,37.51,0,0,1-7.23,3.6.23.23,0,0,1-.29-.14.24.24,0,0,1,.12-.29,50.62,50.62,0,0,0,6.91-3.93c2.23-1.45,4.35-3.06,6.51-4.62s4.27-3.22,6.26-5,4-3.55,6.09-5.21a.16.16,0,0,1,.21,0A.15.15,0,0,1,104.51,272.11Z"/><path class="cls-24" d="M91.64,292.08A16.09,16.09,0,0,1,88.73,295c-1.06.87-2.06,1.81-3.09,2.72a30.8,30.8,0,0,1-3.27,2.51,27.07,27.07,0,0,1-3.58,2.07.24.24,0,0,1-.31-.11.22.22,0,0,1,.08-.28c1.11-.79,2.19-1.6,3.28-2.42S84,297.8,85.07,297a32.66,32.66,0,0,0,3.18-2.56,23.28,23.28,0,0,1,3.18-2.58.15.15,0,0,1,.21,0A.15.15,0,0,1,91.64,292.08Z"/><path class="cls-24" d="M94.1,262.51a25.11,25.11,0,0,1,1.59,4,37.5,37.5,0,0,0,1.6,3.95c.61,1.29,1.13,2.61,1.71,3.89s1.17,2.58,1.85,3.82a.23.23,0,0,1-.38.25,22.51,22.51,0,0,1-2.29-3.67,30.11,30.11,0,0,1-1.73-4c-.48-1.35-.92-2.71-1.45-4a17.76,17.76,0,0,1-1.18-4.13.14.14,0,0,1,.12-.17A.15.15,0,0,1,94.1,262.51Z"/><path class="cls-24" d="M83.53,260.54a73.36,73.36,0,0,1,2.17,7.09c.62,2.39,1.38,4.74,2.16,7.08s1.48,4.71,2.24,7.06,1.49,4.7,2.35,7A.23.23,0,0,1,92,289a68.18,68.18,0,0,1-2.79-6.9c-.83-2.34-1.61-4.69-2.25-7.08s-1.28-4.79-2-7.16a54.91,54.91,0,0,1-1.75-7.21.15.15,0,0,1,.13-.17A.15.15,0,0,1,83.53,260.54Z"/><path class="cls-24" d="M79.13,273.5a66.38,66.38,0,0,1,1.22,7.29c.29,2.44.71,4.87,1.13,7.3s.77,4.86,1.12,7.3.68,4.87,1.08,7.29a.24.24,0,0,1-.19.27.24.24,0,0,1-.26-.17c-.62-2.4-1.1-4.82-1.53-7.25s-.83-4.86-1.11-7.31-.58-4.9-1-7.33a60.48,60.48,0,0,1-.79-7.35.16.16,0,0,1,.15-.16A.16.16,0,0,1,79.13,273.5Z"/><path class="cls-3" d="M577.54,55.27A163.58,163.58,0,0,0,447.22,317.72c-5.29,10.55-12.06,24.93-10.6,26.66s14.87-4.13,25.48-9.63A163.58,163.58,0,1,0,577.54,55.27Z"/><path class="cls-3" d="M475,67.71a22,22,0,0,0-2.24-4.2c-.79-1.25-1.58-2.49-2.4-3.72-1.69-2.54-3.31-5.14-5.11-7.6a2.14,2.14,0,0,0-2.87-.75,2.12,2.12,0,0,0-.75,2.87c1.69,2.54,3.56,5,5.35,7.45.88,1.21,1.77,2.39,2.67,3.57A21.64,21.64,0,0,0,472.85,69C473.75,69.76,475.52,69.06,475,67.71Z"/><path class="cls-3" d="M488.15,62.17a108.47,108.47,0,0,0-4.93-15.42c-1-2.46-2-4.89-3.17-7.28-.6-1.25-1.2-2.51-1.86-3.74a12.13,12.13,0,0,0-2.31-3.45A1.73,1.73,0,0,0,473,34a12.75,12.75,0,0,0,1.53,3.64c.58,1.18,1.19,2.34,1.77,3.52,1.16,2.36,2.29,4.73,3.36,7.13,2.14,4.8,4.06,9.72,5.89,14.64A1.34,1.34,0,0,0,488.15,62.17Z"/><path class="cls-3" d="M500.79,60.08c-.51-3.61-1.08-7.19-1.69-10.79q-.44-2.59-.88-5.19c-.26-1.47-.65-4.5-2.87-3.89s-1.22,3.42-.88,4.93c.38,1.7.78,3.4,1.18,5.11.82,3.52,1.66,7,2.58,10.53C498.68,62.48,501,61.72,500.79,60.08Z"/><path class="cls-3" d="M641.06,388.44c0-1-.07-1.95-.1-2.92-.08-2-.11-4-.32-5.94a1.59,1.59,0,0,0-1.54-1.53,1.56,1.56,0,0,0-1.53,1.53c-.22,2-.25,4-.33,5.94,0,1-.07,2-.1,2.92a9.31,9.31,0,0,0,.17,3.29,1.88,1.88,0,0,0,3.58,0A9.31,9.31,0,0,0,641.06,388.44Z"/><path class="cls-3" d="M661.22,391.71l0-.07c-.12-.26-.23-.52-.34-.78-.32-.77-.63-1.54-.93-2.32-.61-1.56-1.2-3.12-1.73-4.7s-1-3.18-1.46-4.78-.83-3.24-1.43-4.79-3-1.45-3,.41a34,34,0,0,0,1.23,7.49c.59,2.43,1.27,4.83,2.07,7.2.37,1.13.79,2.24,1.22,3.35.54,1.39,1.07,2.82,2.73,3.09a2.32,2.32,0,0,0,2.72-2.35A2.15,2.15,0,0,0,661.22,391.71Z"/><path class="cls-3" d="M678.58,380.06c-1.63-2.29-3.45-4.46-5.19-6.66s-3.36-4.22-5.19-6.19c-1.46-1.59-4.15.47-3,2.31,1.43,2.28,3,4.47,4.63,6.62s3.3,4.58,5.08,6.75a2.33,2.33,0,0,0,3.07.18A2.31,2.31,0,0,0,678.58,380.06Z"/><path class="cls-3" d="M691.26,367.61a3.5,3.5,0,0,0-1.59-2.13q-.81-.51-1.59-1.05c-.52-.35-1-.72-1.55-1.09-.25-.17-.49-.35-.73-.53l-.4-.3s-.06-.05-.07-.05l-.08-.07c-2-1.57-3.84-3.34-5.81-5a1.46,1.46,0,0,0-1.9-.11,1.43,1.43,0,0,0-.38,1.87,30.38,30.38,0,0,0,5.38,6.05c1.05.95,2.13,1.85,3.25,2.71.54.4,1.08.8,1.62,1.18a3.4,3.4,0,0,0,2.7.5A1.67,1.67,0,0,0,691.26,367.61Z"/><path class="cls-25" d="M488.25,164.6c-8.58.5-12.12,13.63-15.44,26.4-4.66,17.94-18.94,68.66-14.92,70.88s33.23-22.43,45.17-50.54C511.55,191.36,511.84,163.2,488.25,164.6Z"/><path class="cls-26" d="M491.07,203.62c-.16-1.66-2.26-2.35-3.58-2.91A29.73,29.73,0,0,0,482,199c-3.56-.76-7.65-1.17-11.21-.16-.78.23-.82,1.54.11,1.54,3.41,0,6.71-.21,10.08.51a28.08,28.08,0,0,1,4.66,1.4,21.4,21.4,0,0,1,4.35,2.06A.7.7,0,0,0,491.07,203.62Z"/><path class="cls-26" d="M480.44,205.2a9.55,9.55,0,0,0-5.17-1.48,32.3,32.3,0,0,0-5.47.27c-.55.06-.48,1,.07,1,1.71,0,3.42.1,5.12.26a36.33,36.33,0,0,1,4.94,1A.58.58,0,0,0,480.44,205.2Z"/><path class="cls-26" d="M479.45,224.39a9.71,9.71,0,0,0-3.37-1.12,31,31,0,0,0-3.71-.53,25,25,0,0,0-7.42.5.35.35,0,0,0,.15.69,36.1,36.1,0,0,1,7.2-.15,28.46,28.46,0,0,1,3.55.55,23.23,23.23,0,0,0,3.36.75A.38.38,0,0,0,479.45,224.39Z"/><path class="cls-26" d="M476.46,217.81a12.16,12.16,0,0,0-4.36-.75,12.63,12.63,0,0,0-4.41.57c-.3.1-.34.61,0,.61,1.43,0,2.86-.1,4.3-.09s2.87.25,4.31.28A.32.32,0,0,0,476.46,217.81Z"/><path class="cls-26" d="M474.45,235.25a11.65,11.65,0,0,0-5.79-1.59,32,32,0,0,0-6.11.17c-.48,0-.4.79.06.82,1.95.17,3.91.19,5.86.41a22.6,22.6,0,0,1,2.83.48c.94.22,1.86.51,2.81.7C474.67,236.35,474.85,235.54,474.45,235.25Z"/><path class="cls-26" d="M494.36,188.71c-2.11-1.88-5.31-2.61-8-3a41.55,41.55,0,0,0-10,.17c-.57.07-.52,1,.07,1a68.88,68.88,0,0,1,9.42-.21,21.46,21.46,0,0,1,4.2.79,33,33,0,0,1,4,1.73C494.29,189.39,494.61,188.93,494.36,188.71Z"/><path class="cls-27" d="M496.2,144.74c1,13.32,9.26,15.8,14.05,10.06,1.38-1.64,12.12,1.9,14.53-6.22,1.75-5.88-1.22-8,0-10.87s11-2,11.56-10.51-13.11-13.78-24.62-7.15C505.86,123.43,495.55,136.32,496.2,144.74Z"/><path class="cls-28" d="M484.33,111.17c-5.32,3.24.39,15.23-.93,16.35a10.36,10.36,0,0,0-3.74,10.61c1.39,6,8.14,9.09,8.22,11.34s1.57,8.25,7.88,5.07,11.5-11.55,12.6-21.63c1-9.62-4.72-8.31-6.74-11.19C498.3,117,495.26,104.51,484.33,111.17Z"/><path class="cls-29" d="M508.11,143.47c-.88,1.88-1.77,3.76-2.68,5.61s-1.82,3.72-2.69,5.58-1.75,3.74-2.55,5.63-1.57,3.78-2.21,5.73v0a.47.47,0,0,1-.92-.22,42.23,42.23,0,0,1,3.88-12A66.13,66.13,0,0,1,507.3,143a.48.48,0,0,1,.67-.1.49.49,0,0,1,.15.59Z"/><path class="cls-29" d="M494.81,126a31,31,0,0,1,2.48,9.68,65.73,65.73,0,0,1,.41,9.91c0,1.65-.15,3.29-.25,4.94s-.31,3.28-.51,4.91l-.73,4.88c-.33,1.61-.62,3.23-1,4.83a.47.47,0,0,1-.57.36.48.48,0,0,1-.37-.51h0l.91-9.73.32-4.86c.05-1.62.19-3.24.19-4.86.11-3.24,0-6.47-.18-9.69-.09-1.61-.28-3.21-.52-4.8a27.61,27.61,0,0,0-1.05-4.63l0-.07a.48.48,0,0,1,.29-.6A.47.47,0,0,1,494.81,126Z"/><path class="cls-30" d="M577,97.06c-3,3.42-3.32,7.82-6.5,12.47-2.2,3.2-15.8,10.22-14.74,24.3s24.69,28.14,39.56,13.94,2.92-27.29,2.13-32,2-8.23-.93-15.8C593.7,92.75,582.28,90.94,577,97.06Z"/><path class="cls-29" d="M588.37,76.27a14.74,14.74,0,0,1,1.6,4.25A22.56,22.56,0,0,1,590.5,85a25.87,25.87,0,0,1-.36,4.48c-.1.74-.31,1.46-.47,2.18s-.44,1.43-.7,2.12a.48.48,0,0,1-.62.28.47.47,0,0,1-.31-.49h0c.12-1.45.27-2.87.35-4.29s.12-2.83.11-4.24-.12-2.81-.28-4.21a35.43,35.43,0,0,0-.71-4.14l0-.05a.48.48,0,0,1,.88-.36Z"/><path class="cls-31" d="M656.58,130.24c10.49-6.35,20.13,1.56,22.32,8.35,3,9.19-2.52,21.65-12.57,28.76s-24.24,5.31-26.61,4.43S617,154.13,627,132.45C634.55,116.2,655.84,122.41,656.58,130.24Z"/><path class="cls-27" d="M658.5,122.25c4.92-.51,5.65-10.9.22-14.78-4-2.85-11.75-3.54-12.75-2.66S645.42,123.61,658.5,122.25Z"/><path class="cls-29" d="M656.1,130.17a20.18,20.18,0,0,1,1.72-6.31,21.67,21.67,0,0,1,3.57-5.52,22.69,22.69,0,0,1,2.39-2.31,20.21,20.21,0,0,1,2.75-1.83,19.87,19.87,0,0,1,6.15-2.2.48.48,0,0,1,.28.91h0a29,29,0,0,0-5.47,2.79,22.87,22.87,0,0,0-2.43,1.81,23.9,23.9,0,0,0-2.13,2.14,26.3,26.3,0,0,0-3.48,5,31.57,31.57,0,0,0-2.36,5.67v0a.48.48,0,0,1-.94-.18Z"/><path class="cls-32" d="M646.46,147a15.94,15.94,0,0,1,1.14-8,18.8,18.8,0,0,1,4.65-6.73,23.1,23.1,0,0,1,3.29-2.46,15.26,15.26,0,0,1,3.72-1.75,12.57,12.57,0,0,1,8.06,0,.19.19,0,0,1,.11.23.18.18,0,0,1-.18.12,15.44,15.44,0,0,0-7.42,1.18,17.12,17.12,0,0,0-3.26,1.83,23.1,23.1,0,0,0-3,2.32,21.53,21.53,0,0,0-4.5,5.95,22.29,22.29,0,0,0-2.23,7.27v0a.22.22,0,0,1-.24.19A.22.22,0,0,1,646.46,147Z"/><path class="cls-33" d="M694.53,188.28a18.53,18.53,0,0,1,8.3,15.88c-.12,12.79-8.4,21.81-9.64,25.32-2.06,5.86-5.46,24.51-25,30.93-12.81,4.19-34.87-4.78-41.82-18.25a34.06,34.06,0,0,0,27.84,15.09c28.54-.18,31.65-28.32,35.24-33.45,5.42-7.75,17.6-25,5-35.4Z"/><path class="cls-30" d="M694.44,188.4c12.57,10.36.39,27.65-5,35.4-3.59,5.13-6.7,33.27-35.24,33.45a34.06,34.06,0,0,1-27.84-15.09c-4-6.08-5.56-13.36-3.2-20.61,6.1-18.7,22-19.83,32.23-22.43,8.58-2.18,20.91-23.52,37.81-11.69C693.62,187.74,694,188.07,694.44,188.4Z"/><path class="cls-12" d="M667.66,213.94c-5.28-7.15-13.34-5.21-19.44-1.32S636.58,228,646,234.23C657.29,241.7,675,223.85,667.66,213.94Z"/><path class="cls-6" d="M506,277.16c4.15-9.15,22.74-15,31.2,1.53,8.2,16.05-2.17,34-5.83,37.07s-7.55.49-8.63,1.14-.63,2.37-6,4.78-16.84,0-23.57-6.23c-8.84-8.18-14.6-21.4-6.45-32.25C493.05,274.69,502.28,276.14,506,277.16Z"/><path class="cls-27" d="M502.73,267.32s-2-4.93-8.72-3.75-9.76,4.47-9.76,4.47,5.84,3.32,11.84,3.37C500.85,271.45,502.72,269.55,502.73,267.32Z"/><path class="cls-29" d="M504.6,257a43,43,0,0,0-.52,4.92,29.24,29.24,0,0,0,.16,4.87,26.09,26.09,0,0,0,.92,4.77,47.93,47.93,0,0,0,1.65,4.7l0,.06a.72.72,0,0,1-.43.92.71.71,0,0,1-.79-.2,16.21,16.21,0,0,1-2.94-4.59,16.79,16.79,0,0,1-.91-2.61c-.14-.44-.19-.9-.29-1.35a10.54,10.54,0,0,1-.21-1.37,23.17,23.17,0,0,1-.12-2.76,20.87,20.87,0,0,1,.3-2.74,15,15,0,0,1,1.84-5.17.71.71,0,0,1,1-.25.72.72,0,0,1,.35.73Z"/><path class="cls-27" d="M548.21,243.83c-8.21,2.06-24.14-10.67-24.57-25.2-.31-10.27,6.78-12.49,6.22-18.74s-2-15.45,8.71-21.49c9.16-5.16,16.88,2.37,17.66,12.48s3.26,11.92,6.3,13.72,9.58,6.38,8,16.15C567.83,237.78,560.33,240.8,548.21,243.83Z"/><path class="cls-29" d="M543.05,190.22a89.85,89.85,0,0,0-.32,9.72c0,3.24.2,6.48.53,9.71a110.6,110.6,0,0,0,3.58,19c.88,3.11,1.92,6.16,3.09,9.17s2.54,5.94,4,8.81a79.36,79.36,0,0,0,5,8.32,93.52,93.52,0,0,0,5.8,7.82v0a.72.72,0,0,1-.11,1,.74.74,0,0,1-1-.06,75.71,75.71,0,0,1-12-15.86,80.16,80.16,0,0,1-4.41-9,97.56,97.56,0,0,1-3.29-9.44,93.81,93.81,0,0,1-3.33-19.65,82.72,82.72,0,0,1,1-19.87.72.72,0,0,1,1.42.19Z"/><path class="cls-28" d="M567.69,237c-10-2.55-12-14.41-10.16-21.2s5.06-8.11,5.72-10.78-3.69-10.46,2.88-16.72,11.34-4,13.75-6.59,5.5-11,14.88-9.32S603,188,605.41,190s6,5.73,4.64,12.66c-1.87,9.53-15.81,14.24-14.53,18.54C598.5,231.21,587.4,242,567.69,237Z"/><path class="cls-29" d="M593.56,185c-2.13,2.63-4.19,5.37-6.12,8.18s-3.84,5.63-5.59,8.55a130.21,130.21,0,0,0-9.2,18.13,95.8,95.8,0,0,0-3.32,9.57,88.19,88.19,0,0,0-2.16,9.87,65.29,65.29,0,0,0-.68,10.07,62.27,62.27,0,0,0,1,10.08v0a.72.72,0,0,1-1.4.31,55.17,55.17,0,0,1-1.79-10.32,65.64,65.64,0,0,1,.26-10.49,73.24,73.24,0,0,1,2-10.31,95.68,95.68,0,0,1,3.34-9.93,107.93,107.93,0,0,1,9.74-18.41c1.92-2.9,3.93-5.72,6.06-8.46a97.53,97.53,0,0,1,6.84-7.83.72.72,0,0,1,1.07.95Z"/><path class="cls-34" d="M651.08,279.09c3.24,1.8,6.61,22.24-7.27,41.84,6.69-13.5,6.52-27.83,3.71-28.77-3.48-1.16-3.33.81-5.24,2-7.81-19.6-30.72-22.58-30.72-22.58-.73-4.51-9.95-5.84-19.38-3.16l-.11-.39a14.33,14.33,0,0,1,11.77-5.81c7.66.27,6.11,3.1,11.23,1.36,4.78-1.62,7.31-4.19,15.27-2,8.46,2.31,9.81,10.7,14.47,16.15C647.3,280.63,647.73,277.22,651.08,279.09Z"/><path class="cls-35" d="M620.09,310.51a8.2,8.2,0,0,0-1.25-1.42c-4.82-4.45-11.86-5.48-13-10,0,0,5,1,6.43-3.7s-3.28-9.47-3.51-12.62,3.83-4.87,2.81-11.13c0,0,22.91,3,30.72,22.58-1.9,1.24-7-3.12-12.57-.2s-4.76,11.41-5.07,14.4-4.54,2.12-4.54,2.12Z"/><path class="cls-36" d="M608.75,282.73c.23,3.15,5,7.88,3.51,12.62s-6.43,3.7-6.43,3.7a4.65,4.65,0,0,1-.15-.92c-.39-5.37-10.43-3.68-19.82-1.11s-8.42-11.59-18.07-7.13c0,0,2.38-8.49,14-16.58a34.7,34.7,0,0,1,10.44-4.87c9.43-2.68,18.65-1.35,19.38,3.16C612.58,277.86,608.52,279.59,608.75,282.73Z"/><path class="cls-36" d="M620.1,310.5s4.23.86,4.54-2.12-.5-11.48,5.07-14.4,10.67,1.44,12.57.2,1.76-3.18,5.24-2c2.81.94,3,15.27-3.71,28.77l0,0a47,47,0,0,1-5.89,9.19c-9.56,11.62-29,13.54-29.77,13.62a22.21,22.21,0,0,0,8.33-5c6.82-7.07-2.22-13.43-.12-17.45,1.88-3.62,6.53-6.78,3.75-10.79Z"/><path class="cls-30" d="M620.09,310.51c2.78,4-1.87,7.17-3.75,10.79-2.1,4,6.94,10.38.12,17.45a22.21,22.21,0,0,1-8.33,5h0a33.25,33.25,0,0,1-34.75-7.58c-15.24-14.92-13.76-42.51-5.57-46.29,9.65-4.46,8.69,9.71,18.07,7.13s19.43-4.26,19.82,1.11a4.65,4.65,0,0,0,.15.92c1.15,4.56,8.19,5.59,13,10A8.2,8.2,0,0,1,620.09,310.51Z"/><path class="cls-34" d="M599.63,309.18c-2.79.94-5.42,3.08-7.66,4.95a43.77,43.77,0,0,0-6.63,6.84c-3.78,4.87-7.08,10.69-7.92,16.88a.56.56,0,0,0,1.08.3c2.33-5.66,4.7-11.2,8.5-16.06a51.08,51.08,0,0,1,6-6.43c1.18-1.06,2.4-2.07,3.67-3s2.45-1.58,3.55-2.53A.57.57,0,0,0,599.63,309.18Z"/><path class="cls-34" d="M600.26,288.43l-2.39-2.34a54.83,54.83,0,0,0-4.62-4.14c-3.1-2.38-6.78-4-10.76-3.65a.4.4,0,0,0,0,.8c3.88.13,7.34,2.34,10.16,4.86,1.38,1.23,2.67,2.55,4,3.87l2.1,2.15c.68.69,1.31,1.57,2.31,1.74a.81.81,0,0,0,1-1C601.83,289.73,601,289.11,600.26,288.43Z"/><path class="cls-34" d="M638.37,306.71c-.27-2.54-.62-5.53-2.55-7.39a.66.66,0,0,0-1,.8c2.62,4.8,2.56,10.79,2.06,16.12a51.2,51.2,0,0,1-4.6,16.71c-.27.58.55,1.09.87.51A45.28,45.28,0,0,0,638.41,316,46,46,0,0,0,638.37,306.71Z"/><path class="cls-37" d="M627.19,279.74a26.09,26.09,0,0,0-8.41,9,32.65,32.65,0,0,0-2.56,5.53,28.45,28.45,0,0,0-.93,3.11,4.38,4.38,0,0,0-.15,2.83.63.63,0,0,0,1,.12,5.23,5.23,0,0,0,.86-2.48c.23-1,.5-1.9.82-2.82a29.78,29.78,0,0,1,2.47-5.42,40.88,40.88,0,0,1,7.49-9.14A.47.47,0,0,0,627.19,279.74Z"/><path class="cls-34" d="M580.13,329.85a73,73,0,0,1-4.91-11.39,26.88,26.88,0,0,1-.85-12.47c.1-.61-.78-1.12-1.1-.46-4,8.51,1.1,17.9,5.31,25.23C579.16,331.78,580.65,330.88,580.13,329.85Z"/><path class="cls-34" d="M611.33,319.17c-2.23.79-4.23,2.37-6.37,3.4a46.11,46.11,0,0,1-7.16,2.69,49.21,49.21,0,0,1-7.3,1.49c-2.55.31-5.12.23-7.67.51-.52.06-.73.86-.13,1a24.45,24.45,0,0,0,7.59.19,45.64,45.64,0,0,0,7.78-1.39,48.8,48.8,0,0,0,7.23-2.63c2.23-1,5.07-2.19,6.72-4.06C612.46,319.87,612.05,318.91,611.33,319.17Z"/><path class="cls-34" d="M589.48,305.48c-.09-.78-1.37-1.14-1.52-.2a73.46,73.46,0,0,0-.73,7.41c-.16,2.49-.32,5-.42,7.47a.85.85,0,0,0,1.66.22,68.52,68.52,0,0,0,1-7.4A38.36,38.36,0,0,0,589.48,305.48Z"/><path class="cls-34" d="M604.22,310.67a20.94,20.94,0,0,0-3.55,1.76q-1.67.92-3.39,1.71c-2.38,1.1-4.84,2.25-7.53,2.06a.68.68,0,0,0-.18,1.33c2.75.74,5.54-.39,8-1.51,1.28-.57,2.53-1.2,3.75-1.88a13,13,0,0,0,3.46-2.45C605.2,311.26,604.83,310.47,604.22,310.67Z"/><path class="cls-6" d="M362.58,234.15a2.93,2.93,0,0,0-3.53-.13c-2.94,2.26-6.85,5.45-10.82,4.4a5.85,5.85,0,0,1-3.78-7.82c1.7-3.95,6.65-4.21,10.25-5.32a6.44,6.44,0,0,0,3.25-1.92c1.06-1.33,1.07-3,1-4.61-.07-2.75-.25-5.5-.5-8.24q-.21-2.3-.51-4.59c-.18-1.43-.18-3.3-1.06-4.52a3,3,0,0,0-4.74-.2,2.72,2.72,0,0,0-.06,3.19c0,.13,0,.27.07.43.07.57.15,1.13.22,1.7-.17,1.75-.18,3.55-.24,5.27l-.15,3.92c0,.71,0,1.5,0,2.26l-1.08.25a20.86,20.86,0,0,0-2.77.91,18,18,0,0,0-4.75,2.87,15.31,15.31,0,0,0-5.55,10.35,12.46,12.46,0,0,0,4.29,10.5c3.33,2.79,7.41,3,11.44,1.86,3.83-1.09,8.45-3,9.78-7.13A3,3,0,0,0,362.58,234.15Z"/><path class="cls-6" d="M355.24,191.34a3.94,3.94,0,0,0-.77-1.82,4,4,0,0,0-1.61-1.23,4.61,4.61,0,0,0-3.71.15,4.49,4.49,0,0,0-1.74,1.4,4,4,0,0,0-.77,2.77A2.73,2.73,0,0,0,348.9,195a4.16,4.16,0,0,0,2,1,3.58,3.58,0,0,0,3.53-1.39A4.42,4.42,0,0,0,355.24,191.34Z"/><path class="cls-6" d="M386.39,194.92a13.9,13.9,0,0,0-3.08-.27c-.58-.07-1.15-.11-1.73-.13-4.23-.09-14.61,2.29-11.21,8.52a2.09,2.09,0,0,0,2.91.48c.31-.26.19-.18.06-.11a4.49,4.49,0,0,0,1.13-.8c.22-.24.44-.56.64-.75a5.28,5.28,0,0,1,2.06-1,12.54,12.54,0,0,1,5.23-.58,8.6,8.6,0,0,1,4.87,2,4.81,4.81,0,0,1,1.07,1.34,2.71,2.71,0,0,1,.15.26c.09.19.17.39.25.58s.31,1,.28.81a8.55,8.55,0,0,1,.17,1.25c0,.17,0,.35,0,.52a.54.54,0,0,1,0,.11,4.18,4.18,0,0,1-.51,1.9,3.54,3.54,0,0,1-.93,1.11,8.39,8.39,0,0,1-2,1.09,20.69,20.69,0,0,0-4.86,2.44,8.78,8.78,0,0,0-3.34,5.68c-.77,5.27,2.28,10.64,4.19,15.36,1.19,2.93,6.11,2,5.57-1.33-.39-2.47-.8-4.94-1.18-7.41-.25-1.62-.65-3.55-.06-5.1s2.8-2.22,4.15-3a14.81,14.81,0,0,0,4.57-4C400.12,206.36,394.88,196.61,386.39,194.92Z"/><path class="cls-6" d="M391.1,245.47a3,3,0,0,0-.05-.43,4.28,4.28,0,0,0-1.48-2.6,3.78,3.78,0,0,0-3.86-.56,4.58,4.58,0,0,0-1.62,1.17,4.42,4.42,0,0,0-.94,1.87,3.93,3.93,0,0,0,.08,2.15,3.09,3.09,0,0,0,1.16,1.57,3.66,3.66,0,0,0,1.81.74,2.66,2.66,0,0,0,1.13-.07h.29A3.08,3.08,0,0,0,389,249a3.46,3.46,0,0,0,.76-.45,3.89,3.89,0,0,0,1-1.14A3.83,3.83,0,0,0,391.1,245.47Z"/><g class="cls-38"><path class="cls-39" d="M354.68,401l-2.18,8.38s2.47,1.32,3.39-.91S354.68,401,354.68,401Z"/><path class="cls-28" d="M332.57,386.26c.27-.81.54-1.6.81-2.4,0,0,9.31,20.41,19.9,24.4h0c1.32.5,1.9.15,2.07-.57-2.34,11-8.17,25-14.12,37.12-6.7,13.67-14.2,21.54-21.55,24.79a18.88,18.88,0,0,1-17.17-.6c-13.55-7.26-7.41-31.05.32-49.51a160.31,160.31,0,0,1,10.64-21.19C319,389.6,332.57,386.26,332.57,386.26Z"/><path class="cls-28" d="M448.5,500.16c-6.87,5-19.34,9.95-21.9,9.44-3.45-.68-17.81-48.43-18.26-49.92,3.58,17.29,9,44.8,7.54,46.9-8.62,12.58-85.28,13.51-100.21.23-2.27-2,4-37.21,4-37.21,7.35-3.25,14.85-11.12,21.55-24.79,5.95-12.15,11.78-26.14,14.12-37.12v0c.32-1.43-1-4.25-1.07-4.48h0c.52-2.76.93-5.33,1.26-7.59,1.72,1.55,6.95,5.39,15.65,4.26,7.26-.93,10.76-8.08,10.76-8.08V389.6s23.66.64,31.12,10.46a81,81,0,0,1,6.08,11.18C431.25,436.33,453.54,491.8,453,495,452.77,496.51,451,498.34,448.5,500.16Z"/><path class="cls-5" d="M301.24,278.45c4-3.26,10.51,4.72,8.85,5.6C306.6,285.92,297.28,281.72,301.24,278.45Z"/><path class="cls-5" d="M309.56,267.51c4.66-3.5,8,10,4.92,14.3C313.15,283.66,304.9,271,309.56,267.51Z"/><path class="cls-5" d="M385.77,298.91a8,8,0,0,0-.51-.9C385.31,298.1,385.5,298.42,385.77,298.91ZM269.66,393.57c-3.14-14.68,18.53-25.17,21-43.43s-1.39-40.46,8-52.41S319,291.16,319,291.16s-4.55-12.58,9.08-21.67,58.72-17.14,79,2.1,10.49,53.17,21.67,74.11,19.23,20.65,22,29.9-4.54,15.09-6.64,16.17-6.64-8.75-9.09-9.25,3.63,10.22,5.25,12.63c1,1.46-12,14-21.07,16.09a81,81,0,0,0-6.08-11.18C405.62,390.24,382,389.6,382,389.6v-3.34c25-7,32.75-29.77,32.75-36.12,0-7.37-6.75-16.89-6.75-16.89l-3.73-18-.05-.57c-5.55.47-13.21,0-13.17-.91.23-4.59-3.68-12.08-5.19-14.77,2.21,4.35,4.64,14.44,2.55,15.24a43.63,43.63,0,0,1-11.17,1.4c-3.48-.45-6-9.63-6.61-6.89s2.41,7,2.41,7c-21.13,5.34-34.13-26-39.46-24.43s-5.27,9.61-5.27,9.61-2.33,0-4.78,3C318,310.55,325.24,339.85,321,350c0,0-7.34-6.95-12.93-.66s0,23.47,17.48,18.56c0,0,2.05,6.1,9.25,11.64-.46,1.37-1,2.83-1.46,4.31-.27.8-.54,1.59-.81,2.4,0,0-13.62,3.34-19.09,12a160.31,160.31,0,0,0-10.64,21.19c-7-1.6-11.86-5.31-13.25-7.21s.92-14.54,1-15.17c-3.48,5.65-4.18,12.19-6.63,14.34C284,411.45,272.81,408.25,269.66,393.57Z"/><path class="cls-40" d="M446.54,512.18c.7,4.25.5,9.12-1.3,10.06s-3.6-3.56-3.6-3.56c.07,1.72-.2,3.09-1.06,3.68-1.73,1.17-7.69-11.36-7.69-11.36s.23,8.39-2.33,8.39-4-9.79-4-9.79c2.56.51,15-4.47,21.9-9.44,2.28,9.48,6.1,12.69,4.53,15.44C451.57,518.16,446.78,512.48,446.54,512.18Z"/><path class="cls-40" d="M356.53,387.85c-.2,1.88-.51,4.51-1,7.74-.33,2.26-.74,4.83-1.26,7.59h0q-.45,2.44-1,5.07h0c-10.59-4-19.9-24.4-19.9-24.4.5-1.48,1-2.94,1.46-4.31,1.7-5,3.1-8.89,3.73-9.75,1.93-2.62,3.74-2.62,3.74-2.62l.51.17c1.57-4.42,2.92-12,5.43-12,3.44,0,2.27,7.82,1.92,11.78,0,0,6.56,1.41,8,4.72s.15,8.28-1.4,12.8C356.81,384.7,356.73,385.84,356.53,387.85Z"/><path class="cls-40" d="M382,389.6v2.17s-3.5,7.15-10.76,8.08c-8.7,1.13-13.93-2.71-15.65-4.26.47-3.23.78-5.86,1-7.74a72,72,0,0,0,12.05.47A56.72,56.72,0,0,0,382,386.26Z"/><path class="cls-40" d="M391,313.77c0,.91,7.62,1.38,13.17.91l.05.57,3.73,18s6.75,9.52,6.75,16.89c0,6.35-7.78,29.08-32.75,36.12a56.72,56.72,0,0,1-13.38,2.06,72,72,0,0,1-12.05-.47c.2-2,.28-3.15.28-3.15,1.55-4.52,2.91-9.43,1.4-12.8s-8-4.72-8-4.72c.35-4,1.52-11.78-1.92-11.78-2.51,0-3.86,7.53-5.43,12l-.51-.17s-1.81,0-3.74,2.62c-.63.86-2,4.79-3.73,9.75-7.2-5.54-9.25-11.64-9.25-11.64-17.48,4.91-23.07-12.25-17.48-18.56S321,350,321,350c4.2-10.16-3-39.46,2.45-46.09,2.45-3,4.78-3,4.78-3s0-8,5.27-9.61S351.87,321.1,373,315.76c0,0-3-4.28-2.41-7s3.13,6.44,6.61,6.89a43.63,43.63,0,0,0,11.17-1.4c2.09-.8-.34-10.89-2.55-15.24C387.33,301.69,391.24,309.18,391,313.77Z"/><path class="cls-41" d="M408.25,333A47.87,47.87,0,0,1,414,343.65a20.76,20.76,0,0,1,1.31,6,20.17,20.17,0,0,1-.93,6.08,44.41,44.41,0,0,1-5,11c-.55.85-1.07,1.72-1.7,2.52s-1.16,1.66-1.84,2.41l-2,2.3-2.16,2.13a47.55,47.55,0,0,1-21.2,11.26,66,66,0,0,1-24,.86.36.36,0,0,1-.3-.4.35.35,0,0,1,.4-.31,71.2,71.2,0,0,0,11.86.28,58.15,58.15,0,0,0,11.69-1.7A46.91,46.91,0,0,0,400.62,375a46.21,46.21,0,0,0,12.48-19.65,19.36,19.36,0,0,0,1-5.67,19.66,19.66,0,0,0-1.15-5.66,47.12,47.12,0,0,0-5.26-10.56h0a.36.36,0,1,1,.59-.4Z"/><path class="cls-42" d="M355.57,407.74a94,94,0,0,1-2.85,11.43c-1.19,3.74-2.54,7.43-4,11.09s-3,7.25-4.65,10.82-3.37,7.11-5.37,10.53a64.31,64.31,0,0,1-6.91,9.68,36.1,36.1,0,0,1-9.17,7.69,21.36,21.36,0,0,1-11.59,2.95,19.06,19.06,0,0,1-5.85-1.31,17,17,0,0,1-5.11-3,.18.18,0,0,1,0-.25.2.2,0,0,1,.24,0,18.81,18.81,0,0,0,10.76,3.47,20.13,20.13,0,0,0,10.74-3.19,37,37,0,0,0,8.55-7.55,63.26,63.26,0,0,0,6.62-9.45c2-3.32,3.68-6.81,5.37-10.33s3.29-7.07,4.87-10.63,3-7.19,4.36-10.85a116.18,116.18,0,0,0,3.56-11.13.22.22,0,0,1,.26-.15A.22.22,0,0,1,355.57,407.74Z"/><path class="cls-41" d="M340.2,371.19a29,29,0,0,0,3-7c.39-1.23.79-2.46,1.21-3.69a32.48,32.48,0,0,1,1.46-3.69,5.3,5.3,0,0,1,1.34-1.82,1.82,1.82,0,0,1,.73-.33,2.64,2.64,0,0,1,.74,0,2.53,2.53,0,0,1,1.25.58,4.07,4.07,0,0,1,1.16,2.06,11.61,11.61,0,0,1,.3,2.07,54.6,54.6,0,0,1-.44,7.85l-.62-.84a20.64,20.64,0,0,1,5.53,2.11,8.36,8.36,0,0,1,2.39,2,4.67,4.67,0,0,1,.79,1.45,7.32,7.32,0,0,1,.4,1.51,15.61,15.61,0,0,1-.38,5.92,50.31,50.31,0,0,1-1.66,5.52l0-.16c-.21,2-.43,4-.73,5.94s-.58,3.94-.94,5.91-.79,3.9-1.19,5.84-.84,3.89-1.28,5.83a0,0,0,0,1,0,0s0,0,0,0L355,396.48c.27-2,.48-3.94.68-5.91s.34-3.94.47-5.91a.4.4,0,0,1,0-.15h0a48.28,48.28,0,0,0,1.51-5.4,14.4,14.4,0,0,0,.26-5.37,6.42,6.42,0,0,0-.35-1.23,3.32,3.32,0,0,0-.59-1,7.14,7.14,0,0,0-2-1.59A19.14,19.14,0,0,0,350,368h0a.79.79,0,0,1-.6-.85,53.58,53.58,0,0,0,.45-7.62,9.93,9.93,0,0,0-.25-1.77,2.64,2.64,0,0,0-.64-1.31c-.26-.24-.74-.34-.85-.19a4,4,0,0,0-.95,1.28c-1.12,2.19-1.87,4.72-2.82,7.12-.47,1.22-.95,2.43-1.49,3.62a16,16,0,0,1-2,3.43.39.39,0,0,1-.54.06.39.39,0,0,1-.07-.51Z"/><path class="cls-41" d="M333.47,383.41c.84-3.11,1.76-6.18,2.69-9.26l.73-2.31.42-1.15a9.65,9.65,0,0,1,.57-1.2,7.47,7.47,0,0,1,1.87-1.85,4.23,4.23,0,0,1,2.56-.85.38.38,0,0,1,.36.39.37.37,0,0,1-.26.34l-.1,0a6.76,6.76,0,0,0-3.17,2.74,8.43,8.43,0,0,0-.44,1l-.47,1.09-1,2.19-3.69,8.89a.06.06,0,0,1-.07,0A.08.08,0,0,1,333.47,383.41Z"/><path class="cls-42" d="M308,444.73c3.83-10.33,8.11-20.46,12.5-30.55l3.35-7.53c1.12-2.51,2.31-5,3.35-7.51l6-15.33a.18.18,0,0,1,.34.11c-1.47,5.31-3,10.6-4.87,15.81s-4.22,10.17-6.39,15.25c-4.42,10.07-9,20.1-14,29.92a.21.21,0,0,1-.38-.17Z"/><path class="cls-42" d="M392.59,405.58q4.19,4,8,8.39a66.23,66.23,0,0,1,7,9.33,24.59,24.59,0,0,1,1.4,2.64,11.69,11.69,0,0,1,1,3,19.87,19.87,0,0,1-.11,6,37,37,0,0,1-1.41,5.74,39.81,39.81,0,0,1-2.2,5.45l.07-.54q2.83,14.81,5.53,29.64l2.59,14.85c.82,5,1.65,9.91,2.24,14.93a.47.47,0,0,1-.94.12h0c-.69-4.95-1.6-9.89-2.49-14.83l-2.8-14.8q-2.85-14.79-5.8-29.57a.78.78,0,0,1,.05-.5l0,0a43.72,43.72,0,0,0,3.23-10.72,19.47,19.47,0,0,0,.07-5.44,15.5,15.5,0,0,0-2.05-5,54.81,54.81,0,0,0-3.12-4.71q-1.67-2.31-3.45-4.55c-2.39-3-4.86-5.9-7.39-8.76h0a.48.48,0,0,1,0-.67A.48.48,0,0,1,392.59,405.58Z"/><path class="cls-43" d="M386,298.91a57.66,57.66,0,0,1,3,5.7,33.89,33.89,0,0,1,2.24,6.12,12.9,12.9,0,0,1,.27,1.65,6,6,0,0,1,.07.85v.53c0,.09,0,0,0-.11s-.1-.15-.08-.15a1.81,1.81,0,0,0,.54.18,7.49,7.49,0,0,0,.74.14c.5.07,1,.13,1.55.17a61.08,61.08,0,0,0,6.35.09,44.11,44.11,0,0,0,6.25-.63,9,9,0,0,0,1.41-.38,2.49,2.49,0,0,0,.52-.26s.08-.06,0,0a.13.13,0,0,0,0,.05v0a.94.94,0,0,0,0-.17,10,10,0,0,0-.11-2.9,46.68,46.68,0,0,0-3.78-12,48.62,48.62,0,0,0-15.44-19.58,41.49,41.49,0,0,0-23.65-7.73.48.48,0,0,1-.47-.49.49.49,0,0,1,.47-.46,43.1,43.1,0,0,1,12.91,1.55,40.15,40.15,0,0,1,11.81,5.64,43.64,43.64,0,0,1,9.45,9,55,55,0,0,1,6.74,11.2,47.75,47.75,0,0,1,3.76,12.55,11.72,11.72,0,0,1,0,3.51,2.73,2.73,0,0,1-.2.59,1.75,1.75,0,0,1-.54.62,4.3,4.3,0,0,1-.92.45,10.29,10.29,0,0,1-1.69.44,37.33,37.33,0,0,1-6.55.49,59.12,59.12,0,0,1-6.51-.32c-.54-.06-1.08-.13-1.63-.24l-.84-.18a3.15,3.15,0,0,1-.95-.41.91.91,0,0,1-.34-.45,1.51,1.51,0,0,1,0-.31v-.47a6.52,6.52,0,0,0,0-.76,13.65,13.65,0,0,0-.2-1.53,47.75,47.75,0,0,0-4.52-11.87.17.17,0,0,1,.07-.23A.19.19,0,0,1,386,298.91Z"/><path class="cls-43" d="M370.43,308.71a1.89,1.89,0,0,1,.07-.39.83.83,0,0,1,.14-.23A.48.48,0,0,1,371,308a1.43,1.43,0,0,1,.76.5c.34.37.61.75.89,1.12l1.56,2.23a13.4,13.4,0,0,0,1.64,2,4.23,4.23,0,0,0,.87.67,2.31,2.31,0,0,0,.42.17l.18,0h.26c1.67,0,3.53-.17,5.31-.3s3.62-.28,5.31-.57h.05a.48.48,0,0,1,.55.39.46.46,0,0,1-.26.51,20.3,20.3,0,0,1-5.43,1.51,30.24,30.24,0,0,1-5.62.47l-.42,0-.48-.11a4,4,0,0,1-.84-.38,5.67,5.67,0,0,1-1.24-1.06,12.24,12.24,0,0,1-1.62-2.43c-.45-.83-.82-1.68-1.18-2.51-.18-.42-.36-.84-.56-1.21-.07-.18-.25-.39-.23-.4s.05,0,0,0,0,0-.05,0a1,1,0,0,0-.15.25v0a.17.17,0,0,1-.22.07A.15.15,0,0,1,370.43,308.71Z"/><path class="cls-43" d="M327.79,301a15.13,15.13,0,0,1,.39-3.92,11.16,11.16,0,0,1,1.51-3.74,6.78,6.78,0,0,1,3.29-2.64,2.35,2.35,0,0,1,1.32-.21,3.42,3.42,0,0,1,1.18.39,8.73,8.73,0,0,1,1.73,1.22,59,59,0,0,1,5.21,5.71c1.62,1.95,3.23,3.87,4.92,5.72a46.75,46.75,0,0,0,11.31,9.59,20.49,20.49,0,0,0,14.29,2.45.24.24,0,0,1,.28.19.25.25,0,0,1-.16.28,19.31,19.31,0,0,1-7.68.76,22.76,22.76,0,0,1-7.46-2.29c-4.69-2.33-8.57-5.89-12.05-9.63-1.73-1.88-3.37-3.84-5-5.8a71.22,71.22,0,0,0-4.9-5.62,7.08,7.08,0,0,0-1.32-1,1.66,1.66,0,0,0-.6-.24.73.73,0,0,0-.52.09,5.13,5.13,0,0,0-2.6,1.94,13.18,13.18,0,0,0-2.19,6.77v0a.48.48,0,0,1-.95,0Z"/><path class="cls-33" d="M395,317.88c-.15-.21-.81,1.88-2.67,3.1a6.65,6.65,0,0,1-3.25.81,14.18,14.18,0,0,0-3.51.86,9.79,9.79,0,0,0-3.71,2.61c-.14.16-.26.34-.38.5s-.16.14-.14.17h0a7.25,7.25,0,0,0-1.41,3.39.64.64,0,0,0,.22.56.63.63,0,0,0,.88-.08l.07-.09a15.71,15.71,0,0,1,2.6-2.5,14,14,0,0,1,3-1.66l.2-.07a5.89,5.89,0,0,0-2.5,6.64c.77,3.27,3.62,5.4,6.36,4.75s4-3.77,3.55-7.1a11,11,0,0,0-1-3.22c-.17-.34-.36-.7-.58-1.08a6.57,6.57,0,0,0-.48-.63,6.77,6.77,0,0,1,1.48.21h0a.7.7,0,0,0,.41.07,1.25,1.25,0,0,0,.24-.16h0C396.14,323.69,396.22,319.69,395,317.88Z"/><path class="cls-33" d="M397.07,334.87a3.89,3.89,0,0,0-1.49-.25.25.25,0,0,0-.17.08.27.27,0,0,0,0,.39,3.83,3.83,0,0,0,1.3.76,4.09,4.09,0,0,0,1.49.25.25.25,0,0,0,.18-.08.28.28,0,0,0,0-.39A4.1,4.1,0,0,0,397.07,334.87Z"/><path class="cls-33" d="M392.71,337.14a.24.24,0,0,0-.22-.08.27.27,0,0,0-.24.28,6.88,6.88,0,0,0,.57,2,7.35,7.35,0,0,0,1.07,1.74.26.26,0,0,0,.46-.2,7.59,7.59,0,0,0-.57-2A7.16,7.16,0,0,0,392.71,337.14Z"/><path class="cls-33" d="M388.63,338.12a5.38,5.38,0,0,0-.59,1.7,5.63,5.63,0,0,0,0,1.79.25.25,0,0,0,.12.18.26.26,0,0,0,.37-.09,5.62,5.62,0,0,0,.58-1.7,5.41,5.41,0,0,0,.05-1.8A.26.26,0,0,0,389,338,.26.26,0,0,0,388.63,338.12Z"/><path class="cls-33" d="M346,325.59a13.82,13.82,0,0,0-3.56.6s-1.65.46-3.4.73c-1.08.17-4-1.49-4.06-1.23-.19,1.43,2.14,4.75,4.12,5.29h0a.86.86,0,0,0,.27,0,14.91,14.91,0,0,1,3.44-1.7,11.63,11.63,0,0,1,2.74-.58c-2.41.87-3.81,3.77-3.14,6.83.72,3.28,3.53,5.46,6.27,4.86s4.11-3.7,3.68-7a11,11,0,0,0-.92-3.24c-.09-.19-.21-.4-.32-.61a18,18,0,0,1,1.74.77l.1.05a.63.63,0,0,0,.84-.27.64.64,0,0,0,0-.6,7.57,7.57,0,0,0-3.37-3A9.72,9.72,0,0,0,346,325.59Z"/><path class="cls-33" d="M348.62,341.92a.27.27,0,0,0-.32.21,3.8,3.8,0,0,0,.08,1.51A4.14,4.14,0,0,0,349,345a.27.27,0,0,0,.17.1.27.27,0,0,0,.32-.22,4.17,4.17,0,0,0-.08-1.5,3.89,3.89,0,0,0-.62-1.38A.23.23,0,0,0,348.62,341.92Z"/><path class="cls-33" d="M344.68,340.74a7.25,7.25,0,0,0-1.33,1.56,7.1,7.1,0,0,0-.86,1.85.26.26,0,0,0,.05.24.26.26,0,0,0,.37,0,7.19,7.19,0,0,0,1.32-1.55,7,7,0,0,0,.87-1.86.25.25,0,0,0-.05-.22A.26.26,0,0,0,344.68,340.74Z"/><path class="cls-33" d="M342.31,338.41a.26.26,0,0,0-.28-.26,5.38,5.38,0,0,0-1.74.45,5.68,5.68,0,0,0-1.52.95.24.24,0,0,0-.08.2.27.27,0,0,0,.28.26,6,6,0,0,0,1.74-.45,5.53,5.53,0,0,0,1.52-.95A.3.3,0,0,0,342.31,338.41Z"/><path class="cls-44" d="M351.52,310.23c1.41.73,2.4,2.79,1.28,3.73-1.75,1.47-7.89,1.9-12.67,3.16-2.93.78-5.23,4.11-5.19,3.11.11-2.63,1.65-6.18,2.87-7.1C340.56,311,347.5,308.16,351.52,310.23Z"/><path class="cls-45" d="M346.82,309.89a3.52,3.52,0,0,1,1.65.68c.48.31.94.64,1.39,1a12.78,12.78,0,0,1,1.3,1.14c.19.18.38.37.55.56a2.59,2.59,0,0,1,.41.79.3.3,0,0,1-.38.39,4,4,0,0,1-.75-.3c-.22-.14-.43-.32-.65-.47l-1.36-1q-.66-.45-1.35-.87a4.47,4.47,0,0,1-1.32-1A.57.57,0,0,1,346.82,309.89Z"/><path class="cls-45" d="M343.64,311.37c.51-.27,1.15.19,1.58.44a7.12,7.12,0,0,1,1.12.84,10.06,10.06,0,0,1,1.82,2.19.27.27,0,0,1-.42.33,9.09,9.09,0,0,0-2-1.68c-.34-.22-.71-.4-1.06-.58s-1.11-.37-1.27-.87A.53.53,0,0,1,343.64,311.37Z"/><path class="cls-45" d="M339.41,312.11a2.82,2.82,0,0,1,1.65.47,13,13,0,0,1,1.44.85,8.91,8.91,0,0,1,2.2,2.34c.2.31-.18.78-.49.49a14.86,14.86,0,0,0-2.44-1.79,8.85,8.85,0,0,0-1.25-.67A4,4,0,0,1,339,313,.58.58,0,0,1,339.41,312.11Z"/><path class="cls-45" d="M337.31,314.2c.35-.18.79.13,1.09.29a9.2,9.2,0,0,1,1,.54c.6.43,1.19.88,1.76,1.35a.28.28,0,0,1-.34.45c-.62-.37-1.25-.72-1.89-1-.33-.17-.64-.39-.95-.58s-.75-.34-.8-.72A.28.28,0,0,1,337.31,314.2Z"/><path class="cls-45" d="M336.15,316a1.34,1.34,0,0,1,.63,0,.85.85,0,0,1,.35.11l.25.13.49.28a4.26,4.26,0,0,1,.54.41.41.41,0,0,1-.4.71,3.45,3.45,0,0,1-.57-.18l-.5-.26-.25-.12-.22-.13-.14-.15a1.46,1.46,0,0,1-.35-.51A.28.28,0,0,1,336.15,316Z"/><path class="cls-45" d="M335.51,317.88l.11,0a.55.55,0,0,1,.31,0,.81.81,0,0,1,.18.1l.11.07a1.85,1.85,0,0,1,.39.4.39.39,0,0,1,.07.26.36.36,0,0,1-.13.23.35.35,0,0,1-.26.07l-.09,0a.49.49,0,0,1-.14-.11l.06.05a1.07,1.07,0,0,0-.22-.15,1,1,0,0,0-.26-.11l.07,0a.7.7,0,0,1-.2-.08l-.05,0-.11-.08-.06-.06-.05-.07a.36.36,0,0,1,0-.23A.33.33,0,0,1,335.51,317.88Z"/><path class="cls-46" d="M365.13,336.35c1.24-2,5.3-3.27,7.69-2.09s3.08,2.19,3.25,3.87c.33,3.11-2,6.05-6.17,6.13C365.29,344.36,362.71,340.3,365.13,336.35Z"/><path class="cls-47" d="M372.25,334.19a9.79,9.79,0,0,1,1.9,2,6,6,0,0,1,.6,1.08,4.32,4.32,0,0,1,.21.55,2.18,2.18,0,0,1,.08.48,6.36,6.36,0,0,1-.41,2.39,12.36,12.36,0,0,1-1.23,2.51h0a.2.2,0,0,0,.22.29,5,5,0,0,0,2.52-2,5.33,5.33,0,0,0,1-3.32,3.91,3.91,0,0,0-.21-1,5.52,5.52,0,0,0-.38-.81,5.33,5.33,0,0,0-1.11-1.34,4.76,4.76,0,0,0-3.05-1.22.22.22,0,0,0-.22.23.21.21,0,0,0,.08.17Z"/><path class="cls-48" d="M368.87,344.14c.58-.42-3-2.42-3.22-1.72S367.64,345.06,368.87,344.14Z"/><path class="cls-49" d="M310.72,353.31a4.34,4.34,0,0,1,2.45-1.95,5.1,5.1,0,0,1,3.21.09A7.18,7.18,0,0,1,319,353a7,7,0,0,1,1.68,2.42.48.48,0,0,1-.76.55l-.05,0a22.21,22.21,0,0,0-2-1.56,9.18,9.18,0,0,0-2.12-1.07,4.67,4.67,0,0,0-2.14-.26,5.73,5.73,0,0,0-2.12.82l-.07.05a.47.47,0,0,1-.66-.15A.48.48,0,0,1,310.72,353.31Z"/><path class="cls-50" d="M348.33,349.94a13.71,13.71,0,0,1,4.61,1.79,16.06,16.06,0,0,1,3.83,3.15A15.71,15.71,0,0,1,359.5,359a14.53,14.53,0,0,1,.85,2.31,22.15,22.15,0,0,1,.48,2.4.48.48,0,0,1-.39.55.48.48,0,0,1-.52-.29l0,0a31.5,31.5,0,0,0-2-4.14,20,20,0,0,0-2.64-3.61,21.17,21.17,0,0,0-3.33-3,24.74,24.74,0,0,0-3.88-2.35l0,0a.48.48,0,0,1,.29-.9Z"/><path class="cls-51" d="M371.54,355.39s2.27-5.56,5.58-7.13,6.16,1.08,6.16,1.08A21.18,21.18,0,0,1,371.54,355.39Z"/><path class="cls-52" d="M371.2,355.29s3.64,4.06,7.65,2.72c5.23-1.75,4.43-8.67,4.43-8.67A19.78,19.78,0,0,1,371.2,355.29Z"/><path class="cls-33" d="M367.25,356c1.52-.35,3.05-.81,4.53-1.28A39.7,39.7,0,0,0,376.1,353a28.46,28.46,0,0,0,4-2.28,30.32,30.32,0,0,0,3.61-2.94l0,0a.47.47,0,0,1,.67,0,.48.48,0,0,1,.05.58,15.72,15.72,0,0,1-3.3,3.75,19.48,19.48,0,0,1-4.22,2.69,24.1,24.1,0,0,1-4.71,1.63,19.35,19.35,0,0,1-4.93.52.49.49,0,0,1-.47-.49.48.48,0,0,1,.37-.45Z"/><path class="cls-41" d="M439,509.54a18.42,18.42,0,0,1,1.75,3,19.92,19.92,0,0,1,1.23,3.23,8.77,8.77,0,0,1,.35,3.55,4.8,4.8,0,0,1-1.62,3.16.11.11,0,0,1-.16,0,.12.12,0,0,1,0-.13h0a6.52,6.52,0,0,0,.73-3.08,11.58,11.58,0,0,0-.55-3.13c-.59-2.12-1.38-4.22-2-6.42a.13.13,0,0,1,.09-.17A.14.14,0,0,1,439,509.54Z"/><path class="cls-41" d="M444.9,507.29a32.63,32.63,0,0,1,2.5,8,11.92,11.92,0,0,1,.07,4.34,5.47,5.47,0,0,1-.83,2.1,2.36,2.36,0,0,1-.92.76,1.55,1.55,0,0,1-1.16,0,.11.11,0,0,1-.07-.14.12.12,0,0,1,.11-.08h0a1.48,1.48,0,0,0,.87-.24,1.87,1.87,0,0,0,.52-.71,5.94,5.94,0,0,0,.42-1.86,15.3,15.3,0,0,0-.3-4c-.46-2.7-1.08-5.4-1.48-8.18a.14.14,0,0,1,.11-.16A.16.16,0,0,1,444.9,507.29Z"/><path class="cls-43" d="M319.64,300.34a15.27,15.27,0,0,0-10.36,4.71,22.19,22.19,0,0,0-5.72,10.08,53.79,53.79,0,0,0-1.74,11.77c-.22,4-.25,8.05-.25,12.09-.07,8.07.11,16.21-.77,24.34a79.72,79.72,0,0,1-2.18,12.05,53.46,53.46,0,0,1-4.44,11.41.47.47,0,0,1-.64.2.48.48,0,0,1-.21-.62A57,57,0,0,0,297.21,375a80.38,80.38,0,0,0,1.85-11.86c.69-8,.54-16.08.51-24.18,0-4.05.09-8.12.34-12.19a51.18,51.18,0,0,1,2-12.16,28.29,28.29,0,0,1,2.48-5.74,21.3,21.3,0,0,1,3.91-4.9,16.13,16.13,0,0,1,11.4-4.6.48.48,0,0,1,0,.95Z"/><path class="cls-43" d="M317.25,308.69a6.78,6.78,0,0,0-2.36,2.4,15.57,15.57,0,0,0-1.45,3.21,37,37,0,0,0-1.7,7c-.74,4.79-.72,9.72-1,14.68a.47.47,0,0,1-.5.45.48.48,0,0,1-.45-.42,59.29,59.29,0,0,1,0-15,34.42,34.42,0,0,1,.76-3.74,29.21,29.21,0,0,1,1.25-3.62,14.86,14.86,0,0,1,1.91-3.4,7.27,7.27,0,0,1,3.17-2.43.48.48,0,0,1,.61.3.48.48,0,0,1-.21.57Z"/><path class="cls-43" d="M310.74,373.31a38.65,38.65,0,0,1-.23,5,46.9,46.9,0,0,1-.87,5,43.44,43.44,0,0,1-3.44,9.53c-1.53,3-3.29,5.8-4.53,8.76a18.85,18.85,0,0,0-1.3,4.58,12.19,12.19,0,0,0,.16,4.7.48.48,0,0,1-.35.58.5.5,0,0,1-.56-.29,12.36,12.36,0,0,1-.7-5.15A19.76,19.76,0,0,1,300,401a83.84,83.84,0,0,1,4.37-9,53.42,53.42,0,0,0,3.53-9.07,48.56,48.56,0,0,0,1.12-4.77c.33-1.6.54-3.22.73-4.86a.48.48,0,0,1,.53-.42A.47.47,0,0,1,310.74,373.31Z"/><path class="cls-43" d="M412.27,324.15a42.79,42.79,0,0,1,3.16,6.36c.87,2.21,1.6,4.46,2.25,6.73,1.27,4.55,2.14,9.16,3.16,13.71a94.76,94.76,0,0,0,3.67,13.38,41.15,41.15,0,0,0,6.65,12,.47.47,0,0,1-.06.67.49.49,0,0,1-.65,0,31.8,31.8,0,0,1-4.37-5.63,44.74,44.74,0,0,1-3.2-6.38,84.84,84.84,0,0,1-4-13.59c-1-4.59-1.82-9.18-2.92-13.68a68.8,68.8,0,0,0-1.92-6.67,49.48,49.48,0,0,0-2.61-6.41.47.47,0,0,1,.22-.64A.47.47,0,0,1,412.27,324.15Z"/><path class="cls-43" d="M413.46,370.59c2.61,4.41,4.93,8.93,7.47,13.3a106.8,106.8,0,0,0,8.41,12.58.48.48,0,0,1-.7.65,52.38,52.38,0,0,1-9.43-12.23A100.72,100.72,0,0,1,412.6,371a.48.48,0,0,1,.27-.62A.48.48,0,0,1,413.46,370.59Z"/><path class="cls-43" d="M406.39,379.28A104,104,0,0,0,412,391a98.66,98.66,0,0,0,7.2,10.86.48.48,0,0,1-.1.67.47.47,0,0,1-.61,0A43.83,43.83,0,0,1,410.29,392a43.11,43.11,0,0,1-4.81-12.45.49.49,0,0,1,.38-.57A.47.47,0,0,1,406.39,379.28Z"/><path class="cls-43" d="M327.75,281.11A23.83,23.83,0,0,1,340,278.05a25.67,25.67,0,0,1,12.28,3.37,26.78,26.78,0,0,1,9,8.95,54.83,54.83,0,0,1,3,5.51c.88,1.89,1.72,3.79,2.49,5.71a.48.48,0,0,1-.86.41,103.89,103.89,0,0,0-6.12-10.66,26.33,26.33,0,0,0-8.58-8.2,25,25,0,0,0-11.35-3.32,23.08,23.08,0,0,0-6,.38,24.64,24.64,0,0,0-5.77,1.76h0a.49.49,0,0,1-.63-.25A.5.5,0,0,1,327.75,281.11Z"/><path class="cls-43" d="M356.78,274.82a52.12,52.12,0,0,1,7.73,1.55,24,24,0,0,1,7.29,3.44,25,25,0,0,1,5.62,5.77,39.36,39.36,0,0,1,3.9,6.88.48.48,0,0,1-.84.46c-1.42-2.17-2.87-4.3-4.46-6.28a28.26,28.26,0,0,0-5.39-5.21,27.14,27.14,0,0,0-6.67-3.37c-2.4-.86-4.89-1.55-7.38-2.31a.47.47,0,0,1-.32-.59A.48.48,0,0,1,356.78,274.82Z"/></g></g></g></svg>