<svg xmlns="http://www.w3.org/2000/svg" xmlns:xlink="http://www.w3.org/1999/xlink" viewBox="0 0 750 500"><defs><style>.cls-1,.cls-11{fill:#fff;}.cls-2{fill:#f1e3dd;}.cls-3{fill:#1f0c07;}.cls-4{fill:#e9b089;}.cls-5{fill:#294286;}.cls-12,.cls-14,.cls-16,.cls-23,.cls-26,.cls-27,.cls-30,.cls-33,.cls-37,.cls-6,.cls-8{fill:none;}.cls-14,.cls-23,.cls-27,.cls-30,.cls-33,.cls-37,.cls-6,.cls-8{stroke:#000;}.cls-14,.cls-16,.cls-23,.cls-26,.cls-27,.cls-30,.cls-33,.cls-37,.cls-6,.cls-8{stroke-linecap:round;stroke-linejoin:round;}.cls-6{stroke-width:0.46px;}.cls-7{fill:#d7896d;}.cls-8{stroke-width:0.45px;}.cls-9{clip-path:url(#clip-path);}.cls-10{clip-path:url(#clip-path-2);}.cls-11{opacity:0.22;}.cls-12{stroke:#c0653e;stroke-miterlimit:10;stroke-width:0.72px;}.cls-13{fill:#be5640;}.cls-14{stroke-width:0.57px;}.cls-15{fill:#101010;}.cls-16{stroke:#434141;stroke-width:0.67px;}.cls-17{fill:#212e38;}.cls-18{fill:#39505e;}.cls-19{clip-path:url(#clip-path-3);}.cls-20{fill:#c27f22;}.cls-21{fill:#d59934;}.cls-22{fill:#744028;}.cls-23{stroke-width:0.44px;}.cls-24{clip-path:url(#clip-path-4);}.cls-25{clip-path:url(#clip-path-5);}.cls-26{stroke:#e0e0e0;stroke-width:0.75px;}.cls-27{stroke-width:0.45px;}.cls-28{clip-path:url(#clip-path-6);}.cls-29{clip-path:url(#clip-path-7);}.cls-30{stroke-width:1.01px;}.cls-31{fill:#c67b5b;}.cls-32{fill:#ca98be;}.cls-33{stroke-width:0.44px;}.cls-34{fill:#a4563a;}.cls-35{clip-path:url(#clip-path-8);}.cls-36{clip-path:url(#clip-path-9);}.cls-37{stroke-width:0.66px;}</style><clipPath id="clip-path"><path class="cls-1" d="M126.45,96s2.4-5.88,9.82-.36C136.27,95.67,132.24,100.78,126.45,96Z"/></clipPath><clipPath id="clip-path-2"><path class="cls-1" d="M120.79,95.2s-1.56-6.36-6.53-2.78C114.26,92.42,116.05,98.49,120.79,95.2Z"/></clipPath><clipPath id="clip-path-3"><path class="cls-1" d="M590.39,127.23s27,21.58,35.09,49.81c0,0,3-34.7-15.17-55.69l-11.7-.14Z"/></clipPath><clipPath id="clip-path-4"><path class="cls-1" d="M609.85,87.42s-1.55-6-9.38-1.61C600.47,85.81,603.64,92,609.85,87.42Z"/></clipPath><clipPath id="clip-path-5"><path class="cls-1" d="M615.75,87.36s2.33-5.91,6.63-1.83C622.38,85.53,620.71,91.33,615.75,87.36Z"/></clipPath><clipPath id="clip-path-6"><path class="cls-1" d="M299.91,86.47s-1.67-6.09-9.65-1.54C290.26,84.93,293.59,91.24,299.91,86.47Z"/></clipPath><clipPath id="clip-path-7"><path class="cls-1" d="M306.27,86.57s2.31-6.09,6.78-2C313.05,84.61,311.41,90.58,306.27,86.57Z"/></clipPath><clipPath id="clip-path-8"><path class="cls-1" d="M450.45,98.5s-1.65-6-9.58-1.52C440.87,97,444.21,102.46,450.45,98.5Z"/></clipPath><clipPath id="clip-path-9"><path class="cls-1" d="M456.47,98.36s2.29-6,6.73-2C463.2,96.41,460.73,102.15,456.47,98.36Z"/></clipPath></defs><g id="Слой_2" data-name="Слой 2"><g id="BACKGROUND"><rect class="cls-2" width="750" height="500"/></g><g id="OBJECTS"><path class="cls-3" d="M122.61,427.51s3.78-.14,3.6,7.06,0,17.82,0,17.82h-3.6V440l-10.8,12.44H74.72s2-6.84,19.45-6.66Z"/><path class="cls-4" d="M122.61,427.51v-9.26l-14.43-5.52,2.16,14.78L92.59,445.89h8.17a15.29,15.29,0,0,0,10.31-4C114.89,438.43,120,433.09,122.61,427.51Z"/><path class="cls-5" d="M100.54,201.08s-13,31.53-5.87,120S104,421,104,421l23.54-.38L122,201.08Z"/><path class="cls-3" d="M178.67,427.51s-3.78-.14-3.6,7.06,0,17.82,0,17.82h3.6V440l10.8,12.44h37.09s-2-6.84-19.44-6.66Z"/><path class="cls-4" d="M178.67,427.51l-9.27-19.72,14.43-5.52L191,427.51l17.74,18.38h-8.16a15.31,15.31,0,0,1-10.32-4C186.39,438.43,181.26,433.09,178.67,427.51Z"/><path class="cls-5" d="M137.16,201.08s6.9,18.46,19.11,61.69c13.26,47,39.14,157.85,39.14,157.85l-25.16,1.32L100.78,218.05l6.65-17Z"/><line class="cls-6" x1="124.17" y1="285.37" x2="111.15" y2="248.19"/><path d="M155.15,83.31A36.11,36.11,0,0,1,157,102.89c-2,11.7,10.9,10.56,9.36,21.9,0,0-36.53,10.85-70.28-11.15,0,0-2.31-10,4.74-12.44,9.87-3.36,12.37-13.57,12.37-13.57Z"/><ellipse cx="134.88" cy="90.58" rx="20.34" ry="21.91" transform="matrix(0.13, -0.99, 0.99, 0.13, 26.93, 212.01)"/><polygon class="cls-4" points="136.93 107.25 136.48 140.63 120.39 138.49 125.36 109.19 136.93 107.25"/><polygon class="cls-7" points="122.46 126.25 134.97 116.98 125.04 111.26 122.46 126.25"/><path class="cls-7" d="M119.6,105a16.36,16.36,0,0,0-.93-6.14c-1-2.74-2.7-5.46-6-4.43-5.55,1.77-1.54,10.94,3.71,12.35,1.54.41,3.13-.48,3.17-1.78Z"/><path class="cls-4" d="M140.42,75.44a24.42,24.42,0,0,0-11.24-2c-5.2.37-12.11,2.67-14.17,11.79-3.45,15.21-2.68,25.3,4,30.5,4.66,3.64,9.86,4,17.11,1,2.7-1.11,6.71-6,7.79-8.82l3.11-8S157.33,82.63,140.42,75.44Z"/><polyline class="cls-8" points="122.18 98.61 119.89 101.83 121.62 102.95"/><path d="M121.79,84.84s.43,1.6-2,1.59a21.35,21.35,0,0,0-4,.17,1.49,1.49,0,0,1-1.53-.59h0a.85.85,0,0,1,.14-1.1,6.1,6.1,0,0,1,4.22-1.5C121.44,83.4,121.79,84.84,121.79,84.84Z"/><path d="M128.6,85.27s-1,1.42,2.3,2.14a52.36,52.36,0,0,1,6.8,2.19,2.61,2.61,0,0,0,2.23-.11h0a.67.67,0,0,0,.1-1.1,16.14,16.14,0,0,0-6.69-3.52C129.45,84,128.6,85.27,128.6,85.27Z"/><path class="cls-1" d="M126.45,96s2.4-5.88,9.82-.36C136.27,95.67,132.24,100.78,126.45,96Z"/><g class="cls-9"><path d="M128.48,95.19a2.53,2.53,0,1,0,3.1-1.89A2.57,2.57,0,0,0,128.48,95.19Z"/></g><path d="M136.15,95.8a8,8,0,0,0-2.29-1.47,8.51,8.51,0,0,0-2.62-.71,5.21,5.21,0,0,0-2.58.45A3.24,3.24,0,0,0,127,95.89l0,0a.37.37,0,0,1-.46.23.36.36,0,0,1-.23-.46v0a3.94,3.94,0,0,1,2.08-2.18,5.55,5.55,0,0,1,2.89-.4,8.91,8.91,0,0,1,2.76.82,8.5,8.5,0,0,1,2.35,1.62.19.19,0,0,1,0,.26A.2.2,0,0,1,136.15,95.8Z"/><path class="cls-1" d="M120.79,95.2s-1.56-6.36-6.53-2.78C114.26,92.42,116.05,98.49,120.79,95.2Z"/><g class="cls-10"><path d="M119.3,93.67a1.93,1.93,0,1,1-2-2.32A2.17,2.17,0,0,1,119.3,93.67Z"/></g><path d="M114.15,92.32a3.56,3.56,0,0,1,1.56-1.07,3.1,3.1,0,0,1,1-.14,2.76,2.76,0,0,1,1,.17h0a4.08,4.08,0,0,1,1.17.51,4.36,4.36,0,0,1,1,.83,5.06,5.06,0,0,1,.73,1,5.22,5.22,0,0,1,.49,1.19.31.31,0,0,1-.59.17h0v0a5.26,5.26,0,0,0-1-2,3.83,3.83,0,0,0-.84-.77,3.93,3.93,0,0,0-1-.5h0a2.62,2.62,0,0,0-1.64-.07,3.06,3.06,0,0,0-1.44.91.17.17,0,0,1-.22,0A.15.15,0,0,1,114.15,92.32Z"/><path class="cls-1" d="M118.41,105.15l9.67.72a4.62,4.62,0,0,1-5,3A5.54,5.54,0,0,1,118.41,105.15Z"/><path class="cls-11" d="M133.9,89.89l-9.14,8.85s1.53,4.67,5.18,4.79l9.16-8.6S137.8,90.26,133.9,89.89Z"/><path class="cls-11" d="M117.24,87.08l-8,9s1.2,4.61,4.31,4.65l8-8.77S120.55,87.36,117.24,87.08Z"/><path class="cls-12" d="M124.69,95.56a7.38,7.38,0,1,0,8.49-6.06A7.36,7.36,0,0,0,124.69,95.56Z"/><path class="cls-12" d="M109.25,92.93c-.66,4,1.56,7.75,5,8.33s6.71-2.2,7.37-6.22-1.56-7.75-5-8.33S109.92,88.91,109.25,92.93Z"/><path class="cls-12" d="M124.69,95.56a3.46,3.46,0,0,0-3.1-.52"/><line class="cls-12" x1="143.95" y1="102.49" x2="139.14" y2="98.61"/><path d="M143.73,103.24c0-1.4-4-12.72,1.92-26.34,0,0,5.41-.64,6.07,9.24C152.8,102,143.73,103.24,143.73,103.24Z"/><path class="cls-4" d="M140.85,107.87a17.38,17.38,0,0,1,3.31-5.63c2-2.29,4.77-4.28,7.54-2,4.73,3.88-2.76,11.29-8.44,10.61-1.67-.2-2.87-1.69-2.41-3Z"/><path class="cls-8" d="M149.73,104.2c-3.83-1.92-6.58,2.3-6.58,2.3"/><path d="M147.25,78.05s-7.42,7.21-34.11,2.91c0,0,5.33-10.13,19.15-10.66S147.25,78.05,147.25,78.05Z"/><path class="cls-13" d="M131.55,136.22s-6.85,23.25-55.7,59.07L63.14,178.7l42.68-46.32Z"/><path class="cls-4" d="M37.3,144.49l9-4.64,13.34,19.37c-3.16,2.1-7.33,4.41-10.52,6.5Z"/><path class="cls-4" d="M47.79,138.78l.58-2.1A18.56,18.56,0,0,0,48.7,128l-1-5a2,2,0,0,0-2.64-1.47h0a2.53,2.53,0,0,0-1.63,2.32l-.12,5.46L35.18,114.6A1.52,1.52,0,0,0,33,114l-.51.35a1.52,1.52,0,0,0-.54,1.86l5.68,11.32-8.33-12.1a1.53,1.53,0,0,0-2.25-.42l-.36.28a1.52,1.52,0,0,0-.37,2L33,128.44l-7-7.31a1.53,1.53,0,0,0-2.39.13l-.11.16a1.53,1.53,0,0,0,0,1.81l6.71,8.11L25.88,128a1.53,1.53,0,0,0-2.53.55h0A1.54,1.54,0,0,0,23.6,130l16.28,18.42,4.45-4.05A12,12,0,0,0,47.79,138.78Z"/><path class="cls-14" d="M43.32,129.31a10.05,10.05,0,0,0-3,8"/><path class="cls-13" d="M80.62,182,51.23,143.52l-11.71,9.79,20.19,36.91c3.43,5.94,8.53,8.95,14.19,6.28h0C79,194.09,83,187.14,80.62,182Z"/><line class="cls-6" x1="71.31" y1="169.83" x2="77.64" y2="177.15"/><path class="cls-1" d="M106.27,138.85l20,14-1.23,69.18L97.49,217.4S84.44,158.64,106.27,138.85Z"/><polygon points="95.33 217.18 122.57 222.47 121.95 215.6 95.33 211.06 95.33 217.18"/><path class="cls-4" d="M136.39,151.29s-33,11.06-31.44-9.17l15.56-12,10.43,5.9,5.45,4.54,5.45,9.11Z"/><path class="cls-13" d="M121.77,130.88A80.06,80.06,0,0,0,99.4,162c-4.34,10.93-1.68,32.83-1,47.45S100.12,252,100.12,252l-10.76-6s-.24-64.11,1.32-72.53,9-40.91,19.79-44.41c0,0,3.67-1.09,10,1.17Z"/><path class="cls-6" d="M89.94,184.4S88.77,164,95.33,153.73"/><path class="cls-13" d="M142.82,140.41s-4.88-4.22-11.91,1.21S115,166.33,115,188.63s6.63,64.8,6.63,64.8,24.19,9.31,41.07-2.75l-25.47-43,12.35-34.32Z"/><path class="cls-13" d="M140.91,139.36s17.87,4.3,50.18,55.53l-17.44,11.52L139.9,168.23Z"/><line class="cls-6" x1="147.79" y1="177.15" x2="139.9" y2="168.23"/><path class="cls-4" d="M119.1,203l11.63-2.63-.38-2.59a2.19,2.19,0,0,1,1.2-2.27,2,2,0,0,1,2.47.62L141.85,207l5.94,8.37c-6.82,3.41-13.2,2.85-15,1.35l-9,.68a1.64,1.64,0,0,1-1.87-1.34c-.12-.64,0-1.59,1.89-2l-1.86.42a1.7,1.7,0,0,1-2-1.43c-.16-.85.55-1.71,1.68-2.1l-1.38.17a1.76,1.76,0,0,1-2-1.67,1.93,1.93,0,0,1,1.52-2l2.06-.46-2.28,0a1.91,1.91,0,0,1-2.07-1.9A2.1,2.1,0,0,1,119.1,203Z"/><polygon class="cls-4" points="141.85 207.02 161.15 201.87 164.32 213.47 144.46 216.77 141.85 207.02"/><path class="cls-13" d="M179,191.05l-33.82,11.57,7.16,15.3,32.6-7.29a10.26,10.26,0,0,0,7.26-13.71h0A10.27,10.27,0,0,0,179,191.05Z"/><line class="cls-6" x1="164.32" y1="196.06" x2="175.62" y2="192.2"/><polygon class="cls-1" points="605.2 436.75 606.29 381.34 626.65 385.13 622.46 434.12 605.2 436.75"/><path class="cls-15" d="M604.8,427.92s13.17,7.14,18.83-3.22l36.88,22-61.58-.4Z"/><rect class="cls-1" x="626.87" y="418.58" width="5.66" height="61.58" transform="translate(176.29 1076.16) rotate(-89.63)"/><path class="cls-1" d="M627,435.48a1.15,1.15,0,0,0,.45-.34,22.48,22.48,0,0,1,5.06-4.94,1,1,0,0,0,.3-1.43,1.14,1.14,0,0,0-1.5-.29,24.24,24.24,0,0,0-5.62,5.44,1,1,0,0,0,.24,1.45A1.14,1.14,0,0,0,627,435.48Z"/><path class="cls-1" d="M632.29,438.12a1.06,1.06,0,0,0,.45-.34,22.05,22.05,0,0,1,5.06-4.93,1,1,0,0,0,.3-1.44,1.13,1.13,0,0,0-1.5-.28,23.73,23.73,0,0,0-5.62,5.44,1,1,0,0,0,.24,1.44A1.14,1.14,0,0,0,632.29,438.12Z"/><path class="cls-1" d="M637.57,440.77a1.15,1.15,0,0,0,.45-.34,22.48,22.48,0,0,1,5.06-4.94,1,1,0,0,0,.3-1.43,1.12,1.12,0,0,0-1.5-.29,24,24,0,0,0-5.62,5.44,1,1,0,0,0,.24,1.44A1.11,1.11,0,0,0,637.57,440.77Z"/><polygon class="cls-1" points="552.72 435.31 560.77 380.48 580.49 386.8 570.18 434.87 552.72 435.31"/><path class="cls-15" d="M553.38,427.92s13.17,7.14,18.83-3.22l36.88,22-61.58-.4Z"/><rect class="cls-1" x="575.45" y="418.58" width="5.66" height="61.58" transform="translate(125.2 1024.74) rotate(-89.63)"/><path class="cls-1" d="M575.58,435.48a1.15,1.15,0,0,0,.45-.34,22.48,22.48,0,0,1,5.06-4.94,1,1,0,0,0,.3-1.43,1.14,1.14,0,0,0-1.5-.29,24.24,24.24,0,0,0-5.62,5.44,1,1,0,0,0,.24,1.45A1.14,1.14,0,0,0,575.58,435.48Z"/><path class="cls-1" d="M580.86,438.12a1,1,0,0,0,.45-.34,22.19,22.19,0,0,1,5.07-4.93,1,1,0,0,0,.3-1.44,1.14,1.14,0,0,0-1.51-.28,24,24,0,0,0-5.61,5.44,1,1,0,0,0,.24,1.44A1.12,1.12,0,0,0,580.86,438.12Z"/><path class="cls-1" d="M586.15,440.77a1.15,1.15,0,0,0,.45-.34,22.48,22.48,0,0,1,5.06-4.94,1,1,0,0,0,.3-1.43,1.12,1.12,0,0,0-1.5-.29,24,24,0,0,0-5.62,5.44,1,1,0,0,0,.24,1.44A1.11,1.11,0,0,0,586.15,440.77Z"/><path d="M628.9,219.83s6.22-.15,7.19,28.6c.19,5.9.08,14.11-.29,20l-7.93,152.25H599l7.44-157.28-27.3,157.28-30-.65,32-200.21L603.3,217Z"/><line class="cls-16" x1="606.44" y1="263.41" x2="618.92" y2="260.5"/><path class="cls-17" d="M589.2,136.65s10.87,11,23.42,15.81,36.77,20.09,55.15,21.5l-6.11-25.65-39.87-21.75Z"/><path class="cls-4" d="M692.84,109.44l.91-6.73a3.45,3.45,0,0,1,2.43-2.84l8-2.38a2.59,2.59,0,0,1,3,1.2h0a2.6,2.6,0,0,1-1,3.56l-3.82,2.08s5.3,4.21.18,9.87Z"/><path class="cls-4" d="M696.18,99.87l10.41-14.2a2,2,0,0,1,2.95-.31h0a2,2,0,0,1,.44,2.4l-6.55,12.75Z"/><path class="cls-4" d="M704.55,96.41l4-1.36a2.75,2.75,0,0,1,2.41.52l.92.74a2.76,2.76,0,0,1,.71,3.48l-5.1,9.09-6.57-4.83Z"/><path class="cls-4" d="M711.84,97.72h1.49a2.71,2.71,0,0,1,1.9.78l1.23,1.21a2.68,2.68,0,0,1,.82,1.94h0a2.76,2.76,0,0,1-.54,1.64L710.2,112l-5.67-4.22Z"/><path class="cls-4" d="M714.23,101.17h1.49a2.71,2.71,0,0,1,1.9.78l1.23,1.2a2.72,2.72,0,0,1,.82,1.95h0a2.73,2.73,0,0,1-.54,1.63l-2.3,3.06a7.08,7.08,0,0,1-9.91,1.43h0Z"/><path class="cls-4" d="M713.69,111.58,710.63,115a7.85,7.85,0,0,1-11.09.56l-6.7-6.07,5.2-6.65h6.49l5.67,3.92Z"/><path class="cls-14" d="M696.72,99.78l8.68-2.88a2.35,2.35,0,0,1,2.94,1.55h0a2.34,2.34,0,0,1-.79,2.56l-5.23,3.32s4.72,2.3.87,7.67"/><polygon class="cls-4" points="692.84 109.44 681.68 124.76 694.13 134.05 705.54 115.15 692.84 109.44"/><path class="cls-17" d="M656.67,152.25l29-38,18.09,14-25,39.68c-5.08,6.47-12.44,8.05-18.28,3.36h0C655.19,167,650,157.37,656.67,152.25Z"/><path class="cls-17" d="M575.62,138.05l23-16.84,11.7.14s11.67,1.9,20.22,14.1,6.81,110.28,6.81,110.28-8.86-.82-9.05-14.94c0,0-3,19.16-19.19,21.13s-42.55-3.1-42.55-3.1l18-47.18-14.5-40.84A22.44,22.44,0,0,1,575.62,138.05Z"/><path class="cls-18" d="M621.79,126.56l6.9,12.15-3.53,0,3.86,5a79.65,79.65,0,0,1-3.54,33.4l-16.43-52.76,1.26-2.93a27.36,27.36,0,0,1,8,3"/><path class="cls-1" d="M590.39,127.23s27,21.58,35.09,49.81c0,0,3-34.7-15.17-55.69l-11.7-.14Z"/><g class="cls-19"><path class="cls-4" d="M591.59,132.26s26.88,11.62,25.82-7l-8.23-15.85s-18.37,5.72-19.48,6l-4.84,6.48-1.35,4.44Z"/></g><path class="cls-18" d="M590.39,127.23l-5.67,4.15,7.53,13,7.52.09-5.24,5.17s19.86,15.61,31,27.39C625.48,177,618.12,148.46,590.39,127.23Z"/><path class="cls-14" d="M635.67,163.36a84.73,84.73,0,0,0-2.32-15.89"/><path class="cls-17" d="M584.07,131.9a32.56,32.56,0,0,0-17.66,15.39c-6.21,11.91-25.06,40.17-28.62,58.26l26.2-3.06,25.38-37Z"/><line class="cls-14" x1="577.76" y1="182.4" x2="589.37" y2="165.45"/><polygon class="cls-20" points="645.77 192.81 603.18 175.7 598.89 185.9 640.49 202.14 645.77 192.81"/><polygon class="cls-1" points="602.06 182.6 604.26 177.75 644.2 194.15 641.81 199.01 602.06 182.6"/><polygon class="cls-21" points="642.05 196.01 617.53 254.74 575.51 237.03 599.19 178.44 642.05 196.01"/><polygon class="cls-20" points="642.05 196.01 645.77 192.81 621.49 251.39 617.53 254.74 642.05 196.01"/><polygon class="cls-1" points="599.5 201.51 626.35 212.52 629.33 205.49 602.48 194.48 599.5 201.51"/><polygon class="cls-4" points="579.98 212.1 609.66 228.15 606.35 239.67 575.17 228.91 579.98 212.1"/><path class="cls-4" d="M609.66,228.15s21-3.82,20.24,3.75-4.56,25.43-23.55,7.77Z"/><path class="cls-4" d="M609,229l2.85-3a12.05,12.05,0,0,1,6.12-3.53l4.35-1a2.32,2.32,0,0,1,2.58,1.23h0a2.31,2.31,0,0,1-.8,3l-6.25,4.13Z"/><path class="cls-17" d="M558.29,194.26l47.26,25.19-9.2,22.13-49.6-20.87c-7.66-3-11.3-9.6-8.48-16.54h0C540.8,197.94,551.47,189.36,558.29,194.26Z"/><line class="cls-14" x1="566.55" y1="198.67" x2="558.29" y2="194.26"/><path class="cls-7" d="M615.62,97.8A15.84,15.84,0,0,1,617.31,92c1.3-2.5,3.29-4.9,6.28-3.48,5.1,2.4.07,10.7-5.15,11.37-1.53.2-2.94-.86-2.82-2.12Z"/><path class="cls-22" d="M624.91,77.67c-1,10.83-10.32,23.12-22,23.14s-19.34-9.15-22.13-19.66c-3.13-11.81,10.33-19.88,22-19.74C610.17,61.5,626,65.89,624.91,77.67Z"/><polygon class="cls-4" points="596.97 96.83 593.99 128.94 610.58 128.97 609.58 100.2 596.97 96.83"/><polygon class="cls-7" points="610.16 116.95 599.34 106.44 609.61 102.23 610.16 116.95"/><path class="cls-4" d="M599.45,65.86a23.62,23.62,0,0,1,11-.46c4.94,1,11.28,4.12,12.09,13.15,1.35,15-.45,27.18-7.88,30.6-5.7,2.62-9.85,1.62-16.42-2.19-2.45-1.42-4.8-7.45-5.47-10.33l-2.83-8S582.29,70.59,599.45,65.86Z"/><polyline class="cls-23" points="613.6 88.13 616.02 93.4 614.23 94.82"/><path class="cls-22" d="M616.13,77a2,2,0,0,0,1.69,2.59,15,15,0,0,1,3.86,1,1.16,1.16,0,0,0,1.54-.55h0a1.65,1.65,0,0,0,0-1.57,5.74,5.74,0,0,0-3.84-2.88C616.66,75.07,616.13,77,616.13,77Z"/><path class="cls-22" d="M609.17,76.9s.76,2.17-2.49,2.58a37.23,37.23,0,0,0-6.82,1.84,1.93,1.93,0,0,1-2.13-.56h0a1.25,1.25,0,0,1,.06-1.57,13.44,13.44,0,0,1,6.89-3.73C608.53,74.92,609.17,76.9,609.17,76.9Z"/><path class="cls-1" d="M609.85,87.42s-1.55-6-9.38-1.61C600.47,85.81,603.64,92,609.85,87.42Z"/><g class="cls-24"><path d="M608.31,86.59a2.72,2.72,0,1,1-3-2.45A2.76,2.76,0,0,1,608.31,86.59Z"/></g><path d="M600.37,85.68a8.13,8.13,0,0,1,2.47-1.26,9,9,0,0,1,2.75-.44,5.59,5.59,0,0,1,2.73.76A3.77,3.77,0,0,1,610,87.11a.35.35,0,1,1-.69.15h0v0a3.22,3.22,0,0,0-1.34-2,5.19,5.19,0,0,0-2.43-.76,8.61,8.61,0,0,0-2.6.34A8.16,8.16,0,0,0,600.57,86a.17.17,0,0,1-.24,0A.18.18,0,0,1,600.37,85.68Z"/><path class="cls-1" d="M615.75,87.36s2.33-5.91,6.63-1.83C622.38,85.53,620.71,91.33,615.75,87.36Z"/><g class="cls-25"><path d="M617.27,86.2A2.1,2.1,0,1,0,619.71,84,2.36,2.36,0,0,0,617.27,86.2Z"/></g><path d="M622.26,85.61A3.06,3.06,0,0,0,621,84.55a2.53,2.53,0,0,0-1.6-.14h0a3.81,3.81,0,0,0-2,1,5,5,0,0,0-1.24,1.82h0a.3.3,0,0,1-.39.17.3.3,0,0,1-.17-.39h0a5.51,5.51,0,0,1,.62-1.09,5.16,5.16,0,0,1,.84-.91,4.51,4.51,0,0,1,1-.67,4.61,4.61,0,0,1,1.19-.34h0a2.86,2.86,0,0,1,1.85.22,3.42,3.42,0,0,1,1.36,1.22.15.15,0,0,1,0,.21A.16.16,0,0,1,622.26,85.61Z"/><path class="cls-23" d="M607.93,97.49s5.39,2.86,9.21-.57"/><path class="cls-22" d="M593,92.94s7.2-22.88-3.46-23.46l-5.84,11.4,3.14,9.52Z"/><path class="cls-4" d="M594.86,97.81A16.73,16.73,0,0,0,592.4,92c-1.65-2.46-4-4.73-7-2.89-5,3.12,1.2,11.19,6.74,11.27,1.63,0,3-1.25,2.7-2.55Z"/><path class="cls-23" d="M586.8,93.14c3.93-1.34,6,3.06,6,3.06"/><path class="cls-22" d="M591.09,70s26.58,6.87,35.75-5.73c0,0-16.85-9.4-31.19-1.65Z"/><path class="cls-22" d="M591.14,65.92s5.79-9.12,16.37-9.24c0,0-2.89,7.31-9.18,9.31S591.14,65.92,591.14,65.92Z"/><path class="cls-22" d="M587.79,69.37s.3-6,5.39-8.94c0,0,.59,4.32-1.9,7S587.79,69.37,587.79,69.37Z"/><rect class="cls-1" x="302.69" y="417.68" width="17.16" height="23.5"/><path d="M318.94,435l-6.77,4.51-7.53-2.37a2.65,2.65,0,0,0-1.8.07h0a2.65,2.65,0,0,0-1.63,2.44v9.64h50.65s-.06-8.45-12.61-6.42l-17.74-8.08A2.65,2.65,0,0,0,318.94,435Z"/><rect x="301.21" y="449.28" width="12.51" height="3.23" transform="translate(614.93 901.78) rotate(180)"/><polygon points="313.72 449.28 320.35 452.5 351.86 452.5 351.86 449.28 313.72 449.28"/><polygon class="cls-1" points="254.31 417.68 271.47 417.68 268.48 441.17 251.32 441.17 254.31 417.68"/><path d="M267.56,435l-6.77,4.51-7.53-2.37a2.65,2.65,0,0,0-1.8.07h0a2.65,2.65,0,0,0-1.63,2.44v9.64h50.65s-.06-8.45-12.61-6.42l-17.74-8.08A2.65,2.65,0,0,0,267.56,435Z"/><rect x="249.83" y="449.28" width="12.51" height="3.23" transform="translate(512.17 901.78) rotate(180)"/><polygon points="262.34 449.28 268.97 452.5 300.48 452.5 300.48 449.28 262.34 449.28"/><path class="cls-17" d="M320.46,199.87s1.69,3.31,2.75,34.74c.21,6.46,1.25,18,1.32,28.42l-.44,164.56H297.43l-3-172-19.59,172-27-.7L263.74,206,289,202.87Z"/><line class="cls-6" x1="294.4" y1="255.63" x2="307.8" y2="249.86"/><path class="cls-4" d="M319.11,210l25.67,55.8,8.16-.56c-9.91-38.09-9.89-38-17.16-61.53-1.16-3.72-8.66-4.61-12.28-3.16h0C320.12,201.92,317.76,206.62,319.11,210Z"/><path class="cls-4" d="M344.06,260.81s-2.15,7.58,1.46,14.47l-.75,7.57a2.29,2.29,0,0,0,1.81,2.47h0a2.45,2.45,0,0,0,2.85-1.75l1.21-4.44.43,1.52a11.26,11.26,0,0,1-.46,7.37l-2.8,6.71c-.32.77-1.2.63-.69,1.26h0a2.28,2.28,0,0,0,3.72-.38l5.78-7.37a12.82,12.82,0,0,0,1-10.53l-7.4-19.54Z"/><path class="cls-1" d="M337.79,202.87l-2.22-35.52c-3.15-27.21-20.14-34.47-20.14-34.47L314,179.2l5.15-2.83,3.66,48.3L338.4,260.9l15.26-6.35Z"/><path class="cls-22" d="M288.67,126.36a75.38,75.38,0,0,0-21.1,4.8,54,54,0,0,0-5.49,2.46c-4.82,2.52-3.38,8-2.77,13.52l2.83,75.16,58.77-1.42a4.73,4.73,0,0,0,4.6-5l-2.33-60.28C323,145,321.13,134.75,314,132.25c-7.94-2.8-17.63-5.94-21.86-6.19Z"/><path class="cls-1" d="M310.47,131s-11.16-4.37-18.29-4.95c0,0-9.73.41-16.43,2.47l24.38,32.09Z"/><polygon class="cls-5" points="296.84 131.59 291.93 137.79 297.77 142.04 302.42 137.11 296.84 131.59"/><polygon class="cls-5" points="296.53 139.4 293.58 152 300.13 160.62 302.42 154.07 298.51 139.4 296.53 139.4"/><polyline class="cls-26" points="291.7 138.13 290.35 140.17 282.45 136.82"/><polyline class="cls-26" points="302.42 137.11 304.23 138.81 308.37 135.63"/><path class="cls-1" d="M264.26,132.48s-18.16,2.92-56.82,55.42l19.92,15.56,31.93-37C271.82,150.14,264.26,132.48,264.26,132.48Z"/><polygon points="252.63 150.14 295.76 165.82 292.15 176.28 250.34 160.61 252.63 150.14"/><polygon class="cls-1" points="292 171.71 293.58 166.62 252.89 152.19 251.44 157.4 292 171.71"/><polygon class="cls-17" points="253.26 155.01 232.33 215.11 275.44 229.96 296.9 170.52 253.26 155.01"/><polygon points="253.26 155.01 252.63 150.14 231.61 209.97 232.33 215.11 253.26 155.01"/><polygon class="cls-1" points="281.28 187.49 253.94 177.78 256.41 170.56 283.75 180.27 281.28 187.49"/><polygon class="cls-4" points="238.36 192.6 270.07 204.12 268.5 215.99 236.08 209.94 238.36 192.6"/><path class="cls-4" d="M270.08,204.12s20.24-6.87,20.57.73-.78,25.83-22.15,11.14Z"/><path class="cls-4" d="M269.52,205.07l2.37-3.44a12,12,0,0,1,5.54-4.38l4.15-1.62a2.31,2.31,0,0,1,2.74.84h0a2.32,2.32,0,0,1-.36,3l-5.58,5Z"/><path class="cls-1" d="M222.36,184.34l41.12,13.32-3.8,20.93-45.9-11.46a12.2,12.2,0,0,1-7.54-16.85h0A12.2,12.2,0,0,1,222.36,184.34Z"/><line class="cls-26" x1="238.51" y1="189.57" x2="227.36" y2="185.96"/><path class="cls-1" d="M294.64,61.71s13.9-6.23,21.1,1.35c5.64,6-4,16.31-9.11,15.73S294.64,61.71,294.64,61.71Z"/><path class="cls-7" d="M306.27,97.3a16.3,16.3,0,0,1,1.66-6c1.31-2.58,3.32-5.07,6.41-3.65,5.26,2.4.2,11-5.15,11.74-1.58.22-3-.85-2.92-2.14Z"/><path class="cls-1" d="M313.42,80.05c.16,11.17-8.18,20.33-20.21,20.5s-21.9-8.75-22.06-19.92,9.46-20.37,21.49-20.54S313.26,68.88,313.42,80.05Z"/><polygon class="cls-4" points="287.11 96.53 284.66 126.8 296.84 131.59 301.42 128.11 300.09 99.83 287.11 96.53"/><polygon class="cls-7" points="300.89 117.02 289.66 106.37 300.15 101.91 300.89 117.02"/><path class="cls-4" d="M289.27,64.71a24.21,24.21,0,0,1,11.34-.61c5.08,1,11.63,4.09,12.57,13.34,1.58,15.43-.13,27.91-7.7,31.51-5.82,2.77-10.1,1.79-16.9-2-2.53-1.43-5-7.59-5.73-10.54l-3-8.22S271.72,69.77,289.27,64.71Z"/><polyline class="cls-27" points="304.43 88.5 306.26 92.03 304.88 93.15"/><path class="cls-1" d="M306.53,75.08a2.05,2.05,0,0,0,1.77,2.64,15.11,15.11,0,0,1,4,1,1.2,1.2,0,0,0,1.58-.58h0a1.69,1.69,0,0,0,0-1.62,5.84,5.84,0,0,0-4-2.9C307.05,73.05,306.53,75.08,306.53,75.08Z"/><path class="cls-1" d="M299.38,75s.81,2.22-2.52,2.69a38.47,38.47,0,0,0-7,2,2,2,0,0,1-2.19-.54h0a1.27,1.27,0,0,1,0-1.61,13.77,13.77,0,0,1,7-3.92C298.7,73,299.38,75,299.38,75Z"/><path class="cls-1" d="M299.91,86.47s-1.67-6.09-9.65-1.54C290.26,84.93,293.59,91.24,299.91,86.47Z"/><g class="cls-28"><path d="M298.32,85.64a2.79,2.79,0,1,1-3.15-2.48A2.84,2.84,0,0,1,298.32,85.64Z"/></g><path d="M290.15,84.79a8.41,8.41,0,0,1,2.52-1.31,9.18,9.18,0,0,1,2.82-.49,5.73,5.73,0,0,1,2.81.74,3.94,3.94,0,0,1,1.79,2.41.35.35,0,0,1-.27.44.36.36,0,0,1-.44-.27h0v0a3.35,3.35,0,0,0-1.41-2,5.18,5.18,0,0,0-2.49-.74,8.46,8.46,0,0,0-2.67.38,8,8,0,0,0-2.44,1.18.18.18,0,0,1-.24,0A.19.19,0,0,1,290.15,84.79Z"/><path class="cls-1" d="M306.27,86.57s2.31-6.09,6.78-2C313.05,84.61,311.41,90.58,306.27,86.57Z"/><g class="cls-29"><path d="M307.82,85.36a2.16,2.16,0,1,0,2.47-2.31A2.42,2.42,0,0,0,307.82,85.36Z"/></g><path d="M312.93,84.69a3.24,3.24,0,0,0-1.31-1.07A2.58,2.58,0,0,0,310,83.5h0a3.62,3.62,0,0,0-1.08.36,4,4,0,0,0-.92.66,5.21,5.21,0,0,0-1.25,1.88v0a.31.31,0,0,1-.58-.22h0a5.76,5.76,0,0,1,.62-1.12,5.83,5.83,0,0,1,.85-.94,4.2,4.2,0,0,1,1.07-.7,4.31,4.31,0,0,1,1.22-.37h0a3.11,3.11,0,0,1,1.91.2,3.6,3.6,0,0,1,1.41,1.24.17.17,0,0,1,0,.21A.15.15,0,0,1,312.93,84.69Z"/><path class="cls-1" d="M305.18,94.78a2.07,2.07,0,0,0-1.44-1.27c-1.11-.28-3.08-.32-5.09,1.83-3,3.25-5.89,3-6.91,2.33,0,0,5.49,7,12.6,1.12C304.34,98.79,306,96.8,305.18,94.78Z"/><path class="cls-1" d="M304.33,96.43a2.58,2.58,0,0,1,2.94-3,5.18,5.18,0,0,1,3.13,1.76c2.79,3,4.49,2.78,5.42,2.13,0,0-4.12,6.4-10.61,1A5,5,0,0,1,304.33,96.43Z"/><path class="cls-11" d="M312.53,80.5l5.51,6s0,4.31-4,4.74l-8.49-9.53S306.05,79.51,312.53,80.5Z"/><path class="cls-11" d="M294.65,80.5l6.5,6.81s0,4.38-5,3.94l-9.44-10S288.69,80.38,294.65,80.5Z"/><path class="cls-30" d="M301.89,83.47a16.57,16.57,0,0,1-1.36,6.09,3.14,3.14,0,0,1-2.65,1.71l-7.86,0a3.48,3.48,0,0,1-3.14-2.84,14.86,14.86,0,0,1-.18-4.75,3.23,3.23,0,0,1,2.6-2.79c2.54-.46,10.6-.24,10.6-.24A2.69,2.69,0,0,1,301.89,83.47Z"/><path d="M290.41,80.22l-5.16.27a.56.56,0,0,0-.53.58l0,1a.54.54,0,0,0,.23.44l1.71,1.19S287.62,80.53,290.41,80.22Z"/><path class="cls-30" d="M305.58,83.35a16.55,16.55,0,0,0,1.25,6.21,3.12,3.12,0,0,0,2.64,1.71l5.18,0a3.48,3.48,0,0,0,3.14-2.84,14.86,14.86,0,0,0,.18-4.75,3.23,3.23,0,0,0-2.6-2.79,55.31,55.31,0,0,0-7.8-.35C306.05,80.62,305.47,82.05,305.58,83.35Z"/><path d="M314.26,80.22l5.17.27a.56.56,0,0,1,.52.58l0,1a.58.58,0,0,1-.24.44L318,83.65S317.05,80.53,314.26,80.22Z"/><path class="cls-30" d="M305.57,85.77s-1.3-1.32-3.82.18"/><line class="cls-30" x1="280.09" y1="88.84" x2="286.73" y2="82.33"/><path class="cls-4" d="M285,97.56a17,17,0,0,0-2.59-6c-1.73-2.51-4.19-4.81-7.2-2.89-5.14,3.27,1.37,11.48,7.06,11.5,1.67,0,3-1.33,2.73-2.66Z"/><path class="cls-27" d="M276.62,92.87c4-1.43,6.23,3.06,6.23,3.06"/><path class="cls-1" d="M300.61,64.1s-5.22-1.45-7.2,3.78c-2.76,7.25-11.08,10.46-18.24,8.26,0,0,1.64-10.32,12.25-13.35S300.61,64.1,300.61,64.1Z"/><path class="cls-1" d="M300.9,61.71s-2.33-5.47-12.09-4.36c-11.66,1.31-18.53,11.19-16.69,17,1.41,4.48,10.73-1.94,10.73-1.94Z"/><path d="M401.68,442.26,392,447.57a2.77,2.77,0,0,0-1.32,3.07c.25,1,1.07,1.71,3.22,1.75,4.77.1,31-3.42,31-3.42v2.71l9.86,0s.62-14-2.37-15.82Z"/><path class="cls-31" d="M419.73,433.59l-18.05,8.67s6.78,4.77,14.15,1.59,16.59-8,16.59-8l-1.34-3.64Z"/><polygon class="cls-31" points="431.08 432.24 432.43 392.05 418.59 392.89 418.59 437.76 431.08 432.24"/><path d="M521.67,442.26l9.65,5.31a2.77,2.77,0,0,1,1.33,3.07c-.25,1-1.07,1.71-3.22,1.75-4.77.1-31-3.42-31-3.42v2.83l-9.72-.12s-.76-14,2.22-15.8Z"/><path class="cls-31" d="M503.63,433.59l18,8.67s-6.77,4.77-14.14,1.59-16.6-8-16.6-8l1.35-3.64Z"/><polygon class="cls-31" points="492.28 432.24 482.16 392.05 496 392.89 505.88 438.68 492.28 432.24"/><path class="cls-5" d="M427.15,198.18s-19.06,31-18.59,58.46,7.2,163.43,7.2,163.43h22.83l4.59-171.91,2.75-.16,35.63,172.14L503,418.08,480.41,258.22a125.64,125.64,0,0,0-8-28.8c-3.29-7.9-7.25-21.19-12.88-28.15Z"/><line class="cls-6" x1="443.31" y1="248.27" x2="456.07" y2="247.5"/><path class="cls-31" d="M395.16,166.75,378.24,192c-5.91,9.26,8.23,18.8,14.63,9.92l28.8-38.44Z"/><path class="cls-32" d="M419.77,137.3c-10.68-3.51-26.95,24-33.38,34l25.78,17C417,180.4,448.8,148.7,419.77,137.3Z"/><path class="cls-32" d="M462.26,137s18.48,1.21,19.23,28.39L468.8,168.3Z"/><path class="cls-32" d="M417.09,136.88c20.66-3.8,32.08-3.79,47.59.6,17.55,5,2.69,52.37-1.43,70.35H422.13l-13.84-53.46C410.18,150.09,410.63,137.28,417.09,136.88Z"/><line class="cls-33" x1="416.29" y1="185.3" x2="411.38" y2="164.52"/><line class="cls-33" x1="469.3" y1="178.19" x2="472.26" y2="157.41"/><path class="cls-1" d="M447.5,142.79l-12.85-7.94.68-4.4h-2.12a3.31,3.31,0,0,0-2.34,1L427,135.26l8.85,13.26a2.79,2.79,0,0,0,4.13.59Z"/><path class="cls-1" d="M451.36,130.45H453a3.29,3.29,0,0,1,2.75,1.47l2.67,4-1.16,11.5a1.5,1.5,0,0,1-2.41,1l-7.3-5.63,4.11-6.88Z"/><path class="cls-1" d="M448.77,148.27A1.27,1.27,0,1,1,447.5,147,1.27,1.27,0,0,1,448.77,148.27Z"/><path class="cls-1" d="M449.06,153.34a1.28,1.28,0,1,1-1.27-1.28A1.27,1.27,0,0,1,449.06,153.34Z"/><path class="cls-31" d="M436.28,177.64s7.17-12.71,26-5.2L455,188l-16.45-.56Z"/><polygon class="cls-31" points="436.28 177.64 385.75 186.31 388.7 205.15 438.52 187.39 436.28 177.64"/><line class="cls-33" x1="403.95" y1="183.18" x2="391.6" y2="185.3"/><path class="cls-1" d="M439.87,218.05l-3.43-3.81,20.81-48.86s37.34-6.29,52.61-1.11Z"/><path d="M509.86,164.27l-8.12,1.11-24.17,47.41s7,.19,10.15-5.9Z"/><polygon class="cls-17" points="501.74 165.38 460.17 169.07 439.87 218.05 477.57 212.79 501.74 165.38"/><polygon class="cls-1" points="487.76 176.88 464.54 178.94 462.26 184.51 484.87 182.37 487.76 176.88"/><polygon class="cls-1" points="509.86 164.27 504.97 141.76 500.17 141.76 490.88 163.11 509.86 164.27"/><path class="cls-31" d="M492.32,198s5.53,1.35,10.21-5.8.15-10.94.15-10.94l-11.74-8.25a1.23,1.23,0,0,0-1.58.12h0a1.25,1.25,0,0,0,0,1.8l7,6.69-10.53-6.93a1.69,1.69,0,0,0-2.38.54h0a1.7,1.7,0,0,0,.41,2.2l9.76,7.64-8.77-4.55a1.41,1.41,0,0,0-1.91.63h0a1.41,1.41,0,0,0,.44,1.76l8.92,6.5-7.61-3.63a1.52,1.52,0,0,0-2,.65h0a1.52,1.52,0,0,0,.45,1.93l10.26,7.5Z"/><path class="cls-34" d="M456.46,105.11a16.1,16.1,0,0,1,1.66-5.91c1.29-2.57,3.29-5,6.36-3.63,5.22,2.39.2,10.91-5.12,11.66-1.56.22-3-.84-2.9-2.12Z"/><circle class="cls-1" cx="463.57" cy="105.82" r="1.44" transform="translate(-11.91 110.06) rotate(-13.37)"/><circle cx="424.56" cy="109.22" r="13.18" transform="translate(47.12 332.2) rotate(-45)"/><path d="M427.8,75.06s-3.9-2.1-8,3.75-3.45,18.11,4.87,20.34Z"/><path d="M427.8,75.06S430,63.62,447.23,66s28.58,9.71,16.63,26Z"/><path d="M463.57,88.86c.15,11.1-8.12,20.19-20.07,20.36s-21.76-8.69-21.92-19.78S431,69.21,442.93,69,463.41,77.77,463.57,88.86Z"/><polygon class="cls-31" points="439.21 105.23 434.65 134.85 447.5 142.79 451.61 135.91 450.33 108.51 439.21 105.23"/><polygon class="cls-34" points="451.13 125.58 439.97 115 450.39 110.58 451.13 125.58"/><path class="cls-31" d="M439.58,73.62a24.13,24.13,0,0,1,11.26-.6c5.05,1,11.55,4.06,12.49,13.25,1.56,15.33-.13,26.83-7.65,30.41-5.78,2.75-10,1.78-16.78-2-2.51-1.41-5-6.65-5.7-9.58l-3-8.16S422.14,78.65,439.58,73.62Z"/><polyline class="cls-33" points="454.72 100.65 456.82 104.52 455.01 105.99"/><path d="M456.73,87.33s-.61,1.51,1.75,1.79a21.26,21.26,0,0,1,3.95.65,1.49,1.49,0,0,0,1.57-.4h0a.82.82,0,0,0,0-1.09,6,6,0,0,0-3.95-2C457.24,86,456.73,87.33,456.73,87.33Z"/><path d="M449.62,87.29s.81,1.5-2.5,1.82a52.35,52.35,0,0,0-6.93,1.33,2.59,2.59,0,0,1-2.18-.37h0a.67.67,0,0,1,0-1.09,15.94,15.94,0,0,1,7-2.66C449,85.92,449.62,87.29,449.62,87.29Z"/><path class="cls-1" d="M450.45,98.5s-1.65-6-9.58-1.52C440.87,97,444.21,102.46,450.45,98.5Z"/><g class="cls-35"><path d="M448.57,97.43a2.5,2.5,0,1,1-2.82-2.22A2.54,2.54,0,0,1,448.57,97.43Z"/></g><path d="M440.76,96.84a8.31,8.31,0,0,1,2.5-1.31,8.85,8.85,0,0,1,2.8-.48,5.68,5.68,0,0,1,2.8.73,3.92,3.92,0,0,1,1.77,2.4.36.36,0,0,1-.7.17v-.06a3.31,3.31,0,0,0-1.4-2,5,5,0,0,0-2.48-.74,8.66,8.66,0,0,0-2.65.37A8.12,8.12,0,0,0,441,97.12a.17.17,0,0,1-.24,0A.17.17,0,0,1,440.76,96.84Z"/><path class="cls-1" d="M456.47,98.36s2.29-6,6.73-2C463.2,96.41,460.73,102.15,456.47,98.36Z"/><g class="cls-36"><path d="M458.11,97a1.91,1.91,0,1,0,2.19-2A2.14,2.14,0,0,0,458.11,97Z"/></g><path d="M463.08,96.5a3.06,3.06,0,0,0-1.3-1.07,2.69,2.69,0,0,0-1.63-.12h0a3.69,3.69,0,0,0-1.06.36,3.93,3.93,0,0,0-.92.65,5.28,5.28,0,0,0-1.24,1.87v0a.3.3,0,0,1-.39.18.31.31,0,0,1-.18-.4h0a5.49,5.49,0,0,1,.63-1.11,5.28,5.28,0,0,1,.84-.93,4,4,0,0,1,1.06-.7,4.23,4.23,0,0,1,1.21-.36h0a2.91,2.91,0,0,1,1,0,3.13,3.13,0,0,1,.92.25,3.44,3.44,0,0,1,1.4,1.24.14.14,0,0,1,0,.2A.14.14,0,0,1,463.08,96.5Z"/><path class="cls-13" d="M456.54,109.32a3.14,3.14,0,0,1-3.29,2.2,6.12,6.12,0,0,1-5.08-3.08Z"/><path class="cls-13" d="M448.51,108.44s7.42-1.29,7.89.79C456.4,109.23,451.23,110,448.51,108.44Z"/><path class="cls-33" d="M456.94,109s-3.95,1.89-9-.9"/><path d="M433,101.38S441.24,83.63,430,78c0,0-3.61-3.58-5.45,6C421.56,99.39,433,101.38,433,101.38Z"/><path class="cls-31" d="M435.29,105.37a17.13,17.13,0,0,0-2.57-5.92c-1.72-2.48-4.17-4.77-7.16-2.86-5.1,3.24,1.37,11.4,7,11.41,1.67,0,3-1.31,2.72-2.63Z"/><path class="cls-33" d="M427,100.7c4-1.42,6.18,3,6.18,3"/><path class="cls-1" d="M433.2,107.44a1.44,1.44,0,1,1-1.44-1.44A1.44,1.44,0,0,1,433.2,107.44Z"/><path d="M431.26,78.73s10,4.11,18.45,0,13.49,3.68,13.49,3.68S460.17,70,446.11,71,431.26,78.73,431.26,78.73Z"/><line class="cls-37" x1="38.55" y1="452.51" x2="697.82" y2="452.51"/></g></g></svg>