<svg xmlns="http://www.w3.org/2000/svg" viewBox="0 0 71.48 54.72"><defs><style>.cls-1{fill:#ba6c6c;}.cls-2{fill:#c64a4a;}.cls-3{fill:#fcd4d4;}.cls-4{fill:#0a0a0a;opacity:0.21;}</style></defs><g id="Слой_2" data-name="Слой 2"><g id="Layer_1" data-name="Layer 1"><path class="cls-1" d="M16.25,39.42s-1.07,2-.61,2.4S24.11,54,25.09,54.37s13,1.41,17.56-3.35,5.33-7.21,10-8.52,14-4.34,17.23-8.27c0,0,1.77-4.48,1.59-5.24s-3.36,2.15-3.36,2.15l-35,10.13Z"/><path class="cls-2" d="M38.49,27.46c5.65-2.69,6.67,1.5,12.95-1.34s6.44-15.68,14.5-5.78c7.35,9,7.64,8.62-2.3,16.4a11.22,11.22,0,0,1-6.16,2.35,17,17,0,0,0-7.76,2.52C44,45.1,44.88,50.91,35.39,52.25s-10,.43-10,.43L16.2,39.43s4.06.52,10.56-2.84S33.09,30,38.49,27.46Z"/><path class="cls-3" d="M67.2,21.83a1.64,1.64,0,0,0,0,1.43c.82,1.78,2.39,3.33,2.38,5.3s-1.69,3.59-3.27,4.85A18.15,18.15,0,0,1,60.25,37c-2.12.61-4.37.5-6.52.93a13.12,13.12,0,0,0-7.49,4.53c-1,1.22-1.76,2.61-2.8,3.78-3.38,3.81-8.91,4.68-14,5.14a2.44,2.44,0,0,1-1.71-.27,1.65,1.65,0,0,1-.08-2.29,4.45,4.45,0,0,1,2.21-1.23c4-1.24,8.46-1.86,11.46-4.78,1.31-1.27,2.23-2.9,3.57-4.13,2-1.79,4.62-2.59,7.21-3.13a34.45,34.45,0,0,0,7.68-2c2.41-1.12,4.56-3.21,4.92-5.84a15,15,0,0,1-10.13,5.59,5.67,5.67,0,0,0,2.15-2.92A21.4,21.4,0,0,1,54,32.65c-3.15,2.1-7.35,2.46-10.07,5.1-1.3,1.25-2.16,2.94-3.59,4a12,12,0,0,1-3.21,1.54L22.57,48.57l2.84,4.11s.54.92,10-.43S44.08,45.1,49.77,41.6a16.89,16.89,0,0,1,7.76-2.52,11.1,11.1,0,0,0,6.16-2.35C73,29.41,73.33,29.34,67.2,21.83Z"/><path class="cls-3" d="M17.09,40.65a14.57,14.57,0,0,1,3.85-1.12c4.12-.74,8.43-1.68,11.6-4.42C34.13,33.74,35.35,32,37,30.65c2.44-2,5.49-2.83,8.58-3.66-2.06-.36-3.78-1.08-7,.46C33.14,30,33.3,33.23,26.8,36.59s-10.55,2.83-10.55,2.83Z"/><path class="cls-3" d="M55.09,22.86a19.05,19.05,0,0,0,5.17-6.12C58.26,17.28,57,20.29,55.09,22.86Z"/><path class="cls-3" d="M54.36,27.14c-2.27,1.44-5.11,1.59-7.61,2.57-2.85,1.11-5.15,3.24-7.7,4.93-6.08,4-13.51,5.5-19.86,9l.9,1.3a11.74,11.74,0,0,1,5.44-2.66,65.36,65.36,0,0,0,7.24-1.62c6-2.15,9.95-8.1,15.91-10.3,2.59-1,5.49-1.17,7.78-2.72s3.76-4.33,6.37-5.31a20.46,20.46,0,0,1,4.08-.68l.15,0L66,20.34a18.53,18.53,0,0,0-2.12-2.26A3.94,3.94,0,0,1,63,19.66a14.86,14.86,0,0,1-3,2.16C57.94,23.34,56.57,25.75,54.36,27.14Z"/><path class="cls-4" d="M43.48,44.39c1-1.43,1.53-3.17,2.7-4.47-1.1,0-1.84,1.08-2.46,2a10.67,10.67,0,0,1-5,4.22,23,23,0,0,1-3.21.72,20.27,20.27,0,0,0-6.73,2.69,5.94,5.94,0,0,0,3.05.06,33,33,0,0,0,6.39-1.44A11,11,0,0,0,43.48,44.39Z"/><path class="cls-4" d="M57.1,28.57a48.43,48.43,0,0,1,5.63-5c.83-.63,1.87-1.27,2.85-.91A9.34,9.34,0,0,1,63.7,23.8a5.11,5.11,0,0,0-2.22,2.65c.13-.21.49,0,.5.23a1.34,1.34,0,0,1-.31.66c-.13.2-.21.5,0,.67a10.61,10.61,0,0,1,2.91-3.51,1.44,1.44,0,0,1,.73-.36.58.58,0,0,1,.65.38,22.83,22.83,0,0,0-4.24,4.21,8.94,8.94,0,0,1-4.93,3.2c.29-1.17,1.66-1.64,2.56-2.44a3.78,3.78,0,0,0,1.2-2.3A6.05,6.05,0,0,1,57.1,28.57Z"/><path class="cls-4" d="M64.12,31.65a.36.36,0,0,1-.19-.26,6.52,6.52,0,0,1-2.78,2.77,14.25,14.25,0,0,1-3.77,1.29c-.32.07-.73.27-.64.59s.47.29.75.23a20.38,20.38,0,0,0,4.69-1.8,7.31,7.31,0,0,0,2-1.24,2.58,2.58,0,0,0,.88-2.09A1.6,1.6,0,0,0,64.12,31.65Z"/><path class="cls-4" d="M23.58,46.15c.53-1.79,3.42-1.51,4.46-3a13.19,13.19,0,0,1-2.59,0c1.14-1,2.85-1,4.39-1.08A19.5,19.5,0,0,0,38,39.76L36.56,41a.89.89,0,0,0,.8-.1c2.76-1.39,3.8-4.78,6-6.93a13.82,13.82,0,0,1,5-2.84A17,17,0,0,1,53,30c-1.75,1.65-4.48,1.67-6.59,2.83-.45.25-.92.74-.69,1.2l4.57-1.26a20.35,20.35,0,0,0-6.72,3.71c-1.17,1.1-2.06,2.47-3.18,3.61A11.83,11.83,0,0,1,36,42.9a26.77,26.77,0,0,1-3.63.91A89.27,89.27,0,0,0,23.58,46.15Z"/><path class="cls-4" d="M40.42,29.34a5.32,5.32,0,0,0-2.71,3A33.93,33.93,0,0,1,43,29.15a11.26,11.26,0,0,1,6.06-1,28.38,28.38,0,0,0-7.82,3c-.8.51-1.55,1.1-2.32,1.67a43,43,0,0,1-6.61,4,33,33,0,0,0,3.91-4.11A17.29,17.29,0,0,1,38,30.47,3.54,3.54,0,0,1,40.42,29.34Z"/><path class="cls-1" d="M.72,22.77s-1.06,2-.61,2.4S8.59,37.35,9.57,37.71s13,1.42,17.56-3.34,5.33-7.21,10-8.52,14-4.34,17.23-8.27c0,0,1.77-4.48,1.58-5.24s-3.36,2.15-3.36,2.15L17.63,24.62Z"/><path class="cls-2" d="M23,10.8c5.64-2.68,6.67,1.51,12.94-1.33s6.45-15.68,14.5-5.78c7.35,9,7.65,8.62-2.29,16.39A11.1,11.1,0,0,1,42,22.43,16.92,16.92,0,0,0,34.2,25c-5.69,3.5-4.84,9.3-14.33,10.65s-10,.43-10,.43L.68,22.77s4.06.53,10.56-2.83S17.57,13.37,23,10.8Z"/><path class="cls-3" d="M51.68,5.18a1.62,1.62,0,0,0,0,1.42c.82,1.78,2.39,3.34,2.38,5.3s-1.69,3.6-3.27,4.86a18.1,18.1,0,0,1-6.12,3.57c-2.11.6-4.36.49-6.51.93a13.08,13.08,0,0,0-7.49,4.53c-1,1.21-1.76,2.61-2.8,3.78-3.38,3.81-8.91,4.68-14,5.14a2.47,2.47,0,0,1-1.72-.27,1.66,1.66,0,0,1-.07-2.29,4.33,4.33,0,0,1,2.21-1.23c4-1.24,8.46-1.86,11.46-4.78,1.3-1.27,2.23-2.9,3.57-4.13,1.95-1.79,4.61-2.59,7.21-3.13a34.45,34.45,0,0,0,7.68-2c2.41-1.12,4.56-3.21,4.92-5.84a15,15,0,0,1-10.13,5.58,5.64,5.64,0,0,0,2.15-2.91A20.82,20.82,0,0,1,38.47,16c-3.15,2.09-7.35,2.46-10.06,5.09-1.3,1.26-2.16,2.95-3.6,4.05a11.52,11.52,0,0,1-3.2,1.53L7.05,31.92,9.89,36s.54.92,10-.43S28.56,28.44,34.25,25A16.89,16.89,0,0,1,42,22.43a11.07,11.07,0,0,0,6.15-2.35C57.52,12.76,57.8,12.69,51.68,5.18Z"/><path class="cls-3" d="M1.57,24a14.57,14.57,0,0,1,3.85-1.12c4.12-.74,8.43-1.68,11.6-4.43,1.58-1.37,2.8-3.12,4.42-4.45,2.44-2,5.5-2.83,8.59-3.66C28,10,26.25,9.26,23,10.8c-5.4,2.57-5.23,5.78-11.73,9.14S.72,22.77.72,22.77Z"/><path class="cls-3" d="M39.57,6.2A18.76,18.76,0,0,0,44.73.09C42.74.63,41.43,3.64,39.57,6.2Z"/><path class="cls-3" d="M38.84,10.49c-2.27,1.44-5.11,1.59-7.61,2.57-2.85,1.11-5.15,3.24-7.7,4.93C17.45,22,10,23.48,3.67,27l.9,1.31A11.69,11.69,0,0,1,10,25.68a65.36,65.36,0,0,0,7.24-1.62c6-2.15,10-8.11,15.9-10.3,2.59-1,5.5-1.17,7.79-2.72s3.76-4.33,6.37-5.31A21.21,21.21,0,0,1,51.39,5l.15,0L50.46,3.69a17.77,17.77,0,0,0-2.13-2.26A3.92,3.92,0,0,1,47.51,3a15.27,15.27,0,0,1-3,2.16C42.42,6.68,41,9.1,38.84,10.49Z"/><path class="cls-4" d="M28,27.73c1-1.42,1.54-3.16,2.71-4.46-1.1,0-1.84,1.08-2.46,2a10.78,10.78,0,0,1-5,4.22A23.1,23.1,0,0,1,20,30.2a20.22,20.22,0,0,0-6.72,2.69,5.9,5.9,0,0,0,3,.06,33,33,0,0,0,6.4-1.44A10.86,10.86,0,0,0,28,27.73Z"/><path class="cls-4" d="M41.57,11.92a49.36,49.36,0,0,1,5.64-5C48,6.31,49.08,5.67,50.06,6a9.61,9.61,0,0,1-1.89,1.12A5.1,5.1,0,0,0,46,9.8c.12-.21.49,0,.49.23a1.24,1.24,0,0,1-.3.66c-.13.2-.21.5,0,.67A10.46,10.46,0,0,1,49,7.85a1.62,1.62,0,0,1,.74-.37.59.59,0,0,1,.65.39,22.24,22.24,0,0,0-4.24,4.21,8.94,8.94,0,0,1-4.93,3.2c.29-1.17,1.66-1.64,2.55-2.44A3.74,3.74,0,0,0,45,10.54,6.13,6.13,0,0,1,41.57,11.92Z"/><path class="cls-4" d="M48.6,15a.31.31,0,0,1-.19-.25,6.49,6.49,0,0,1-2.79,2.77,14.06,14.06,0,0,1-3.76,1.29c-.32.07-.73.27-.65.59s.47.29.76.23a20.74,20.74,0,0,0,4.69-1.8,7.47,7.47,0,0,0,2-1.24,2.54,2.54,0,0,0,.87-2.09A1.64,1.64,0,0,0,48.6,15Z"/><path class="cls-4" d="M8.06,29.5c.53-1.79,3.42-1.52,4.46-3.06a12.46,12.46,0,0,1-2.59,0c1.14-1,2.85-1,4.39-1.08a19.69,19.69,0,0,0,8.11-2.28L21,24.37a.86.86,0,0,0,.8-.09c2.76-1.39,3.8-4.78,6-6.94a14,14,0,0,1,5-2.83,17.14,17.14,0,0,1,4.59-1.13C35.71,15,33,15.05,30.87,16.21c-.45.24-.93.74-.69,1.2l4.56-1.26A20.12,20.12,0,0,0,28,19.86C26.86,21,26,22.33,24.84,23.47a11.79,11.79,0,0,1-4.34,2.78,28.07,28.07,0,0,1-3.64.91A89.08,89.08,0,0,0,8.06,29.5Z"/><path class="cls-4" d="M24.9,12.69a5.32,5.32,0,0,0-2.71,3,33.48,33.48,0,0,1,5.32-3.22,11.24,11.24,0,0,1,6.06-1,28,28,0,0,0-7.82,3c-.8.51-1.55,1.1-2.32,1.66a42.74,42.74,0,0,1-6.61,4A32.9,32.9,0,0,0,20.72,16a19.28,19.28,0,0,1,1.72-2.19A3.55,3.55,0,0,1,24.9,12.69Z"/></g></g></svg>