<svg xmlns="http://www.w3.org/2000/svg" viewBox="0 0 77.27 47.94"><defs><style>.cls-1{fill:#e8cd2a;}.cls-2{opacity:0.14;}.cls-3{fill:#fff;opacity:0.27;}.cls-4{fill:#7f5e33;}.cls-5{fill:#42210b;opacity:0.31;}.cls-6{fill:#f9eebb;}.cls-7{fill:#020202;opacity:0.09;}</style></defs><g id="Слой_2" data-name="Слой 2"><g id="Layer_1" data-name="Layer 1"><path class="cls-1" d="M66.78.65,63,1.46a9.17,9.17,0,0,1-2,7.42c-7.64-1.31-19.93,13.32-26.91,14C14.74,24.94,4.35,17,1.33,25.08-2.92,36.41,22,43,39.65,39.48c16.12-3.2,27.69-23.16,24-29C64.43,9.28,67,5.09,66.78.65Z"/><path class="cls-2" d="M63.62,10.47c.16-.23.38-.57.63-1A2.07,2.07,0,0,0,63.62,10.47Z"/><path class="cls-2" d="M39.65,39.48c16.12-3.2,27.69-23.16,24-29-2,5.68-10.85,21.43-28.06,24.21S3.49,27.86,1.33,25.08C-2.92,36.41,22,43,39.65,39.48Z"/><path class="cls-3" d="M61,8.88c-7.64-1.31-19.93,13.32-26.91,14C15.35,24.87,5,17.53,1.64,24.37,8,26,24.63,27.55,34.29,26.86,46.08,26,61,8.88,61,8.88Z"/><path class="cls-4" d="M.92,23.37l1.9-.58L1,29l-1-1.2A23.51,23.51,0,0,1,.92,23.37Z"/><path class="cls-4" d="M66.78.65S67,1.37,65.2,2,63,1.46,63,1.46A6.11,6.11,0,0,1,66.78.65Z"/><path class="cls-5" d="M6.16,28.74A.57.57,0,1,0,5,28.8a.57.57,0,1,0,1.13-.06Z"/><path class="cls-5" d="M8.5,28.05A.44.44,0,0,0,8,27.64a.44.44,0,1,0,.46.41Z"/><path class="cls-5" d="M8,29.88a.39.39,0,0,0-.41-.38.39.39,0,0,0-.37.42.39.39,0,1,0,.78,0Z"/><path class="cls-5" d="M6.94,32a.4.4,0,1,0-.37.41A.39.39,0,0,0,6.94,32Z"/><path class="cls-5" d="M12.54,31.75a.58.58,0,0,0-.6-.54.58.58,0,0,0-.54.6.56.56,0,0,0,.6.54A.58.58,0,0,0,12.54,31.75Z"/><path class="cls-5" d="M11.28,29.49a.35.35,0,0,0-.36-.33.35.35,0,0,0-.34.37.35.35,0,0,0,.37.33A.35.35,0,0,0,11.28,29.49Z"/><path class="cls-5" d="M52.91,24.05a.4.4,0,1,0-.37.41A.4.4,0,0,0,52.91,24.05Z"/><path class="cls-5" d="M55.33,21.69a.53.53,0,0,0-.55-.5.53.53,0,0,0,.06,1A.51.51,0,0,0,55.33,21.69Z"/><path class="cls-5" d="M55.93,23.15a.44.44,0,0,0-.87,0,.44.44,0,0,0,.46.42A.43.43,0,0,0,55.93,23.15Z"/><path class="cls-5" d="M59.79,19.67a.92.92,0,0,0-1.83.09.92.92,0,1,0,1.83-.09Z"/><path class="cls-5" d="M58.57,18a.27.27,0,0,0-.27-.25.27.27,0,1,0,.27.25Z"/><path class="cls-5" d="M61.87,15.58a.44.44,0,0,0-.46-.42.45.45,0,0,0-.42.46.44.44,0,0,0,.46.42A.44.44,0,0,0,61.87,15.58Z"/><path class="cls-5" d="M31.36,33a.49.49,0,1,0-1,.05.48.48,0,0,0,.51.45A.49.49,0,0,0,31.36,33Z"/><path class="cls-5" d="M26.7,34.47a.31.31,0,0,0-.33-.29.3.3,0,0,0-.29.32.31.31,0,0,0,.32.29A.32.32,0,0,0,26.7,34.47Z"/><path class="cls-5" d="M20.15,36.76a.44.44,0,0,0-.46-.41.44.44,0,0,0-.42.46.44.44,0,0,0,.88-.05Z"/><path class="cls-5" d="M15.55,35.94A.27.27,0,0,0,15,36a.28.28,0,0,0,.28.25A.27.27,0,0,0,15.55,35.94Z"/><path class="cls-5" d="M15.78,33.48a.35.35,0,1,0-.7,0,.35.35,0,0,0,.7,0Z"/><path class="cls-5" d="M9,34.52a.35.35,0,0,0-.37-.34.35.35,0,0,0,0,.7A.35.35,0,0,0,9,34.52Z"/><path class="cls-5" d="M9.84,32.24a.39.39,0,1,0-.37.41A.39.39,0,0,0,9.84,32.24Z"/><path class="cls-5" d="M4.83,24.82a.35.35,0,0,0-.7,0,.35.35,0,1,0,.7,0Z"/><path class="cls-5" d="M7.64,23.23a.38.38,0,0,0-.41-.37.39.39,0,1,0,.41.37Z"/><path class="cls-1" d="M67.29,0,63.72,1.58a9.18,9.18,0,0,1-.37,7.66c-7.75.3-16.75,17.15-23.43,19.31-18.52,6-30.32.4-31.61,8.89-1.81,12,23.87,13.25,40.47,6.15,15.11-6.46,22.3-28.38,17.45-33.34C66.77,8.92,68.42,4.29,67.29,0Z"/><path class="cls-2" d="M66.23,10.25c.1-.25.25-.63.4-1.09A2.22,2.22,0,0,0,66.23,10.25Z"/><path class="cls-2" d="M48.78,43.59c15.11-6.46,22.3-28.38,17.45-33.34-.78,6-6.18,23.21-22.45,29.5S11,39.71,8.31,37.44C6.5,49.4,32.18,50.69,48.78,43.59Z"/><path class="cls-3" d="M63.35,9.24c-7.75.3-16.75,17.15-23.43,19.31C22,34.34,10.35,29.29,8.47,36.67,15,36.91,31.61,35,40.93,32.36,52.28,29.09,63.35,9.24,63.35,9.24Z"/><path class="cls-4" d="M7.55,35.85l1.74-1L8.77,41.3l-1.21-1A24.06,24.06,0,0,1,7.55,35.85Z"/><path class="cls-4" d="M67.29,0S67.66.65,66,1.63s-2.3,0-2.3,0A6.08,6.08,0,0,1,67.29,0Z"/><path class="cls-5" d="M13.79,40a.56.56,0,0,0-.69-.41.57.57,0,1,0,.69.41Z"/><path class="cls-5" d="M15.93,38.86a.44.44,0,0,0-.53-.31.43.43,0,0,0-.31.54.44.44,0,1,0,.84-.23Z"/><path class="cls-5" d="M15.8,40.76a.39.39,0,0,0-.48-.28A.39.39,0,0,0,15,41a.39.39,0,0,0,.48.28A.4.4,0,0,0,15.8,40.76Z"/><path class="cls-5" d="M15.23,43.08a.39.39,0,0,0-.48-.28.39.39,0,0,0-.28.48.4.4,0,0,0,.48.28A.39.39,0,0,0,15.23,43.08Z"/><path class="cls-5" d="M20.65,41.65a.56.56,0,0,0-.69-.41.57.57,0,1,0,.69.41Z"/><path class="cls-5" d="M19,39.69a.35.35,0,0,0-.43-.24.34.34,0,0,0-.25.42.35.35,0,0,0,.68-.18Z"/><path class="cls-5" d="M58.56,25.75a.39.39,0,1,0-.76.21.39.39,0,0,0,.48.28A.41.41,0,0,0,58.56,25.75Z"/><path class="cls-5" d="M60.44,23a.52.52,0,1,0-1,.27.52.52,0,0,0,.64.37A.52.52,0,0,0,60.44,23Z"/><path class="cls-5" d="M61.33,24.25a.44.44,0,0,0-.85.23.45.45,0,0,0,.54.31A.44.44,0,0,0,61.33,24.25Z"/><path class="cls-5" d="M64.39,20.05a.92.92,0,0,0-1.13-.65.92.92,0,1,0,1.13.65Z"/><path class="cls-5" d="M62.85,18.69a.27.27,0,0,0-.32-.19.28.28,0,0,0-.19.33.26.26,0,0,0,.51-.14Z"/><path class="cls-5" d="M65.57,15.62a.44.44,0,1,0-.31.53A.44.44,0,0,0,65.57,15.62Z"/><path class="cls-5" d="M39.32,39a.47.47,0,0,0-.58-.34.49.49,0,0,0-.35.59.49.49,0,0,0,.59.34A.48.48,0,0,0,39.32,39Z"/><path class="cls-5" d="M35.07,41.37a.31.31,0,0,0-.38-.21.31.31,0,0,0-.22.37.31.31,0,0,0,.6-.16Z"/><path class="cls-5" d="M29.14,45a.44.44,0,1,0-.85.22.44.44,0,0,0,.85-.22Z"/><path class="cls-5" d="M24.47,45.12a.26.26,0,1,0-.19.32A.27.27,0,0,0,24.47,45.12Z"/><path class="cls-5" d="M24.18,42.66a.36.36,0,0,0-.43-.25.35.35,0,1,0,.43.25Z"/><path class="cls-5" d="M17.76,45.08a.36.36,0,0,0-.43-.25.35.35,0,1,0,.18.68A.36.36,0,0,0,17.76,45.08Z"/><path class="cls-5" d="M18.12,42.68a.39.39,0,0,0-.48-.28.39.39,0,0,0,.2.76A.4.4,0,0,0,18.12,42.68Z"/><path class="cls-5" d="M11.68,36.46a.35.35,0,0,0-.43-.25.35.35,0,1,0,.43.25Z"/><path class="cls-5" d="M14.1,34.32a.4.4,0,0,0-.48-.28.39.39,0,0,0-.28.48.39.39,0,1,0,.76-.2Z"/><circle class="cls-1" cx="66.63" cy="36.35" r="10.63" transform="translate(-9.16 40.42) rotate(-31.69)"/><circle class="cls-6" cx="66.63" cy="36.35" r="8.61" transform="translate(-4.1 63.88) rotate(-49.88)"/><path class="cls-7" d="M68.14,34.59a.55.55,0,0,0,0,.42c.12.19.39.18.61.14.94-.17,1.93-.55,2.81-.16a.59.59,0,0,1,.31.25c.19.35-.25.74-.65.76a5.94,5.94,0,0,0-1.19,0c-.39.12-.61.74-.24.89-.48-.26-1,.43-.89,1a3.84,3.84,0,0,0,.94,1.34,3.5,3.5,0,0,1,.78,2.1,1.87,1.87,0,0,1-1.43-1.14,3.59,3.59,0,0,0-1.16-1.49c-.55-.3-1.47,0-1.42.65,0,.18.09.35.11.53s-.1.4-.28.4c.06-.48.09-1-.3-1.35a1,1,0,0,0-1,0,2.64,2.64,0,0,0-.76.73l-1,1.18c-.11.13-.28.29-.43.19s-.11-.31,0-.47a4.37,4.37,0,0,1,.71-1.06c.21-.22.46-.54.29-.8s-.39-.2-.61-.2A2.66,2.66,0,0,1,61,37.6l1.48-.4c.3-.08.66-.22.68-.53a.69.69,0,0,0-.2-.48c-.67-.93-1.43-1.84-2-2.83.88-.3,1.27.44,2,.8,1.1.57.72.56,1-.32s0-1.73,1.18-2.23c1.45-.6,1,.24,1.3,1.25.78,2.44,1.13-.51,2.19-1C68.54,32.74,68.31,33.67,68.14,34.59Z"/></g></g></svg>