<svg xmlns="http://www.w3.org/2000/svg" xmlns:xlink="http://www.w3.org/1999/xlink" viewBox="0 0 99.47 74.95"><defs><style>.cls-1{fill:none;}.cls-2{isolation:isolate;}.cls-3{fill:#51091a;}.cls-4{fill:#6a0e21;}.cls-5{opacity:0.75;}.cls-6,.cls-8{fill:#840e21;}.cls-7{clip-path:url(#clip-path);}.cls-16,.cls-8{opacity:0.12;}.cls-15,.cls-16,.cls-8{mix-blend-mode:screen;}.cls-9{fill:#b06176;}.cls-10,.cls-15{fill:#79152c;}.cls-11{clip-path:url(#clip-path-2);}.cls-12{opacity:0.11;}.cls-12,.cls-14{mix-blend-mode:multiply;}.cls-13{fill:#6f1f35;}.cls-14{opacity:0.24;}.cls-15{opacity:0.13;}.cls-17{fill:#ad5f77;}.cls-18{opacity:0.43;}.cls-19{fill:#4c110e;}.cls-20{opacity:0.29;}</style><clipPath id="clip-path" transform="translate(15.02 16.24)"><path class="cls-1" d="M40.07,30.72c1-5.09-.41-14.47-4-18.93C32.57,7.51,26.2,4.5,20.94,5.32S11.75,8.24,7.47,11.44c-1.91,1.43-5.95,7.3-6.41,8.48-2.36,6-.56,13.52,3.2,18.83S14.75,47,20.9,45.81A41.85,41.85,0,0,0,31,42.64a20.45,20.45,0,0,0,5-4.53C36.85,37.08,39.45,33.87,40.07,30.72Z"/></clipPath><clipPath id="clip-path-2" transform="translate(15.02 16.24)"><path class="cls-1" d="M33.88,36.83c.17-2.76-1.91-7-2.59-9.67a52.65,52.65,0,0,1-1.49-9.24,15,15,0,0,1,.41-5.56,12.59,12.59,0,0,1,4-5.58c9.34-8,18.4-7.53,26-5.55A26.79,26.79,0,0,1,77.39,16a19.9,19.9,0,0,1,1.83,6.43,31.89,31.89,0,0,1-1.78,11.38,20.25,20.25,0,0,1-7.79,10.47c-3.89,2.7-11.76,4-16.33,2.71C46,44.92,47.05,41,41,40.75c-2.18-.1-3.57,2.11-4.54,4.06A23.18,23.18,0,0,1,15.22,57.38C7.79,57.14,1.37,53.1.62,50.71c5.27,3.14,10.13,6.62,20.92,1.78A21.35,21.35,0,0,0,32,43,16.11,16.11,0,0,0,33.88,36.83Z"/></clipPath></defs><g class="cls-2"><g id="Слой_2" data-name="Слой 2"><g id="Layer_1" data-name="Layer 1"><path class="cls-3" d="M44.55,26.81c1-5.09.19-13.67-3.43-18.12C37.64,4.4,27.57,1.14,22.39,2.34,14.29,4.22,6.85,7,2.32,16,.54,19.61.56,21.13.71,22.38c.78,6.4,4.28,7.15,8,12.46s10.49,8.28,16.64,7.06c2.88-.57,4.66,1,7.24-.41A50.43,50.43,0,0,0,40,36.34C43.12,33.29,43.93,30,44.55,26.81Z" transform="translate(15.02 16.24)"/><path class="cls-4" d="M40.07,30.72c1-5.09-.41-14.47-4-18.93C32.57,7.51,26.2,4.5,20.94,5.32S11.75,8.24,7.47,11.44c-1.91,1.43-5.95,7.3-6.41,8.48-2.36,6-.56,13.52,3.2,18.83S14.75,47,20.9,45.81A41.85,41.85,0,0,0,31,42.64a20.45,20.45,0,0,0,5-4.53C36.85,37.08,39.45,33.87,40.07,30.72Z" transform="translate(15.02 16.24)"/><g class="cls-5"><path class="cls-6" d="M9.88,16.24C2,20.74,4,33,10.79,37.58c8.38,5.73,21.2,4.42,25-6.19,3.48-9.66-2.35-19.85-11.95-22.78C14.49,5.76,3.43,15.06,4.67,24.79c.14,1.13,1.84,1,2.11,0,1.9-6.69,6.48-13.47,14.2-13.07,8,.42,13.3,9.09,12,16.43-1.54,8.63-11.15,11.07-18.24,8C8,33.16,4,22.39,10.49,17c.46-.37-.12-1.08-.61-.8Z" transform="translate(15.02 16.24)"/></g><g class="cls-5"><path class="cls-6" d="M15.36,18c-2.83.7-4.21,3.42-4.42,6.19a9,9,0,0,0,4.52,8.7c4.47,2.73,12.43,1.42,14-4.18,2.27-8.38-9.71-20.14-17.77-7.4-.65,1,.77,1.94,1.56,1.12,2.17-2.22,5.42-4.75,8.31-3.11a10.84,10.84,0,0,1,5,6.56c1,3.77-2.74,5.32-5.87,5.48a7.29,7.29,0,0,1-7.15-4.61c-1-2.58-.43-6.59,2.19-7.94.46-.23.15-.93-.33-.81Z" transform="translate(15.02 16.24)"/></g><g class="cls-5"><path class="cls-6" d="M17.28,22.88c-3.57,2,2.44,7.9,5.1,4,1-1.53-.11-3.58-1.37-4.55-1.54-1.19-3.8-.94-4.47,1.05a.83.83,0,0,0,1.2.94c.69-.45,1.22-.75,1.94-.31a2,2,0,0,1,1,1.72c0,.83-1.33.57-1.77.35-.86-.43-1.89-1.54-1.07-2.46a.45.45,0,0,0-.55-.71Z" transform="translate(15.02 16.24)"/></g><g class="cls-7"><path class="cls-8" d="M30.25,1.15c-8.61-2.36-17.88.93-22.41,8.79a16.61,16.61,0,0,0-.33,15.79C8.33,31.64,14,38.06,19.17,40.42c7.3,3.35,16,2.38,21.81-3.51C51.48,26.2,44.19,5,30.25,1.15Zm-5,20.36.07,0a6.89,6.89,0,0,1-.87.59A3.61,3.61,0,0,1,25.23,21.51Z" transform="translate(15.02 16.24)"/></g><path class="cls-9" d="M11.15,17.38a4.92,4.92,0,0,1,1.47-1.64.09.09,0,1,0-.09-.16A3.88,3.88,0,0,0,11,17.29c0,.1.09.19.14.09Z" transform="translate(15.02 16.24)"/><path class="cls-9" d="M16.49,12.87a4.72,4.72,0,0,1,1.83-.14c.15,0,.21-.18.07-.22a3,3,0,0,0-1.91.31,0,0,0,0,0,0,0Z" transform="translate(15.02 16.24)"/><path class="cls-9" d="M24.26,30.63a.46.46,0,0,0,.26,0,.19.19,0,1,0-.09-.36.48.48,0,0,0-.22.15.11.11,0,0,0,.05.18Z" transform="translate(15.02 16.24)"/><path class="cls-9" d="M28.75,30.7a4.7,4.7,0,0,0,1-2.69c0-.21-.33-.28-.37-.06a15.92,15.92,0,0,1-.72,2.71c0,.06.06.09.1,0Z" transform="translate(15.02 16.24)"/><path class="cls-9" d="M16.13,36.41a6.73,6.73,0,0,0,3.07.35c.16,0,.14-.3,0-.29a16.15,16.15,0,0,1-3-.14,0,0,0,0,0,0,.08Z" transform="translate(15.02 16.24)"/><path class="cls-9" d="M12.08,38.86a2,2,0,0,0,1.42.89c.13,0,.17-.2,0-.23a2.33,2.33,0,0,1-1.36-.74c0-.05-.14,0-.1.08Z" transform="translate(15.02 16.24)"/><path class="cls-9" d="M25.48,33.16a6.35,6.35,0,0,0,2.46-1.43.24.24,0,0,0-.29-.38c-.8.47-1.43,1.16-2.25,1.62-.1.05,0,.23.08.19Z" transform="translate(15.02 16.24)"/><path class="cls-9" d="M10.78,38.26l.05,0a.32.32,0,0,0,.48-.06l0-.05a.36.36,0,0,0-.3-.54c-.29,0-.52.4-.26.61Z" transform="translate(15.02 16.24)"/><path class="cls-9" d="M22.13,12.37a6,6,0,0,1,3.8,2,.25.25,0,0,0,.4-.3,4.45,4.45,0,0,0-4.2-1.89.09.09,0,0,0,0,.17Z" transform="translate(15.02 16.24)"/><path class="cls-10" d="M33.88,36.83c.17-2.76-1.91-7-2.59-9.67a52.65,52.65,0,0,1-1.49-9.24,15,15,0,0,1,.41-5.56,12.59,12.59,0,0,1,4-5.58c9.34-8,18.4-7.53,26-5.55A26.79,26.79,0,0,1,77.39,16a20.15,20.15,0,0,1,1.83,6.43c.31,3.15-.71,8.4-1.78,11.38a20.15,20.15,0,0,1-7.79,10.47c-3.89,2.7-11.76,4-16.33,2.71C46,44.92,47.05,41,41,40.75c-2.18-.1-3.57,2.11-4.54,4.06A23.18,23.18,0,0,1,15.22,57.38C7.79,57.14,1.37,53.1.62,50.71c5.27,3.14,10.13,6.62,20.92,1.78A21.35,21.35,0,0,0,32,43,16.11,16.11,0,0,0,33.88,36.83Z" transform="translate(15.02 16.24)"/><g class="cls-11"><g class="cls-12"><path class="cls-13" d="M-4,45.33C-5.32,48-3,51-1.46,53.06c3,3.84,8.54,5,13.06,5.48,10.21,1,21.43-2.62,28.79-9.83,4.24-4.16,4.72-9.31,3.29-15.13C41.08,23,46.22,12.85,62.18,9.94c5.93-1.09,11.11,2.15,17.2,0,4.17-1.45,6.15-6.73,4.48-10.67C78.56-13.17,61.32-12.22,51.12-7.2,39.38-1.42,26.52,6.15,26.54,19.05c0,5.12,7.36,11.62,4.34,16.15a23.1,23.1,0,0,1-9.14,7.68A38.4,38.4,0,0,1,9.1,46.38c-4.32.45-7.41-1.07-11.42-2a1.6,1.6,0,0,0-1.7.94Z" transform="translate(15.02 16.24)"/></g><g class="cls-12"><path class="cls-13" d="M-10.83,43c-1.3,2.62,7.82,1.85,9.38,3.87,3,3.84,5,8,9.54,8.41,10.21,1,16.83-.48,24.18-7.69,4.24-4.16,6.46-10.64,4.59-16.34C32.38,17.52,40.36,7.7,56.31,4.78c5.93-1.08,12.27-1,21.7,2.27,4.17,1.43.71-6.17-1-10.11C71.74-15.54,54.51-14.59,44.31-9.57,32.57-3.79,19.71,3.78,19.73,16.68c0,5.12,7.36,11.63,4.34,16.15a23.1,23.1,0,0,1-9.14,7.68A38.4,38.4,0,0,1,2.29,44c-4.33.45-7.41-1.07-11.42-2a1.61,1.61,0,0,0-1.7.94Z" transform="translate(15.02 16.24)"/></g><g class="cls-14"><path class="cls-13" d="M-14.89,39.76c-1.31,2.63,7.82,1.85,9.38,3.87,3,3.84,5.86,5.18,10.38,5.63,10.21,1,16,2.3,23.33-4.91,4.24-4.16,5.4-9.9,5-15.88C32.06,12,36.29,4.5,52.25,1.59,58.17.5,65.22,2.76,74.64,6c4.18,1.43,0-8.31-1.66-12.25-5.3-12.48-22.54-11.53-32.73-6.51C28.51-7,15.64.58,15.66,13.49c0,5.12,7.37,11.62,4.35,16.14a23,23,0,0,1-9.14,7.68,38.22,38.22,0,0,1-12.65,3.5c-4.32.45-7.4-1.06-11.42-2a1.61,1.61,0,0,0-1.69.94Z" transform="translate(15.02 16.24)"/></g></g><path class="cls-15" d="M61.08,4.61c-2.88-.52-4.9,2-4.81,4.66.11,3.14,1.49,4.32,2.94,9.31.36,1.24-2.47,3.07-3.7,3-6.85-.41-17.58,4.47-14.94,12a3.69,3.69,0,0,1,.08.46c1.13,6.76,9.21,8.94,15.68,9.55,13.47,1.26,18.61-7.66,19.84-16.1C77.58,17.85,70.71,6.37,61.08,4.61Z" transform="translate(15.02 16.24)"/><g class="cls-16"><path class="cls-17" d="M62.83,14.5a10.42,10.42,0,0,1,.34,7.22,6.82,6.82,0,0,1-1.07,1.83c.52-.47-3,5.16-3.9,6.2-5.71,6.41,2.86,14.55,10.69,10.52,11.66-6,12.57-26.16-.92-30.79-3.19-1.1-6.41,1.68-5.14,5Z" transform="translate(15.02 16.24)"/></g><g class="cls-18"><path class="cls-9" d="M66.06,19.1c-.15.65-.15.67,0,.08-.11.28-.22.56-.35.83-.32.71-.59,1.44-.95,2.13,1.14-2.19-.68,1.2-1,1.81a8.52,8.52,0,0,0,0,6.43c1.27,3.58,5.44,4.85,8.77,3.68,4.28-1.5,5.55-5.9,5.4-10a11.25,11.25,0,0,0-3.2-7.19c-2.93-3.14-7.69-2.09-8.69,2.21Z" transform="translate(15.02 16.24)"/></g><g class="cls-18"><path class="cls-9" d="M69.21,21c-.09.38-.09.4,0,.05a3.48,3.48,0,0,1-.21.48c-.19.42-.34.85-.55,1.25.66-1.28-.4.7-.56,1.06a5,5,0,0,0,0,3.76A4,4,0,0,0,73,29.73c2.51-.88,3.25-3.46,3.17-5.84a6.64,6.64,0,0,0-1.88-4.21A2.88,2.88,0,0,0,69.21,21Z" transform="translate(15.02 16.24)"/></g><path class="cls-19" d="M64.69,2.45c-.45,1.56,2.47,3,3.36,3.74,3.16,2.53,4.68,6.14,7.2,9.18.87,1.05,2.33-.28,1.8-1.37a29.86,29.86,0,0,0-5.14-7.62,18.55,18.55,0,0,0-3.26-2.52c-1-.63-2.4-.89-3.27-1.58a.42.42,0,0,0-.69.17Z" transform="translate(15.02 16.24)"/><path class="cls-19" d="M65.13,4.87a36.77,36.77,0,0,1,4.64,5c.12.14.34,0,.25-.19a19.14,19.14,0,0,0-4.8-4.95c-.06,0-.15.06-.09.12Z" transform="translate(15.02 16.24)"/><path class="cls-19" d="M65.38,6.45c.88.86,1.72,1.76,2.51,2.7.08.1.21,0,.13-.13A33.72,33.72,0,0,0,65.53,6.3a.11.11,0,0,0-.15.15Z" transform="translate(15.02 16.24)"/><path class="cls-19" d="M71,11.59c.81,1.35,1.29,3,2.3,4.2.15.19.48,0,.4-.23a11.22,11.22,0,0,0-2.6-4.05s-.13,0-.1.08Z" transform="translate(15.02 16.24)"/><path class="cls-19" d="M68.82,11A5,5,0,0,0,70,12.87a.32.32,0,0,0,.47-.36,2.35,2.35,0,0,0-.55-.79,12.46,12.46,0,0,0-.87-.91.13.13,0,0,0-.2.15Z" transform="translate(15.02 16.24)"/><path class="cls-19" d="M63.54,3.72a1.82,1.82,0,0,0,1,2.2c.19.07.37-.22.2-.35a2.11,2.11,0,0,1-1-1.83c0-.11-.15-.12-.19,0Z" transform="translate(15.02 16.24)"/><path class="cls-19" d="M75.63,17.23a1.91,1.91,0,0,0,1.27.53.28.28,0,0,0,.15-.53,7,7,0,0,1-1-.48c-.28-.21-.64.26-.38.48Z" transform="translate(15.02 16.24)"/><g class="cls-20"><path class="cls-9" d="M19.3,55.63C26.47,56,33.47,48,36.38,42.13c.43-.85-.76-1.39-1.33-.8-2.16,2.23-3.76,5-5.87,7.26a25,25,0,0,1-9.92,6.68.19.19,0,0,0,0,.36Z" transform="translate(15.02 16.24)"/></g><path class="cls-9" d="M67.35,15.32l0,.07a1.1,1.1,0,0,0,0,1.12l.07.11a1.14,1.14,0,0,0,1.23.52,1.11,1.11,0,0,0,.78-1.34l0-.13a1.13,1.13,0,0,0-.78-.79l-.09,0a1,1,0,0,0-1.14.46Z" transform="translate(15.02 16.24)"/></g></g></g></svg>