<svg xmlns="http://www.w3.org/2000/svg" viewBox="0 0 90.04 58.06"><defs><style>.cls-1{fill:#c69c6d;}.cls-2{fill:#753801;opacity:0.16;}.cls-3{fill:#f7d49c;}.cls-4{opacity:0.07;}.cls-5{fill:#0c0c0c;}.cls-6{fill:#fcfcfc;opacity:0.23;}</style></defs><g id="Слой_2" data-name="Слой 2"><g id="Layer_1" data-name="Layer 1"><path class="cls-1" d="M73.5.34H14.31C6.94.34,0,6.72,0,14.09v2c0,2.67,1.49,5,2.92,7a8.81,8.81,0,0,1,1.86,5.24L4.15,53.79c0,2.5,2.15,4.1,4.65,4.1H73.5Z"/><path class="cls-2" d="M32.74.34H14.31C6.94.34,0,6.72,0,14.09v2c0,.74.73,1.63.9,2.32H73.5V.34Z"/><path class="cls-2" d="M27.15.34H14.31C6.94.34,0,6.72,0,14.09v2c0,2.67,1.49,5.2,2.92,7.19.83,1.17,1.74,2.06,1.94,4.15H73.5V.34H27.15Z"/><path class="cls-3" d="M77.2,0H58.78a13.44,13.44,0,0,0-13.4,13.4v1.95a11.92,11.92,0,0,0,2.46,7,8.65,8.65,0,0,1,1.64,5.24l-.75,26a4.54,4.54,0,0,0,4.54,4.54H81a4.54,4.54,0,0,0,4.54-4.54l-.36-24.91a8.66,8.66,0,0,1,2.11-6A10.34,10.34,0,0,0,90,15.35V12.84A12.84,12.84,0,0,0,77.2,0Z"/><g class="cls-4"><path class="cls-5" d="M55.71,8.47a1.91,1.91,0,0,0-.29.41,3,3,0,0,0-.09.68c-.11.72-.95,1.06-1.66,1.18a1.85,1.85,0,0,1-.74,0A1.35,1.35,0,0,1,52,9.53,3,3,0,0,1,52.38,8,2.37,2.37,0,0,1,53,7.1a2.57,2.57,0,0,1,1.42-.38,2,2,0,0,1,.65,0A1.16,1.16,0,0,1,55.71,8.47Z"/><path class="cls-5" d="M53.2,21.87c0,.3,0,.61,0,.91s.25.62.56.61a.56.56,0,0,0,.49-.47,1.52,1.52,0,0,0-.06-.73.47.47,0,0,0-.1-.24.64.64,0,0,0-.18-.1.61.61,0,0,0-.56,0c-.15.12-.08.44.11.41"/><path class="cls-5" d="M50.54,14.72a2.89,2.89,0,0,0-.36,1.71,1.17,1.17,0,0,0,1.24,1,.6.6,0,0,0,.37-.19A1,1,0,0,0,52,16.6L52,15.47c0-.36,0-.8-.31-1s-.88.09-1.16.47"/><path class="cls-5" d="M81,4.36a3,3,0,0,1,2.15,1.07,1.18,1.18,0,0,1,.5.84.8.8,0,0,1-.91.65,2.79,2.79,0,0,1-1.14-.48,10.87,10.87,0,0,0-2.48-1.07.76.76,0,0,1-.5-.28.53.53,0,0,1,.13-.63,1.27,1.27,0,0,1,.63-.26,5.45,5.45,0,0,1,1.21-.11c.21,0,.47.07.48.28"/><path class="cls-5" d="M71.25,4.46l-2.45.19c-.36,0-.84,0-.9-.38A.56.56,0,0,1,68,3.89,2.31,2.31,0,0,1,69.75,3a1.51,1.51,0,0,1,1,.1,1.51,1.51,0,0,1,.45,1.32"/><path class="cls-5" d="M61.68,6.51c-.33,0-.62.2-.9.36s-.74.19-.87-.11a.57.57,0,0,1,.15-.57,1.33,1.33,0,0,1,1.59-.3c0,.17,0,.35,0,.53"/><path class="cls-5" d="M85.62,14.43a7,7,0,0,1,.08,1,1.19,1.19,0,0,1-.12.62.45.45,0,0,1-.55.2.69.69,0,0,1-.25-.52L84.5,14a.91.91,0,0,1,1.17.62"/><path class="cls-5" d="M80.48,51.08a1.83,1.83,0,0,1-.84-.08.67.67,0,0,1-.44-.66c.07-.41.55-.55.87-.8a2.18,2.18,0,0,0,.57-1.94c0-.34,0-.75.26-.93a.52.52,0,0,1,.27-.07.85.85,0,0,1,.81.51,1.72,1.72,0,0,1,.09.68v1.1a4.2,4.2,0,0,1-.13,1.17,1.38,1.38,0,0,1-.72.89A1.79,1.79,0,0,1,80.48,51.08Z"/><path class="cls-5" d="M79.28,35.43a.73.73,0,0,1-.12,1.07.84.84,0,0,1-1.1-.21,1,1,0,0,1,0-1.15A.89.89,0,0,1,79,34.8a.65.65,0,0,1,.47.75"/><path class="cls-5" d="M64.16,18.68c-.39.38.06,1.15-.31,1.54s-.85.08-1.08-.28a1.43,1.43,0,0,1,.13-1.65.91.91,0,0,1,.9-.34.56.56,0,0,1,.34.8"/><path class="cls-5" d="M76.75,11c.34,0,.55.36.68.67a2,2,0,0,1,.21.83.63.63,0,0,1-.51.61,1,1,0,0,1-.7-.37,2.22,2.22,0,0,1-.69-1c-.09-.41.16-.93.58-1s.63.3.84.59"/><path class="cls-5" d="M66.67,9.9a4.47,4.47,0,0,1-.45.42.61.61,0,0,1-.37.21.42.42,0,0,1-.38-.5.65.65,0,0,1,.5-.48,1.93,1.93,0,0,1,.72,0v.34"/><path class="cls-5" d="M59.34,14.24a2.59,2.59,0,0,1-.21,1.48,1.41,1.41,0,0,1-1.22.78.57.57,0,0,1-.31-.1.59.59,0,0,1-.18-.34,2.45,2.45,0,0,1,0-1.56,1.62,1.62,0,0,1,1.13-1,.75.75,0,0,1,.65.12.44.44,0,0,1,.09.61"/><path class="cls-5" d="M81.15,21.72A1.64,1.64,0,0,1,80.39,24c-.23.1-.56.11-.68-.11a.67.67,0,0,1,0-.34c0-.88.09-1.75.14-2.63a.82.82,0,0,1,.85.17,2.13,2.13,0,0,1,.53.75"/><path class="cls-5" d="M54,30.86a1.65,1.65,0,0,1,.19,1c-.07.33-.43.61-.73.47s-.32-.42-.36-.68a3,3,0,0,1,0-1,.8.8,0,0,1,.27-.52.45.45,0,0,1,.55,0c.31.25,0,.81.25,1.14"/><path class="cls-5" d="M52.61,39.49a4.36,4.36,0,0,0-.42,1.31A1.46,1.46,0,0,0,52.64,42c.12.09.28.16.4.07a.43.43,0,0,0,.11-.21,14.43,14.43,0,0,0,.43-2.52,1.26,1.26,0,0,0-.64,0,.44.44,0,0,0-.29.51"/><path class="cls-5" d="M74.73,54.34a10.26,10.26,0,0,1-1.84.2c-.34,0-.76-.13-.81-.46a.58.58,0,0,1,.36-.55,3.57,3.57,0,0,1,.66-.18,8.47,8.47,0,0,0,1.07-.47,1.7,1.7,0,0,1,1.12-.2.83.83,0,0,1,.69.81C75.92,54,75.27,54.24,74.73,54.34Z"/><path class="cls-5" d="M73.3,17.27a.61.61,0,0,1,0,1.19.79.79,0,0,1-.82-.44,1.69,1.69,0,0,1-.14-1,1.07,1.07,0,0,1,1.2.44"/><path class="cls-5" d="M60.65,25.87a1.08,1.08,0,0,1,0,1,.61.61,0,0,1-.84.23.91.91,0,0,1-.3-.54,1.62,1.62,0,0,1,0-1.28c.24-.37.92-.43,1.06,0,0,.12,0,.24.07.36s.14.23.26.19"/><path class="cls-5" d="M76,26.21c.24,0,.34.34.36.59a1.11,1.11,0,0,1-.08.7.46.46,0,0,1-.62.19.63.63,0,0,1-.19-.31,2.83,2.83,0,0,1-.12-1,1.32,1.32,0,0,1,.89.22"/><path class="cls-5" d="M70.24,23.25a.94.94,0,0,1-.6,1.32.48.48,0,0,1-.29,0,.58.58,0,0,1-.26-.41,1.11,1.11,0,0,1,.25-1,.67.67,0,0,1,1,0"/><path class="cls-5" d="M60.93,33.13a.82.82,0,0,1-.71,1.44,2.8,2.8,0,0,1-.52-1,.93.93,0,0,1,.46-1c.36-.15.87.16.79.55l.35,0"/><path class="cls-5" d="M73.11,31.37a.52.52,0,0,1,.07.85A.62.62,0,0,1,72.3,32a.63.63,0,0,1,.16-.78.55.55,0,0,1,.76.14"/><path class="cls-5" d="M67.33,30.56c.24.08.22.48,0,.6a.54.54,0,0,1-.66-.21.56.56,0,0,1,.12-.8c.26-.15.67.14.55.42"/><path class="cls-5" d="M54.05,54.23a6.59,6.59,0,0,0,2.25.68c.3,0,.7,0,.74-.34a.6.6,0,0,0-.23-.45,6,6,0,0,0-1.17-.9,1.71,1.71,0,0,0-1.08-.32.74.74,0,0,0-.68.76c0,.31.35.55.35.86"/><path class="cls-5" d="M53.43,46a10.32,10.32,0,0,1,.26,1.91,1.07,1.07,0,0,1,0,.47.82.82,0,0,1-1,.38,1.61,1.61,0,0,1-.81-.89,1.67,1.67,0,0,1,.15-1.79,1.28,1.28,0,0,1,.56-.33,1,1,0,0,1,.77,0,.64.64,0,0,1,.34.66"/><path class="cls-5" d="M78.26,40.94a3.26,3.26,0,0,1,.3,1.18,1.12,1.12,0,0,1-.54,1c-.13.06-.32.08-.4,0a.32.32,0,0,1-.06-.17c-.13-.85-.27-1.69-.41-2.54a1,1,0,0,1,1.18.91"/><path class="cls-5" d="M60.65,40.49c.3.13.17.59,0,.85s-.49.5-.76.35-.24-.39-.25-.62a1.44,1.44,0,0,1,.11-.77.51.51,0,0,1,.65-.24.75.75,0,0,1,.26.51"/><path class="cls-5" d="M71.43,38.05a.53.53,0,0,1,.33.85.6.6,0,0,1-.94-.15.69.69,0,0,1,.4-.91c.13,0,.33,0,.35.12"/><path class="cls-5" d="M67,36.7a.78.78,0,0,1-.25,1.22.36.36,0,0,1-.32,0,.64.64,0,0,1-.1-.13.89.89,0,0,1-.06-1c.2-.28.75-.23.79.12"/><path class="cls-5" d="M72.74,47.27a1.74,1.74,0,0,1-.66,1.51,1.25,1.25,0,0,1-.66.35.56.56,0,0,1-.61-.34.82.82,0,0,1,.13-.6l.33-.67a1.44,1.44,0,0,1,.74-.79c.35-.11.82.25.65.58"/><path class="cls-5" d="M59.63,46.89a.65.65,0,0,1,.62.37,1.59,1.59,0,0,1,.14.75.43.43,0,0,1-.08.29.36.36,0,0,1-.23.09,1.27,1.27,0,0,1-1.4-1.23.28.28,0,0,1,.07-.22.31.31,0,0,1,.21,0h.76"/><path class="cls-5" d="M66.06,43.5a.45.45,0,0,1,.57.34.45.45,0,0,1-.46.48.59.59,0,0,1-.47-.46,1.61,1.61,0,0,1,0-.69.79.79,0,0,1,.59.57"/><path class="cls-5" d="M66.87,52a1.26,1.26,0,0,1-.52,1.25A2.8,2.8,0,0,1,65,53.7a.3.3,0,0,1-.25-.05.31.31,0,0,1-.09-.21c-.06-.6.35-1.14.47-1.74.09-.43,0-.88.12-1.3s.52-.83.93-.71.53.68.54,1.12a13.25,13.25,0,0,1-.07,1.67"/></g><path class="cls-6" d="M28.55,3.12h19S44.32,4.84,44,6.23s-31.68.61-33.77.61S7.75.34,28.55,3.12Z"/></g></g></svg>