<svg xmlns="http://www.w3.org/2000/svg" xmlns:xlink="http://www.w3.org/1999/xlink" viewBox="0 0 126.54 129.5"><defs><style>.cls-1{fill:#99bc3a;}.cls-2{isolation:isolate;}.cls-3{clip-path:url(#clip-path);}.cls-4{opacity:0.82;}.cls-13,.cls-5{fill:#99b533;}.cls-12,.cls-5{opacity:0.12;}.cls-12,.cls-5,.cls-7{mix-blend-mode:multiply;}.cls-6{opacity:0.68;}.cls-7{opacity:0.37;}.cls-8{fill:#5f9207;}.cls-9{fill:#a9c449;}.cls-10{opacity:0.46;}.cls-11{fill:#b3d146;}.cls-14,.cls-15,.cls-20{fill:#d3e091;}.cls-14{opacity:0.41;}.cls-15{opacity:0.56;}.cls-16{fill:#cbd886;}.cls-17{opacity:0.32;}.cls-18{fill:#cbdb58;}.cls-19{fill:#4f7a0f;}</style><clipPath id="clip-path" transform="translate(42.64 12.9)"><path class="cls-1" d="M81.72,46.49c.13,2.67-4,8.7-5.89,14.5-2.26,7.1-8.7,9.86-9.78,11a9.31,9.31,0,0,1-5,2.47C53.88,76,46.48,74,39.15,73.63c-3.12-.18-6.33-.07-9.3-1.06a10.58,10.58,0,0,0-3-.82c-.51,0-1,.07-1.51,0A5.43,5.43,0,0,1,22.59,70a34.87,34.87,0,0,0-7.72-5.53c-2.5-1.32-5.4-2.55-6.55-5.14-.87-1.93-.54-4.21-1.26-6.19-1-2.73-3.8-4.49-4.77-7.22-1.43-4,.83-10,2.69-13.85,1.74-3.59,3.17-5.69,3.14-9.68,0-5.61,7.15-12,11.85-14.84A51.91,51.91,0,0,1,43.82.74C49.3.49,55.73,3.19,60.73,5.42S69,11.78,72.15,16.26c1.49,2.13,2.65,4.52,4.5,6.35,1.31,1.3,3,2.38,3.59,4.12.46,1.33.17,2.79.23,4.19a25.35,25.35,0,0,0,1.24,5.32C82.67,39.77,81.55,42.83,81.72,46.49Z"/></clipPath></defs><g class="cls-2"><g id="Слой_2" data-name="Слой 2"><g id="Layer_1" data-name="Layer 1"><path class="cls-1" d="M81.72,46.49c.13,2.67-4,8.7-5.89,14.5-2.26,7.1-8.7,9.86-9.78,11a9.31,9.31,0,0,1-5,2.47C53.88,76,46.48,74,39.15,73.63c-3.12-.18-6.33-.07-9.3-1.06a10.58,10.58,0,0,0-3-.82c-.51,0-1,.07-1.51,0A5.43,5.43,0,0,1,22.59,70a34.87,34.87,0,0,0-7.72-5.53c-2.5-1.32-5.4-2.55-6.55-5.14-.87-1.93-.54-4.21-1.26-6.19-1-2.73-3.8-4.49-4.77-7.22-1.43-4,.83-10,2.69-13.85,1.74-3.59,3.17-5.69,3.14-9.68,0-5.61,7.15-12,11.85-14.84A51.91,51.91,0,0,1,43.82.74C49.3.49,55.73,3.19,60.73,5.42S69,11.78,72.15,16.26c1.49,2.13,2.65,4.52,4.5,6.35,1.31,1.3,3,2.38,3.59,4.12.46,1.33.17,2.79.23,4.19a25.35,25.35,0,0,0,1.24,5.32C82.67,39.77,81.55,42.83,81.72,46.49Z" transform="translate(42.64 12.9)"/><g class="cls-3"><g class="cls-4"><path class="cls-5" d="M56.81-7c-1.25-4.87-7.23-6.26-11.58-5.87-6.16.56-19.37,1.8-23.34,6.5C12.89,4.32-16.45,22-13.54,35.13-10.93,46.9,14.09,78.79,22.3,87.48c9.06,9.6,43.79-3.54,56.54-12.45,5.33-3.72,7.13-11.24,2.08-16.18a28.09,28.09,0,0,0-5.35-4.37c-.75-.44-1.46-.94-2.17-1.45-1.21-.85-7.83-3.64-3.17-1.58a47.32,47.32,0,0,1-4.78-2.52c-.78-.46-1.53-1-2.28-1.48-.5-.34-1-.7-1.47-1.06q2.37,1.84.65.43a53,53,0,0,1-4-3.78c-.63-.66-1.24-1.35-1.85-2s-3.1-3.91-.75-.82a57.11,57.11,0,0,1-6.43-10.93c1.45,3.19.09.18-.16-.42-.37-.89-.69-1.81-1-2.73a52.39,52.39,0,0,1-1.79-6.52c-.12-.6-.56-3.8-.15-.47-.15-1.25-.19-2.51-.29-3.76-.07-.92-.07-1.84-.07-2.76,0-.66.51-4.52,0-1.42a46.86,46.86,0,0,1,1-4.85A23.46,23.46,0,0,1,47.64,4c-.83,2.19.63-.9.87-1.31.06-.11,1.46-2.28.41-.93A13.24,13.24,0,0,1,50,.59c.64-.59.76-.7.36-.31.58-.39,1.23-.6,1.79-1,.25-.18.8-.38.15-.3,3-.34,5.33-2.74,4.51-5.93Z" transform="translate(42.64 12.9)"/></g><g class="cls-6"><path class="cls-5" d="M41.07.25c-1.78-5-8.25-6-12.83-5.14C21.76-3.73,7.88-1.19,4.11,4.16c-8.55,12.14-38,33.64-33.7,47.24,3.86,12.24,33.34,43.71,42.84,52.15,10.5,9.34,46.09-7.81,58.77-18.43,5.3-4.45,6.52-12.59.71-17.35a29.77,29.77,0,0,0-6.08-4.13c-.84-.4-1.64-.87-2.44-1.34-1.36-.79-8.64-3.13-3.51-1.38a49,49,0,0,1-5.29-2.23c-.87-.41-1.71-.88-2.56-1.35-.56-.32-1.11-.65-1.66-1q2.7,1.74.73.41c-1.6-1.12-3.11-2.37-4.59-3.64-.74-.64-1.44-1.32-2.15-2s-3.65-3.86-.87-.8a60.27,60.27,0,0,1-7.83-11c1.83,3.25.11.19-.21-.42-.47-.92-.9-1.86-1.33-2.8a56.32,56.32,0,0,1-2.49-6.75c-.2-.63-1-4-.21-.49-.28-1.31-.44-2.64-.66-3.95-.16-1-.25-2-.33-2.92-.06-.7.12-4.84-.12-1.5a48.78,48.78,0,0,1,.61-5.25,24.37,24.37,0,0,1,.62-2.52c-.68,2.4.58-1,.8-1.47.06-.12,1.34-2.56.35-1a14.75,14.75,0,0,1,1-1.33c.63-.7.75-.82.36-.37.58-.47,1.25-.75,1.81-1.24.24-.22.8-.48.12-.34,3.17-.63,5.4-3.4,4.24-6.7Z" transform="translate(42.64 12.9)"/></g><path class="cls-5" d="M21.12,8.79c-2.46-4.74-9-4.75-13.41-3.3C1.45,7.55-11.94,12-14.92,17.82-21.7,31-47.86,56.43-41.71,69.31-36.17,80.88-2.59,107.93,8,115c11.7,7.78,44.55-14.17,55.62-26.45,4.64-5.14,21.27-11.43,14.86-15.34C76.35,71.9,57.68,68.74,55.3,68c-.88-.27-1.74-.62-2.6-1-1.46-.6-9-1.9-3.66-.88a52.87,52.87,0,0,1-5.56-1.47c-.92-.29-1.82-.64-2.72-1-.6-.24-1.19-.49-1.78-.75q2.91,1.35.78.3a54.44,54.44,0,0,1-5.06-3c-.82-.53-1.61-1.09-2.41-1.66s-4.15-3.31-1-.67A60.63,60.63,0,0,1,22,48.14c2.27,3,.14.17-.26-.39-.6-.85-1.15-1.72-1.71-2.59a54.44,54.44,0,0,1-3.41-6.34c-.28-.59-1.5-3.8-.27-.45-.46-1.26-.8-2.55-1.2-3.82-.3-.94-.52-1.89-.74-2.85-.16-.68-.56-4.81-.33-1.47A51.51,51.51,0,0,1,14,25c0-.87.15-1.73.26-2.59-.33,2.47.44-1.09.59-1.57,0-.13,1-2.71.2-1.06a13.3,13.3,0,0,1,.84-1.47c.52-.77.62-.91.31-.41.5-.55,1.13-.92,1.61-1.49.21-.25.73-.58.07-.35,3.05-1.07,4.88-4.11,3.26-7.23Z" transform="translate(42.64 12.9)"/></g><g class="cls-7"><path class="cls-8" d="M7.91,55.14C7.65,55,2.68,35.05,3.51,32.75c2.25-6.22,1.75-13.53,5.66-18.86C12,10,16.64,8,21.06,6.14c4.85-2,9.76-4,14.94-4.91a52.7,52.7,0,0,1,8-.62,27.16,27.16,0,0,1,8.33.9c9.18,2.82,18.84,10,22.26,18.59-3.07.25-8.34.59-11.34-.1a8.88,8.88,0,0,0-7.9,1.77c-1,.72-1.69,1.7-2.69,2.34-2.78,1.78-6.38.45-9.58-.36-3.79-.95-8.48-1.53-12.31-.78-2.89.56-6,1.65-6.5,4.56-.49,3.14,3.16,6.7,3.53,9.85.24,2-5.46,6.89-8.16,10C17.47,50,8.13,55.28,7.91,55.14Z" transform="translate(42.64 12.9)"/></g><path class="cls-9" d="M7.4,55.37a1.44,1.44,0,0,1-.46-.81c-1-3-4.92-5.58-6.26-8.45a9.83,9.83,0,0,1,0-7.18c.77-2.33,2-4.48,2.82-6.79,2.25-6.21,1.75-13.52,5.66-18.85C12,9.43,16.64,7.39,21.06,5.54c4.85-2,9.76-4,14.94-4.92A54,54,0,0,1,44,0a27.16,27.16,0,0,1,8.33.9c9.18,2.81,18.84,10.6,22.26,19.19-3.07.25-7.34.8-10.35.1s-6.42-.88-8.89,1c-1,.71-1.69,1.69-2.69,2.33-2.78,1.78-6.38.45-9.58-.35a26.76,26.76,0,0,0-11.61-.34c-2.9.57-6.13,2.13-6.58,5-.49,3.14,2.54,5.77,2.91,8.92.24,2-5.46,6.9-8.16,10C17.47,49.37,7.62,55.51,7.4,55.37Z" transform="translate(42.64 12.9)"/><g class="cls-10"><path class="cls-11" d="M61,25.58c-2.1.47-3.88,1.79-6,2.29-2,.46-3,.13-4.87-.38-4.7-1.26-10-2.1-13.31,2.2-2.74,3.58,1.75,8.14,5.49,7.14a9.89,9.89,0,0,1,4.38-.55,33.44,33.44,0,0,0,5.83.26C57.19,36,63,32.66,63.4,27.42A1.92,1.92,0,0,0,61,25.58Z" transform="translate(42.64 12.9)"/></g><g class="cls-10"><path class="cls-11" d="M60.14,43.21c1.66-.18,4-1,5.6-.13.86.47,1.52,1.47,2.38,2a5.52,5.52,0,0,0,4.95.69,4.83,4.83,0,0,0,2.83-6.95c-1.53-3.2-6.43-4.34-9.67-3.87a13,13,0,0,0-8,4.9,2.25,2.25,0,0,0,1.93,3.37Z" transform="translate(42.64 12.9)"/></g><g class="cls-10"><path class="cls-11" d="M44.89,44.16C40,42.9,36,44.47,32.23,47.64,30.66,49,28.3,51.2,27.92,53.32c-.49,2.77.41,5.07,2.36,5.93a2.56,2.56,0,0,0,3.06-.39l-1,.51a3.35,3.35,0,0,0,1.52-.89,7,7,0,0,0,1.1-1.58c.75-1.33,1.19-2.71,2-4a13.29,13.29,0,0,1,7.92-5.46,1.71,1.71,0,0,0,0-3.28Z" transform="translate(42.64 12.9)"/></g><g class="cls-10"><path class="cls-11" d="M12.43,58.75a5.34,5.34,0,0,0,3.19,0,15.63,15.63,0,0,0,3.56-1,3.17,3.17,0,0,0,1.45-3.57,3.23,3.23,0,0,0-3.9-2.22,5.7,5.7,0,0,0-3.15,2.23c-.59.72-1.23,1.38-1.83,2.09a1.55,1.55,0,0,0,.68,2.55Z" transform="translate(42.64 12.9)"/></g><g class="cls-10"><path class="cls-11" d="M67.31,30.37l-.46-.8a1.89,1.89,0,0,0,.46.8,3.46,3.46,0,0,0,1,.59,6.35,6.35,0,0,0,1.33.46c.67.1,1.33.29,2,.35.84.07-.55-.13.22,0a7.33,7.33,0,0,0,1.4.16,2.77,2.77,0,0,0,1.94-4.69c1.72,1.57-1,5.18.42,3.33A2.45,2.45,0,0,0,75.9,30a2.69,2.69,0,0,0-.71-2.67c-2-1.85-6-1.4-7.88.53a1.82,1.82,0,0,0,0,2.56Z" transform="translate(42.64 12.9)"/></g><g class="cls-10"><path class="cls-11" d="M30.2,70.22a17.45,17.45,0,0,1,5.26-2.32c2-.53,4.23.5,6-.56a2.09,2.09,0,0,0,1-2.36c-.86-3.11-4.61-2.65-7-2a14.36,14.36,0,0,0-7.25,4.57c-1.14,1.39.34,3.83,2.06,2.67Z" transform="translate(42.64 12.9)"/></g><g class="cls-10"><path class="cls-11" d="M20.48,12c1.43-.07,3.12.56,4.55.74a49,49,0,0,1,8.16,1.5c4.73,1.44,8.12,4,11.68,7.34C49.94,26.33,57.38,19,52.47,14A30.93,30.93,0,0,0,34.38,5.44a31.85,31.85,0,0,0-10.25.72c-2.26.51-4.84,1.11-5.26,3.76A1.7,1.7,0,0,0,20.48,12Z" transform="translate(42.64 12.9)"/></g><g class="cls-10"><path class="cls-11" d="M52.86,8.25a11.91,11.91,0,0,1,4.06,3.05c1.32,1.39,2.27,3,4,4a1.71,1.71,0,0,0,2.49-1.92A10.28,10.28,0,0,0,53.5,5.87c-1.15,0-1.89,1.85-.64,2.38Z" transform="translate(42.64 12.9)"/></g><g class="cls-10"><path class="cls-11" d="M12.09,15.87c-3.27,3.84-1.5,9.34.59,13.42,1.3,2.54,3.41,4.52,4.92,6.93s4.63,3.44,6.94,1.42a3.92,3.92,0,0,0,1-3.91c-1.24-3.5-4.51-5.36-7-7.93-1.7-1.75-5-6.07-4.25-8.64.36-1.23-1.35-2.32-2.23-1.29Z" transform="translate(42.64 12.9)"/></g><g class="cls-10"><path class="cls-11" d="M10.64,16.23c-3.5,3.31-3.07,8.59-2.32,12.93a17.47,17.47,0,0,0,3.18,7c1.71,2.41,3.6,5.9,7,5.58a3.63,3.63,0,0,0,3.41-2.6c.05-.16.1-.33.14-.5a4.26,4.26,0,0,0-1.1-4.17c-2.59-2.44-5.11-4.49-6.7-7.75C13,24.13,11.93,20.33,13,17.58c.52-1.37-1.38-2.23-2.32-1.35Z" transform="translate(42.64 12.9)"/></g><g class="cls-12"><path class="cls-13" d="M28.47,54.46c.18-1.69,2.55-3.07,3.79-3.93,2.27-1.58,4.61-2.32,5.61-5.14a3,3,0,0,0-2.09-3.69C32.11,40.6,29,44,27,46.66c-1.84,2.4-3.34,5.28-2.72,8.37.51,2.57,4,1.66,4.22-.57Z" transform="translate(42.64 12.9)"/></g><g class="cls-12"><path class="cls-13" d="M61.08,28.21c-2.71,2.72-5.23,4.79-9,5.75-4.1,1-8.48,1.18-12.65,1.76-8.11,1.12-20.66,5.94-18.16,16.47a3.6,3.6,0,0,0,6,1.57c2.84-2.78,4-5.48,7.4-7.19,3.07-1.52,7.73-2.19,11.4-3C53.3,42,63.44,38.07,63.69,29.29a1.54,1.54,0,0,0-2.61-1.08Z" transform="translate(42.64 12.9)"/></g><g class="cls-12"><path class="cls-13" d="M35.46,63.59c4.22-4.39,10.23-.39,15-2.47,2.34-1,2.67-4.81.83-6.41-5-4.35-21-.33-18.4,8.21a1.55,1.55,0,0,0,2.56.67Z" transform="translate(42.64 12.9)"/></g><g class="cls-12"><path class="cls-13" d="M5.48,31.71a33,33,0,0,0,.59,4.84,10.27,10.27,0,0,1,0,1.84c0-1-.3.12-.54.53a5.8,5.8,0,0,0,2.06,7.86,5.79,5.79,0,0,0,8.43-3.43c1.49-5.61-2.61-9-5.52-13-1.49-2.08-5.1-1.53-5.07,1.37Z" transform="translate(42.64 12.9)"/></g><g class="cls-12"><path class="cls-13" d="M10.47,29.9c0-.29,0-.58,0-.87a2.14,2.14,0,0,0-.15-.83.34.34,0,0,0-.65,0,2.14,2.14,0,0,0-.15.83c0,.29,0,.58,0,.87a.46.46,0,0,0,.91,0Z" transform="translate(42.64 12.9)"/></g><g class="cls-12"><path class="cls-13" d="M10.59,42a4.39,4.39,0,0,1-.21.79c-.07.27-.13.54-.19.81,0,0,.05.05.05,0,0-.24.09-.47.14-.7a3.17,3.17,0,0,1,.26-.91s-.05-.06-.05,0Z" transform="translate(42.64 12.9)"/></g><g class="cls-12"><path class="cls-13" d="M7.43,35.46a21.55,21.55,0,0,1,.79,6.92,1.4,1.4,0,0,0,2.59.7c1.82-2.93.39-5.84-1.15-8.56a1.23,1.23,0,0,0-2.23.94Z" transform="translate(42.64 12.9)"/></g><g class="cls-12"><path class="cls-13" d="M17.06,14.07c5.8.65,10,3.91,13.89,8,.45.46,1.25-.14.89-.68a19.89,19.89,0,0,0-14.78-8.65c-.88-.09-.86,1.26,0,1.36Z" transform="translate(42.64 12.9)"/></g><g class="cls-12"><path class="cls-13" d="M41,5c2,2.38,5.68,3.33,8.22,5,3.5,2.35,4.71,5.66,6.53,9.23.81,1.59,2.91.66,3.06-.83.4-4.16-2.57-8-5.75-10.34-3-2.19-7.92-5.23-11.77-4.18A.66.66,0,0,0,41,5Z" transform="translate(42.64 12.9)"/></g><g class="cls-12"><path class="cls-13" d="M66.39,52.38C71,52.13,76.84,50,78.82,45.44c.37-.84-.67-1.88-1.38-1.06-3,3.41-6.42,6-11,6.52-.92.12-1,1.53,0,1.48Z" transform="translate(42.64 12.9)"/></g><path class="cls-14" d="M67.18,29c-5.12-3.52-14-4.24-19-.12-3.86,3.16-4.85,7.32-4.65,11.56.19,4,1.28,8,2.18,11.88,1.19,5.23.76,22.17,4.6,22.46,11.29.86,19-15.21,20.72-24.79C72.26,43.15,74.86,34.25,67.18,29Zm-3.76,9.41c0-.09,0-.18,0-.27a1.63,1.63,0,0,0,0,.24Z" transform="translate(42.64 12.9)"/><path class="cls-15" d="M65.24,32.51c-3.69-3.26-10.07-3.93-13.7-.11-2.79,2.94-3.5,6.8-3.35,10.73a79.1,79.1,0,0,0,1.57,11c.86,4.85.55,20.57,3.32,20.85,8.14.79,13.72-14.13,15-23C68.91,45.67,70.79,37.41,65.24,32.51Zm-2.71,8.74c0-.08,0-.17,0-.25a1.55,1.55,0,0,0,0,.23Z" transform="translate(42.64 12.9)"/><path class="cls-15" d="M62.94,44.25c-2.41-2.13-6.57-2.57-8.94-.07-1.83,1.92-2.29,4.44-2.2,7a53.12,53.12,0,0,0,1,7.2c.56,3.17.36,13.44,2.17,13.62,5.32.52,9-9.23,9.76-15C65.33,52.84,66.56,47.45,62.94,44.25ZM61.17,50a1,1,0,0,1,0-.17V50Z" transform="translate(42.64 12.9)"/><path class="cls-16" d="M53.73,25.61c3.39,7.52,3.54,15.09,3.16,23.19A101.7,101.7,0,0,0,56.83,60c.25,4.09.54,7.45-1.86,11-1,1.47,1.36,3.3,2.46,1.9a14.22,14.22,0,0,0,2.93-9.08c0-4.66-.47-9.32-.4-14,.12-8.64,0-17.48-5.07-24.87a.67.67,0,0,0-1.16.68Z" transform="translate(42.64 12.9)"/><path class="cls-16" d="M34.28,29.9c0,4.92,2.91,7.77,7.07,10,3.26,1.74,6.83,2.87,9.51,5.53,2.08,2,3.51,4.52,6.18,5.89a.56.56,0,0,0,.57-1c-3.89-2.94-6.1-6.93-10.57-9.2-5.21-2.63-12-4.34-12.57-11.25,0-.13-.2-.13-.19,0Z" transform="translate(42.64 12.9)"/><path class="cls-16" d="M76.14,25.38c2.73,2.42,1,7.3-1.42,9-2.13,1.47-4.4,2.43-6.33,4.22-2.08,1.94-2.93,4.6-4.48,6.9-1.68,2.48-4.39,4.06-6,6.61a.68.68,0,0,0,1.06.83c2.6-2.45,5.41-5.14,7.19-8.26a23.08,23.08,0,0,1,3.24-5A20.75,20.75,0,0,1,74.77,36c2.22-1.24,3.7-3,3.81-5.58.08-1.83-.43-4.49-2.25-5.33-.15-.08-.34.12-.19.25Z" transform="translate(42.64 12.9)"/><path class="cls-16" d="M23.88,48.81c-1.47,2.56-.63,5.31.7,7.75,1.52,2.78,4.31,3.92,7.3,4.39A20.07,20.07,0,0,0,42.37,59.5c2.59-1,4.94-1.71,7.75-1,1.84.45,3.46,1.35,5.39,1.27a.67.67,0,0,0,.18-1.32,30.63,30.63,0,0,0-8-2c-3.22-.16-6.33,1.87-9.35,2.71A18.2,18.2,0,0,1,29.08,59c-3.86-1.11-6.34-6.43-5.15-10.13a0,0,0,0,0-.05,0Z" transform="translate(42.64 12.9)"/><path class="cls-16" d="M77.82,42.45c1.06,5.52-5,9.55-9.16,11.76C65.36,56,60.75,58,59.4,61.76a.57.57,0,0,0,.94.54,26.25,26.25,0,0,1,6.81-5.64A42.8,42.8,0,0,0,73.36,53c3-2.41,7.16-6.66,4.92-10.79-.14-.26-.51-.07-.46.2Z" transform="translate(42.64 12.9)"/><path class="cls-16" d="M36.62,69.16c-.31,3.26,5.82,3.09,7.76,3A12.46,12.46,0,0,0,49,71.08c2.55-1.1,6.2-3.73,9.09-2.5.48.21,1.09-.39.61-.79-2.6-2.14-6.59.46-9,1.71-2.72,1.37-11.26,3.8-12.69-.39a.17.17,0,0,0-.33,0Z" transform="translate(42.64 12.9)"/><path class="cls-16" d="M72.82,59.77a17.57,17.57,0,0,1-9.07,7.49c-1.36.46-4.31-.27-4.85,1.52-.16.53.34.89.82.82,6.1-1,10.76-3.84,13.52-9.58a.24.24,0,0,0-.42-.25Z" transform="translate(42.64 12.9)"/><g class="cls-17"><path class="cls-18" d="M36.77,32.89c1.31,3.54,4.07,5.38,7.39,6.93,1.71.8,3.56,1.34,5.24,2.18,1.85.92,1.72,3.23,4.11,3.76,1.28.28,3-.64,2.85-2.17-1.13-9.5-13.61-5.44-18.5-11.33a.65.65,0,0,0-1.09.63Z" transform="translate(42.64 12.9)"/></g><g class="cls-17"><path class="cls-18" d="M62.47,29.29c.61-1.91,2.53-2.88,4.28-3.54,1.46-.56,3.13-.46,4.53-1.1a.92.92,0,0,0,0-1.59c-1.89-.84-4.42.32-6.14,1.16a7.32,7.32,0,0,0-4.09,4.68.74.74,0,0,0,1.42.39Z" transform="translate(42.64 12.9)"/></g><g class="cls-17"><path class="cls-18" d="M14.44,61.68a3.4,3.4,0,0,1-1.61.19c-.05,0-.05.08,0,.08a3.32,3.32,0,0,0,1.62-.22s0-.06,0,0Z" transform="translate(42.64 12.9)"/></g><g class="cls-17"><path class="cls-18" d="M12.53,61.6c1.51,1.52,3.63,1.86,5.68,2,3.52.34,6.26-.11,9.6,1.43.62.28,1.35-.49.77-1C24,60,17.67,64.53,13.13,61c-.42-.32-1,.21-.6.6Z" transform="translate(42.64 12.9)"/></g><g class="cls-17"><path class="cls-18" d="M35.37,11.34a65.69,65.69,0,0,1,7.27,3.51c3.09,1.8,4.91,4.32,6.78,7.26a.53.53,0,0,0,1-.41c-1.9-6.35-9-9.17-14.68-11.14-.46-.15-.77.59-.33.78Z" transform="translate(42.64 12.9)"/></g><path class="cls-16" d="M18.71,8.3c2.87-1.18,5.92-1.13,9-1.16,3.21,0,6.39-.2,9.6.08,6.44.56,11.62,3.66,14.28,9.58.19.42.78.11.7-.29-1.15-5.89-7.43-8.79-12.74-9.84-3.88-.77-7.92-.41-11.84-.29-3.16.09-6.26.07-9.08,1.65-.15.08-.05.33.11.27Z" transform="translate(42.64 12.9)"/><path class="cls-16" d="M39.26,33.12a8.12,8.12,0,0,0,.93,5c.15.24.56.08.47-.2a21.64,21.64,0,0,1-1.1-4.76.15.15,0,0,0-.3,0Z" transform="translate(42.64 12.9)"/><path class="cls-16" d="M38,41.4c2,.1,4.37.32,6.16-.62a.24.24,0,0,0-.12-.45c-2,.06-4,.86-6,1,0,0,0,.06,0,.06Z" transform="translate(42.64 12.9)"/><path class="cls-16" d="M73.49,32.46c.81.94.28,1.91-.47,2.66-.19.2,0,.62.29.5a2,2,0,0,0,.43-3.48c-.2-.15-.39.15-.25.32Z" transform="translate(42.64 12.9)"/><path class="cls-16" d="M33.34,56.77a40,40,0,0,0,4.1.36,9.19,9.19,0,0,1,4.62,2c.26.18.65-.19.45-.46-2-2.75-6.11-2.77-9.17-2.14a.1.1,0,0,0,0,.19Z" transform="translate(42.64 12.9)"/><path class="cls-16" d="M74.36,45.8c-.21,1.75-2.11,4.1-1,5.8.17.26.63.18.61-.16a9.91,9.91,0,0,1,.26-3,8.31,8.31,0,0,0,.3-2.67.08.08,0,0,0-.16,0Z" transform="translate(42.64 12.9)"/><path class="cls-16" d="M43.45,70c-.09,0,.5.37.51.37a12.55,12.55,0,0,0,1.29.48,5.38,5.38,0,0,0,2.5.4c.33,0,.29-.54,0-.63-.88-.24-1.76-.52-2.64-.74a10.51,10.51,0,0,0-1.22-.24c-.25,0-.31.12-.49.23a.07.07,0,0,0,.05.13Z" transform="translate(42.64 12.9)"/><path class="cls-16" d="M41,7.87a19.26,19.26,0,0,1,.9,1.75c.53,1.3-.36,1.58-.59,2.47a3.27,3.27,0,0,0,.05,2.14c.59,1.7,2.52,3,3.58,4.36.21.27.75.13.61-.26-.71-1.91-2.81-2.84-3.52-4.75-.31-.82.64-2.45.68-3.42a4.32,4.32,0,0,0-1.35-2.57c-.17-.2-.48.06-.36.28Z" transform="translate(42.64 12.9)"/><path class="cls-16" d="M31.86,6.31a2.42,2.42,0,0,0,3-.23c.73-.51,1.3-1.18,2-1.67,1.53-1,3.34-.79,5-.38a.31.31,0,0,0,.24-.57,5.91,5.91,0,0,0-4.45-.31C35.57,3.71,34.38,6.38,32,6a.2.2,0,0,0-.15.36Z" transform="translate(42.64 12.9)"/><path class="cls-16" d="M11.88,15.2c.41,4.11,4.75,9,8.91,9.6a.35.35,0,0,0,.19-.67c-3.84-1.33-8.12-4.74-8.81-9,0-.16-.31-.13-.29,0Z" transform="translate(42.64 12.9)"/><path class="cls-19" d="M28.77,50.05c1-2.36,3.5-3.33,5.85-3.88.22-.05.12-.36-.09-.33-2.43.37-4.93,1.79-5.83,4.18,0,0,.05.06.07,0Z" transform="translate(42.64 12.9)"/><path class="cls-19" d="M70.34,58.21a3.35,3.35,0,0,0,3.6-.6,15.33,15.33,0,0,0,3.5-4.14c.26-.46-.32-.82-.69-.53-2,1.59-3,5.7-6.3,5-.15,0-.27.2-.11.27Z" transform="translate(42.64 12.9)"/><path class="cls-19" d="M71.79,24.17A6.32,6.32,0,0,1,74.2,25.9c.27.24.76-.08.53-.4-.72-1-1.63-1.86-2.94-1.55a.11.11,0,0,0,0,.22Z" transform="translate(42.64 12.9)"/><path class="cls-19" d="M13.73,60.48c1.8,1,3.75.79,5.75.71a.29.29,0,0,0,0-.58c-1.89-.25-3.73.33-5.53-.5-.25-.11-.46.23-.22.37Z" transform="translate(42.64 12.9)"/><path class="cls-19" d="M48.13,73.42c4.18,2.39,8.34,3.81,12.47.42.61-.5-.17-1.28-.78-1-1.9.84-3.5,1.77-5.63,1.84-2,0-4-1-5.78-1.73-.32-.13-.6.3-.28.48Z" transform="translate(42.64 12.9)"/><path class="cls-19" d="M58.61,74.07c1.06-.2,1.54-1,2.1-1.82,1-1.56,2.42-1.57,4-2.18a.53.53,0,0,0-.15-1,5.24,5.24,0,0,0-3.46,1.07,5.17,5.17,0,0,0-1.33,1.61,3.73,3.73,0,0,1-1.39,1.83c-.31.16-.09.58.22.53Z" transform="translate(42.64 12.9)"/><path class="cls-19" d="M52.44,8.65a9.59,9.59,0,0,1,3.5,5,.19.19,0,0,0,.36-.1,8.06,8.06,0,0,0-3.75-5.08c-.12-.07-.22.11-.11.19Z" transform="translate(42.64 12.9)"/><path class="cls-20" d="M57.45,32.09c1.92,6.12,1.2,12.67,1.46,19a61.29,61.29,0,0,1-.18,9c-.34,3.33-1.79,6.86-1.51,10.18a.71.71,0,0,0,1.32.36c1.52-2.62,1.73-6.14,2.15-9.11a51.11,51.11,0,0,0,.2-10.42c-.4-6.41-.31-13.24-2.91-19.23-.13-.3-.63-.08-.53.23Z" transform="translate(42.64 12.9)"/><path class="cls-20" d="M50.66,44a25.61,25.61,0,0,1,3.06,3.1,26.23,26.23,0,0,0,2.83,3.29c.31.27.86-.08.6-.46a28.2,28.2,0,0,0-6.28-6.2c-.16-.11-.35.15-.21.27Z" transform="translate(42.64 12.9)"/><path class="cls-20" d="M64.24,45.17a20.1,20.1,0,0,0,2.06-3.1,21.78,21.78,0,0,1,2.59-3.53.41.41,0,0,0-.5-.64c-2.47,1.48-3,4.81-4.3,7.15-.06.09.08.21.15.12Z" transform="translate(42.64 12.9)"/><path class="cls-20" d="M64.91,56.68a17.84,17.84,0,0,0,3.23-1.57.29.29,0,0,0-.22-.52,11.21,11.21,0,0,0-3.1,1.89.11.11,0,0,0,.09.2Z" transform="translate(42.64 12.9)"/><path class="cls-20" d="M53.42,58.27c1.89.56,4.13,2.57,6.16,1.53a.48.48,0,0,0-.12-.86,22.79,22.79,0,0,1-3-.47,15.58,15.58,0,0,0-3-.78c-.34,0-.39.49-.08.58Z" transform="translate(42.64 12.9)"/><path class="cls-20" d="M58.31,67.94c.3.43.89.34,1.36.32a6.68,6.68,0,0,0,2-.42c.52-.18.48-1.09-.14-1s-1.25.1-1.87.22c-.44.09-1.12.07-1.37.51a.39.39,0,0,0,0,.38Z" transform="translate(42.64 12.9)"/><path class="cls-20" d="M28.23,6.74c1.87-.06,3.81-.64,5.41.63,1,.8,1.64,1.78,3,2a.35.35,0,0,0,.27-.63C35.6,8,34.48,6.42,33,5.94a6,6,0,0,0-4.86.62c-.08.05-.05.19.05.18Z" transform="translate(42.64 12.9)"/><path class="cls-20" d="M17.73,21.32c1.05,1.6,3.34,2.35,5.17,2.43a.3.3,0,0,0,.08-.58c-1.63-.34-3.8-.81-5-2-.13-.12-.35,0-.25.19Z" transform="translate(42.64 12.9)"/><path class="cls-20" d="M61.68,60.31c1.27-.83,2.43-1.82,3.72-2.62a.24.24,0,0,0-.24-.42,22.49,22.49,0,0,0-3.73,2.61c-.25.19,0,.61.25.43Z" transform="translate(42.64 12.9)"/><path class="cls-20" d="M51.52,69.38A7.14,7.14,0,0,1,56,67.84a.29.29,0,0,0,.14-.54c-1.74-.8-3.73.47-5,1.67-.21.2.07.59.32.41Z" transform="translate(42.64 12.9)"/></g></g></g></svg>