<svg xmlns="http://www.w3.org/2000/svg" viewBox="0 0 87.68 68.31"><defs><style>.cls-1{fill:#f4b12c;}.cls-2{fill:#ffd77d;}.cls-3{fill:#ed2b2b;}.cls-4{fill:#fff;}.cls-5{fill:#ff4343;}.cls-6,.cls-8{fill:#ff9797;}.cls-7{fill:#ffe3a6;}.cls-8{opacity:0.5;}</style></defs><g id="Слой_2" data-name="Слой 2"><g id="Layer_1" data-name="Layer 1"><ellipse class="cls-1" cx="43.84" cy="44.99" rx="43.84" ry="23.32"/><rect class="cls-1" y="42.25" width="3.31" height="3.31"/><rect class="cls-1" x="84.37" y="41.97" width="3.31" height="3.31"/><ellipse class="cls-2" cx="43.84" cy="42.52" rx="43.84" ry="23.32"/><path class="cls-3" d="M51.77,22.41a68.58,68.58,0,0,0-15.86,0H6.44V41.85c0,11,16.74,19.9,37.4,19.9s37.41-8.91,37.41-19.9V22.41Z"/><path class="cls-4" d="M43.84,52.93C23.18,52.93,6.44,44,6.44,33v5.42c0,11,16.74,19.9,37.4,19.9s37.41-8.91,37.41-19.9V33C81.25,44,64.5,52.93,43.84,52.93Z"/><path class="cls-4" d="M43.84,45c-20.66,0-37.4-8.91-37.4-19.9V30.5c0,11,16.74,19.89,37.4,19.89s37.41-8.9,37.41-19.89V25.07C81.25,36.06,64.5,45,43.84,45Z"/><ellipse class="cls-5" cx="43.84" cy="22.41" rx="37.41" ry="19.9"/><ellipse class="cls-6" cx="43.84" cy="21.95" rx="33.21" ry="17.66"/><path class="cls-3" d="M59.81,1.19c-4.1-.19-5.46,2.37-6,4.33s-.77,5.11.55,6.19,7-.06,9.08-3.35S62.55,1.31,59.81,1.19Z"/><path class="cls-3" d="M37,14.71c-4.1-.19-5.46,2.37-6,4.32s-.76,5.12.55,6.2,7-.07,9.08-3.35S39.76,14.83,37,14.71Z"/><path class="cls-3" d="M46.57,12.7c2-2.42,4.58-2.67,7.33.32,2.46,2.68,4.24,6.51,2.7,7.63s-5.86.88-8.76-.6C44.43,18.31,43.93,15.86,46.57,12.7Z"/><path class="cls-3" d="M15,11c4.11-.18,5.47,2.38,6,4.33s.76,5.12-.56,6.19-7-.06-9.08-3.35S12.26,11.17,15,11Z"/><path class="cls-3" d="M34.5,29.3a25.3,25.3,0,0,0-3.19,4c-.93,1.69-1.07,4.1,2.26,5.48s7-1.13,6.25-4.06a12.92,12.92,0,0,0-2.73-5.4C36.16,28.18,35.37,28.36,34.5,29.3Z"/><path class="cls-3" d="M36,5.15c-.17-3.46,2.27-5.75,5.21-5a4.44,4.44,0,0,1,3.47,5.2c-.41,1.85-.48,5.71-1.81,6s-2.32-1-3.39-1.85S36.09,7.36,36,5.15Z"/><path class="cls-3" d="M73.62,15c1.17-3.25-.5-6.15-3.52-6.31a4.43,4.43,0,0,0-4.83,4c-.15,1.89-1.22,5.6,0,6.24s2.53-.31,3.78-.78S72.87,17.06,73.62,15Z"/><path class="cls-4" d="M15.62,16.94a14.58,14.58,0,0,1-2.44,3.42c-2,2.35-1.11,4.31.76,5.26s4.18-.18,4.52-1C20.46,20.16,17.19,18.79,15.62,16.94Z"/><path class="cls-7" d="M16.13,18.48a10.38,10.38,0,0,1,1.31,3.93,7.33,7.33,0,0,1-.88,3.43s4.28-.2,2.52-3.68A9.49,9.49,0,0,0,16.13,18.48Z"/><path class="cls-7" d="M15.56,18.48A18.74,18.74,0,0,1,14,22c-.41.65-.57.84-2,1.35A1.16,1.16,0,0,0,13,25c.68,0,1.53-.91,2.11-1.94A6,6,0,0,0,15.56,18.48Z"/><path class="cls-4" d="M34.33,2.51a14.5,14.5,0,0,1-2.45,3.42c-2,2.35-1.1,4.31.76,5.26s4.19-.17,4.53-1C39.17,5.73,35.9,4.36,34.33,2.51Z"/><path class="cls-7" d="M34.84,4.06A10.17,10.17,0,0,1,36.14,8a7.31,7.31,0,0,1-.87,3.44s4.28-.21,2.52-3.68A9.38,9.38,0,0,0,34.84,4.06Z"/><path class="cls-7" d="M34.27,4.06a19,19,0,0,1-1.56,3.47c-.41.64-.57.84-2,1.34a1.15,1.15,0,0,0,.93,1.65c.68,0,1.53-.91,2.1-1.94A6,6,0,0,0,34.27,4.06Z"/><path class="cls-4" d="M48.94,1.15A14.32,14.32,0,0,1,46.5,4.57c-2,2.36-1.11,4.32.76,5.26s4.18-.17,4.52-.95C53.78,4.37,50.51,3,48.94,1.15Z"/><path class="cls-7" d="M49.45,2.7a10.37,10.37,0,0,1,1.31,3.92,7.35,7.35,0,0,1-.88,3.44s4.28-.21,2.52-3.68A9.49,9.49,0,0,0,49.45,2.7Z"/><path class="cls-7" d="M48.88,2.7a18.74,18.74,0,0,1-1.56,3.47c-.41.65-.57.84-2,1.35a1.14,1.14,0,0,0,.93,1.64c.68,0,1.53-.91,2.11-1.93A6,6,0,0,0,48.88,2.7Z"/><path class="cls-4" d="M47.41,15.28A14.32,14.32,0,0,1,45,18.7c-2,2.36-1.1,4.32.76,5.27s4.18-.18,4.53-1C52.25,18.51,49,17.14,47.41,15.28Z"/><path class="cls-7" d="M47.93,16.83a10.25,10.25,0,0,1,1.3,3.92,7.27,7.27,0,0,1-.87,3.44s4.27-.21,2.52-3.68A9.49,9.49,0,0,0,47.93,16.83Z"/><path class="cls-7" d="M47.36,16.83A19.51,19.51,0,0,1,45.8,20.3c-.41.65-.58.84-2,1.35a1.14,1.14,0,0,0,.93,1.64c.68,0,1.53-.9,2.1-1.93A6,6,0,0,0,47.36,16.83Z"/><path class="cls-4" d="M60.89,22.41a14.58,14.58,0,0,1-2.44,3.42c-2,2.35-1.1,4.31.76,5.26s4.18-.18,4.53-1C65.73,25.63,62.47,24.26,60.89,22.41Z"/><path class="cls-7" d="M61.4,24a10.38,10.38,0,0,1,1.31,3.93,7.25,7.25,0,0,1-.87,3.43s4.27-.2,2.52-3.68A9.55,9.55,0,0,0,61.4,24Z"/><path class="cls-7" d="M60.83,24a19.15,19.15,0,0,1-1.55,3.47c-.42.65-.58.84-2,1.35a1.16,1.16,0,0,0,.94,1.65c.68,0,1.53-.91,2.1-1.94A6,6,0,0,0,60.83,24Z"/><path class="cls-4" d="M69.78,14.55A14.58,14.58,0,0,1,67.34,18c-2,2.35-1.1,4.31.76,5.26s4.18-.17,4.53-.95C74.62,17.77,71.35,16.4,69.78,14.55Z"/><path class="cls-7" d="M70.29,16.1A10.3,10.3,0,0,1,71.6,20a7.45,7.45,0,0,1-.87,3.44s4.27-.21,2.51-3.68A9.38,9.38,0,0,0,70.29,16.1Z"/><path class="cls-7" d="M69.72,16.1a18.74,18.74,0,0,1-1.56,3.47c-.41.64-.57.84-2,1.35a1.15,1.15,0,0,0,.93,1.64c.69,0,1.53-.91,2.11-1.94A6,6,0,0,0,69.72,16.1Z"/><path class="cls-4" d="M59.85,7.58A15,15,0,0,1,57.4,11c-2,2.35-1.1,4.31.76,5.26s4.19-.17,4.53-1C64.69,10.8,61.42,9.43,59.85,7.58Z"/><path class="cls-7" d="M60.36,9.13a10.17,10.17,0,0,1,1.3,3.92,7.31,7.31,0,0,1-.87,3.44s4.28-.21,2.52-3.68A9.38,9.38,0,0,0,60.36,9.13Z"/><path class="cls-7" d="M59.79,9.13a19,19,0,0,1-1.56,3.47c-.41.64-.58.84-2,1.34a1.15,1.15,0,0,0,.93,1.65c.68,0,1.53-.91,2.1-1.94A6,6,0,0,0,59.79,9.13Z"/><path class="cls-4" d="M39.47,19.81A14.58,14.58,0,0,1,37,23.23c-2,2.35-1.1,4.31.76,5.26s4.18-.18,4.53-1C44.31,23,41.05,21.66,39.47,19.81Z"/><path class="cls-7" d="M40,21.35a10.25,10.25,0,0,1,1.3,3.93,7.25,7.25,0,0,1-.87,3.43s4.27-.2,2.52-3.68A9.49,9.49,0,0,0,40,21.35Z"/><path class="cls-7" d="M39.42,21.35a19.51,19.51,0,0,1-1.56,3.47c-.41.65-.58.84-2,1.35a1.15,1.15,0,0,0,.93,1.65c.68,0,1.53-.91,2.1-1.94A6,6,0,0,0,39.42,21.35Z"/><path class="cls-3" d="M49.26,29.29c.17-3.45-2.27-5.74-5.2-5a4.43,4.43,0,0,0-3.47,5.2c.41,1.85.47,5.71,1.8,6s2.33-1,3.39-1.84S49.16,31.51,49.26,29.29Z"/><path class="cls-4" d="M48.47,29A14.58,14.58,0,0,1,46,32.43c-2,2.35-1.11,4.31.76,5.26s4.18-.18,4.52-1C53.31,32.23,50,30.86,48.47,29Z"/><path class="cls-7" d="M49,30.55a10.38,10.38,0,0,1,1.31,3.93,7.33,7.33,0,0,1-.88,3.43s4.28-.2,2.52-3.68A9.49,9.49,0,0,0,49,30.55Z"/><path class="cls-7" d="M48.41,30.55A19,19,0,0,1,46.85,34c-.41.64-.57.84-2,1.34A1.16,1.16,0,0,0,45.81,37c.68,0,1.53-.91,2.11-1.94A6,6,0,0,0,48.41,30.55Z"/><path class="cls-3" d="M25.86,24.28c-2-2.43-4.57-2.67-7.32.32-2.46,2.68-4.24,6.51-2.71,7.63s5.86.88,8.76-.61C28,29.88,28.51,27.44,25.86,24.28Z"/><path class="cls-4" d="M26.58,25.84a14.32,14.32,0,0,1-2.44,3.42c-2,2.36-1.1,4.32.76,5.27s4.18-.18,4.53-1C31.42,29.06,28.15,27.7,26.58,25.84Z"/><path class="cls-7" d="M27.09,27.39a10.37,10.37,0,0,1,1.31,3.92,7.4,7.4,0,0,1-.87,3.44s4.27-.21,2.51-3.68A9.49,9.49,0,0,0,27.09,27.39Z"/><path class="cls-7" d="M26.52,27.39A18.74,18.74,0,0,1,25,30.86c-.41.65-.57.84-2,1.35a1.15,1.15,0,0,0,.93,1.64c.69,0,1.53-.91,2.11-1.93A6,6,0,0,0,26.52,27.39Z"/><path class="cls-3" d="M22.66,5.73c2-2.43,4.58-2.67,7.33.31,2.46,2.68,4.24,6.52,2.7,7.64s-5.86.87-8.76-.61C20.52,11.33,20,8.89,22.66,5.73Z"/><path class="cls-3" d="M53.62,29.07a13.22,13.22,0,0,1,4.85-.16c2.67.37,4.9,1.24,5.75,3s1.22,3.61-.84,5.23-6.93,1.8-8.81-.94a14.26,14.26,0,0,1-2.51-5.35C51.88,30,52.5,29.37,53.62,29.07Z"/><path class="cls-3" d="M74.7,19.21c-4.11-.18-5.47,2.38-6,4.33s-.76,5.11.56,6.19,7-.06,9.08-3.35S77.44,19.34,74.7,19.21Z"/><path class="cls-4" d="M26.67,10.18a14.45,14.45,0,0,1-2.44,3.41c-2,2.36-1.1,4.32.76,5.27s4.18-.18,4.53-1C31.51,13.4,28.25,12,26.67,10.18Z"/><path class="cls-7" d="M27.18,11.72a10.37,10.37,0,0,1,1.31,3.92,7.4,7.4,0,0,1-.87,3.44s4.27-.2,2.51-3.68A9.49,9.49,0,0,0,27.18,11.72Z"/><path class="cls-7" d="M26.61,11.72a18.74,18.74,0,0,1-1.56,3.47c-.41.65-.57.84-2,1.35A1.16,1.16,0,0,0,24,18.19c.68,0,1.52-.91,2.1-1.94A6,6,0,0,0,26.61,11.72Z"/><path class="cls-6" d="M10.66,35.92,9.7,37s.53,1.28,1.5,1.51A2.22,2.22,0,0,0,13,38.05Z"/><polygon class="cls-6" points="12.78 40.42 15.37 39.48 15.09 41.67 12.78 40.42"/><path class="cls-6" d="M7.57,31.75a5.67,5.67,0,0,0,0,2.48c.61,1.25,2.13,0,2.13,0Z"/><polygon class="cls-6" points="17.77 40.18 16.09 41.97 17.77 43.76 20.46 41.97 17.77 40.18"/><polygon class="cls-6" points="42.27 45.85 40.59 47.64 42.27 49.44 44.95 47.65 42.27 45.85"/><polygon class="cls-6" points="21.95 42.52 20.98 44.25 23.89 44.25 21.95 42.52"/><polygon class="cls-6" points="23.89 46.29 26.18 44.46 27.3 46.94 23.89 46.29"/><path class="cls-6" d="M28.53,46.63l2.93-2.12s1.23.49,1,1.45a6.43,6.43,0,0,1-.94,2Z"/><path class="cls-6" d="M50.36,47.32l2.92-2.12s1.24.49,1,1.45a6.46,6.46,0,0,1-.95,2Z"/><polygon class="cls-6" points="34.76 46.08 33.07 48.24 35.94 48.83 34.76 46.08"/><polygon class="cls-6" points="47.85 46.27 46.16 48.43 49.02 49.02 47.85 46.27"/><polygon class="cls-6" points="38.66 45.67 36.8 46.7 38.8 48.21 38.66 45.67"/><polygon class="cls-6" points="79.94 31.75 77.95 34.75 79.94 34.23 79.94 31.75"/><polygon class="cls-6" points="76.26 35.92 77.05 38.3 78.94 35.92 76.26 35.92"/><path class="cls-6" d="M72,39.48s1.45-1.78,2.51-1.57.62,2.12.62,2.12Z"/><path class="cls-6" d="M70,40.39s-.26,2.36,1.16,2.13a4.77,4.77,0,0,0,2.47-1.38Z"/><polygon class="cls-6" points="65.72 42.45 66.06 45.28 68.29 43.62 65.72 42.45"/><path class="cls-6" d="M63.32,42.92a8.22,8.22,0,0,0-2.49,2.28c-.52,1.09,2.9,1.07,2.9,1.07Z"/><polygon class="cls-6" points="57.3 44.84 55.43 47.65 59.79 47.45 57.3 44.84"/><path class="cls-6" d="M10.66,44l-1,1.1s.53,1.28,1.5,1.51A2.18,2.18,0,0,0,13,46.13Z"/><polygon class="cls-6" points="12.78 48.51 15.37 47.56 15.09 49.76 12.78 48.51"/><path class="cls-6" d="M7.57,39.83a5.71,5.71,0,0,0,0,2.49c.61,1.24,2.13,0,2.13,0Z"/><polygon class="cls-6" points="17.77 48.26 16.09 50.05 17.77 51.84 20.46 50.05 17.77 48.26"/><polygon class="cls-6" points="42.27 53.94 40.59 55.72 42.27 57.52 44.95 55.73 42.27 53.94"/><polygon class="cls-6" points="21.95 50.6 20.98 52.33 23.89 52.33 21.95 50.6"/><polygon class="cls-6" points="23.89 54.37 26.18 52.54 27.3 55.02 23.89 54.37"/><path class="cls-6" d="M28.53,54.72l2.93-2.12s1.23.49,1,1.44a6.54,6.54,0,0,1-.94,2Z"/><path class="cls-6" d="M50.36,55.41l2.92-2.12s1.24.49,1,1.44a6.46,6.46,0,0,1-.95,2Z"/><polygon class="cls-6" points="34.76 54.16 33.07 56.32 35.94 56.91 34.76 54.16"/><polygon class="cls-6" points="47.85 54.35 46.16 56.51 49.02 57.1 47.85 54.35"/><polygon class="cls-6" points="38.66 53.75 36.8 54.78 38.8 56.29 38.66 53.75"/><polygon class="cls-6" points="79.94 39.83 77.95 42.83 79.94 42.32 79.94 39.83"/><polygon class="cls-6" points="76.26 44 77.05 46.38 78.94 44 76.26 44"/><path class="cls-6" d="M72,47.56s1.45-1.78,2.51-1.56.62,2.11.62,2.11Z"/><path class="cls-6" d="M70,48.47s-.26,2.36,1.16,2.13a4.79,4.79,0,0,0,2.47-1.37Z"/><polygon class="cls-6" points="65.72 50.54 66.06 53.36 68.29 51.71 65.72 50.54"/><path class="cls-6" d="M63.32,51a8.16,8.16,0,0,0-2.49,2.29c-.52,1.08,2.9,1.06,2.9,1.06Z"/><polygon class="cls-6" points="57.3 52.92 55.43 55.73 59.79 55.54 57.3 52.92"/><path class="cls-8" d="M25.68,5c-1.35.33-1.05.94,1.71,2.83a36.09,36.09,0,0,0,3.94,2.46A4.91,4.91,0,0,0,29.4,6.94C27.49,5.33,26.69,4.79,25.68,5Z"/><path class="cls-8" d="M40,.69c-1.3.59-.17,1.76.51,3C41.77,5.87,42.77,8,42.77,8a6.39,6.39,0,0,0,0-4.68C42.1,1.16,41.19.14,40,.69Z"/><path class="cls-8" d="M58.08,2.25C57,2.37,56,4,55.43,5.16A12.59,12.59,0,0,0,55,9.11s2.09-3,3.09-4.32S59.48,2.08,58.08,2.25Z"/><path class="cls-8" d="M35.36,16.35c-1,.12-2.11,1.77-2.64,2.92a12.59,12.59,0,0,0-.44,3.95s2.09-3,3.08-4.33S36.76,16.19,35.36,16.35Z"/><path class="cls-8" d="M73.07,20.53c-1,.12-2.11,1.76-2.64,2.91A12.59,12.59,0,0,0,70,27.39s2.09-3,3.08-4.33S74.47,20.36,73.07,20.53Z"/><path class="cls-8" d="M50.36,12.1c-1.23.46-1,1.23.78,2.6l4.29,3.23s.23-1.84-2-4.07C51.93,12.4,51.06,11.84,50.36,12.1Z"/><path class="cls-8" d="M17.36,12.46c-1.32,0-1.42.77-.23,2.7L20,19.74s.88-1.63-.4-4.53C18.7,13.3,18.11,12.47,17.36,12.46Z"/><path class="cls-8" d="M54.35,30.12s3.54,1.2,5.44,2,2.6-1,.23-1.74A15.12,15.12,0,0,0,54.35,30.12Z"/><path class="cls-8" d="M20.46,24a12.23,12.23,0,0,0-2.64,3.23C17.23,28.09,16.3,30,16.3,30s2.59-2.66,4.16-4C22.86,24,22.11,22.56,20.46,24Z"/><path class="cls-8" d="M35.76,29.45a3.85,3.85,0,0,0,.13,3.48c1,1.66,2.62.69,1.91-.64A17.85,17.85,0,0,0,35.76,29.45Z"/><path class="cls-8" d="M68.29,10c-1,.25-2,2-2.1,3.31s-.48,3-.48,3a32.17,32.17,0,0,0,3-3.53C69.53,11.54,69.72,9.65,68.29,10Z"/><polygon class="cls-4" points="41.29 9.65 39.99 11.34 42.14 11.72 41.29 9.65"/><polygon class="cls-4" points="43.36 12.81 41.67 14.38 43.36 15.28 43.36 12.81"/><polygon class="cls-4" points="35.98 13.15 37.7 12.04 38.21 13.31 35.98 13.15"/><polygon class="cls-4" points="31.34 12.46 31.77 14.95 33.72 13.86 31.34 12.46"/><polygon class="cls-4" points="22.44 10.2 20.46 11.34 22.44 13.15 22.44 10.2"/><polygon class="cls-4" points="28.54 20.51 26.76 21.73 28.87 22.56 28.54 20.51"/><polygon class="cls-4" points="54.35 20.2 54.35 22.89 56.26 21.67 54.35 20.2"/><polygon class="cls-4" points="51.14 24.95 52.35 26.68 53.93 25.07 51.14 24.95"/><polygon class="cls-4" points="56.98 23.59 55.3 24.95 56.98 25.81 56.98 23.59"/><polygon class="cls-4" points="61.07 17.93 59.12 19.2 62.05 20.16 61.07 17.93"/><polygon class="cls-4" points="65.72 22.41 64.15 23.39 66.19 24.58 65.72 22.41"/><polygon class="cls-4" points="70.94 29.21 69.11 30.49 71.47 31.04 70.94 29.21"/><polygon class="cls-4" points="66.19 29.96 65.72 32.29 68.01 31.75 66.19 29.96"/><polygon class="cls-4" points="41.67 36.27 40.36 37.9 42.95 37.73 41.67 36.27"/><polygon class="cls-4" points="30.05 26.93 31.34 29.21 33.07 27.53 30.05 26.93"/><polygon class="cls-4" points="20.46 19.81 22.99 21.46 23.08 20.06 20.46 19.81"/><polygon class="cls-4" points="20.46 31.31 19.5 33.85 21.77 33.25 20.46 31.31"/><polygon class="cls-4" points="11.34 26.93 13.85 26.93 12.78 29.01 11.34 26.93"/><polygon class="cls-4" points="64.15 9.96 62.74 7.43 65.72 7.97 64.15 9.96"/></g></g></svg>