<svg xmlns="http://www.w3.org/2000/svg" viewBox="0 0 71.17 39.74"><defs><style>.cls-1{fill:#020202;opacity:0.13;}.cls-2{fill:#db9e31;}.cls-3{fill:#f2c351;}.cls-4{opacity:0.1;}.cls-5{fill:#fff;opacity:0.09;}</style></defs><g id="Слой_2" data-name="Слой 2"><g id="Layer_1" data-name="Layer 1"><path class="cls-1" d="M58.09,6.78c0-.24-.62-.43-1.37-.43s-1.37.19-1.37.43.61.43,1.37.43S58.09,7,58.09,6.78Z"/><path class="cls-1" d="M63.41,5.72c0-.24-.62-.43-1.37-.43s-1.37.19-1.37.43.61.43,1.37.43S63.41,6,63.41,5.72Z"/><path class="cls-1" d="M8.08,4.65c0-.23-.61-.43-1.36-.43s-1.37.2-1.37.43.61.44,1.37.44S8.08,4.89,8.08,4.65Z"/><path class="cls-2" d="M69.76,6.47,1.65,6.34c-3.59,8.52-.2,25.11-.2,25.11s0-.12.1-.11C2,36,17.08,39.74,35.67,39.74c18.85,0,34.13-3.65,34.13-8.43A55.83,55.83,0,0,0,69.76,6.47Z"/><ellipse class="cls-3" cx="35.67" cy="6.92" rx="34.13" ry="6.92"/><path class="cls-1" d="M58.27,4.52c0-.44-1.13-.8-2.52-.8s-2.53.36-2.53.8,1.13.8,2.53.8S58.27,5,58.27,4.52Z"/><path class="cls-1" d="M15.72,8.78c0-.44-1.13-.8-2.53-.8s-2.52.36-2.52.8,1.13.79,2.52.79S15.72,9.22,15.72,8.78Z"/><path class="cls-1" d="M39.12,6.65c0-.44-1.13-.8-2.52-.8s-2.53.36-2.53.8,1.13.8,2.53.8S39.12,7.09,39.12,6.65Z"/><path class="cls-1" d="M18.29,6.92c0-.3-.75-.54-1.68-.54s-1.69.24-1.69.54.76.53,1.69.53S18.29,7.21,18.29,6.92Z"/><path class="cls-1" d="M29.36,10c0-.23-.61-.43-1.37-.43s-1.37.2-1.37.43.62.44,1.37.44S29.36,10.21,29.36,10Z"/><path class="cls-1" d="M47.45,3.59c0-.24-.62-.43-1.37-.43s-1.37.19-1.37.43.61.43,1.37.43S47.45,3.83,47.45,3.59Z"/><path class="cls-1" d="M41.06,11c0-.24-.61-.43-1.36-.43s-1.37.19-1.37.43.61.43,1.37.43S41.06,11.28,41.06,11Z"/><path class="cls-1" d="M20.85,3.59c0-.24-.61-.43-1.37-.43s-1.37.19-1.37.43.62.43,1.37.43S20.85,3.83,20.85,3.59Z"/><path class="cls-1" d="M44.7,5.56c0-.19-.47-.34-1.06-.34s-1.06.15-1.06.34.48.33,1.06.33S44.7,5.74,44.7,5.56Z"/><path class="cls-1" d="M51.71,10.6c0-.61-1.56-1.11-3.5-1.11s-3.5.5-3.5,1.11,1.57,1.1,3.5,1.1S51.71,11.21,51.71,10.6Z"/><ellipse class="cls-1" cx="28" cy="4.21" rx="3.5" ry="1.11"/><path class="cls-4" d="M68.11,34C22.5,39.49,4.7,26.61.25,12.28c-1,8.6,1.2,19.17,1.2,19.17s0-.12.1-.11C2,36,17.08,39.74,35.67,39.74,50.82,39.74,63.65,37.38,68.11,34Z"/><path class="cls-5" d="M46.15,16.67C51.43,16,67.1,11.81,67.3,19.73S41.36,30.9,30.06,27,24.21,15.6,32.59,16.6,42.16,17.2,46.15,16.67Z"/></g></g></svg>