<svg xmlns="http://www.w3.org/2000/svg" xmlns:xlink="http://www.w3.org/1999/xlink" viewBox="0 0 97.32 82.37"><defs><style>.cls-1{fill:#1d3c1c;}.cls-2{fill:#195410;}.cls-3{fill:none;}.cls-4{isolation:isolate;}.cls-5{clip-path:url(#clip-path);}.cls-6{opacity:0.27;}.cls-18,.cls-6,.cls-7{mix-blend-mode:multiply;}.cls-16,.cls-7{opacity:0.08;}.cls-8{opacity:0.06;}.cls-16,.cls-19,.cls-28,.cls-8{mix-blend-mode:screen;}.cls-9{fill:#cae98b;}.cls-10{opacity:0.09;}.cls-11{opacity:0.26;}.cls-12{fill:#fff;}.cls-13,.cls-19,.cls-28{opacity:0.17;}.cls-14{fill:#154b0d;}.cls-15{clip-path:url(#clip-path-2);}.cls-17,.cls-19{fill:#a6d85b;}.cls-18{opacity:0.16;}.cls-20{opacity:0.66;}.cls-21{clip-path:url(#clip-path-3);}.cls-22{fill:#c1e083;}.cls-23{fill:#4d9623;}.cls-24{fill:#def7a1;}.cls-25{clip-path:url(#clip-path-4);}.cls-26{fill:#ebf9bb;}.cls-27{fill:#bbd073;}.cls-29{fill:#fff5cc;}</style><clipPath id="clip-path" transform="translate(12.18 17.04)"><path class="cls-1" d="M53.66,17.69c1.84,1.84,14.76,13.54,17.17,19.82.83,2.18,2.33,5.47,1.67,7.92-1.18,4.35-5.85,4.52-9.67,3.26-7.71-2.55-13.38-7.37-20-12.11A135.31,135.31,0,0,1,22.73,18.52c-2.31-2.49-4.61-5.17-5.56-8.44S17,2.8,19.82.92c2-1.31,5.38-1,7.66-.33C33.19,2.32,48.49,12.52,53.66,17.69Z"/></clipPath><clipPath id="clip-path-2" transform="translate(12.18 17.04)"><path class="cls-2" d="M49.92,18.09c-1.21-3.17-5-4.8-8.36-4.58S32,17,29.07,18.7a135.36,135.36,0,0,0-22,15.71C6,35.36,5,36.27,3.91,37.18a7,7,0,0,1,2.58-.26c3.33.27,6.24,2.58,8,5.42a12.42,12.42,0,0,1,1.95,6.41,9.14,9.14,0,0,1-2.29,6.17c4.3-2.64,8-5.2,9-5.86,6.17-3.92,22.49-18.23,25.43-23.42C49.76,23.56,50.77,20.32,49.92,18.09Z"/></clipPath><clipPath id="clip-path-3" transform="translate(12.18 17.04)"><path class="cls-3" d="M14.83,42a14.41,14.41,0,0,1,1.91,6.65,9.79,9.79,0,0,1-2.46,6.09c-.65.7-2.83,2.06-7.12,1.22-2.26-.44-4-2.43-5.23-4.4A16.29,16.29,0,0,1,.25,47a10,10,0,0,1,.18-5.12c1.36-3.54,3-5.18,6.06-4.92A12.16,12.16,0,0,1,14.83,42Z"/></clipPath><clipPath id="clip-path-4" transform="translate(12.18 17.04)"><path class="cls-3" d="M44.55,41.6a29.45,29.45,0,0,1,6.62-1.83c2.24-.3,5.29-.26,7.3.79a5.42,5.42,0,0,1,2.86,2.75,4,4,0,0,1,.32,1.54A7.52,7.52,0,0,1,59,50.76a8.91,8.91,0,0,1-2.16,1.38c-4.79,2-10.41,2.07-13.28,1-1.83-.71-4.43-2-4.9-3.94S39.37,43.63,44.55,41.6Z"/></clipPath></defs><g class="cls-4"><g id="Слой_2" data-name="Слой 2"><g id="Layer_1" data-name="Layer 1"><path class="cls-1" d="M53.66,17.69c1.84,1.84,14.76,13.54,17.17,19.82.83,2.18,2.33,5.47,1.67,7.92-1.18,4.35-5.85,4.52-9.67,3.26-7.71-2.55-13.38-7.37-20-12.11A135.31,135.31,0,0,1,22.73,18.52c-2.31-2.49-4.61-5.17-5.56-8.44S17,2.8,19.82.92c2-1.31,5.38-1,7.66-.33C33.19,2.32,48.49,12.52,53.66,17.69Z" transform="translate(12.18 17.04)"/><g class="cls-5"><g class="cls-6"><path class="cls-1" d="M11,0c-3.9,5.46.83,12.33,3.84,17C19.45,24.11,25.15,30.34,31,36.39c5.65,5.81,12,10.91,18.32,16,6.46,5.25,14.66,10.24,23,6.7a6.54,6.54,0,0,0,3.69-7c-1.18-7.57-7.19-9.4-12.85-13.07-6.2-4-12.25-8.44-18-13S33.92,17,28.47,12.3C23.78,8.24,19.9,2.66,14.58-.6A2.59,2.59,0,0,0,11,0Z" transform="translate(12.18 17.04)"/></g><g class="cls-7"><path class="cls-1" d="M8.23,2.42c-3.9,5.45.84,12.33,3.84,17,4.58,7.12,10.28,13.34,16.15,19.39,5.65,5.82,12,10.92,18.32,16,6.47,5.25,14.67,10.23,23,6.7a6.56,6.56,0,0,0,3.69-7C72.06,47,66.06,45.17,60.39,41.5c-6.2-4-12.25-8.44-18-13s-11.23-9-16.68-13.75C21,10.66,17.1,5.09,11.79,1.83a2.59,2.59,0,0,0-3.56.59Z" transform="translate(12.18 17.04)"/></g><g class="cls-7"><path class="cls-1" d="M6.77,5c-3.9,5.46.83,12.34,3.84,17,4.58,7.12,10.27,13.34,16.15,19.39,5.64,5.82,12,10.91,18.32,16,6.46,5.25,14.66,10.24,23,6.7a6.52,6.52,0,0,0,3.68-7c-1.17-7.57-7.18-9.4-12.84-13.06-6.21-4-12.25-8.44-18-13s-11.23-9-16.69-13.74c-4.69-4.06-8.56-9.63-13.88-12.89A2.59,2.59,0,0,0,6.77,5Z" transform="translate(12.18 17.04)"/></g><g class="cls-8"><path class="cls-9" d="M81.68,45.56c3.83-5.51-1-12.32-4.06-17-4.67-7-10.45-13.2-16.4-19.18C55.5,3.68,49-1.33,42.69-6.35c-6.53-5.16-14.79-10-23.09-6.4a6.52,6.52,0,0,0-3.59,7c1.27,7.55,7.3,9.3,13,12.9C35.27,11.1,41.38,15.44,47.23,20s11.35,8.88,16.86,13.53c4.74,4,8.69,9.52,14,12.71a2.58,2.58,0,0,0,3.54-.63Z" transform="translate(12.18 17.04)"/></g><g class="cls-8"><path class="cls-9" d="M83.72,42.53c3.82-5.51-1-12.32-4.07-17C75,18.52,69.2,12.37,63.25,6.4,57.53.66,51.07-4.36,44.73-9.38c-6.54-5.16-14.8-10-23.1-6.39a6.52,6.52,0,0,0-3.59,7c1.27,7.55,7.3,9.3,13,12.89,6.25,3.94,12.36,8.28,18.21,12.8S60.61,25.8,66.12,30.45c4.74,4,8.69,9.52,14,12.72a2.61,2.61,0,0,0,3.55-.64Z" transform="translate(12.18 17.04)"/></g></g><g class="cls-10"><path class="cls-9" d="M22.24,3.3c2.92,3,7.39,5.39,11,7.4,4.79,2.62,9,6.47,13.29,9.82,3.88,3,7.47,7.2,10.83,10.82,3.06,3.3,5.8,7.91,9.66,10.3,1.19.73,3.09-.11,2.72-1.7-1-4.21-4.56-7.79-7.3-11-3.42-4-7.4-7.61-11.2-11.22A71.67,71.67,0,0,0,38.52,8.43c-5-2.92-10.32-4.26-15.68-6-.47-.15-1,.42-.6.83Z" transform="translate(12.18 17.04)"/></g><g class="cls-11"><path class="cls-12" d="M53,22.4a26.16,26.16,0,0,0,3.22,2.53.41.41,0,0,0,.51-.63,12,12,0,0,0-3.38-2.47c-.38-.23-.67.31-.35.57Z" transform="translate(12.18 17.04)"/></g><g class="cls-11"><path class="cls-12" d="M59.61,28.05a44.77,44.77,0,0,1,4.67,6.27c1.28,2,2,4.32,3.25,6.38a.66.66,0,0,0,1.22-.31c.25-5-5.09-10.17-8.73-12.85-.32-.24-.66.24-.41.51Z" transform="translate(12.18 17.04)"/></g><path class="cls-1" d="M64.4,42.69h-.06c-1.2,0-.4,1.86.42,1.07l0,0a.6.6,0,0,0-.4-1Z" transform="translate(12.18 17.04)"/><path class="cls-1" d="M61,41l0,0a.43.43,0,0,0,.73-.28v-.06c0-.87-1.35-.29-.77.3Z" transform="translate(12.18 17.04)"/><path class="cls-1" d="M55.24,39.81l0,0a.35.35,0,0,0,.41,0l0,0a.4.4,0,0,0-.27-.68c-.37,0-.58.56-.21.74Z" transform="translate(12.18 17.04)"/><path class="cls-1" d="M58.49,31.32l-.05.07c-.54.7.79,1.5,1.15.71l0-.08a.67.67,0,0,0-1.14-.7Z" transform="translate(12.18 17.04)"/><path class="cls-1" d="M55.06,33.27a.78.78,0,0,0,0-1.56.78.78,0,0,0,0,1.56Z" transform="translate(12.18 17.04)"/><path class="cls-1" d="M51.58,36.07a.72.72,0,0,0,0-1.43.72.72,0,0,0,0,1.43Z" transform="translate(12.18 17.04)"/><path class="cls-1" d="M47.23,35.85a.42.42,0,0,0-.3-.78c-.62.16-.21,1.1.3.78Z" transform="translate(12.18 17.04)"/><path class="cls-1" d="M48.77,31.82a.59.59,0,0,0,0-1.17.59.59,0,0,0,0,1.17Z" transform="translate(12.18 17.04)"/><path class="cls-1" d="M42,30.49a.75.75,0,0,0,0-1.5.75.75,0,0,0,0,1.5Z" transform="translate(12.18 17.04)"/><path class="cls-1" d="M44.34,33.69a.54.54,0,0,0,0-1.07.54.54,0,0,0,0,1.07Z" transform="translate(12.18 17.04)"/><path class="cls-1" d="M47.23,25.14a.83.83,0,0,0,0-1.65.83.83,0,0,0,0,1.65Z" transform="translate(12.18 17.04)"/><path class="cls-1" d="M38.26,24.59a.86.86,0,0,0,0-1.71.86.86,0,0,0,0,1.71Z" transform="translate(12.18 17.04)"/><path class="cls-1" d="M37.27,27.85c.51-.73-.57-1.59-1.21-1-.81.78.55,1.92,1.21,1Z" transform="translate(12.18 17.04)"/><path class="cls-1" d="M40.8,26.71a.57.57,0,0,0,0-1.13.57.57,0,0,0,0,1.13Z" transform="translate(12.18 17.04)"/><path class="cls-1" d="M31.77,21.29l.09,0a.47.47,0,0,0,.65-.16c.16-.3,0-.52-.23-.71-.51-.37-1.07.55-.51.83Z" transform="translate(12.18 17.04)"/><path class="cls-1" d="M30,16.1A0,0,0,0,0,30,16a0,0,0,0,0,0,.08Z" transform="translate(12.18 17.04)"/><path class="cls-1" d="M29.87,16.4a.4.4,0,0,0,0-.79.4.4,0,0,0,0,.79Z" transform="translate(12.18 17.04)"/><path class="cls-1" d="M37.43,11.46a.43.43,0,0,0,0-.85.43.43,0,0,0,0,.85Z" transform="translate(12.18 17.04)"/><path class="cls-1" d="M42.39,12.78a.61.61,0,0,0-1.09-.49c-.46.75.85,1.33,1.09.49Z" transform="translate(12.18 17.04)"/><path class="cls-1" d="M45.64,19.08a.54.54,0,0,0,0-1.08.54.54,0,0,0,0,1.08Z" transform="translate(12.18 17.04)"/><path class="cls-1" d="M50.19,19.75a.46.46,0,0,0,0-.92.46.46,0,0,0,0,.92Z" transform="translate(12.18 17.04)"/><path class="cls-1" d="M31.21,6.63l-.05.09a.44.44,0,0,0,.15.61l.09.07c.41.32,1-.17.84-.61a.57.57,0,0,0-1-.16Z" transform="translate(12.18 17.04)"/><path class="cls-1" d="M27.48,3.61a.58.58,0,0,0,0-1.15.58.58,0,0,0,0,1.15Z" transform="translate(12.18 17.04)"/><path class="cls-1" d="M26.18,8.12v.05a.83.83,0,1,0,1.23-.48l0,0a.8.8,0,0,0-1.18.45Z" transform="translate(12.18 17.04)"/><path class="cls-1" d="M23.5,2.35l.08,0A.51.51,0,0,0,24.22,2,.55.55,0,0,0,24,1.48a.52.52,0,1,0-.53.87Z" transform="translate(12.18 17.04)"/><path class="cls-1" d="M20.12,6a.6.6,0,0,0,0-1.2.6.6,0,0,0,0,1.2Z" transform="translate(12.18 17.04)"/><path class="cls-1" d="M22.36,8.63a.24.24,0,0,0,0-.48.24.24,0,0,0,0,.48Z" transform="translate(12.18 17.04)"/><path class="cls-1" d="M20,12.25a.46.46,0,0,0,0-.92.46.46,0,0,0,0,.92Z" transform="translate(12.18 17.04)"/><path class="cls-1" d="M24.56,12.61a.47.47,0,0,0,0-.94.47.47,0,0,0,0,.94Z" transform="translate(12.18 17.04)"/><path class="cls-1" d="M24.49,16.66l.09,0a.59.59,0,0,0,.58-1l-.06-.06c-.72-.68-1.53.68-.61,1Z" transform="translate(12.18 17.04)"/><path class="cls-1" d="M26.91,18l0,.12a.47.47,0,0,0,.84.38l.08-.11c.39-.58-.67-1.09-.88-.39Z" transform="translate(12.18 17.04)"/><path class="cls-1" d="M28,21.9a.68.68,0,0,0,0-1.36.68.68,0,0,0,0,1.36Z" transform="translate(12.18 17.04)"/><g class="cls-13"><path class="cls-9" d="M51.9,35.75a.45.45,0,0,0,0-.89.45.45,0,0,0,0,.89Z" transform="translate(12.18 17.04)"/></g><g class="cls-13"><path class="cls-9" d="M56.73,37.75a.08.08,0,0,0,0-.15c-.1,0-.1.15,0,.15Z" transform="translate(12.18 17.04)"/></g><g class="cls-13"><path class="cls-9" d="M59.08,40.93a.49.49,0,0,0,0-1,.49.49,0,0,0,0,1Z" transform="translate(12.18 17.04)"/></g><g class="cls-13"><path class="cls-9" d="M61,43.37l.07,0a.21.21,0,0,0,0-.39l-.07,0c-.47-.07-.32.65,0,.45Z" transform="translate(12.18 17.04)"/></g><g class="cls-13"><path class="cls-9" d="M42.41,29.51l0,0c-.21-.08-.36.17-.28.34l0,.05a.21.21,0,0,0,.35,0,1,1,0,0,0,.07-.15c0-.1,0-.2-.12-.23Z" transform="translate(12.18 17.04)"/></g><g class="cls-13"><path class="cls-9" d="M38.74,24.2a.49.49,0,0,0,0-1,.49.49,0,0,0,0,1Z" transform="translate(12.18 17.04)"/></g><g class="cls-13"><path class="cls-9" d="M49.72,21.46a.27.27,0,0,0,0-.54.27.27,0,0,0,0,.54Z" transform="translate(12.18 17.04)"/></g><g class="cls-13"><path class="cls-9" d="M52.5,28.11l0,0a.28.28,0,0,0,.43,0l0-.05c.45-.73-1.1-.45-.51.05Z" transform="translate(12.18 17.04)"/></g><g class="cls-13"><path class="cls-9" d="M54.71,32.14a.39.39,0,0,0,0-.77.39.39,0,0,0,0,.77Z" transform="translate(12.18 17.04)"/></g><g class="cls-13"><path class="cls-9" d="M43.9,22a.12.12,0,0,0,0-.23.12.12,0,0,0,0,.23Z" transform="translate(12.18 17.04)"/></g><g class="cls-13"><path class="cls-9" d="M43.9,22.28a.37.37,0,0,0,0-.74.37.37,0,0,0,0,.74Z" transform="translate(12.18 17.04)"/></g><g class="cls-13"><path class="cls-9" d="M48,25.78a.67.67,0,0,0,0-1.33.67.67,0,0,0,0,1.33Z" transform="translate(12.18 17.04)"/></g><g class="cls-13"><path class="cls-9" d="M36.46,14.77a.49.49,0,0,0,0-1,.49.49,0,0,0,0,1Z" transform="translate(12.18 17.04)"/></g><g class="cls-13"><path class="cls-9" d="M33.38,18.76a.64.64,0,0,0,0-1.28.64.64,0,0,0,0,1.28Z" transform="translate(12.18 17.04)"/></g><path class="cls-14" d="M38.58,48.16c.09,1.18.29,2.87.43,4a4.77,4.77,0,0,0,.36,1.5,4,4,0,0,0,1.68,1.53A15.32,15.32,0,0,0,49,57.66a21.85,21.85,0,0,0,6.81-1c3.24-1.32,4.47-2.21,6.11-4.46a5,5,0,0,0,.9-4,14.21,14.21,0,0,0-1.9-5.69c-1,2.24-3.26,5-5.64,5.65C50,49.56,44,48.77,38.58,48.16Z" transform="translate(12.18 17.04)"/><path class="cls-9" d="M44.55,41.6a29.45,29.45,0,0,1,6.62-1.83c2.24-.3,5.29-.26,7.3.79a5.42,5.42,0,0,1,2.86,2.75,4,4,0,0,1,.32,1.54A7.52,7.52,0,0,1,59,50.76a8.91,8.91,0,0,1-2.16,1.38c-4.79,2-10.41,2.07-13.28,1-1.83-.71-4.43-2-4.9-3.94S39.37,43.63,44.55,41.6Z" transform="translate(12.18 17.04)"/><path class="cls-9" d="M14.83,42a14.41,14.41,0,0,1,1.91,6.65,9.79,9.79,0,0,1-2.46,6.09c-.65.7-2.83,2.06-7.12,1.22-2.26-.44-4-2.43-5.23-4.4A16.29,16.29,0,0,1,.25,47a10,10,0,0,1,.18-5.12c1.36-3.54,3-5.18,6.06-4.92A12.16,12.16,0,0,1,14.83,42Z" transform="translate(12.18 17.04)"/><path class="cls-2" d="M49.92,18.09c-1.21-3.17-5-4.8-8.36-4.58S32,17,29.07,18.7a135.36,135.36,0,0,0-22,15.71C6,35.36,5,36.27,3.91,37.18a7,7,0,0,1,2.58-.26c3.33.27,6.24,2.58,8,5.42a12.42,12.42,0,0,1,1.95,6.41,9.14,9.14,0,0,1-2.29,6.17c4.3-2.64,8-5.2,9-5.86,6.17-3.92,22.49-18.23,25.43-23.42C49.76,23.56,50.77,20.32,49.92,18.09Z" transform="translate(12.18 17.04)"/><g class="cls-15"><g class="cls-16"><path class="cls-17" d="M50.68,14.48C49.49,19.53,45,22,41.4,25.7,37.3,30,32.47,33.56,27.75,37.11s-9.46,7.07-13.94,11c-3.15,2.76-8.41,6.64-4.65,11.09a4.76,4.76,0,0,0,4.67,1.34c5.36-1.6,9.26-6.21,13.45-9.72,4.62-3.87,9.49-7.43,13.9-11.54A48.1,48.1,0,0,0,51.47,25.68c1.48-2.93,4-8.17,1.92-11.28A.89.89,0,0,0,52,14.19Z" transform="translate(12.18 17.04)"/></g><g class="cls-16"><path class="cls-17" d="M52.17,18.25c-1.2,5.05-5.72,7.49-9.29,11.23C38.79,33.76,34,37.34,29.23,40.89s-9.46,7.07-13.94,11C12.14,54.62,6.88,58.51,10.65,63a4.75,4.75,0,0,0,4.67,1.34c5.36-1.61,9.26-6.21,13.45-9.72,4.61-3.87,9.48-7.43,13.89-11.54A47.94,47.94,0,0,0,53,29.46c1.47-2.93,4-8.18,1.92-11.28A.9.9,0,0,0,53.5,18Z" transform="translate(12.18 17.04)"/></g><g class="cls-18"><path class="cls-2" d="M51.24,11.59c-8.87-3-20.55,4.76-27.73,9.29A156.18,156.18,0,0,0,10,30.7C5.64,34.18.83,37.38-3.29,41.16c-4.57,4.18,1,11.27,6.29,8.5,9.37-4.9,17.06-13.37,25.74-19.4,4-2.77,8.35-6.72,12.59-9.1,4.05-2.28,5.94-3.94,8.61-4.75,1.2-.36,2.36-4.46,1.3-4.82Z" transform="translate(12.18 17.04)"/></g><g class="cls-18"><path class="cls-2" d="M46.84,9.08c-8.87-3-20.55,4.76-27.73,9.29A156.18,156.18,0,0,0,5.63,28.19c-4.39,3.48-9.2,6.68-13.32,10.46-4.57,4.18,1,11.28,6.29,8.5C8,42.25,15.66,33.78,24.34,27.75c4-2.77,8.35-6.72,12.59-9.1,4-2.28,5.94-3.94,8.61-4.75,1.2-.36,2.36-4.46,1.3-4.82Z" transform="translate(12.18 17.04)"/></g><g class="cls-18"><path class="cls-2" d="M44,8.56c-8.87-3-20.55,4.76-27.73,9.29A154.09,154.09,0,0,0,2.83,27.67c-4.39,3.48-9.2,6.68-13.32,10.45-4.57,4.18,1,11.28,6.29,8.51,9.37-4.91,17.06-13.38,25.74-19.4,4-2.78,8.35-6.72,12.59-9.11,4-2.28,5.94-3.94,8.61-4.74C43.94,13,45.1,8.92,44,8.56Z" transform="translate(12.18 17.04)"/></g></g><path class="cls-19" d="M46.23,16.93C41.61,20.08,36.54,25.2,32.47,29c-4.67,4.35-8.94,7.67-13.82,11.49-2.64,2.07-1.91,8,2.67,6,6.61-2.85,13-8.46,17.22-13.72,3.51-4.39,8.55-9,10-14.61C48.73,17.26,47.17,16.3,46.23,16.93Z" transform="translate(12.18 17.04)"/><g class="cls-20"><path class="cls-12" d="M40.49,29.45A99.56,99.56,0,0,1,31,37.05c-2.87,2-6.09,3.6-8.47,6.19a.93.93,0,0,0,1.09,1.47c3.51-1.57,6.63-4.14,9.71-6.43a27.12,27.12,0,0,0,7.8-8.34.4.4,0,0,0-.62-.49Z" transform="translate(12.18 17.04)"/></g><g class="cls-21"><path class="cls-22" d="M3,40.35c-2.27.75-2.62,4-2.7,6.1a11.62,11.62,0,0,0,3,8c4.36,4.88,11.3,1,13.13-4.06,1.91-5.25-2.37-13-8-13.84A6.46,6.46,0,0,0,2,39.39c-1.53,2.06-1.95,6.17.07,8a1.75,1.75,0,0,0,2.72-.3c.58-.86.78-5.15,2.45-4.81,2.34.48,3.68,4.23,3.08,6.25S8,50.33,7.1,48.86a19.47,19.47,0,0,1-2-4.16c-.44-1.25-.26-2.66-.83-3.82A1.08,1.08,0,0,0,3,40.35Z" transform="translate(12.18 17.04)"/><path class="cls-23" d="M-.07,42c-1.28,5.31.59,12.54,6.15,14.69,5.3,2.05,10.52.09,11.24-6,.64-5.45-.67-12.12-6.51-14.21-6.44-2.3-10.69,1.42-11,8,0,.63.85.94.81.28a6.46,6.46,0,0,1,.87-4.27c1.55-3.43,6.21-3.6,8.94-1.85,6.07,3.88,5.81,7.52,5.59,10.85-.45,7.05-7.78,7.8-11.57,4.68C1,51.38.59,46.05.9,41.66c0-.6-.82-.25-1,.38Z" transform="translate(12.18 17.04)"/></g><path class="cls-24" d="M5.3,42C4,42.11,3.23,43.7,3.07,44.89a8.26,8.26,0,0,0,.74,4.54,5.87,5.87,0,0,0,4.42,3.28A4.9,4.9,0,0,0,13,49.43a6.64,6.64,0,0,0-3.66-9c-3.24-1.1-7.63,1.86-5.54,5.42A1.21,1.21,0,0,0,6,45.59c.4-1.29.8-2.17,2.32-1.75,1.81.5,1.82,2.81,1.3,4.23-.71,2-2.39.3-3-.77S5.39,44.1,6,42.84A.6.6,0,0,0,5.3,42Z" transform="translate(12.18 17.04)"/><path class="cls-24" d="M52.16,42.08c-3.4-2-8.33,1.51-9.46,4.79-1.77,5.13,6,5.24,8.95,4.72,3.89-.7,9.26-4.43,5.78-8.75-2.58-3.2-8.64-.86-11.51.54-1,.49-.32,1.92.68,1.73a29.91,29.91,0,0,1,7.22-.88c1.29.06,2.31.9,1.65,2.26s-2.38,1.8-3.62,2.15c-.93.26-7,1.23-6.56-1,.45-2.5,4.3-4.34,6.56-4.49a.58.58,0,0,0,.31-1.07Z" transform="translate(12.18 17.04)"/><g class="cls-25"><path class="cls-22" d="M44.56,43A5.75,5.75,0,0,0,38.8,46c-1.07,2.42-.53,5.33,1.31,6.58,5.24,3.57,17,1.27,20.57-3.37,3.31-4.27-1.17-9.66-6-10.08-4.51-.39-13.2,1.6-14.39,6.81-.24,1.06,3,3,2.93,2-.17-2.84,3.33-3.57,6.06-4.47,1.83-.61,7.21-1.88,8,.84S52.68,49.45,50.91,50c-4.11,1.18-11.49-1.57-6.1-6a.61.61,0,0,0-.25-1Z" transform="translate(12.18 17.04)"/><path class="cls-23" d="M39,47.92c2-6.58,10.24-8.28,16.24-7.86,7.09.5,6.92,6.44,4.18,9.46-1.55,1.7-4.75,3.06-7.25,3.52C47,54,39.7,52.06,38.92,48.2c-.12-.63-.26-2.67-.39-2-1.11,5.76,3.87,9.61,8.58,9.49,5.68-.14,16.11-4.73,15.84-11-.47-11.18-27.19-5.61-25.85,4.43,0,.24,1.55-.19,1.66-.4Z" transform="translate(12.18 17.04)"/></g><path class="cls-26" d="M7,47.36A8.36,8.36,0,0,1,6.49,50a8.36,8.36,0,0,0-.73,2.52.54.54,0,0,0,.91.4c1.34-1.34,1.48-3.88,1-5.6a.33.33,0,0,0-.65.07Z" transform="translate(12.18 17.04)"/><path class="cls-26" d="M7.49,45.73c.16-1.07-.71-1.83-1.45-2.47s-2-1.74-3.18-1.5a.82.82,0,0,0-.38,1.34c.55.72,1.72,1,2.48,1.51A8.22,8.22,0,0,0,7.19,46a.24.24,0,0,0,.3-.22Z" transform="translate(12.18 17.04)"/><path class="cls-26" d="M8.46,46.51a22.25,22.25,0,0,0,2.45,0c.74,0,1.79,0,2.27-.65a.46.46,0,0,0,0-.49c-.52-.86-1.86-.85-2.74-.81A2.7,2.7,0,0,0,8,45.83c-.14.35.2.64.5.68Z" transform="translate(12.18 17.04)"/><path class="cls-26" d="M50.53,45.9a31.3,31.3,0,0,0-.36-3.61.34.34,0,0,0-.65,0A4.19,4.19,0,0,0,50,46.1a.29.29,0,0,0,.5-.2Z" transform="translate(12.18 17.04)"/><path class="cls-26" d="M49.76,46.51a7.82,7.82,0,0,0-4.47,2.59.65.65,0,0,0,.7,1,9.34,9.34,0,0,0,4.26-2.88c.26-.34-.15-.74-.49-.67Z" transform="translate(12.18 17.04)"/><path class="cls-26" d="M51.47,47.35a8.33,8.33,0,0,0,4.49,1,.56.56,0,0,0,.16-1c-1.44-.67-3-1.67-4.62-1.38-.81.14-.64,1.18,0,1.44Z" transform="translate(12.18 17.04)"/><path class="cls-27" d="M6.62,42.41c.21.35.29.78.61,1.05A.44.44,0,0,0,8,43.17a1.51,1.51,0,0,0-.71-1.24c-.33-.3-.89.06-.65.48Z" transform="translate(12.18 17.04)"/><path class="cls-27" d="M9.45,44.28a2.54,2.54,0,0,0,1.17-1.12A.58.58,0,0,0,10,42.3a1.94,1.94,0,0,0-1.37,1.31.58.58,0,0,0,.83.67Z" transform="translate(12.18 17.04)"/><path class="cls-27" d="M9.09,42.25a1.24,1.24,0,0,0,.47-.68A.49.49,0,0,0,9,41c-.42.07-.61.4-.73.78a.51.51,0,0,0,.83.5Z" transform="translate(12.18 17.04)"/><path class="cls-27" d="M3.06,46.31a2.29,2.29,0,0,0,1.31.78.63.63,0,0,0,.63-1,2,2,0,0,0-1.32-.76.62.62,0,0,0-.62,1Z" transform="translate(12.18 17.04)"/><path class="cls-27" d="M5.2,47.56c0,.54-.33,1-.31,1.52a.43.43,0,0,0,.72.31,2.29,2.29,0,0,0,.59-1.81.5.5,0,0,0-1,0Z" transform="translate(12.18 17.04)"/><path class="cls-27" d="M3.08,48.62c.08.42,0,.8.38,1.1a.63.63,0,0,0,1-.11c.28-.54.06-.94-.19-1.45C3.9,47.49,3,48,3.08,48.62Z" transform="translate(12.18 17.04)"/><path class="cls-27" d="M9.34,48.1a1.41,1.41,0,0,0,1.37.58c.36,0,.39-.5.21-.73a2.22,2.22,0,0,0-1.11-.64c-.45-.18-.79.47-.47.79Z" transform="translate(12.18 17.04)"/><path class="cls-27" d="M9.06,50a1.85,1.85,0,0,1-.1.74.95.95,0,1,0,1.83,0,2,2,0,0,0-.86-1.26.57.57,0,0,0-.87.48Z" transform="translate(12.18 17.04)"/><path class="cls-27" d="M11.45,50.27a1.11,1.11,0,0,0,1.42-.36.63.63,0,0,0-.21-.87,1.4,1.4,0,0,0-1.33.11c-.53.22-.32,1,.12,1.12Z" transform="translate(12.18 17.04)"/><path class="cls-27" d="M46.8,43.37A5.78,5.78,0,0,0,46.89,45a.79.79,0,0,0,1.16.5.78.78,0,0,0,.41-.68,2.82,2.82,0,0,0-.89-1.78.45.45,0,0,0-.77.3Z" transform="translate(12.18 17.04)"/><path class="cls-27" d="M44.91,47.5a2.76,2.76,0,0,0,2-1c.29-.4-.24-.78-.6-.62a10.26,10.26,0,0,0-1.6,1,.32.32,0,0,0,.24.59Z" transform="translate(12.18 17.04)"/><path class="cls-27" d="M44.42,45.22c.27.53.84.56,1.37.55a.55.55,0,0,0,.3-1c-.44-.29-1-.58-1.47-.23a.54.54,0,0,0-.2.7Z" transform="translate(12.18 17.04)"/><path class="cls-27" d="M52.19,45.11a2.47,2.47,0,0,0,1.14-.29,3.11,3.11,0,0,0,.81-.92.54.54,0,0,0-.72-.75,3.13,3.13,0,0,0-1,.71,3.35,3.35,0,0,0-.51,1,.24.24,0,0,0,.29.3Z" transform="translate(12.18 17.04)"/><path class="cls-27" d="M52.14,43.69a4.6,4.6,0,0,1,.54-.45.56.56,0,0,0,.26-.6v-.08a.42.42,0,0,0-.39-.31h-.11a.49.49,0,0,0-.46.26,3.46,3.46,0,0,0-.33.88.31.31,0,0,0,.5.31Z" transform="translate(12.18 17.04)"/><path class="cls-27" d="M54.32,46c.62.2,1.3.72,1.87.13a.49.49,0,0,0,.09-.58c-.38-.61-1.16-.59-1.81-.53a.5.5,0,0,0-.15,1Z" transform="translate(12.18 17.04)"/><path class="cls-27" d="M54.78,43.54c.28.51.83,1.13,1.46,1.07a.6.6,0,0,0,.53-.87,2.48,2.48,0,0,0-1.42-.92.5.5,0,0,0-.57.72Z" transform="translate(12.18 17.04)"/><path class="cls-27" d="M50.17,48.64c.23.57.5,1,1.17,1a.56.56,0,0,0,.56-.54c0-.66-.39-1-.95-1.21a.57.57,0,0,0-.78.76Z" transform="translate(12.18 17.04)"/><path class="cls-27" d="M48.93,50.37c.43.53,1,1.05,1.72.82a.63.63,0,0,0,.3-1,3.34,3.34,0,0,0-1.45-.71c-.58-.23-.88.53-.57.93Z" transform="translate(12.18 17.04)"/><path class="cls-27" d="M52.91,48.82a1.65,1.65,0,0,0-.24,1.76.62.62,0,0,0,.82.23c.76-.34.7-1.37.31-2a.53.53,0,0,0-.89,0Z" transform="translate(12.18 17.04)"/><g class="cls-28"><path class="cls-29" d="M11.13,35.72a.26.26,0,0,0,0-.52.26.26,0,0,0,0,.52Z" transform="translate(12.18 17.04)"/></g><g class="cls-28"><path class="cls-29" d="M17.9,33a.62.62,0,0,0,0-1.23.62.62,0,0,0,0,1.23Z" transform="translate(12.18 17.04)"/></g><g class="cls-28"><path class="cls-29" d="M22.36,29.05l0,0a.17.17,0,0,0,.24,0l0-.05c.4-.43-.68-.46-.3,0Z" transform="translate(12.18 17.04)"/></g><g class="cls-28"><path class="cls-29" d="M25.68,24.61l.06,0a.35.35,0,0,0,0-.6l-.05,0c-.71-.42-.74,1.05,0,.66Z" transform="translate(12.18 17.04)"/></g><g class="cls-28"><path class="cls-29" d="M34.42,19.51a.37.37,0,0,0,0-.74.37.37,0,0,0,0,.74Z" transform="translate(12.18 17.04)"/></g><g class="cls-28"><path class="cls-29" d="M32.27,25.46a.19.19,0,0,0,0-.38.19.19,0,0,0,0,.38Z" transform="translate(12.18 17.04)"/></g><g class="cls-28"><path class="cls-29" d="M31.94,22.29a.39.39,0,0,0,0-.77.39.39,0,0,0,0,.77Z" transform="translate(12.18 17.04)"/></g><g class="cls-28"><path class="cls-29" d="M28,21.88a.37.37,0,0,0,0-.74.37.37,0,0,0,0,.74Z" transform="translate(12.18 17.04)"/></g><g class="cls-28"><path class="cls-29" d="M42.59,17.24l.06,0a.28.28,0,0,0,0-.48l-.06,0c-.59-.35-.62.88,0,.55Z" transform="translate(12.18 17.04)"/></g><g class="cls-28"><path class="cls-29" d="M40.9,15.29a.16.16,0,0,0,0-.31.16.16,0,0,0,0,.31Z" transform="translate(12.18 17.04)"/></g><g class="cls-28"><path class="cls-29" d="M37.71,22.69a.28.28,0,0,0,0-.56.28.28,0,0,0,0,.56Z" transform="translate(12.18 17.04)"/></g><g class="cls-28"><path class="cls-29" d="M24.08,32.74l.16-.06c.44-.17.16-.82-.23-.59l-.16.08c-.29.17-.1.7.23.57Z" transform="translate(12.18 17.04)"/></g><g class="cls-28"><path class="cls-29" d="M17.61,39.46a.36.36,0,0,0,0-.71.36.36,0,0,0,0,.71Z" transform="translate(12.18 17.04)"/></g><g class="cls-28"><path class="cls-29" d="M14.07,31.34l0,0a.29.29,0,0,0,.55-.13.3.3,0,0,0-.55-.16l0,0a.21.21,0,0,0,0,.23Z" transform="translate(12.18 17.04)"/></g><g class="cls-28"><path class="cls-29" d="M20.93,41.46a.34.34,0,0,0,0-.67.34.34,0,0,0,0,.67Z" transform="translate(12.18 17.04)"/></g><g class="cls-28"><path class="cls-29" d="M19.54,48.7a.27.27,0,0,0,0-.53.27.27,0,0,0,0,.53Z" transform="translate(12.18 17.04)"/></g><g class="cls-28"><path class="cls-29" d="M27,37.82a.55.55,0,0,0,0-1.1.55.55,0,0,0,0,1.1Z" transform="translate(12.18 17.04)"/></g><g class="cls-28"><path class="cls-29" d="M32.45,31.54a.1.1,0,1,0,0-.2c-.13,0-.14.2,0,.2Z" transform="translate(12.18 17.04)"/></g><g class="cls-28"><path class="cls-29" d="M29.32,28.16a.37.37,0,0,0,0-.74.37.37,0,0,0,0,.74Z" transform="translate(12.18 17.04)"/></g><g class="cls-28"><path class="cls-29" d="M38.72,26.93a.52.52,0,0,0,0-1,.52.52,0,0,0,0,1Z" transform="translate(12.18 17.04)"/></g><g class="cls-28"><path class="cls-29" d="M43.9,25.21a.33.33,0,0,0,0-.66.33.33,0,0,0,0,.66Z" transform="translate(12.18 17.04)"/></g><g class="cls-28"><path class="cls-29" d="M46.85,20.77l0,0a.33.33,0,0,0,0-.48l0,0a.4.4,0,1,0,0,.56Z" transform="translate(12.18 17.04)"/></g><path class="cls-1" d="M17.76,32.17s0,0,0,0,0,0,0,0Z" transform="translate(12.18 17.04)"/><path class="cls-1" d="M21,29.67s0-.05,0-.05,0,.05,0,.05Z" transform="translate(12.18 17.04)"/><path class="cls-1" d="M22.2,28.83a0,0,0,0,0,0,0s0,0,0,0Z" transform="translate(12.18 17.04)"/><path class="cls-1" d="M25.18,24.7a.59.59,0,0,0,0-1.18.59.59,0,0,0,0,1.18Z" transform="translate(12.18 17.04)"/><path class="cls-1" d="M28.05,21.18l0,0a.42.42,0,1,0,0,.43l0,0a.33.33,0,0,0,0-.36Z" transform="translate(12.18 17.04)"/><path class="cls-1" d="M25.57,28.5a.33.33,0,0,0-.6-.27c-.26.43.5.73.6.27Z" transform="translate(12.18 17.04)"/><path class="cls-1" d="M18,32v-.08a.57.57,0,0,0-1.13,0V32A.57.57,0,0,0,18,32Z" transform="translate(12.18 17.04)"/><path class="cls-1" d="M14.45,34.6a.34.34,0,0,0-.62-.27c-.27.44.52.75.62.27Z" transform="translate(12.18 17.04)"/><path class="cls-1" d="M34.5,23a.31.31,0,0,0,0-.61.31.31,0,0,0,0,.61Z" transform="translate(12.18 17.04)"/><path class="cls-1" d="M37,19.59a.49.49,0,0,0,.39-.88c-.63-.39-1.07.73-.39.88Z" transform="translate(12.18 17.04)"/><path class="cls-1" d="M19.77,29.46a.25.25,0,0,0,0-.5.25.25,0,0,0,0,.5Z" transform="translate(12.18 17.04)"/><path class="cls-1" d="M15.09,37a.17.17,0,0,0,0-.34.17.17,0,0,0,0,.34Z" transform="translate(12.18 17.04)"/><path class="cls-1" d="M15.09,36.87c.1,0,.1-.15,0-.16s-.1.15,0,.16Z" transform="translate(12.18 17.04)"/><path class="cls-1" d="M13.73,38.51a.5.5,0,0,0,0-1,.5.5,0,0,0,0,1Z" transform="translate(12.18 17.04)"/><path class="cls-1" d="M11.11,33.13a.31.31,0,0,0-.25.56c.4.24.67-.46.25-.56Z" transform="translate(12.18 17.04)"/><path class="cls-1" d="M9.63,36l.06,0c.36-.24.42-1-.12-1H9.51c-1.24-.22-.7,1.66.12,1.1Z" transform="translate(12.18 17.04)"/><path class="cls-1" d="M22.78,27.32a.6.6,0,0,0,0-1.2.6.6,0,0,0,0,1.2Z" transform="translate(12.18 17.04)"/><path class="cls-1" d="M21.22,34.85a.36.36,0,0,0,0-.71.36.36,0,0,0,0,.71Z" transform="translate(12.18 17.04)"/><path class="cls-1" d="M19.47,37.05l0,0a.24.24,0,0,0,.23,0l0,0a.29.29,0,1,0-.29,0Z" transform="translate(12.18 17.04)"/><path class="cls-1" d="M18.15,36.35a.44.44,0,0,0,0-.87.44.44,0,0,0,0,.87Z" transform="translate(12.18 17.04)"/><path class="cls-1" d="M16.61,42.68a.4.4,0,0,0,0-.79.4.4,0,0,0,0,.79Z" transform="translate(12.18 17.04)"/><path class="cls-1" d="M18.08,51.39a.09.09,0,0,0,0-.18c-.12,0-.12.17,0,.18Z" transform="translate(12.18 17.04)"/><path class="cls-1" d="M17.81,51.05l0,.06a.09.09,0,0,0,.17,0l0-.06c.15-.26-.39-.27-.24,0Z" transform="translate(12.18 17.04)"/></g></g></g></svg>