<svg xmlns="http://www.w3.org/2000/svg" viewBox="0 0 113.47 53.86"><defs><style>.cls-1{fill:#998675;}.cls-2{opacity:0.12;}.cls-3{fill:#e2b97f;}.cls-4{opacity:0.19;}.cls-5{fill:#fff;opacity:0.31;}.cls-6{fill:#c1afa0;}</style></defs><g id="Слой_2" data-name="Слой 2"><g id="Layer_1" data-name="Layer 1"><path class="cls-1" d="M8.08,0h96.37a7.38,7.38,0,0,1,7.38,7.38V35.31a0,0,0,0,1,0,0H.71a0,0,0,0,1,0,0V7.37A7.37,7.37,0,0,1,8.08,0Z"/><path class="cls-2" d="M9.42,2.28h93.82A5.68,5.68,0,0,1,108.92,8V37.35a0,0,0,0,1,0,0H3.74a0,0,0,0,1,0,0V8A5.68,5.68,0,0,1,9.42,2.28Z"/><path class="cls-3" d="M66.86,34.25c0-7.73-6.36-16.95-9.77-16.95-4.36,0-10,9.22-10,17S51.51,46.38,57,46.38,66.86,42,66.86,34.25Z"/><path class="cls-4" d="M53.3,37.1c-4.4-6.31-.89-15.51.26-18.12-3.39,3-6.5,9.55-6.5,15.29C47.06,42,51.49,46.4,57,46.4c4.58,0,8.42-3.1,9.54-8.65C63.86,40.64,57.47,43.07,53.3,37.1Z"/><path class="cls-5" d="M57.91,20.4c2.43-.86,9.73,12.24,3.85,14.05S54.77,21.52,57.91,20.4Z"/><path class="cls-1" d="M69.09,34.14h-25L47,48.7a6.37,6.37,0,0,0,6.34,5.14l7.57-.1a6.36,6.36,0,0,0,6.23-5.49Z"/><path class="cls-3" d="M45.2,34.25c0-7.73-6.36-16.95-9.77-16.95-4.36,0-10,9.22-10,17s4.43,12.13,9.89,12.13S45.2,42,45.2,34.25Z"/><path class="cls-4" d="M31.64,37.1c-4.4-6.31-.89-15.51.26-18.12-3.38,3-6.49,9.55-6.49,15.29,0,7.74,4.42,12.13,9.88,12.13,4.58,0,8.42-3.1,9.55-8.65C42.2,40.64,35.82,43.07,31.64,37.1Z"/><path class="cls-5" d="M36.25,20.4c2.44-.86,9.73,12.24,3.85,14.05S33.11,21.52,36.25,20.4Z"/><path class="cls-1" d="M47.44,34.14h-25L25.34,48.7a6.38,6.38,0,0,0,6.34,5.14l7.57-.1a6.36,6.36,0,0,0,6.23-5.49Z"/><path class="cls-3" d="M23.54,34.25c0-7.73-6.35-16.95-9.77-16.95-4.35,0-10,9.22-10,17s4.42,12.13,9.88,12.13S23.54,42,23.54,34.25Z"/><path class="cls-4" d="M10,37.1c-4.41-6.31-.9-15.51.25-18.12-3.38,3-6.49,9.55-6.49,15.29C3.75,42,8.17,46.4,13.63,46.4c4.58,0,8.42-3.1,9.55-8.65C20.55,40.64,14.16,43.07,10,37.1Z"/><path class="cls-5" d="M14.6,20.4c2.43-.86,9.73,12.24,3.84,14.05S11.46,21.52,14.6,20.4Z"/><path class="cls-1" d="M25.78,34.14H.82L3.68,48.7A6.38,6.38,0,0,0,10,53.84l7.57-.1a6.36,6.36,0,0,0,6.23-5.49Z"/><path class="cls-3" d="M110.17,34.25c0-7.73-6.35-16.95-9.77-16.95-4.35,0-10,9.22-10,17s4.43,12.13,9.89,12.13S110.17,42,110.17,34.25Z"/><path class="cls-4" d="M96.62,37.1c-4.41-6.31-.9-15.51.25-18.12-3.38,3-6.49,9.55-6.49,15.29,0,7.74,4.43,12.13,9.89,12.13,4.57,0,8.42-3.1,9.54-8.65C107.18,40.64,100.79,43.07,96.62,37.1Z"/><path class="cls-5" d="M101.23,20.4c2.43-.86,9.73,12.24,3.84,14.05S98.09,21.52,101.23,20.4Z"/><path class="cls-1" d="M112.41,34.14h-25L90.32,48.7a6.37,6.37,0,0,0,6.33,5.14l7.57-.1a6.36,6.36,0,0,0,6.23-5.49Z"/><path class="cls-3" d="M88.52,34.25c0-7.73-6.36-16.95-9.77-16.95-4.36,0-10,9.22-10,17s4.43,12.13,9.89,12.13S88.52,42,88.52,34.25Z"/><path class="cls-4" d="M75,37.1c-4.4-6.31-.89-15.51.26-18.12-3.39,3-6.5,9.55-6.5,15.29,0,7.74,4.43,12.13,9.89,12.13,4.58,0,8.42-3.1,9.54-8.65C85.52,40.64,79.13,43.07,75,37.1Z"/><path class="cls-5" d="M79.57,20.4c2.43-.86,9.73,12.24,3.84,14.05S76.43,21.52,79.57,20.4Z"/><path class="cls-1" d="M90.75,34.14h-25L68.66,48.7A6.37,6.37,0,0,0,75,53.84l7.58-.1a6.37,6.37,0,0,0,6.23-5.49Z"/><path class="cls-2" d="M88.84,48.27,89.43,44l.93,4.73a6.36,6.36,0,0,0,6.33,5.14l7.57-.1a6.51,6.51,0,0,0,6.23-5.65l.82-6c-2.29,3.35-6.35,8.2-10.67,8.2-6.59,0-10.83-9.06-10.83-9.06s-5.53,9.06-10.36,9.06S67.8,41.61,67.8,41.61s-3.65,9.06-10.24,9.06-11.18-9.3-11.18-9.3-4.12,8.83-10.6,8.83-11.06-8.59-11.06-8.59-2.83,9.3-10.83,9.06c-7.58-.22-11.15-8.14-11.5-9l1.33,6.87a6.45,6.45,0,0,0,6.34,5.22l7.57-.06a6.35,6.35,0,0,0,6.23-5.47L24.45,44l.93,4.73a6.38,6.38,0,0,0,6.34,5.15l7.57-.1a6.36,6.36,0,0,0,6.23-5.49L46.11,44,47,48.72a6.37,6.37,0,0,0,6.34,5.14l7.57-.1a6.36,6.36,0,0,0,6.23-5.49L67.77,44l.93,4.73A6.37,6.37,0,0,0,75,53.86l7.57-.1A6.37,6.37,0,0,0,88.84,48.27Z"/><rect class="cls-6" y="33.98" width="113.47" height="1.88" rx="0.82"/><path class="cls-6" d="M88.53,45H26.88a2.79,2.79,0,0,1-2.75-3.28l1.14-6.29h65l1,6.33A2.79,2.79,0,0,1,88.53,45Z"/><path class="cls-1" d="M53.81,39.67h7a2.26,2.26,0,0,1,2.26,2.26v.33a0,0,0,0,1,0,0H51.56a0,0,0,0,1,0,0v-.33A2.26,2.26,0,0,1,53.81,39.67Z"/></g></g></svg>