<svg xmlns="http://www.w3.org/2000/svg" xmlns:xlink="http://www.w3.org/1999/xlink" viewBox="0 0 65.79 73.22"><defs><style>.cls-1{fill:none;}.cls-2{fill:#f9eacd;}.cls-16,.cls-3,.cls-6{opacity:0.15;}.cls-16,.cls-4{fill:#fff;}.cls-4{opacity:0.21;}.cls-5{fill:#7a5031;}.cls-7{fill:#fcaece;}.cls-8{clip-path:url(#clip-path);}.cls-9{fill:#c69032;}.cls-10{opacity:0.12;}.cls-11{clip-path:url(#clip-path-2);}.cls-12{fill:#e2af4b;}.cls-13{fill:#f4ba89;}.cls-14{opacity:0.11;}.cls-15{fill:#f47d7d;}</style><clipPath id="clip-path"><path class="cls-1" d="M51.54,68.89c-2.41-3.68-14.29-41.62-14.29-41.62S56.71,25,55.72,44.53C55.38,51.19,51.66,69.08,51.54,68.89Z"/></clipPath><clipPath id="clip-path-2"><path class="cls-1" d="M51.56,70.63c2-3.94,9.29-43,9.29-43s-19.59,0-16.31,19.32C45.66,53.51,51.46,70.84,51.56,70.63Z"/></clipPath></defs><g id="Слой_2" data-name="Слой 2"><g id="Layer_1" data-name="Layer 1"><path class="cls-2" d="M40.36,12.14c-.07-1.42.84-2.69,1.71-3.82a10.37,10.37,0,0,1,2.4-2.5,7.3,7.3,0,0,1,2.61-1c3.52-.67,7.54.59,9.45,3.62A14.29,14.29,0,0,1,58,12a13.91,13.91,0,0,1,.78,4.17A5,5,0,0,1,57.12,20a7.51,7.51,0,0,1-4,1.26c-2.53.29-5.16.58-7.6-.18-3.27-1-5.91-4.18-5.78-7.6A1.4,1.4,0,0,1,40.36,12.14Z"/><path class="cls-3" d="M57.83,15a2.89,2.89,0,0,1-.66.54c-.23.12-.48.17-.7.3,0,0,0,.13,0,.14A1.78,1.78,0,0,0,58,15.1c.05-.08-.08-.17-.15-.1Z"/><path class="cls-3" d="M55.47,15.94a2.26,2.26,0,0,1-.41.15c-2.47.47-.38-.15-.73-.12a.93.93,0,0,0-.48.12c-.43.18-.81.54-1.31.54-.33,0-.66-.18-1-.2-.08,0-.11.11,0,.14a1.9,1.9,0,0,0,2,0,1.29,1.29,0,0,1,1-.27c.09,0,.16.07.25.08a1.26,1.26,0,0,0,.82-.32c.05,0,0-.13,0-.1Z"/><path class="cls-3" d="M57.5,16.68a4,4,0,0,0-.74.46c-.09.07,0,.19.09.2a1,1,0,0,0,.81-.5.12.12,0,0,0-.16-.16Z"/><path class="cls-3" d="M42.9,18.24A2.53,2.53,0,0,0,45,19.47c1.08.17,1.84.94,2.91.44.06,0,0-.13,0-.13a2.83,2.83,0,0,1-1.47-.35,2.66,2.66,0,0,0-.53-.21c-1.12-.27-2,0-2.82-1.06a.07.07,0,1,0-.12.08Z"/><path class="cls-3" d="M51.92,18.09c-.92.67-1.69.05-2.63,0a3.94,3.94,0,0,0-.7,0,5.63,5.63,0,0,1-2.53-.62.07.07,0,0,0-.07.12c1.35,1,2.55.58,4.06.91.7.15,1.48.34,1.94-.36a0,0,0,0,0-.07-.06Z"/><path class="cls-3" d="M41.87,11.19c-.07,1.22,1.2.91,1.79,1.54a2.57,2.57,0,0,0,.71.68,1.52,1.52,0,0,0,1.12.15.1.1,0,0,0,0-.19,2.88,2.88,0,0,1-1.36-.5c-.14-.15-.18-.36-.33-.5a.81.81,0,0,0-.39-.23c-.2-.07-.41-.05-.62-.12a1.26,1.26,0,0,1-.8-.85c0-.06-.1,0-.11,0Z"/><path class="cls-3" d="M57.25,12.54c0-.14,0,0,0,0-.09.16,0,.31-.17.46-.25.32-.62.29-1,.27s-.84-.06-1,.29a.09.09,0,0,0,.11.13,2.25,2.25,0,0,1,.93-.16,1.78,1.78,0,0,0,.79-.07.89.89,0,0,0,.53-1s0-.07-.09-.07-.11,0-.12.11,0,0,0,0Z"/><path class="cls-3" d="M40.88,14.3a1.25,1.25,0,0,0,.48.85,1.43,1.43,0,0,0,.5.18,1.47,1.47,0,0,1,.7.36.07.07,0,0,0,.12-.06c0-.29-.25-.44-.5-.52a1.89,1.89,0,0,1-.77-.29,2.55,2.55,0,0,1-.37-.59c0-.1-.18,0-.16.07Z"/><path class="cls-3" d="M43.29,16.83a1.3,1.3,0,0,0,1,.66.1.1,0,0,0,.06-.17,2.85,2.85,0,0,0-.37-.23,3.21,3.21,0,0,1-.52-.39c-.09-.06-.22,0-.16.13Z"/><path class="cls-3" d="M56.07,18.87c-.31.15-.52.42-.82.57-.59.29-1-.07-1.5-.13a2.86,2.86,0,0,0-1.61.45c-.1.06-.06.26.08.24a5.46,5.46,0,0,0,1-.34c.56-.17.85.12,1.34.17.72.06,1-.48,1.61-.79.12-.06,0-.23-.11-.17Z"/><path class="cls-3" d="M55.07,18.31c-.15.31-.85,0-1.13.08a.1.1,0,0,0,0,.18c.29.17,1.28.35,1.34-.18,0-.11-.14-.19-.19-.08Z"/><path class="cls-3" d="M43.48,7.73a1.85,1.85,0,0,1,.49.71,1,1,0,0,0,.3.39A1.53,1.53,0,0,0,45.36,9a.09.09,0,0,0,.08-.08V8.88a.13.13,0,0,0-.07-.12,1.38,1.38,0,0,0-.46,0c-.41,0-.58-.29-.73-.62s-.29-.56-.61-.55a.11.11,0,0,0-.08.19Z"/><path class="cls-3" d="M53,13.45a1,1,0,0,0-1-.17,3.07,3.07,0,0,1-1.2.18,3.13,3.13,0,0,1-1.37-.8c-.09-.06-.23,0-.16.13a2.23,2.23,0,0,0,1.49.9c.79.12,1.43-.44,2.23-.18,0,0,.06,0,0-.06Z"/><path class="cls-3" d="M49.13,13.56A.92.92,0,0,0,50,14a.1.1,0,0,0,0-.18,8.13,8.13,0,0,0-.83-.43.09.09,0,0,0-.12.13Z"/><path class="cls-3" d="M56.27,9.92a1.15,1.15,0,0,1-.33.49,1.22,1.22,0,0,1-.65.14.07.07,0,0,0,0,.14.82.82,0,0,0,1.13-.75.07.07,0,0,0-.12,0Z"/><path class="cls-3" d="M53,15.59c-.11.38-1.17.24-1.48.34a.08.08,0,0,0,0,.15,3.54,3.54,0,0,0,1.17,0c.26,0,.48-.15.53-.42a.11.11,0,0,0-.22-.05Z"/><path class="cls-3" d="M49.27,17c-.4-.29-.83,0-1.29-.1A9.26,9.26,0,0,1,46,16.16c-.07,0-.1.07,0,.11a6.41,6.41,0,0,0,1.54.79c.59.19,1.11,0,1.72,0a0,0,0,0,0,0-.05Z"/><path class="cls-3" d="M43.66,13.57a1.94,1.94,0,0,0,1,.75c.52.19,1.07,0,1.56.36a.09.09,0,0,0,.13-.11c-.11-.35-.4-.43-.74-.46a2.73,2.73,0,0,1-1.79-.64c-.06-.05-.17,0-.12.1Z"/><path class="cls-3" d="M51.19,19.34a3.83,3.83,0,0,0-.94.37.09.09,0,0,0,0,.15,1,1,0,0,0,1-.35c.06-.08,0-.21-.11-.17Z"/><path class="cls-3" d="M53.13,21.22a7.51,7.51,0,0,0,4-1.26,4.88,4.88,0,0,0,1.6-3.45A13.58,13.58,0,0,1,44,14.69c-3.68-3.37-.59-7.25,1.44-9.37a6,6,0,0,0-1,.5,10.37,10.37,0,0,0-2.4,2.5c-.87,1.13-1.78,2.4-1.71,3.82a1.4,1.4,0,0,0-.61,1.3c-.13,3.42,2.51,6.59,5.78,7.6C48,21.8,50.6,21.51,53.13,21.22Z"/><path class="cls-4" d="M52.92,6.61c1.91.77,6,5.53.84,6.05s-8-2.51-7.37-3.84S48.83,5,52.92,6.61Z"/><path class="cls-5" d="M53.75,19.44c.09-1.42-.81-2.7-1.66-3.84a10.58,10.58,0,0,0-2.37-2.53,7.31,7.31,0,0,0-2.6-1c-3.51-.7-7.55.5-9.49,3.51a14.26,14.26,0,0,0-1.47,3.51,13.62,13.62,0,0,0-.83,4.16,4.94,4.94,0,0,0,1.57,3.82,7.49,7.49,0,0,0,4,1.31c2.54.32,5.16.64,7.61-.09,3.28-1,6-4.11,5.87-7.53A1.42,1.42,0,0,0,53.75,19.44Z"/><g class="cls-6"><path class="cls-7" d="M48.53,20a.81.81,0,0,0,0-1.62.81.81,0,0,0,0,1.62Z"/></g><path class="cls-3" d="M37.89,25.3a3.26,3.26,0,0,0,.8.32c.25.05.5,0,.75.08a.08.08,0,0,1,0,.14,1.78,1.78,0,0,1-1.67-.4c-.08-.06,0-.18.1-.14Z"/><path class="cls-3" d="M40.43,25.49a3.22,3.22,0,0,0,.43,0c2.5-.29.32-.26.66-.34a.94.94,0,0,1,.5,0,3.22,3.22,0,0,0,1.41.12c.31-.1.58-.37.9-.49a.08.08,0,0,1,.07.13,1.89,1.89,0,0,1-1.89.57,1.34,1.34,0,0,0-1,0c-.08,0-.13.12-.21.15a1.22,1.22,0,0,1-.88-.06c-.06,0-.06-.12,0-.11Z"/><path class="cls-3" d="M38.72,26.8a5,5,0,0,1,.84.22c.1.05,0,.18,0,.22A1,1,0,0,1,38.6,27a.12.12,0,0,1,.12-.2Z"/><path class="cls-3" d="M53.12,23.93a2.57,2.57,0,0,1-1.62,1.8c-1,.48-1.48,1.44-2.64,1.28-.07,0-.06-.12,0-.13a2.75,2.75,0,0,0,1.29-.78,3.65,3.65,0,0,1,.44-.36c1-.58,1.94-.57,2.38-1.85a.08.08,0,0,1,.15,0Z"/><path class="cls-3" d="M44.46,26.48c1.07.37,1.63-.45,2.5-.81a4.92,4.92,0,0,1,.68-.18,5.58,5.58,0,0,0,2.23-1.34c.07-.06.15,0,.1.1-1,1.34-2.25,1.31-3.6,2.07-.62.36-1.31.77-2,.24,0,0,0-.09.05-.08Z"/><path class="cls-3" d="M52,16.9c.43,1.14-.87,1.22-1.25,2a2.55,2.55,0,0,1-.48.86,1.53,1.53,0,0,1-1,.48.1.1,0,0,1-.05-.18c.39-.26.92-.44,1.15-.89.1-.18.07-.39.16-.58a1,1,0,0,1,.31-.33c.18-.12.38-.18.55-.3a1.25,1.25,0,0,0,.52-1.05c0-.06.08-.07.11,0Z"/><path class="cls-3" d="M37.72,22.78c-.1-.12,0,0,0,0s.15.29.3.39a1,1,0,0,0,1,0c.32-.12.78-.3,1.06,0,.06.06,0,.17-.06.16a2.25,2.25,0,0,0-.93.12,1.64,1.64,0,0,1-.78.17.87.87,0,0,1-.8-.77.08.08,0,0,1,.07-.09.1.1,0,0,1,.14.07s0,0,0,0Z"/><path class="cls-3" d="M53.86,19.57a1.23,1.23,0,0,1-.2.95,1.3,1.3,0,0,1-.42.32,1.41,1.41,0,0,0-.56.55.08.08,0,0,1-.14,0c-.1-.28.11-.49.32-.65s.5-.25.65-.51a2.55,2.55,0,0,0,.18-.67c0-.11.16-.07.17,0Z"/><path class="cls-3" d="M52.32,22.71a1.33,1.33,0,0,1-.74.92.11.11,0,0,1-.12-.15,3,3,0,0,1,.29-.32,5.08,5.08,0,0,0,.38-.53.11.11,0,0,1,.19.08Z"/><path class="cls-3" d="M40.73,28.46c.34.06.63.25,1,.3.64.1.88-.35,1.39-.56a2.85,2.85,0,0,1,1.66-.06.14.14,0,0,1,0,.26,5.47,5.47,0,0,1-1.07,0c-.59,0-.78.37-1.24.56-.66.28-1.13-.14-1.76-.27-.13,0-.08-.21,0-.2Z"/><path class="cls-3" d="M41.52,27.64c.24.25.82-.25,1.1-.27a.1.1,0,0,1,.07.17c-.22.25-1.11.71-1.33.23,0-.1.08-.23.16-.13Z"/><path class="cls-3" d="M49.42,14.08a1.67,1.67,0,0,0-.25.81,1.26,1.26,0,0,1-.17.47,1.59,1.59,0,0,1-1,.51.08.08,0,0,1-.1,0v-.06a.17.17,0,0,1,0-.14,1.27,1.27,0,0,1,.43-.18c.38-.14.46-.45.51-.82s.1-.62.42-.7a.11.11,0,0,1,.13.16Z"/><path class="cls-3" d="M42.09,22.37A1,1,0,0,1,43,21.9a3,3,0,0,0,1.19-.19,3.16,3.16,0,0,0,1.07-1.17c.07-.09.23-.05.19.07a2.22,2.22,0,0,1-1.15,1.31c-.72.35-1.5,0-2.18.49,0,0-.07,0,0,0Z"/><path class="cls-3" d="M45.77,21.32a.93.93,0,0,1-.72.74.1.1,0,0,1-.1-.16,8.36,8.36,0,0,1,.67-.66.09.09,0,0,1,.15.08Z"/><path class="cls-3" d="M37.86,20a1.21,1.21,0,0,0,.47.37,1.08,1.08,0,0,0,.66-.06.08.08,0,0,1,.07.13.82.82,0,0,1-1.3-.38c0-.05.06-.1.1-.06Z"/><path class="cls-3" d="M42.73,24.4c.21.33,1.19-.11,1.52-.12a.08.08,0,0,1,0,.15,3.62,3.62,0,0,1-1.12.33.56.56,0,0,1-.64-.24.12.12,0,0,1,.2-.12Z"/><path class="cls-3" d="M46.68,24.69c.29-.39.77-.29,1.2-.48a9.24,9.24,0,0,0,1.62-1.33s.11.05.07.09a6.18,6.18,0,0,1-1.23,1.22c-.51.36-1.07.29-1.63.54,0,0-.05,0,0,0Z"/><path class="cls-3" d="M51,19.71a1.87,1.87,0,0,1-.69,1c-.44.34-1,.38-1.38.82-.05.06-.16,0-.16-.07,0-.37.25-.53.57-.66a2.75,2.75,0,0,0,1.51-1.14c0-.08.18,0,.15.06Z"/><path class="cls-3" d="M45.53,27.45a4.26,4.26,0,0,1,1,.08.08.08,0,0,1,0,.15,1,1,0,0,1-1.08,0,.11.11,0,0,1,.05-.2Z"/><path class="cls-3" d="M44.23,29.83a7.48,7.48,0,0,1-4.17,0A4.86,4.86,0,0,1,37.5,27,13.56,13.56,0,0,0,51,20.87c2.51-4.31-1.6-7.08-4.17-8.51a5.68,5.68,0,0,1,1.08.19,10.39,10.39,0,0,1,3,1.67c1.17.82,2.41,1.75,2.77,3.13.5.07.8.58,1,1.06,1.15,3.22-.42,7-3.24,9C49.34,28.84,46.74,29.35,44.23,29.83Z"/><path class="cls-4" d="M40.08,15.83c-1.6,1.31-4.1,7.07,1,6S48,17.06,47,16,43.49,13,40.08,15.83Z"/><path class="cls-7" d="M43.31,23c-.39-1.37.21-2.81.79-4.11a10.38,10.38,0,0,1,1.76-3,7.26,7.26,0,0,1,2.32-1.55c3.28-1.46,7.47-1.15,10,1.36a14.5,14.5,0,0,1,2.2,3.1,14.06,14.06,0,0,1,1.71,3.89,5,5,0,0,1-.71,4.07,7.5,7.5,0,0,1-3.59,2.13c-2.4.87-4.89,1.75-7.44,1.57A8.08,8.08,0,0,1,43,24.37,1.42,1.42,0,0,1,43.31,23Z"/><g class="cls-6"><path class="cls-7" d="M48.73,22.76a.82.82,0,0,0,0-1.63.82.82,0,0,0,0,1.63Z"/></g><path class="cls-3" d="M61,21.75a2.86,2.86,0,0,1-.52.68c-.19.18-.42.28-.61.46a.08.08,0,0,0,.06.13,1.8,1.8,0,0,0,1.24-1.2c0-.1-.11-.15-.17-.07Z"/><path class="cls-3" d="M58.88,23.21a2,2,0,0,1-.35.24c-2.3,1-.41-.06-.74.05a.92.92,0,0,0-.45.23c-.37.27-.66.71-1.14.82s-.69,0-1,0c-.07,0-.07.13,0,.15a1.93,1.93,0,0,0,1.92-.48,1.39,1.39,0,0,1,.87-.49c.09,0,.18,0,.26,0A1.19,1.19,0,0,0,59,23.3c0-.05,0-.13-.07-.09Z"/><path class="cls-3" d="M61,23.47a3.91,3.91,0,0,0-.61.61c-.07.1,0,.19.13.18a1,1,0,0,0,.68-.68.12.12,0,0,0-.2-.11Z"/><path class="cls-3" d="M47.17,28.33a2.55,2.55,0,0,0,2.31.72c1.08-.08,2,.49,2.93-.24.05,0,0-.13-.07-.11a2.87,2.87,0,0,1-1.51,0,2.8,2.8,0,0,0-.56-.08c-1.15,0-2,.49-3-.39a.08.08,0,0,0-.11.11Z"/><path class="cls-3" d="M55.92,26.12c-.73.86-1.63.43-2.57.57a5.19,5.19,0,0,0-.66.19,5.48,5.48,0,0,1-2.61,0A.07.07,0,0,0,50,27c1.54.64,2.61,0,4.16-.05.72,0,1.52,0,1.8-.79,0,0,0-.08-.08,0Z"/><path class="cls-3" d="M44.57,21.7c.2,1.21,1.36.61,2.08,1.09a2.7,2.7,0,0,0,.86.5,1.55,1.55,0,0,0,1.12-.11.1.1,0,0,0-.05-.18,2.82,2.82,0,0,1-1.44-.18c-.18-.11-.26-.31-.44-.41a.84.84,0,0,0-.43-.14c-.21,0-.42.05-.63,0a1.27,1.27,0,0,1-1-.64c0-.06-.1,0-.09,0Z"/><path class="cls-3" d="M59.84,19.5c0-.16,0,0,0,0,0,.17,0,.32,0,.49-.18.36-.54.42-.9.48s-.82.14-.93.52a.1.1,0,0,0,.14.11,2,2,0,0,1,.86-.38,1.8,1.8,0,0,0,.75-.25.88.88,0,0,0,.3-1.07s-.07-.06-.11-.05-.09.06-.08.13,0,0,0,0Z"/><path class="cls-3" d="M44.31,25a1.25,1.25,0,0,0,.66.71,1.19,1.19,0,0,0,.53.06,1.43,1.43,0,0,1,.76.19.08.08,0,0,0,.11-.08c0-.29-.35-.37-.61-.39a1.85,1.85,0,0,1-.81-.11,2.58,2.58,0,0,1-.5-.49c-.07-.08-.18,0-.14.11Z"/><path class="cls-3" d="M47.24,26.87a1.3,1.3,0,0,0,1.11.41.1.1,0,0,0,0-.18A2.16,2.16,0,0,0,48,27a4.53,4.53,0,0,1-.6-.26.1.1,0,0,0-.12.16Z"/><path class="cls-3" d="M60.14,25.92c-.26.22-.41.53-.67.75-.5.41-.94.15-1.49.22a2.89,2.89,0,0,0-1.46.8c-.08.09,0,.27.13.22a4.74,4.74,0,0,0,.91-.56c.51-.3.86-.09,1.35-.15.71-.1.89-.7,1.38-1.13.1-.09,0-.23-.15-.15Z"/><path class="cls-3" d="M59,25.61c-.07.34-.83.21-1.08.34a.1.1,0,0,0,0,.18c.33.1,1.33,0,1.27-.49,0-.11-.18-.15-.21,0Z"/><path class="cls-3" d="M45.34,18a1.73,1.73,0,0,1,.63.57,1.07,1.07,0,0,0,.39.31,1.58,1.58,0,0,0,1.11-.06.07.07,0,0,0,.05-.09l0-.06a.13.13,0,0,0-.09-.1,1.26,1.26,0,0,0-.47.05c-.39.08-.62-.14-.85-.43s-.41-.49-.72-.4a.12.12,0,0,0,0,.21Z"/><path class="cls-3" d="M55.87,21.37a1,1,0,0,0-1,.07,3.28,3.28,0,0,1-1.12.44,3.14,3.14,0,0,1-1.52-.46c-.1,0-.22.07-.13.16a2.23,2.23,0,0,0,1.66.54c.8-.07,1.3-.76,2.13-.69,0,0,0-.05,0-.06Z"/><path class="cls-3" d="M52.17,22.34a.9.9,0,0,0,1,.26.09.09,0,0,0,0-.17,5.78,5.78,0,0,0-.91-.23.09.09,0,0,0-.09.14Z"/><path class="cls-3" d="M58.29,17.17a1.13,1.13,0,0,1-.21.55,1.19,1.19,0,0,1-.6.28.08.08,0,0,0,0,.15.82.82,0,0,0,.93-1,.06.06,0,0,0-.12,0Z"/><path class="cls-3" d="M56.36,23.44c0,.4-1.09.51-1.37.68-.07,0,0,.14,0,.14A3.75,3.75,0,0,0,56.16,24a.56.56,0,0,0,.42-.54.11.11,0,0,0-.22,0Z"/><path class="cls-3" d="M53.1,25.7c-.45-.19-.81.15-1.27.2a9.28,9.28,0,0,1-2.08-.32c-.07,0-.07.1,0,.12a6.47,6.47,0,0,0,1.68.42c.62.05,1.07-.3,1.67-.37,0,0,0,0,0-.05Z"/><path class="cls-3" d="M46.85,23.61a1.88,1.88,0,0,0,1.1.51c.55.06,1.06-.19,1.6,0a.1.1,0,0,0,.11-.14.71.71,0,0,0-.83-.27A2.77,2.77,0,0,1,47,23.49c-.08,0-.17.06-.1.12Z"/><path class="cls-3" d="M55.5,27.5a4,4,0,0,0-.83.58.08.08,0,0,0,.06.14,1,1,0,0,0,.91-.58c0-.09,0-.2-.14-.14Z"/><path class="cls-3" d="M57.82,28.88a7.5,7.5,0,0,0,3.59-2.13A4.84,4.84,0,0,0,62.18,23a13.53,13.53,0,0,1-14.73,1.59c-4.36-2.43-2.23-6.91-.74-9.45a6.47,6.47,0,0,0-.85.72,10.38,10.38,0,0,0-1.76,3c-.58,1.3-1.18,2.74-.79,4.11a1.42,1.42,0,0,0-.3,1.4,8.08,8.08,0,0,0,7.37,6.08C52.93,30.63,55.42,29.75,57.82,28.88Z"/><path class="cls-4" d="M54.27,14.72c2,.31,7.13,4,2.2,5.69s-8.35-.62-8-2.05S49.91,14.05,54.27,14.72Z"/><g class="cls-8"><rect class="cls-9" x="39.86" y="25" width="18.66" height="46.6" transform="translate(103.73 90.48) rotate(173.24)"/><path class="cls-10" d="M35.79,56.82l6.5,3.9-.06.06.52.53.2-.19,2.74,1.65-1.55,1.52.52.53,1.69-1.66,3.9,2.34-4.68,4.6.52.53,4.82-4.73,5.78,3.47.38-.64-5.62-3.37,3.25-3.19,2,1.22.38-.64-1.87-1.12,2.29-2.24.24.14.38-.63-.08,0,5.42-5.32L63,53l-5.55,5.46-3.9-2.34,8.53-8.39-.52-.53-5.12,5-2.74-1.65L56,48.34l1.33.79.38-.63-1.16-.7,3.64-3.58-.52-.53-3.78,3.72-3.61-2.17L55,42.47l2.36,1.42.39-.63-2.21-1.33,2.29-2.24.57.35.38-.64-.41-.25,1.68-1.64L59.57,37l-1.81,1.78L55,37.11,58.18,34l-.52-.53-3.3,3.25-3.38-2,5.85-5.76-.52-.53-6,5.89-2.75-1.64,7.35-7.23-.51-.53-7.49,7.36-3-1.82,7.74-7.6-.52-.53L43.23,30l-5.31-3.19-.38.63,5.15,3.1L40.4,32.82,36.88,30.7l-.38.64,3.36,2L37,36.12,36.75,36l-.38.63.13.08-2.78,2.73.52.53,2.91-2.87,3,1.82L37.9,41.11,35.72,39.8l-.38.64,2,1.21L37,42l.52.53.48-.46,2.74,1.64-1.83,1.8.52.53,2-1.93,3.38,2-3,3-4.54-2.72-.38.63,4.38,2.63-1,1,.52.53L41.89,50l2.75,1.65L42.36,53.9,36.2,50.2l-.38.64L46.08,57l-3.24,3.19-6.67-4Zm9.51-4.77,3.61,2.17-2.28,2.24L43,54.29Zm4.27,2.56,2.74,1.65L50,58.5l-2.74-1.64Zm-3.73-3.1,3-3,3.62,2.17-3,3Zm-.39-5,2.74,1.65-3,3-2.75-1.65ZM46,46l2.28-2.24L51,45.38l-2.28,2.24Zm-4-2.42,2.28-2.24,3.38,2-2.28,2.24ZM47.6,38,51,40,48.17,42.8l-3.38-2Zm-3.47,2.37-2.74-1.65L44.2,36l2.74,1.65Zm-3.29-1.12,2.74,1.65L41.3,43.16l-2.74-1.65Zm-.33-5.51,3,1.82-2.81,2.76-3-1.82Zm5.86-1L44.09,35l-3-1.82L43.34,31Zm3.4,2-2.28,2.24-2.75-1.64L47,33.18Zm4,2.42L51.53,39.5l-3.38-2,2.28-2.25Zm1.12,4.29-2.75-1.65,2.29-2.24,2.74,1.65Zm-3.36,3.3-2.75-1.65,2.82-2.76,2.74,1.65ZM53,50.19,49.4,48l2.28-2.25,3.62,2.17Zm-.15,5.53-2.75-1.65,3-3,2.75,1.65Zm1.73,5.52-3.9-2.34L53,56.65,56.87,59ZM46.9,62.62l3.24-3.19L54,61.78,50.8,65Zm-3.41-2,3.25-3.19L49.48,59l-3.24,3.19Z"/></g><g class="cls-11"><rect class="cls-12" x="42.13" y="26.62" width="18.66" height="46.6"/><path class="cls-10" d="M65.33,56.21,59.18,61l-3.6-2.79L65,50.86l-.45-.59-5.67,4.39-2.54-2,2.54-2,1.22.94.45-.58-1.07-.83,4-3.13-.45-.59-4.19,3.25-3.34-2.58,3.12-2.42,2.18,1.69.46-.59-2-1.57,2.53-2,.53.41.45-.58-.38-.29,1.86-1.44-.45-.59-2,1.56-2.53-2,2.79-2.17,3.23,2.51.46-.59L62.7,36.86l.12-.09-.45-.59-.27.21L59,34l3.1-2.39L61.62,31,58.37,33.5l-2.53-2,4.75-3.67-.45-.59-4.9,3.8L46.5,24.31l-.45.59,8.58,6.64-2.79,2.17-8.3-6.43-.46.59,8.15,6.31-2.53,2L42.05,31l-.45.59,6.5,5L45,39l-3.67-2.84-.45.59,3.51,2.72-2.53,2-2-1.56-.46.59,1.86,1.44-.37.29.45.58.53-.41,2.53,2-2,1.57.45.59L45,44.81l3.12,2.42-3.34,2.58-4.19-3.25-.45.59,4,3.13-1.07.83.46.58,1.22-.94,2.53,2-2.53,2-5.67-4.39-.46.59,9.47,7.32L44.5,61l-6.16-4.76-.45.58,6,4.65-.07.05.46.59.22-.17,2.53,2L45.31,65.2l.45.58,1.87-1.45,3.6,2.79-5.18,4,.45.59,5.34-4.13,5.33,4.13.46-.59-5.19-4L56,64.33l1.88,1.45.45-.58-1.72-1.33,2.53-2,.22.17.45-.59-.07-.05,6-4.65Zm-7-1.08L55,57.71l-2.54-2,3.34-2.59Zm-3.94,3-2.53,2-2.53-2,2.53-2Zm-2.53-2.89L48.5,52.7l3.34-2.58,3.33,2.58Zm6.47-5-2.53,2-3.34-2.59,2.54-2Zm-6.47-1.09-2.53-2,2.53-2,2.53,2ZM55,46.76l-2.54-2,3.12-2.42,2.53,2Zm0-4.84-3.12,2.41-3.12-2.41,3.12-2.42ZM52.44,39l2.54-2,3.11,2.42-2.53,2Zm8.79,2.89L58.7,43.87l-2.53-1.95,2.53-2Zm.26-5.06L58.7,39,55.58,36.6l2.79-2.16ZM55.24,32l2.53,2L55,36.14l-2.54-2Zm-3.4,2.63,2.53,2-2.53,2-2.53-2ZM48.7,37.07l2.53,2-3.12,2.42-2.53-2Zm-6.25,4.85L45,40l2.53,2L45,43.87Zm3.13,2.42,2.53-2,3.12,2.42-2.53,2Zm-.21,5.94,3.33-2.59,2.53,2L47.9,52.24Zm0,4.85,2.53-2,3.33,2.59-2.53,2Zm-.27,6.31,3.6-2.79,2.53,2-3.6,2.79Zm6.74,5.21-3.6-2.78,3.6-2.79,3.6,2.79ZM56,63.4l-3.6-2.79,2.54-2,3.59,2.79Z"/></g><path class="cls-13" d="M10.2,45.43h6a0,0,0,0,1,0,0V67.09a2.81,2.81,0,0,1-2.81,2.81H13a2.81,2.81,0,0,1-2.81-2.81V45.43A0,0,0,0,1,10.2,45.43Z"/><rect class="cls-14" x="10.16" y="47.82" width="5.98" height="4.03"/><path class="cls-15" d="M18.38,0,8.33.08A7,7,0,0,0,1.39,6.79L0,40.8a7,7,0,0,0,7,7.29H19.37a7,7,0,0,0,7-7.2L25.43,6.81A7,7,0,0,0,18.38,0Z"/><rect class="cls-14" x="14.68" y="5.8" width="5.32" height="35.99" rx="2.5"/><rect class="cls-14" x="6.53" y="5.8" width="5.32" height="35.99" rx="2.5"/><path class="cls-14" d="M7,48.09h12.3a7.07,7.07,0,0,0,7.12-6.82C24.78,46,11.75,46.55,6.24,42S1.78,9.06,2.21,4a7,7,0,0,0-.8,3L0,40.84A6.93,6.93,0,0,0,7,48.09Z"/><path class="cls-16" d="M16.85,1.54c5.32,0,7.72.67,8,12.11s-1.72,12.76-3.45,12.76.93-18.48-1.33-19.68S13.13,1.54,16.85,1.54Z"/></g></g></svg>