<svg xmlns="http://www.w3.org/2000/svg" viewBox="0 0 108.36 81.82"><defs><style>.cls-1{fill:#88d5ed;}.cls-2{fill:#fff;}.cls-3{fill:#658ec1;}.cls-4{fill:#69b2d6;}.cls-5{fill:#f9eacd;}.cls-6{fill:#ead7b5;}.cls-7{fill:#ed2b2b;}.cls-8{fill:#f43d3d;}.cls-9{fill:#ff4343;}.cls-10{fill:#ff5a5a;}.cls-11{fill:#d61818;}.cls-12{fill:#f73131;}.cls-13{fill:#90b700;}.cls-14{fill:#ffca61;}.cls-15{fill:#ffe3a6;}.cls-16{fill:#f4b12c;}.cls-17{fill:#f9b843;}.cls-18{fill:#71aa21;}</style></defs><g id="Слой_2" data-name="Слой 2"><g id="Layer_1" data-name="Layer 1"><ellipse class="cls-1" cx="54.18" cy="53" rx="54.18" ry="28.82"/><path class="cls-2" d="M54,78.72c-27.63,0-50.11-11.51-50.11-25.65S26.32,27.41,54,27.41s50.11,11.51,50.11,25.66S81.58,78.72,54,78.72ZM54,28.6C27,28.6,5,39.58,5,53.07S27,77.53,54,77.53s48.91-11,48.91-24.46S80.92,28.6,54,28.6Z"/><path class="cls-3" d="M54.06,39.66c16.17,0,29.3,6.58,30.85,15A9.25,9.25,0,0,0,85.22,53c0-9.16-14-16.58-31.16-16.58S22.91,43.84,22.91,53a9.22,9.22,0,0,0,.3,1.62C24.77,46.24,37.9,39.66,54.06,39.66Z"/><path class="cls-4" d="M54.06,69.57c16.17,0,29.3-6.57,30.85-14.95-1.55-8.38-14.68-15-30.85-15s-29.29,6.58-30.85,15C24.77,63,37.9,69.57,54.06,69.57Z"/><path class="cls-5" d="M82.92,31.84c3-3.2,4.81-4.88,8-7.9,1.36-1.27,8.65-7.14,10.77-10.37A7.47,7.47,0,0,0,98.6,13L77.16,32.62l7.54,2.24.76-.66a8.61,8.61,0,0,1-2.54-1.51A.6.6,0,0,1,82.92,31.84Z"/><path class="cls-6" d="M103.75,16.08a3.22,3.22,0,0,0-2-2.51C99.6,16.8,92.31,22.67,91,23.94c-3.22,3-5,4.7-8,7.9a.6.6,0,0,0,0,.85,8.61,8.61,0,0,0,2.54,1.51C88.16,31.83,97.44,23.54,103.75,16.08Z"/><path class="cls-5" d="M68.48,25.36c3-3.2,4.81-4.88,8-7.9,1.35-1.27,8.65-7.14,10.77-10.37a7.5,7.5,0,0,0-3.13-.54L62.72,26.14l7.54,2.24s.28-.23.77-.66a8.66,8.66,0,0,1-2.55-1.51A.61.61,0,0,1,68.48,25.36Z"/><path class="cls-6" d="M89.32,9.6a3.25,3.25,0,0,0-2-2.51c-2.12,3.23-9.42,9.1-10.77,10.37-3.23,3-5,4.7-8,7.9a.61.61,0,0,0,0,.85A8.66,8.66,0,0,0,71,27.72C73.72,25.35,83,17.06,89.32,9.6Z"/><path class="cls-5" d="M52.39,21.49c3-3.2,4.81-4.87,8-7.9,1.35-1.26,8.65-7.14,10.77-10.37a7.5,7.5,0,0,0-3.13-.54L46.63,22.28l7.54,2.24.77-.67a8.66,8.66,0,0,1-2.55-1.51A.61.61,0,0,1,52.39,21.49Z"/><path class="cls-6" d="M73.23,5.74a3.27,3.27,0,0,0-2-2.52c-2.12,3.23-9.42,9.11-10.77,10.37-3.23,3-5,4.7-8,7.9a.61.61,0,0,0,0,.85,8.66,8.66,0,0,0,2.55,1.51A201.29,201.29,0,0,0,73.23,5.74Z"/><path class="cls-5" d="M36.45,18.82c3-3.2,4.81-4.88,8-7.9C45.85,9.65,53.14,3.78,55.26.55A7.47,7.47,0,0,0,52.14,0L30.7,19.6l7.54,2.24.76-.66a8.78,8.78,0,0,1-2.55-1.51A.62.62,0,0,1,36.45,18.82Z"/><path class="cls-6" d="M57.29,3.06a3.2,3.2,0,0,0-2-2.51c-2.12,3.23-9.41,9.1-10.77,10.37-3.23,3-5,4.7-8,7.9a.62.62,0,0,0,0,.85A8.78,8.78,0,0,0,39,21.18C41.7,18.81,51,10.52,57.29,3.06Z"/><path class="cls-7" d="M81.19,23.29a12.47,12.47,0,0,0-1.9-.89h0c-6.61,1.45-14.11,6-18.5,15.43-2,4.25-5.95,9.25-10.8,8.46-6.32-1-12.46-5.88-17.66-9.35S21.69,29.59,16.66,25.57A13.53,13.53,0,0,0,21,39.92c5.88,5.22,11.53,10,21.34,19.66s30.75,8.73,30.75,8.73c9.42.43,18.31-6.89,21.79-11.88S104,37.49,81.19,23.29Z"/><path class="cls-8" d="M50,46.29c4.85.79,8.82-4.21,10.8-8.46,4.39-9.45,11.89-14,18.5-15.43h0c-6.93-2.71-26-6.82-30.84-6.75-5.36.08-14.82-3.7-14.82-3.7S28.32,8,21,17.34a23.68,23.68,0,0,0-4.38,8.23c5,4,10.32,7.8,15.67,11.37S43.67,45.26,50,46.29Z"/><path class="cls-9" d="M69,68.34c-5.74-.59-13.91-5.29-5.29-22.28s16.27-23.5,25-16.82c6,4.64,14.16,13.18,7.79,26.22C92.1,64.32,78.65,69.34,69,68.34Z"/><path class="cls-10" d="M95.59,40.06c-2-4.18-6.12-8-9.85-10.76C79.63,24.81,70.32,38.06,68,42c-3.11,5.38-8.88,16.62-2.92,22,2.86,2.57,7.41,2.51,11,2a27.25,27.25,0,0,0,11.64-4.68C94.81,56.41,99.54,48.57,95.59,40.06Z"/><path class="cls-11" d="M74.37,20.79s-8.91,3.87-14.44,10.7S49.4,51.79,49.4,51.79s.14-14.29,7-23.14,9.88-9.94,9.88-9.94Z"/><path class="cls-11" d="M55.75,16.57A74.23,74.23,0,0,0,44.62,26.89c-5.42,6.2-6.15,17.35-6.15,17.35s-1-11.67,1.71-17.35,6.26-9.75,8.27-11.24Z"/><path class="cls-11" d="M39.47,14a31.53,31.53,0,0,0-8,9.26C29.54,26.39,26.87,35,26.75,34.83s0-7.32,4.14-15.54a17.59,17.59,0,0,1,5.93-6.24Z"/><path class="cls-12" d="M81.91,34.83a20.88,20.88,0,0,0-10.82,9.41c-3.71,7-6.9,15.24-2.35,18.66s11.37,1.57,16.48-2.14a23.16,23.16,0,0,0,7-8.1S83,61.12,76,60.76s-7.65-1.12-3.58-9S81.91,34.83,81.91,34.83Z"/><path class="cls-12" d="M79.33,45.6s2.76-6.9,7.47-8.11,5.82,6.57,5.37,10.07-6.59,9.69-12.83,9.19c-4.23-.33-3.41-5-3.41-5s1.64,5,8.59,0c5.92-4.23,5.56-7.47,3.87-9.22C85.66,39.73,79.33,45.6,79.33,45.6Z"/><path class="cls-13" d="M56.14,53.44A12.34,12.34,0,0,0,57.5,58.9a5,5,0,0,0,3.26,2.62,5.89,5.89,0,0,0-.46-4.74A7.88,7.88,0,0,0,56.14,53.44Z"/><path class="cls-13" d="M61.67,56.09A6.2,6.2,0,0,1,66,54.52a9.77,9.77,0,0,1-1.84,5.22c-.91,1.26-3.49,1.78-3.49,1.78S58.91,58.26,61.67,56.09Z"/><path class="cls-13" d="M39.06,47.75a12.42,12.42,0,0,0,1.37,5.46,5.06,5.06,0,0,0,3.25,2.62,5.91,5.91,0,0,0-.45-4.74A7.89,7.89,0,0,0,39.06,47.75Z"/><path class="cls-13" d="M44.6,50.4a6.13,6.13,0,0,1,4.33-1.57,9.77,9.77,0,0,1-1.84,5.22c-.92,1.26-3.49,1.78-3.49,1.78S41.84,52.57,44.6,50.4Z"/><path class="cls-13" d="M27.68,34.22a12.32,12.32,0,0,0-.63,5.6,5.07,5.07,0,0,0,2.13,3.59,5.9,5.9,0,0,0,1.23-4.61A7.88,7.88,0,0,0,27.68,34.22Z"/><path class="cls-13" d="M31.94,38.64a6.15,6.15,0,0,1,4.6,0A9.72,9.72,0,0,1,33,42.93c-1.29.86-3.89.45-3.89.45S28.59,39.71,31.94,38.64Z"/><path class="cls-14" d="M26.41,38.55a6.38,6.38,0,0,1-1,2.35c-2.2,3.29-7.72,4.36-11.29,3a4.85,4.85,0,0,1-2.82-2.74,6,6,0,0,0,.06,2.45c.7,3,8.19,4.9,13.66,3.53C28.65,46.21,29.11,41.75,26.41,38.55Z"/><path class="cls-15" d="M14.15,43.87c3.57,1.39,9.09.32,11.29-3a6.38,6.38,0,0,0,1-2.35,9.81,9.81,0,0,0-6.66-3.27c-3.69-.37-7.75,2.2-8.42,5.85A4.85,4.85,0,0,0,14.15,43.87Z"/><path class="cls-16" d="M33.22,44.49c-.23,4.22-6.35,6.81-9.81,7.95-3.24,1.06-6.82-.62-6.89-3.71a6.71,6.71,0,0,0-.43,5.2c1.45,3.51,13,5.82,17,0A9,9,0,0,0,33.22,44.49Z"/><path class="cls-17" d="M23.41,52.44c3.46-1.14,9.58-3.73,9.81-7.95-1.94-3.15-6-4.78-11.82-1.39a12.79,12.79,0,0,0-4.88,5.63C16.59,51.82,20.17,53.5,23.41,52.44Z"/><path class="cls-14" d="M39.26,51.26a5.87,5.87,0,0,1,.28,3.07c-.66,3.74-4.29,6.77-8.15,6.14a6.22,6.22,0,0,1-4.7-3.9,2.9,2.9,0,0,0,.38,2.86c2.8,3.19,5.84,7.51,14.34,1.37C46.4,57.19,43.31,53.35,39.26,51.26Z"/><path class="cls-15" d="M31.39,60.47c3.86.63,7.49-2.4,8.15-6.14a5.87,5.87,0,0,0-.28-3.07c-2.85-1.48-6.17-2.1-7.49-1.16-2.14,1.53-4.42,4.2-5.08,6.47A6.22,6.22,0,0,0,31.39,60.47Z"/><path class="cls-16" d="M53.8,55.88c.4,8.47-15.66,12.41-17.16,5.53a5.93,5.93,0,0,0,0,3.93c1.44,3.5,13,5.82,17,0A9,9,0,0,0,53.8,55.88Z"/><path class="cls-17" d="M53.8,55.88c-1.94-3.14-6-4.76-11.81-1.37a12.67,12.67,0,0,0-5.35,6.9C38.14,68.29,54.2,64.35,53.8,55.88Z"/><path class="cls-14" d="M67.25,64.16c-1.53,6.06-13.64,6.11-15.49,1.28a5.8,5.8,0,0,0-.09,3c.7,3,8.2,4.91,13.66,3.54C68.67,71.17,69.31,67.27,67.25,64.16Z"/><path class="cls-15" d="M67.25,64.16a9.56,9.56,0,0,0-7.22-4c-3.49-.35-7.3,1.93-8.27,5.27C53.61,70.27,65.72,70.22,67.25,64.16Z"/><path class="cls-13" d="M83.19,69a29.45,29.45,0,0,0-10.34,2.19,10.51,10.51,0,0,0-4.54,3.71,71,71,0,0,0,8.85-.59C80.23,73.79,83.19,69,83.19,69Z"/><path class="cls-13" d="M32.56,60.52A29.61,29.61,0,0,0,22.22,62.7a10.49,10.49,0,0,0-4.54,3.72,71.69,71.69,0,0,0,8.85-.6C29.6,65.27,32.56,60.52,32.56,60.52Z"/><path class="cls-13" d="M4.88,40.72s-3,5.27,0,8.18a27.19,27.19,0,0,0,6.35,4.54s0-4.72-1.32-7.57S4.88,40.72,4.88,40.72Z"/><path class="cls-13" d="M82.27,62.54s-3,5.27,0,8.18a27.19,27.19,0,0,0,6.35,4.54s0-4.72-1.31-7.57S82.27,62.54,82.27,62.54Z"/><path class="cls-13" d="M6.51,57.14s7.92-.3,11.79,1.91S25,62.78,25,62.78s-6.13.82-9.15,0A19.74,19.74,0,0,1,6.51,57.14Z"/><polygon class="cls-18" points="16.75 38.25 14.42 40.49 17.28 41.34 16.75 38.25"/><polygon class="cls-18" points="19.72 37.83 21.68 40.49 23.25 38.55 19.72 37.83"/><polygon class="cls-18" points="20.4 49.66 19.69 53.44 23.25 53.44 20.4 49.66"/><polygon class="cls-18" points="26.41 45.37 23.25 48.05 28.14 48.05 26.41 45.37"/><polygon class="cls-18" points="32.56 55.24 32.56 58.78 36.28 57.13 32.56 55.24"/><polygon class="cls-18" points="43.68 57.58 41.41 60.8 47.03 59.74 43.68 57.58"/><polygon class="cls-18" points="46.79 54.84 47.97 58.3 51.76 56.78 46.79 54.84"/><polygon class="cls-18" points="49.4 61.43 50.04 64.52 55.75 63.15 49.4 61.43"/><polygon class="cls-18" points="60.24 64.16 59.15 67.8 62.5 66.72 60.24 64.16"/></g></g></svg>