<svg xmlns="http://www.w3.org/2000/svg" viewBox="0 0 38.94 83.61"><defs><style>.cls-1{fill:#f2f2f2;}.cls-2{fill:#94cbed;}.cls-3{fill:#8cc63f;}.cls-4{fill:#ccc;}.cls-5{opacity:0.17;}.cls-6{fill:#050505;opacity:0.15;}.cls-7{fill:#e6e6e6;}.cls-8{fill:#4d4d4d;}.cls-9{fill:#e5e5e5;}.cls-10{fill:#ffb8b8;}.cls-11{fill:#fff;}.cls-12{fill:#b78651;}.cls-13{fill:#ea4444;}.cls-14{fill:#ffde3e;}</style></defs><g id="Слой_2" data-name="Слой 2"><g id="Layer_1" data-name="Layer 1"><path class="cls-1" d="M11,0H30.93a.8.8,0,0,1,.8.8V2.53a0,0,0,0,1,0,0H10.21a0,0,0,0,1,0,0V.8A.8.8,0,0,1,11,0Z"/><rect class="cls-2" x="0.11" y="13.36" width="38.83" height="70.22"/><path class="cls-3" d="M38.83,61.84A7.8,7.8,0,0,0,32.93,60a11.21,11.21,0,0,0-8.73,5.37s-5.63-4.48-12.48-4.72C6.67,60.44,3.25,62.27.11,64.34L0,83.61H38.83Z"/><polygon class="cls-4" points="13.23 4.32 31.76 2.28 38.94 13.37 14.99 13.37 13.23 4.32"/><rect class="cls-5" x="24.04" y="13.36" width="14.89" height="70.22"/><polygon class="cls-6" points="27.39 2.73 38.94 13.38 31.76 2.25 27.39 2.73"/><polygon class="cls-7" points="31.76 2.29 10.21 2.24 0.08 13.37 24.03 13.37 31.76 2.29"/><path class="cls-8" d="M18.18,49.3a1.7,1.7,0,0,1,1.69.61s-.7.7-1.87-.31S18.18,49.3,18.18,49.3Z"/><path class="cls-9" d="M9.61,58a43.4,43.4,0,0,0,.21,4.64H8.47S7.71,58.49,8,58.15,9.61,58,9.61,58Z"/><path class="cls-10" d="M7.25,59.35c.48.76,3,.43,3.13-1.22.2-2-2.6,0-2.6,0Z"/><path class="cls-8" d="M15.07,49.3a1.7,1.7,0,0,0-1.69.61s.7.7,1.87-.31S15.07,49.3,15.07,49.3Z"/><path class="cls-11" d="M10.68,52.94c.82,0,3.59.27,4.25-1.9s2.65,1.05,2.65,1.05-1.36,1.82-1.12,5.62A41,41,0,0,0,17,62.93H15.79a24.78,24.78,0,0,1-.4-2.74c0-.87.19-1.87-.16-1.89s-.66,2-.21,4.46L14,62.83a7.65,7.65,0,0,1-.43-2.39c0-1.25,0-2-2.62-2.1s-3.61.24-3,4.32l-1.3.11s-1.86-8.2,0-9.31C8.15,52.47,8.84,53,10.68,52.94Z"/><path class="cls-11" d="M16.7,48.37c.74,0,1.53-.12,1.58,2.43a4.23,4.23,0,0,0,.51,1.94H15.47A5.92,5.92,0,0,1,15,50.89C15,50.09,14.81,48.46,16.7,48.37Z"/><rect class="cls-10" x="8.19" y="59.52" width="0.48" height="0.62" rx="0.22"/><rect class="cls-10" x="9.13" y="59.26" width="0.48" height="0.62" rx="0.22" transform="translate(-20.23 7.03) rotate(-20.46)"/><path class="cls-10" d="M9.93,58.76l0,0a.21.21,0,0,0,0,.31l.12.14a.23.23,0,0,0,.32,0l0,0a.23.23,0,0,0,0-.32l-.11-.13A.23.23,0,0,0,9.93,58.76Z"/><rect class="cls-10" x="14.83" y="51.47" width="4.46" height="2.55" rx="1.2"/><path class="cls-12" d="M17.23,48.39s.92-.31.92-1c0,0,1,1-.25,1.56C17.9,48.93,17.61,48.92,17.23,48.39Z"/><path class="cls-12" d="M16,48.55s-.92-.31-.92-1c0,0-1,1,.25,1.56C15.36,49.09,15.66,49.08,16,48.55Z"/><path class="cls-8" d="M17.85,50.3c0-.17-.09-.31-.21-.31s-.2.14-.2.31.09.31.2.31S17.85,50.47,17.85,50.3Z"/><path class="cls-8" d="M16.26,50.3c0-.17-.1-.31-.21-.31s-.2.14-.2.31.09.31.2.31S16.26,50.47,16.26,50.3Z"/><path class="cls-8" d="M17.92,52.66c0-.08,0-.14-.09-.14s-.09.06-.09.14,0,.14.09.14S17.92,52.74,17.92,52.66Z"/><path class="cls-8" d="M16,52.66c0-.08,0-.14-.09-.14s-.09.06-.09.14,0,.14.09.14S16,52.74,16,52.66Z"/><path class="cls-8" d="M14.48,52.82c0-.28-.07-.56-.08-.84-1.06,1.14-3,1-3.72,1-1.76,0-2.47-.43-3.95.4a.56.56,0,0,0,0,.12c.18.36.76.37,1,.74s0,.59-.06.9a1.19,1.19,0,0,0,.51,1.1,2,2,0,0,0,1.13.25,3.78,3.78,0,0,0,1.42-.23,1.87,1.87,0,0,0,1-1c.12-.31.16-.69.44-.87s.63,0,1,0a1.32,1.32,0,0,0,1-.47A1.6,1.6,0,0,0,14.48,52.82Z"/><path class="cls-13" d="M14.33,52a2.32,2.32,0,0,0,2.39,2.18l-.13.71s-2.66-.31-2.68-2.56Z"/><path class="cls-14" d="M16.39,54.93c.28,0,.08.56.19.64s-.1.15-.27.15-.42-.12-.32-.15S15.9,54.86,16.39,54.93Z"/><path class="cls-8" d="M17.08,48.31a.48.48,0,0,1-.17,0,.61.61,0,0,1,.53.32.62.62,0,0,1,0,.62.43.43,0,0,0-.13-.48.32.32,0,0,1,.06.27,1,1,0,0,1-.14.25,1,1,0,0,0,0-.34.54.54,0,0,1-.23.36.44.44,0,0,0-.16-.57.48.48,0,0,1-.29.58.35.35,0,0,0,0-.38.52.52,0,0,0-.32-.24.28.28,0,0,1,.22-.36l-.24-.06a.27.27,0,0,1,.4,0,.65.65,0,0,1,.16-.21.39.39,0,0,1,.23-.09.35.35,0,0,0-.18.2A.55.55,0,0,1,17.08,48.31Z"/><path class="cls-8" d="M15.79,62.93H17s-.06-.32-.14-1H15.63C15.72,62.61,15.79,62.93,15.79,62.93Z"/><path class="cls-8" d="M14,62.82,15,62.69a5.2,5.2,0,0,1-.1-.72H13.74A3.33,3.33,0,0,0,14,62.82Z"/><path class="cls-8" d="M6.56,62.76l1.3-.16A5.67,5.67,0,0,1,7.79,62H6.41A4.45,4.45,0,0,0,6.56,62.76Z"/><polygon class="cls-8" points="8.41 62.62 8.29 61.95 9.74 61.93 9.82 62.61 8.41 62.62"/><path class="cls-11" d="M6.12,55a6.48,6.48,0,0,0-1.66,3,4.38,4.38,0,0,1,1.47-3.26C7.49,53.31,6.12,55,6.12,55Z"/><path class="cls-8" d="M4.45,57.55c.09,0,.16.1.19.19a2.24,2.24,0,0,0,.25.62.26.26,0,0,1-.24-.12,1.27,1.27,0,0,1,0,.92,4.61,4.61,0,0,1-.16-.64,2.12,2.12,0,0,1-.06.71,1.34,1.34,0,0,1-.09-.63c0,.2,0,.4-.07.61a.07.07,0,0,1,0,.07l0,0a.71.71,0,0,1-.2-.52,1.51,1.51,0,0,1,.12-.55,3.77,3.77,0,0,0-.37.52.12.12,0,0,1,0-.12,1.58,1.58,0,0,1,.57-1A.17.17,0,0,1,4.45,57.55Z"/><rect class="cls-11" x="1.97" y="24.93" width="19.42" height="12.1"/><path class="cls-2" d="M9,33H8.06V30.56c0-.26,0-.56,0-.88h0a3.2,3.2,0,0,1-.13.55L7,33H6.23l-1-2.76a5.13,5.13,0,0,1-.13-.58h0c0,.41,0,.76,0,1.07V33H4.3V28.91H5.65l.84,2.44a3.1,3.1,0,0,1,.15.58h0c.06-.22.11-.42.17-.59l.84-2.43H9Z"/><path class="cls-2" d="M11.18,28.91v.72h-.35V32.3h.35V33H9.56V32.3h.35V29.63H9.56v-.72Z"/><path class="cls-2" d="M14.21,33H11.77V28.91h.92v3.36h1.52Z"/><path class="cls-2" d="M18.17,33H17l-1.19-1.79A2.11,2.11,0,0,1,15.7,31h0v2h-.93V28.91h.93v1.94h0a1.76,1.76,0,0,1,.12-.23L17,28.91h1.1l-1.43,2Z"/><path class="cls-11" d="M7.05,42v-.71a1.46,1.46,0,0,0,.88.27.79.79,0,0,0,.49-.14.46.46,0,0,0,0-.76,1.16,1.16,0,0,0-.6-.14H7.44v-.63h.31c.49,0,.73-.16.73-.48S8.3,39,7.92,39a1.3,1.3,0,0,0-.73.24v-.67a2,2,0,0,1,.92-.2,1.33,1.33,0,0,1,.89.26.79.79,0,0,1,.32.67.87.87,0,0,1-.74.92h0a1,1,0,0,1,.63.29.82.82,0,0,1,.23.59,1,1,0,0,1-.39.83,1.67,1.67,0,0,1-1.06.3A2,2,0,0,1,7.05,42Z"/><path class="cls-11" d="M10.87,40.32a.85.85,0,0,1-.65-.25,1,1,0,0,1-.24-.68,1,1,0,0,1,.26-.75.9.9,0,0,1,.69-.27.84.84,0,0,1,.65.25,1,1,0,0,1,.23.69,1,1,0,0,1-.26.74A.9.9,0,0,1,10.87,40.32Zm2.73-1.9-2.44,3.75h-.64L13,38.42Zm-2.68.41c-.26,0-.39.18-.39.53s.12.5.37.5.37-.17.37-.52S11.15,38.83,10.92,38.83Zm2.28,3.39a.91.91,0,0,1-.65-.25,1,1,0,0,1-.24-.69,1.06,1.06,0,0,1,.26-.74.9.9,0,0,1,.69-.27.85.85,0,0,1,.65.24,1,1,0,0,1,.24.7,1,1,0,0,1-.26.73A.9.9,0,0,1,13.2,42.22Zm0-1.49c-.25,0-.38.17-.38.53s.12.5.37.5.37-.18.37-.52a.59.59,0,0,0-.1-.38A.3.3,0,0,0,13.24,40.73Z"/><rect class="cls-5" x="28.56" y="24.71" width="6.74" height="0.53" rx="0.25"/><rect class="cls-5" x="26.48" y="26.57" width="10.82" height="0.53" rx="0.25"/><rect class="cls-5" x="26.48" y="27.95" width="10.82" height="0.53" rx="0.25"/><rect class="cls-5" x="26.48" y="29.19" width="10.82" height="0.53" rx="0.25"/><rect class="cls-5" x="26.48" y="30.61" width="10.82" height="0.53" rx="0.25"/><rect class="cls-5" x="26.48" y="31.98" width="10.82" height="0.53" rx="0.25"/><rect class="cls-5" x="26.48" y="33.22" width="10.82" height="0.53" rx="0.25"/><rect class="cls-5" x="26.48" y="37.35" width="10.82" height="0.53" rx="0.25"/><rect class="cls-5" x="26.48" y="38.72" width="10.82" height="0.53" rx="0.25"/><rect class="cls-5" x="26.48" y="39.96" width="10.82" height="0.53" rx="0.25"/><rect class="cls-5" x="26.48" y="41.38" width="10.82" height="0.53" rx="0.25"/><rect class="cls-5" x="26.48" y="42.75" width="10.82" height="0.53" rx="0.25"/><rect class="cls-5" x="26.48" y="44" width="10.82" height="0.53" rx="0.25"/></g></g></svg>