<svg xmlns="http://www.w3.org/2000/svg" viewBox="0 0 113.96 64.32"><defs><style>.cls-1{fill:#a34843;}.cls-2{fill:#c15f5f;}.cls-3{fill:#f4b12c;}.cls-4{fill:#ffca61;}.cls-16,.cls-5{fill:#ffe3a6;}.cls-15,.cls-5,.cls-6{opacity:0.5;}.cls-6{fill:#ef622b;}.cls-11,.cls-7{fill:#ed2b2b;}.cls-7{opacity:0.8;}.cls-8{fill:#5e8e11;}.cls-9{fill:#bed134;}.cls-10{fill:#71aa21;}.cls-12{fill:#ff6969;}.cls-13{fill:#ff4343;}.cls-14{fill:#344144;}.cls-15{fill:#fff;}</style></defs><g id="Слой_2" data-name="Слой 2"><g id="Layer_1" data-name="Layer 1"><ellipse class="cls-1" cx="56.98" cy="34.02" rx="56.98" ry="30.31"/><rect class="cls-1" x="0.05" y="30.47" width="113.91" height="4.81"/><ellipse class="cls-2" cx="56.98" cy="30.47" rx="56.98" ry="30.31"/><path class="cls-1" d="M56.93,56C28.2,56,4.82,44.21,4.82,29.68S28.2,3.32,56.93,3.32,109,15.14,109,29.68,85.66,56,56.93,56Zm0-51.44C28.9,4.59,6.1,15.85,6.1,29.68S28.9,54.76,56.93,54.76s50.82-11.25,50.82-25.08S85,4.59,56.93,4.59Z"/><path class="cls-3" d="M108.36,20.1a12.87,12.87,0,0,1,2,7.07c0,4.52-.69,8.7-4.7,12.84S94.38,48.25,88.24,50.63c-5.68,2.21-10.14,1.65-17.46,2.59-4,.52-8.87,2-13.17,2-9.7,0-17.61-2.19-25.42-4.62-5.68-1.76-9.06-1.8-15.94-6-3.45-2.11-4.76-5.11-7.09-7.52C6,33.81,4.82,30.66,4.82,27.17c0-4.38,2.53-9.2,5.89-12.9A37.59,37.59,0,0,1,17.53,8.2a35.58,35.58,0,0,0-9.08,7.52C5,19.54,2.36,24.54,2.36,29.07c0,3.61,1.2,6.87,4.49,10.27,2.41,2.5,3.76,5.6,7.34,7.79,7.12,4.35,10.62,4.4,16.49,6.23C38.77,55.87,47,58.13,57,58.13c4.45,0,9.49-1.56,13.63-2.1,7.58-1,12.2-.39,18.08-2.67,6.34-2.47,13.93-6.72,18.08-11s4.86-8.61,4.86-13.28A13.85,13.85,0,0,0,108.36,20.1Z"/><path class="cls-4" d="M10.71,14.27C7.35,18,4.82,22.79,4.82,27.17c0,3.49,1.16,6.64,4.34,9.93,2.33,2.41,3.64,5.41,7.09,7.52,6.88,4.21,10.26,4.25,15.94,6,7.81,2.43,15.72,4.62,25.42,4.62,4.3,0,9.17-1.51,13.17-2,7.32-.94,11.78-.38,17.46-2.59,6.14-2.38,13.46-6.48,17.47-10.62s4.7-8.32,4.7-12.84a12.87,12.87,0,0,0-2-7.07,36.8,36.8,0,0,0-4.53-4.63c-3.33-2.94-7.6-6.92-12.61-9.07A63.24,63.24,0,0,0,72.78,1.23,174.07,174.07,0,0,0,55.18,0C42.14,0,33.92,3.32,23,6A22.7,22.7,0,0,0,17.53,8.2,37.59,37.59,0,0,0,10.71,14.27Z"/><path class="cls-5" d="M33.33,5.82c-.72,0-8.37.53-11.46,1.77C19,8.75,17,11,14.78,13.11c-3.89,3.74-9.07,7.19-7.22,13.31a.65.65,0,0,0,1.25-.34c-.44-1.78,1.78-5.73,3-7.08a27,27,0,0,1,2.45-2.06,66.57,66.57,0,0,1,5.91-5c4-2.67,9-3.25,13.33-5.43A.39.39,0,0,0,33.33,5.82Z"/><path class="cls-5" d="M77.61,5.72c-1-.15-2-.35-2.91-.57C69.31,3.49,64.34,1.59,58.48,2c-1.79.13-8.94-.17-8.68,3,.29,3.46,7,.71,8.45.42,4.65-.91,8.89.18,13.36,1.32,2.42.62,3.93,1.14,6.12-.08C78.08,6.45,78.05,5.78,77.61,5.72Z"/><path class="cls-5" d="M94,44.4a3.07,3.07,0,0,0-2.87.33c-2.49.34-8.59,1.8-7.25,4,.79,1.31,4.08-.24,5.08-.51a9.57,9.57,0,0,0,5.18-2.75A.69.69,0,0,0,94,44.4Z"/><path class="cls-5" d="M104.93,36.71c-1.08.16-2.05,1.17-2.85,1.87-1.12,1-4.36,3.94-4.63,4.19s.11.94.56.72a24.66,24.66,0,0,0,4.58-2.33,11.78,11.78,0,0,0,3-3.65A.55.55,0,0,0,104.93,36.71Z"/><path class="cls-5" d="M65.46,50.56a2.66,2.66,0,0,0-.58-.16.14.14,0,0,0,0-.11c-.93-.61-2.65-.14-3.6.22s-1.86.84-1.88,1.94a.63.63,0,0,0,.45.6,7.24,7.24,0,0,0,5.82-1.27A.68.68,0,0,0,65.46,50.56Z"/><path class="cls-5" d="M101.33,16c-.88-1.86-6.52-5.88-7.45-6.21a.66.66,0,0,0-.81.8,3.68,3.68,0,0,0,1.49,1.75,7.83,7.83,0,0,1,2,2.57A4,4,0,0,0,101,17,.65.65,0,0,0,101.33,16Z"/><path class="cls-5" d="M107.94,24.18a.19.19,0,0,0-.11-.09.23.23,0,0,0-.32-.18c-1.23.7-.62,1.63-.59,2.81,0,.82-.65,2.51.41,3C109.11,30.52,108.35,25,107.94,24.18Z"/><path class="cls-5" d="M17.63,42.52a23,23,0,0,0-3.57-3.43.68.68,0,0,0-.8.1c-.87,1,.25,2,1,2.63s2,1.53,3.2,1.3A.36.36,0,0,0,17.63,42.52Z"/><path class="cls-6" d="M31.8,8.91a8.18,8.18,0,0,0-6.88,4.29c-.84,1.44-4.75,3.93-8.08,5.08-4.92,1.7-6.74,4.42-6.68,8.5,0,2.44,5,4.75,5.29,8.12.51,6.11,5.93,9.54,10.78,10s21.32,2.25,23.93,3.82,11.4-1.44,15.07.09,13.83-5.07,15.88-4.67S94.54,43.47,98.94,40s4.32-2.64,5.5-7.74c.74-3.2,2.35-7.34,0-10.19-2.69-3.26-6.88-3-9.47-6.56S91.34,11,85.09,9.23,67.77,9.79,65,9.76s-5.45-4-11.76-4.14S31.8,8.91,31.8,8.91Z"/><path class="cls-7" d="M38.64,10.17c-3.43,1.33-7.74,7.45-11.09,8.93S16.7,19,16.86,26.91s4,9.86,6.64,12.8,14.25,4.95,17.68,4.84,15.39,3,21.47.44,10.08-.79,14.29-1.75,12.61-3.09,14.85-6,11.9-6.14,7.92-11-7.1-5.15-9-7,.54-4.88-7.24-6.2-16.9.74-20.16-1.29-4.5-3.51-11.2-2.83S42.07,8.84,38.64,10.17Z"/><rect class="cls-8" x="39.46" y="47.13" width="19.99" height="1.08"/><path class="cls-8" d="M59.45,48c0,2.93-4.48,5.31-10,5.31s-10-2.38-10-5.31,4.47-5.32,10-5.32S59.45,45.08,59.45,48Z"/><ellipse class="cls-9" cx="49.45" cy="47.18" rx="9.99" ry="5.32"/><ellipse class="cls-10" cx="49.45" cy="47.18" rx="8.95" ry="4.48"/><path class="cls-8" d="M49,46.79s-1.89-2.54-4.38-2.35c-3.32.26-2.88,1.45-2,2.35S46.32,47.51,49,46.79Z"/><path class="cls-8" d="M49.74,46.74a8.49,8.49,0,0,1,4.77-2c2.57,0,2.71,1.13,1.85,2C55.29,47.93,52.41,47.47,49.74,46.74Z"/><path class="cls-8" d="M49,47.18s-3.65.86-4.75,1.26-.14,1.93,2.17,2C49.41,50.43,49,47.18,49,47.18Z"/><path class="cls-8" d="M49.67,47.18a41.17,41.17,0,0,1,4.75,1.26c1.32.6-.52,1.93-2.83,2C48.59,50.43,49.67,47.18,49.67,47.18Z"/><path class="cls-8" d="M49.45,46.31a18.26,18.26,0,0,1-1.86-1.88c-.33-.52.41-1.25,2.15-1.26,2.4,0,2.6.69,1.8,1.57A9.11,9.11,0,0,1,49.45,46.31Z"/><rect class="cls-8" x="57.17" y="24.61" width="19.99" height="1.08"/><path class="cls-8" d="M77.16,25.5c0,2.94-4.48,5.32-10,5.32s-10-2.38-10-5.32,4.47-5.31,10-5.31S77.16,22.57,77.16,25.5Z"/><path class="cls-9" d="M77.16,24.67c0,2.93-4.48,5.31-10,5.31s-10-2.38-10-5.31,4.47-5.32,10-5.32S77.16,21.73,77.16,24.67Z"/><path class="cls-10" d="M76.12,24.67c0,2.47-4,4.47-9,4.47s-8.95-2-8.95-4.47,4-4.48,8.95-4.48S76.12,22.19,76.12,24.67Z"/><path class="cls-8" d="M66.7,24.27s-1.89-2.54-4.38-2.34c-3.32.26-2.88,1.44-2,2.34S64,25,66.7,24.27Z"/><path class="cls-8" d="M67.45,24.23a8.47,8.47,0,0,1,4.77-2c2.57,0,2.72,1.13,1.85,2.05C73,25.41,70.12,25,67.45,24.23Z"/><path class="cls-8" d="M66.7,24.67s-3.65.86-4.75,1.26-.14,1.93,2.17,1.95C67.12,27.91,66.7,24.67,66.7,24.67Z"/><path class="cls-8" d="M67.38,24.67a41.17,41.17,0,0,1,4.75,1.26c1.33.59-.52,1.93-2.83,1.95C66.3,27.91,67.38,24.67,67.38,24.67Z"/><path class="cls-8" d="M67.16,23.8a18.26,18.26,0,0,1-1.86-1.88c-.33-.53.42-1.25,2.15-1.26,2.4,0,2.6.69,1.8,1.57A9.11,9.11,0,0,1,67.16,23.8Z"/><rect class="cls-8" x="15.94" y="17.33" width="19.99" height="1.08"/><path class="cls-8" d="M35.93,18.22c0,2.94-4.47,5.32-10,5.32s-10-2.38-10-5.32,4.48-5.31,10-5.31S35.93,15.29,35.93,18.22Z"/><path class="cls-9" d="M35.93,17.39c0,2.93-4.47,5.31-10,5.31s-10-2.38-10-5.31,4.48-5.32,10-5.32S35.93,14.45,35.93,17.39Z"/><path class="cls-10" d="M34.89,17.39c0,2.47-4,4.48-8.95,4.48s-9-2-9-4.48,4-4.48,9-4.48S34.89,14.91,34.89,17.39Z"/><path class="cls-8" d="M25.48,17s-1.9-2.54-4.39-2.34c-3.32.26-2.87,1.44-2,2.34S22.81,17.72,25.48,17Z"/><path class="cls-8" d="M26.23,17a8.47,8.47,0,0,1,4.76-2c2.57,0,2.72,1.13,1.86,2C31.78,18.13,28.9,17.67,26.23,17Z"/><path class="cls-8" d="M25.48,17.39s-3.65.86-4.75,1.26-.14,1.93,2.16,2C25.89,20.63,25.48,17.39,25.48,17.39Z"/><path class="cls-8" d="M26.16,17.39a40.6,40.6,0,0,1,4.74,1.26c1.33.59-.52,1.93-2.82,2C25.08,20.63,26.16,17.39,26.16,17.39Z"/><path class="cls-8" d="M25.94,16.52a17.29,17.29,0,0,1-1.86-1.88c-.33-.52.41-1.25,2.15-1.26,2.4,0,2.6.69,1.8,1.57A9.11,9.11,0,0,1,25.94,16.52Z"/><rect class="cls-8" x="25.13" y="32.61" width="19.99" height="1.08"/><path class="cls-8" d="M45.12,33.5c0,2.93-4.47,5.31-10,5.31s-10-2.38-10-5.31,4.48-5.32,10-5.32S45.12,30.56,45.12,33.5Z"/><path class="cls-9" d="M45.12,32.66c0,2.94-4.47,5.32-10,5.32s-10-2.38-10-5.32,4.48-5.32,10-5.32S45.12,29.72,45.12,32.66Z"/><path class="cls-10" d="M44.08,32.66c0,2.47-4,4.48-8.95,4.48s-9-2-9-4.48,4-4.48,9-4.48S44.08,30.19,44.08,32.66Z"/><path class="cls-8" d="M34.66,32.27s-1.89-2.54-4.38-2.35c-3.32.26-2.87,1.45-2,2.35S32,33,34.66,32.27Z"/><path class="cls-8" d="M35.42,32.22a8.49,8.49,0,0,1,4.76-2c2.57,0,2.72,1.13,1.86,2.05C41,33.41,38.08,33,35.42,32.22Z"/><path class="cls-8" d="M34.66,32.66s-3.64.86-4.74,1.26-.14,1.93,2.16,2C35.08,35.91,34.66,32.66,34.66,32.66Z"/><path class="cls-8" d="M35.34,32.66a41.17,41.17,0,0,1,4.75,1.26c1.33.6-.52,1.93-2.82,2C34.27,35.91,35.34,32.66,35.34,32.66Z"/><path class="cls-8" d="M35.13,31.79a17.29,17.29,0,0,1-1.86-1.88c-.34-.52.41-1.25,2.15-1.26,2.4,0,2.6.69,1.8,1.57A9.11,9.11,0,0,1,35.13,31.79Z"/><rect class="cls-8" x="37.1" y="16.2" width="19.99" height="1.08"/><path class="cls-8" d="M57.09,17.09c0,2.94-4.47,5.32-10,5.32s-10-2.38-10-5.32,4.48-5.31,10-5.31S57.09,14.16,57.09,17.09Z"/><ellipse class="cls-9" cx="47.1" cy="16.26" rx="9.99" ry="5.32"/><path class="cls-10" d="M56.05,16.26c0,2.47-4,4.48-8.95,4.48s-9-2-9-4.48,4-4.48,9-4.48S56.05,13.78,56.05,16.26Z"/><path class="cls-8" d="M46.63,15.86s-1.89-2.53-4.38-2.34c-3.32.26-2.87,1.44-2,2.34S44,16.59,46.63,15.86Z"/><path class="cls-8" d="M47.39,15.82a8.47,8.47,0,0,1,4.76-2c2.57,0,2.72,1.13,1.86,2C52.94,17,50.05,16.54,47.39,15.82Z"/><path class="cls-8" d="M46.63,16.26s-3.64.86-4.74,1.26-.14,1.93,2.16,1.95C47.05,19.5,46.63,16.26,46.63,16.26Z"/><path class="cls-8" d="M47.31,16.26a41.17,41.17,0,0,1,4.75,1.26c1.33.59-.52,1.93-2.82,1.95C46.24,19.5,47.31,16.26,47.31,16.26Z"/><path class="cls-8" d="M47.1,15.39a17.29,17.29,0,0,1-1.86-1.88c-.34-.52.41-1.25,2.15-1.26,2.4,0,2.6.69,1.8,1.57A9.11,9.11,0,0,1,47.1,15.39Z"/><rect class="cls-8" x="56.93" y="10.05" width="19.99" height="1.08"/><ellipse class="cls-8" cx="66.92" cy="10.94" rx="9.99" ry="5.32"/><ellipse class="cls-9" cx="66.92" cy="10.1" rx="9.99" ry="5.32"/><path class="cls-10" d="M75.87,10.1c0,2.48-4,4.48-9,4.48s-9-2-9-4.48,4-4.48,9-4.48S75.87,7.63,75.87,10.1Z"/><path class="cls-8" d="M66.46,9.71s-1.9-2.54-4.38-2.34c-3.33.26-2.88,1.44-2,2.34S63.79,10.43,66.46,9.71Z"/><path class="cls-8" d="M67.21,9.67a8.47,8.47,0,0,1,4.77-2c2.57,0,2.71,1.13,1.85,2.05C72.76,10.85,69.88,10.39,67.21,9.67Z"/><path class="cls-8" d="M66.46,10.1s-3.65.87-4.75,1.27-.14,1.93,2.16,2C66.88,13.35,66.46,10.1,66.46,10.1Z"/><path class="cls-8" d="M67.14,10.1a41.71,41.71,0,0,1,4.75,1.27c1.32.59-.52,1.93-2.83,2C66.06,13.35,67.14,10.1,67.14,10.1Z"/><path class="cls-8" d="M66.92,9.23a17,17,0,0,1-1.86-1.87c-.33-.53.41-1.25,2.15-1.26,2.4,0,2.6.69,1.8,1.57A9.26,9.26,0,0,1,66.92,9.23Z"/><rect class="cls-8" x="80.76" y="20.04" width="19.99" height="1.08"/><path class="cls-8" d="M100.75,20.93c0,2.94-4.48,5.32-10,5.32s-10-2.38-10-5.32,4.47-5.31,10-5.31S100.75,18,100.75,20.93Z"/><ellipse class="cls-9" cx="90.75" cy="20.1" rx="9.99" ry="5.32"/><path class="cls-10" d="M99.71,20.1c0,2.47-4,4.48-9,4.48s-9-2-9-4.48,4-4.48,9-4.48S99.71,17.62,99.71,20.1Z"/><path class="cls-8" d="M90.29,19.7s-1.89-2.53-4.38-2.34c-3.32.26-2.88,1.44-2,2.34S87.62,20.43,90.29,19.7Z"/><path class="cls-8" d="M91,19.66a8.47,8.47,0,0,1,4.77-2c2.57,0,2.72,1.13,1.85,2.05C96.6,20.84,93.71,20.38,91,19.66Z"/><path class="cls-8" d="M90.29,20.1s-3.65.86-4.75,1.26-.14,1.93,2.17,1.95C90.71,23.34,90.29,20.1,90.29,20.1Z"/><path class="cls-8" d="M91,20.1a41.17,41.17,0,0,1,4.75,1.26c1.33.59-.52,1.93-2.83,1.95C89.89,23.34,91,20.1,91,20.1Z"/><path class="cls-8" d="M90.75,19.23a18.26,18.26,0,0,1-1.86-1.88c-.33-.52.42-1.25,2.15-1.26,2.4,0,2.6.69,1.8,1.57A9.11,9.11,0,0,1,90.75,19.23Z"/><rect class="cls-11" x="24.92" y="42.59" width="22.72" height="1.23"/><path class="cls-11" d="M47.64,43.61c0,3.33-5.08,6-11.36,6s-11.36-2.71-11.36-6,5.09-6,11.36-6S47.64,40.27,47.64,43.61Z"/><path class="cls-12" d="M47.64,42.65c0,3.34-5.08,6.05-11.36,6.05S24.92,46,24.92,42.65s5.09-6,11.36-6S47.64,39.32,47.64,42.65Z"/><path class="cls-13" d="M46.46,42.65c0,2.82-4.56,5.1-10.18,5.1S26.1,45.47,26.1,42.65s4.56-5.09,10.18-5.09S46.46,39.84,46.46,42.65Z"/><path class="cls-11" d="M29.51,45.24c-1,0-3.83-3.28-.09-5.52s8.78-1.51,9.82-1.26c1.46.34-.08,1.69-1.81,1.82a14.13,14.13,0,0,0-3.75.77c-1.32.58-1.82,1.45-1.78,1.9C32,43.76,30.34,45.22,29.51,45.24Z"/><path class="cls-11" d="M32.94,43.92c-1,.55-2.66,2-.86,2.52a15.1,15.1,0,0,0,10.45-.83c2.76-1.3,3.42-3.45,1.81-5-1.18-1.09-2.34-1.19-3-.76-1.53,1-.19,2.74-3.15,3.33C36.45,43.55,34.13,43.29,32.94,43.92Z"/><path class="cls-12" d="M37.2,39.72s.79-1-.17-1C36.4,38.72,37.2,39.72,37.2,39.72Z"/><path class="cls-12" d="M36.12,39.85s0-1.31-1-1.15C34.43,38.81,36.12,39.85,36.12,39.85Z"/><path class="cls-12" d="M34.61,40S34,38.78,33.21,39,34.61,40,34.61,40Z"/><path class="cls-12" d="M33.07,40.55s-.78-1.41-1.8-1S33.07,40.55,33.07,40.55Z"/><path class="cls-12" d="M31.88,41.39s-1.24-1.48-2.38-.75C28.74,41.13,31.88,41.39,31.88,41.39Z"/><path class="cls-12" d="M31.19,42.26s-1.83-.63-2.44-.2S29.89,43.12,31.19,42.26Z"/><path class="cls-12" d="M31.05,43.21a4.63,4.63,0,0,0-1.89.46c-.3.21,0,.7.6.59A1.62,1.62,0,0,0,31.05,43.21Z"/><path class="cls-12" d="M41.28,40.92a2,2,0,0,1,1.31-.48c.74,0,1.1.52.22.58A5.49,5.49,0,0,1,41.28,40.92Z"/><path class="cls-12" d="M33.68,44.2a4.14,4.14,0,0,0-1.15.95c-.24.42.71.85,1,.09S33.68,44.2,33.68,44.2Z"/><path class="cls-12" d="M35,44.2a1.56,1.56,0,0,0-.32,1c0,.65.87.81.81,0A1.23,1.23,0,0,0,35,44.2Z"/><path class="cls-12" d="M36.49,44a5.12,5.12,0,0,0,.19,1.21c.17.53,1.38.8.89-.12A2.09,2.09,0,0,0,36.49,44Z"/><path class="cls-12" d="M38.24,43.9a4.22,4.22,0,0,0,1,1.34c.65.57,1.32.14.72-.51A3.49,3.49,0,0,0,38.24,43.9Z"/><path class="cls-12" d="M39.76,43.33a5.9,5.9,0,0,0,1.42,1.22c.77.43,1.54,0,.61-.52A6.38,6.38,0,0,0,39.76,43.33Z"/><path class="cls-12" d="M40.88,42.46a7.46,7.46,0,0,0,2.13,1c.82.13,1.34-.74.42-.89A17.32,17.32,0,0,0,40.88,42.46Z"/><path class="cls-12" d="M41.4,41.76a5.72,5.72,0,0,1,1.76-.28c.67.08,1.24.53.53.56A14.53,14.53,0,0,1,41.4,41.76Z"/><rect class="cls-11" x="57.52" y="45.19" width="22.72" height="1.23"/><path class="cls-11" d="M80.25,46.2c0,3.34-5.09,6-11.37,6s-11.36-2.71-11.36-6,5.09-6,11.36-6S80.25,42.86,80.25,46.2Z"/><path class="cls-12" d="M80.25,45.25c0,3.34-5.09,6-11.37,6s-11.36-2.7-11.36-6,5.09-6,11.36-6S80.25,41.91,80.25,45.25Z"/><path class="cls-13" d="M79.06,45.25c0,2.81-4.55,5.09-10.18,5.09s-10.17-2.28-10.17-5.09,4.55-5.09,10.17-5.09S79.06,42.44,79.06,45.25Z"/><path class="cls-11" d="M62.12,47.84c-1,0-3.84-3.28-.1-5.53s8.79-1.51,9.82-1.26c1.46.35-.08,1.7-1.8,1.83a13.6,13.6,0,0,0-3.75.77c-1.32.58-1.83,1.45-1.79,1.89C64.58,46.36,62.94,47.81,62.12,47.84Z"/><path class="cls-11" d="M65.54,46.51c-1,.55-2.65,2-.86,2.53a15.09,15.09,0,0,0,10.45-.83c2.77-1.31,3.42-3.46,1.81-5-1.17-1.1-2.33-1.19-3-.77-1.52,1-.18,2.75-3.15,3.33C69.06,46.15,66.74,45.88,65.54,46.51Z"/><path class="cls-12" d="M69.8,42.31s.79-1-.16-1C69,41.32,69.8,42.31,69.8,42.31Z"/><path class="cls-12" d="M68.73,42.45s0-1.31-1-1.15C67,41.4,68.73,42.45,68.73,42.45Z"/><path class="cls-12" d="M67.22,42.57s-.67-1.19-1.41-1S67.22,42.57,67.22,42.57Z"/><path class="cls-12" d="M65.68,43.15s-.79-1.42-1.81-1S65.68,43.15,65.68,43.15Z"/><path class="cls-12" d="M64.48,44s-1.24-1.48-2.38-.75C61.34,43.73,64.48,44,64.48,44Z"/><path class="cls-12" d="M63.79,44.85s-1.82-.63-2.44-.19S62.49,45.71,63.79,44.85Z"/><path class="cls-12" d="M63.65,45.8a4.67,4.67,0,0,0-1.88.47c-.3.2,0,.7.6.58A1.62,1.62,0,0,0,63.65,45.8Z"/><path class="cls-12" d="M73.89,43.51A2,2,0,0,1,75.2,43c.74,0,1.09.52.21.58A5.21,5.21,0,0,1,73.89,43.51Z"/><path class="cls-12" d="M66.29,46.79a4,4,0,0,0-1.15,1c-.25.41.7.84,1,.09S66.29,46.79,66.29,46.79Z"/><path class="cls-12" d="M67.65,46.79a1.55,1.55,0,0,0-.33,1.05c0,.65.87.8.82,0A1.29,1.29,0,0,0,67.65,46.79Z"/><path class="cls-12" d="M69.1,46.62a4.92,4.92,0,0,0,.18,1.22c.17.52,1.39.8.89-.12A2.09,2.09,0,0,0,69.1,46.62Z"/><path class="cls-12" d="M70.84,46.5a4.41,4.41,0,0,0,1,1.34c.65.57,1.33.14.73-.51A3.41,3.41,0,0,0,70.84,46.5Z"/><path class="cls-12" d="M72.36,45.92a6.07,6.07,0,0,0,1.42,1.23c.77.43,1.54,0,.62-.53A6.47,6.47,0,0,0,72.36,45.92Z"/><path class="cls-12" d="M73.49,45.05a7.44,7.44,0,0,0,2.12,1c.82.13,1.35-.74.42-.9A18.77,18.77,0,0,0,73.49,45.05Z"/><path class="cls-12" d="M74,44.35a5.59,5.59,0,0,1,1.77-.27c.66.08,1.23.52.52.55A14.53,14.53,0,0,1,74,44.35Z"/><rect class="cls-11" x="5.66" y="29.66" width="22.72" height="1.23"/><path class="cls-11" d="M28.38,30.67c0,3.33-5.09,6-11.36,6S5.66,34,5.66,30.67,10.74,24.62,17,24.62,28.38,27.33,28.38,30.67Z"/><path class="cls-12" d="M28.38,29.72c0,3.33-5.09,6-11.36,6s-11.36-2.71-11.36-6,5.08-6,11.36-6S28.38,26.38,28.38,29.72Z"/><path class="cls-13" d="M27.19,29.72c0,2.81-4.55,5.09-10.17,5.09S6.84,32.53,6.84,29.72s4.56-5.1,10.18-5.1S27.19,26.9,27.19,29.72Z"/><path class="cls-11" d="M10.25,32.3c-1,0-3.84-3.27-.09-5.52s8.78-1.51,9.82-1.26c1.46.34-.09,1.69-1.81,1.82a14,14,0,0,0-3.75.77c-1.32.58-1.83,1.45-1.79,1.9C12.71,30.83,11.08,32.28,10.25,32.3Z"/><path class="cls-11" d="M13.68,31c-1,.55-2.66,2-.87,2.52a15,15,0,0,0,10.45-.83c2.77-1.3,3.42-3.45,1.81-5-1.17-1.09-2.33-1.19-3-.76-1.52,1-.18,2.74-3.15,3.33C17.19,30.61,14.87,30.35,13.68,31Z"/><path class="cls-12" d="M17.93,26.78s.79-1-.16-1C17.14,25.79,17.93,26.78,17.93,26.78Z"/><path class="cls-12" d="M16.86,26.91s0-1.31-1-1.15C15.16,25.87,16.86,26.91,16.86,26.91Z"/><path class="cls-12" d="M15.35,27s-.66-1.19-1.4-1S15.35,27,15.35,27Z"/><path class="cls-12" d="M13.81,27.62s-.79-1.42-1.8-1S13.81,27.62,13.81,27.62Z"/><path class="cls-12" d="M12.62,28.45S11.37,27,10.23,27.7C9.47,28.19,12.62,28.45,12.62,28.45Z"/><path class="cls-12" d="M11.92,29.32s-1.82-.63-2.44-.19S10.62,30.18,11.92,29.32Z"/><path class="cls-12" d="M11.78,30.27a4.6,4.6,0,0,0-1.88.46c-.3.21,0,.7.6.59A1.62,1.62,0,0,0,11.78,30.27Z"/><path class="cls-12" d="M22,28a2,2,0,0,1,1.31-.48c.74,0,1.09.52.22.58A5.49,5.49,0,0,1,22,28Z"/><path class="cls-12" d="M14.42,31.26a4,4,0,0,0-1.15.95c-.25.42.71.85,1,.09S14.42,31.26,14.42,31.26Z"/><path class="cls-12" d="M15.78,31.26a1.56,1.56,0,0,0-.32,1c0,.65.87.81.81,0A1.26,1.26,0,0,0,15.78,31.26Z"/><path class="cls-12" d="M17.23,31.09a4.87,4.87,0,0,0,.18,1.21c.17.53,1.39.81.9-.12A2.12,2.12,0,0,0,17.23,31.09Z"/><path class="cls-12" d="M19,31a4.35,4.35,0,0,0,1,1.34c.64.57,1.32.14.72-.5A3.47,3.47,0,0,0,19,31Z"/><path class="cls-12" d="M20.5,30.39a5.75,5.75,0,0,0,1.41,1.22c.77.43,1.54,0,.62-.52A6.46,6.46,0,0,0,20.5,30.39Z"/><path class="cls-12" d="M21.62,29.52a7.46,7.46,0,0,0,2.13,1c.81.13,1.34-.74.41-.89A17.16,17.16,0,0,0,21.62,29.52Z"/><path class="cls-12" d="M22.13,28.82a5.8,5.8,0,0,1,1.77-.28c.66.08,1.23.53.52.56A14.71,14.71,0,0,1,22.13,28.82Z"/><rect class="cls-11" x="30.62" y="8.85" width="22.72" height="1.23"/><path class="cls-11" d="M53.34,9.86c0,3.34-5.09,6-11.36,6s-11.36-2.7-11.36-6,5.08-6,11.36-6S53.34,6.52,53.34,9.86Z"/><path class="cls-12" d="M53.34,8.91c0,3.34-5.09,6-11.36,6s-11.36-2.7-11.36-6S35.7,2.86,42,2.86,53.34,5.57,53.34,8.91Z"/><path class="cls-13" d="M52.15,8.91C52.15,11.72,47.6,14,42,14S31.8,11.72,31.8,8.91,36.36,3.82,42,3.82,52.15,6.09,52.15,8.91Z"/><path class="cls-11" d="M35.21,11.5c-1,0-3.84-3.28-.09-5.53s8.78-1.51,9.82-1.26c1.46.34-.08,1.7-1.81,1.82a14.06,14.06,0,0,0-3.75.77c-1.32.58-1.83,1.45-1.78,1.9C37.67,10,36,11.47,35.21,11.5Z"/><path class="cls-11" d="M38.64,10.17c-1,.55-2.66,2-.86,2.52a15.07,15.07,0,0,0,10.44-.82C51,10.56,51.65,8.41,50,6.9c-1.17-1.1-2.33-1.2-3-.77-1.52,1-.18,2.75-3.14,3.33C42.15,9.8,39.83,9.54,38.64,10.17Z"/><path class="cls-12" d="M42.89,6s.79-1-.16-1C42.1,5,42.89,6,42.89,6Z"/><path class="cls-12" d="M41.82,6.1s0-1.31-1-1.15C40.13,5.06,41.82,6.1,41.82,6.1Z"/><path class="cls-12" d="M40.31,6.23s-.66-1.19-1.4-1S40.31,6.23,40.31,6.23Z"/><path class="cls-12" d="M38.77,6.81S38,5.39,37,5.81,38.77,6.81,38.77,6.81Z"/><path class="cls-12" d="M37.58,7.64s-1.25-1.48-2.39-.74C34.43,7.38,37.58,7.64,37.58,7.64Z"/><path class="cls-12" d="M36.88,8.51s-1.82-.63-2.44-.19S35.59,9.37,36.88,8.51Z"/><path class="cls-12" d="M36.75,9.46a4.63,4.63,0,0,0-1.89.46c-.3.21,0,.71.6.59A1.62,1.62,0,0,0,36.75,9.46Z"/><path class="cls-12" d="M47,7.17a2,2,0,0,1,1.31-.48c.74,0,1.1.52.22.58A5.07,5.07,0,0,1,47,7.17Z"/><path class="cls-12" d="M39.38,10.45a4.18,4.18,0,0,0-1.15,1c-.25.42.71.85,1,.1S39.38,10.45,39.38,10.45Z"/><path class="cls-12" d="M40.74,10.45a1.58,1.58,0,0,0-.32,1.05c0,.64.87.8.81,0A1.26,1.26,0,0,0,40.74,10.45Z"/><path class="cls-12" d="M42.19,10.28a5.59,5.59,0,0,0,.18,1.22c.17.52,1.39.8.9-.13A2.09,2.09,0,0,0,42.19,10.28Z"/><path class="cls-12" d="M43.93,10.16a4.35,4.35,0,0,0,1,1.34c.64.57,1.32.13.72-.51A3.41,3.41,0,0,0,43.93,10.16Z"/><path class="cls-12" d="M45.46,9.58a5.75,5.75,0,0,0,1.41,1.22c.77.43,1.55,0,.62-.52A6.38,6.38,0,0,0,45.46,9.58Z"/><path class="cls-12" d="M46.58,8.71a7.19,7.19,0,0,0,2.13,1c.81.13,1.34-.74.41-.89A18.77,18.77,0,0,0,46.58,8.71Z"/><path class="cls-12" d="M47.1,8a5.51,5.51,0,0,1,1.76-.27c.66.07,1.24.52.53.55A14.53,14.53,0,0,1,47.1,8Z"/><rect class="cls-11" x="66.63" y="11.59" width="22.72" height="1.23"/><path class="cls-11" d="M89.35,12.61c0,3.33-5.08,6-11.36,6s-11.36-2.71-11.36-6,5.09-6,11.36-6S89.35,9.27,89.35,12.61Z"/><path class="cls-12" d="M89.35,11.66c0,3.33-5.08,6-11.36,6s-11.36-2.71-11.36-6,5.09-6,11.36-6S89.35,8.32,89.35,11.66Z"/><path class="cls-13" d="M88.17,11.66c0,2.81-4.56,5.09-10.18,5.09s-10.17-2.28-10.17-5.09S72.37,6.56,78,6.56,88.17,8.84,88.17,11.66Z"/><path class="cls-11" d="M71.22,14.24c-1,0-3.83-3.28-.09-5.52S79.92,7.21,81,7.46c1.46.34-.08,1.69-1.81,1.82a14,14,0,0,0-3.74.77c-1.32.58-1.83,1.45-1.79,1.9C73.69,12.76,72.05,14.22,71.22,14.24Z"/><path class="cls-11" d="M74.65,12.92c-1.05.55-2.66,2-.86,2.52a15.1,15.1,0,0,0,10.45-.83c2.76-1.3,3.42-3.45,1.81-5-1.17-1.09-2.34-1.19-3-.76-1.53,1-.19,2.74-3.15,3.33C78.17,12.55,75.84,12.29,74.65,12.92Z"/><path class="cls-12" d="M78.91,8.72s.79-1-.17-1C78.12,7.72,78.91,8.72,78.91,8.72Z"/><path class="cls-12" d="M77.83,8.85s0-1.31-1-1.15C76.14,7.81,77.83,8.85,77.83,8.85Z"/><path class="cls-12" d="M76.32,9s-.66-1.19-1.4-1S76.32,9,76.32,9Z"/><path class="cls-12" d="M74.78,9.55S74,8.14,73,8.56,74.78,9.55,74.78,9.55Z"/><path class="cls-12" d="M73.59,10.39s-1.24-1.48-2.38-.75C70.45,10.13,73.59,10.39,73.59,10.39Z"/><path class="cls-12" d="M72.9,11.26s-1.83-.63-2.44-.19S71.6,12.12,72.9,11.26Z"/><path class="cls-12" d="M72.76,12.21a4.67,4.67,0,0,0-1.89.46c-.3.21,0,.7.61.59A1.62,1.62,0,0,0,72.76,12.21Z"/><path class="cls-12" d="M83,9.92a2,2,0,0,1,1.31-.48c.74,0,1.09.52.21.58A5.39,5.39,0,0,1,83,9.92Z"/><path class="cls-12" d="M75.4,13.2a4,4,0,0,0-1.16,1c-.24.42.71.85,1,.09S75.4,13.2,75.4,13.2Z"/><path class="cls-12" d="M76.75,13.2a1.56,1.56,0,0,0-.32,1c0,.65.87.81.81,0A1.23,1.23,0,0,0,76.75,13.2Z"/><path class="cls-12" d="M78.2,13a5.12,5.12,0,0,0,.19,1.21c.17.53,1.39.8.89-.12A2.09,2.09,0,0,0,78.2,13Z"/><path class="cls-12" d="M80,12.9a4.22,4.22,0,0,0,1,1.34c.65.57,1.33.14.73-.51A3.51,3.51,0,0,0,80,12.9Z"/><path class="cls-12" d="M81.47,12.33a5.9,5.9,0,0,0,1.42,1.22c.77.43,1.54,0,.62-.52A6.47,6.47,0,0,0,81.47,12.33Z"/><path class="cls-12" d="M82.6,11.46a7.5,7.5,0,0,0,2.12,1c.82.13,1.34-.74.42-.89A17.2,17.2,0,0,0,82.6,11.46Z"/><path class="cls-12" d="M83.11,10.76a5.74,5.74,0,0,1,1.77-.28c.66.08,1.23.53.52.56A14.53,14.53,0,0,1,83.11,10.76Z"/><rect class="cls-11" x="82.46" y="32.98" width="22.72" height="1.23"/><path class="cls-11" d="M105.18,34c0,3.34-5.09,6-11.36,6s-11.36-2.71-11.36-6,5.08-6,11.36-6S105.18,30.66,105.18,34Z"/><path class="cls-12" d="M105.18,33c0,3.34-5.09,6.05-11.36,6.05S82.46,36.38,82.46,33s5.08-6,11.36-6S105.18,29.71,105.18,33Z"/><path class="cls-13" d="M104,33c0,2.82-4.56,5.1-10.18,5.1S83.64,35.86,83.64,33,88.2,28,93.82,28,104,30.23,104,33Z"/><path class="cls-11" d="M87.05,35.63c-1,0-3.84-3.28-.09-5.52s8.78-1.51,9.82-1.27c1.46.35-.08,1.7-1.81,1.83a14.06,14.06,0,0,0-3.75.77c-1.32.58-1.83,1.45-1.78,1.89C89.52,34.15,87.88,35.61,87.05,35.63Z"/><path class="cls-11" d="M90.48,34.3c-1,.56-2.66,2-.86,2.53A15.07,15.07,0,0,0,100.06,36c2.77-1.3,3.43-3.46,1.81-5-1.17-1.1-2.33-1.19-3-.76-1.52,1-.18,2.74-3.14,3.33C94,33.94,91.67,33.68,90.48,34.3Z"/><path class="cls-12" d="M94.73,30.11s.8-1-.16-1C93.94,29.11,94.73,30.11,94.73,30.11Z"/><path class="cls-12" d="M93.66,30.24s0-1.31-1-1.15C92,29.19,93.66,30.24,93.66,30.24Z"/><path class="cls-12" d="M92.15,30.36s-.66-1.19-1.4-.95S92.15,30.36,92.15,30.36Z"/><path class="cls-12" d="M90.61,30.94s-.78-1.41-1.8-1S90.61,30.94,90.61,30.94Z"/><path class="cls-12" d="M89.42,31.78S88.17,30.3,87,31C86.27,31.52,89.42,31.78,89.42,31.78Z"/><path class="cls-12" d="M88.73,32.64s-1.83-.62-2.45-.19S87.43,33.51,88.73,32.64Z"/><path class="cls-12" d="M88.59,33.6a4.63,4.63,0,0,0-1.89.46c-.3.2,0,.7.6.59A1.64,1.64,0,0,0,88.59,33.6Z"/><path class="cls-12" d="M98.82,31.3a2,2,0,0,1,1.31-.47c.74,0,1.1.52.22.58A5.25,5.25,0,0,1,98.82,31.3Z"/><path class="cls-12" d="M91.22,34.58a4.08,4.08,0,0,0-1.15,1c-.25.42.71.85,1,.09S91.22,34.58,91.22,34.58Z"/><path class="cls-12" d="M92.58,34.58a1.58,1.58,0,0,0-.32,1.05c0,.65.87.8.81,0A1.29,1.29,0,0,0,92.58,34.58Z"/><path class="cls-12" d="M94,34.42a5.12,5.12,0,0,0,.19,1.21c.17.53,1.38.8.89-.12A2,2,0,0,0,94,34.42Z"/><path class="cls-12" d="M95.77,34.29a4.35,4.35,0,0,0,1,1.34c.65.57,1.32.14.72-.51A3.51,3.51,0,0,0,95.77,34.29Z"/><path class="cls-12" d="M97.3,33.72a5.67,5.67,0,0,0,1.42,1.22c.77.43,1.54,0,.61-.53A6.51,6.51,0,0,0,97.3,33.72Z"/><path class="cls-12" d="M98.42,32.85a7.46,7.46,0,0,0,2.13,1c.82.13,1.34-.74.42-.89A17.32,17.32,0,0,0,98.42,32.85Z"/><path class="cls-12" d="M98.94,32.15a5.41,5.41,0,0,1,1.76-.28c.67.08,1.24.53.53.56A14.53,14.53,0,0,1,98.94,32.15Z"/><rect class="cls-11" x="42.59" y="31.99" width="22.72" height="1.23"/><path class="cls-11" d="M65.31,33c0,3.33-5.09,6-11.36,6s-11.36-2.71-11.36-6S47.67,27,54,27,65.31,29.66,65.31,33Z"/><path class="cls-12" d="M65.31,32.05c0,3.33-5.09,6-11.36,6s-11.36-2.71-11.36-6S47.67,26,54,26,65.31,28.71,65.31,32.05Z"/><ellipse class="cls-13" cx="53.95" cy="32.05" rx="10.18" ry="5.09"/><path class="cls-11" d="M47.18,34.63c-1,0-3.84-3.28-.09-5.52s8.78-1.51,9.82-1.26c1.46.34-.08,1.69-1.81,1.82a14.06,14.06,0,0,0-3.75.77c-1.32.58-1.83,1.45-1.78,1.9C49.65,33.15,48,34.61,47.18,34.63Z"/><path class="cls-11" d="M50.61,33.31c-1,.55-2.66,2-.86,2.52A15,15,0,0,0,60.19,35C63,33.7,63.62,31.55,62,30c-1.17-1.09-2.33-1.19-3-.76-1.52,1-.18,2.74-3.14,3.33C54.12,32.94,51.8,32.68,50.61,33.31Z"/><path class="cls-12" d="M54.86,29.11s.8-1-.16-1C54.07,28.12,54.86,29.11,54.86,29.11Z"/><path class="cls-12" d="M53.79,29.24s0-1.31-1-1.15C52.1,28.2,53.79,29.24,53.79,29.24Z"/><path class="cls-12" d="M52.28,29.37s-.66-1.2-1.4-1S52.28,29.37,52.28,29.37Z"/><path class="cls-12" d="M50.74,30s-.78-1.42-1.8-1S50.74,30,50.74,30Z"/><path class="cls-12" d="M49.55,30.78S48.3,29.3,47.16,30C46.4,30.52,49.55,30.78,49.55,30.78Z"/><path class="cls-12" d="M48.86,31.65S47,31,46.41,31.46,47.56,32.51,48.86,31.65Z"/><path class="cls-12" d="M48.72,32.6a4.63,4.63,0,0,0-1.89.46c-.3.21,0,.7.6.59A1.62,1.62,0,0,0,48.72,32.6Z"/><path class="cls-12" d="M59,30.31a2,2,0,0,1,1.31-.48c.74,0,1.1.52.22.58A5.49,5.49,0,0,1,59,30.31Z"/><path class="cls-12" d="M51.35,33.59a4.18,4.18,0,0,0-1.15.95c-.25.42.71.85,1,.09S51.35,33.59,51.35,33.59Z"/><path class="cls-12" d="M52.71,33.59a1.56,1.56,0,0,0-.32,1c0,.65.87.81.81,0A1.26,1.26,0,0,0,52.71,33.59Z"/><path class="cls-12" d="M54.16,33.42a5.12,5.12,0,0,0,.19,1.21c.17.53,1.38.81.89-.12A2.09,2.09,0,0,0,54.16,33.42Z"/><path class="cls-12" d="M55.9,33.29a4.35,4.35,0,0,0,1,1.34c.65.57,1.32.14.72-.5A3.47,3.47,0,0,0,55.9,33.29Z"/><path class="cls-12" d="M57.43,32.72a5.67,5.67,0,0,0,1.42,1.22c.77.43,1.54,0,.61-.52A6.38,6.38,0,0,0,57.43,32.72Z"/><path class="cls-12" d="M58.55,31.85a7.46,7.46,0,0,0,2.13,1c.82.13,1.34-.74.42-.89A17.32,17.32,0,0,0,58.55,31.85Z"/><path class="cls-12" d="M59.07,31.15a5.72,5.72,0,0,1,1.76-.28c.67.08,1.24.53.53.56A14.53,14.53,0,0,1,59.07,31.15Z"/><rect class="cls-8" x="68.97" y="40.85" width="19.99" height="1.08"/><path class="cls-8" d="M89,41.74c0,2.93-4.47,5.31-10,5.31s-10-2.38-10-5.31,4.48-5.32,10-5.32S89,38.8,89,41.74Z"/><path class="cls-9" d="M89,40.9c0,2.94-4.47,5.32-10,5.32S69,43.84,69,40.9s4.48-5.32,10-5.32S89,38,89,40.9Z"/><path class="cls-10" d="M87.92,40.9c0,2.47-4,4.48-9,4.48s-9-2-9-4.48,4-4.48,9-4.48S87.92,38.43,87.92,40.9Z"/><path class="cls-8" d="M78.5,40.51S76.61,38,74.12,38.16c-3.32.26-2.87,1.45-2,2.35S75.83,41.23,78.5,40.51Z"/><path class="cls-8" d="M79.26,40.46a8.49,8.49,0,0,1,4.76-2c2.57,0,2.72,1.13,1.85,2C84.81,41.65,81.92,41.19,79.26,40.46Z"/><path class="cls-8" d="M78.5,40.9s-3.65.86-4.75,1.26-.13,1.93,2.17,2C78.92,44.15,78.5,40.9,78.5,40.9Z"/><path class="cls-8" d="M79.18,40.9a43.38,43.38,0,0,1,4.75,1.26c1.33.6-.52,1.93-2.82,2C78.11,44.15,79.18,40.9,79.18,40.9Z"/><path class="cls-8" d="M79,40a16.4,16.4,0,0,1-1.86-1.88c-.34-.52.41-1.24,2.15-1.25,2.4,0,2.6.69,1.8,1.56A9.11,9.11,0,0,1,79,40Z"/><path class="cls-10" d="M35.13,19.25A24.29,24.29,0,0,0,34.61,24c.52,3.31,4.31,2.61,4.31,2.61A78.27,78.27,0,0,0,35.13,19.25Z"/><path class="cls-14" d="M25.64,21.1h0v0a1.15,1.15,0,0,0,0-.32A4.79,4.79,0,0,0,22,16.66c-2.57-.69-5.05.49-5.66,2.77a6.79,6.79,0,0,0-.13,1.45,3.32,3.32,0,0,0,.58,1c1.28,1.28,4.17,1.83,6.45,1.22C24.7,22.74,25.56,22,25.64,21.1Z"/><path class="cls-15" d="M24,19.13c-.17.63-1.18.91-2.26.62s-1.82-1-1.65-1.68,1.19-.92,2.27-.63S24.2,18.49,24,19.13Z"/><path class="cls-14" d="M82.93,23.88h0a1.13,1.13,0,0,0,0-.32,4.79,4.79,0,0,0-3.65-4.11c-2.57-.69-5,.49-5.66,2.77a6.79,6.79,0,0,0-.13,1.45,3.32,3.32,0,0,0,.58,1c1.28,1.28,4.17,1.83,6.46,1.22C82,25.52,82.85,24.73,82.93,23.88Z"/><path class="cls-15" d="M81.31,21.91c-.17.63-1.18.91-2.26.62s-1.82-1-1.65-1.68,1.19-.92,2.27-.63S81.49,21.27,81.31,21.91Z"/><path class="cls-14" d="M104.43,36h0v0a1.77,1.77,0,0,0,0-.32,4.76,4.76,0,0,0-3.65-4.1c-2.57-.69-5,.49-5.66,2.77A8.39,8.39,0,0,0,95,35.77a3.43,3.43,0,0,0,.58,1c1.28,1.29,4.17,1.83,6.46,1.23C103.5,37.62,104.35,36.84,104.43,36Z"/><path class="cls-15" d="M102.82,34c-.18.64-1.19.92-2.27.63s-1.82-1-1.65-1.68,1.19-.92,2.27-.63S103,33.37,102.82,34Z"/><path class="cls-14" d="M93,26.14h0a1.13,1.13,0,0,1,0-.32,4.79,4.79,0,0,1,3.65-4.11c2.57-.69,5,.49,5.66,2.77a6.79,6.79,0,0,1,.13,1.45,3.32,3.32,0,0,1-.58,1c-1.28,1.28-4.17,1.83-6.46,1.22C93.93,27.77,93.07,27,93,26.14Z"/><path class="cls-15" d="M94.6,24.16c.18.64,1.19.92,2.27.63s1.82-1,1.65-1.68-1.19-.92-2.27-.63S94.43,23.53,94.6,24.16Z"/><path class="cls-14" d="M19.93,42.22h0v0c0-.11,0-.21,0-.32a4.79,4.79,0,0,1,3.66-4.1c2.57-.7,5,.48,5.66,2.76A8.5,8.5,0,0,1,29.38,42a3.43,3.43,0,0,1-.58,1c-1.28,1.28-4.17,1.83-6.46,1.22C20.86,43.85,20,43.07,19.93,42.22Z"/><path class="cls-15" d="M21.54,40.24c.17.64,1.19.92,2.27.63s1.82-1,1.64-1.69-1.18-.92-2.26-.62S21.37,39.6,21.54,40.24Z"/><path class="cls-14" d="M63.35,11.74h0v0a1.16,1.16,0,0,1,0-.32A4.76,4.76,0,0,1,67,7.3c2.57-.69,5,.49,5.66,2.77a7.5,7.5,0,0,1,.13,1.45,3.43,3.43,0,0,1-.58,1c-1.28,1.29-4.17,1.83-6.46,1.23C64.28,13.37,63.43,12.59,63.35,11.74Z"/><path class="cls-15" d="M65,9.76c.18.64,1.19.92,2.27.63s1.82-1.05,1.65-1.68-1.19-.92-2.27-.63S64.79,9.12,65,9.76Z"/><path class="cls-14" d="M49.22,41.51h0v0a1.15,1.15,0,0,1,0-.32,4.8,4.8,0,0,1,3.66-4.11c2.56-.69,5,.49,5.66,2.77a8.47,8.47,0,0,1,.13,1.45,3.56,3.56,0,0,1-.58,1c-1.28,1.28-4.18,1.83-6.46,1.22C50.16,43.14,49.3,42.36,49.22,41.51Z"/><path class="cls-15" d="M50.84,39.53c.17.63,1.19.91,2.27.62s1.81-1,1.64-1.68-1.19-.92-2.27-.63S50.67,38.89,50.84,39.53Z"/><path class="cls-14" d="M36.5,24.62h0v0a1.74,1.74,0,0,1,0-.32,4.78,4.78,0,0,1,3.66-4.1c2.57-.69,5,.49,5.66,2.76A8.5,8.5,0,0,1,46,24.4a3.69,3.69,0,0,1-.58,1c-1.28,1.28-4.18,1.83-6.46,1.22C37.44,26.25,36.58,25.47,36.5,24.62Z"/><path class="cls-15" d="M38.12,22.64c.17.64,1.19.92,2.27.63S42.2,22.22,42,21.59s-1.19-.92-2.27-.63S38,22,38.12,22.64Z"/><path class="cls-10" d="M77.77,32.43s-2.93-2.8-4.87-1.49a7.35,7.35,0,0,0-2.61,2.95S75.7,34.25,77.77,32.43Z"/><path class="cls-16" d="M32.43,23.88A5,5,0,0,0,29.57,21c-2.27-.75-4.66,1-5.55,3.23-.46,1.14-.82,2.15.25,3a2.91,2.91,0,0,0,1.89.48,11.69,11.69,0,0,1,3.07.7c1.17.35,2.71.42,3.52-.69S32.89,24.92,32.43,23.88Z"/><path class="cls-16" d="M37.43,10.5c-1.2-.74-3.75,0-4.82,1a1.81,1.81,0,0,0-.43,2.28,4.88,4.88,0,0,0,2.68,1.58,3.48,3.48,0,0,0,2.85-.39A2.63,2.63,0,0,0,37.43,10.5Z"/><path class="cls-16" d="M55.63,10.76a6.45,6.45,0,0,0-3.86.25c-1.64.58-2.79,2.21-4.57,2.36l-.11,0a2.24,2.24,0,0,0-2,.51.89.89,0,0,0-.23.88c.55,1.93,4,3.57,5.82,3.5,1.48-.05,3.09-.93,4.49-1.37A4.31,4.31,0,0,0,57.9,15C58.9,13.07,57.5,11.3,55.63,10.76Z"/><path class="cls-16" d="M72,14.29c-1.9-1.78-6.15-.17-8.37.67-1.18.44-2.28,1.21-1.17,2.46.84.94,2.66,1.34,3.79,1.78s2.18,1.15,3.17.19a14.3,14.3,0,0,1,1.6-1.49,4,4,0,0,0,1.18-1.07A2,2,0,0,0,72,14.29Z"/><path class="cls-16" d="M61.09,19.58c-1.12-.76-1.92-1.39-2.67-1.4a2.34,2.34,0,0,0-2.28,1.54c-.73,2.49,2.78,3.71,4.58,2.66C61.6,21.85,62.13,20.3,61.09,19.58Z"/><path class="cls-16" d="M46.75,36.57c-1.48-1.6-3.42-.11-5,.54a3.68,3.68,0,0,0-1.13-.72c-1.46-.57-3-.38-4.38-1.18-1-.55-1.67-1.39-2.86-1.4-1,0-3.37,2.17-3.37,3a1.53,1.53,0,0,0,1,1.37c.71.38,1,.14,1.59.86a5.36,5.36,0,0,1,.57,1.37c.64,1.6,1.58,3.14,3.54,3a8.8,8.8,0,0,0,3.46-1.52A16.8,16.8,0,0,0,41.66,41a7.24,7.24,0,0,0,3.43,0C46.8,40.41,48.18,38.13,46.75,36.57Z"/><path class="cls-16" d="M40.93,29.21c-1.09-1.41-4.24-1.7-5.19-.12-1.13,1.87.75,3,1.51,3.44a3.61,3.61,0,0,0,3,.52C41.77,32.41,41.84,30.39,40.93,29.21Z"/><path class="cls-16" d="M81.94,30.29c-1.93-.26-4.12-.05-5.27,1.56-1.64,2.29,0,5,2.62,5.4,2.13.36,6.55-.59,6.93-3.22C86.56,31.57,84.1,30.57,81.94,30.29Z"/><path class="cls-16" d="M88.89,20.14c-1-.09-4.36,2.13-4.73,2.82a2.58,2.58,0,0,0,.25,2.95c1.59,1.74,5.09,1,6.46-.64A3.08,3.08,0,0,0,88.89,20.14Z"/><path class="cls-16" d="M88.3,17a2.56,2.56,0,0,0-1.7-1.41c-.63-.16-3.67.62-3.81,1.46-.29,1.79,1.64,2.82,3.14,2.84S89.07,18.7,88.3,17Z"/><path class="cls-16" d="M69.65,24.08c-1.46,1.6.76,3.38,2.24,3.63s4-.54,4-2.47S70.4,23.26,69.65,24.08Z"/><path class="cls-16" d="M77.72,39.24c-.39-1.92-2.26-1.83-3.71-2.19-2.27-.56-3.62-2.87-6.06-2.74a13.82,13.82,0,0,0-6.4,2.74c-1,.79-1.78,1.91-1.14,3.23.75,1.55,6.17,2.75,7.34,2.78,2.31.06,6.2.12,8.32-1A2.73,2.73,0,0,0,77.72,39.24Z"/><path class="cls-16" d="M53.91,25.49A4,4,0,0,0,50,23.06a4.33,4.33,0,0,0-2.33.8c-1,.76-1.25,1.78-2.65,1.85-.84,0-1.47-.29-2.22.29a1.79,1.79,0,0,0-.67,1.68c.12,1,2.71,3.27,3.7,3.43,2,.33,5,.49,6.73-.76A4.32,4.32,0,0,0,53.91,25.49Z"/><path class="cls-16" d="M13.79,25.83a.84.84,0,0,0,.37.91,2.45,2.45,0,0,0,2.51.42,1.87,1.87,0,0,0,1-1.78C17.56,23.49,14.42,23.54,13.79,25.83Z"/><path class="cls-16" d="M23,29.7a2.59,2.59,0,0,0-1.15-1.21c-.5-.34-2.86-.87-2.92.7,0,1,1.15,2.1,2.06,2.35C22.05,31.83,23.35,30.89,23,29.7Z"/><path class="cls-16" d="M45.3,9.74a2.6,2.6,0,0,0-3.51,1.91.69.69,0,0,0,.49.85,2.83,2.83,0,0,0,3.38-1.88A.79.79,0,0,0,45.3,9.74Z"/><path class="cls-16" d="M36.85,17.78a5.86,5.86,0,0,0-3.39.93c-.38.4-.75,1.48-.31,1.78a3.48,3.48,0,0,0,3.64.12,1.89,1.89,0,0,0,1.09-1.38A1.46,1.46,0,0,0,36.85,17.78Z"/><path class="cls-16" d="M45.44,42.7a2,2,0,0,0-2.37.43,5.08,5.08,0,0,0-1.32,2.09.68.68,0,0,0,.36.63c1.24.54,3.82.36,4.23-1.25A1.77,1.77,0,0,0,45.44,42.7Z"/><path class="cls-16" d="M93.83,30.83c-.3-1.15-5.14-.18-5.25.88-.17,1.43,2,1.73,3,1.66C92.84,33.28,94.2,32.21,93.83,30.83Z"/><path class="cls-15" d="M28.62,22.51c-.74-1.05-3.1.64-3.1,1.68,0,.84.63,1.16,1.37,1.29.93.17,1.88.4,2.56-.44S29.13,23.23,28.62,22.51Z"/><path class="cls-15" d="M55.73,12.13a4,4,0,0,0-4,.34l-.17,0a6.53,6.53,0,0,0-1,.54c-.39.21-.87.21-1.22.42a.74.74,0,0,0-.42.84c.29,1.34,1.89.62,2.5.09a3.69,3.69,0,0,1,3.16-1.2c.54.12.87.19,1.31-.22A.55.55,0,0,0,55.73,12.13Z"/><path class="cls-15" d="M37.24,11.67a1.63,1.63,0,0,0-2.64-.06.67.67,0,0,0-.07.18,1.68,1.68,0,0,0-.54.26.54.54,0,0,0-.11.84c.74.59,1.83,1.89,2.9,1.38A1.72,1.72,0,0,0,37.24,11.67Z"/><path class="cls-15" d="M49.79,24.08a1.57,1.57,0,0,0-.79.34,2.19,2.19,0,0,0-1.09.4,1.47,1.47,0,0,0-.52,1.82c.23.38.55.38.89.57s.41.37.66.5a1.86,1.86,0,0,0,2.15-.37C52.17,26.24,51.54,23.88,49.79,24.08Z"/><path class="cls-15" d="M47,28.29c-.19-.79-1.11-1.08-1.8-1.2a.68.68,0,0,0-.7.28c-.31.08-.47.6-.37.88a2.45,2.45,0,0,0,1.59,1.27A1,1,0,0,0,47,28.29Z"/><path class="cls-15" d="M36.37,36.63a1.47,1.47,0,0,0-.83-.15c-.78-.63-2.4-1.36-2.68-.16a.93.93,0,0,0,.69,1.06,5.36,5.36,0,0,0,.63.08c.13.13.15.61.25.79.6,1,2.28,1.11,2.45-.23A1.35,1.35,0,0,0,36.37,36.63Z"/><path class="cls-15" d="M40,37.14a.88.88,0,0,0-.29.07c-.76-.08-1.42,1.44-1.64,1.92s-.49,1.06-.14,1.62a1.35,1.35,0,0,0,1.5.57,3.22,3.22,0,0,0,2.13-2.17A1.65,1.65,0,0,0,40,37.14Z"/><path class="cls-15" d="M44.77,36.88a1.69,1.69,0,0,0-1,.45,2.17,2.17,0,0,0-.62.49.65.65,0,0,0,.13,1A1.61,1.61,0,0,0,45.71,38,.91.91,0,0,0,44.77,36.88Z"/><path class="cls-15" d="M58.32,19.16c-.58.09-.93.87-.92,1.46a1.11,1.11,0,0,0,1.19,1,1.4,1.4,0,0,0,1.38-.8A1.69,1.69,0,0,0,58.32,19.16Z"/><path class="cls-15" d="M69.69,14.43a1.59,1.59,0,0,0-.9-.14,2.51,2.51,0,0,0-.94.15c-.57.21-.84.71-1.46.84-.8.16-2.31.23-1.91,1.51.33,1.07,2.08,1,2.92,1a2.19,2.19,0,0,0,1.6-.4,1.24,1.24,0,0,0,.38-.71.82.82,0,0,0,0-.49s0,0,0-.08l.3-.15A.86.86,0,0,0,69.69,14.43Z"/><path class="cls-15" d="M72,24.24a1,1,0,0,0-1.23.39c-.61.94.85,1.62,1.53,1.84a1.38,1.38,0,0,0,1.92-1.27C74.13,24.08,72.85,24,72,24.24Z"/><path class="cls-15" d="M88.5,21.69a5.46,5.46,0,0,0-1.45.72,1.34,1.34,0,0,0-.26.27l-.16.11c-.51.4-1.12,1.15-.48,1.74s1.38.19,1.92-.14a3,3,0,0,0,.89-.8,2.81,2.81,0,0,0,.4-1C89.49,22.07,89,21.49,88.5,21.69Z"/><path class="cls-15" d="M71.47,37.54a7.28,7.28,0,0,0-3.18-1.37c-1.49-.59-3.93.56-4.06,2.18a.84.84,0,0,0,.83.84c1.86-.16,3.19.93,5,1.19.89.14,2.66.51,3.15-.56S72.25,38,71.47,37.54Z"/><path class="cls-15" d="M83.15,32.14c-.26-.56-.88-.62-1.43-.64a4.1,4.1,0,0,0-1.18.09,4.3,4.3,0,0,0-.62,0c-.5.09-1.13.17-1.33.72-.47,1.36,1.71,1.6,2.54,1.52S83.73,33.43,83.15,32.14Z"/><path class="cls-15" d="M91,31a.54.54,0,0,0-.68.39l0,.09a.41.41,0,0,0,.19.47l.09.06a.54.54,0,0,0,.67-.08C91.39,31.76,91.87,31.35,91,31Z"/><path class="cls-10" d="M21.19,33.45A8.05,8.05,0,0,0,17,36.71a6.3,6.3,0,0,0-1.08,4.21s4.44-1.08,5-3.36A12.23,12.23,0,0,0,21.19,33.45Z"/><path class="cls-10" d="M10.26,30.85s.57,3.52,4.05,2.64S20.44,32,20.44,32a12.61,12.61,0,0,0-5-1.27C12.9,30.71,10.26,30.85,10.26,30.85Z"/><path class="cls-10" d="M58.55,31.85a25.14,25.14,0,0,0,4.32,2.36c1.84.67,6.39-1.49,6.39-1.49a10.44,10.44,0,0,0-5.38-1.78A14,14,0,0,0,58.55,31.85Z"/><path class="cls-10" d="M50.61,33.31s2-2.39,3.85-2.55S59,30.31,59,30.31s.15,2.69-3.05,3A25.85,25.85,0,0,1,50.61,33.31Z"/><path class="cls-10" d="M63.79,44.85a3.5,3.5,0,0,0,2.53,3.85,7.43,7.43,0,0,0,5.17-.21,3.52,3.52,0,0,0-2.61-2.69A27.5,27.5,0,0,0,63.79,44.85Z"/><path class="cls-10" d="M54.16,2.93s-1.78,1.26-3.72,2.8a11.4,11.4,0,0,0-2.95,4.55s6-.18,7-3.14S54.16,2.93,54.16,2.93Z"/><path class="cls-10" d="M29.38,7.64a3.51,3.51,0,0,0,3.94,1.1C36,8,39.38,7.3,39.38,7.3A4.54,4.54,0,0,0,35.12,6,50.61,50.61,0,0,0,29.38,7.64Z"/><path class="cls-10" d="M24.06,9.58s-1.16,1.2,0,3.74S26.74,16,26.74,16s1.94-2.69.81-4.24A7.29,7.29,0,0,0,24.06,9.58Z"/><path class="cls-10" d="M84.11,8.85c-.37.14-4.25,1.64-5,3.22s-1.82,3.65-1.82,3.65,4.19-1.37,5.22-2.81A14.73,14.73,0,0,0,84.11,8.85Z"/><path class="cls-10" d="M74.92,8A4.2,4.2,0,0,0,73.61,12,23.06,23.06,0,0,0,75,15.65s1.91-3.44,1.91-4.52S74.92,8,74.92,8Z"/><path class="cls-10" d="M91.07,35.63s-.36,3.45,1.08,5.15a11,11,0,0,0,3.62,2.64A5.26,5.26,0,0,0,95,38.21C93.07,35.63,91.07,35.63,91.07,35.63Z"/><path class="cls-10" d="M81.8,27s2.59,3,4.36,3.43,4.59-1,4.59-1a17.78,17.78,0,0,0-3.65-1.23C85.34,27.85,81.8,27,81.8,27Z"/><path class="cls-10" d="M57.49,19.53a18,18,0,0,1-2.32,3.23,14,14,0,0,1-3,2.44s4.22,1.2,5.32-1.17A5.46,5.46,0,0,0,57.49,19.53Z"/><path class="cls-16" d="M26.85,31.21a1,1,0,0,0-1.48-.59c-.36.16-1.31,2.17.72,2.06C26.69,32.65,27,31.86,26.85,31.21Z"/><path class="cls-16" d="M40.92,8.91a1,1,0,0,0-1.68.29,1,1,0,0,0-.07.5.88.88,0,0,0,.08,1c.42.52,1.2.29,1.61-.13A1.23,1.23,0,0,0,40.92,8.91Z"/><path class="cls-16" d="M77.46,16.86a1.47,1.47,0,0,0-1-.8.79.79,0,0,0-1,.54.67.67,0,0,0-.22.64,1.33,1.33,0,0,0,1.71.87A.86.86,0,0,0,77.46,16.86Z"/><path class="cls-16" d="M60.51,10.21a1.52,1.52,0,0,0-1-.8.79.79,0,0,0-1,.54.64.64,0,0,0-.21.64,1.31,1.31,0,0,0,1.7.87A.87.87,0,0,0,60.51,10.21Z"/><path class="cls-16" d="M73.22,19.06a.59.59,0,0,0-.65.24,2.46,2.46,0,0,0-1,.85.63.63,0,0,0,.54.94,1.82,1.82,0,0,0,1.49-.73A.78.78,0,0,0,73.22,19.06Z"/><path class="cls-16" d="M52.18,47a.58.58,0,0,0-.66.23,2.54,2.54,0,0,0-1,.85.63.63,0,0,0,.54.94,1.83,1.83,0,0,0,1.49-.72A.78.78,0,0,0,52.18,47Z"/><path class="cls-16" d="M59.67,36.06a2,2,0,0,0-.54-.83,1.19,1.19,0,0,0-.58-1.52,1,1,0,0,0-1.15.15.84.84,0,0,0-.18.28,1.4,1.4,0,0,0-1.47.51,1.38,1.38,0,0,0,.67,2.08,1.94,1.94,0,0,0,1.84-.36,1.61,1.61,0,0,0,.69.41A.6.6,0,0,0,59.67,36.06Z"/><path class="cls-16" d="M56.71,47.76a1.28,1.28,0,0,0-1.4,1.15,1.57,1.57,0,0,0-.18.65.74.74,0,0,0,.74.74c.91,0,1.4-.81,1.56-1.6A.76.76,0,0,0,56.71,47.76Z"/><path class="cls-16" d="M101.93,27.79a2,2,0,0,0-1.08.24.81.81,0,0,0-.4.76,1.55,1.55,0,0,0-.24.19.63.63,0,0,0,.44,1.07,2.51,2.51,0,0,0,1.84-.9A.81.81,0,0,0,101.93,27.79Z"/><path class="cls-16" d="M94.79,18a.73.73,0,0,0-.4,1.09s0,0,0,0c0,1,1.7,2.23,2.29,1C97.15,19.06,95.82,17.7,94.79,18Z"/><path class="cls-16" d="M78.91,27.76a1.64,1.64,0,0,0-2.12.19,1,1,0,0,0-.51,1.31,1.36,1.36,0,0,0,1.55.68A2.1,2.1,0,0,0,79.24,29,.91.91,0,0,0,78.91,27.76Z"/><path class="cls-16" d="M62.84,45.43a1.66,1.66,0,0,0-2.13.2,1,1,0,0,0-.51,1.31,1.37,1.37,0,0,0,1.56.68,2.08,2.08,0,0,0,1.4-.94A.93.93,0,0,0,62.84,45.43Z"/></g></g></svg>