<svg xmlns="http://www.w3.org/2000/svg" viewBox="0 0 218.7 327.74"><defs><style>.cls-1{isolation:isolate;}.cls-2{fill:#f2c083;}.cls-10,.cls-3,.cls-4{fill:#1a2742;}.cls-3{opacity:0.3;}.cls-10,.cls-12,.cls-3,.cls-4,.cls-8{mix-blend-mode:overlay;}.cls-12,.cls-4{opacity:0.2;}.cls-5{fill:#ffdcae;}.cls-6{fill:#ffe6c2;}.cls-7{fill:#ffd7a6;}.cls-8{fill:#001f56;opacity:0.5;}.cls-9{fill:#f7b746;}.cls-10{opacity:0.4;}.cls-11{fill:#ffc95c;}.cls-12{fill:#fff;}.cls-13{fill:#dd361f;}.cls-14{fill:#ed4f35;}.cls-15{fill:#ce4521;}.cls-16{fill:#ff5e48;}.cls-17{fill:#f78d69;}.cls-18{fill:#ff6e5f;}.cls-19{fill:#e07668;}.cls-20{fill:#f4a190;}.cls-21{fill:#ed8b7c;}.cls-22{fill:#ffb7ab;}.cls-23{fill:#799905;}.cls-24{fill:#8ead0c;}.cls-25{fill:#6f8902;}.cls-26{fill:#90af0e;}.cls-27{fill:#a8c117;}</style></defs><g class="cls-1"><g id="Слой_2" data-name="Слой 2"><g id="Layer_1" data-name="Layer 1"><path class="cls-2" d="M200.09,270.24c.12-.38.24-.75.33-1.16a53.78,53.78,0,0,0,1.06-6.15.49.49,0,0,0,0-.12V238.46l-18.24,3.6c-17.78-9-39.33-8.93-59.53-7.77-19.71,1.14-39.64,3-58.2,9.78-15.93,5.79-30.89,15.58-40.69,29.25l-9.49,1.87v24.63a62,62,0,0,0,2.58,11.36c3.45,7.4,10.38,13.13,20.82,15.57,20.8,4.86,45.37-9.61,65.43-14.74,29.13-7.44,59.83-12.65,84.58-29.72C193.3,279.14,197.85,275.15,200.09,270.24Z"/><path class="cls-3" d="M200.09,270.24c.12-.38.24-.75.33-1.16a53.78,53.78,0,0,0,1.06-6.15.49.49,0,0,0,0-.12V258a69.07,69.07,0,0,1-9.76,13.05c-10.23,10.74-23.69,18.14-38,22.17-24.47,6.9-51.63,4.38-74.26,16C70.89,313.61,63.08,320,53.63,322c-8.58,1.81-18.46-.8-23.58-7.91-6.71-9.31-5-28.23-2.09-38.76,1.05-3.84,3.81-6.79,4.32-10.73a69,69,0,0,0-7.47,8.73l-9.49,1.87v24.63a62,62,0,0,0,2.58,11.36c3.45,7.4,10.38,13.13,20.82,15.57,20.8,4.86,45.37-9.61,65.43-14.74,29.13-7.44,59.83-12.65,84.58-29.72C193.3,279.14,197.85,275.15,200.09,270.24Z"/><path class="cls-3" d="M200.09,270.24c.12-.38.24-.75.33-1.16a53.78,53.78,0,0,0,1.06-6.15.49.49,0,0,0,0-.12V238.46l-18.24,3.6c-17.78-9-39.33-8.93-59.53-7.77-19.71,1.14-39.64,3-58.2,9.78-15.93,5.79-30.89,15.58-40.69,29.25l-9.49,1.87v24.63a62,62,0,0,0,2.58,11.36c3.45,7.4,10.38,13.13,20.82,15.57,10.72,2.51,22.44-.13,34-4,.39-1.41.74-2.83,1.07-4.23,3.31-14,5.92-28.4,12-41.47s16.38-25,30.14-29.28c3.54-1.11,7.41-1.68,10.94-.53,5.29,1.73,8.67,6.88,10.86,12,5,11.71,5.88,24.69,8.77,37.09a41.24,41.24,0,0,0,1.26,4.47c14.5-4.38,28.46-10,40.92-18.55C193.3,279.14,197.85,275.15,200.09,270.24Z"/><path class="cls-4" d="M65.5,244.07c-15.93,5.79-30.89,15.58-40.69,29.25l-9.49,1.87v24.63a62.65,62.65,0,0,0,2.59,11.4c3.35,7.15,10,12.73,19.88,15.29C40.84,320,41,312.24,40.38,305c-.72-8.81-2.31-17.81-.17-26.39,2-8.05,7.21-15,13.47-20.47,10.85-9.45,24.69-14.61,38.2-19.58l5.06-1.84A150.87,150.87,0,0,0,65.5,244.07Z"/><path class="cls-4" d="M200.09,270.24c.12-.38.24-.75.33-1.16a53.78,53.78,0,0,0,1.06-6.15.49.49,0,0,0,0-.12V238.46l-18.24,3.6c-9.78-4.95-20.71-7.15-31.92-7.94a50.14,50.14,0,0,1,16.14,16.75,67.52,67.52,0,0,1,9.19,25.63c.58,4.11.78,8.27,1.14,12.41a110.63,110.63,0,0,0,10.95-6.62C193.3,279.14,197.85,275.15,200.09,270.24Z"/><path class="cls-5" d="M104.15,287.88c29.13-7.44,59.83-12.66,84.58-29.72,6.12-4.23,12.23-10,12.76-17.39.57-7.92-5.49-14.82-12.09-19.24-18.81-12.6-43.1-12.67-65.7-11.37-19.71,1.14-39.64,3-58.2,9.78s-35.81,18.89-45.11,36.31c-10.63,19.91-4.54,41,18.33,46.37C59.52,307.48,84.09,293,104.15,287.88Z"/><path class="cls-6" d="M104.37,286.26c27.62-7.06,56.74-12,80.2-28.18,5.82-4,11.61-9.45,12.11-16.49.54-7.52-5.21-14.06-11.47-18.25-17.83-12-40.87-12-62.3-10.78-18.69,1.08-37.59,2.87-55.19,9.27s-34,17.92-42.78,34.43c-10.08,18.89-4.31,38.91,17.38,44C62.05,304.85,85.35,291.12,104.37,286.26Z"/><path class="cls-7" d="M69.6,267.3c-1.54,0-3.88,2.33-1.64,3.11S72.65,267,69.6,267.3Z"/><path class="cls-7" d="M89.71,252.74c-1.55.42-3.64,1.63-3.39,3.53s2.43,1.88,3.86,1.25c1.15-.5,3.95-1.75,3.75-3.35C93.7,252.37,91,252.41,89.71,252.74Z"/><path class="cls-7" d="M100.67,264.78c1.58,3,7-1.85,5.45-2.8S99.32,262.26,100.67,264.78Z"/><path class="cls-7" d="M121.59,255.55c-1.87-.32-7.45,2.29-3.9,3.92C120.08,260.57,124,256,121.59,255.55Z"/><path class="cls-7" d="M149.52,234.61c1-3-4.67-2-5.32-.26C143.3,236.81,149.17,237.4,149.52,234.61Z"/><path class="cls-7" d="M169.92,235.85a3.12,3.12,0,0,0,1.85-4.3c-.8-1.58-3.27-2.08-4.87-2.34-2.24-.37-3.94,1.37-3,3.6A5.28,5.28,0,0,0,169.92,235.85Z"/><path class="cls-7" d="M170.26,246c-4.22-1.08-7.49,4.89-2.64,6.3C172.12,253.58,175,246.69,170.26,246Z"/><path class="cls-7" d="M95.19,221.37c-4.12-1.22-7.82,5.19-2.68,5.78C95.79,227.52,99.51,222.65,95.19,221.37Z"/><path class="cls-7" d="M110.31,224.5c4-.95.89-5.64-2.39-4.46a2.34,2.34,0,0,0-1.38,3.39C107.32,224.79,109,224.81,110.31,224.5Z"/><path class="cls-7" d="M44.55,251.39c.62.09.43.09-.57,0a4.7,4.7,0,0,0-1.69.33A5.89,5.89,0,0,0,40,253.26a3.28,3.28,0,0,0-.19,4.38c2,2.13,6.88-.14,7.7-2.54a2.38,2.38,0,0,0-.4-2.39C46.77,251.89,45.26,251.38,44.55,251.39Z"/><path class="cls-7" d="M55.35,251.81c-4.27.05-3.71,6.27-.72,5.17.53-.19,1.06-.18,1.61-.38a3.73,3.73,0,0,0,.57-.31,2.82,2.82,0,0,0,1-1.72A2.49,2.49,0,0,0,55.35,251.81Z"/><path class="cls-7" d="M44.69,278.53c-1.55-.56-3.58-.68-4.75.65-1.59,1.82-.55,4.16,1.36,5.18C45.86,286.81,49.62,280.28,44.69,278.53Z"/><path class="cls-7" d="M89.38,281.32c-1.77-2.59-4.61.62-3.67,2.87s4.34,2.23,4.7-.42c0,.11,0,.21,0,.32A2.4,2.4,0,0,0,89.38,281.32Z"/><path class="cls-7" d="M133.23,267.29c-2.28,3.79,6,5.44,6.51.89C140.21,264.4,134.63,264.94,133.23,267.29Z"/><path class="cls-7" d="M150.75,254.51c-3.67,1-3.47,6.2.77,5.24C155.32,258.9,154.69,253.46,150.75,254.51Z"/><path class="cls-7" d="M112.49,233.5c-1.1-.29-3-.82-3.83.12-1.93,2.12,1.55,3.13,2.61,2.76C112.08,236.14,114.31,234,112.49,233.5Z"/><path class="cls-7" d="M53,238.39c-1-2.3-5.16-1.1-4.48,1.47C49.29,242.74,54.1,241,53,238.39Z"/><path class="cls-7" d="M28.78,274.44l-.49-.35c.36.24-1-.49-1.63-.54a3.84,3.84,0,0,0-3.3,1.5,3.62,3.62,0,0,0,1,5.44,2.54,2.54,0,0,0,3-1.19c-.44.61,1.57-1.86.73-1C28.89,277.48,30,275.4,28.78,274.44Z"/><path class="cls-7" d="M144.88,219.44a5.5,5.5,0,0,0,2.08-.88c-.53.32.68-.78.83-1.32a2.4,2.4,0,0,0-.18-1.8,3.77,3.77,0,0,0-4.5-1.4C139,215.48,140.88,220.15,144.88,219.44Z"/><path class="cls-7" d="M134.68,245.85c1.77-.35,2.59-1.9,1.66-3.38a2.77,2.77,0,0,0-3.89-.46C130.74,243.66,132.48,246.29,134.68,245.85Z"/><path class="cls-7" d="M190.36,245.09c-1.42-1-3.3-.7-4.93-.79-1.1-.06-2.59-.47-3.63.06-2.4,1.22-1.15,3.92.47,5.09a8,8,0,0,0,6.83,1.41C191.67,250,192.94,246.83,190.36,245.09Z"/><path class="cls-7" d="M192.07,228.09c-1.77-.86-4.72-.82-6.16.73s-.55,3.59,1.21,4.41,4.3.83,5.62-.55A3,3,0,0,0,192.07,228.09Z"/><path class="cls-8" d="M198.22,230c-9,20.11-29.36,35.28-51.53,36.64-19.35,1.19-38.6-6.95-57.8-4.33-12.36,1.68-24.1,7.77-36.56,7.31-4-.15-8.12-1.07-11.13-3.68-6.5-5.64-5-16.22-1.08-23.92a57.24,57.24,0,0,1,10.14-14.22,33.29,33.29,0,0,1,5.28-3.61C40.93,231.29,28,242,20.39,256.25c-10.63,19.91-4.54,41,18.33,46.37,20.8,4.86,45.37-9.62,65.43-14.74,29.13-7.44,59.83-12.66,84.58-29.72,6.12-4.23,12.23-10,12.76-17.39A16.93,16.93,0,0,0,198.22,230Z"/><path class="cls-9" d="M195.05,221.39a161.05,161.05,0,0,0-75-26.34,87.85,87.85,0,0,0-19.52.15,88.35,88.35,0,0,0-20,5.62c-18.69,7.31-36.1,18.14-50.21,32.42-3.56,3.6-8.06,10.42-11.06,15.24L16,249l0,4.89s34.8,6.66,46.93,9.47c12.76,3,25.56,5.93,37.81,10.54a94.74,94.74,0,0,1,21.13,10.76c24-22.73,48.68-45.89,78.94-59.24l0-4.89Z"/><path class="cls-10" d="M200.79,220.51l-5.74.88c-.86-.57-1.73-1.12-2.61-1.68-10.31.77-22.81,1.63-23.43,1.42-1-.37-40.51,24.47-40.51,24.47l-6.65,34.15,0,4.89c24-22.73,48.68-45.89,78.94-59.24Z"/><path class="cls-11" d="M62.91,258.45c12.76,3,25.56,5.93,37.81,10.54a95,95,0,0,1,21.13,10.76c24-22.73,48.68-45.89,78.94-59.24a160.94,160.94,0,0,0-80.72-30.35,87.85,87.85,0,0,0-19.52.15,88.35,88.35,0,0,0-20,5.62c-18.69,7.31-36.11,18.14-50.21,32.42C24.42,234.29,16,249,16,249S50.78,255.64,62.91,258.45Z"/><path class="cls-12" d="M124.17,249.9c-4.68,3-9.47,6-14.88,7.23-7.76,1.71-15.75-.6-23.58-2-13-2.26-26.3-1.89-39.47-2.36a164.21,164.21,0,0,1-17-1.33c-1.65-.23-3.92-.94-5.8-1.05,10.91,2.12,30.88,6,39.48,8,12.76,3,25.56,5.93,37.81,10.54a95,95,0,0,1,21.13,10.76c24-22.73,48.68-45.89,78.94-59.24-1.8-1.32-3.64-2.59-5.5-3.83a143.68,143.68,0,0,0-24.13,7.57C154.62,231,139.24,240.31,124.17,249.9Z"/><path class="cls-3" d="M120.07,190.16a87.85,87.85,0,0,0-19.52.15,88.35,88.35,0,0,0-20,5.62c-18.69,7.31-36.11,18.14-50.21,32.42C24.42,234.29,16,249,16,249l1.58.3c.55-.28,1.22-.7,2-1.18,2.38-1.36,4.78-2.67,7.22-3.92,4.86-2.5,9.84-4.76,14.9-6.82,20.43-8.31,42.1-13.16,63.87-16.27,12.34-1.77,24.75-3,37.18-3.91C161.17,215.8,180,215,198,218.54A160.86,160.86,0,0,0,120.07,190.16Z"/><path class="cls-3" d="M120.07,190.16a87.85,87.85,0,0,0-19.52.15,88.35,88.35,0,0,0-20,5.62l-1,.39c1.68,1.9,3.42,3.71,5,5.27a59.25,59.25,0,0,0,14.62,10.77c9.94,5.24,21,7.93,32.19,9.28,21.8,2.65,43.84.33,65.44-4A161,161,0,0,0,120.07,190.16Z"/><path class="cls-13" d="M115.58,195.53l-.17-9.94-2.48.59a23,23,0,0,0-15.46-11.75c-6.11-1.29-12.44,0-18.56,1.26-15,3.13-31.12,3.92-43.07,14.28a43.05,43.05,0,0,0-7.52,8l-3.18-.11v10.65s1.39,16.34,13.55,21.17c23.85,9.47,52.25-.39,69.69-17.37C114.58,206.25,115.58,195.53,115.58,195.53Z"/><path class="cls-3" d="M115.58,195.53l-.17-9.94-2.48.59a23.1,23.1,0,0,0-14.24-11.46c2.35,6.9,5.42,13.56,7.58,20.52a49.36,49.36,0,0,1,2.5,16.65C114.62,205.79,115.58,195.53,115.58,195.53Z"/><path class="cls-3" d="M33.41,208.13a105.73,105.73,0,0,1,2-17.81A41.82,41.82,0,0,0,28.32,198l-3.18-.11v10.65s1.12,13.07,10,19.28A64.33,64.33,0,0,1,33.41,208.13Z"/><path class="cls-3" d="M38.69,229.66c1.53.61,3.08,1.13,4.64,1.59a35.33,35.33,0,0,1-4.94-17.4c-.15-8,6.45-13.1,4.4-21.56a20.1,20.1,0,0,0-2.38-5.71A38.27,38.27,0,0,0,35.84,190a43.05,43.05,0,0,0-7.52,8l-3.18-.11v10.65S26.53,224.83,38.69,229.66Z"/><path class="cls-3" d="M115.41,185.59l-2.48.59a22.78,22.78,0,0,0-6.37-7.53l-.87.3c-5,1.85-9.26,5.05-13.5,8.22,3.3,3.45,4.77,8.24,5.6,12.94A63.55,63.55,0,0,1,98,220.66a75.1,75.1,0,0,0,10.35-8.37c6.2-6,7.2-16.76,7.2-16.76Z"/><path class="cls-14" d="M25.43,195.06a16.43,16.43,0,0,1,1.9-5.22c2.12-3.72,5.28-6.75,8.51-9.55C47.79,169.92,63.89,169.13,78.91,166c6.12-1.27,12.45-2.55,18.56-1.26A23.05,23.05,0,0,1,113,176.69c4.87,9.63,1.74,18.23-4.66,25.92C92.8,221.31,61.63,231.47,38.69,220,30.07,215.65,23.65,204.7,25.43,195.06Z"/><path class="cls-15" d="M97.1,172c-6.85-2.7-14.29-1.63-20.8,1.54-3.75,1.83-10.72,7.09-7.51,11.94a2,2,0,0,0,1.71,1c2.51-.2,4.62-1.88,7-2.62a27.33,27.33,0,0,1,11.27-1.36c3.07.34,6.44.76,5.35,4.42-.85,2.84-2.82,5-3.06,8.08-.12,1.69,1.22,2.82,2.59,3.4,6.42,2.71,11.62-4.58,12.73-10C107.94,180.94,103.94,174.66,97.1,172Z"/><path class="cls-15" d="M61.15,180.06c-10-2.63-23.41.42-28,10.43-4.21,9.08-1.17,21.41,9.45,23.88,7.68,1.79,10.75-10.42,3.21-11.63-4.56-.73-3.4-7-1.74-10,2.95-5.32,10.9-3.87,15.95-4S66.07,181.37,61.15,180.06Z"/><path class="cls-15" d="M89.37,201.9a5.31,5.31,0,0,0-10.14,0c-1.44,4.71-3.78,5.74-8.71,5.9a29.12,29.12,0,0,1-10.95-1.7c-1.73-.6-4.24.69-4.54,2.57C53.42,219,66.2,219.89,73.5,219.14,81.65,218.3,92.35,211.57,89.37,201.9Z"/><path class="cls-16" d="M63.9,178.29a3.86,3.86,0,0,1,4.1,1,6.09,6.09,0,0,1,1.55,4.1c0,1.88-.52,3.86.24,5.58,1.28,2.89,5.32,3.14,8.37,2.3s6.25-2.3,9.23-1.24a6.38,6.38,0,0,1,3.75,7.53,7.13,7.13,0,0,1-7,4.92c-2-.09-3.89-1-5.79-1.69a21.53,21.53,0,0,0-11.68-1.18,14,14,0,0,0-9.46,6.59c-1.13,2-1.78,4.55-3.78,5.75-2.55,1.53-6.16-.21-7.25-3s-.12-6,1.68-8.37a13.49,13.49,0,0,1,7.61-4.87c2.35-.56,5.1-.25,6.76-2.38C65.4,189.24,57.74,180.78,63.9,178.29Z"/><path class="cls-17" d="M43.57,184.39c.2,3.49,5.71,3.83,4.72.17C47.55,181.82,43.36,180.64,43.57,184.39Z"/><path class="cls-17" d="M40.23,191.1c-.59-1.82-3.83-1.46-3.16.59C37.64,193.43,40.86,193,40.23,191.1Z"/><path class="cls-17" d="M36,206.47c1.57,2.06,5.54-1.07,4-3.09S34.48,204.42,36,206.47Z"/><path class="cls-17" d="M67,210.3c-3.63.28-3.18,7.67.43,5.91C69.23,215.34,69.77,210.09,67,210.3Z"/><path class="cls-17" d="M75.78,213.42a1.67,1.67,0,1,0,2.42-2.29C76.47,209.24,74.17,211.65,75.78,213.42Z"/><path class="cls-17" d="M84.81,205.71a8,8,0,0,0-1.75-.23c-.32,0-1.4.29-1,.12-2.51.86,0,3.67,1.53,3.92C86,209.93,87.43,206.33,84.81,205.71Z"/><path class="cls-17" d="M102.12,185.54c-1-.16-2.48-.21-3.25.61a1.24,1.24,0,0,0-.38,1.24,2.93,2.93,0,0,0,2.87,1.75C103.1,188.9,104.5,185.91,102.12,185.54Z"/><path class="cls-17" d="M100.87,176c-.62-3.81-5.45,1.05-5.5,3C95.26,183.08,101.44,179.51,100.87,176Z"/><path class="cls-17" d="M85.22,175.64c.13,1.19.73,2.38,2.11,2.2,1.68-.22,1.64-2,1.58-3.3C88.72,170.29,84.91,172.52,85.22,175.64Z"/><path class="cls-17" d="M78.62,180c-.18-1.41-3.11-3-3.33-.22C75.09,182.26,79.09,182.53,78.62,180Z"/><path class="cls-12" d="M113,176.69a22.34,22.34,0,0,0-4-5.52,31,31,0,0,1,1.24,11.4,25.62,25.62,0,0,1-3,10.56,29.57,29.57,0,0,1-9,9.37,51.21,51.21,0,0,1-40.38,8,26.79,26.79,0,0,1-9.63-3.94,20,20,0,0,1-8.06-14.4c-.69-7.65,2.64-13.7,7.44-19a41.8,41.8,0,0,0-11.84,7.11c-3.23,2.8-6.39,5.83-8.51,9.55a16.43,16.43,0,0,0-1.9,5.22c-1.78,9.64,4.64,20.59,13.26,24.91,22.94,11.5,54.11,1.34,69.69-17.36C114.78,194.92,117.91,186.32,113,176.69Z"/><path class="cls-4" d="M113,176.69a23.05,23.05,0,0,0-15.57-11.95c-6.11-1.29-12.44,0-18.56,1.26-15,3.13-31.12,3.92-43.07,14.29-3.23,2.8-6.39,5.83-8.51,9.55a16.43,16.43,0,0,0-1.9,5.22,19.36,19.36,0,0,0,.12,7.39c.55-.89,1-1.73,1.35-2.31a54.83,54.83,0,0,1,7.8-10.61,49.14,49.14,0,0,1,11.9-9.17c5.18-2.84,11.27-4.76,17-3.3,2.05.53,4,1.47,6.07,1.87,4.28.83,8.59-.71,12.82-1.72,5.12-1.21,10.64-1.65,15.51.31,7.39,3,11.82,11.14,12.06,19.11a28.9,28.9,0,0,1-.18,4.06C115.23,193.5,117.51,185.53,113,176.69Z"/><path class="cls-18" d="M71.27,197.14c-1.45-4-7.34-2.13-10.15-.69-4.78,2.45-6.6,7.05-10.15,10.74a.53.53,0,0,0,.23.88c3.5.78,5.54-2.69,7.83-4.77a14,14,0,0,1,7.72-3.86c1.73-.21,3,.12,4.24-1.24A1.07,1.07,0,0,0,71.27,197.14Z"/><path class="cls-18" d="M81.48,197.85a8.3,8.3,0,0,0-3.22-1.19,12,12,0,0,0-3.55-.58c-.56.07-1.25.48-1.16,1.16.45,3.53,6.39,5.12,8.26,1.85A.94.94,0,0,0,81.48,197.85Z"/><path class="cls-18" d="M68.24,179.76a4.2,4.2,0,0,0-5.22-.48.57.57,0,0,0,.14,1,6,6,0,0,1,1.66,1.43,5.07,5.07,0,0,1,1.32,1.76c.36.93.42,2.07,1.35,2.66a1.75,1.75,0,0,0,2.46-.84C70.94,183.44,69.71,181,68.24,179.76Z"/><path class="cls-13" d="M185.47,206l3.82-9.18-2.51-.45a23.07,23.07,0,0,0-9.45-17c-5.09-3.63-11.4-5-17.52-6.27-15-3.14-30.09-8.87-45.18-4.15a42.68,42.68,0,0,0-10.09,4.29l-2.87-1.37-4.16,9.52-.11.24s-5.26,15.54,3.95,24.82c18.06,18.23,48,20.57,70.81,12C180.27,215.45,185.47,206,185.47,206Z"/><path class="cls-3" d="M185.47,206l3.82-9.18-2.51-.45a23.08,23.08,0,0,0-8.45-16.2c-.62,7.27-.47,14.59-1.28,21.84a49.45,49.45,0,0,1-4.37,16.26C180.49,215.05,185.47,206,185.47,206Z"/><path class="cls-3" d="M105.12,184.68a106.9,106.9,0,0,1,9-15.5,41.4,41.4,0,0,0-9.58,4.13l-2.87-1.37-4.16,9.52-.11.24s-4.2,12.42,1.5,21.69A64.11,64.11,0,0,1,105.12,184.68Z"/><path class="cls-3" d="M101.35,206.52a47.3,47.3,0,0,0,3.62,3.32,35.15,35.15,0,0,1,2.43-17.92c3.06-7.39,11.16-9.43,12.66-18a19.82,19.82,0,0,0,.11-6.2,38.24,38.24,0,0,0-5.54,1.29,42.68,42.68,0,0,0-10.09,4.29l-2.87-1.37-4.16,9.52-.11.24S92.14,197.24,101.35,206.52Z"/><path class="cls-3" d="M189.29,196.85l-2.51-.45A22.78,22.78,0,0,0,184,187l-.92-.07c-5.28-.29-10.51.92-15.66,2.12,1.64,4.49,1.06,9.47-.06,14.11a63.58,63.58,0,0,1-8,18.92,74.21,74.21,0,0,0,12.83-3.52c8.11-3.06,13.31-12.48,13.31-12.48Z"/><path class="cls-14" d="M103.05,169.51a16.39,16.39,0,0,1,3.83-4c3.44-2.57,7.53-4.07,11.62-5.35,15.1-4.71,30.17,1,45.19,4.15,6.11,1.28,12.43,2.65,17.51,6.28a23,23,0,0,1,9.48,17.18c.61,10.77-5.7,17.4-14.64,21.88-21.77,10.9-54.4,7.74-70.82-12C99.05,190.24,97.55,177.63,103.05,169.51Z"/><path class="cls-15" d="M178,177c-5.19-5.22-12.44-7.22-19.68-6.92-4.16.17-12.66,2.2-11.65,7.93a2,2,0,0,0,1.17,1.59c2.38.81,5,.13,7.49.41a27.49,27.49,0,0,1,10.88,3.26c2.67,1.54,5.59,3.28,3.13,6.19-1.92,2.27-4.58,3.43-6,6.19-.79,1.5,0,3.07,1,4.15,4.8,5,12.48.45,15.66-4.05C184.31,189.6,183.16,182.24,178,177Z"/><path class="cls-15" d="M141.78,170.07c-8.07-6.4-21.61-9-29.87-1.68-7.5,6.64-9.65,19.15-.9,25.67,6.31,4.71,14-5.24,7.59-9.37-3.88-2.5-.31-7.78,2.41-9.87,4.83-3.69,11.54.82,16.22,2.73S145.77,173.23,141.78,170.07Z"/><path class="cls-15" d="M158.9,201.37a5.3,5.3,0,0,0-9.29-4.05c-3.2,3.73-5.76,3.74-10.34,1.92a29.3,29.3,0,0,1-9.36-6c-1.35-1.24-4.16-1.06-5.18.55-5.62,8.81,5.74,14.74,12.73,17C145.27,213.31,157.76,211.43,158.9,201.37Z"/><path class="cls-16" d="M145,169.54a3.88,3.88,0,0,1,3.35,2.57,6.09,6.09,0,0,1-.21,4.38c-.71,1.74-2,3.33-2,5.21,0,3.16,3.62,5,6.75,5.46s6.65.39,9,2.55a6.39,6.39,0,0,1,.42,8.41,7.15,7.15,0,0,1-8.42,1.69c-1.82-.89-3.17-2.47-4.63-3.87A21.49,21.49,0,0,0,139,190.19a14,14,0,0,0-11.31,2.24c-1.85,1.41-3.45,3.46-5.76,3.76-3,.39-5.57-2.66-5.46-5.63s2.29-5.55,4.89-7a13.49,13.49,0,0,1,8.92-1.42c2.38.43,4.78,1.82,7.15.52C142,180.18,138.37,169.36,145,169.54Z"/><path class="cls-17" d="M123.94,167c-1.21,3.27,3.7,5.78,4.26,2C128.62,166.24,125.25,163.47,123.94,167Z"/><path class="cls-17" d="M118.19,171.8c.19-1.9-2.92-2.87-3.13-.72C114.88,172.9,118,173.83,118.19,171.8Z"/><path class="cls-17" d="M108.2,184.21c.62,2.52,5.5,1.24,4.86-1.24S107.6,181.71,108.2,184.21Z"/><path class="cls-17" d="M135.06,200.13c-3.44-1.2-6,5.75-2,5.58C135.07,205.63,137.66,201,135.06,200.13Z"/><path class="cls-17" d="M141.84,206.5a1.67,1.67,0,1,0,3.13-1.14C144.14,202.94,141.07,204.23,141.84,206.5Z"/><path class="cls-17" d="M153.2,203a8.65,8.65,0,0,0-1.51-.91c-.29-.13-1.4-.3-1-.3-2.64-.22-1.47,3.36-.17,4.2C152.63,207.4,155.35,204.66,153.2,203Z"/><path class="cls-17" d="M177.13,191.49c-.85-.55-2.19-1.19-3.22-.74a1.24,1.24,0,0,0-.84,1,2.92,2.92,0,0,0,1.92,2.75C176.68,195,179.17,192.78,177.13,191.49Z"/><path class="cls-17" d="M179.8,182.25c1-3.74-5.41-1.21-6.23.54C171.84,186.48,178.93,185.69,179.8,182.25Z"/><path class="cls-17" d="M165.62,175.65c-.37,1.14-.29,2.48,1,2.86,1.62.47,2.3-1.17,2.77-2.39C171,172.15,166.57,172.67,165.62,175.65Z"/><path class="cls-17" d="M157.82,177c.4-1.37-1.65-4-3-1.55C153.68,177.66,157.24,179.51,157.82,177Z"/><path class="cls-12" d="M190.68,187.75a22.36,22.36,0,0,0-1.44-6.66A30.9,30.9,0,0,1,185.81,192a25.82,25.82,0,0,1-7,8.47,29.53,29.53,0,0,1-12,5,51.2,51.2,0,0,1-40.23-8.8,27,27,0,0,1-7.24-7.47,19.93,19.93,0,0,1-1.62-16.42c2.43-7.28,7.9-11.49,14.43-14.44a41.66,41.66,0,0,0-13.7,1.77c-4.09,1.28-8.18,2.78-11.62,5.35a16.39,16.39,0,0,0-3.83,4c-5.5,8.12-4,20.73,2.17,28.14,16.42,19.72,49.05,22.88,70.82,12C185,205.15,191.29,198.52,190.68,187.75Z"/><path class="cls-4" d="M190.68,187.75a23,23,0,0,0-9.48-17.18c-5.08-3.63-11.4-5-17.51-6.28-15-3.14-30.09-8.86-45.19-4.15-4.09,1.28-8.18,2.78-11.62,5.35a16.39,16.39,0,0,0-3.83,4,19.63,19.63,0,0,0-2.86,6.82c.87-.6,1.63-1.18,2.17-1.58a55.31,55.31,0,0,1,11.39-6.6,49.32,49.32,0,0,1,14.58-3.64c5.89-.52,12.24.15,16.9,3.79,1.67,1.3,3.07,2.94,4.82,4.15,3.58,2.46,8.15,2.78,12.43,3.55,5.18.93,10.41,2.74,14.09,6.49,5.58,5.69,6.37,14.94,3.4,22.34a28.69,28.69,0,0,1-1.79,3.65C186,204,191.24,197.64,190.68,187.75Z"/><path class="cls-18" d="M144.22,189.77c.26-4.22-5.87-4.9-9-4.7-5.36.33-8.88,3.82-13.61,5.78a.53.53,0,0,0-.14.9c2.9,2.12,6.16-.25,9.09-1.24a14,14,0,0,1,8.62-.44c1.67.49,2.69,1.3,4.38.56A1.08,1.08,0,0,0,144.22,189.77Z"/><path class="cls-18" d="M153.29,194.51a8.14,8.14,0,0,0-2.47-2.38,12,12,0,0,0-3-2c-.54-.16-1.34-.06-1.53.6-1,3.42,3.81,7.26,6.83,5A.93.93,0,0,0,153.29,194.51Z"/><path class="cls-18" d="M148.41,172.63a4.2,4.2,0,0,0-4.6-2.53.56.56,0,0,0-.28,1,6.15,6.15,0,0,1,.95,2,5.05,5.05,0,0,1,.5,2.15c0,1-.44,2.06.18,3a1.74,1.74,0,0,0,2.59.22C149.4,177.08,149.25,174.36,148.41,172.63Z"/><path class="cls-19" d="M28.91,184.63c7.67,4.26,16.26,7.92,25,6.81,10.55-1.35,18.84-9.26,27.46-15.49a99.29,99.29,0,0,1,48.83-18.26c4.47-.41,9.1-.55,13.18-2.44s7.47-6.16,6.7-10.58a13.37,13.37,0,0,0-1.83-4.38c-11.89-20.24-36.37-30.89-59.83-30.56-19.47.27-38.21,7.16-54.95,16.74-11.77,6.73-39,21.44-28.93,38.4C9.67,173.54,20.32,179.87,28.91,184.63Z"/><path class="cls-3" d="M19.51,156.34c.23-6.59-.53-13.25-3.3-19.05-9.86,7.42-17.95,17.07-11.7,27.58,4.5,7.56,13.17,13.34,21,17.85A53,53,0,0,1,19.51,156.34Z"/><path class="cls-3" d="M73.49,159.39c-2.89,7.32-3.09,15.39-4.89,23.05-.28,1.19-.63,2.38-1,3.56,4.75-3,9.22-6.76,13.77-10.05a99.3,99.3,0,0,1,26.27-13.48l-.12-.3c-3.06-7.49-8.43-15.39-16.5-16.1C83.15,145.37,76.38,152.07,73.49,159.39Z"/><path class="cls-3" d="M150.05,144.67a13.37,13.37,0,0,0-1.83-4.38,59,59,0,0,0-23.86-22.12c-1.18.31-2.33.64-3.47,1s-2.55.84-3.07,2c-.64,1.4.27,3,1.14,4.25,5.75,8.45,11.13,17.39,13.48,27.34a41.08,41.08,0,0,1,.83,4.69,29.67,29.67,0,0,0,10.08-2.17C147.42,153.36,150.82,149.09,150.05,144.67Z"/><path class="cls-20" d="M28.91,179.27c7.67,4.26,16.26,7.92,25,6.81,10.55-1.35,18.84-9.26,27.46-15.49a99.29,99.29,0,0,1,48.83-18.26c4.47-.41,9.1-.55,13.18-2.44s7.47-6.16,6.7-10.59a13.41,13.41,0,0,0-1.83-4.37c-11.89-20.24-36.37-30.89-59.83-30.56-19.47.27-38.21,7.16-54.95,16.73-11.77,6.74-39,21.45-28.93,38.41C9.67,168.18,20.32,174.51,28.91,179.27Z"/><path class="cls-21" d="M95.75,116.58c-1.85-4.37-9,.9-5.66,4.1C92.37,122.9,96.94,119.41,95.75,116.58Z"/><path class="cls-21" d="M132.66,143.69a13.38,13.38,0,0,0,4.6-1.64,2.94,2.94,0,0,0-1-5.16,5.42,5.42,0,0,0-6.07,2.92A2.8,2.8,0,0,0,132.66,143.69Z"/><path class="cls-21" d="M104.82,140.58c5.26.55,11-2.48,14-6.7,2.35-3.29,4-8.65-.66-10.8-4.87-2.25-10.84,1.9-14,5.4-1.72,1.92-4,4.6-3.88,7.33A5,5,0,0,0,104.82,140.58Z"/><path class="cls-21" d="M122.16,145.71c-.53,2.29,1.66,3.45,3.62,3.14,1.58-.25,3.49-1.38,3.57-3.14a2.79,2.79,0,0,0-2.75-3C124.79,142.85,122.62,143.7,122.16,145.71Z"/><path class="cls-21" d="M96.43,121.14c.61,2.09,4.55.85,3.4-1C98.94,118.7,95.85,119.16,96.43,121.14Z"/><path class="cls-21" d="M100.15,112.45c-1.43-1.85-4.56.52-3.2,2.45S101.62,114.36,100.15,112.45Z"/><path class="cls-21" d="M139.12,144a3.38,3.38,0,0,0-3.34.56c.51-.5-.4.33-.44.41a2.33,2.33,0,0,0-.27,1,2.24,2.24,0,0,0,.27,1c.08.16,1,.94.44.41C138.77,150.39,142.83,144.91,139.12,144Z"/><path class="cls-21" d="M20.45,147.11c-1.79-.59-4.58,1.28-2.46,2.93S23.39,148.08,20.45,147.11Z"/><path class="cls-21" d="M54,164.43c-1.41.13-2.84.67-3.31,2.23A2.06,2.06,0,0,0,53,169.41C55.57,169.24,57.31,164.31,54,164.43Z"/><path class="cls-21" d="M60.62,161.57c-2-1.93-5.79,2-3.38,3.34C58.68,165.73,62.43,163.29,60.62,161.57Z"/><path class="cls-21" d="M14.83,143.54c2.14,0,4.3-2.43,2.72-4.39,1.8,1.15,5.18-.13,4.36-2.65-1.18-3.66-7-.66-4.94,2.12-1.46-1-3.36-.19-4.56.85.16-.11-.44.62-.52.89A2.2,2.2,0,0,0,12.1,142,3,3,0,0,0,14.83,143.54Z"/><path class="cls-21" d="M34.52,162.62c-3.91-3.58-10.24-2.28-14.44,0a13.48,13.48,0,0,0-5.18,4.43,5.17,5.17,0,0,0-.85,2.74,97.87,97.87,0,0,0,11.61,7.64,17.07,17.07,0,0,0,3.21-1C33.75,174.39,39.9,167.54,34.52,162.62Z"/><path class="cls-21" d="M12.41,139.47a2.84,2.84,0,0,0-.27.25Z"/><path class="cls-22" d="M29.44,123.39c12.55,7.22,28.26,6.87,41.43,1,7.23-3.26,14-8.39,18-15.4.83-1.47,1.54-3,2.26-4.55-.9,0-1.81,0-2.71,0s-1.61,0-2.41.08a29.05,29.05,0,0,1-3.63,6,35.22,35.22,0,0,1-9.59,7.84c-12.34,7.19-27.28,7.69-40.76,3.68Z"/><path class="cls-22" d="M53.88,186.08c10.55-1.35,18.84-9.26,27.46-15.49a99,99,0,0,1,16.21-9.46C89,158.67,80,160.89,71.72,165.4A64,64,0,0,0,58.47,175a60.63,60.63,0,0,0-8.79,11.21A25.67,25.67,0,0,0,53.88,186.08Z"/><path class="cls-22" d="M65.63,155.53c2.52.05,4.94.87,7.48.79a19.94,19.94,0,0,0,6.55-1.39c4.32-1.65,8.12-4.31,12.17-6.51a29.29,29.29,0,0,1,7.55-3.12c2.94-.63,6-.32,9-.7,10-1.27,14.41-10.28,20.66-17a33.07,33.07,0,0,1,7.95-6.18,62.48,62.48,0,0,0-5.21-4.09l-.76.52a42,42,0,0,0-9.66,10.07c-2.84,4-5.52,8.41-9.72,11.16-4.44,2.92-10.22,2.81-15.09,4.8-4.64,1.9-8.72,4.8-13.11,7.17-5.38,2.91-9.8,3.57-15.85,2.76-4.43-.6-7.77.73-11,3.79C52,162,48.28,166.26,42.37,169a98.18,98.18,0,0,1-18.27,6c-.74.18-.42,1.3.31,1.14,9.79-2.12,19.92-4.25,27.65-11.09C56.22,161.42,59.38,155.41,65.63,155.53Z"/><path class="cls-22" d="M3.45,157.41a17.5,17.5,0,0,0,.89,1.79c.63-.42,1.26-.85,1.89-1.31,4.47-3.28,8.51-7.37,13.3-10.17,6.34-3.71,10.79.26,16.73,2.5a38.14,38.14,0,0,0,16.9,1.87,102.14,102.14,0,0,0,33.32-9,47.57,47.57,0,0,0,13.37-9c3.9-3.87,5.94-8.55,7.86-13.59,1.79-4.73,4.19-8.63,7.84-11.59q-3.55-1.29-7.22-2.22L108,107c-4.06,3.7-5.92,8.51-7.87,13.51a26.39,26.39,0,0,1-11,13C79.38,139.81,67,143,55.63,144.77c-6.11,1-12.38,1-18.3-1-4.69-1.59-9.31-3.55-14.17-1.41S14,149,9.85,152.38C7.79,154.06,5.66,155.79,3.45,157.41Z"/><path class="cls-3" d="M139.21,140.72c-6.81,3.76-15,3.74-22.78,3.7-14.37-.09-29.54.31-41.81,7.78-4.41,2.69-8.36,6.26-13.21,8a35.4,35.4,0,0,1-10.94,1.66c-8.29.27-17.08-.26-24-4.87a23.17,23.17,0,0,1-9.92-16,23.64,23.64,0,0,1,1-10.14C7.13,138.45-2,148.5,4.51,159.51c5.16,8.67,15.81,15,24.4,19.76,7.67,4.26,16.26,7.92,25,6.81,10.55-1.35,18.84-9.26,27.46-15.49a99.29,99.29,0,0,1,48.83-18.26c4.47-.41,9.1-.55,13.18-2.44s7.47-6.16,6.7-10.59a13.41,13.41,0,0,0-1.83-4.37c-.3-.52-.62-1-.94-1.52A24.59,24.59,0,0,1,139.21,140.72Z"/><path class="cls-19" d="M80,171.42c6.57,5.83,14.16,11.26,22.9,12.06,10.6,1,20.4-4.95,30.17-9.16a99.39,99.39,0,0,1,51.63-7.24c4.45.57,9,1.45,13.39.48s8.63-4.39,8.84-8.88a13.16,13.16,0,0,0-.84-4.67c-7.22-22.33-28.8-38-51.78-42.81-19.06-4-38.85-1.29-57.26,4.43-13,4-42.75,12.47-36.58,31.21C63.64,156.43,72.66,164.91,80,171.42Z"/><path class="cls-3" d="M77,141.76c1.66-6.38,2.36-13,.91-19.3-11.23,5.1-21.22,12.76-17.4,24.38,2.76,8.36,10,15.88,16.64,22A53.18,53.18,0,0,1,77,141.76Z"/><path class="cls-3" d="M129,156.45c-4.41,6.52-6.35,14.35-9.78,21.44-.53,1.1-1.12,2.19-1.77,3.26,5.29-1.91,10.46-4.61,15.62-6.83a99.26,99.26,0,0,1,28.57-7.46c0-.11,0-.21-.05-.32-1.37-8-4.9-16.86-12.62-19.3C141.48,144.86,133.42,149.94,129,156.45Z"/><path class="cls-3" d="M206.94,158.68a13.16,13.16,0,0,0-.84-4.67,59,59,0,0,0-18.5-26.77c-1.21.05-2.41.12-3.59.21s-2.67.27-3.43,1.27c-.93,1.23-.38,3,.19,4.4,3.78,9.49,7.1,19.39,7.23,29.61a42.39,42.39,0,0,1-.21,4.77,29.76,29.76,0,0,0,10.31.06C202.49,166.59,206.73,163.17,206.94,158.68Z"/><path class="cls-20" d="M81.17,166.19c6.58,5.82,14.16,11.26,22.91,12.06,10.59,1,20.39-4.95,30.17-9.16a99.33,99.33,0,0,1,51.62-7.24c4.46.57,9,1.44,13.39.48s8.63-4.4,8.84-8.88a13.16,13.16,0,0,0-.84-4.67c-7.21-22.33-28.8-38-51.78-42.81-19.06-4-38.85-1.3-57.26,4.42-13,4-42.74,12.47-36.57,31.22C64.8,151.2,73.82,159.68,81.17,166.19Z"/><path class="cls-21" d="M160,119.49c-.85-4.67-8.94-1.07-6.41,2.78C155.35,124.93,160.57,122.51,160,119.49Z"/><path class="cls-21" d="M190.17,154a13.51,13.51,0,0,0,4.85-.61,2.94,2.94,0,0,0,.18-5.25,5.44,5.44,0,0,0-6.56,1.54A2.81,2.81,0,0,0,190.17,154Z"/><path class="cls-21" d="M163.67,144.88c5,1.69,11.32,0,15.16-3.49,3-2.71,5.78-7.58,1.7-10.69-4.26-3.25-11-.49-14.82,2.24-2.1,1.51-4.93,3.62-5.38,6.32A5,5,0,0,0,163.67,144.88Z"/><path class="cls-21" d="M179.48,153.65c-1,2.12.88,3.73,2.86,3.85,1.6.1,3.7-.59,4.17-2.29a2.79,2.79,0,0,0-2-3.53C182.68,151.43,180.37,151.79,179.48,153.65Z"/><path class="cls-21" d="M159.7,124.09c.14,2.17,4.26,1.81,3.53-.25C162.67,122.25,159.56,122,159.7,124.09Z"/><path class="cls-21" d="M165.21,116.41c-1-2.12-4.56-.48-3.65,1.7S166.24,118.6,165.21,116.41Z"/><path class="cls-21" d="M196.42,155.62a3.38,3.38,0,0,0-3.38-.17c.61-.39-.46.23-.52.29a2.5,2.5,0,0,0-.49,1,2.32,2.32,0,0,0,0,1.08c0,.18.75,1.12.34.49C194.69,161.82,199.84,157.35,196.42,155.62Z"/><path class="cls-21" d="M79.89,133c-1.62-1-4.75.26-3,2.33S82.56,134.54,79.89,133Z"/><path class="cls-21" d="M108.91,157.15c-1.41-.18-2.92,0-3.72,1.46a2.07,2.07,0,0,0,1.59,3.17C109.38,162.18,112.15,157.74,108.91,157.15Z"/><path class="cls-21" d="M126.44,125.54c-4,.84-7.53-.29-11.23-1.83-6.64-2.76-15-5.72-22.17-3-6.81,2.61-9.62,12.61-2.21,16.35,7.23,3.64,16.31,1.81,24,2.18,5.4.25,21.46-.34,20.17-9.31C134.36,125.5,130.1,124.78,126.44,125.54Z"/><path class="cls-21" d="M116,155.79c-1.57-2.33-6.08.68-4,2.53C113.18,159.43,117.37,157.86,116,155.79Z"/><path class="cls-21" d="M75.18,128.26c2.09.48,4.72-1.44,3.6-3.7,1.52,1.52,5.09,1,4.84-1.63-.36-3.84-6.72-2.18-5.28,1-1.21-1.3-3.24-.92-4.64-.16.18-.07-.57.51-.7.76a2.24,2.24,0,0,0-.14,1.59A3,3,0,0,0,75.18,128.26Z"/><path class="cls-21" d="M90.27,151.15c-3-4.34-9.5-4.45-14.1-3.12a13.53,13.53,0,0,0-6,3.2,5.2,5.2,0,0,0-1.42,2.49,95.42,95.42,0,0,0,9.67,10,17.62,17.62,0,0,0,3.35-.26C87,162.48,94.45,157.12,90.27,151.15Z"/><path class="cls-21" d="M73.7,123.76l-.32.19A3.37,3.37,0,0,1,73.7,123.76Z"/><path class="cls-22" d="M93.81,111.76c10.69,9.76,26.1,12.83,40.24,9.9,7.77-1.61,15.53-5.14,20.89-11.13,1.12-1.26,2.15-2.61,3.19-4-.88-.22-1.76-.43-2.65-.61s-1.58-.3-2.37-.44a29.11,29.11,0,0,1-4.83,5,35.44,35.44,0,0,1-11.06,5.57c-13.6,4.34-28.3,1.6-40.59-5.25Z"/><path class="cls-22" d="M104.08,178.25c10.59,1,20.39-4.95,30.17-9.16a98.14,98.14,0,0,1,17.87-5.72c-7.85-4.27-17.1-4.05-26.14-1.43a63.54,63.54,0,0,0-15,6.54,60,60,0,0,0-11,9A26,26,0,0,0,104.08,178.25Z"/><path class="cls-22" d="M136.68,110.1A42.52,42.52,0,0,0,148,104.76c-13.23-1.58-26.68-.25-39.66,2.85C114.89,116,128,112.9,136.68,110.1Z"/><path class="cls-22" d="M122.17,151c2.45.59,4.64,1.92,7.13,2.39a19.83,19.83,0,0,0,6.7.06c4.58-.66,8.87-2.44,13.29-3.71a29.08,29.08,0,0,1,8.05-1.41c3,0,5.93,1,8.92,1.27,10.08.94,16.29-6.91,23.86-12.13a33.41,33.41,0,0,1,9.09-4.31A61.94,61.94,0,0,0,195,128l-.86.34a41.93,41.93,0,0,0-11.61,7.74c-3.65,3.3-7.21,7-11.91,8.79-5,1.88-10.59.52-15.78,1.41-4.93.84-9.55,2.79-14.34,4.15-5.89,1.68-10.35,1.36-16.08-.74-4.19-1.55-7.75-1-11.53,1.32-5.45,3.29-10,6.66-16.37,8.09A97.59,97.59,0,0,1,77.4,161c-.76,0-.69,1.17.06,1.18,10,.05,20.37.17,29.39-4.83C111.71,154.69,116.1,149.5,122.17,151Z"/><path class="cls-22" d="M61.07,139.33a14.83,14.83,0,0,0,.48,1.94q1.05-.41,2.13-.87c5.07-2.23,9.9-5.35,15.18-7,7-2.25,10.49,2.59,15.8,6.07a38.28,38.28,0,0,0,16.08,5.49,101.87,101.87,0,0,0,34.47-1.52,47.46,47.46,0,0,0,15-5.9c4.64-2.93,7.65-7.06,10.62-11.57,2.77-4.22,6-7.51,10.17-9.61q-3.19-2-6.57-3.73c-.13.07-.27.13-.39.21-4.77,2.73-7.63,7-10.61,11.48a26.43,26.43,0,0,1-13.55,10.33c-10.88,4-23.66,4.41-35.14,3.7-6.18-.39-12.32-1.67-17.66-4.91-4.23-2.56-8.32-5.48-13.53-4.45s-10.39,4.46-15.15,6.86C66,137,63.58,138.23,61.07,139.33Z"/><path class="cls-3" d="M197.21,152.48c-7.46,2.2-15.45.4-23-1.33-14-3.2-28.91-6.11-42.51-1.47-4.89,1.67-9.52,4.29-14.64,5a35.06,35.06,0,0,1-11-.75c-8.15-1.53-16.62-3.95-22.35-9.95a23.16,23.16,0,0,1-6.22-17.73,23.73,23.73,0,0,1,3.19-9.68c-11.85,5.09-23,12.92-19,25.08,3.15,9.59,12.17,18.07,19.52,24.58,6.58,5.82,14.16,11.26,22.91,12.06,10.59,1,20.39-4.95,30.17-9.16a99.33,99.33,0,0,1,51.62-7.24c4.46.57,9,1.44,13.39.48s8.63-4.4,8.84-8.88a13.16,13.16,0,0,0-.84-4.67c-.18-.57-.38-1.13-.58-1.69A24.63,24.63,0,0,1,197.21,152.48Z"/><path class="cls-23" d="M194.38,107.44c-.93-3.21-3.66-5.65-6.69-7.07-3.35-1.56-7.08-2.06-10.7-2.74a3.58,3.58,0,0,1-2.39-1.57c-1.21-1.91,1.13-2.66.72-4.26a1.94,1.94,0,0,0-1.55-1.34,5.22,5.22,0,0,0-3.3.84c-7.57,3.77-16,6.77-24.37,5.1a3.61,3.61,0,0,1-2.3-1.46c-1-1.41-.27-2.51.51-3.39A10.75,10.75,0,0,1,152,88a6.28,6.28,0,0,0,2.89-.69c3.12-1.68,1.8-4.47-.14-5.29a6.77,6.77,0,0,0-3.94-.13c-8.62,1.84-14.42,10-22.37,13.75A3.76,3.76,0,0,1,125,95.6a2.47,2.47,0,0,1-.84-3.57c.93-1.71,2.82-2.64,4.59-3.44,2.16-1,4.5-2.06,5.18-4.55a2.91,2.91,0,0,0-1.64-3.52c-1.48-.55-2.92.46-4,1.47-2.45,2.18-4.62,4.67-7.07,6.85a38.24,38.24,0,0,1-17.3,8.73,1.79,1.79,0,0,1-1.74-.56c-.62-.73-.21-1.55.19-2.23l4.91-8.45c.53-.91,1.08-1.91.6-3a2.69,2.69,0,0,0-2.95-1.45c-2.16.38-3.36,2.26-4.42,4a38.58,38.58,0,0,1-6.36,8.51c-2.61,2.41-6,4.14-9.59,4a9,9,0,0,1-5.84-2.56,4.83,4.83,0,0,0-5.53-.88,89.81,89.81,0,0,1-8.76,3.62c-4.29,1.4-8.74,1.38-13,2.38,2.53,4.14,14.76,4.32,19.17,5.2,4.1.81,8.42,1.72,11.54,4.51a8.27,8.27,0,0,0,2.76,2,2.21,2.21,0,0,0,2.14-.43c.79-.72.34-1.46.38-2.2.07-1.37,1.64-2.09,3-2.36A17.31,17.31,0,0,1,107.71,115c1.54,2.36,2.88,5.4,5.65,5.89,2.93.51,5.57-3.26,4.09-5.84-1-1.71-3.2-2.62-2.69-5.21a4.75,4.75,0,0,1,2-3c5-3.47,12.67-.36,14.32,5.32.74,2.58.4,5.45,2.36,7.65a3.22,3.22,0,0,0,3.35,1c2.27-.74,2.27-3.68,1.24-5.62-.77-1.45-2-2.79-1.33-4.63a3.62,3.62,0,0,1,2.91-2.3c2.58-.39,4.77,1.35,6.17,3.38,1.19,1.72,2,3.7,3.08,5.47a2.25,2.25,0,0,0,1.2,1.1,2,2,0,0,0,1.27-.2,6.58,6.58,0,0,0,2.3-9.81c2.54-1.61,6-.41,8.29,1.54s4,4.56,6.42,6.35,6.14,2.48,8.3.37c.83-.81,1.34-2,2.3-2.62,2.91-2,6.43,1.86,9.94,2C192.85,116.12,195.47,111.22,194.38,107.44Z"/><path class="cls-24" d="M186.83,106.24c-8.74-5.08-18.83-6.59-28.8-6.91-11.55-.38-23,.21-34.53-.79a150.71,150.71,0,0,0-17.64-.9,146.76,146.76,0,0,0-16.34,1.63c-5.69.81-11.38,1.67-17.12,2a131.91,131.91,0,0,1-16.87-.17c-12.15-.79-24.92-1.18-36.24-6.1a.51.51,0,0,0-.49.9c8.11,5.79,19.17,6,28.73,6.89,11.48,1.07,22.81,1.38,34.25-.14,11.25-1.49,22.31-3.44,33.71-2.85,5.9.31,11.77,1,17.67,1.17,5.62.19,11.24,0,16.86-.15,12.44-.3,25.31-.06,36.65,5.7A.17.17,0,0,0,186.83,106.24Z"/><path class="cls-4" d="M193.38,111.94c-5-3.67-6.74-5.65-12.54-7.86-5.54-2.11-15.37-4.52-21.31-4.51-5.39,0-10.63,1.81-16,2.18-6.86.47-13.64-1.39-20.48-2a98.92,98.92,0,0,0-17.71.45c-13.93,1.27-27.86,3.24-41.88,3.13a85.8,85.8,0,0,1-10.53-.92c4.21,2.7,13.81,2.94,17.61,3.7,4.1.81,8.42,1.72,11.54,4.51a8.27,8.27,0,0,0,2.76,2,2.21,2.21,0,0,0,2.14-.43c.79-.72.34-1.46.38-2.2.07-1.37,1.64-2.09,3-2.36A17.31,17.31,0,0,1,107.71,115c1.54,2.36,2.88,5.4,5.65,5.89,2.93.51,5.57-3.26,4.09-5.84-1-1.71-3.2-2.62-2.69-5.21a4.75,4.75,0,0,1,2-3c5-3.47,12.67-.36,14.32,5.32.74,2.58.4,5.45,2.36,7.65a3.22,3.22,0,0,0,3.35,1c2.27-.74,2.27-3.68,1.24-5.62-.77-1.45-2-2.79-1.33-4.63a3.62,3.62,0,0,1,2.91-2.3c2.58-.39,4.77,1.35,6.17,3.38,1.19,1.72,2,3.7,3.08,5.47a2.25,2.25,0,0,0,1.2,1.1,2,2,0,0,0,1.27-.2,6.58,6.58,0,0,0,2.3-9.81c2.54-1.61,6-.41,8.29,1.54s4,4.56,6.42,6.35,6.14,2.48,8.3.37c.83-.81,1.34-2,2.3-2.62,2.91-2,6.43,1.86,9.94,2a5.45,5.45,0,0,0,5-3.56Z"/><path class="cls-4" d="M180.17,113.41a35.37,35.37,0,0,0-5.14-6.19,25.6,25.6,0,0,0-16.48-7.32c-1.76-.05-3.89.37-4.51,2-.75,2,1.29,3.86,2.91,5.26l.48.43a9.71,9.71,0,0,1,4.53,2.2c2.3,2,4,4.56,6.42,6.35s6.14,2.48,8.3.37c.83-.81,1.34-2,2.3-2.62A3.3,3.3,0,0,1,180.17,113.41Z"/><path class="cls-4" d="M114.65,100.08a3.86,3.86,0,0,0-3.14-.4c-1.32.6-1.68,2.41-1.17,3.77a9.66,9.66,0,0,0,2.71,3.34q1.07,1,2.07,2a4.93,4.93,0,0,1,1.68-1.92,8.26,8.26,0,0,1,4.34-1.44A18.73,18.73,0,0,0,114.65,100.08Z"/><path class="cls-4" d="M81.89,102.43c1.73,2.57,3.56,5.09,5.48,7.53.12-1.32,1.65-2,3-2.29a16.44,16.44,0,0,1,3.43-.28c-.31-.41-.62-.83-.94-1.24A13.67,13.67,0,0,0,88,101.93,5.86,5.86,0,0,0,81.89,102.43Z"/><path class="cls-4" d="M139.28,102.59c-1.86-1.4-4.72-1.76-6.44-.18.21,3.1,1.92,5.65,4,8.07a3.65,3.65,0,0,1,2.85-2.15,5.37,5.37,0,0,1,4,1.14c-.17-.39-.34-.78-.52-1.17C142.23,106.18,141.14,104,139.28,102.59Z"/><path class="cls-25" d="M13.31,129.94c1.48,3,4.6,4.92,7.83,5.78,3.57.95,7.34.79,11,.81a3.58,3.58,0,0,1,2.62,1.13c1.53,1.67-.64,2.82,0,4.32A1.93,1.93,0,0,0,36.59,143a5.26,5.26,0,0,0,3.1-1.4c6.78-5,14.57-9.49,23.09-9.32a3.64,3.64,0,0,1,2.53,1c1.19,1.21.71,2.42.08,3.42a10.68,10.68,0,0,1-6.92,4.82,6.43,6.43,0,0,0-2.73,1.18c-2.77,2.21-1,4.72,1.08,5.19a6.67,6.67,0,0,0,3.89-.57c8.17-3.32,12.44-12.33,19.6-17.47a3.76,3.76,0,0,1,3.4-.53,2.44,2.44,0,0,1,1.45,3.36c-.6,1.85-2.3,3.1-3.91,4.2-2,1.33-4.06,2.82-4.29,5.39a2.9,2.9,0,0,0,2.23,3.17c1.55.28,2.79-1,3.72-2.15,2-2.59,3.72-5.42,5.76-8a38.14,38.14,0,0,1,15.49-11.64A1.81,1.81,0,0,1,106,124c.74.62.48,1.49.2,2.23l-3.34,9.18c-.37,1-.73,2.08-.07,3.06a2.68,2.68,0,0,0,3.16.91c2.06-.75,2.91-2.81,3.65-4.72a38.44,38.44,0,0,1,4.76-9.5,13.63,13.63,0,0,1,8.74-5.59,9.14,9.14,0,0,1,6.21,1.5,4.81,4.81,0,0,0,5.59-.11,90.87,90.87,0,0,1,8-5.1c4-2.13,8.36-2.9,12.38-4.64-3.22-3.62-15.29-1.65-19.78-1.74-4.19-.08-8.6-.22-12.16-2.41a8.09,8.09,0,0,0-3.07-1.51,2.21,2.21,0,0,0-2,.8c-.64.85-.08,1.5,0,2.23.17,1.36-1.24,2.35-2.51,2.84a17.3,17.3,0,0,1-18.4-4.19c-1.92-2-3.78-4.81-6.59-4.8-3,0-4.92,4.19-3,6.46,1.26,1.52,3.61,2,3.56,4.66a4.81,4.81,0,0,1-1.48,3.29c-4.34,4.3-12.41,2.57-15-2.72-1.19-2.41-1.36-5.3-3.68-7.12a3.22,3.22,0,0,0-3.47-.4c-2.1,1.13-1.59,4-.24,5.75,1,1.29,2.45,2.4,2.14,4.33A3.62,3.62,0,0,1,67,119.43c-2.48.84-4.94-.48-6.67-2.23-1.48-1.49-2.59-3.3-4-4.85a2.24,2.24,0,0,0-1.38-.87,2,2,0,0,0-1.21.42A6.58,6.58,0,0,0,53.24,122c-2.22,2-5.83,1.46-8.43-.06s-4.73-3.78-7.44-5.11-6.48-1.37-8.23,1.08c-.68.95-1,2.17-1.81,3-2.51,2.46-6.65-.7-10.14-.25C13.29,121.12,11.57,126.41,13.31,129.94Z"/><path class="cls-24" d="M21,129.79c9.5,3.47,19.7,3.18,29.57,1.74,11.44-1.66,22.61-4.25,34.14-5.3A151.52,151.52,0,0,0,102.17,124a146.54,146.54,0,0,0,15.8-4.48c5.46-1.79,10.91-3.64,16.5-5a133.46,133.46,0,0,1,16.64-2.8c12.1-1.36,24.74-3.23,36.75-.38a.51.51,0,0,0,.32-1c-9-4.27-19.93-2.53-29.5-1.72-11.48,1-22.68,2.66-33.69,6.16-10.81,3.45-21.35,7.32-32.68,8.74-5.85.73-11.75,1.12-17.6,2-5.56.8-11.06,2-16.57,3.11-12.19,2.48-24.9,4.51-37.08.84A.16.16,0,0,0,21,129.79Z"/><path class="cls-4" d="M13.5,125.33c5.56,2.74,7.64,4.38,13.73,5.54,5.83,1.1,15.93,1.74,21.77.68,5.3-1,10.14-3.65,15.37-5,6.67-1.67,13.67-1,20.51-1.65a100,100,0,0,0,17.35-3.55c13.5-3.72,26.86-8.1,40.68-10.45a87.13,87.13,0,0,1,10.52-1c-4.61-1.92-14.1-.47-18-.54-4.19-.08-8.6-.22-12.16-2.41a8.09,8.09,0,0,0-3.07-1.51,2.21,2.21,0,0,0-2,.8c-.64.85-.08,1.5,0,2.23.17,1.36-1.24,2.35-2.51,2.84a17.3,17.3,0,0,1-18.4-4.19c-1.92-2-3.78-4.81-6.59-4.8-3,0-4.92,4.19-3,6.46,1.26,1.52,3.61,2,3.56,4.66a4.81,4.81,0,0,1-1.48,3.29c-4.34,4.3-12.41,2.57-15-2.72-1.19-2.41-1.36-5.3-3.68-7.12a3.22,3.22,0,0,0-3.47-.4c-2.1,1.13-1.59,4-.24,5.75,1,1.29,2.45,2.4,2.14,4.33A3.62,3.62,0,0,1,67,119.43c-2.48.84-4.94-.48-6.67-2.23-1.48-1.49-2.59-3.3-4-4.85a2.24,2.24,0,0,0-1.38-.87,2,2,0,0,0-1.21.42A6.58,6.58,0,0,0,53.24,122c-2.22,2-5.83,1.46-8.43-.06s-4.73-3.78-7.44-5.11-6.48-1.37-8.23,1.08c-.68.95-1,2.17-1.81,3-2.51,2.46-6.65-.7-10.14-.25A5.43,5.43,0,0,0,12.87,125C13.08,125.11,13.29,125.23,13.5,125.33Z"/><path class="cls-4" d="M26.24,121.56a35.53,35.53,0,0,0,6.16,5.19,25.62,25.62,0,0,0,17.51,4.31c1.74-.26,3.76-1.05,4.08-2.79.39-2.1-1.94-3.56-3.79-4.65l-.54-.35a9.74,9.74,0,0,1-4.85-1.37c-2.61-1.51-4.73-3.78-7.44-5.11s-6.48-1.37-8.23,1.08c-.68.95-1,2.17-1.81,3A3.07,3.07,0,0,1,26.24,121.56Z"/><path class="cls-4" d="M93.09,123.15a3.77,3.77,0,0,0,3.16-.16c1.2-.81,1.23-2.66.49-3.9a9.63,9.63,0,0,0-3.25-2.82c-.81-.52-1.61-1.07-2.4-1.64a5.14,5.14,0,0,1-1.31,2.19,8.47,8.47,0,0,1-4,2.18A18.63,18.63,0,0,0,93.09,123.15Z"/><path class="cls-4" d="M124.93,115.08q-3.24-3.35-6.72-6.45c.11,1.32-1.27,2.29-2.52,2.77a15.43,15.43,0,0,1-3.33.88l1.15,1.06a13.64,13.64,0,0,0,5.49,3.31A5.86,5.86,0,0,0,124.93,115.08Z"/><path class="cls-4" d="M68.4,125c2.08,1.06,5,.9,6.38-1-.75-3-2.89-5.22-5.32-7.24A3.62,3.62,0,0,1,67,119.43a5.33,5.33,0,0,1-4.2-.41l.72,1.06A14.06,14.06,0,0,0,68.4,125Z"/><path class="cls-26" d="M103.12,147.36c.14-1.63.23-3.69,1.75-4.29a7.84,7.84,0,0,1,1.83-.25c2.4-.34,3.86-2.92,4.17-5.33s-.17-4.87.2-7.27,2-4.93,4.43-5.07c.24,1.73.48,3.46.73,5.2a3.05,3.05,0,0,0,.3,1.11c.65,1.14,2.5.92,3.36-.07a7.33,7.33,0,0,0,1.29-3.66,28.94,28.94,0,0,1,4-10.29c1-1.53,2.92-3.11,4.34-2,1.78,1.38-.13,4.94,1.7,6.25,1.24.88,3-.28,3.59-1.68s.53-3,1.15-4.39,2.47-2.46,3.64-1.49c.56.46.76,1.25,1.32,1.72.94.82,2.5.32,3.29-.65a9.79,9.79,0,0,0,1.42-3.44,16.36,16.36,0,0,1,6.23-8.46,6.55,6.55,0,0,1,3.63-1.39,3.06,3.06,0,0,1,3,2.08c.29,1.16-.31,2.51.34,3.51,1,1.57,3.48.41,4.66-1s2.67-3.32,4.45-2.76a1.77,1.77,0,0,0,1.9,1.54,5.17,5.17,0,0,0,2.49-1l8.72-5.56a8.21,8.21,0,0,1,.73,3.81,28.64,28.64,0,0,1,10.18-2c3.89-.06,8.57,1.39,9.42,5.19.53,2.34-.66,4.72-2,6.69a8.66,8.66,0,0,1-3.71,3.37c-4.93,1.92-10.51-4.37-15.28-2.07.44,1.51,2,2.39,3,3.52s1.65,3.23.35,4.1-3.14-.65-4.37-1.87a12.51,12.51,0,0,0-6-3.3c-2.09-.49-5,.18-5.15,2.32s2.69,3.29,3.58,5.29c1,2.32-1.74,5.24-4.11,4.34-2.1-.8-2.84-3.46-4.68-4.74a7.11,7.11,0,0,0-3.41-1,19.3,19.3,0,0,0-11.91,2.93,3.3,3.3,0,0,0-1.25,1.18c-1.1,2.16,2.54,4,2.57,6.47,0,1.75-1.95,2.94-3.7,2.95s-3.41-.75-5.14-1.08a10.75,10.75,0,0,0-6,.59c-.62.25-1.32.71-1.26,1.38a1.47,1.47,0,0,0,.54.91c1,.92,2.37,1.35,3.45,2.17s1.86,2.42,1.09,3.54a3.29,3.29,0,0,1-2.19,1.12,23.25,23.25,0,0,1-9.72-.14c-1.75-.4-3.53-1-5.31-.75s-3.55,1.82-3.26,3.6,2.22,3.45,1.08,4.73c-.94,1.06-2.61.12-3.89-.48-2.66-1.25-5.87-.62-8.49.73-2,1-3.71,2.81-5.66,3.64C100.66,152.89,102.87,150.34,103.12,147.36Z"/><path class="cls-27" d="M183.39,105.76c-9.33-.53-18.67,3.55-26.87,7.58a212.68,212.68,0,0,0-23,13.19,198.36,198.36,0,0,0-21.61,16.36c-6.65,5.79-13.67,11.9-19.06,18.92-.67.87.58,2.2,1.41,1.39,6.11-6,11.65-12.47,18.08-18.17a215.89,215.89,0,0,1,20.55-16.12,191.46,191.46,0,0,1,22.75-13.49,95.6,95.6,0,0,1,27.73-9C183.74,106.34,183.77,105.78,183.39,105.76Z"/><path class="cls-4" d="M174.34,107.58C165.4,109.93,157,114,148.9,118.45q-9.78,5.37-19,11.64a176,176,0,0,0-29.19,24.66,6.69,6.69,0,0,0-.12,1c2-.83,3.69-2.62,5.66-3.64,2.62-1.35,5.83-2,8.49-.73,1.28.6,3,1.54,3.89.48,1.14-1.28-.8-3-1.08-4.73s1.47-3.34,3.26-3.6,3.56.35,5.31.75a23.25,23.25,0,0,0,9.72.14,3.29,3.29,0,0,0,2.19-1.12c.77-1.12,0-2.71-1.09-3.54s-2.44-1.25-3.45-2.17a1.47,1.47,0,0,1-.54-.91c-.06-.67.64-1.13,1.26-1.38a10.75,10.75,0,0,1,6-.59c1.73.33,3.38,1.09,5.14,1.08s3.71-1.2,3.7-2.95c0-2.43-3.67-4.31-2.57-6.47a3.3,3.3,0,0,1,1.25-1.18,19.3,19.3,0,0,1,11.91-2.93,7.11,7.11,0,0,1,3.41,1c1.84,1.28,2.58,3.94,4.68,4.74,2.37.9,5.13-2,4.11-4.34-.89-2-3.73-3.11-3.58-5.29s3.06-2.81,5.15-2.32a12.51,12.51,0,0,1,6,3.3c1.23,1.22,2.93,2.83,4.37,1.87s.73-3-.35-4.1-2.59-2-3-3.52c4.77-2.3,10.35,4,15.28,2.07a8.66,8.66,0,0,0,3.71-3.37,10.56,10.56,0,0,0,2.16-5.22C192.69,104.66,183.21,105.25,174.34,107.58Z"/><path class="cls-2" d="M200.65,61.87c.12-.4.24-.78.34-1.19a58.44,58.44,0,0,0,1.08-6.28.49.49,0,0,1,0-.12V29.44l-18.62,3.67C165.3,23.93,143.31,24,122.7,25.18c-20.11,1.16-40.45,3.09-59.39,10C47.06,41.07,31.79,51.05,21.79,65l-9.68,1.91V92.05a63.7,63.7,0,0,0,2.63,11.59C18.26,111.19,25.33,117,36,119.53c21.23,5,46.3-9.81,66.77-15,29.72-7.6,61.05-12.92,86.3-30.33C193.72,70.94,198.36,66.87,200.65,61.87Z"/><path class="cls-3" d="M200.65,61.87c.12-.4.24-.78.34-1.19a58.44,58.44,0,0,0,1.08-6.28.49.49,0,0,1,0-.12v-4.9a70,70,0,0,1-10,13.32c-10.44,11-24.18,18.51-38.75,22.62-25,7.05-52.68,4.47-75.77,16.3-8.77,4.5-16.74,11-26.38,13-8.76,1.84-18.83-.81-24.07-8.07C20.29,97.1,22.06,77.79,25,67c1.07-3.91,3.88-6.93,4.4-11A71.84,71.84,0,0,0,21.79,65l-9.68,1.91V92.05a63.7,63.7,0,0,0,2.63,11.59C18.26,111.19,25.33,117,36,119.53c21.23,5,46.3-9.81,66.77-15,29.72-7.6,61.05-12.92,86.3-30.33C193.72,70.94,198.36,66.87,200.65,61.87Z"/><path class="cls-3" d="M200.65,61.87c.12-.4.24-.78.34-1.19a58.44,58.44,0,0,0,1.08-6.28.49.49,0,0,1,0-.12V29.44l-18.62,3.67C165.3,23.93,143.31,24,122.7,25.18c-20.11,1.16-40.45,3.09-59.39,10C47.06,41.07,31.79,51.05,21.79,65l-9.68,1.91V92.05a63.7,63.7,0,0,0,2.63,11.59C18.26,111.19,25.33,117,36,119.53c10.94,2.56,22.9-.13,34.73-4,.4-1.44.76-2.89,1.09-4.32,3.38-14.32,6-29,12.27-42.32S100.78,43.35,114.82,39c3.62-1.12,7.56-1.7,11.16-.53,5.41,1.75,8.86,7,11.08,12.25,5.1,12,6,25.2,8.95,37.85a45.44,45.44,0,0,0,1.29,4.56c14.8-4.47,29-10.17,41.75-18.93C193.72,70.94,198.36,66.87,200.65,61.87Z"/><path class="cls-4" d="M63.31,35.16C47.06,41.07,31.79,51.05,21.79,65l-9.68,1.91V92.05a63.32,63.32,0,0,0,2.64,11.63c3.42,7.3,10.18,13,20.29,15.6,3.1-6.62,3.26-14.56,2.64-22-.74-9-2.36-18.17-.17-26.92C39.56,62.16,44.86,55,51.25,49.49c11.08-9.65,25.2-14.91,39-20l5.16-1.88A153.83,153.83,0,0,0,63.31,35.16Z"/><path class="cls-4" d="M200.65,61.87c.12-.4.24-.78.34-1.19a58.44,58.44,0,0,0,1.08-6.28.49.49,0,0,1,0-.12V29.44l-18.62,3.67c-10-5.05-21.13-7.3-32.57-8.11a51.24,51.24,0,0,1,16.47,17.1,68.77,68.77,0,0,1,9.38,26.15c.59,4.19.8,8.44,1.16,12.66a112.73,112.73,0,0,0,11.17-6.75C193.72,70.94,198.36,66.87,200.65,61.87Z"/><path class="cls-5" d="M102.75,79.86c29.72-7.59,61.05-12.91,86.3-30.33,6.26-4.31,12.49-10.16,13-17.74.58-8.09-5.6-15.12-12.34-19.64C170.55-.7,145.76-.77,122.7.56c-20.11,1.16-40.45,3.09-59.39,10s-36.54,19.28-46,37.05C6.43,67.91,12.64,89.45,36,94.91,57.21,99.86,82.28,85.09,102.75,79.86Z"/><path class="cls-6" d="M103,78.21C131.16,71,160.87,66,184.82,49.45c5.93-4.09,11.84-9.64,12.35-16.82.55-7.67-5.31-14.35-11.7-18.62-18.2-12.2-41.71-12.26-63.58-11-19.07,1.1-38.36,2.93-56.31,9.46S30.92,30.75,21.92,47.6C11.64,66.88,17.53,87.31,39.66,92.48,59.79,97.18,83.57,83.17,103,78.21Z"/><path class="cls-7" d="M67.49,58.87c-1.57,0-3.95,2.37-1.67,3.17S70.61,58.55,67.49,58.87Z"/><path class="cls-7" d="M88,44c-1.58.42-3.72,1.66-3.47,3.6s2.48,1.92,4,1.28c1.17-.52,4-1.79,3.82-3.42C92.09,43.62,89.29,43.67,88,44Z"/><path class="cls-7" d="M99.2,56.29c1.61,3,7.13-1.89,5.56-2.86S97.82,53.72,99.2,56.29Z"/><path class="cls-7" d="M120.55,46.87c-1.91-.32-7.61,2.34-4,4C119,52,123,47.29,120.55,46.87Z"/><path class="cls-7" d="M149,25.5c1-3-4.76-2.08-5.42-.26C142.7,27.75,148.69,28.35,149,25.5Z"/><path class="cls-7" d="M169.86,26.77a3.19,3.19,0,0,0,1.89-4.39c-.81-1.61-3.34-2.12-5-2.38-2.29-.38-4,1.39-3,3.67A5.41,5.41,0,0,0,169.86,26.77Z"/><path class="cls-7" d="M170.21,37.1c-4.31-1.1-7.65,5-2.7,6.43C172.1,44.86,175,37.83,170.21,37.1Z"/><path class="cls-7" d="M93.61,12c-4.2-1.25-8,5.29-2.74,5.89C94.22,18.27,98,13.3,93.61,12Z"/><path class="cls-7" d="M109,15.19c4.12-1,.9-5.75-2.44-4.55a2.38,2.38,0,0,0-1.41,3.46C106,15.48,107.66,15.51,109,15.19Z"/><path class="cls-7" d="M41.93,42.63q.95.13-.57,0a4.9,4.9,0,0,0-1.73.35,6,6,0,0,0-2.36,1.56,3.34,3.34,0,0,0-.2,4.46c2,2.18,7-.13,7.86-2.59A2.38,2.38,0,0,0,44.52,44C44.2,43.14,42.66,42.62,41.93,42.63Z"/><path class="cls-7" d="M53,43.06c-4.35,0-3.78,6.39-.73,5.27.54-.19,1.08-.18,1.64-.39a3.48,3.48,0,0,0,.58-.31,2.82,2.82,0,0,0,1-1.76A2.53,2.53,0,0,0,53,43.06Z"/><path class="cls-7" d="M42.08,70.32c-1.59-.57-3.66-.7-4.85.67-1.63,1.85-.56,4.24,1.38,5.29C43.27,78.77,47.1,72.1,42.08,70.32Z"/><path class="cls-7" d="M87.68,73.17c-1.81-2.64-4.7.63-3.74,2.92s4.42,2.29,4.79-.42c0,.11,0,.22,0,.32A2.44,2.44,0,0,0,87.68,73.17Z"/><path class="cls-7" d="M132.42,58.85c-2.32,3.87,6.08,5.55,6.65.92C139.54,55.9,133.86,56.45,132.42,58.85Z"/><path class="cls-7" d="M150.3,45.81c-3.75,1-3.54,6.32.79,5.35C155,50.29,154.32,44.74,150.3,45.81Z"/><path class="cls-7" d="M111.26,24.37c-1.12-.29-3-.83-3.9.12-2,2.17,1.57,3.2,2.65,2.83C110.84,27.07,113.12,24.85,111.26,24.37Z"/><path class="cls-7" d="M50.57,29.37c-1-2.36-5.27-1.13-4.58,1.49C46.77,33.8,51.68,32,50.57,29.37Z"/><path class="cls-7" d="M25.84,66.15l-.5-.35a14,14,0,0,0-1.66-.56,3.9,3.9,0,0,0-3.37,1.53,3.69,3.69,0,0,0,1,5.55,2.58,2.58,0,0,0,3.09-1.22c-.45.63,1.61-1.89.75-1C26,69.25,27.05,67.13,25.84,66.15Z"/><path class="cls-7" d="M144.31,10a5.58,5.58,0,0,0,2.13-.89c-.55.33.69-.8.84-1.35A2.42,2.42,0,0,0,147.09,6c-.86-1.6-3-2-4.58-1.43C138.3,6,140.23,10.75,144.31,10Z"/><path class="cls-7" d="M133.9,37c1.81-.37,2.65-1.95,1.7-3.46a2.84,2.84,0,0,0-4-.47C129.88,34.74,131.66,37.43,133.9,37Z"/><path class="cls-7" d="M190.72,36.2c-1.45-1-3.37-.71-5-.81-1.13-.06-2.64-.47-3.71.07-2.44,1.23-1.17,4,.48,5.19a8.24,8.24,0,0,0,7,1.44C192.06,41.25,193.36,38,190.72,36.2Z"/><path class="cls-7" d="M192.46,18.85c-1.81-.87-4.81-.83-6.28.75s-.57,3.66,1.23,4.49,4.39.86,5.74-.56A3.06,3.06,0,0,0,192.46,18.85Z"/><path class="cls-8" d="M198.74,20.77c-9.23,20.52-30,36-52.58,37.39-19.74,1.21-39.39-7.1-59-4.42-12.61,1.71-24.59,7.93-37.31,7.46-4.06-.15-8.28-1.09-11.35-3.75C31.88,51.69,33.46,40.89,37.41,33A58.51,58.51,0,0,1,47.76,18.53a33.79,33.79,0,0,1,5.39-3.68C38.24,22.11,25,33,17.28,47.58,6.43,67.91,12.64,89.45,36,94.91c21.23,5,46.3-9.82,66.77-15,29.72-7.59,61.05-12.91,86.3-30.33,6.26-4.31,12.49-10.16,13-17.74A17.29,17.29,0,0,0,198.74,20.77Z"/><path class="cls-11" d="M15.81,212.37c-1.2-2.32-2.74-5.53-2.49-8.2.17-1.7-2.45-1.94-2.9-.39-1.16,3.93-2.29,7.09-.83,11.21,1.2,3.38,3.52,6.51,7.45,6,.79-.11,1.18-1,1.26-1.66C18.6,216.62,17,214.62,15.81,212.37Z"/><path class="cls-11" d="M21.88,232a2.69,2.69,0,0,0-.73-1.21,2.35,2.35,0,0,0-.5-.66l-.26-.23-.06-.07-.18-.24-.25-.19-.11-.15-.18-.15a1.58,1.58,0,0,0-1-.6,1.61,1.61,0,0,0-1.63.79l0,0a2.07,2.07,0,0,0-.46.8c-.07.28-.08,1.32-.1.45a2.44,2.44,0,0,0,0,1.2l.08.26a6.29,6.29,0,0,0,.41.92c.71,1.25,2.88,2.12,4.14,1.2A2,2,0,0,0,21.88,232Z"/><path class="cls-11" d="M199.81,191.8a1.5,1.5,0,0,0-2.09,0c-2,1.71-2.49,4.3-3.1,6.72s-1.75,4.9-1.39,7.48c.18,1.35,1.93,1.74,2.94,1.2,2.55-1.36,3.78-4.81,4.56-7.45S201.67,194.12,199.81,191.8Z"/><path class="cls-11" d="M213.08,211.7a21.13,21.13,0,0,0-9.76-2.79c-2.51-.18-2.55,3.26-.55,4.06a31.66,31.66,0,0,1,7.45,4.46c2,1.6,3.86,3.49,6.55,3.78,1.09.11,1.82-1,1.91-1.91C219,215.91,215.69,213.24,213.08,211.7Z"/><path class="cls-11" d="M197.94,230.34c-5.39,5.49-11.6,10.4-16.33,16.51a1.39,1.39,0,0,0,1.68,2.17c7.25-3.27,12.91-9.42,18-15.38C203.16,231.38,200.08,228.16,197.94,230.34Z"/><path class="cls-11" d="M25.07,263.55c-2.44-.73-5-1.14-7.35-2.11a24.08,24.08,0,0,1-6.26-3.66c-.91-.82-2.78,0-2.26,1.31.69,1.78.91,3,2.29,4.41a13.5,13.5,0,0,0,4.12,2.94c3.1,1.43,6.8,1.8,9.83,0A1.58,1.58,0,0,0,25.07,263.55Z"/><path class="cls-16" d="M196.91,173c-1.37-2-4.33-4.65-6.89-3.51a1.12,1.12,0,0,0-.58,1c.12,1.76,1.79,3.39,2.52,5,.86,1.86,1.3,4,2.56,5.65a1.66,1.66,0,0,0,2.57.33C199.22,179,198.62,175.42,196.91,173Z"/><path class="cls-16" d="M8.92,175.85c-1.35-1-2.65-2-3.93-3S2.57,171,1.32,170.08c-.55-.41-1.31.15-1.32.76a9.68,9.68,0,0,0,.81,4.43,14.51,14.51,0,0,0,2.87,4.27c1.94,2,5.49,4.6,8.19,2.39C14.34,179.91,10.36,176.88,8.92,175.85Z"/><path class="cls-16" d="M24.85,192.09a2.11,2.11,0,0,0-.58-.45l-.13-.06-.21-.15a4.66,4.66,0,0,0-1.69-.66c-.52-.1-1-.15-1.54-.25a6.43,6.43,0,0,1-1.88-.27.85.85,0,0,0-1.15,1.15,10.88,10.88,0,0,0,1,1.93,5.45,5.45,0,0,0,2.1,1.36c1.34.48,3.55.18,4.22-1.29A1.13,1.13,0,0,0,24.85,192.09Z"/><path class="cls-20" d="M207.11,123.14c-2.33-2.38-5.93-5.8-9.53-5.55a1.81,1.81,0,0,0-1.72,2.25c.86,3.2,4.33,5.71,6.5,8.06s4.54,5.49,7.74,6.61a1.61,1.61,0,0,0,2-1.54C212.47,129.24,209.55,125.62,207.11,123.14Z"/><path class="cls-20" d="M217.57,142.52c-.55-1-2.4-3-3.7-1.86-1.06.88-1,2.34-1,3.59a8.24,8.24,0,0,0,1,4.39,2.16,2.16,0,0,0,3.69,0C218.92,146.75,218.62,144.48,217.57,142.52Z"/><path class="cls-20" d="M4.71,114.76c-4.5,3-6.68,12-.93,15a1.59,1.59,0,0,0,2.35-1.34,56.88,56.88,0,0,0,0-5.84,18,18,0,0,1,1.32-5.73A1.88,1.88,0,0,0,4.71,114.76Z"/><path class="cls-26" d="M199.47,89.31c-3.75-2.7-8.64-3.25-12.8-4.92-1.13-.45-1.95,1.2-1.15,2,1.88,1.81,3.35,3.62,5.6,5a17.49,17.49,0,0,0,7,2.81C201,94.57,201.3,90.63,199.47,89.31Z"/><path class="cls-26" d="M209,84.4a20.64,20.64,0,0,0-5.9-4.29c-2-1.07-4.27,1.59-2.49,3.22a47.38,47.38,0,0,1,4.29,4.77c1.2,1.43,2.81,3.22,4.65,3.77a1.48,1.48,0,0,0,1.8-1C211.84,88.58,210.44,86.05,209,84.4Z"/><path class="cls-13" d="M86.14,240.92c-8.79-.08-16.56,2.44-25.23-.48a1.14,1.14,0,0,0-1.27,1.66c6,9.3,19.48,7,27.19,1.37A1.38,1.38,0,0,0,86.14,240.92Z"/><path class="cls-13" d="M106,231.74a9.7,9.7,0,0,0-8.43,2.93,1.47,1.47,0,0,0,1,2.48,9.71,9.71,0,0,0,8.14-3.63A1.22,1.22,0,0,0,106,231.74Z"/></g></g></g></svg>