<svg xmlns="http://www.w3.org/2000/svg" viewBox="0 0 77.54 36.17"><defs><style>.cls-1{fill:#ef978e;}.cls-2{fill:#a7b0b7;}.cls-3{fill:#c9170e;}.cls-4{fill:#ead296;}.cls-5{fill:#020202;opacity:0.18;}.cls-6{fill:#070707;opacity:0.21;}.cls-7,.cls-8{fill:#fff;}.cls-7{opacity:0.33;}.cls-8{opacity:0.27;}.cls-9{opacity:0.24;}</style></defs><g id="Слой_2" data-name="Слой 2"><g id="Layer_1" data-name="Layer 1"><path class="cls-1" d="M75.25,11.08s1.2-.8,1.72-.59-.41,1.14-.24,1.81S78,14,77.27,14.37,74.8,14,74.8,14Z"/><path class="cls-2" d="M73.29,10.37h1.62a.7.7,0,0,1,.7.7v3.06a.7.7,0,0,1-.7.7H73.29a0,0,0,0,1,0,0V10.37A0,0,0,0,1,73.29,10.37Z"/><path class="cls-1" d="M2.29,11.08s-1.21-.8-1.72-.59S1,11.63.8,12.3-.51,14,.27,14.37,2.74,14,2.74,14Z"/><path class="cls-2" d="M1.92,10.37H3.55a.7.7,0,0,1,.7.7v3.06a.7.7,0,0,1-.7.7H1.92a0,0,0,0,1,0,0V10.37A0,0,0,0,1,1.92,10.37Z" transform="translate(6.17 25.18) rotate(180)"/><rect class="cls-1" x="4.04" y="0.02" width="69.68" height="26.32" rx="11.5"/><rect class="cls-3" x="28.98" width="18.41" height="26.34"/><rect class="cls-4" x="23.39" y="4.58" width="29.59" height="15.31" rx="7.42"/><path class="cls-3" d="M45.32,20.38H31A8.15,8.15,0,0,1,31,4.09H45.32a8.15,8.15,0,1,1,0,16.29ZM31,5.07a7.17,7.17,0,1,0,0,14.34H45.32a7.17,7.17,0,1,0,0-14.34Z"/><rect class="cls-5" x="33.67" y="7.68" width="9.03" height="1.2" rx="0.58"/><rect class="cls-5" x="27.69" y="10.3" width="20.99" height="1.2" rx="0.58"/><rect class="cls-5" x="27.69" y="12.75" width="20.99" height="1.2" rx="0.58"/><path class="cls-6" d="M73.7,14.13l0-1.92a13.14,13.14,0,0,1-4,4.33C60.81,22,23.65,20.34,15,19.05,8.85,18.13,5.52,12.65,4.17,10A11.49,11.49,0,0,0,4,11.63v2.58A11.93,11.93,0,0,0,15.7,26.34H62.32A11.86,11.86,0,0,0,73.7,14.13Z"/><path class="cls-7" d="M69.68,7.33a2.34,2.34,0,0,1-1.54.4c-1.77-.08-3.32-1.16-5-1.78-3.46-1.3-7.36-.6-11-1.4a2.66,2.66,0,0,1-1.58-.79C48.39,1,58.39,1.39,59.45,1.42c3.15.07,6.45.52,9.12,2.32A4,4,0,0,1,70,5.23a1.8,1.8,0,0,1-.19,2Z"/><path class="cls-7" d="M9.8,8.45A2.37,2.37,0,0,1,8.69,5.69a5.08,5.08,0,0,1,3.09-3.32,14.6,14.6,0,0,1,4.6-.87A217.64,217.64,0,0,1,38.5,1a2.12,2.12,0,0,1,1,.21.72.72,0,0,1,.32.91q-7.16.54-14.33.77C22,3,18.2,3.14,15.46,5.34c-1.49,1.2-2.72,3-4.62,3.22A2.16,2.16,0,0,1,9.8,8.45Z"/><path class="cls-1" d="M70.11,31c5.32-5.53,6.38-13.13,2.37-17s-11.56-2.5-16.88,3-6.38,13.13-2.37,17S64.79,36.47,70.11,31Z"/><path class="cls-8" d="M72.22,13.74C68.15,10.18,60.8,11.58,55.6,17s-6.38,13.13-2.37,17a4.58,4.58,0,0,0,.42.35c4.23,1.8,10.33,0,14.88-4.71C73.4,24.55,74.83,17.86,72.22,13.74Z"/><g class="cls-9"><path d="M58.11,32.16a.16.16,0,0,0-.09-.22.17.17,0,0,0-.23.09.18.18,0,0,0,.09.23A.19.19,0,0,0,58.11,32.16Z"/><path d="M59,31.85a.17.17,0,0,0-.09-.23.18.18,0,0,0-.23.09.19.19,0,0,0,.1.23A.16.16,0,0,0,59,31.85Z"/><path d="M58.52,30.7a.09.09,0,0,0-.06-.12.08.08,0,0,0-.12.05.09.09,0,0,0,0,.12A.1.1,0,0,0,58.52,30.7Z"/><path d="M61.44,18.27a.15.15,0,0,0-.08-.2.15.15,0,1,0,.08.2Z"/><path d="M61.45,17.46a.1.1,0,1,0-.13.05A.1.1,0,0,0,61.45,17.46Z"/><path d="M60.07,17.05a.1.1,0,0,0,0-.13.09.09,0,0,0-.12,0,.1.1,0,0,0,.05.13A.09.09,0,0,0,60.07,17.05Z"/><path d="M69.23,16.06a.15.15,0,0,0-.08-.2.16.16,0,0,0-.2.08.15.15,0,1,0,.28.12Z"/><path d="M70.08,16.53a.14.14,0,0,0-.25-.11.15.15,0,0,0,.08.18A.12.12,0,0,0,70.08,16.53Z"/><path d="M69.78,17.24a.14.14,0,0,0-.07-.18.12.12,0,0,0-.17.07.14.14,0,0,0,.07.18A.12.12,0,0,0,69.78,17.24Z"/><path d="M68.83,18.3a.16.16,0,0,0-.09-.22.17.17,0,0,0-.23.09.19.19,0,0,0,.1.23A.17.17,0,0,0,68.83,18.3Z"/><path d="M71.67,21.4a.11.11,0,0,0-.06-.15.11.11,0,0,0-.15.06.11.11,0,0,0,.06.15A.11.11,0,0,0,71.67,21.4Z"/><path d="M52.11,26.73a.15.15,0,1,0-.28-.12.15.15,0,0,0,.28.12Z"/><path d="M53.13,26.09a.2.2,0,0,0-.11-.27.21.21,0,0,0-.28.11.21.21,0,1,0,.39.16Z"/><path d="M53.14,24.49a.09.09,0,0,0,0-.11.08.08,0,0,0-.1.05.07.07,0,0,0,0,.1A.08.08,0,0,0,53.14,24.49Z"/></g><ellipse class="cls-1" cx="56.88" cy="21.46" rx="13.89" ry="10.07" transform="translate(1.98 47.57) rotate(-46.11)"/><path class="cls-8" d="M66.24,11.23c-4.06-3.56-11.41-2.16-16.62,3.25s-6.37,13.13-2.37,17c.14.13.29.24.43.36,4.22,1.8,10.32,0,14.88-4.72C67.43,22,68.86,15.35,66.24,11.23Z"/><g class="cls-9"><path d="M52.14,29.65a.19.19,0,0,0-.1-.23.17.17,0,0,0-.22.1.16.16,0,0,0,.09.22A.17.17,0,0,0,52.14,29.65Z"/><path d="M53,29.34a.17.17,0,1,0-.32-.14.17.17,0,1,0,.32.14Z"/><path d="M52.54,28.19a.1.1,0,0,0,0-.13.11.11,0,0,0-.13.06.1.1,0,0,0,.06.12A.09.09,0,0,0,52.54,28.19Z"/><path d="M55.47,15.76a.16.16,0,0,0-.08-.2.15.15,0,1,0-.12.28A.15.15,0,0,0,55.47,15.76Z"/><path d="M55.48,15a.1.1,0,0,0-.06-.13.09.09,0,0,0-.12,0,.1.1,0,0,0,.05.13A.11.11,0,0,0,55.48,15Z"/><path d="M54.1,14.53a.09.09,0,0,0-.05-.12.1.1,0,0,0-.08.18A.1.1,0,0,0,54.1,14.53Z"/><path d="M63.26,13.55a.16.16,0,0,0-.08-.2.17.17,0,0,0-.21.08.16.16,0,0,0,.09.2A.15.15,0,0,0,63.26,13.55Z"/><path d="M64.11,14a.13.13,0,0,0-.07-.17.14.14,0,1,0-.11.25A.14.14,0,0,0,64.11,14Z"/><path d="M63.81,14.73a.14.14,0,1,0-.25-.11.14.14,0,1,0,.25.11Z"/><path d="M62.86,15.79a.17.17,0,0,0-.09-.23.19.19,0,0,0-.23.1.16.16,0,0,0,.09.22A.17.17,0,0,0,62.86,15.79Z"/><path d="M65.7,18.89a.11.11,0,1,0-.15.06A.11.11,0,0,0,65.7,18.89Z"/><path d="M46.14,24.22a.16.16,0,0,0-.29-.12.16.16,0,0,0,.08.2A.16.16,0,0,0,46.14,24.22Z"/><path d="M47.16,23.58A.22.22,0,0,0,47,23.3a.22.22,0,0,0-.16.4A.22.22,0,0,0,47.16,23.58Z"/><path d="M47.16,22a.08.08,0,0,0,0-.1.08.08,0,0,0-.06.15A.08.08,0,0,0,47.16,22Z"/></g></g></g></svg>