<svg xmlns="http://www.w3.org/2000/svg" xmlns:xlink="http://www.w3.org/1999/xlink" viewBox="0 0 93.82 68.92"><defs><style>.cls-1{fill:#ea3017;}.cls-2{fill:none;}.cls-3{fill:#ec801e;}.cls-4{fill:#b56217;}.cls-5{fill:#ec931e;}.cls-6{isolation:isolate;}.cls-7{clip-path:url(#clip-path);}.cls-8{opacity:0.2;}.cls-9{fill:#ba044a;}.cls-10{opacity:0.26;}.cls-11{fill:#bc0902;}.cls-12{opacity:0.29;}.cls-12,.cls-36,.cls-41{mix-blend-mode:screen;}.cls-13{fill:#fe6e27;}.cls-14{opacity:0.49;}.cls-15{fill:#b60807;}.cls-16{fill:#fea489;}.cls-17{fill:#4e691c;}.cls-18{fill:#415613;}.cls-19{fill:#67822b;}.cls-20{fill:#fff;}.cls-21{fill:#e74b1b;}.cls-22{fill:#fecda4;}.cls-23{opacity:0.55;}.cls-24{fill:#ffe793;}.cls-25{fill:#feca90;}.cls-26{fill:#d51f12;}.cls-27{clip-path:url(#clip-path-2);}.cls-28,.cls-30{fill:#ff8d4f;}.cls-28,.cls-29{opacity:0.4;}.cls-31{fill:#e5411c;}.cls-32{fill:#f46f40;}.cls-33{fill:#fff29a;}.cls-34{fill:#ffe76d;}.cls-35{fill:#fec085;}.cls-36{opacity:0.41;}.cls-37{fill:#fd6f3d;}.cls-38{fill:#db270c;}.cls-39{fill:#335606;}.cls-40{clip-path:url(#clip-path-3);}.cls-41{opacity:0.32;}.cls-42{fill:#ffc188;}.cls-43{opacity:0.36;}.cls-44{clip-path:url(#clip-path-4);}.cls-45{clip-path:url(#clip-path-5);}.cls-46{opacity:0.48;}.cls-47{clip-path:url(#clip-path-6);}.cls-48{clip-path:url(#clip-path-7);}.cls-49{clip-path:url(#clip-path-8);}.cls-50{clip-path:url(#clip-path-9);}.cls-51{clip-path:url(#clip-path-10);}.cls-52{opacity:0.58;}.cls-53{clip-path:url(#clip-path-11);}.cls-54{clip-path:url(#clip-path-12);}.cls-55{clip-path:url(#clip-path-13);}.cls-56{clip-path:url(#clip-path-14);}.cls-57{fill:#c8976b;}.cls-58{clip-path:url(#clip-path-15);}.cls-59{fill:#fc8;}.cls-60{clip-path:url(#clip-path-16);}.cls-61{clip-path:url(#clip-path-17);}.cls-62{clip-path:url(#clip-path-18);}.cls-63{clip-path:url(#clip-path-19);}.cls-64{clip-path:url(#clip-path-20);}.cls-65{clip-path:url(#clip-path-21);}.cls-66{clip-path:url(#clip-path-22);}.cls-67{clip-path:url(#clip-path-23);}.cls-68{clip-path:url(#clip-path-24);}.cls-69{clip-path:url(#clip-path-25);}.cls-70{fill:#f87048;}.cls-71{fill:#fefcfd;}.cls-72{fill:#fff5cc;}</style><clipPath id="clip-path" transform="translate(22.68)"><path class="cls-1" d="M9.21,16.15a16.05,16.05,0,0,0-4.4,3.68A20.19,20.19,0,0,0,0,34,18,18,0,0,0,7.09,47.14a23.52,23.52,0,0,0,6.42,3.2,38.89,38.89,0,0,0,25.17-.08,19.74,19.74,0,0,0,4.91-2.38c2.91-2.06,4.87-5.2,6.38-8.43A28.76,28.76,0,0,0,52,33.8a21.65,21.65,0,0,0,.59-4.47,18.31,18.31,0,0,0-8.77-16.11C38.16,9.86,22.53,8.67,9.21,16.15Z"/></clipPath><clipPath id="clip-path-2" transform="translate(22.68)"><path class="cls-2" d="M43.4,28.8c-4-1.73-8.45-3.26-12.73-2.3a15.12,15.12,0,0,0-5.2,2.4,20.17,20.17,0,0,0-8.3,12.48,18,18,0,0,0,3.39,14.49,23.14,23.14,0,0,0,5.36,4.75A38.86,38.86,0,0,0,50.25,67.1a19.49,19.49,0,0,0,5.36-1C59,64.85,61.67,62.33,64,59.6a29.63,29.63,0,0,0,3.46-4.92,23,23,0,0,0,1.73-4.16c1.86-6.19.63-13.62-4.28-17.83a15.87,15.87,0,0,0-13.53-3.07,16.09,16.09,0,0,1-3.06.54A11.88,11.88,0,0,1,43.4,28.8Z"/></clipPath><clipPath id="clip-path-3" transform="translate(22.68)"><path class="cls-3" d="M51.18,37.13a.89.89,0,0,1,1.23.35A2.26,2.26,0,0,1,52,39.69a11.76,11.76,0,0,1-1.29,1.62,4.1,4.1,0,0,1-.17-3.22A1.55,1.55,0,0,1,51.18,37.13Z"/></clipPath><clipPath id="clip-path-4" transform="translate(22.68)"><path class="cls-3" d="M38.6,35.34a.89.89,0,0,1,1.28,0A2.27,2.27,0,0,1,40,37.65a11.81,11.81,0,0,1-.88,1.87,4.07,4.07,0,0,1-.9-3.1A1.47,1.47,0,0,1,38.6,35.34Z"/></clipPath><clipPath id="clip-path-5" transform="translate(22.68)"><path class="cls-3" d="M34.91,35.42A.79.79,0,0,1,36,35.3a2,2,0,0,1,.35,1.93A10.41,10.41,0,0,1,35.87,39a3.55,3.55,0,0,1-1.18-2.55A1.3,1.3,0,0,1,34.91,35.42Z"/></clipPath><clipPath id="clip-path-6" transform="translate(22.68)"><path class="cls-3" d="M29.21,37.17a.6.6,0,0,1,.71-.49c.52.11.8.66.95,1.17a7.84,7.84,0,0,1,.29,1.36,2.72,2.72,0,0,1-1.73-1.29A1,1,0,0,1,29.21,37.17Z"/></clipPath><clipPath id="clip-path-7" transform="translate(22.68)"><path class="cls-3" d="M58,39.62a.59.59,0,0,1,.56.65c-.05.53-.58.86-1.06,1.07a8.84,8.84,0,0,1-1.32.43,2.71,2.71,0,0,1,1.09-1.86A1,1,0,0,1,58,39.62Z"/></clipPath><clipPath id="clip-path-8" transform="translate(22.68)"><path class="cls-3" d="M60.44,47.5a.6.6,0,0,1-.26.82A1.52,1.52,0,0,1,58.71,48a8.35,8.35,0,0,1-1.06-.91,2.75,2.75,0,0,1,2.16,0A1,1,0,0,1,60.44,47.5Z"/></clipPath><clipPath id="clip-path-9" transform="translate(22.68)"><path class="cls-3" d="M27.52,48.32a.61.61,0,0,1-.33-.8,1.53,1.53,0,0,1,1.35-.68,7.17,7.17,0,0,1,1.39,0,2.76,2.76,0,0,1-1.63,1.42A1,1,0,0,1,27.52,48.32Z"/></clipPath><clipPath id="clip-path-10" transform="translate(22.68)"><path class="cls-3" d="M56.71,54.33a.6.6,0,0,1-.78.37,1.54,1.54,0,0,1-.74-1.32,8,8,0,0,1,0-1.39,2.77,2.77,0,0,1,1.49,1.57A1,1,0,0,1,56.71,54.33Z"/></clipPath><clipPath id="clip-path-11" transform="translate(22.68)"><path class="cls-3" d="M30.89,36.32a.77.77,0,0,1,1-.49c.65.23.9,1,1,1.69a9.84,9.84,0,0,1,.11,1.8,3.55,3.55,0,0,1-2-2A1.27,1.27,0,0,1,30.89,36.32Z"/></clipPath><clipPath id="clip-path-12" transform="translate(22.68)"><path class="cls-3" d="M27.27,39.54a.78.78,0,0,1,.46-1,2,2,0,0,1,1.85.67,9.62,9.62,0,0,1,1.23,1.32,3.56,3.56,0,0,1-2.8-.28A1.31,1.31,0,0,1,27.27,39.54Z"/></clipPath><clipPath id="clip-path-13" transform="translate(22.68)"><path class="cls-3" d="M26.15,43.77a.78.78,0,0,1-.1-1.11A2,2,0,0,1,28,42.35a10.43,10.43,0,0,1,1.72.55A3.53,3.53,0,0,1,27.14,44,1.3,1.3,0,0,1,26.15,43.77Z"/></clipPath><clipPath id="clip-path-14" transform="translate(22.68)"><path class="cls-4" d="M26.34,46.33a.78.78,0,0,1-.2-1.1A2,2,0,0,1,28,44.72a9.8,9.8,0,0,1,1.77.38,3.55,3.55,0,0,1-2.45,1.37A1.32,1.32,0,0,1,26.34,46.33Z"/></clipPath><clipPath id="clip-path-15" transform="translate(22.68)"><path class="cls-5" d="M28.34,50.65a.79.79,0,0,1-.58-1c.19-.67.94-1,1.61-1.13a9.89,9.89,0,0,1,1.79-.25,3.57,3.57,0,0,1-1.83,2.13A1.34,1.34,0,0,1,28.34,50.65Z"/></clipPath><clipPath id="clip-path-16" transform="translate(22.68)"><path class="cls-3" d="M30.64,53a.62.62,0,0,1-.62-.64c0-.54.54-.92,1-1.16a6.93,6.93,0,0,1,1.33-.52,2.83,2.83,0,0,1-1,2A1,1,0,0,1,30.64,53Z"/></clipPath><clipPath id="clip-path-17" transform="translate(22.68)"><path class="cls-3" d="M33.19,54.73a.61.61,0,0,1-.75-.46,1.56,1.56,0,0,1,.7-1.39,8.47,8.47,0,0,1,1.16-.83,2.8,2.8,0,0,1-.49,2.17A1.08,1.08,0,0,1,33.19,54.73Z"/></clipPath><clipPath id="clip-path-18" transform="translate(22.68)"><path class="cls-4" d="M55.39,38.25a.9.9,0,0,1,1.06.73,2.28,2.28,0,0,1-1.14,2A11.67,11.67,0,0,1,53.57,42a4.1,4.1,0,0,1,.88-3.1A1.58,1.58,0,0,1,55.39,38.25Z"/></clipPath><clipPath id="clip-path-19" transform="translate(22.68)"><path class="cls-3" d="M59.7,41.54a.9.9,0,0,1,.46,1.2,2.28,2.28,0,0,1-2,1,11.8,11.8,0,0,1-2.06-.08,4,4,0,0,1,2.49-2A1.48,1.48,0,0,1,59.7,41.54Z"/></clipPath><clipPath id="clip-path-20" transform="translate(22.68)"><path class="cls-3" d="M60.57,44.86a.7.7,0,0,1,.15,1,1.83,1.83,0,0,1-1.75.39,9,9,0,0,1-1.6-.42,3.28,3.28,0,0,1,2.29-1.16A1.18,1.18,0,0,1,60.57,44.86Z"/></clipPath><clipPath id="clip-path-21" transform="translate(22.68)"><path class="cls-5" d="M60.06,49.23a.81.81,0,0,1-.21,1.14,2.06,2.06,0,0,1-2-.22,10.11,10.11,0,0,1-1.57-1,3.7,3.7,0,0,1,2.89-.41A1.36,1.36,0,0,1,60.06,49.23Z"/></clipPath><clipPath id="clip-path-22" transform="translate(22.68)"><path class="cls-3" d="M58.65,52.79a.82.82,0,0,1-.81.84c-.72,0-1.23-.68-1.57-1.31a10.87,10.87,0,0,1-.74-1.72,3.68,3.68,0,0,1,2.64,1.25A1.36,1.36,0,0,1,58.65,52.79Z"/></clipPath><clipPath id="clip-path-23" transform="translate(22.68)"><path class="cls-3" d="M53.16,57.65a.82.82,0,0,1-1.13.28A2,2,0,0,1,51.38,56a10.33,10.33,0,0,1,.28-1.85,3.66,3.66,0,0,1,1.58,2.44A1.4,1.4,0,0,1,53.16,57.65Z"/></clipPath><clipPath id="clip-path-24" transform="translate(22.68)"><path class="cls-3" d="M49,58.45a.66.66,0,0,1-.94-.09,1.65,1.65,0,0,1,0-1.65,8.21,8.21,0,0,1,.72-1.34,3,3,0,0,1,.53,2.3A1.07,1.07,0,0,1,49,58.45Z"/></clipPath><clipPath id="clip-path-25" transform="translate(22.68)"><path class="cls-3" d="M55.57,56a.65.65,0,0,1-.85.35A1.61,1.61,0,0,1,54,54.9a8.13,8.13,0,0,1,0-1.48,2.89,2.89,0,0,1,1.5,1.73A1.05,1.05,0,0,1,55.57,56Z"/></clipPath></defs><g class="cls-6"><g id="Слой_2" data-name="Слой 2"><g id="Layer_1" data-name="Layer 1"><path class="cls-1" d="M9.21,16.15a16.05,16.05,0,0,0-4.4,3.68A20.19,20.19,0,0,0,0,34,18,18,0,0,0,7.09,47.14a23.52,23.52,0,0,0,6.42,3.2,38.89,38.89,0,0,0,25.17-.08,19.74,19.74,0,0,0,4.91-2.38c2.91-2.06,4.87-5.2,6.38-8.43A28.76,28.76,0,0,0,52,33.8a21.65,21.65,0,0,0,.59-4.47,18.31,18.31,0,0,0-8.77-16.11C38.16,9.86,22.53,8.67,9.21,16.15Z" transform="translate(22.68)"/><g class="cls-7"><g class="cls-8"><path class="cls-9" d="M35.72,8.09c.7-3.73-3.79-4.93-6.53-5-5.7-.12-23.4,8-27,12C-4.32,22.61-2.22,34.35.13,43.56c2.48,9.72,18.69,12.62,27.78,16.81,8,3.66,18.76,3.78,26.33-.78,5-3,4.24-10.4-1.92-11.39-3-.47,1.52-4.15-1.49-4.36-2.55-.17-12.23.17-16.31-1.36C24,38.53,24.25,30.9,24.18,28.63c-.08-2.82.17-6.19,1.55-8.7a22.76,22.76,0,0,1,6.38-7.28,10.76,10.76,0,0,0,2.73-2.78c.84-1.43-1.63,1.25,0-.1a2.73,2.73,0,0,0,.89-1.68Z" transform="translate(22.68)"/></g><g class="cls-10"><path class="cls-11" d="M32.49,7.83c.69-3.73-10.24-3.14-13-3.2-5.69-.11-23.4,8-27,12C-14,24.14-11.91,35.88-9.55,45.09-7.07,54.81,9.14,57.71,18.23,61.9c8,3.66,18.76,3.78,26.33-.78,5-3,11.92-13.57,5.76-14.56-3-.48-12.63,1.19-15.63.85C21.1,45.88,17,40.26,16,37.61a27.64,27.64,0,0,1-1.52-7.45c-.09-2.82.73-9.26,2.36-11.63,4.79-7,12.47-9.2,12.59-9.86Z" transform="translate(22.68)"/></g><g class="cls-10"><path class="cls-11" d="M25.23,9.38c.7-3.73-10.24-3.14-13-3.19-5.7-.12-23.4,8-27,12-6.55,7.49-4.45,19.23-2.1,28.44C-14.33,56.36,1.88,59.26,11,63.45c8,3.67,18.76,3.79,26.33-.78,5-3,4.24-10.4-1.92-11.38-3-.48-5.89-.63-8.89-.84A46.51,46.51,0,0,1,19,49.31a14.1,14.1,0,0,1-6.32-3.45c-1.39-1.15-2.94-4-4-6.7a27.86,27.86,0,0,1-1.52-7.45C7.16,28.89,8,22.45,9.6,20.08c4.79-7,12.47-9.19,12.6-9.86Z" transform="translate(22.68)"/></g><g class="cls-10"><path class="cls-11" d="M21.64,9.34c.7-3.73-10.23-3.14-13-3.19-5.7-.12-23.4,8-27,12-6.55,7.48-4.45,19.23-2.1,28.44,2.49,9.71,18.7,12.61,27.78,16.8,8,3.67,18.77,3.78,26.33-.78,5-3,4.24-10.4-1.92-11.39-3-.47-5.88-.63-8.89-.83a46.36,46.36,0,0,1-7.44-1.14,14.13,14.13,0,0,1-6.33-3.45c-1.38-1.15-2.94-4-4-6.7a27.1,27.1,0,0,1-1.52-7.45C3.57,28.85,4.39,22.41,6,20c4.8-7,12.48-9.19,12.6-9.86Z" transform="translate(22.68)"/></g></g><g class="cls-12"><path class="cls-13" d="M21.68,21.13c.69.48,3.32,1.52,4.78,2.32a23.71,23.71,0,0,1,5.69,4.24c.92.92,1.25,3.41,1,4.53-.54,2.67-2.54,5.81-2.27,9.41a6,6,0,0,0,5.83,5.83c7.79.38,11.62-7.31,12.11-14a19.42,19.42,0,0,0-6.55-15.86c-3.82-3.28-10.16-5.75-15.23-4.6-1.87.42-5,1.32-5.9,3.26-.74,1.62-1.21,3.73.52,4.91Z" transform="translate(22.68)"/></g><g class="cls-14"><path class="cls-13" d="M29.74,23.08c2,.48,3.66,1.23,5.81,1.07,2.63-.19,5.93-.63,7.66-2.83a5.43,5.43,0,0,0,1.34-5.05,5.24,5.24,0,0,0-5-3.82c-2.43,0-3.95,1.2-5.95,2.3a19.8,19.8,0,0,1-3.85,1.94c-3.09.85-3.25,5.63,0,6.39Z" transform="translate(22.68)"/></g><g class="cls-14"><path class="cls-15" d="M4.47,29.12c-2.7,4-1.32,10.54,1.49,14.19,3.19,4.13,9.37,7.2,14.54,5.07,2.8-1.16,3.47-4.53.83-6.35s-5.79-2-8.5-3.49-5-6.18-5.51-9c-.27-1.43-2.17-1.4-2.85-.38Z" transform="translate(22.68)"/></g><path class="cls-16" d="M38.36,25.89a9.7,9.7,0,0,0,4.22-.18c2.15-.52,4.51-2.54,4.19-5-.24-1.84-1.34-3.31-3.35-3.35-2.16-.05-3.49,1.37-4.6,3-.28.42-.53.87-.81,1.29.33-.49-.1.1-.17.17a3.38,3.38,0,0,1-.44.4c-1.27,1-.54,3.34,1,3.63Z" transform="translate(22.68)"/><path class="cls-17" d="M5.13,15a15.17,15.17,0,0,1,5.16.3c1.63.39,3,1.25,4.72,1.42,2.44.24,5.84.52,7.56-1.51a1.79,1.79,0,0,0,0-2.48c-2.21-2.4-5.44-.71-8.09.11-1.85.57-4.08.26-6,.52A11.3,11.3,0,0,0,5,14.59a.24.24,0,0,0,.12.44Z" transform="translate(22.68)"/><path class="cls-17" d="M13.54,4.27c-2,5.14,3,7.8,5.94,11,2.17,2.37,5.61-1.63,2.78-3.6a28.3,28.3,0,0,0-4.13-2.4c-1.75-.82-3.39-2.51-3.06-4.58a.8.8,0,0,0-1.53-.43Z" transform="translate(22.68)"/><path class="cls-17" d="M37.27,7.07c-6.63-2.79-11.21,3.39-17.09,4.59-2.95.61-1.36,5.37,1.69,4a42.69,42.69,0,0,0,7-4.33c2.65-1.86,5.59-1.7,8.45-2.86a.73.73,0,0,0,0-1.4Z" transform="translate(22.68)"/><path class="cls-17" d="M34.93,11.86a9.78,9.78,0,0,1-9.17,2.2c-1.75-.46-5.62-2.31-7.11-.43-1.64,2.06,1.21,5,2.93,2.94l.08-.09-1.47.61c3.65-.32,6.8,1.21,10.49.28a7.21,7.21,0,0,0,5.3-4.9.63.63,0,0,0-1-.61Z" transform="translate(22.68)"/><path class="cls-17" d="M12.84,22.13a9.66,9.66,0,0,0,4.81-1.31A14.53,14.53,0,0,0,20,19.33a24.33,24.33,0,0,1,2.17-1.82,2.62,2.62,0,1,0-3.94-2.26c-.2,2.44-3.3,5.12-5.54,5.59-.76.16-.53,1.25.18,1.29Z" transform="translate(22.68)"/><path class="cls-18" d="M25,.14c-3.85,3.4-4.63,8.67-4.35,13.52.17,2.86,4.57,1.82,3.34-.91C22.44,9.28,24.72,4,25.93.67c.2-.55-.53-.86-.91-.53Z" transform="translate(22.68)"/><path class="cls-18" d="M23.94,2.93a2.48,2.48,0,0,0-2.8,1.14,2.7,2.7,0,0,0,0,2.68c1.08,2.16,4.64,1.15,4.53-1.23a3.12,3.12,0,0,0-.09-.74l-.24-.58q.41,1.8.18.36a2.33,2.33,0,0,0-1.59-1.63Z" transform="translate(22.68)"/><path class="cls-18" d="M14.69,9.91A8.12,8.12,0,0,0,20.06,14a.42.42,0,0,0,.32-.77c-1.75-1.27-3.93-1.73-5.26-3.59a.25.25,0,0,0-.43.26Z" transform="translate(22.68)"/><path class="cls-18" d="M36.17,8.39c-3.25-1-7.89,1-10.12,3.36a.45.45,0,0,0,.55.71c1.41-.61,2.71-1.44,4.1-2.1a39.44,39.44,0,0,1,5.47-1.73.12.12,0,0,0,0-.24Z" transform="translate(22.68)"/><path class="cls-18" d="M23.48,16.41c2.76,2.29,7.27,1.48,9.64-1a.42.42,0,0,0-.51-.66c-3,1.62-5.6,2.34-9,1.43-.11,0-.22.13-.12.21Z" transform="translate(22.68)"/><path class="cls-18" d="M16.64,19.33c1.12-1.28,3.06-2.48,3-4.37a.36.36,0,0,0-.67-.18c-.47.72-.81,1.5-1.3,2.21a19,19,0,0,0-1.34,2.13c-.09.17.13.36.27.21Z" transform="translate(22.68)"/><path class="cls-18" d="M11.75,13.71a6.69,6.69,0,0,0,3.43.4c.54-.06,1.07-.19,1.6-.29a26.22,26.22,0,0,1,2.79-.15c.43-.05.74-.69.25-.91-2.55-1.18-5.43,1.13-8.06.9,0,0,0,0,0,.05Z" transform="translate(22.68)"/><path class="cls-19" d="M8.53,14.57c1.06.09,2.09.34,3.14.45.27,0,.3-.37.06-.45a7.67,7.67,0,0,0-3.2-.23.12.12,0,0,0,0,.23Z" transform="translate(22.68)"/><path class="cls-19" d="M10.49,14.09a5.79,5.79,0,0,0,1.5.07.23.23,0,0,0,0-.44,5.79,5.79,0,0,0-1.5.07.15.15,0,0,0,0,.3Z" transform="translate(22.68)"/><path class="cls-19" d="M12.88,15a4.15,4.15,0,0,0,2.86.41.28.28,0,0,0,0-.54A16.12,16.12,0,0,0,13,14.74c-.13,0-.19.2-.07.25Z" transform="translate(22.68)"/><path class="cls-19" d="M14.36,6.6c-.35,1.71,1.8,3.75,3.32,4.1.38.09.78-.43.42-.72-.56-.44-1.16-.82-1.73-1.25s-1.68-1.2-1.77-2.09c0-.13-.21-.18-.24,0Z" transform="translate(22.68)"/><path class="cls-19" d="M24.31,12.19c.52-.91,1.73-1.24,2.55-1.81a.31.31,0,0,0-.23-.56,3.13,3.13,0,0,0-2.45,2.34c0,.07.09.09.13,0Z" transform="translate(22.68)"/><path class="cls-17" d="M22.75,6.53c1.12.53,2.31-.93,1.78-2a.64.64,0,0,0-1.08,0c-.29.43,0,1.31-.64,1.48a.28.28,0,0,0-.06.5Z" transform="translate(22.68)"/><path class="cls-17" d="M22.31,9c-1.19,1.24-.57,3.65.32,4.86a.4.4,0,0,0,.72-.31c-.14-.71-.35-1.4-.5-2.12a14.46,14.46,0,0,1-.17-2.27A.22.22,0,0,0,22.31,9Z" transform="translate(22.68)"/><path class="cls-17" d="M24.23,3.15l-.05.16c0,.1.17.1.13,0l0-.16Z" transform="translate(22.68)"/><path class="cls-17" d="M24.11,3.44c.52-.21.87-1,1.19-1.39.22-.28-.19-.63-.46-.46C24.31,1.9,23.7,2.7,24,3.36a.12.12,0,0,0,.15.08Z" transform="translate(22.68)"/><path class="cls-20" d="M43.53,21.27a2.41,2.41,0,1,0-2.41-2.4,2.42,2.42,0,0,0,2.41,2.4Z" transform="translate(22.68)"/><path class="cls-21" d="M43.4,28.8c-4-1.73-8.45-3.26-12.73-2.3a15.12,15.12,0,0,0-5.2,2.4,20.17,20.17,0,0,0-8.3,12.48,18,18,0,0,0,3.39,14.49,23.14,23.14,0,0,0,5.36,4.75A38.86,38.86,0,0,0,50.25,67.1a19.49,19.49,0,0,0,5.36-1C59,64.85,61.67,62.33,64,59.6a29.63,29.63,0,0,0,3.46-4.92,23,23,0,0,0,1.73-4.16c1.86-6.19.63-13.62-4.28-17.83a15.87,15.87,0,0,0-13.53-3.07,16.09,16.09,0,0,1-3.06.54A11.88,11.88,0,0,1,43.4,28.8Z" transform="translate(22.68)"/><path class="cls-22" d="M40.59,41c-3.87.83-6.92,6-6.75,9.74a7.55,7.55,0,0,0,5.46,7.17c3.7,1,8.36-1.21,9.15-5.19a9.82,9.82,0,0,0,.08-4.38c-.07-.38-.13-.75-.18-1.13.08.63.17,1.26.25,1.89A12.25,12.25,0,0,0,47.18,44a5.93,5.93,0,0,0-6.59-3Z" transform="translate(22.68)"/><g class="cls-23"><path class="cls-24" d="M43,41.53a12,12,0,0,0-.41,1.7c-.1.59-.17,1.19-.23,1.79A5.45,5.45,0,0,0,43,47.75a4.07,4.07,0,0,0,2.57,2,4.32,4.32,0,0,0,3.32-.43c2.3-1.35,3-4.9.88-6.77a9,9,0,0,0-1-.77l-1-.43c.78.34,1,.43.6.24s-.48-.26-.71-.4-.45-.28-.67-.43l-.35-.25c.59.43.21.16.09.06a2.26,2.26,0,0,0-3.72,1Z" transform="translate(22.68)"/></g><g class="cls-23"><path class="cls-24" d="M40.73,39.41c-2-.37-4.6-.42-6,1.38A4.86,4.86,0,0,0,33.39,44,4.48,4.48,0,0,0,41,47.12a6.29,6.29,0,0,0,1.42-2.43c-.14.35-.29.69-.44,1a17.47,17.47,0,0,0,.92-2.44,3.15,3.15,0,0,0-2.2-3.87Z" transform="translate(22.68)"/></g><g class="cls-23"><path class="cls-25" d="M39.37,48.59c1-2.34.15-5.35-.86-7.55s-4.15-2.73-6.08-1.59a4.5,4.5,0,0,0-1.6,6.08c1.06,1.88,1.71,3.88,3.68,5s4.06,0,4.86-2Z" transform="translate(22.68)"/></g><g class="cls-23"><path class="cls-25" d="M43.67,52.46c1.37,1.54,4,1.32,5.72.66a20.37,20.37,0,0,0,2.73-1.24c.54-.29,1-.73,1.51-1.06a5.62,5.62,0,1,0-7.69-7.69A16.37,16.37,0,0,0,45.11,45c-.43,1,.53-1.11,0-.1a8.76,8.76,0,0,1-.56.88c-.66,1,.63-.76-.14.17-1.48,1.82-2.57,4.5-.77,6.51Z" transform="translate(22.68)"/></g><path class="cls-26" d="M45.11,37.75c3.3,1.43,8.49,3.61,10.66,6.63,1.62,2.26.31,5.25-.9,7.28-2,3.41-6.07,2.94-9.4,2.23-7.18-1.52-8.15,9.82-1.29,9.53,10.21-.42,21.43-6.35,20.63-18-.35-5.15-4.35-8.16-8.53-10.34-3.35-1.74-8.26-4.4-11.73-1.65a2.73,2.73,0,0,0,.56,4.29Z" transform="translate(22.68)"/><path class="cls-26" d="M44.85,33.55c-1.55-5.46-8.37-5.1-12.63-3.67-4.92,1.64-8.38,3.82-10.74,8.52-4.82,9.59.93,19.74,10.71,22.91,5.52,1.79,8.45-6.14,3.82-9.06-2.08-1.32-4.85-2-6.42-4.06-1.41-1.82-.59-6.08,1.22-7.42,3.19-2.36,16.18.36,14-7.22Z" transform="translate(22.68)"/><g class="cls-27"><path class="cls-28" d="M44.91,33.15c-1-2.15-1.64-4.33-4.1-5.34a11.26,11.26,0,0,0-8-.27,25.3,25.3,0,0,0-15,11.39c-3.49,6.19-2,12.8,2.73,17.82C24.07,60.5,32,67.26,37.45,64.48a2.6,2.6,0,0,0,.85-4c-1.07-1.5-2.14-1-3.66-2-1.84-1.18-3.94-2.85-5.71-4.14-3.49-2.54-6.72-8.49-5-12.94,1.5-3.82,3.92-5.19,7.46-6.71A23.86,23.86,0,0,1,38,33.59a19.38,19.38,0,0,1,6.2,1.28c.88.45,1-1,.71-1.72Z" transform="translate(22.68)"/><g class="cls-29"><path class="cls-30" d="M44.2,34.87a36.19,36.19,0,0,1,10.68,2.69c3.21,1.3,6.44,5.45,7.08,8.77.76,4-1.31,7.5-4.22,10A10.93,10.93,0,0,1,51.84,59c-.72.09-3.7.72-4.43.73-1.9.05-4.28-.35-5.6.87-2.54,2.34-.23,8,3.68,7.86C57.25,68.05,70.64,61,70.7,47.73A18.31,18.31,0,0,0,62.58,32.6c-4.92-3.41-14.22-4.65-18.46.52a1.41,1.41,0,0,0,.08,1.75Z" transform="translate(22.68)"/></g><path class="cls-31" d="M42,28.26c2.74,2.73,6.62,3.25,10.28,2.85,8.35-.9,12.36,1.5,15,7.91,5.29,12.63-6.22,26.18-18.93,26.81a31.78,31.78,0,0,1-17.85-4.28c-4.87-2.93-9.86-6.06-12.15-11.41-2.67-6.22.8-14.49,5.19-18.09a20.48,20.48,0,0,1,8.7-4.22c5.51-1,9.7,1.45,12.76,2.39,1.32.4-.06-1.57-1.29-2.38C32.5,20.39,16.56,33,14.29,44.15,13,50.46,17.76,55.84,22.22,59.54a38.85,38.85,0,0,0,20.45,9.11c6.76.86,13.22-.25,18.89-4.08a22,22,0,0,0,9.57-17.13,20.28,20.28,0,0,0-8.46-17.27,13.77,13.77,0,0,0-9-2.07c-3.44.38-7.86,1.39-10.94-.64-.51-.33-1.2.35-.74.8Z" transform="translate(22.68)"/><path class="cls-32" d="M41.58,67.92C44.35,65.05,47,62.53,48,58.47a8,8,0,1,0-15.7-2.12,11.79,11.79,0,0,0,1.24,5.09c-.41-1-.45-1.06-.11-.19s.59,1.45.93,2.16c-.6-1.28.85,2.11.79,2a10.6,10.6,0,0,0,1.07,1.85,3.49,3.49,0,0,0,5.41.7Z" transform="translate(22.68)"/></g><g class="cls-23"><path class="cls-33" d="M44.05,30.33c-1.18,1.47-1.33,3.59-2.13,5.3-1.07,2.32-2.76,4.1-4,6.26-1.75,3,2.55,7.07,5.59,5.92,5.79-2.22,3.18-11.93,3.77-16.61H42.46a37.27,37.27,0,0,1-1.12,8.46c-.11.53-.16,1.07-.25,1.61q-.11.54-.24,1.08c-.35.83.15.75,1.49-.24-3-1-4.22,3.66-1.29,4.66s4.24-1.93,4.69-4.22c.73-3.72,1.64-7.54,1.53-11.35-.09-3.19-4.42-3-4.81,0-.51,4,.59,8.2-.65,12.12-.3.42,0,.35.92-.21l-.58-.31c0,1.09.15,1.18.56.27a22.32,22.32,0,0,0,2.17-4c1.16-2.75,2-5.93.27-8.61a.71.71,0,0,0-1.1-.14Z" transform="translate(22.68)"/></g><path class="cls-34" d="M43.9,31.5A19.5,19.5,0,0,0,42.83,34,10.41,10.41,0,0,0,42,36.67c0,.53.62.68,1,.4,1.35-1.13,1.61-3.73,1.66-5.37a.39.39,0,0,0-.72-.2Z" transform="translate(22.68)"/><path class="cls-34" d="M44.83,36c-.72,1.71,0,3.74-1.14,5.31-1,1.36,1,2.51,2.14,1.64,1.8-1.41.33-5.22-.19-6.95a.42.42,0,0,0-.81,0Z" transform="translate(22.68)"/><path class="cls-34" d="M39.83,42.19c-.39.78-.86,1.53-1.2,2.32a1.15,1.15,0,1,0,2.14.58c.06-.81.09-1.6.22-2.41.11-.66-.81-1.18-1.16-.49Z" transform="translate(22.68)"/><path class="cls-35" d="M50.53,46.79c.87.58,4.13,1.37,4.13-.43,0-1-1.09-1.22-1.85-1.06a10.12,10.12,0,0,0-2.28.8.41.41,0,0,0,0,.69Z" transform="translate(22.68)"/><path class="cls-35" d="M48.88,49.91a3.4,3.4,0,0,0,2.27.63,1,1,0,0,0,.77-1,1.08,1.08,0,0,0-.77-1,3.16,3.16,0,0,0-2.1,0,.74.74,0,0,0-.17,1.34Z" transform="translate(22.68)"/><path class="cls-35" d="M51.92,44.2a6,6,0,0,0,.69-.3c1-.59,0-2.26-.91-1.56A3.47,3.47,0,0,0,51,43a.75.75,0,0,0,.91,1.17Z" transform="translate(22.68)"/><path class="cls-35" d="M32.92,42.73a1.78,1.78,0,0,0,1.6,1.2c1,.09,1.33-1.18.74-1.8a1.68,1.68,0,0,0-1.6-.45c-.43.12-.9.56-.74,1Z" transform="translate(22.68)"/><path class="cls-35" d="M33.85,48.12a2.69,2.69,0,0,0,1.44-.18,1.1,1.1,0,0,0,.63-1.2,1.18,1.18,0,0,0-1.17-.8,3.66,3.66,0,0,0-1.36.46c-.9.41-.37,1.67.46,1.72Z" transform="translate(22.68)"/><g class="cls-36"><path class="cls-37" d="M43.39,29.24C39.47,27.55,35.16,26.06,31,27a14.78,14.78,0,0,0-5.08,2.34A19.69,19.69,0,0,0,17.82,41.5a17.58,17.58,0,0,0,3.31,14.13,22.9,22.9,0,0,0,5.22,4.64,38,38,0,0,0,23.71,6.31,18.92,18.92,0,0,0,5.23-1c3.27-1.19,5.91-3.65,8.15-6.31a28.91,28.91,0,0,0,3.37-4.79,21.49,21.49,0,0,0,1.69-4.06c1.82-6,.62-13.28-4.17-17.39a15.48,15.48,0,0,0-13.19-3,16.06,16.06,0,0,1-3,.53A11.61,11.61,0,0,1,43.39,29.24Z" transform="translate(22.68)"/></g><path class="cls-38" d="M39.79,36.65c-3.61-5.29-10.35-2.35-13.38,1.84-3.33,4.63-.74,13.82,5,15.26a1.75,1.75,0,0,0,2.12-2.12c-.48-3.12-3.69-5.32-3-8.66.75-3.55,4.47-2.62,7-2.34,2,.23,3.35-2.43,2.29-4Z" transform="translate(22.68)"/><path class="cls-38" d="M49.7,42c1.48.43,3,.45,4.39,1.14,1.95,1,1.44,3.5,1.19,5.23-.33,2.33-.74,3.6-3,4.57-1.83.77-3.82,1-5.61,1.91A1.19,1.19,0,0,0,46.91,57c6.29,1.67,14-2.21,14.94-9,1-7.15-4.73-13.37-12.15-11.59-2.83.68-2.68,4.79,0,5.55Z" transform="translate(22.68)"/><path class="cls-39" d="M43.05,29.13c1.08,1.4,3.4,2.69,5.08,1.59a.92.92,0,0,0,0-1.57,4.44,4.44,0,0,0-2.33-.75,4.85,4.85,0,0,0-2.48.07c-.24.08-.46.41-.27.66Z" transform="translate(22.68)"/><path class="cls-3" d="M51.18,37.13a.89.89,0,0,1,1.23.35A2.26,2.26,0,0,1,52,39.69a11.76,11.76,0,0,1-1.29,1.62,4.1,4.1,0,0,1-.17-3.22A1.55,1.55,0,0,1,51.18,37.13Z" transform="translate(22.68)"/><g class="cls-40"><g class="cls-41"><path class="cls-42" d="M50.7,40.89a4.7,4.7,0,0,0,.94-1.58,5.23,5.23,0,0,0,.45-1.85,1,1,0,0,0-2-.07c-.14,1.09,0,2.19-.14,3.28,0,.42.5.48.71.22Z" transform="translate(22.68)"/></g></g><g class="cls-43"><path class="cls-20" d="M51.1,39.38a5.09,5.09,0,0,0,.6-1.54c0-.31-.33-.41-.55-.32-.71.32-.54,1.1-.5,1.74,0,.22.34.36.45.12Z" transform="translate(22.68)"/></g><path class="cls-3" d="M38.6,35.34a.89.89,0,0,1,1.28,0A2.27,2.27,0,0,1,40,37.65a11.81,11.81,0,0,1-.88,1.87,4.07,4.07,0,0,1-.9-3.1A1.47,1.47,0,0,1,38.6,35.34Z" transform="translate(22.68)"/><g class="cls-44"><g class="cls-41"><path class="cls-42" d="M39,39.11a5,5,0,0,0,.55-1.75,5.11,5.11,0,0,0,0-1.91,1,1,0,0,0-1.93.38c.12,1.1.48,2.14.62,3.22,0,.42.59.36.74.06Z" transform="translate(22.68)"/></g></g><g class="cls-43"><path class="cls-20" d="M39,37.54A4.57,4.57,0,0,0,39.27,36c0-.23-.3-.5-.54-.31-.67.52-.37,1.17-.16,1.86a.24.24,0,0,0,.46,0Z" transform="translate(22.68)"/></g><path class="cls-3" d="M34.91,35.42A.79.79,0,0,1,36,35.3a2,2,0,0,1,.35,1.93A10.41,10.41,0,0,1,35.87,39a3.55,3.55,0,0,1-1.18-2.55A1.3,1.3,0,0,1,34.91,35.42Z" transform="translate(22.68)"/><g class="cls-45"><g class="cls-41"><path class="cls-42" d="M35.75,38.61A4.25,4.25,0,0,0,36,37a4.61,4.61,0,0,0-.23-1.65.86.86,0,0,0-1.61.59c.24.93.69,1.77,1,2.69.1.36.56.23.65,0Z" transform="translate(22.68)"/></g></g><g class="cls-43"><path class="cls-20" d="M35.61,37.23a3.11,3.11,0,0,0,0-1.39.37.37,0,0,0-.61-.16c-.56.5-.13,1.15.16,1.67.12.23.42.1.44-.12Z" transform="translate(22.68)"/></g><g class="cls-46"><path class="cls-3" d="M29.21,37.17a.6.6,0,0,1,.71-.49c.52.11.8.66.95,1.17a7.84,7.84,0,0,1,.29,1.36,2.72,2.72,0,0,1-1.73-1.29A1,1,0,0,1,29.21,37.17Z" transform="translate(22.68)"/><g class="cls-47"><g class="cls-41"><path class="cls-42" d="M31,39a3.42,3.42,0,0,0-.41-1.16,3.7,3.7,0,0,0-.77-1,.66.66,0,0,0-.87,1c.5.54,1.12,1,1.63,1.47.2.2.46,0,.42-.27Z" transform="translate(22.68)"/></g></g><g class="cls-43"><path class="cls-20" d="M30.42,38.16c-.13-.38-.19-.89-.59-1.08a.37.37,0,0,0-.5.13c-.39.61.29,1,.74,1.22a.24.24,0,0,0,.35-.27Z" transform="translate(22.68)"/></g></g><g class="cls-46"><path class="cls-3" d="M58,39.62a.59.59,0,0,1,.56.65c-.05.53-.58.86-1.06,1.07a8.84,8.84,0,0,1-1.32.43,2.71,2.71,0,0,1,1.09-1.86A1,1,0,0,1,58,39.62Z" transform="translate(22.68)"/><g class="cls-48"><g class="cls-41"><path class="cls-42" d="M56.3,41.54A3.25,3.25,0,0,0,57.41,41a3.4,3.4,0,0,0,.94-.87.66.66,0,0,0-1.07-.77c-.49.56-.82,1.22-1.29,1.78-.18.22.1.45.31.39Z" transform="translate(22.68)"/></g></g><g class="cls-43"><path class="cls-20" d="M57.13,40.91c.41-.19.84-.29,1-.74a.35.35,0,0,0-.17-.41c-.69-.35-1,.36-1.19.88-.09.22.19.34.35.27Z" transform="translate(22.68)"/></g></g><g class="cls-10"><path class="cls-3" d="M60.44,47.5a.6.6,0,0,1-.26.82A1.52,1.52,0,0,1,58.71,48a8.35,8.35,0,0,1-1.06-.91,2.75,2.75,0,0,1,2.16,0A1,1,0,0,1,60.44,47.5Z" transform="translate(22.68)"/><g class="cls-49"><g class="cls-41"><path class="cls-42" d="M57.94,47.08a3.06,3.06,0,0,0,1,.67,3.49,3.49,0,0,0,1.23.36.66.66,0,0,0,.09-1.32c-.73-.12-1.46-.07-2.19-.17-.28,0-.33.31-.16.46Z" transform="translate(22.68)"/></g></g><g class="cls-43"><path class="cls-20" d="M58.9,47.46c.36.25.69.57,1.16.48a.35.35,0,0,0,.26-.35c-.06-.77-.8-.66-1.37-.57-.22,0-.2.34-.05.44Z" transform="translate(22.68)"/></g></g><g class="cls-10"><path class="cls-3" d="M27.52,48.32a.61.61,0,0,1-.33-.8,1.53,1.53,0,0,1,1.35-.68,7.17,7.17,0,0,1,1.39,0,2.76,2.76,0,0,1-1.63,1.42A1,1,0,0,1,27.52,48.32Z" transform="translate(22.68)"/><g class="cls-50"><g class="cls-41"><path class="cls-42" d="M29.7,47a3.36,3.36,0,0,0-1.22.16,3.55,3.55,0,0,0-1.17.53.66.66,0,0,0,.78,1.06c.64-.38,1.16-.89,1.78-1.28.25-.16.05-.46-.17-.47Z" transform="translate(22.68)"/></g></g><g class="cls-43"><path class="cls-20" d="M28.76,47.35c-.4,0-.91,0-1.19.33a.38.38,0,0,0,0,.52c.52.51,1,0,1.36-.45.12-.14.06-.43-.17-.4Z" transform="translate(22.68)"/></g></g><g class="cls-10"><path class="cls-3" d="M56.71,54.33a.6.6,0,0,1-.78.37,1.54,1.54,0,0,1-.74-1.32,8,8,0,0,1,0-1.39,2.77,2.77,0,0,1,1.49,1.57A1,1,0,0,1,56.71,54.33Z" transform="translate(22.68)"/><g class="cls-51"><g class="cls-41"><path class="cls-42" d="M55.31,52.22a3.27,3.27,0,0,0,.22,1.2,3.44,3.44,0,0,0,.57,1.15.66.66,0,0,0,1-.83c-.4-.61-.94-1.12-1.36-1.72-.16-.24-.46,0-.46.2Z" transform="translate(22.68)"/></g></g><g class="cls-43"><path class="cls-20" d="M55.7,53.19c.06.44,0,.88.44,1.17a.36.36,0,0,0,.44-.06c.5-.55,0-1-.49-1.34a.23.23,0,0,0-.39.23Z" transform="translate(22.68)"/></g></g><g class="cls-52"><path class="cls-3" d="M30.89,36.32a.77.77,0,0,1,1-.49c.65.23.9,1,1,1.69a9.84,9.84,0,0,1,.11,1.8,3.55,3.55,0,0,1-2-2A1.27,1.27,0,0,1,30.89,36.32Z" transform="translate(22.68)"/><g class="cls-53"><g class="cls-41"><path class="cls-42" d="M32.77,39a4.38,4.38,0,0,0-.31-1.56A4.64,4.64,0,0,0,31.67,36a.86.86,0,0,0-1.31,1.1c.54.79,1.26,1.43,1.82,2.2.22.3.6,0,.59-.27Z" transform="translate(22.68)"/></g></g><g class="cls-43"><path class="cls-20" d="M32.17,37.81a3.34,3.34,0,0,0-.51-1.38.36.36,0,0,0-.57.08c-.38.68.22,1.11.68,1.53a.24.24,0,0,0,.4-.23Z" transform="translate(22.68)"/></g></g><path class="cls-3" d="M27.27,39.54a.78.78,0,0,1,.46-1,2,2,0,0,1,1.85.67,9.62,9.62,0,0,1,1.23,1.32,3.56,3.56,0,0,1-2.8-.28A1.31,1.31,0,0,1,27.27,39.54Z" transform="translate(22.68)"/><g class="cls-54"><g class="cls-41"><path class="cls-42" d="M30.45,40.44a4.51,4.51,0,0,0-1.24-1,4.6,4.6,0,0,0-1.54-.63.85.85,0,0,0-.31,1.68c.92.27,1.88.31,2.81.55.35.09.47-.36.28-.58Z" transform="translate(22.68)"/></g></g><g class="cls-43"><path class="cls-20" d="M29.19,39.85A3.23,3.23,0,0,0,28,39.14a.37.37,0,0,0-.45.45c.14.75.93.68,1.52.71.26,0,.3-.32.12-.45Z" transform="translate(22.68)"/></g><g class="cls-52"><path class="cls-3" d="M26.15,43.77a.78.78,0,0,1-.1-1.11A2,2,0,0,1,28,42.35a10.43,10.43,0,0,1,1.72.55A3.53,3.53,0,0,1,27.14,44,1.3,1.3,0,0,1,26.15,43.77Z" transform="translate(22.68)"/><g class="cls-55"><g class="cls-41"><path class="cls-42" d="M29.36,43a4.23,4.23,0,0,0-1.57-.28,4.65,4.65,0,0,0-1.66.2.86.86,0,0,0,.55,1.62c.94-.22,1.79-.65,2.72-.89.36-.09.24-.55,0-.65Z" transform="translate(22.68)"/></g></g><g class="cls-43"><path class="cls-20" d="M28,43.12a3.16,3.16,0,0,0-1.4,0,.38.38,0,0,0-.16.61c.49.57,1.15.14,1.68-.13.23-.12.09-.42-.12-.44Z" transform="translate(22.68)"/></g></g><path class="cls-4" d="M26.34,46.33a.78.78,0,0,1-.2-1.1A2,2,0,0,1,28,44.72a9.8,9.8,0,0,1,1.77.38,3.55,3.55,0,0,1-2.45,1.37A1.32,1.32,0,0,1,26.34,46.33Z" transform="translate(22.68)"/><g class="cls-56"><g class="cls-41"><path class="cls-57" d="M29.46,45.25a4.26,4.26,0,0,0-1.59-.13,4.56,4.56,0,0,0-1.63.37A.86.86,0,0,0,27,47.05c.91-.32,1.72-.83,2.61-1.17.35-.12.19-.56-.1-.63Z" transform="translate(22.68)"/></g></g><g class="cls-43"><path class="cls-20" d="M28.12,45.49a3,3,0,0,0-1.47.13.36.36,0,0,0-.07.57c.56.54,1.14.08,1.66-.26a.24.24,0,0,0-.12-.44Z" transform="translate(22.68)"/></g><path class="cls-5" d="M28.34,50.65a.79.79,0,0,1-.58-1c.19-.67.94-1,1.61-1.13a9.89,9.89,0,0,1,1.79-.25,3.57,3.57,0,0,1-1.83,2.13A1.34,1.34,0,0,1,28.34,50.65Z" transform="translate(22.68)"/><g class="cls-58"><g class="cls-41"><path class="cls-59" d="M30.89,48.56a4.48,4.48,0,0,0-1.53.43,4.71,4.71,0,0,0-1.41.9.86.86,0,0,0,1.2,1.22c.75-.6,1.33-1.36,2.06-2,.28-.24,0-.6-.32-.57Z" transform="translate(22.68)"/></g></g><g class="cls-43"><path class="cls-20" d="M29.73,49.24a3.37,3.37,0,0,0-1.33.61.37.37,0,0,0,.08.57c.75.34,1.12-.3,1.52-.83.13-.16-.08-.41-.27-.35Z" transform="translate(22.68)"/></g><path class="cls-3" d="M30.64,53a.62.62,0,0,1-.62-.64c0-.54.54-.92,1-1.16a6.93,6.93,0,0,1,1.33-.52,2.83,2.83,0,0,1-1,2A1,1,0,0,1,30.64,53Z" transform="translate(22.68)"/><g class="cls-60"><g class="cls-41"><path class="cls-42" d="M32.22,51a3.23,3.23,0,0,0-1.1.62,3.47,3.47,0,0,0-.92,1,.68.68,0,0,0,1.15.71c.46-.6.77-1.29,1.22-1.9.17-.24-.13-.46-.35-.38Z" transform="translate(22.68)"/></g></g><g class="cls-43"><path class="cls-20" d="M31.42,51.65c-.39.21-.83.35-1,.8a.37.37,0,0,0,.25.45c.67.27.92-.51,1.08-1,.08-.21-.17-.36-.35-.27Z" transform="translate(22.68)"/></g><path class="cls-3" d="M33.19,54.73a.61.61,0,0,1-.75-.46,1.56,1.56,0,0,1,.7-1.39,8.47,8.47,0,0,1,1.16-.83,2.8,2.8,0,0,1-.49,2.17A1.08,1.08,0,0,1,33.19,54.73Z" transform="translate(22.68)"/><g class="cls-61"><g class="cls-41"><path class="cls-42" d="M34.21,52.33a3.25,3.25,0,0,0-.91.86,3.9,3.9,0,0,0-.66,1.15.68.68,0,0,0,1.3.41c.29-.7.42-1.44.7-2.15.11-.27-.23-.41-.43-.27Z" transform="translate(22.68)"/></g></g><g class="cls-43"><path class="cls-20" d="M33.61,53.2c-.33.3-.71.55-.75,1,0,.21.18.34.36.36.72.09.76-.72.8-1.22,0-.22-.27-.3-.41-.17Z" transform="translate(22.68)"/></g><path class="cls-4" d="M55.39,38.25a.9.9,0,0,1,1.06.73,2.28,2.28,0,0,1-1.14,2A11.67,11.67,0,0,1,53.57,42a4.1,4.1,0,0,1,.88-3.1A1.58,1.58,0,0,1,55.39,38.25Z" transform="translate(22.68)"/><g class="cls-62"><g class="cls-41"><path class="cls-57" d="M53.72,41.65a4.81,4.81,0,0,0,1.4-1.18,5.42,5.42,0,0,0,1-1.61,1,1,0,0,0-1.84-.7c-.49,1-.73,2.06-1.2,3.05-.18.39.31.62.6.44Z" transform="translate(22.68)"/></g></g><g class="cls-43"><path class="cls-20" d="M54.6,40.34a5.23,5.23,0,0,0,1-1.18c.1-.23,0-.57-.32-.55-.84.07-.93.82-1.11,1.5a.24.24,0,0,0,.4.23Z" transform="translate(22.68)"/></g><path class="cls-3" d="M59.7,41.54a.9.9,0,0,1,.46,1.2,2.28,2.28,0,0,1-2,1,11.8,11.8,0,0,1-2.06-.08,4,4,0,0,1,2.49-2A1.48,1.48,0,0,1,59.7,41.54Z" transform="translate(22.68)"/><g class="cls-63"><g class="cls-41"><path class="cls-42" d="M56.39,43.38a4.9,4.9,0,0,0,1.83-.17A5.41,5.41,0,0,0,60,42.47a1,1,0,0,0-1.12-1.62c-1,.53-1.77,1.28-2.72,1.83-.36.22-.09.68.24.7Z" transform="translate(22.68)"/></g></g><g class="cls-43"><path class="cls-20" d="M57.88,42.81a5,5,0,0,0,1.53-.41.36.36,0,0,0,0-.62c-.72-.42-1.24.19-1.76.63-.2.16,0,.44.23.4Z" transform="translate(22.68)"/></g><path class="cls-3" d="M60.57,44.86a.7.7,0,0,1,.15,1,1.83,1.83,0,0,1-1.75.39,9,9,0,0,1-1.6-.42,3.28,3.28,0,0,1,2.29-1.16A1.18,1.18,0,0,1,60.57,44.86Z" transform="translate(22.68)"/><g class="cls-64"><g class="cls-41"><path class="cls-42" d="M57.69,45.72a3.7,3.7,0,0,0,1.44.17,4,4,0,0,0,1.5-.26.78.78,0,0,0-.58-1.45c-.84.25-1.6.69-2.43,1-.33.11-.19.52.07.59Z" transform="translate(22.68)"/></g></g><g class="cls-43"><path class="cls-20" d="M58.93,45.57a2.33,2.33,0,0,0,1.36-.06.37.37,0,0,0,.08-.57c-.47-.55-1.09-.11-1.56.19a.24.24,0,0,0,.12.44Z" transform="translate(22.68)"/></g><path class="cls-5" d="M60.06,49.23a.81.81,0,0,1-.21,1.14,2.06,2.06,0,0,1-2-.22,10.11,10.11,0,0,1-1.57-1,3.7,3.7,0,0,1,2.89-.41A1.36,1.36,0,0,1,60.06,49.23Z" transform="translate(22.68)"/><g class="cls-65"><g class="cls-41"><path class="cls-59" d="M56.63,49.11a4.41,4.41,0,0,0,1.5.71,4.56,4.56,0,0,0,1.71.26.89.89,0,0,0-.1-1.78c-1,0-2,.16-3,.15-.38,0-.39.48-.14.66Z" transform="translate(22.68)"/></g></g><g class="cls-43"><path class="cls-20" d="M58.05,49.38a3.44,3.44,0,0,0,1.38.41.37.37,0,0,0,.32-.54c-.34-.7-1.1-.45-1.7-.33-.26,0-.2.38,0,.46Z" transform="translate(22.68)"/></g><g class="cls-52"><path class="cls-3" d="M58.65,52.79a.82.82,0,0,1-.81.84c-.72,0-1.23-.68-1.57-1.31a10.87,10.87,0,0,1-.74-1.72,3.68,3.68,0,0,1,2.64,1.25A1.36,1.36,0,0,1,58.65,52.79Z" transform="translate(22.68)"/><g class="cls-66"><g class="cls-41"><path class="cls-42" d="M55.86,50.79a4.41,4.41,0,0,0,.85,1.43A4.87,4.87,0,0,0,58,53.38a.89.89,0,0,0,.9-1.54c-.81-.58-1.73-1-2.55-1.51-.32-.22-.59.18-.48.46Z" transform="translate(22.68)"/></g></g><g class="cls-43"><path class="cls-20" d="M56.87,51.77a3.58,3.58,0,0,0,1,1.15.37.37,0,0,0,.54-.21c.11-.81-.55-1-1.18-1.27-.19-.08-.48.11-.32.33Z" transform="translate(22.68)"/></g></g><g class="cls-52"><path class="cls-3" d="M53.16,57.65a.82.82,0,0,1-1.13.28A2,2,0,0,1,51.38,56a10.33,10.33,0,0,1,.28-1.85,3.66,3.66,0,0,1,1.58,2.44A1.4,1.4,0,0,1,53.16,57.65Z" transform="translate(22.68)"/><g class="cls-67"><g class="cls-41"><path class="cls-42" d="M51.83,54.48a4.63,4.63,0,0,0,0,1.66,4.8,4.8,0,0,0,.48,1.67A.89.89,0,0,0,53.86,57c-.38-.92-1-1.73-1.37-2.63-.16-.36-.6-.16-.66.14Z" transform="translate(22.68)"/></g></g><g class="cls-43"><path class="cls-20" d="M52.18,55.84a3.65,3.65,0,0,0,.22,1.51.36.36,0,0,0,.57.07c.51-.63,0-1.15-.35-1.7-.12-.17-.46-.13-.44.12Z" transform="translate(22.68)"/></g></g><path class="cls-3" d="M49,58.45a.66.66,0,0,1-.94-.09,1.65,1.65,0,0,1,0-1.65,8.21,8.21,0,0,1,.72-1.34,3,3,0,0,1,.53,2.3A1.07,1.07,0,0,1,49,58.45Z" transform="translate(22.68)"/><g class="cls-68"><g class="cls-41"><path class="cls-42" d="M48.84,55.68a3.58,3.58,0,0,0-.47,1.25,3.9,3.9,0,0,0-.1,1.4.72.72,0,0,0,1.43-.2c0-.81-.26-1.58-.32-2.39,0-.31-.42-.28-.54-.06Z" transform="translate(22.68)"/></g></g><g class="cls-43"><path class="cls-20" d="M48.68,56.81c-.14.4-.4.82-.26,1.25a.37.37,0,0,0,.45.25c.7-.29.48-.93.27-1.5a.24.24,0,0,0-.46,0Z" transform="translate(22.68)"/></g><path class="cls-3" d="M55.57,56a.65.65,0,0,1-.85.35A1.61,1.61,0,0,1,54,54.9a8.13,8.13,0,0,1,0-1.48,2.89,2.89,0,0,1,1.5,1.73A1.05,1.05,0,0,1,55.57,56Z" transform="translate(22.68)"/><g class="cls-69"><g class="cls-41"><path class="cls-42" d="M54.18,53.67A3.56,3.56,0,0,0,54.35,55a3.76,3.76,0,0,0,.56,1.24A.7.7,0,0,0,56,55.37c-.4-.67-.95-1.23-1.37-1.89-.16-.26-.48,0-.49.19Z" transform="translate(22.68)"/></g></g><g class="cls-43"><path class="cls-20" d="M54.55,54.66c.06.42,0,.94.36,1.25a.37.37,0,0,0,.51,0c.5-.57,0-1-.46-1.42-.14-.12-.44-.06-.41.17Z" transform="translate(22.68)"/></g><path class="cls-70" d="M40.25,54.09c-.57,2.17-1.38,4.27-2,6.41-.53,1.75-1.52,3.94-.09,5.42a1,1,0,0,0,1.38,0C41,64.78,40.67,62.21,41,60.5a26.15,26.15,0,0,0,.52-6.24.65.65,0,0,0-1.27-.17Z" transform="translate(22.68)"/><path class="cls-70" d="M37.8,58.21c-.64,1.48-1.59,3.21-1.34,4.87,0,.29.49.26.55,0,.18-.73.25-1.48.44-2.21a25.29,25.29,0,0,1,.85-2.45c.11-.29-.38-.5-.5-.21Z" transform="translate(22.68)"/><path class="cls-70" d="M42,62.41a16.49,16.49,0,0,1-1.35,2.39.29.29,0,0,0,.46.35,6.73,6.73,0,0,0,1.4-2.52c.11-.3-.38-.51-.51-.22Z" transform="translate(22.68)"/><path class="cls-70" d="M42.41,36.21c.14-.34.29-.66.4-1a.73.73,0,0,0-.19-.7l-.07-.07a.59.59,0,0,0-.68-.09l-.11,0a.71.71,0,0,0-.35.62,7.22,7.22,0,0,0,0,.93c0,.48.76.79,1,.27Z" transform="translate(22.68)"/><path class="cls-70" d="M47.61,36.65a.36.36,0,0,0-.43.57c.37.38.89-.3.43-.57Z" transform="translate(22.68)"/><path class="cls-71" d="M56.6,53c0,.58.36,1.2,1,1.09a.38.38,0,0,0,.27-.46c-.12-.3-.41-.43-.48-.74a.41.41,0,0,0-.8.11Z" transform="translate(22.68)"/><path class="cls-71" d="M55.66,56a.63.63,0,0,0,.16.46.33.33,0,0,0,.47,0,.58.58,0,0,0,.19-.35c.13-.62-.84-.7-.82-.11Z" transform="translate(22.68)"/><path class="cls-71" d="M57.29,39c.39,0,.67-.11.8-.5a.33.33,0,0,0-.41-.4c-.24.09-.33.24-.53.37a.29.29,0,0,0,.14.53Z" transform="translate(22.68)"/><path class="cls-71" d="M30.59,46.7l0,0c-.55.25-.14,1,.38.91H31a.46.46,0,0,0,.2-.76.52.52,0,0,0-.63-.16Z" transform="translate(22.68)"/><path class="cls-71" d="M25.15,50.32a1.84,1.84,0,0,0,.71,1.25.29.29,0,0,0,.4-.4,9,9,0,0,1-.58-1,.28.28,0,0,0-.53.15Z" transform="translate(22.68)"/><path class="cls-71" d="M27.73,36.46a.84.84,0,0,0,1-.34c.16-.21-.06-.52-.3-.51a2.28,2.28,0,0,1-.45,0c-.58-.13-.83.76-.24.89Z" transform="translate(22.68)"/><path class="cls-71" d="M41.64,35.58s0,0,0,0,0,0,0,0Z" transform="translate(22.68)"/><path class="cls-71" d="M54.89,38.36a.69.69,0,0,0,.62-.46c.06-.16-.12-.27-.25-.25a1.06,1.06,0,0,0-.58.35c-.17.16,0,.39.21.36Z" transform="translate(22.68)"/><g class="cls-36"><path class="cls-72" d="M42.5,40.46A8,8,0,0,0,39.85,44c-.77,1.68-1.42,3.7-.77,5.51s3.16,2.91,4.66,1.23c2.19-2.47,2-6.94.62-9.76a1.35,1.35,0,0,0-1.86-.49Z" transform="translate(22.68)"/></g></g></g></g></svg>