<svg xmlns="http://www.w3.org/2000/svg" viewBox="0 0 121.85 108.57"><defs><style>.cls-1{fill:#5e2b29;}.cls-2{fill:#4d2220;}.cls-3{fill:#6f3432;}.cls-4{fill:#522422;}.cls-5{fill:#995849;}.cls-6{fill:#b07264;}.cls-7{fill:#a76050;}.cls-8{fill:#944a3b;}.cls-9{fill:#f9d8c2;}.cls-10{fill:#e6be9c;}.cls-11{fill:#c47e70;}.cls-12{fill:#f9efe0;}.cls-13{fill:#fff;}.cls-14{fill:#f0e9e4;}.cls-15{fill:#491b04;}.cls-16{fill:#763735;}</style></defs><g id="Слой_2" data-name="Слой 2"><g id="animal"><g id="beaver"><path class="cls-1" d="M83.29,64.36a.91.91,0,0,0,.11-.16,2.48,2.48,0,0,0,.21-1A7.18,7.18,0,0,1,84.53,60c.48-.83,1.57-1.5,1.82-2.39a10.05,10.05,0,0,0,.2-1.65A4.48,4.48,0,0,1,89,52.61a7.62,7.62,0,0,1,.51-5.7,8,8,0,0,1,1.34-7.68,7.49,7.49,0,0,1-.27-6.76C91,31.58,92,30.22,92,29.22a1.91,1.91,0,0,0-.1-.58,10.73,10.73,0,0,1,.26-5.7,15.7,15.7,0,0,1,2.39-4.44c.7-1.06.5-2.8,1-4.05A8.4,8.4,0,0,1,97.74,11a6.81,6.81,0,0,1,3-1.4c.74-.15,1.56,0,2.32-.1a5.73,5.73,0,0,0,.9-.25,7.52,7.52,0,0,1,4.62-.09,5.9,5.9,0,0,1,2.23,1.33c.33.33.54.75.86,1.09.57.61.45.48,1.36.62a6.73,6.73,0,0,1,4.76,3.34,10.17,10.17,0,0,1,1.31,3.62c.2,1.23,0,2.24.76,3.22A6.21,6.21,0,0,1,121,26.8c0,.76-.18,1.51-.25,2.26-.09,1.08.36,1.17.84,2.06.6,1.11.18,2.57,0,3.77a9.88,9.88,0,0,1-.66,2.55,16.46,16.46,0,0,0-1.17,2.09A10.11,10.11,0,0,1,120,45a12.23,12.23,0,0,1-1,2.22,6.89,6.89,0,0,0-.22,2.18,8.3,8.3,0,0,1-1.59,3.67,10.38,10.38,0,0,1-1.85,2.36.6.6,0,0,0-.3.62c0,2-.07,4.7-1.51,6.27-.27.28-2.64,2.26-2.63,1.3a9.79,9.79,0,0,1-2.7,6.66,4.43,4.43,0,0,1-3.5,1.61,8.14,8.14,0,0,1-5,6.25,2.2,2.2,0,0,1-1.72.1,7.45,7.45,0,0,1-8.29,5.88c-.73-.1-1,.57-1.58.89a4.83,4.83,0,0,1-2.09.42,5.45,5.45,0,0,1-3.59-1c-1.86-1.68-1.77-6-1.8-8.28a28.15,28.15,0,0,1,.46-5.8c.18-.88.4-1.7.49-2.56a4,4,0,0,1,1.21-2.91A5.16,5.16,0,0,0,83.29,64.36Z"/><path class="cls-2" d="M87,74.62c.27-.34.38-.52.64-.85a7.28,7.28,0,0,1,4.73-2.87l-.18.24a6,6,0,0,1,5.49-7l-.18.27A8.07,8.07,0,0,1,101,55.75l-.08.26a5.59,5.59,0,0,1,0-4.27,5.34,5.34,0,0,1,.52-1,8,8,0,0,1,2.34-2.34l-.21.3a10.2,10.2,0,0,1-.68-5.14,3.89,3.89,0,0,1,.1-.4,1.74,1.74,0,0,1,.11-.25c.44-.78,2.1-3.44,2.53-2.57l-.44.17a9.1,9.1,0,0,1,.34-8.5,7.69,7.69,0,0,1,1.24-1.61l0,.22a7.84,7.84,0,0,1,2.4-9.2l-.06.25c-1.87-3.43-.3-8.11,2.78-9.68a.23.23,0,0,1,.26.38,8.21,8.21,0,0,0-.89.88,8.73,8.73,0,0,0-1.72,8.26.24.24,0,0,1-.06.25,8.57,8.57,0,0,0-2.26,8.71.25.25,0,0,1-.05.22l-.38.51a9.58,9.58,0,0,0-1.52,3.49,10.78,10.78,0,0,0-.16,3.49,13.22,13.22,0,0,0,.35,1.54,1,1,0,0,1-.23,1.15,8.37,8.37,0,0,0-.62.85,11.28,11.28,0,0,0-1,1.64l0,0a10.93,10.93,0,0,0,.45,5.16l-.21.3s.12-.05,0,0l-.26.26c-.34.34-.7.77-1,1.14a8.52,8.52,0,0,0-.85,1.24,5.83,5.83,0,0,0-.38,4.32.23.23,0,0,1-.08.26l-.45.36A8.64,8.64,0,0,0,98,64.31a.26.26,0,0,1-.19.27c-3.72.89,3.71-.93,0,0a6.48,6.48,0,0,0-5.11,6.53.23.23,0,0,1-.18.24,8.31,8.31,0,0,0-4.66,3.25,6,6,0,0,0-1.48,2.14.23.23,0,0,1-.45-.11A4.16,4.16,0,0,1,87,74.62Z"/><path class="cls-2" d="M103.58,9.82c-.12.13-.26.27-.38.41a10.89,10.89,0,0,0-2.26,7.69.29.29,0,0,0,0,.16,14.55,14.55,0,0,0-1.62,3.51,15.55,15.55,0,0,0-.61,3.05,15.32,15.32,0,0,0,0,3.1c.13.94.07.59.25,1.53,0,0,.19.75.19.76a.19.19,0,0,1,0,.18,11.62,11.62,0,0,0-1,1.9,13.53,13.53,0,0,0-.6,2c-.07.35-.13.69-.17,1,0,.18,0,.36,0,.53a4.7,4.7,0,0,0,0,.53,9.21,9.21,0,0,0,0,1l.07.53.11.51.14.5c0,.17.12.33.18.49l0,.06v0l0,.06h0a10.73,10.73,0,0,1-.82,2,6.82,6.82,0,0,0-.4,1,17.9,17.9,0,0,0-.52,2.07c-.07.34-.12.69-.16,1a3.13,3.13,0,0,0,0,1h0a.2.2,0,0,1,0,.17l-.07.16-.06.18-.09.38a7.14,7.14,0,0,0-.11.79,12.52,12.52,0,0,0,0,1.62,10.85,10.85,0,0,0,.17,1.61,9,9,0,0,0,.39,1.57l-.44.16a.23.23,0,0,0,.11.11l.08,0h.06l-.07.06-.16.15c-.29.29-.66.71-.93,1-.42.5-.58.69-.87,1.08a5.76,5.76,0,0,0-.67,3.89.23.23,0,0,1-.14.25,9.89,9.89,0,0,0-1.69.89,9.38,9.38,0,0,0-4.12,6.88.21.21,0,0,1-.1.16L84.88,69.6a.23.23,0,0,1-.28-.37L87,67.37l-.09.17A8.64,8.64,0,0,1,93,59.38l-.15.24h0a6.13,6.13,0,0,1,.15-3.4,3.07,3.07,0,0,1,.79-1.3,15.35,15.35,0,0,1,1.28-1.4c.11-.11.23-.21.36-.32l.2-.16.12-.08.09-.05H96a.14.14,0,0,1,.11,0,.27.27,0,0,1,.12.14l-.44.15a7.76,7.76,0,0,1-.52-1.62c-.06-.28-.09-.56-.13-.84a7.83,7.83,0,0,1,.5-4.22l0,.18c-.87-2.64,1.39-6.56,1.62-7.18a.12.12,0,0,0,0,.1v-.05c0,.06,0-.12,0,.12A10.88,10.88,0,0,1,98.72,30l0,.19A12.8,12.8,0,0,1,98,27a13.58,13.58,0,0,1,.09-3.23,13,13,0,0,1,2.41-5.94l0,.15a6.22,6.22,0,0,1-.29-3.54,7.93,7.93,0,0,1,2.09-4.23,4.25,4.25,0,0,1,1-.71c.18-.11.3-.07.37.05A.23.23,0,0,1,103.58,9.82Z"/><path class="cls-2" d="M101.15,17.88h0l-.27,0c3.17-3.16,8.92-.43,8.31,3.94l-.31-.16h0c2.14-2.39,8.92.65,8.68,6.47l-.13-.18h0c2.38.22,5,2.78,4.15,5.57a.19.19,0,1,1-.37-.07c.48-2.46-1.54-4.33-3.91-5.13a.17.17,0,0,0-.13-.18c-.18-5.19-6-7.87-8-6.18-3.06,2.29,3-2.31,0,0a.2.2,0,0,0-.31-.17,3.9,3.9,0,0,0-1.08-3,5.06,5.06,0,0,0-5.47-1.26,4.75,4.75,0,0,0-1.15.63.19.19,0,0,1-.27,0c-1-1.37-4-.76-5.47,0a3.09,3.09,0,0,0-.68.45.18.18,0,0,1-.29-.22C95.35,16.58,100.11,15.69,101.15,17.88Z"/><path class="cls-2" d="M99,30l-.27,0h0c2.19-2.17,6.49-2.09,8.29.87l-.24-.05h0c2.45-1.91,9.15,2.54,9.53,6.5h0l-.22-.14c1.48-1.1,3.69.4,3.85,2.23,0,.31.08.93-.22.9s-.18-.27-.21-.46a2.79,2.79,0,0,0-3.34-2.3.19.19,0,0,1-.22-.15c-.83-3.54-6.71-7.31-9-6.25a.18.18,0,0,1-.24,0,5.12,5.12,0,0,0-3.69-2,5.77,5.77,0,0,0-4.06,1.17.18.18,0,0,1-.26,0C97.33,28.32,93.77,28,92.2,30a.19.19,0,0,1-.31-.2C93.28,27.14,97.77,27.59,99,30Z"/><path class="cls-2" d="M91.79,38.55c2.22-1.21,4-.63,6,.82l-.26,0a3.78,3.78,0,0,1,4.06-1.52,4.72,4.72,0,0,1,3,1.49,4,4,0,0,1,.59,1,.2.2,0,0,1-.1.25.19.19,0,0,1-.25-.1.24.24,0,0,1,0-.23c.24-.31,3.84-.68,4.23-.69,1.41.05,3.35,1.41,4.38,2.58a9.61,9.61,0,0,1,1.23,1.76l-.25-.1a1.89,1.89,0,0,1,1.53.3l1,.55c1.06.7,1.7,2.86,1.77,3.85,0,.32-.28.31-.35.13-.61-1.58-1.79-4.41-3.48-4.48-.22,0-.46.14-.58,0a6.51,6.51,0,0,0-.78-1.09,9.75,9.75,0,0,0-4.06-2.65.58.58,0,0,1-.18,0,20.92,20.92,0,0,0-4.18.17s.08,0,0-.17l-.34.14c-.62-1.37-1.83-1.74-3.35-2s-2.56-.14-3.67,1.16a.2.2,0,0,0-.25,0,6.09,6.09,0,0,0-2-1A5,5,0,0,0,92,39a4.58,4.58,0,0,0-1.08.8.19.19,0,0,1-.28-.25A3.65,3.65,0,0,1,91.79,38.55Z"/><path class="cls-2" d="M91.31,45.79a4,4,0,0,1,3.21,0c.14.07-2.2-1.13,1.22.6l-.16,0A8.36,8.36,0,0,1,99,45.9a8,8,0,0,1,4.19,1.91,10.16,10.16,0,0,1,.92.72l-.22-.08a8.82,8.82,0,0,1,2.5-.22c2.45.21,5.91,1.92,6.46,3.42l-.14-.13a5,5,0,0,1,1,.5,2,2,0,0,1,1.12,1.29,3.8,3.8,0,0,1,.35,2.58c-.06.18-.27.33-.43.23a.4.4,0,0,1-.16-.31c-.19-1.18-.36-3.58-1.91-3.91a.21.21,0,0,1-.14-.12c-.68-1.74-5.92-3.18-8.55-2.89a.23.23,0,0,0-.16-.06,6.86,6.86,0,0,0-1.74-1.31,8.48,8.48,0,0,0-6.36-.78.23.23,0,0,0-.16,0,4.54,4.54,0,0,0-2.38-.67,5.39,5.39,0,0,0-3.74,1.72c-.16.15-.4-.07-.28-.25A5.06,5.06,0,0,1,91.31,45.79Z"/><path class="cls-2" d="M90,57.84c.25.09,3.15,1.44,3.29,1.51l-.18,0c2.31-.21,3.12,1.21,4.14,3,1.81,3.38.34.66.4.79s.23.55.34.84l-.12-.19c2.87,1.76,3.26,3.44,4.14,6l-.11-.12a4.86,4.86,0,0,0,1,.2,2.88,2.88,0,0,1,1.72,2.56c0,.31-.32.26-.37.08A4.33,4.33,0,0,0,101.75,70a.2.2,0,0,0-.11-.11,13.44,13.44,0,0,0-4.08-5.72.26.26,0,0,0-.07-.1,5.68,5.68,0,0,0-3.56-4.23,2.94,2.94,0,0,0-.79-.07.17.17,0,0,1-.12,0,8,8,0,0,0-6.55-1.26.19.19,0,0,1-.14-.34A4.79,4.79,0,0,1,90,57.84Z"/><path class="cls-2" d="M83.18,64.19a.55.55,0,0,1,.16-.1,1.2,1.2,0,0,1,.24-.06,2.79,2.79,0,0,1,1.79.53c1.44.89,1.06,2.11,1.93,2.85l-.18,0a4.54,4.54,0,0,1,3.11.52c1.09.72,1.26,2,2.43,3,0,0,.06.06.06,0a10.62,10.62,0,0,1,1.7,1.21A5,5,0,0,1,96,76l-.2-.2c.74.08,0,0,1.1.16a1.13,1.13,0,0,1,.57.25A2.35,2.35,0,0,1,98,77.54a2.54,2.54,0,0,1-.16,1.3h-.38c0-1.42-.46-2.59-1.89-2.61a4.28,4.28,0,0,0-1.09-3c-.74-.83-1.54-1.22-2.21-1.95-.18-.21-1.09-1.69-1.58-2.23a4.71,4.71,0,0,0-3.61-1.27c-1.08-1-.64-2-2.65-3a1.84,1.84,0,0,0-1-.27l-.14.05Z"/><path class="cls-2" d="M86.25,77.39c-.39-.59-.79-1.17-1.17-1.75,2.23,1.79,4.75,5.13,4.25,8.16,0,.25-.1.49-.1.49l-.46,0,.11-2.05.47,0-.12,2-.46,0C88.92,81.65,87.63,79.48,86.25,77.39Z"/><path class="cls-2" d="M91.74,51.8a8.43,8.43,0,0,1,2,.31,12.52,12.52,0,0,1,2.42.77l-.12-.05c2.49.22,3.11,2,4.61,3.45l-.18-.06a6.61,6.61,0,0,1,3.71.06c2.77,1.16,2.63,2.52,4,4.49l-.12-.08c1.23.31,1.48,0,2.26,1.39A8.93,8.93,0,0,1,111,64a.19.19,0,0,1-.33.15c-.37-.55-.66-1.25-1.08-1.89a2.58,2.58,0,0,0-1.32-1.11c-.57-.13-.12.13-1.65-2.1a6.07,6.07,0,0,0-.71-.88,6.89,6.89,0,0,0-5.35-1.53.17.17,0,0,0-.16-.06,23.36,23.36,0,0,0-2-2,4.45,4.45,0,0,0-2.46-1.26,7.3,7.3,0,0,0-4.62-.82,6,6,0,0,0-2.66,1,.19.19,0,0,1-.24-.29A5,5,0,0,1,91.74,51.8Z"/><path class="cls-2" d="M119.28,24.88c-.44,1.66-1.28,2.13-1.59,3.1,0,0,0,0,0,0a.09.09,0,0,0,0-.05,12.06,12.06,0,0,1,.14,6.5A8,8,0,0,1,117.2,36c-.2.39-.55.63-.7,1-.32.88.31,1.84.35,2.68a5.94,5.94,0,0,1-.61,2.87,6.73,6.73,0,0,1-.62,1,2.32,2.32,0,0,0-.54.79.71.71,0,0,0,0,.35,5.81,5.81,0,0,1-2.61,6.55h0l.07-.26a7.23,7.23,0,0,1-3.94,10c-.37.1-.79.18-.79.18L108,61a7.9,7.9,0,0,1-.9,5.09,8.71,8.71,0,0,1-4.36,4c-.32.12-.71.24-.71.24l.11-.12c-.53,2.53-2.58,4.92-6.16,5.88l.15-.17a8.65,8.65,0,0,1-5.22,6.33,5.1,5.1,0,0,1-2,.17.23.23,0,1,1,.06-.46,4.51,4.51,0,0,0,2.37-.37,8.47,8.47,0,0,0,4.33-5.77.24.24,0,0,1,.16-.18A9.58,9.58,0,0,0,101.69,70a.22.22,0,0,0,.12-.13,9.68,9.68,0,0,0,1.77-1.1,10.54,10.54,0,0,0,3.26-4.42,12.74,12.74,0,0,0,.41-1.33c.61-3-.43-1.69,1.7-2.94a8.07,8.07,0,0,0,3.26-4.64,7.73,7.73,0,0,0,.22-2.87,6.74,6.74,0,0,0-.31-1.4.25.25,0,0,1,.07-.26A6.65,6.65,0,0,0,114,48.34a6.79,6.79,0,0,0,.43-3.55l-.08-.45a.25.25,0,0,1,0-.19,7.63,7.63,0,0,0,1.55-4.38c0-.66-.14-1.3-.11-2a4.2,4.2,0,0,1,.62-1.71,11.68,11.68,0,0,0,.94-3.47,11.39,11.39,0,0,0-.41-4.5,1.1,1.1,0,0,1,.18-.74c.72-1.35,1.37-1.43,1.75-3.68a10.86,10.86,0,0,0,.13-2.05.23.23,0,0,1,.46,0A9.38,9.38,0,0,1,119.28,24.88Z"/><path class="cls-3" d="M101.63,18.77c-1.14,1.17-1.42,4.36-1.53,5.52s.17,1.32.87,1.59c1.62.61,2,0,2.2-.57,1.29-3,1.61-3.59,1.71-4.49C105.17,18.25,102.71,17.65,101.63,18.77Z"/><path class="cls-3" d="M103,32.33a1.83,1.83,0,0,0,.3-1.32,1.93,1.93,0,0,0-1.56-1.1c-.72,0-1.69,1.06-2,1.74a6.76,6.76,0,0,0-.55,3.1c0,1.4.7,1.21,2.16,1.22S101.74,34.89,103,32.33Z"/><path class="cls-3" d="M110.4,38.32A2.07,2.07,0,0,0,112.21,36a4.8,4.8,0,0,0-3.41-3.68c-.75-.08-1.09.28-1.38.93-.53,1.18-1.08,3.89-.16,4.63.52.42,1.3.16,2,.22C109.63,38.16,110,38.32,110.4,38.32Z"/><path class="cls-3" d="M109,26.79c-.31,2,.7,2.63,2.76,2.87.64.07.93,0,1.31-.73a5.69,5.69,0,0,0,.78-3.71,3.59,3.59,0,0,0-2.61-2.37C109.77,22.74,109.26,25.31,109,26.79Z"/><path class="cls-3" d="M95.76,25.2a18.83,18.83,0,0,0,1.76-5.57c-.58-.65-1.81-1-3.46.31-.79,1.72-1.11,4.84-.68,5.8C93.7,26.48,94.86,27.24,95.76,25.2Z"/><path class="cls-3" d="M91.8,35.05a1.79,1.79,0,0,0,.12.89c.31.6,1.16.66,2.42.89a34,34,0,0,0,1.51-4.28A2.45,2.45,0,0,0,95.91,31c-.43-1-2.32-1.39-3.39.56A8.22,8.22,0,0,0,91.8,35.05Z"/><path class="cls-3" d="M105.13,45.67c0,.63.27.84,1.06.9,2.88.23,3.25.32,3.61.18.68-.25,1.58-2.06,1.19-3.94-.34-1.65-1.34-1.69-2.34-1.65a7.68,7.68,0,0,0-2.05.16C105.39,41.78,105.08,44.38,105.13,45.67Z"/><path class="cls-3" d="M99.42,39.86c-1,1-1.89,2.87-1.56,3.72a2.13,2.13,0,0,0,1.2,1,1.66,1.66,0,0,0,1.31.18c.63-.29,1.6-2.1,1.17-4-.24-1.06-.8-1-1.28-.95C99.48,39.9,100.2,39.75,99.42,39.86Z"/><path class="cls-3" d="M103.84,14.5a3,3,0,0,0,1.48.92c1.38.3,3.4-1.69,3.33-4.1,0-1.18-.61-1.43-1.67-1.35-1.21.09-1.63.27-2.19,1.14S103.38,13.72,103.84,14.5Z"/><path class="cls-3" d="M116.68,15.82c-.22-.58-2.55-2.44-4.21-1.15-.79.61-1.11,1.85-1.4,3.77a1.23,1.23,0,0,0,.08.87c.25.38.59.38,3.87,1.21.57.15.85.06,1-.69C116.7,16.51,116.83,16.2,116.68,15.82Z"/><path class="cls-3" d="M99.07,11.12c-1.54,1-2.69,3.17-2.18,4.09a1.52,1.52,0,0,0,1.55.55,13,13,0,0,0,1.72-4.1C100.37,10.74,99.61,10.76,99.07,11.12Z"/><path class="cls-3" d="M92.64,40.53c-.22-.17-.52.08-.66.32-.64,1-2,4.45.85,3.63.41-1.71,1.06-2.22,1.07-3.08,0-.51-.4-1.07-.91-1a1.91,1.91,0,0,0-.79.45C91.94,41,92.88,40.72,92.64,40.53Z"/><path class="cls-3" d="M102.87,52.91c-.21,1.77.83,1.81,2.16,2.34,1.76.71,2.78,2.18,3.49-.57a3.52,3.52,0,0,1,1.23-1.88c1.91-1.49-1.72-3.24-3-3.25A3.62,3.62,0,0,0,102.87,52.91Z"/><path class="cls-3" d="M97.31,47.63A5.79,5.79,0,0,0,96.6,50c0,2,1.8,3.4,2.47,1.7a8.29,8.29,0,0,1,.41-1.12,8.21,8.21,0,0,1,.9-1,1.08,1.08,0,0,0,.26-1.21,1.34,1.34,0,0,0-.91-.48C98.52,47.68,97.86,46.52,97.31,47.63Z"/><path class="cls-3" d="M91,47.55c-1.14-.19-1.75,2.82-.06,3.42a.94.94,0,0,0,.77,0,1.47,1.47,0,0,0,.51-.81c.65-2,.92-2.33.36-2.46C91.7,47.46,91.14,46.67,91,47.55Z"/><path class="cls-3" d="M88.41,55.75c-.4,1.57,1,1.18,1.48,1.22a2.77,2.77,0,0,0,.8.12c.9-.14.69-1.44,1.72-2.59.4-.44.29-.63,0-.76A2.84,2.84,0,0,0,88.41,55.75Z"/><path class="cls-3" d="M85.36,61.48c-.41.54-.79,1.28-.45,1.87a1.91,1.91,0,0,0,1.15.72c.48.16.59,0,.64-.45.2-1.59,1.5-2.22,2.54-3.18.31-.28.26-.51-.11-.68C87.45,59,86.42,60.09,85.36,61.48Z"/><path class="cls-3" d="M97.89,55.65a1.38,1.38,0,0,0-1.24-.91c-.74,0-1.24.74-1.62,1.37a3.17,3.17,0,0,0-.6,1.67l1.64,1.3a.8.8,0,0,0,.4.2C97,59.29,98.47,57.09,97.89,55.65Z"/><path class="cls-3" d="M101.06,58.42c-.76,1.23-1.8,3.24-1.21,4.57.23.53.59.84,1.88,2.13,2,2,2.48-1.53,3.75-3.11.44-.55,1.07-1.1,1-1.8s-1.76-2.44-4-2.58A1.27,1.27,0,0,0,101.06,58.42Z"/><path class="cls-3" d="M100.88,69.69c-.52.59-2.11.69-2.82,1.21a4.51,4.51,0,0,1-.7.47c-1.09.51-3-.15-3.22-1.25S95.33,68,96,67.21a2.88,2.88,0,0,1,1.76-1.16C99.09,65.94,101.4,67.58,100.88,69.69Z"/><path class="cls-3" d="M89.84,66.22a7.06,7.06,0,0,0,1.57.64c.31.12.4.06.55-.19.84-1.46,1.85-1.76,2.61-2.57,1.73-1.88-.73-3.49-2-2.89a11.82,11.82,0,0,0-1.63,1.29,5,5,0,0,0-1.47,1.67A1.7,1.7,0,0,0,89.84,66.22Z"/><path class="cls-3" d="M86.73,69.63A1.08,1.08,0,0,1,88.08,69a4.37,4.37,0,0,1,1.43.86c.21.62-.45,1.05-.84,1.42-.64.63-.62,1.09-1,1.47A.64.64,0,0,1,87,73,18.2,18.2,0,0,1,86.73,69.63Z"/><path class="cls-3" d="M92.66,77.52a6.13,6.13,0,0,0,1.23-1.26c.62-.77.79-1.26,0-2.3-1.35-1.74-2.35-1.43-3.61-.3a8.21,8.21,0,0,0-2.36,2.89.83.83,0,0,0,.18,1c1.54,2,1.56,2.42,2.47,1.3C91.07,78.22,92,78,92.66,77.52Z"/><path class="cls-1" d="M33.77,6.5C34,5.34,32.59.65,26.73,0S22.87,8.19,24.35,10s2.45,1.94,4.56,1.77S33.45,8,33.77,6.5Z"/><path class="cls-4" d="M23.22,7.39A7.52,7.52,0,0,0,24.35,10c1.47,1.78,2.45,1.94,4.56,1.77s5-4.24,4.88-5.68A7.34,7.34,0,0,1,23.22,7.39Z"/><path class="cls-3" d="M31.26,1.76A8.68,8.68,0,0,0,26.73,0c-2.6-.27-3.65,1.3-3.89,3.3A8,8,0,0,1,31.26,1.76Z"/><path class="cls-5" d="M10.43,62a9.67,9.67,0,0,1,3.06-5.55c2.73-2.51,4.58-4.36,9.71-5.67s7.21-1.41,8-.76-1.53,7.62-3.71,9.48-7.42,3.59-9.82,4S10.54,63.24,10.43,62Z"/><path class="cls-6" d="M31.3,51.08A3.3,3.3,0,0,0,33,50.8c.06,0,.14-.09.13-.17a.18.18,0,0,0-.07-.1,1.94,1.94,0,0,0-.29-.21,4.29,4.29,0,0,0-2-.64,23.92,23.92,0,0,0-7.64,1.14c-5.13,1.31-7,3.16-9.71,5.67a9.72,9.72,0,0,0-3.06,5.56,12.86,12.86,0,0,1,1-1.95,16.57,16.57,0,0,1,5.7-5.31,27.83,27.83,0,0,1,7.72-3,32.42,32.42,0,0,1,4-.67,7.76,7.76,0,0,1,2-.08Z"/><path class="cls-7" d="M84.56,79.53A13.9,13.9,0,0,0,85,72.46C83.6,62.16,78.67,50,71.21,45.28s-34.42-.11-37.16,2.63c0,0-11.95,9.21-15.78,16.55-3.14,6-8.34,16.88-.55,27.08S46.77,107.21,64.2,99c6.73-3.17,13.86-7.31,18-13.72A13.36,13.36,0,0,0,84.56,79.53Z"/><path class="cls-8" d="M79.8,55.6c2,10.27-.08,20.41-7.57,28.72A68.16,68.16,0,0,1,68,90.25c-4.77,6.08-10.57,11.12-18.16,12.55A42.09,42.09,0,0,0,64.2,99c8.65-4.08,18.4-10.11,20.36-19.46.15-.75.44-1.46.55-2.23C85.87,72.18,83.06,62,79.8,55.6Z"/><path class="cls-9" d="M45.87,103.42c-12,0-23.17-4.52-28.54-11.52-8.17-10.64-2.06-22.28.55-27.25a26.77,26.77,0,0,1,2.6-3.88C25,56.55,30.82,53,37,53.22c8,.31,22.36,10.19,28.51,25.79a27.07,27.07,0,0,1,2.25,9.65,22.94,22.94,0,0,1-.7,4.4c-.9,2.51-2.61,4.84-5.55,7.54a44.8,44.8,0,0,1-15.67,2.82Z"/><path class="cls-9" d="M28.2,58c7-2,15.09-1.36,21.3,2.7A37,37,0,0,1,62.59,76.34l2.17.87c-6.5-14.55-20-23.69-27.73-24-6.21-.24-12,3.33-16.55,7.55a25.29,25.29,0,0,0-2.54,3.79A22.23,22.23,0,0,1,28.2,58Z"/><path class="cls-9" d="M47.16,69.34l-.64-.48a25.44,25.44,0,0,1,2,2.27c.59.4,1.17.8,1.75,1.23A25.27,25.27,0,0,0,47.16,69.34Z"/><path class="cls-10" d="M62.15,91.2a29.31,29.31,0,0,1-10.07,5.92,26.73,26.73,0,0,1-16.29.32A40.42,40.42,0,0,1,13.24,79.31c-.66,20.41,28.1,28.94,48.3,21.29,2.94-2.7,4.65-5,5.55-7.54a16.33,16.33,0,0,0,.13-8.84A20.6,20.6,0,0,1,62.15,91.2Z"/><path class="cls-7" d="M46.77,69.83c1.31-1.31,7-4,9.53-7.34s4.83-5.81,7.57-5.81,6.68,2.41,4.6,7.56S63.21,74,58.83,75.53s-9.21,3.84-9.21,3.84-5.48-2.63-5.59-4.6S46.77,69.83,46.77,69.83Z"/><path class="cls-11" d="M55.09,64.47c2.26-1.86,4.92-3.95,7.83-4.63a7.1,7.1,0,0,1,6.09,1c-.37-2.83-3.09-4.18-5.14-4.18-2.74,0-5,2.52-7.57,5.81-1.75,2.29-5,4.32-7.34,5.78A46.1,46.1,0,0,0,55.09,64.47Z"/><path class="cls-8" d="M56.57,74.84c-3.2,1.36-6.61,1.53-9.89,2.59l-.27.07a26.3,26.3,0,0,0,3.21,1.87s4.82-2.3,9.21-3.84c3.71-1.29,6.55-4.79,8.6-9A30.26,30.26,0,0,1,56.57,74.84Z"/><path class="cls-7" d="M40.3,48.34S20.86,46.18,19.11,33.51s12.27-32,29.08-32S77.86,16.66,80.35,30.92s-17.83,18.72-25,18.86A52.48,52.48,0,0,1,40.3,48.34Z"/><path class="cls-11" d="M64.64,6.77A29.11,29.11,0,0,0,48.19,1.54C37.64,1.54,28.18,9.15,23,18,33.15,4.21,50,.8,64.64,6.77Z"/><path class="cls-8" d="M20.6,37.92c5,8.78,19.7,10.42,19.7,10.42a52.48,52.48,0,0,0,15.05,1.44c6.59-.13,24.31-3.92,25.17-15.62C66.86,53.23,31.17,50.08,20.6,37.92Z"/><path class="cls-1" d="M71.76,15.62C67.37,13.05,67.7,7,72.87,5.44c3.32-1,7.43-.36,8.24,2.64.65,2.42-1,5.61-2.43,7.43C76.35,18.38,74.63,17.3,71.76,15.62Z"/><path class="cls-4" d="M69.6,13.57a6.46,6.46,0,0,0,2.16,2c2.87,1.68,4.59,2.76,6.92-.11a13.35,13.35,0,0,0,2-3.5A8.79,8.79,0,0,1,69.6,13.57Z"/><path class="cls-3" d="M81,7.74c-1.76-4.67-13.23-3.35-12.22,3.62C70.62,7.72,75.5,5.33,81,7.74Z"/><path class="cls-8" d="M35,41.7c-1.37-.73-.68-3.17-.06-3.79.2-.21,1.3-1.26,2.41-2.28,2.31-2.15,2.39-2.15,2.73-2.15a.73.73,0,0,1,.69.5,7.24,7.24,0,0,1-.19,2.36c-.19.77-1.11,4.87-1.36,5.43s-.62.63-1.29.63A7.89,7.89,0,0,1,35,41.7Z"/><path class="cls-8" d="M40.87,44c-1.31,0-2.45-.3-2.51-1.8a12.23,12.23,0,0,1,.39-2.94c.34-1.59.8-3.15,1.17-4.73,0-.19.09-.38.14-.57a1.21,1.21,0,0,1,.16-.45.44.44,0,0,1,.39-.22s.25.34.28.38.3.24.44.37a2.35,2.35,0,0,1,.6,1c.07.25.1.52.18.77a4.3,4.3,0,0,0,.6,1,16.16,16.16,0,0,1,1.55,2.32,1.66,1.66,0,0,1,.06.16c.22.78-.81,3.52-.89,3.7C43,43.86,41.66,44,40.87,44Z"/><path class="cls-12" d="M35.17,38.42c-.39.38-.94,2.3-.11,2.74s2.68,1.19,3,0c.32-1.39.65-2.78,1-4.17.27-1.15,1-2.9.77-4.06-1,.77-1.19,1.9-1.89,2.84A28.59,28.59,0,0,1,35.17,38.42Z"/><path class="cls-12" d="M40.33,34.81c-1.6,6.48-1.88,8-1,8.33s3,.22,3.29-.38a12.18,12.18,0,0,0,.88-3.29C43.4,39.08,40.5,35.14,40.33,34.81Z"/><path class="cls-8" d="M43,16.88c-.55,3.92-3.65,6.73-6.92,6.27s-5.48-4-4.93-7.93S34.75,8.49,38,9,43.51,13,43,16.88Z"/><ellipse class="cls-8" cx="48.88" cy="16.83" rx="7.65" ry="6.26" transform="translate(25.43 62.9) rotate(-82.02)"/><path class="cls-13" d="M42.48,16.15C42,19.78,39.1,22.38,36.07,22S31,18.24,31.5,14.61s3.38-6.23,6.41-5.8S43,12.52,42.48,16.15Z"/><path class="cls-14" d="M41.69,17.39a7.08,7.08,0,0,1-3.41,2.26,4.19,4.19,0,0,1-4.13-.15,5.7,5.7,0,0,1-.65-.44,6.37,6.37,0,0,1-1.81-1.36c1.7,6.22,9.32,5.48,10.69-1A9.13,9.13,0,0,1,41.69,17.39Z"/><path class="cls-13" d="M54.58,17C54,20.84,51,23.63,47.86,23.18s-5.3-3.94-4.76-7.82,3.55-6.66,6.72-6.21S55.12,13.09,54.58,17Z"/><path class="cls-14" d="M52.73,19.1a7.54,7.54,0,0,1-2.46,1.44,5.18,5.18,0,0,1-1.42.58c-2.49.59-4.53-1-5.72-3.24.44,2.77,2.27,5,4.73,5.3C51,23.63,54,20.84,54.58,17c0-.13,0-.26,0-.38A9.79,9.79,0,0,1,52.73,19.1Z"/><path class="cls-15" d="M37.73,17.55a2.41,2.41,0,0,1-.25-4.72c.29-.08.41,2.25.72,2.29s.95-2.14,1.25-1.92A2.41,2.41,0,0,1,37.73,17.55Z"/><path class="cls-15" d="M52.08,16.4A2.58,2.58,0,1,1,49,13.52c.28,0,.36,2.68.66,2.72s1-2.52,1.36-2.28A2.58,2.58,0,0,1,52.08,16.4Z"/><path class="cls-9" d="M55.87,22c-3.84-2.19-9.1,2.08-11.41,4.16A11.65,11.65,0,0,0,41,30.79c0-.17,0-.34.07-.53.22-1.86-.66-3.4-3-6S33.39,19.85,30,20.72s-2.41,6.14-1.64,10,2.63,7.45,5.48,7.78,5.58-3.16,6.14-4.27c.14-.29.26-.55.37-.81-.32,2-.12,3,.51,3.88,2.74,3.72,5.81,3.28,8.33,2.52a14.82,14.82,0,0,0,9.43-8.66C60,27.3,59.7,24.23,55.87,22Z"/><path class="cls-10" d="M32.61,34.8a13.14,13.14,0,0,1-4.44-5c.66,3.45,2.18,8.31,5.66,8.71,2.07.24,3.67-1.33,5-2.67a6,6,0,0,0,1.61-2.21c.35-.94,0-1.76.19-2.65-.28,1.59-1,3.72-2.63,4.32A6,6,0,0,1,32.61,34.8Z"/><path class="cls-12" d="M35,23.41c3.54,1.32,4.86,4.14,6,7.17.24-1.95-.2-3.24-2.92-6.35C35.8,21.6,33.39,19.85,30,20.72c-2,.51-2.46,2.5-2.38,4.83A6.17,6.17,0,0,1,35,23.41Z"/><path class="cls-10" d="M54.75,33.73a13.13,13.13,0,0,1-2.19,1.78,9.08,9.08,0,0,1-1.63.79,10.08,10.08,0,0,1-6,.17c-1.9-.5-4.12-1.12-4.21-3.38,0-.88.13-1.77,0-2.64-.11-.07-.21.09-.25.21-.55,1.92-.9,4.92.35,6.62,2.74,3.72,5.81,3.28,8.33,2.52a14.82,14.82,0,0,0,9.43-8.66,12.37,12.37,0,0,0,.75-3.09A17.44,17.44,0,0,1,54.75,33.73Z"/><path class="cls-12" d="M41.22,31.08c2.61-3.63,6.59-6.72,10.51-7.6A8,8,0,0,1,58.83,25a7,7,0,0,0-3-2.91c-3.84-2.19-9.1,2.08-11.41,4.16a11.82,11.82,0,0,0-3.41,4.44Z"/><path class="cls-1" d="M39.9,30.79a1.28,1.28,0,0,0,.88.48c.83.06,1.63-.83,2.22-1.32a13.48,13.48,0,0,0,3-3.19c1.05-1.71-1.64-3.82-4.81-4.22a3.68,3.68,0,0,0-3.24,1c-.85,1-.43,2.55.12,3.61s.78,1.91,1.3,2.84A4.3,4.3,0,0,0,39.9,30.79Z"/><path class="cls-16" d="M39.33,24.65a25.52,25.52,0,0,1,4.86.59c.86.24.33-.58.08-.87a3.1,3.1,0,0,0-1.6-1.15,7,7,0,0,0-3.32.05C38.37,23.53,38.1,24.56,39.33,24.65Z"/><path class="cls-1" d="M18.16,61.64a6.14,6.14,0,0,1,.54-2.27c.18-.34.35-.33.57-.15a9.39,9.39,0,0,1,3.58,5c.35,1.5.91,4.17-.34,5.42-1.53,1.54-4-1-4-1-.27,2.37-4.39,3.62-5.15.44a2,2,0,0,1-2.08,1.2c-1.86,0-2.43-3.82-2.47-5.1C8.77,63,10.7,60.92,12.59,60a6.77,6.77,0,0,0,1.06,2c.17-.35,2.16-2.77,2.17-2.76C16.83,59.87,16.92,61.37,18.16,61.64Z"/><path class="cls-3" d="M14.32,63A5.1,5.1,0,0,1,19,62.42,3.83,3.83,0,0,1,21,60.86c-.21-.24-1.71-1.77-2-1.76-.49,0-.82,1.87-.85,2.54-1.24-.27-1.33-1.77-2.34-2.33,0,0-2,2.42-2.17,2.76a6.77,6.77,0,0,1-1.06-2,7.14,7.14,0,0,0-3.42,3.46A3.55,3.55,0,0,1,14.32,63Z"/><path class="cls-4" d="M22.08,66A3.88,3.88,0,0,1,18.2,67a3.52,3.52,0,0,1-5,.58,3.92,3.92,0,0,1-3.61,1.14c.38.86.93,1.51,1.7,1.51a2,2,0,0,0,2.08-1.2c.76,3.16,4.87,1.94,5.15-.44,0,0,2.42,2.52,4,1,1-1,.85-2.81.58-4.28A5.56,5.56,0,0,1,22.08,66Z"/><path class="cls-7" d="M56.85,93.84S58.39,83.43,62,78.6a11.53,11.53,0,0,1,13-4.49c4.49,1.31,7.34,4.71,6.91,11.51S72,98,70,99.21s-10.75,6.69-12.17,6S56.63,94.39,56.85,93.84Z"/><path class="cls-11" d="M79,76.2a10,10,0,0,0-3.91-2.09A11.53,11.53,0,0,0,62,78.6a23.58,23.58,0,0,0-3.07,6.5C63.91,78.56,72,75.24,79,76.2Z"/><path class="cls-8" d="M69.43,95.86a31.71,31.71,0,0,1-12.66,4.56c.13,2.37.44,4.53,1.07,4.82,1.42.66,10.19-4.82,12.17-6S81.52,92.42,82,85.62a16.63,16.63,0,0,0-.24-4.29C80.35,87.92,75.36,92.18,69.43,95.86Z"/><path class="cls-7" d="M52.36,108.42c3,.61,6.14-.88,8.55-5s6.14-10,5.48-12.83c-.39-1.7-2-3.74-3.93-3.47-.75.1-1,.56-1.43,1.14s-1.79,1.56-1.87,2.28a11.23,11.23,0,0,0,.1-2.52,5.76,5.76,0,0,0-1.68-3.33A3.77,3.77,0,0,0,53,84.46c-1.74,1.35-1.8,4-1.74,6-.7-2.25-3.32-5.14-5.86-3.47a3.24,3.24,0,0,0-.83.86c-2.34,3.16-.93,7.8.25,11.23C46.88,105.13,49.18,107.76,52.36,108.42Z"/><path class="cls-11" d="M53.81,87.93A4.41,4.41,0,0,1,58.75,90c0,.08.09.16.13.24l.32-.13A9.78,9.78,0,0,0,59.26,88a5.76,5.76,0,0,0-1.68-3.33A3.77,3.77,0,0,0,53,84.46c-1.53,1.19-1.76,3.4-1.75,5.28A4.73,4.73,0,0,1,53.81,87.93Z"/><path class="cls-11" d="M65.77,94.08c0,.06,0,.11,0,.17a6.92,6.92,0,0,0,.61-3.7c-.39-1.7-2-3.74-3.93-3.47-.75.1-1,.56-1.43,1.14a22.92,22.92,0,0,0-1.7,1.87A4.85,4.85,0,0,1,65.77,94.08Z"/><path class="cls-11" d="M49.38,90.3a4.88,4.88,0,0,1,1.3.39A2.66,2.66,0,0,1,51,90l0,0c-.91-2.14-3.32-4.49-5.67-2.95a3.24,3.24,0,0,0-.83.86,7.39,7.39,0,0,0-1.23,5,5,5,0,0,1,3.49-2.58A7.47,7.47,0,0,1,49.38,90.3Z"/><path class="cls-8" d="M52.53,105.59a15.19,15.19,0,0,1-3.19-.67,9.27,9.27,0,0,1-2.14-.51c3.52,5.65,9.78,5.75,13.71-1,.39-.68.82-1.4,1.26-2.15C59.87,103.79,56,106,52.53,105.59Z"/><path class="cls-1" d="M49.44,95.78c-1.35,2-.89,5,.21,7,1.18,2.2,3.74,3.81,6,2.15,2.73-2,5.49-7,2.14-9.85C55.76,93.4,51,93.48,49.44,95.78Z"/><path class="cls-4" d="M48.8,100.51a9,9,0,0,0,.85,2.31c1.18,2.2,3.74,3.81,6,2.15s4.3-5,3.51-7.77C57.75,104.25,51.42,104.64,48.8,100.51Z"/><path class="cls-7" d="M15.45,94.65c1.6-.54,4.63-4.47,3.8-10.44S17,73.42,14.38,73.07c-2.07-.27-1.86,1.51-2.21,3a4.28,4.28,0,0,0-.06,2.27q-.48-.82-1-1.62c-.75-1.1-2.72-2.66-4.19-2.24-2.47.71-1.46,3.88-1,5.58A7.94,7.94,0,0,0,4.8,78.72a2.94,2.94,0,0,0-4.31.09c-1.78,1.84,1.76,7.58,2.85,9.41C5.12,91.21,9.28,96.72,15.45,94.65Z"/><path class="cls-11" d="M6.47,79.26a5.67,5.67,0,0,1,3.93-1.57,5.9,5.9,0,0,1,1.45.2c-.24-.4-.49-.81-.76-1.2-.75-1.1-2.72-2.66-4.19-2.24-2.41.69-1.51,3.72-1,5.45A4.67,4.67,0,0,1,6.47,79.26Z"/><path class="cls-11" d="M5.88,79.94A7.32,7.32,0,0,0,4.8,78.72a2.94,2.94,0,0,0-4.31.09c-.79.82-.53,2.4.1,4.07a5.89,5.89,0,0,1,2.09-2.09,6.07,6.07,0,0,1,3.12-.74A.76.76,0,0,0,5.88,79.94Z"/><path class="cls-11" d="M16.17,76a6,6,0,0,1,1.14.11c-.76-1.76-1.72-2.9-2.93-3.06-2.07-.27-1.86,1.51-2.21,3A5,5,0,0,0,12,77.79,6,6,0,0,1,16.17,76Z"/><path class="cls-8" d="M4.31,89.72c2.12,3,5.9,6.68,11.14,4.93C17,94.14,19.8,90.51,19.33,85,17.37,94.26,8.12,93.25,4.31,89.72Z"/><path class="cls-1" d="M7.24,88.38a11.92,11.92,0,0,0,2.7,2.5,4.41,4.41,0,0,0,1.74.94,2.94,2.94,0,0,0,2.79-1.19,6.39,6.39,0,0,0,1.08-2.9c.53-3.15,0-5.13-3.57-5.68C7.9,81.43,4.83,85,7.24,88.38Z"/><path class="cls-4" d="M7.33,88.49c.72,1,3.16,3.09,4.35,3.33a2.94,2.94,0,0,0,2.79-1.19,6.39,6.39,0,0,0,1.08-2.9,13.8,13.8,0,0,0,.17-1.45C14.71,90.06,10.68,91.51,7.33,88.49Z"/><path class="cls-1" d="M38.55,76s-2.09-1-1.21-2.85a5.19,5.19,0,0,1,4.82-3,26.23,26.23,0,0,1,4.06.11l2.08,1.21-2.63,2.19,2.41,1.21-1.09,2,2.85.33c0,3.82-2.44,8.48-4.94,8.11-2.19-.33-3.07-3-2.74-4.28,0,0-2.63.88-3.72-.32S36.79,77.18,38.55,76Z"/><path class="cls-3" d="M37.81,79.74a4.55,4.55,0,0,1,1-2.91l.43-.5a1.89,1.89,0,0,1-.06-.18,3.28,3.28,0,0,1,.24-2.91c1.33-2.18,5-2.61,8-2.22l-1.29-.75a26.23,26.23,0,0,0-4.06-.11,5.19,5.19,0,0,0-4.82,3C36.46,75,38.55,76,38.55,76A2.85,2.85,0,0,0,37.81,79.74Z"/><path class="cls-4" d="M42.27,82.72a3.4,3.4,0,0,0,2.63,2.57c2.2.33,3.84-3.07,4.39-4.6a9.72,9.72,0,0,0,.41-1.78,4.59,4.59,0,0,1-.41.36A6.79,6.79,0,0,1,42.27,82.72Z"/></g></g></g></svg>