<svg xmlns="http://www.w3.org/2000/svg" viewBox="0 0 128.31 106.15"><defs><style>.cls-1{fill:#f9a845;}.cls-2{fill:#e5902e;}.cls-3{fill:#864b38;}.cls-4{fill:#f5c262;}.cls-5{fill:#372417;}.cls-6{fill:#fcf3e6;}.cls-7{fill:#eddec7;}.cls-8{fill:#fff;}.cls-9{fill:#e5e0d9;}.cls-10{fill:#be4720;}.cls-11{fill:#ef5929;}.cls-12{fill:#fffdfa;}.cls-13{fill:#5e2925;}</style></defs><g id="Слой_2" data-name="Слой 2"><g id="animal"><g id="cat"><path class="cls-1" d="M50.51,87.1a2.09,2.09,0,0,1-.23.76,3.78,3.78,0,0,1-1.71,1.37l-.53.26a38.31,38.31,0,0,1-4.22,1.77A41.34,41.34,0,0,1,24.75,93.2c-5.29-.72-9.91-1-14.65,1.71-1,.58-2,1.27-3,1.79a5.92,5.92,0,0,1-3.47.65,5.18,5.18,0,0,1-3-1.88,2.43,2.43,0,0,1-.53-.9A2.45,2.45,0,0,1,.11,93.4a10.33,10.33,0,0,1,3.55-5.46c.23-.2.46-.39.71-.57a23.11,23.11,0,0,1,5.55-3c.83-.32,1.66-.61,2.51-.86a38.43,38.43,0,0,1,4.18-1l.88-.16c.76-.12,1.54-.23,2.31-.31,1.21-.14,2.42-.25,3.64-.38l1.63-.19c.86-.12,1.73-.26,2.59-.42,1.05-.18,2.1-.4,3.14-.63S33,79.91,34,79.67h0l5.14-1.19,1.47-.34h0l.92-.21,1.28-.3a13,13,0,0,1,1.65-.3h0a4.35,4.35,0,0,1,1.44.06,4.5,4.5,0,0,1,2.28,1.44A7.08,7.08,0,0,1,49.56,81a15.64,15.64,0,0,1,1,5.12A5.91,5.91,0,0,1,50.51,87.1Z"/><path class="cls-2" d="M50.52,86.07a15.64,15.64,0,0,0-1-5.12c-.09-.22-.19-.43-.29-.63-1.88,3.79-6.81,6.63-10.72,7.89a25.81,25.81,0,0,1-10.67,1.07c-3.41-.37-6.89-1.09-10.34-.9s-6.4,1.55-9.37,3.05c-2.12,1.08-5.38,2.17-7.65.71h0A9.78,9.78,0,0,0,.11,93.4a2.45,2.45,0,0,0-.06,1.17,2.43,2.43,0,0,0,.53.9,5.18,5.18,0,0,0,3,1.88,5.92,5.92,0,0,0,3.47-.65c1.06-.52,2-1.21,3-1.79,4.74-2.72,9.36-2.43,14.65-1.71a41.34,41.34,0,0,0,19.07-1.94A38.31,38.31,0,0,0,48,89.49l.53-.26a3.78,3.78,0,0,0,1.71-1.37,2.09,2.09,0,0,0,.23-.76A5.91,5.91,0,0,0,50.52,86.07Z"/><path class="cls-3" d="M9.94,91.53l0,0c-.21.21-.61.08-.86-.09a7.65,7.65,0,0,1-1.5-1.76,6.5,6.5,0,0,0-1.81-1.65,12.13,12.13,0,0,0-1.36-.71,23.11,23.11,0,0,1,5.55-3c-.5.2-.24,3.06-.21,3.5A18.18,18.18,0,0,1,10,91.2.61.61,0,0,1,9.94,91.53Z"/><path class="cls-3" d="M15.57,89.08a.2.2,0,0,1-.11,0,.44.44,0,0,1-.22-.16,9.83,9.83,0,0,1-1.61-2.49c-.11-.24-1.27-2.91-1.2-2.93a38.43,38.43,0,0,1,4.18-1c-.25,1.16-.45,2.34-.6,3.52a22.1,22.1,0,0,1-.2,2.85A.31.31,0,0,1,15.57,89.08Z"/><path class="cls-3" d="M23.44,81.63c-.41,0,0,4.13-.06,4.54a20,20,0,0,1-.27,2.18c0,.26-.05,1.44-.28,1.58s-1-.2-1.22-.41a4.77,4.77,0,0,1-1.2-2.23c-.16-.49-1.08-5.23-.61-5.28C21,81.87,22.22,81.76,23.44,81.63Z"/><path class="cls-3" d="M30.8,80.39c-.42.1-.27,3.09-.27,3.44a42.42,42.42,0,0,1-.25,5.52.63.63,0,0,1-.11.35.32.32,0,0,1-.35.12.39.39,0,0,1-.18-.2,13.15,13.15,0,0,1-1.77-5.06c0-.42-.68-3.45-.21-3.54C28.71,80.84,29.76,80.62,30.8,80.39Z"/><path class="cls-3" d="M39.2,78.47,39,79.54q-.08.54-.18,1.08l-.57,3.53c-.21,1.21-.28,2.32-.6,3.51a1.59,1.59,0,0,1-.53,1c-1.27-1-1.58-2.48-2.06-3.88A20.1,20.1,0,0,1,34,79.67h0Z"/><path class="cls-1" d="M119.73,91.87c-2.72,5.93-9.19,8.15-14.8,9.62a122.65,122.65,0,0,1-24.37,4.24,51.14,51.14,0,0,1-23.26-4C51.17,99,44,95.84,43.57,87.76,43.1,79.9,45.45,71.47,48,64.35a65.13,65.13,0,0,1,4.64-10.3c1.34-2.36,3-5.7,5.49-6.88,2.76-1.29,6.79.06,9.69.1a89.39,89.39,0,0,0,12.23-.79c3.68-.45,7.34-1,11-1.44,3.3-.44,6.9-1.1,10.07.5,3.58,1.81,6.38,6.05,8.52,9.48A81.15,81.15,0,0,1,115.6,67a83,83,0,0,1,4.69,15,17.74,17.74,0,0,1-1.43,11.81c.37-.78.73-1.56,1.08-2.35l-.21.47C116.84,98.16,120.81,89.51,119.73,91.87Z"/><path class="cls-2" d="M105.66,101.29l.29-.08.27-.07.25-.07.31-.09.21-.06.32-.1.2-.06.34-.11.18-.05.35-.12.17,0,.37-.13.15,0,.38-.13.14-.05.38-.14.13-.05.4-.16.11,0,.41-.17.09,0,.42-.18.08,0,.43-.19.06,0,.44-.22,0,0,.45-.23h0a14.74,14.74,0,0,0,6.3-6A16.35,16.35,0,0,0,120.48,88a18.35,18.35,0,0,1,.11-1.95l.12-.49a21.53,21.53,0,0,0-.42-3.61,83,83,0,0,0-4.69-15A81.15,81.15,0,0,0,109.65,55c-1.11-1.77-2-4-3.41-5.47-.6-.62-1.2-1.24-1.81-1.85A3.47,3.47,0,0,0,103,46.63L104,48.74a22.46,22.46,0,0,1,2.09,4.7c.43,1.73,1,3.43,1.52,5.12,1,3.3,2.18,6.57,3,9.93,1.75,7,2.63,16.48-4,21.56-.68.64-1.38,1.27-2.12,1.88-7.81,6.39-17.6,10.26-27.54,12a79.34,79.34,0,0,1-8.1,1.14,56.29,56.29,0,0,0,5.79.63h0l1.42.05h2l.91,0c.5,0,1,0,1.48-.06a122.65,122.65,0,0,0,24.37-4.24l.51-.14Z"/><path class="cls-4" d="M64.24,47.35a.54.54,0,0,0-.06-.27c-.65-1.24-5.12-.34-6.05.09-2.51,1.18-4.15,4.52-5.49,6.88A65.13,65.13,0,0,0,48,64.35c-2.55,7.12-4.9,15.55-4.43,23.41a11.65,11.65,0,0,0,2.8,7.11c-.58-.68,1.57-5.73,1.77-6.68.35-1.7.26-3.4.66-5.14a77.1,77.1,0,0,1,4.13-12.46c2.29-5.49,5-10.77,7.72-16.07C61.19,53.47,64.28,48.84,64.24,47.35Z"/><path class="cls-3" d="M48.92,61.57c.48-.17,1.12.48,1.6.9a13.45,13.45,0,0,1,1.87,2.06A28.52,28.52,0,0,1,55,69.08,19.88,19.88,0,0,1,55.87,71a9.7,9.7,0,0,1,.64,3.61c-.72,0-1.66-1.52-2-2-.7-.85-1.37-1.72-2.1-2.56a14.34,14.34,0,0,0-4.45-3.44c-.79-.42-.54-1-.31-1.67s.32-1.21.52-1.81c.12-.37.26-.73.41-1.09A.72.72,0,0,1,48.92,61.57Z"/><path class="cls-3" d="M57.88,63.75a1.48,1.48,0,0,1,0,.21c0,.14,0,.3-.18.33a.43.43,0,0,1-.27-.11,21.18,21.18,0,0,1-2.49-2.68c-.72-.77-1.47-1.52-2.26-2.24-.42-.38-1.8-1-1.91-1.49a1.27,1.27,0,0,1,.16-.81c.55-1.21,1.14-2.42,1.77-3.61.77-1.43,3,3,3.3,3.61A16,16,0,0,1,57.88,63.75Z"/><path class="cls-3" d="M100.82,61.54c.35-1.74,1.8-3.35,2.89-4.83s2.44-3.22,3.76-4.8l.41-.48c1,1.5,1.92,3,2.77,4.6-.11-.21-2.34.66-2.58.77-.74.37-1.49.73-2.23,1.11a15.1,15.1,0,0,0-4.08,2.87A2.64,2.64,0,0,1,100.82,61.54Z"/><path class="cls-3" d="M114.71,63.76l-.15.09a59.5,59.5,0,0,0-6.08,4c-1.87,1.4-3.5,3.09-5.43,4.34-.18.12-.42.23-.57.11a8.7,8.7,0,0,1,1-3,21.47,21.47,0,0,1,2.93-4.85,63.66,63.66,0,0,1,5.68-6Q113.51,61.08,114.71,63.76Z"/><path class="cls-1" d="M118.05,89.63c-.2.69-.4,1.38-.61,2.08v0c-.27.92-.31,1.08.6-2.06l.13-.45,0-.07,0,.07s-.06.2-.14.47Z"/><path class="cls-1" d="M117.79,90.42c-.1.42-.21.84-.34,1.26l.59-2C118,89.91,117.88,90.17,117.79,90.42Z"/><path class="cls-3" d="M52,75.86l-.06,0a.58.58,0,0,1-.18,0c-.92-.34-1.82-.72-2.75-1l-2.44-.76-.82-.24c-.17,0-.44-.07-.54-.24a.44.44,0,0,1,0-.3,34.3,34.3,0,0,1,1-3.57.56.56,0,0,1,.2-.31c.18-.1.24,0,.39.17.3.3.6.59.89.89.59.61,1.16,1.22,1.71,1.84A27,27,0,0,1,52,75.68a.18.18,0,0,1,0,.1A.1.1,0,0,1,52,75.86Z"/><path class="cls-5" d="M89.14,87c-.06,0-.14-.08-.16-.17v0h0l.22.12h0A.1.1,0,0,1,89.14,87ZM89,86.87a.18.18,0,0,0,.14.14.09.09,0,0,0,.06,0Z"/><path class="cls-6" d="M107.85,93.66c-.28,7.33-8,9.23-13.88,10.73a56.07,56.07,0,0,1-21.7,1.22,38.67,38.67,0,0,1-6.09-1.32c-3.31-1-7-2.16-8.06-5.76a18,18,0,0,1,.36-9.38c3.1-11.63,14.88-19.47,26.68-18.7,5.7.38,12.13,1.76,16.16,6.12A24.84,24.84,0,0,1,107.85,93.66Z"/><path class="cls-7" d="M93.63,96.59c-5.63,3.13-11.54,5.43-18,5.91a82.16,82.16,0,0,1-15.12-.67,19,19,0,0,0,5.69,2.46,38.67,38.67,0,0,0,6.09,1.32A56.07,56.07,0,0,0,94,104.39c5.87-1.5,13.6-3.4,13.88-10.73a22.47,22.47,0,0,0-.93-7A56.93,56.93,0,0,1,93.63,96.59Z"/><path class="cls-1" d="M67.43,65.14a62.64,62.64,0,0,1,3.12,10.77,61.79,61.79,0,0,0,3.56,11.53A21.21,21.21,0,0,1,76,92.19c.35,2.09-1.18,2.56-2.55,1.2a8.32,8.32,0,0,1-1.3-1.85.53.53,0,0,0-.63.27,1.32,1.32,0,0,0-.12.74c0,1,.64,4.09-1.45,3.59-1.26-.3-1.83-4-2.51-3.79a.46.46,0,0,0-.27.45A7.44,7.44,0,0,0,67.45,94c.06.41-.15.93-.57.92a.89.89,0,0,1-.57-.3c-1.16-1-1.14-2.76-1.36-4.18a38.73,38.73,0,0,0-1-4.89c-1-3.64-2.49-7.14-3.85-10.67-1.06-2.74-2.65-6.42-2.58-9.37a6,6,0,0,1,4-5.4c2.76-.93,4.86,2.72,5.78,4.74Z"/><path class="cls-4" d="M61.89,77.65c-.76-3.8-2.42-7.63-2.16-11.56A10.2,10.2,0,0,1,61.86,60l-.33.09a6,6,0,0,0-4,5.4c-.07,3,1.52,6.63,2.58,9.37.67,1.73,1.36,3.46,2,5.2A12.32,12.32,0,0,0,61.89,77.65Z"/><path class="cls-2" d="M76,92.19a21.21,21.21,0,0,0-1.92-4.75,58.88,58.88,0,0,1-3.48-11.23c.11,1,.2,2,.28,3,.19,2.72.42,6.44-1.32,8.76A5.66,5.66,0,0,1,64.9,90.1l0,.35c.22,1.42.2,3.17,1.36,4.18a.89.89,0,0,0,.57.3c.42,0,.63-.51.57-.92a7.44,7.44,0,0,1-.25-1.21.46.46,0,0,1,.27-.45c.68-.2,1.25,3.49,2.51,3.79,2.09.5,1.5-2.55,1.45-3.59a1.32,1.32,0,0,1,.12-.74.53.53,0,0,1,.63-.27,8.32,8.32,0,0,0,1.3,1.85C74.85,94.75,76.38,94.28,76,92.19Z"/><path class="cls-3" d="M70.83,76.52a1.14,1.14,0,0,1-.56.73,14.15,14.15,0,0,0-1.69,1.28,13.68,13.68,0,0,0-1.17,1.11c-.19.21-.29.52-.5.71-1.06.93-.5-1.18-.38-1.62a12.52,12.52,0,0,1,.83-2.16,29.24,29.24,0,0,1,2.39-4,.9.9,0,0,1,.37.61c.24.91.47,1.83.68,2.75A1.31,1.31,0,0,1,70.83,76.52Z"/><path class="cls-3" d="M72.14,82a2.68,2.68,0,0,0,.07.27s-1.38,1.22-1.53,1.36-1.41,1.6-1.68,1.49,0-.87,0-1.1A18.11,18.11,0,0,1,69.65,82a10.44,10.44,0,0,1,.86-1.62c.22-.34.49-1.09.88-1.25.15.52.31,1,.46,1.55a6.14,6.14,0,0,1,.23.94C72.11,81.72,72.12,81.86,72.14,82Z"/><path class="cls-1" d="M99.3,82.86l0,.17a22.73,22.73,0,0,0,.49,8.61,3.38,3.38,0,0,1,.15,1.26,1.07,1.07,0,0,1-.76.92c-1.38.29-1.18-1.74-1.94-2s-.87,1-.94,1.54a2.72,2.72,0,0,1-.9,1.95c-.53.38-1.86.73-2.19-.1a1.13,1.13,0,0,1,0-.58,16,16,0,0,0-.09-3.39.38.38,0,0,0-.49.09,1.15,1.15,0,0,0-.21.51,3.59,3.59,0,0,1-.85,1.8,1.44,1.44,0,0,1-1.83.2,2.12,2.12,0,0,1-.37-2c.38-2.38,1.32-4.6,1.33-7a77.49,77.49,0,0,1,.44-7.77,72.45,72.45,0,0,1,1.86-10.57c.39-1.52.68-3.63,1.74-4.8a6.31,6.31,0,0,1,4.1-2.07,3.43,3.43,0,0,1,1.62.25c1.44.65,2,2.38,2.3,3.92.38,1.76-.09,3.18-.52,4.88s-.91,3.67-1.3,5.53C100.26,77.09,99.73,80,99.3,82.86Z"/><path class="cls-4" d="M92.8,67.4a19.24,19.24,0,0,1,4.86-7.55,6.54,6.54,0,0,0-3,1.87c-1.06,1.17-1.35,3.28-1.74,4.8-.14.51-.26,1-.38,1.54C92.64,67.84,92.72,67.62,92.8,67.4Z"/><path class="cls-2" d="M99.27,83l0-.17,0-.23c-.15.28-.3.55-.47.82-1.38,2.25-3.58,5.31-6.25,6.11a2.83,2.83,0,0,1-.63.13,4.53,4.53,0,0,1-2.27.22c-.16.64-.31,1.29-.41,2a2.12,2.12,0,0,0,.37,2,1.44,1.44,0,0,0,1.83-.2,3.59,3.59,0,0,0,.85-1.8,1.15,1.15,0,0,1,.21-.51.38.38,0,0,1,.49-.09,16,16,0,0,1,.09,3.39,1.13,1.13,0,0,0,0,.58c.33.83,1.66.48,2.19.1a2.72,2.72,0,0,0,.9-1.95c.07-.51.1-1.78.94-1.54s.56,2.25,1.94,2a1.07,1.07,0,0,0,.76-.92,3.38,3.38,0,0,0-.15-1.26A22.73,22.73,0,0,1,99.27,83Z"/><path class="cls-3" d="M96.05,77.46c-.32.17-1.83-.88-2-1a10.58,10.58,0,0,0-2.19-.78.73.73,0,0,1-.54-.32.62.62,0,0,1,0-.33c.08-.76.17-1.52.26-2.28.14-1.17,1.78.75,2.1,1.07a19.53,19.53,0,0,1,1.79,2.07,3.5,3.5,0,0,1,.45.8,2,2,0,0,1,.22.58A.14.14,0,0,1,96.05,77.46Z"/><path class="cls-3" d="M95.3,84l0,0a.3.3,0,0,1-.16,0,2.64,2.64,0,0,1-1-.49c-.41-.21-.83-.4-1.25-.6a7.68,7.68,0,0,0-1.53-.66c-.17,0-.41-.07-.52-.23a1.41,1.41,0,0,1-.11-.59A6.31,6.31,0,0,1,90.79,80c0-.48,0-1,.1-1.47a.11.11,0,0,1,0-.05s.12,0,.16,0a18.65,18.65,0,0,1,1.36,1.31c.45.5.89,1,1.31,1.55a9,9,0,0,1,1.56,2.46A.33.33,0,0,1,95.3,84Z"/><path class="cls-1" d="M55.86,92.54c-3.48-2.68-6.68-5.16-11-6.56a7.55,7.55,0,0,0-3.28-.5A3.15,3.15,0,0,0,39,87.29c-.68,1.73,1.41,4.1,2.81,4.77-2.36.18-4.59.86-4.09,3.71.19,1.1,1.92,3.37,3.18,3.28a5.34,5.34,0,0,0-2,.43c-3.41,1.69-.16,4.22,2,4.92,5,1.63,10.69,2.6,15.42.26A6.74,6.74,0,0,0,59,102.41c2.19-3.38.31-7.22-2.44-9.35Z"/><path class="cls-4" d="M40.35,99h.09l.07,0a5.73,5.73,0,0,1,.16-3.77,5.86,5.86,0,0,1,1.66-2.38,9.15,9.15,0,0,1-.29-2c-.08-2.85,2.4-4.33,4.82-4.08a20.48,20.48,0,0,0-2-.76,7.55,7.55,0,0,0-3.28-.5A3.15,3.15,0,0,0,39,87.29c-.68,1.73,1.41,4.1,2.81,4.77-2.36.18-4.59.86-4.09,3.71A5.34,5.34,0,0,0,40.35,99Z"/><path class="cls-2" d="M53.91,101.44a14.2,14.2,0,0,1-1.8.33,15.64,15.64,0,0,1-10.87,0A14,14,0,0,1,38.11,100a1.62,1.62,0,0,0-.5,2.34,5.55,5.55,0,0,0,3.2,2c5,1.63,10.69,2.6,15.42.26A6.74,6.74,0,0,0,59,102.41a5.77,5.77,0,0,0,.79-4.61A10.87,10.87,0,0,1,53.91,101.44Z"/><path class="cls-6" d="M52.24,94.46c-1.93-.75-5.3-1.32-6.58.84-1.4,2.37-1,5.14,1.73,6.25,2.22.9,5.36,1.17,7.19-.69C56.92,98.49,54.8,95.46,52.24,94.46Z"/><path class="cls-3" d="M117.75,71.2c0-.06-4.14,2.57-4.49,2.83-.72.53-1.41,1.08-2.08,1.65s-1.12,1.12-1.7,1.62c-.16.13-.42.21-.56.08a.46.46,0,0,1-.08-.35,7.38,7.38,0,0,1,.3-1.91,13,13,0,0,1,.75-1.83,15.59,15.59,0,0,1,2.41-3.42A27.06,27.06,0,0,1,116,66.62C116.62,68.14,117.22,69.66,117.75,71.2Z"/><path class="cls-1" d="M118,105c-3.94.68-7.32,1.24-11-1-4-2.42-2.24-7.54.1-10.51,2.5-3.17,6.25-5.56,9.65-7.67,1.22-.75,3.42-2,4.84-1.13,1.75,1.06.69,4.61-.12,6a3.52,3.52,0,0,1,2.39-1.21,2.48,2.48,0,0,1,2.15,1.7,3.94,3.94,0,0,1-.2,2.84,10.52,10.52,0,0,1-1.61,2.42c.54-.65,2.15-.07,2.75.24,2.43,1.3,1,4.07-.69,5.4C124.06,103.9,120.84,104.48,118,105Z"/><path class="cls-4" d="M122,90.6a6.13,6.13,0,0,1,2.92,5,8.38,8.38,0,0,0,1-1.6,3.94,3.94,0,0,0,.2-2.84,2.48,2.48,0,0,0-2.15-1.7,3.16,3.16,0,0,0-2.06.91Z"/><path class="cls-4" d="M121.78,90.21c.75-1.59,1.47-4.57-.12-5.53-1.42-.86-3.62.38-4.84,1.13l-1.59,1A7,7,0,0,1,121.78,90.21Z"/><path class="cls-2" d="M127,96.66a7.74,7.74,0,0,0-.79-.25,21.56,21.56,0,0,1-14.48,6.85,13.1,13.1,0,0,1-6.82-2,4.7,4.7,0,0,0,2.14,2.68c3.65,2.22,7,1.66,11,1,2.8-.49,6-1.07,8.29-2.91C128,100.73,129.45,98,127,96.66Z"/><path class="cls-6" d="M110.28,101.34l.19.13a6.09,6.09,0,0,0,4.48.83,6.75,6.75,0,0,0,3.89-2.42,4.61,4.61,0,0,0,1-2.29c.32-2.76-3.48-4.28-5.74-3.85-2.54.48-6.08,3.62-4.78,6.54A2.68,2.68,0,0,0,110.28,101.34Z"/><path class="cls-3" d="M52.27,22.2S48.41,15.92,47.61,10c-.38-2.79-.4-7.19,3.1-7.69C54.39,1.8,66,5,65.09,10.16c-.42,2.39-4.12,5.2-5.65,7S55,22.4,52.27,22.2Z"/><path class="cls-6" d="M49.87,12.9A12.69,12.69,0,0,0,52,17.75c1.34,1.89,3.44,3.64,5.44,1.8a56.65,56.65,0,0,0,5.89-7A2.87,2.87,0,0,0,64.05,11c0-1.09-1.09-1.82-2.08-2.3C58.78,7.2,54.22,5.06,50.61,5.23A1.35,1.35,0,0,0,49.36,6a2.12,2.12,0,0,0-.07.71A34.39,34.39,0,0,0,49.87,12.9Z"/><path class="cls-7" d="M62,8.71c-.64-.3-1.33-.63-2.06-1-1.1,3-3.87,6.16-7.3,5.75a10.1,10.1,0,0,1-2.77-.74l0,.14A12.69,12.69,0,0,0,52,17.75c1.34,1.89,3.44,3.64,5.44,1.8a56.65,56.65,0,0,0,5.89-7A2.87,2.87,0,0,0,64.05,11C64.08,9.92,63,9.19,62,8.71Z"/><path class="cls-3" d="M58.46,12.94a1.26,1.26,0,0,0-.28-.73A3,3,0,0,0,57,11.53c-1-.44-2.35-2.36-3.36-2.39-1.29,0-.82,3.32-.66,4.25a5.35,5.35,0,0,0,1.74,3.3.9.9,0,0,0,.55.25,1,1,0,0,0,.69-.41q1.34-1.41,2.58-2.91a.67.67,0,0,0,.22-.48.65.65,0,0,0-.17-.34,10.79,10.79,0,0,0-3.44-2.93c-.35-.2-1.59-1-2-.78s-.25,1.25-.23,1.66a3.74,3.74,0,0,0,.6,1.74c.57.95,0,1.37.08,2.33a1.74,1.74,0,0,0,.32.72,2.07,2.07,0,0,0,1.24,1,2,2,0,0,0,1.56-.72,8.58,8.58,0,0,0,1.08-1.25,3.23,3.23,0,0,0,.59-1.15A1.67,1.67,0,0,0,58.46,12.94Z"/><path class="cls-3" d="M92.26,15.4c-2.47-3.3.32-9.89,3.84-11a80.33,80.33,0,0,1,8.25-2.09c1.51-.28,3.29-.5,4.4.58s.93,2.83.69,4.34q-.68,4.34-1.36,8.67a15.9,15.9,0,0,1-.79,3.39c-.79,2-2.73,4.81-5.16,4.63C98.46,23.68,92.27,15.41,92.26,15.4Z"/><path class="cls-6" d="M101.62,18.64c-3.09-1.85-5.5-6.42-5.76-9.5a1,1,0,0,1,.07-.52,1.09,1.09,0,0,1,.44-.38,23.78,23.78,0,0,1,7.21-2.6c1.2-.23,3.13-.83,3.59.79a4.65,4.65,0,0,1,0,1.82c-.37,2.79,1.39,12.16-3.72,11.12A5.84,5.84,0,0,1,101.62,18.64Z"/><path class="cls-7" d="M107.15,8.25c0-.27.08-.54.1-.81q-.24.48-.12.09c-.29.8-.51,1.63-.76,2.44a14.49,14.49,0,0,1-2.76,5.43,8,8,0,0,1-3.22,2.33,8.47,8.47,0,0,0,1.23.91,5.84,5.84,0,0,0,1.81.73C108.54,20.41,106.78,11,107.15,8.25Z"/><path class="cls-3" d="M103.91,13.86c-.27,1.6-.69,3.26-1.48,3.22-1.47-.09-3.21-3-3.86-4.08a1.29,1.29,0,0,1-.23-.86c.26-1.25,2.79-2.44,3.73-3a1.93,1.93,0,0,1,1.56-.38,1.32,1.32,0,0,1,.76,1,3.79,3.79,0,0,1-.11,1.34C104.19,11.62,104.09,12.72,103.91,13.86Z"/><path class="cls-1" d="M111,32.85a8.7,8.7,0,0,1,0,1.35,9.19,9.19,0,0,1-.18.94c-.06.28-.06.57-.13.85a16.17,16.17,0,0,1-2,4.43,17.34,17.34,0,0,1-7.25,6.46,13.11,13.11,0,0,1-1.72.63,22.54,22.54,0,0,1-9.64.17c-3.76-.64-7.52-2.82-11.38-2.15s-7.36,2.53-11.24,3c-3.45.43-8.6.35-11.77-1.2-2.92-1.43-5.72-4.53-7.48-7.22-2.29-3.49-2.34-7-.91-10.85,2.77-7.39,8-14,13.2-19.8C65.4,4,71.77-.49,79.45.26c8.23.79,13.34,6.33,18.68,12a87.89,87.89,0,0,1,7.68,9.11c2,2.86,4.29,5.84,5.09,9.33a4.78,4.78,0,0,1,.09,1.64A4.17,4.17,0,0,0,111,32.85Z"/><path class="cls-2" d="M103.38,39.58c-3.68,4.6-9.81,8.24-15.67,5.1a8.65,8.65,0,0,1-4.4-6.28c0-.06,0-.11,0-.16-.35.06-1,.17-1.15.2l-1.29.3c-.87.22-1.75.44-2.6.74-2.54.88-4.92,2.07-7.37,3.15-5.94,2.61-12.12,4-18.43,1.61-.49-.18-1-.37-1.45-.57a16.88,16.88,0,0,0,4.69,3.67C58.86,48.89,64,49,67.46,48.54c3.88-.48,7.41-2.36,11.24-3S86.32,47,90.08,47.68a22.54,22.54,0,0,0,9.64-.17,12.75,12.75,0,0,0,2.65-1.09,16.83,16.83,0,0,0,4.28-3.36,20.78,20.78,0,0,0,3.65-5,7.34,7.34,0,0,0,.43-1.3c.12-.48.24-1,.34-1.42a11.94,11.94,0,0,0-.09-5,7.89,7.89,0,0,0-.79-2.34,10.71,10.71,0,0,1-.78-1.27c-.16.13-.17.63-.22.82s-.14.59-.22.89c-.16.57-.33,1.14-.51,1.7A30,30,0,0,1,103.38,39.58Z"/><path class="cls-4" d="M79.45.26c-7.68-.75-14,3.75-19,9.21S50.73,21.05,47.86,27.88c2.5-2.48,5-4.93,7.7-7.21A49.73,49.73,0,0,1,71.21,9.6c6.05-2.63,12.21-3.94,18.7-2a52.07,52.07,0,0,1,6,2.27C91.28,5.11,86.51.94,79.45.26Z"/><path class="cls-2" d="M79.65,23.33c-.38,5.1-3.8,9-7.64,8.72s-6.63-4.66-6.25-9.77,3.8-9,7.64-8.73S80,18.22,79.65,23.33Z"/><path class="cls-2" d="M92.07,23.86c-.35,4.68-3.48,8.26-7,8S79,27.59,79.37,22.91s3.48-8.26,7-8S92.42,19.18,92.07,23.86Z"/><path class="cls-8" d="M78.92,22.7c-.36,4.73-3.53,8.35-7.08,8.08s-6.14-4.32-5.79-9,3.53-8.34,7.08-8.08S79.27,18,78.92,22.7Z"/><path class="cls-9" d="M78.79,23.29c-1,2-2.66,3.9-4.83,4.41a7.08,7.08,0,0,1-.88.31,6.38,6.38,0,0,1-6.67-2.5c.83,2.94,2.88,5.08,5.43,5.27,3.44.26,6.52-3.12,7-7.62Z"/><path class="cls-8" d="M91.38,23.24c-.33,4.33-3.22,7.65-6.47,7.4s-5.62-3.95-5.29-8.28,3.22-7.65,6.47-7.41S91.7,18.91,91.38,23.24Z"/><path class="cls-9" d="M90.17,24.14c-1.52,2.28-3.32,4.32-6.26,4.39a5.56,5.56,0,0,1-3.43-1.29,5.53,5.53,0,0,0,4.43,3.4c3.25.25,6.14-3.07,6.47-7.4a10.33,10.33,0,0,0,0-1.24A20.21,20.21,0,0,1,90.17,24.14Z"/><path class="cls-5" d="M88,21.86a2.65,2.65,0,0,1-2.55,2.72,3,3,0,0,1-2.63-2.81,2.42,2.42,0,0,1,1.25-2.53c.29-.13,1.12,2.44,1.45,2.45s.67-2.6.94-2.48A2.8,2.8,0,0,1,88,21.86Z"/><path class="cls-5" d="M74.9,22.13a2.64,2.64,0,1,1-5.25-.58c.13-1.18.59-2.13,1.67-2.38.28-.06.89,2.45,1.18,2.48s.82-2.65,1.14-2.46A3.27,3.27,0,0,1,74.9,22.13Z"/><path class="cls-6" d="M75,48.64c.06,0,.06-.11,0-.1s-.09.09-.1.16A2.48,2.48,0,0,0,75.18,50a5.22,5.22,0,0,0,3,2.83,4.48,4.48,0,0,0,4.06-.62,3.91,3.91,0,0,0,1.46-3.79c-.5-2.35-4.1-2.71-6.44-2.18a3.87,3.87,0,0,0-1.87.94A1.38,1.38,0,0,0,75,48.64Z"/><path class="cls-10" d="M76.5,48.66s0-.08,0-.07-.06.06-.06.11a1.71,1.71,0,0,0,.2.82,3.48,3.48,0,0,0,2.06,1.81,3,3,0,0,0,2.67-.49,2.56,2.56,0,0,0,.89-2.52c-.3-1.24-1.73-2.49-2.73-3.19a1.24,1.24,0,0,0-.36-.19C78.39,44.76,76.11,48.52,76.5,48.66Z"/><path class="cls-11" d="M77.1,48s0-.06,0-.05S77,48,77,48a1.32,1.32,0,0,0,.15.65,2.77,2.77,0,0,0,1.63,1.43,2.32,2.32,0,0,0,2.1-.38,2,2,0,0,0,.71-2,5.48,5.48,0,0,0-2.15-2.52,1,1,0,0,0-.29-.15C78.59,44.88,76.79,47.84,77.1,48Z"/><path class="cls-6" d="M76.4,35.69c-3.15-3.21-6.44-4-11-3.22-4.39.79-7.41,2.69-6.76,7.47.56,4.16,4,7.09,7.88,8.29a14.21,14.21,0,0,0,6.28.52c2.17-.32,3.89-.46,5-2.64a8.2,8.2,0,0,0,.84-3.84c0-1.52.2-3.32.2-4.94,0,.66.35,1.44.41,2.13.2,2.43-.14,4.53,1.27,6.71,3.47,5.34,12.66,2.28,16.07-1.5a7.35,7.35,0,0,0,1.78-6.92c-1.41-5.29-6.56-6.39-11.46-5.26C83.19,33.35,80.3,39.66,76.4,35.69Z"/><path class="cls-12" d="M58.94,41.33c1.71-4.35,5.88-7.57,10.73-7.18a15.82,15.82,0,0,1,8.87,3.61l.32-.14c0-.1,0-.2,0-.29,0,.09,0,.18,0,.28a4.48,4.48,0,0,1,1.43-.35,8.66,8.66,0,0,1,1.25,0l.06,0c.84-.61,1.59-1.41,2.42-2a11.73,11.73,0,0,1,6.57-2.34,13.35,13.35,0,0,1,5.4,1c-2.31-1.9-5.75-2.16-9.08-1.39-3.75.86-6.64,7.17-10.54,3.2-3.15-3.21-6.44-4-11-3.22-4.39.79-7.41,2.69-6.76,7.47A8,8,0,0,0,58.94,41.33Z"/><path class="cls-7" d="M98.4,37.75a5.08,5.08,0,0,0-.18-.59c-2,5.58-7.58,9.67-13.84,8.7-1.78-.28-3.86-.83-4.59-2.65-.59-1.46-.34-3.15-.31-4.64a.26.26,0,0,0-.22-.27v-.06c0-.33-.48-.39-.51-.05a14.46,14.46,0,0,0,0,2.79c-.32,2.93-2.76,4.71-5.48,5.13-3.71.58-7.59.75-11.06-1a11.06,11.06,0,0,1-1.9-1.2,12.26,12.26,0,0,0,6.24,4.27,14.21,14.21,0,0,0,6.28.52,9.73,9.73,0,0,0,6.67-3.62,17.29,17.29,0,0,0,2.37,2.68c1.68,1.28,3.94,1.38,6,1.15a14.49,14.49,0,0,0,8.84-4.29A7.35,7.35,0,0,0,98.4,37.75Z"/><path class="cls-3" d="M88.8,36.93a.77.77,0,1,1-.71-.82A.77.77,0,0,1,88.8,36.93Z"/><path class="cls-3" d="M69.84,41.36a.78.78,0,1,1-.72-.83A.78.78,0,0,1,69.84,41.36Z"/><path class="cls-3" d="M92.77,39.86a1,1,0,1,1-.87-1.1A1,1,0,0,1,92.77,39.86Z"/><path class="cls-3" d="M74.21,38.85a.87.87,0,0,1-.9.84.91.91,0,1,1,.9-.84Z"/><path class="cls-3" d="M88.46,41.37a1,1,0,0,1-1,1,1,1,0,0,1,.16-2A1,1,0,0,1,88.46,41.37Z"/><path class="cls-3" d="M70.27,36.86a1,1,0,1,1-.87-1.09A1,1,0,0,1,70.27,36.86Z"/><path class="cls-13" d="M80.79,31.62c1.24.24,3.09,1.2,2.55,2.76a3.27,3.27,0,0,1-.8,1.15l-2.83,3.08a.82.82,0,0,1-.41.28.7.7,0,0,1-.37-.09,4.81,4.81,0,0,1-1.34-1.17Q76.15,36,74.81,34.27a1.36,1.36,0,0,1-.34-.69c-.08-1.26,2.9-1.75,3.73-1.89A7.78,7.78,0,0,1,80.79,31.62Z"/><path class="cls-3" d="M80.74,32.92c0,.51-.93.93-2.07.93s-2.08-.42-2.08-.93.93-.92,2.08-.92S80.74,32.41,80.74,32.92Z"/><path class="cls-3" d="M49.84,30a24.05,24.05,0,0,1,4.73-1.32c.59-.1,1.12-.08.92-.49a1.87,1.87,0,0,0-.17-.23,3.7,3.7,0,0,0-1.82-.88,9.69,9.69,0,0,0-2.08-.17l-2.09,0a1.66,1.66,0,0,0-1,.22,1.62,1.62,0,0,0-.19.18,34.59,34.59,0,0,0-1.39,3.64C46.94,31.67,49.41,30.15,49.84,30Z"/><path class="cls-3" d="M67.09,3.78a36,36,0,0,0,2.83,2.27c.92.77,1.78,1.57,2.67,2.36.08.07.18.13.26.08a.23.23,0,0,0,.08-.16,2.13,2.13,0,0,0-.22-1.1C72.27,6.11,71.8,5,71.39,3.86c-.16-.44-.34-1.91-.8-2.2a21,21,0,0,0-3.59,2,.06.06,0,0,0,0,0A.34.34,0,0,0,67.09,3.78Z"/><path class="cls-3" d="M47,37a.89.89,0,0,0,.34-.27,10.84,10.84,0,0,1,2.13-1.61,14.25,14.25,0,0,1,4.17-1.4,3,3,0,0,0,.91-.3.93.93,0,0,0,.48-.76,15.94,15.94,0,0,0-4.89-.53,15,15,0,0,0-2.22,0,3.06,3.06,0,0,0-1.47.26.49.49,0,0,0-.13.12,9.36,9.36,0,0,0,.34,4.39A.29.29,0,0,0,47,37Z"/><path class="cls-3" d="M50.44,41.77c.17-.46.35-.93.54-1.38a6.81,6.81,0,0,1,1.88-2.72c.35-.29.79-.64.73-1.1a3.1,3.1,0,0,0-2.1.08,15.25,15.25,0,0,0-2.62,1.05,8.63,8.63,0,0,0-1.1.54.66.66,0,0,0-.34.74,15.76,15.76,0,0,0,1.91,2.75C49.82,42.12,50.25,42.25,50.44,41.77Z"/><path class="cls-3" d="M76.5.42a37,37,0,0,0,.37,5c.2,1.21.34,2.46.64,3.65.08.33.26.74.61.73s.86-2.84.93-3.16a24.75,24.75,0,0,1,1.19-5A3,3,0,0,0,80.66.11,30.56,30.56,0,0,0,76.49,0C76.49.17,76.5.29,76.5.42Z"/><path class="cls-3" d="M85.65,4.05C85.2,5,84.78,6,84.39,7a25.81,25.81,0,0,0-1,3.87,1.12,1.12,0,0,0,0,.48.38.38,0,0,0,.32.32.54.54,0,0,0,.4-.23C85.55,9.9,86.5,7.9,87.75,6.21a12.33,12.33,0,0,1,1-1.27c.27-.28.94-.54.92-.86a22.86,22.86,0,0,0-3.11-1.8l0,0C86.1,2.59,85.91,3.49,85.65,4.05Z"/><path class="cls-3" d="M101.36,31.18a.33.33,0,0,0-.08.32c.06.1.19.11.31.11a6.36,6.36,0,0,0,1.68-.5,21.88,21.88,0,0,1,6.1-1c.38,0,1-.06,1.23-.45a1.73,1.73,0,0,0-.22-1.41l-.27-.54a6.51,6.51,0,0,0-.58-.95c-.21-.26-.53-.74-.88-.63a6.57,6.57,0,0,0-1.2.64c-1.32.76-2.53,1.69-3.81,2.51A8.06,8.06,0,0,0,101.36,31.18Z"/><path class="cls-3" d="M109.58,38.7a1.43,1.43,0,0,0-.54-.43,4.26,4.26,0,0,0-.49-.19c-1.39-.45-4.63-1-5.2-.13a.36.36,0,0,0,.1.44,1.24,1.24,0,0,0,.45.21,6.36,6.36,0,0,1,3.06,3c.14.22.3.46.55.51a17.31,17.31,0,0,0,2.23-2.93A1,1,0,0,0,109.58,38.7Z"/><path class="cls-3" d="M110.91,32.85c-2-1.07-7.21,1.09-8.32,2.12-.07.07-.15.15-.14.25s.2.19.34.2c.75.06,1.52,0,2.28.06a12.18,12.18,0,0,1,5.3,1.51.8.8,0,0,0,.25.11,11.58,11.58,0,0,0,.72-3.89A1.26,1.26,0,0,0,110.91,32.85Z"/></g></g></g></svg>