<svg xmlns="http://www.w3.org/2000/svg" viewBox="0 0 134.78 114.5"><defs><style>.cls-1{fill:#ff967d;}.cls-2{fill:#422525;}.cls-3{fill:#e67e64;}.cls-4{fill:#b04b44;}.cls-5{fill:#fba48b;}.cls-6{fill:#fbddcf;}.cls-7{fill:#fbd1bf;}.cls-8{fill:#fbede7;}.cls-9{fill:#f8f4ee;}.cls-10{fill:#876150;}.cls-11{fill:#593232;}.cls-12{fill:#ebd3c4;}</style></defs><g id="Слой_2" data-name="Слой 2"><g id="animal"><g id="cow"><path class="cls-1" d="M101.41,90.58c1.15.09,6.81-.21,8.52-.31s5.38-.24,5.89-.22.08,2.35.08,2.35l-6.42.66c-1.27.13-7.61,1.48-8.92.93S99.91,90.47,101.41,90.58Z"/><path class="cls-2" d="M114.14,90a51.78,51.78,0,0,1,6.37,0,23.62,23.62,0,0,1,6.37,2.33c.82.44,1.69.86,2.41,1.17s1.48.26,2,.67-1.19.41-1.26,1,2.66.68,3.26.68-.39.44-.54.74-3.46-.15-3.84.22.82,1,1.71,1.38a22.44,22.44,0,0,0,3.93,1.37c.52,0,.29.81-.89.74s-6.15-1.92-8.3-2.85-4.23-1.9-4.08-1.53a15.18,15.18,0,0,0,3.21,2.67c.57.23.13.52-1.21.23s-3.48-1.93-5.63-3-4.82-1.85-5.11-2.93S113.76,90.05,114.14,90Z"/><path class="cls-1" d="M40.84,48.36S31.28,57.11,29,69.63a29.52,29.52,0,0,0,0,12.38,24.31,24.31,0,0,0,5.25,10.12,22,22,0,0,0,5,4c.86.52,1.73.88,2.57,1.45a27.4,27.4,0,0,0,2.73,1.68,54.78,54.78,0,0,0,22.64,5.44c11.29.47,25.67-3.75,29.53-7s9.58-8.61,6.34-20S86.68,50,84,48.1,51.81,41,40.84,48.36Z"/><path class="cls-3" d="M103.14,77.61C99.89,66.19,86.68,50,84,48.1a9.68,9.68,0,0,0-2.69-1,34.28,34.28,0,0,1,9.37,16.42c2.89,11.38,5,16.73-.07,24.89C85.4,96.79,74.24,98.15,63,98.94c-7.3.52-15.8-1.49-20.88-3a4,4,0,0,1-1,1.19c6.92,4.56,16.12,7.1,26.2,7.52,11.29.47,26.14-3.74,30-7S106.38,89,103.14,77.61Z"/><path class="cls-4" d="M52.24,67.76c.28,4.37,8.12,1.37,7.47,5.42-.88,5.5-7.26,4.21-7.31,8.08s-.26,5-3.27,4.63-5-4-2.51-7.71c3.5-5.16-2.19-6.47-2.49-9.48s6.13-11.18,8-8.87C54.93,63.15,52.24,67.76,52.24,67.76Zm23.45,2.86c3.69.85,7.73-1.14,8.8-3.43s3-6.21,3-8.26-.71-5.3-3-5.42-4.6.3-5.84,2.17-.23,3.13-2,4.94-5.43,1.57-6.76,4.59C68.73,67.77,72,69.78,75.69,70.62Zm24,24.73a20.29,20.29,0,0,1,.09-3c.27-3.24-4.07-4.22-5-6.26s1.42-4.82,2.61-6.27,1.67-4.22,1.2-6.51-3.1-.6-4.71-2.29-1.72-5.3-1.48-8.31A13.74,13.74,0,0,1,93,58.79c4.16,5.81,8.86,12.93,10.53,18.82C106.13,86.71,103,91.93,99.7,95.35ZM35.75,63.15c.23,2.41,3,12.89,1.9,14.34s-4.13-3.68-6.23-2.86S29,80.14,29.91,82.19a13.8,13.8,0,0,1,1.49,5.75c-2.87-4.69-4.17-10.58-2.78-18.31,2.26-12.52,11.81-21.27,11.81-21.27.26-.18.54-.34.82-.5A13.7,13.7,0,0,1,42.6,53c-.07,3.37-.19,3.62-3,4.7S35.51,60.74,35.75,63.15Z"/><path class="cls-2" d="M44.61,20.33c-1.84-.13-3-5.73-2.28-9.59.41-2.39,2.09-4.64,3.11-6.59.62-1.19.65-2.6,1-2.89C47.37.49,48.17,1,48.7,2.41A14.49,14.49,0,0,1,50,8a26.42,26.42,0,0,1-.39,5.73C49.36,15.21,48.09,20.59,44.61,20.33Z"/><path class="cls-2" d="M77.92,19.43c2-.14,3.11-5.73,2.41-9.59-.43-2.39-2.21-4.64-3.28-6.59-.65-1.19-.68-2.6-1-2.89C75-.41,74.18.1,73.62,1.51a13.76,13.76,0,0,0-1.4,5.63,24.84,24.84,0,0,0,.42,5.73C72.92,14.31,74.26,19.69,77.92,19.43Z"/><path class="cls-2" d="M77,17.8c1.42-.11,2.27-4.77,1.76-8-.26-1.6-1.52-3.36-2.16-4.85s-.77-2.62-1-3c-.71-1.24-1.33-.55-1.74,1a14.66,14.66,0,0,0-1,4.68,24,24,0,0,0,.31,4.77C73.34,13.54,74.32,18,77,17.8Z"/><path class="cls-1" d="M45.11,17.09s-.56-3.41-5.09-4.65-14-2.5-20.24-1S3.26,20.84,1.56,22s-2,2.83-.9,3.74,8.94.68,12.1,1,14.37-.23,17.31,0,7.8-1,9.61-2.28S45.11,17.09,45.11,17.09Z"/><path class="cls-1" d="M77.48,15.8s1.35-3.16,6.4-3.15,15.36,1.37,21.6,4.48,15.35,13.64,16.89,15.2,1.53,3.31.13,3.89-7.24.75-10.69.75a38.05,38.05,0,0,1-15-3.66c-2.91-1.42-13.58-7.16-15.22-8.86S77.48,15.8,77.48,15.8Z"/><path class="cls-3" d="M121.68,31.59c-3.65,1.52-8.76,1.06-12.42.73A48.81,48.81,0,0,1,94.1,28.08c-4-1.74-10.13-3.64-14.41-6.85a14.11,14.11,0,0,0,1.89,3.22c1.64,1.7,12.31,7.44,15.22,8.86a38.05,38.05,0,0,0,15,3.66c3.45,0,9.3-.18,10.69-.75s1.42-2.33-.13-3.89Z"/><path class="cls-1" d="M37.13,34s1.48-9.6,6.43-15.76S54.47,8.16,62.54,8a19.87,19.87,0,0,1,16.7,8.76c2.45,4,6,12.56,6.2,14S71.86,42.41,71.68,42.35s-21-1.63-21-1.63Z"/><path class="cls-5" d="M62.54,8c-8.07.12-14,4.05-19,10.21S37.13,34,37.13,34l.41.76c1.16-3.17,3.64-6.44,5.92-10.2,4.93-8.13,12-12.8,21.58-12.31,2.85.14,8.18,1.2,10.61.5A20.11,20.11,0,0,0,62.54,8Z"/><path class="cls-6" d="M62.27,27.74c4.54,0,12.58-.49,17.82.62s10.48,5.56,10.83,11-.81,8.45-4.19,10.3S76.25,51.73,71.82,51.5s-6.29-.89-11.18.08S47.83,54.86,42.24,53s-10.72-8.68-8.86-14S42,28.51,47.48,27.74,62.27,27.74,62.27,27.74Z"/><path class="cls-2" d="M52.23,36.42c-.07,1.46-2,2.55-4.32,2.43s-4.13-1.4-4.07-2.86,2-2.55,4.32-2.43S52.29,35,52.23,36.42Z"/><path class="cls-2" d="M81,36.76c0,1.46-1.88,2.65-4.2,2.65s-4.2-1.19-4.2-2.65,1.88-2.65,4.2-2.65S81,35.3,81,36.76Z"/><path class="cls-4" d="M26.66,18c-3.13,1.28-5.9,4.35-8.43,3.45s1.68-3.22-.72-3.72S11.12,20,8.35,20.84c-1.16.38-2-.61-2.85-1.67C3.57,20.52,2.12,21.61,1.56,22c-1.69,1.13-2,2.83-.9,3.74s8.94.68,12.1,1c2.65.28,10.93-.07,15.28-.06a5,5,0,0,0,1.39-3.16C29.67,20.33,29.79,16.75,26.66,18Z"/><path class="cls-4" d="M35.25,11.45a48.78,48.78,0,0,0-13.86-.35,4,4,0,0,0,2.5,2.45c3.13.89,4.1-1.19,7.59-1.67C32.69,11.72,34.06,11.62,35.25,11.45Z"/><path class="cls-4" d="M115.42,27.88a12.54,12.54,0,0,0,2.12-.7c-3.56-3.66-8.32-8.18-12.06-10-4-2-9.68-3.27-14.57-3.93.46,3,.75,6.58,3.56,9.08,3.13,2.79,4.18.54,6.54,0s3.81-.82,6,1.37S112.05,28.65,115.42,27.88Z"/><path class="cls-7" d="M88.86,34a17.79,17.79,0,0,1-.5,4.89c-1.12,4.1-2,7.94-11.58,9.22a79.77,79.77,0,0,0-12.88,3c2.75-.2,4.63.21,7.92.38,4.43.23,11.53,0,14.91-1.85s4.54-4.86,4.19-10.3A10.21,10.21,0,0,0,88.86,34Z"/><path class="cls-8" d="M56.54,27.44a59.55,59.55,0,0,0-9.06.3C42,28.51,35.25,33.68,33.38,39c-1.48,4.23,1.46,9.4,5.53,12.28-1.44-3.13-2.54-6.79-1.78-9.75,1.69-6.53,4-10.2,11.16-12.16C51.22,28.57,54.13,27.93,56.54,27.44Z"/><path class="cls-3" d="M55.26,7.16c3.22-.12,8.44,2,8,9.73s-5.1,8.18-7.43,8.3S48.6,20.64,49.1,14.43A8,8,0,0,1,55.26,7.16Zm8.41,8c0,5.21,3.25,9.82,6.14,9.7S75.16,22,76,17.65,72.14,7.53,69.26,7.83C67,8.07,63.69,10,63.67,15.17Z"/><path class="cls-9" d="M54.91,6.25c3.13-.12,8.21,2,7.78,9.47s-5,8-7.24,8.09-7-4.43-6.54-10.48A7.73,7.73,0,0,1,54.91,6.25Zm8.8,8.13c0,5,3.11,9.4,5.88,9.28s5.12-2.71,5.88-6.91-3.65-9.69-6.41-9.4C66.93,7.58,63.73,9.39,63.71,14.38Z"/><path class="cls-6" d="M64.1,71.36C58,71,51.69,73.1,48.3,77.8s-6.56,9.76-3.74,17.3a17.88,17.88,0,0,0,2.9,5.12,53.21,53.21,0,0,0,20.17,4.58A59.89,59.89,0,0,0,85,102.57a11.51,11.51,0,0,0,1.84-3.2c2.1-5.55.8-10.92-3.61-18.13C79.39,74.88,70.26,71.74,64.1,71.36Z"/><path id="cow-2" data-name="cow" class="cls-10" d="M42.63,46a.83.83,0,0,1,.39.23,18.37,18.37,0,0,0,2.3,1.93c.35.19.71.41,1.11.59s.81.36,1.24.54.86.32,1.31.44.9.24,1.35.35.9.18,1.33.24a19.89,19.89,0,0,0,2.38.2c.35,0,.67,0,1,0s.65-.13,1-.17.48.09.44.3-1.2.56-1.53.66a6.53,6.53,0,0,1-2.06.23c-.43,0-.88,0-1.34,0s-.94-.11-1.43-.18a12.67,12.67,0,0,1-1.45-.34,11.1,11.1,0,0,1-1.41-.47,10.67,10.67,0,0,1-1.32-.62,12.58,12.58,0,0,1-1.15-.72,11.33,11.33,0,0,1-.95-.78,7,7,0,0,1-.71-.76,5,5,0,0,1-.49-.63c-.12-.2-.55-1,0-1Z"/><path class="cls-7" d="M86.81,99.37a14.6,14.6,0,0,0,.7-8c-6.79,4.53-15.43,7-24.63,7.61-5.92.42-12.61-.82-17.64-2.09a19.68,19.68,0,0,0,2.21,3.57,52.85,52.85,0,0,0,20.1,4.38A59.89,59.89,0,0,0,85,102.57,11.54,11.54,0,0,0,86.81,99.37Z"/><path class="cls-1" d="M40.8,95.08c-4.23,0-14.7,1.58-18.91,3.44s-11.27,5.91-11.16,7.55,3.76.93,3.76.93a4,4,0,0,0-.34,3.29c.68,1.53,2.9.18,3.7-.26s4.15-3.56,8.6-4.76,11.94-2.63,14.74-2.63,6.59-.13,7.77-1.33S45.59,95.08,40.8,95.08Z"/><path class="cls-1" d="M84.35,101.73c.38-1.19,1.59-2.41,5.65-2.83a61.48,61.48,0,0,1,15,.4c4.71.81,9.77,4,11.67,5s4,3.2,4,4-1.61,1.39-4,1c0,0,1.15,4.2-.77,4.67s-6.44-4.21-9.44-5.7-14.78-3.3-17.36-3.65S84.11,102.5,84.35,101.73Z"/><path class="cls-11" d="M116.79,114.46c1.88-.5.66-4.6.66-4.6,2.33.29,3.88-.31,3.88-1.11s-1.67-3.2-3.55-4.1c-.64-.31-1.83-.87-3.3-1.5a15.34,15.34,0,0,1-1.25,3.67,14.86,14.86,0,0,1-3.08,4C112.69,112.58,115.43,114.82,116.79,114.46Z"/><path class="cls-2" d="M111.2,109.71c-.35.38-.7.74-1,1.07,2.54,1.8,5.28,4,6.64,3.68,1.88-.5.66-4.6.66-4.6,2.33.29,3.88-.31,3.88-1.11a3.43,3.43,0,0,0-.71-1.53C117.84,108.91,114.27,110.48,111.2,109.71Z"/><path class="cls-11" d="M18.09,106a6.66,6.66,0,0,1-1.95-4.57c-3.32,1.85-6.46,4-6.39,5.11.12,1.6,3.68.9,3.68.9a4.63,4.63,0,0,0-.34,3.22c.54,1.57,2.69.94,4,0A45.46,45.46,0,0,1,20.79,108,32.51,32.51,0,0,1,18.09,106Z"/><path class="cls-2" d="M10.08,105.76a1.23,1.23,0,0,0-.32.78c.11,1.6,3.67.9,3.67.9a4.63,4.63,0,0,0-.34,3.22c.54,1.57,2.69.94,4,0A45.46,45.46,0,0,1,20.79,108c-.59-.47-1.67-1.13-2.45-1.8C15.57,106.88,12.32,107,10.08,105.76Z"/><path class="cls-1" d="M43.13,60c-1.35.32-3,3-3.4,5.26s1.44,11.65,2.91,14.78,4.94,10.56,6.5,12c1.11,1.05,2.8,2.16,3.15,1.38a8.32,8.32,0,0,0,0-3s1.73,1.16,3,.47-.05-2.72-.48-3.7-4.63-9.46-5.3-12.37c0,0-1.72-6.56-1.93-8.67S45.92,59.35,43.13,60Z"/><path class="cls-11" d="M53.28,83.67c-.8.69-2.05,1.46-3,2.23A10.54,10.54,0,0,1,46.4,88a25.33,25.33,0,0,0,2.79,4.43c1.13,1,2.85,1.66,3.2.94a7.05,7.05,0,0,0,0-2.8s1.76,1.09,3,.44.3-2.53-.14-3.44C55.11,87.21,54.26,85.6,53.28,83.67Z"/><path class="cls-2" d="M46.52,88l-.12,0a25.33,25.33,0,0,0,2.79,4.43c1.13,1,2.85,1.66,3.2.94a7.05,7.05,0,0,0,0-2.8s1.76,1.09,3,.44c.81-.41.71-1.32.42-2.17C52.82,90.12,48.87,90.05,46.52,88Z"/><path class="cls-5" d="M43.55,80c-1.77-6.39-1.55-10.18-.76-13.25.68-2.65,2.69-3,4.14-3.25-.68-2.21-1.92-3.94-3.8-3.5-3.07.72-3,3-3.4,5.26s1.44,11.65,2.91,14.78c.62,1.32,1.59,3.4,2.63,5.48C44.75,84.06,44.16,82.23,43.55,80Z"/><path class="cls-1" d="M83.75,59.14c1.43.32,3.21,3.77,3.66,6s-1.54,11.64-3.1,14.78-5.21,10.55-6.87,12c-1.17,1.06-3,2.16-3.33,1.38a7.87,7.87,0,0,1,0-3s-1.83,1.16-3.16.47.06-2.71.51-3.7,4.9-9.46,5.6-12.37c0,0,1.82-6.56,2-8.66S80.8,58.47,83.75,59.14Z"/><path class="cls-3" d="M87.41,65.12a10.82,10.82,0,0,0-1.61-3.94C85.53,65,85,70,83.54,74c-1.8,4.82-8.67,18.1-8.67,18.1l-.57,1.43c.59.32,2.11-.64,3.15-1.58,1.65-1.48,5.31-8.9,6.86-12S87.86,67.34,87.41,65.12Z"/><path class="cls-11" d="M73.06,83.45c.82.72,2.1,1.54,3,2.36a11,11,0,0,0,4,2.24c-1.11,2-1.81,3.68-2.51,4.3-1.16,1-3.26,1.77-3.63,1a6,6,0,0,1,0-2.59s-1.8,1.14-3.1.46-.3-2.67.14-3.64C71.19,87.18,72.06,85.49,73.06,83.45Z"/><path class="cls-2" d="M70.25,89.65a1.34,1.34,0,0,0,.61,1.57c1.3.68,3.1-.46,3.1-.46a6,6,0,0,0,0,2.59c.37.77,2.47,0,3.63-1,.7-.62,1.4-2.32,2.51-4.3a11.39,11.39,0,0,1-2.63-1.21C75.38,88.92,72.8,90.46,70.25,89.65Z"/><path class="cls-4" d="M32.7,99.93c3.07.69,5.29-.48,6.34-2.66a5.12,5.12,0,0,0,.54-2.15c-5,0-13,1.2-16.86,2.9-1.15.5-3.33,1.67-4.7,2.41a5,5,0,0,0,2.34.48c2.57-.13,3.53-1.87,5.78-2S29.63,99.24,32.7,99.93Z"/><path class="cls-5" d="M105,99.3a61.48,61.48,0,0,0-15-.4c-4.06.42-5.27,1.64-5.64,2.83,3.29,3,8.08.31,16.65-.82,4.82-.63,8.11.67,9.38.13A23.46,23.46,0,0,0,105,99.3Z"/><path class="cls-12" d="M69.63,21.05A6.89,6.89,0,0,1,65,19.94c1.16,2.27,2.92,3.79,4.55,3.72,2.77-.11,5.12-2.71,5.88-6.91a5.5,5.5,0,0,0,.08-1.08C74.36,18.11,72.43,20.82,69.63,21.05Z"/><path class="cls-12" d="M55.79,21.54c-2.16.29-4.33-1.29-6-3.09,1.39,3.31,4.13,5.44,5.7,5.36,2.06-.1,6-.5,7-6.25A10,10,0,0,1,55.79,21.54Z"/><path class="cls-2" d="M59.84,16.48a2.86,2.86,0,1,1-5.7,0,3,3,0,0,1,1.93-2.87c.29-.1.6,2.63.92,2.63s.64-2.73.92-2.62A3,3,0,0,1,59.84,16.48Z"/><path class="cls-2" d="M71.88,16.46A2.9,2.9,0,1,1,68,13.78c.3-.1.75,2.45,1.1,2.45s.5-2.56.78-2.47A2.85,2.85,0,0,1,71.88,16.46Z"/><path class="cls-11" d="M44.26,12.37a1.62,1.62,0,0,0,1.6-.34,5.59,5.59,0,0,0,2-3.34c.43-1.94.93-5.18-.27-6.9-1,.93-1.19,3.28-1.92,4.52-.83,1.39-1.9,2.73-2,4.4A1.62,1.62,0,0,0,44.26,12.37Z"/><path class="cls-11" d="M74.39,9.62a1.47,1.47,0,0,0,.9.29,1.39,1.39,0,0,0,1.13-1,4.14,4.14,0,0,0,0-1.61q-.3-2.86-.59-5.74h-.73a9.55,9.55,0,0,0-1.8,4.92,5,5,0,0,0-.08,1.33A2.67,2.67,0,0,0,74.39,9.62Z"/></g></g></g></svg>