<svg xmlns="http://www.w3.org/2000/svg" viewBox="0 0 111.07 90.62"><defs><style>.cls-1{fill:#5d2422;}.cls-2{fill:#f5d0b8;}.cls-3{fill:#ffdec9;}.cls-4{fill:#e7b694;}.cls-5{fill:#f9efe0;}.cls-6{fill:#a76050;}.cls-7{fill:#f3dccc;}.cls-8{fill:#c2745f;}.cls-9{fill:#fbf6f6;}.cls-10{fill:#e6dbd8;}.cls-11{fill:#491b04;}.cls-12{fill:#924e3f;}.cls-13{fill:#804437;}.cls-14{fill:#823e2f;}.cls-15{fill:#401803;}.cls-16{fill:#6b2b29;}</style></defs><g id="Слой_2" data-name="Слой 2"><g id="animal"><g id="dog"><path class="cls-1" d="M100.31,51.21s3-.09,4.48-2a5.32,5.32,0,0,0-.33-6.43c-1.45-1.78-3.13-2-4.15-2.39s-2.72-.41-2.38-1.59,2.21-2.2,5.14-1.7c3.48.59,6.85,2.4,7.87,9s-4.53,11-4.53,11a19.19,19.19,0,0,1-3.85,1.78C101.4,59,100.31,51.21,100.31,51.21Z"/><path class="cls-2" d="M81.31,39.57s11.31,2.4,15.77,8,6.86,14.36,7.18,16.86-5.54,16-12.18,17.84a60.6,60.6,0,0,1-26.66,1l-8.92-.54a67.53,67.53,0,0,1-11.86,1c-6-.11-13.16-2.18-16.21-4.57s-5.66-12.19-5.77-18.5.87-9.25,2.83-11.53S69.56,38.16,81.31,39.57Z"/><path class="cls-3" d="M101.79,58.86a19,19,0,0,0-1.51-2.75A35.81,35.81,0,0,0,90.54,46c-5.23-3.57-11.3-5.11-17.49-5.64-.93-.18-1.85-.32-2.78-.44a57.76,57.76,0,0,1,11-.31s11.31,2.4,15.77,8c3.42,4.25,5.63,10.42,6.62,14.2A25.88,25.88,0,0,0,101.79,58.86Z"/><path class="cls-4" d="M32.19,71.37c6.47,5.38,25.9,6.57,31.28,5.3s12.28-.37,24.81,0c4.25.13,5.82,2,6,4.48a8,8,0,0,1-2.25,1.07,60.6,60.6,0,0,1-26.66,1l-8.92-.54a67.53,67.53,0,0,1-11.86,1c-6-.11-13.16-2.18-16.21-4.57s-5.66-12.19-5.77-18.5.87-9.25,2.83-11.53a2.16,2.16,0,0,1,.7-.44h.34C26.4,50,25.73,66,32.19,71.37Z"/><path class="cls-5" d="M31.08,64.79c4-2.69,8.63-2,14.45-.45s11.55,8.18,15.36,9.53,12.21-.56,15.57-2.24,8.63-.9,11.88,1.23,4.1,9.08,4.1,9.1c-.42.2.06.37-.36.49a60.75,60.75,0,0,1-26.66,1l-8.92-.55a67.53,67.53,0,0,1-11.86,1c-6-.11-13.16-2.17-16.21-4.57-1.37-1.08-2.38-3.05-3.38-6.14C25.34,70.46,27,67.48,31.08,64.79Z"/><path class="cls-6" d="M84.89,48.59c.43.09.79,1.75,2.82,1.93a38,38,0,0,1,6.42.7c1.76.53,4.13,1.94,4.66,4.58s0,3.43-2.11,3.87-3.77-.52-4.74.4a9.24,9.24,0,0,1-6.52,2.77c-3.61.08-8.27-1.31-8.18-2.77s2.11-1.86,3-3.46a6.28,6.28,0,0,0,.88-4.07C81,51,82.08,48,84.89,48.59Z"/><path class="cls-7" d="M28.88,66.53a12.45,12.45,0,0,0,3.31,4.84c6.47,5.38,25.9,6.57,31.28,5.3s12.28-.37,24.81,0a9.69,9.69,0,0,1,3,.51A23.68,23.68,0,0,1,92.44,82c-.15.07-.18.14-.18.2l-.18.06a60.6,60.6,0,0,1-26.66,1l-8.92-.54a67.53,67.53,0,0,1-11.86,1c-6-.11-13.16-2.18-16.21-4.57A12.06,12.06,0,0,1,25,72.86,13.22,13.22,0,0,1,28.88,66.53Z"/><path class="cls-1" d="M28.39,10.28c-.53-1.64-4.78-7.48-7.24-8.51S14.72-.78,10.05,1c-3,1.16-6.81,2.51-9,5.05C-1.27,8.85.45,11.7,4,11.53a20.62,20.62,0,0,0,8.51-2.69c1.79-.94,4.88-3.07,7-2.65s4.72,2.54,5.24,4A12.22,12.22,0,0,0,26.43,13Z"/><path class="cls-1" d="M71,13.49s.59-2,1.46-4.26c.43-1.15.93-2.38,1.46-3.48A13.44,13.44,0,0,1,75.56,3C77.72.46,80.69-.64,85,.37A23,23,0,0,1,90,2.3c.88.45,1.76,1,2.61,1.5,2.47,1.59,6.23,4.11,6.09,7.47-.16,3.86-5.74,3.33-8.24,2.23a18.74,18.74,0,0,1-5-3.75c-1.15-1.09-2.85-3.54-4.59-3.62a4.59,4.59,0,0,0-3,1.34,7.87,7.87,0,0,0-2,2.54,15,15,0,0,1-2.28,3.53C72.89,14.54,70.63,14.71,71,13.49Z"/><path class="cls-2" d="M47,1.44c5.65-.28,11.16,1.35,16.65,3.82A34.77,34.77,0,0,1,68.6,8a43.94,43.94,0,0,1,10.72,9.8c4.65,6,9.48,16.59,5.27,24a31.78,31.78,0,0,1-5.23,6.37c-4,4-8.15,5.25-13.49,5.38-2.63.07-4.89,1-7.41,0-3-1.2-5.66-3.2-8.55-4.62-3.86-1.88-8.5-2.95-12.26-.85-1.58.88-2.9,2.27-4.56,3-6.94,2.86-13.51-4.48-15.25-10.87-2-7.34,1.26-15.31,4.56-21.77A32,32,0,0,1,39.74,2.89,24.52,24.52,0,0,1,47,1.44Z"/><path class="cls-3" d="M78.29,18.44A58.61,58.61,0,0,0,54.51,6a42.06,42.06,0,0,0-20.12-.58,30.18,30.18,0,0,1,5.35-2.56A24.52,24.52,0,0,1,47,1.44c5.65-.28,11.16,1.35,16.65,3.82A34.77,34.77,0,0,1,68.6,8a43.94,43.94,0,0,1,10.72,9.8,37.34,37.34,0,0,1,3.11,4.76A42.22,42.22,0,0,0,78.29,18.44Z"/><path class="cls-4" d="M62.09,50.68C72,48,81.72,40.92,85.78,31.3a15,15,0,0,1-1.19,10.51,31.78,31.78,0,0,1-5.23,6.37c-4,4-8.15,5.25-13.49,5.38-2.63.07-4.89,1-7.41,0A28,28,0,0,1,55.17,52,43,43,0,0,0,62.09,50.68Z"/><path class="cls-4" d="M19.05,26a45.24,45.24,0,0,1,2.34-5.57,12.14,12.14,0,0,1,1.26-1.82,9.15,9.15,0,0,0,1.16-1.8c-1.14,2.64-1.1,5.53-1.8,8.27-.93,3.62-.41,7.45.37,11.11C23.06,39.33,24,42.54,26,45a16.22,16.22,0,0,0,7.5,4.65,7.55,7.55,0,0,0-.29.84c-.05.19-.09.38-.12.56h0c-6.94,2.86-13.51-4.48-15.25-10.87C16.55,35.48,17.46,30.53,19.05,26Z"/><path class="cls-6" d="M56.63,5.43a3.41,3.41,0,0,1,2.53-.81A16.14,16.14,0,0,1,64.56,6a23.17,23.17,0,0,1,4.85,2.82c6,4.32,17.4,13.84,11.31,18.79C77.29,30.31,71.2,24.21,65.1,25c-5.71.38-6.47-5.34-5.92-10-.92-1.81-2.39-3.3-3.17-5.17A3.78,3.78,0,0,1,56.63,5.43Z"/><path class="cls-8" d="M78.29,18.44a58.28,58.28,0,0,0-22.38-12,2.84,2.84,0,0,1,.72-1,3.41,3.41,0,0,1,2.53-.81A16.14,16.14,0,0,1,64.56,6a23.17,23.17,0,0,1,4.85,2.82c4.16,3,11,8.53,12.65,13.28A43.61,43.61,0,0,0,78.29,18.44Z"/><path class="cls-4" d="M47.59,48a23.7,23.7,0,0,1,2.32,1c1.79.88,3.5,2,5.26,3a50.22,50.22,0,0,1-5.62.25A7,7,0,0,0,47.59,48Z"/><path class="cls-4" d="M51.88,14.77c4.52-.32,7.12,3.93,7.58,7.92a8.28,8.28,0,0,1-7.83,9.51C41.5,32.78,43,15.39,51.88,14.77Z"/><path class="cls-4" d="M33.38,30.54c3.69,1.16,7.53-.13,8.88-4,1.29-3.71.16-8.91-3.57-10.7-8.14-3.92-14.5,11.82-5.31,14.7C39.11,32.34,29.57,29.35,33.38,30.54Z"/><path class="cls-9" d="M51.64,14.65c4.18-.29,6.59,3.64,7,7.34a7.67,7.67,0,0,1-7.25,8.8C42,31.33,43.39,15.23,51.64,14.65Z"/><path class="cls-10" d="M57.9,24.64a8.07,8.07,0,0,1-1.41,2,6.94,6.94,0,0,1-6.74,1.8A7.17,7.17,0,0,1,45.41,25a10,10,0,0,1-.51-1.09C45,27.63,47,31,51.41,30.79a7.6,7.6,0,0,0,7.25-6.73A6.1,6.1,0,0,1,57.9,24.64Z"/><path class="cls-11" d="M49.67,21.33a2.94,2.94,0,1,0,5.88,0,3.08,3.08,0,0,0-1.79-2.82c-.35-.15-.74,2.23-1.15,2.23s-.7-2.4-1-2.28A3.06,3.06,0,0,0,49.67,21.33Z"/><path class="cls-9" d="M33.3,29.23c3.42,1.07,7-.12,8.23-3.7s.15-8.25-3.31-9.91C30.69,12,24.8,26.57,33.3,29.23,38.61,30.9,29.77,28.13,33.3,29.23Z"/><path class="cls-10" d="M41.77,22.76a6.53,6.53,0,0,1-12.62-.12c-.24,2.82.91,5.57,4.15,6.59L32.48,29l.82.26,1.14.36-1.13-.36c3.41,1.07,7-.12,8.22-3.7A9.15,9.15,0,0,0,42,22.05C41.91,22.29,41.83,22.52,41.77,22.76Z"/><path class="cls-11" d="M33.61,21a3.06,3.06,0,0,0,2.89,3,2.84,2.84,0,0,0,1.36-5.35c-.33-.17-.81,2.1-1.22,2.08s-.52-2.34-.81-2.26A2.76,2.76,0,0,0,33.61,21Z"/><path class="cls-12" d="M30.34,79.66a14.43,14.43,0,0,1,3.89-.49,5.61,5.61,0,0,1,3.7,3.48c.48,1.62.47,3.42-.59,4.45s-1.91,1.11-2.51.86a3.77,3.77,0,0,1-1.12-.72c-.17-.17-.44-1.47-.63-1.55s-.06,1.45-.2,1.63a3.64,3.64,0,0,1-1.25,1.27,2,2,0,0,1-2.41-.21c-.23-.2-.36-.68-.52-.87s-.38-1.64-.52-1.47a10.73,10.73,0,0,0-.1,1.74,1.7,1.7,0,0,1-1.51,1.41c-1.44,0-2.49-1.46-3.22-3a36,36,0,0,1-1.68-10.92c.24-2.64.57-9.5,1.18-11.22.16-.42.67,1.17.7,1.28.48,1.47.83,3,1.27,4.46a32.63,32.63,0,0,0,4.94,10.35C29.61,80,29.87,79.81,30.34,79.66Z"/><path class="cls-13" d="M38,82.92A4.78,4.78,0,0,1,36.45,85a3.22,3.22,0,0,1-3.53.31,4.57,4.57,0,0,1-3.23.76,3.51,3.51,0,0,1-1.57-.64c-1.4.78-3.45-.66-4.36-1.83A15.81,15.81,0,0,1,22.11,81a25.68,25.68,0,0,0,1.24,5.28c.73,1.49,1.78,3,3.22,3a1.7,1.7,0,0,0,1.51-1.41,10.73,10.73,0,0,1,.1-1.74c.14-.17.4,1.33.52,1.47s.29.67.52.87a2,2,0,0,0,2.41.21,3.64,3.64,0,0,0,1.25-1.27c.14-.18,0-1.71.2-1.63s.46,1.38.63,1.55a3.77,3.77,0,0,0,1.12.72c.6.25,1.46.16,2.51-.86S38.4,84.47,38,82.92Z"/><path class="cls-6" d="M101.73,83.82s6.42-6.8,6.82-10.8-.53-8-4.28-9.62-6.66-.95-8.51.84S93.52,71.66,92.63,74s-3.11,7.89-3.15,9S98.25,85.82,101.73,83.82Z"/><path class="cls-8" d="M96.34,66.51c3-2,7.2-1.16,9.69,1.25a10,10,0,0,1,2.59,4c.1-3.58-1-7-4.35-8.41-3.75-1.61-6.66-.95-8.51.84A8.71,8.71,0,0,0,94,68.12l.41-.15A16.28,16.28,0,0,1,96.34,66.51Z"/><path class="cls-6" d="M99,81.56c1,.13,4.47.68,5.52,2.38s.82,4.64-.7,5.61a3.64,3.64,0,0,1-3.23-.11c-.58-.29-2.07-1-2.21-1.56-1,1.48-2.24,2.84-4.15,2.73s-4-1.34-4.18-3.37c-.9.8-2.84,1.38-3.85.43-.82-.78-.06-2.92.65-3.53C87.75,83.41,92.23,80.64,99,81.56Z"/><path class="cls-13" d="M104.6,84a10,10,0,0,1-.68,1.2,5.66,5.66,0,0,1-6.22,2.51,5.59,5.59,0,0,1-4.94.68A6,6,0,0,1,90,86.6a4.56,4.56,0,0,1-.62-.13,3.08,3.08,0,0,1-1.3-.23,3.77,3.77,0,0,1-1.67-1.39c-.48.89-.76,2.23-.14,2.82,1,1,3,.37,3.85-.43.13,2,2.32,3.27,4.18,3.37s3.18-1.25,4.15-2.73c.14.57,1.63,1.27,2.21,1.56a3.64,3.64,0,0,0,3.23.11C105.36,88.6,105.6,85.73,104.6,84Z"/><path class="cls-6" d="M60.1,82.21A24.58,24.58,0,0,0,62,75.49c.21-3,.56-8.39,2.55-9.94a8.19,8.19,0,0,1,8.34-1c3,1.42,3.79,5.09,3.29,7.49s-2.7,10.45-3.69,12.29a9.26,9.26,0,0,1-2.06,2.82c-1.14,1.14-2,2.75-3.72,3.09a4.07,4.07,0,0,1-2.51,0c-.36-.2-1.36-1.69-1-2.11a8,8,0,0,1-1.85,1.72,1.13,1.13,0,0,1-.51.21,1.31,1.31,0,0,1-.44-.07A2.2,2.2,0,0,1,59,89.17a2.15,2.15,0,0,1-.13-1.26c-1.16,1.7-4.17,1.21-4.32-1a5.36,5.36,0,0,1,1.76-3.36A12.28,12.28,0,0,1,60.1,82.21Z"/><path class="cls-8" d="M72.9,64.55a8.19,8.19,0,0,0-8.34,1,4.32,4.32,0,0,0-1.24,1.87,7.89,7.89,0,0,1,6.38-1,8.07,8.07,0,0,1,5.49,5.33,12.08,12.08,0,0,1,.73,1.49l.27-1.2C76.69,69.64,75.9,66,72.9,64.55Z"/><path class="cls-13" d="M71.28,86.25a7.5,7.5,0,0,1-.84.9c-1.14,1.14-2,2.75-3.72,3.09a4.07,4.07,0,0,1-2.51,0c-.36-.2-1.36-1.69-1-2.11-.8,1-1.77,2.13-3.14,1.69-.57-.18-1.83-1.08-1.19-1.9-1.25,1.6-4.16,1.13-4.31-1.08a3,3,0,0,1,.24-1.1,4.51,4.51,0,0,0,1.93,1.17,4.34,4.34,0,0,0,1.31.22c.05,0,.1.11.16.16a4.09,4.09,0,0,0,5.08.51,6.06,6.06,0,0,0,.82.29A8.29,8.29,0,0,0,71.28,86.25Z"/><path class="cls-6" d="M42.84,54.6h.32c1.86-.05,5-.85,4.18-3.53a6.26,6.26,0,0,0-1-1.88,26.69,26.69,0,0,0-1.94-2.42,3.26,3.26,0,0,0-1.78-1.22,2.73,2.73,0,0,0-1.94.64,16.07,16.07,0,0,0-2,1.83,4,4,0,0,0-1.39,2.27C36.87,53.28,40.76,54.54,42.84,54.6Z"/><path class="cls-6" d="M24.7,30.16A17,17,0,0,1,35,30.53c5.56,1.79,11.71,3.06,17.32.58,4.41-1.94,8.57-3.32,13.57-3.11,5.63.24,11.25,4.21,14.11,9.11,3.94,6.76-.56,12.76-6.8,15.68-6.06,2.84-14.73,3.31-21.29,2.1a15.82,15.82,0,0,1-6.44-2.74c-1.36-.9-2.81-1.92-3.31-3.48a5.8,5.8,0,0,1-4.87,4.25c-6.53.69-14.8.17-19.46-5.26a6.61,6.61,0,0,1-1.36-3.32,13.31,13.31,0,0,1,2.08-9.51A11.55,11.55,0,0,1,24.7,30.16Z"/><path class="cls-8" d="M41.88,35.79c-.66.12-1.16-.36-1.72-.68l-2.07-1.19a19.41,19.41,0,0,0-2-1.06,15.94,15.94,0,0,0-2.71-.81,29.87,29.87,0,0,0-5.06-.76c-1.62-.07-3.27-.4-4.86.09a3.72,3.72,0,0,1-1.71.39c.22-.55.58-.63,1.07-.82s1.24-.58,1.9-.79A17,17,0,0,1,35,30.53c5.56,1.79,11.71,3.06,17.32.58,4.41-1.94,8.57-3.32,13.57-3.11a17.32,17.32,0,0,1,11,5.17l-.29.08c-.16,0-.7-.24-.87-.29-.36-.11-.74-.17-1.09-.29a19.13,19.13,0,0,0-2-.61,32.92,32.92,0,0,0-13.45-.45c-1.37.24-2.72.56-4.07.89l-2.39.58c-1,.22-1.89.45-2.81.74s-2.08.77-3.12,1.13a18.74,18.74,0,0,1-2.51.38C43.5,35.49,42.69,35.65,41.88,35.79Z"/><path class="cls-12" d="M18.52,34.83a11.68,11.68,0,0,1,3.22-3.24c0,.1,0,.21-.06.31-.65,3.84-.95,8.62,1.53,12C26.92,48.86,32,50,38,49a13,13,0,0,1,3.87-.31c1.93.25,3.6,1.43,5.39,2.18,5.51,2.31,12.6,2.21,18.29.83a21.67,21.67,0,0,0,5.21-1.84,20.37,20.37,0,0,0,5.84-5c.86-1,1.79-2,2.61-3,.36-.46,2-2.09,1.71-2.79a9.54,9.54,0,0,1,.41,6.45,12.94,12.94,0,0,1-4.77,6.62c-4.62,3.84-11.14,4.55-17.1,3.82-2.46-.31-4.76-1.11-7.23-1.14s-4.74-1.3-6.75-2.63c-1.36-.9-2.81-1.92-3.31-3.48a5.8,5.8,0,0,1-4.87,4.25c-6.53.69-14.8.17-19.46-5.26a6.61,6.61,0,0,1-1.36-3.32A13.31,13.31,0,0,1,18.52,34.83Z"/><path class="cls-1" d="M60.48,36.37a.74.74,0,0,1,.5-.57,2.13,2.13,0,0,1,.91-.1c.27,0,.59.07.67.32a1.11,1.11,0,0,1-1.32,1.38A.94.94,0,0,1,60.48,36.37Z"/><path class="cls-1" d="M50,39a.89.89,0,0,1,1.28-.07c.57.53-.08,1.3-.77,1.18a.77.77,0,0,1-.59-.94A.53.53,0,0,1,50,39Z"/><path class="cls-1" d="M54.68,44.37a.65.65,0,0,1,.28-.29c.62-.33,2.39.52,1.59,1.3A1.13,1.13,0,0,1,54.68,44.37Z"/><path class="cls-1" d="M33.45,39a1.06,1.06,0,0,1,.59-.75c.74-.38,2-.23,1.61.86-.32.8-2.21,1.22-2.21,0A.53.53,0,0,1,33.45,39Z"/><path class="cls-14" d="M43.64,37l-.14.49c-.08.32-.19.75-.3,1.29a33.75,33.75,0,0,0-.63,4,25.57,25.57,0,0,0-.12,4c0,.54.07,1,.11,1.31l.07.49v0a.43.43,0,0,1-.37.49.44.44,0,0,1-.49-.36l-.08-.52c0-.33-.11-.8-.15-1.37a29,29,0,0,1,0-4.16,37.31,37.31,0,0,1,.56-4.11c.11-.55.21-1,.29-1.34l.12-.5a.56.56,0,0,1,.69-.42.58.58,0,0,1,.42.69Z"/><path class="cls-1" d="M27.14,36.58a.73.73,0,0,0,0-.33.87.87,0,0,0-.58-.49,1.06,1.06,0,0,0-.61,0,.89.89,0,0,0-.61,1,.93.93,0,0,0,1,.7A1,1,0,0,0,27.14,36.58Z"/><path class="cls-1" d="M29.5,44.87a1.06,1.06,0,0,0,.44-.78,1.1,1.1,0,0,0,0-.36,1,1,0,0,0-1.41-.62,1.14,1.14,0,0,0-.36.33,1.11,1.11,0,0,0-.22.84,1,1,0,0,0,.62.73A1.06,1.06,0,0,0,29.5,44.87Z"/><path class="cls-15" d="M41.83,36.45c-.28-.27-.52-.58-.83-.84l-1.53-1.25c-.81-.67-2.21-1.72-2.1-2.91s1.5-1.78,2.38-2.06A12,12,0,0,1,47.9,30c.65.29,1.62.83,1.85,1.57s-.62,1.51-1.06,2a25.69,25.69,0,0,1-4,3,2.11,2.11,0,0,1-2.64.09Z"/><path class="cls-16" d="M40,30.55c0,.45,1.46.87,3.3.94s3.34-.23,3.36-.68-1.46-.87-3.3-.94S40,30.1,40,30.55Z"/></g></g></g></svg>