<svg xmlns="http://www.w3.org/2000/svg" viewBox="0 0 118.42 127.58"><defs><style>.cls-1{fill:#26364a;}.cls-2{fill:#7d9ec1;}.cls-3{fill:#8bb0d5;}.cls-4{fill:#688eb6;}.cls-5{fill:#7b9fb3;}.cls-6{fill:#354f6e;}.cls-7{fill:#7598bd;}.cls-8{fill:#6589b0;}.cls-9{fill:#e3edfa;}.cls-10{fill:#c3dbeb;}.cls-11{fill:#5e7999;}.cls-12{fill:#365075;}.cls-13{fill:#f6f6f6;}.cls-14{fill:#ccd8e0;opacity:0.79;}.cls-15{fill:#1c2736;}</style></defs><g id="Слой_2" data-name="Слой 2"><g id="animal"><g id="donkey"><path class="cls-1" d="M45.13,102.07c1.16.26,2.86.46,2.56,1.53a3.94,3.94,0,0,1-2.89,2.07c-.65-.06-3.71.41-4.31,1s-6.9,2.87-9.21,3.34-4,.33-4.58-.07.17-1.08,1.21-1.26A7.3,7.3,0,0,0,31.22,107c.32-.51-1-.22-1.71,0s-6.15,2-7.12,2.16-3.88,1.24-5,1.33a6.2,6.2,0,0,1-2.79-.25c-.39-.25.29-.87,1-1.36s1.32-1,.5-1-4.71,1.35-8.33,1.29-6.1.07-7.07-.57-.84-1.31.11-1.22a27.34,27.34,0,0,0,5.66-.52c1.82-.38.45-1.19.19-1.35a19.12,19.12,0,0,1-2.87-1.58c-.5-.51,0-.94.69-.74a6.68,6.68,0,0,0,3.47.25c1.2-.37-.19-1.67.7-1.65s2.67.71,3.94.35a25.06,25.06,0,0,1,7.65-1.35c3.21.09,7.2,1.48,10.24,1.89S43.4,101.68,45.13,102.07Z"/><path class="cls-2" d="M77.82,14.61a16.91,16.91,0,0,0-2,2.64c1.22,2.06,5.1,3.73,7.29,4.52A31.54,31.54,0,0,0,92,23.54c5.77.3,12-.94,16.45-4.8.79-.68,2.36-2.07,2.45-3.21.15-1.91-3.27-2.68-4.62-3.36a40.73,40.73,0,0,0-5.94-2.49,24,24,0,0,0-12.91-.74A19.56,19.56,0,0,0,77.82,14.61Z"/><path class="cls-2" d="M77.82,14.61a16.91,16.91,0,0,0-2,2.64c1.22,2.06,5.1,3.73,7.29,4.52A31.54,31.54,0,0,0,92,23.54c5.77.3,12-.94,16.45-4.8.79-.68,2.36-2.07,2.45-3.21.15-1.91-3.27-2.68-4.62-3.36a40.73,40.73,0,0,0-5.94-2.49,24,24,0,0,0-12.91-.74A19.56,19.56,0,0,0,77.82,14.61Z"/><path class="cls-3" d="M88.47,11.5a49.66,49.66,0,0,1,10.41.42c3.94.55,7.68,2.57,11.69,2.52-.89-1.15-3.21-1.74-4.26-2.27a40.73,40.73,0,0,0-5.94-2.49,24,24,0,0,0-12.91-.74,19.67,19.67,0,0,0-8,4.07A43.26,43.26,0,0,1,88.47,11.5Z"/><path class="cls-4" d="M110.31,14.15c-5.49,4.65-14.26,6-20.92,5.16-4-.52-8.72-1.53-11.59-4.67a17.18,17.18,0,0,0-2,2.61c1.22,2.06,5.1,3.73,7.29,4.52A31.54,31.54,0,0,0,92,23.54c5.77.3,12-.94,16.45-4.8.79-.68,2.36-2.07,2.45-3.21A1.69,1.69,0,0,0,110.31,14.15Z"/><path class="cls-2" d="M89.94,104.9a75.77,75.77,0,0,1,12.39,1.54,67.37,67.37,0,0,1,14.91,5c.74.57,1.22,1.69.08,1.82s-2.77.2-2.77.2a21.2,21.2,0,0,1,1.25,2.26c.33.79-.71,1.61-1.38,1.78s-6.09-1.39-7-2-9.55-1.71-13.16-2-9.9-.75-11.19-1.48S88.56,104.92,89.94,104.9Z"/><path class="cls-5" d="M103,106.58a67.64,67.64,0,0,1,14.2,4.87c.74.57,1.22,1.69.08,1.82s-2.77.2-2.77.2a21.2,21.2,0,0,1,1.25,2.26,1,1,0,0,1-.19,1c-2.18-2-5.7-5-7.37-6.22C106.85,109.48,104.72,107.89,103,106.58Z"/><path class="cls-1" d="M107.41,115.5a37.69,37.69,0,0,0,2.11-3.32,8.19,8.19,0,0,0,1.07-3.46,47.59,47.59,0,0,1,7,2.85c.78.6,1.28,1.77.09,1.9s-2.88.21-2.88.21a24.31,24.31,0,0,1,1.3,2.34c.34.83-.74,1.69-1.43,1.86s-5.45-1.4-6.4-2C108.23,115.8,107.54,115.55,107.41,115.5Z"/><path class="cls-6" d="M116.13,116a1.29,1.29,0,0,1,.06.25v0a.65.65,0,0,1,0,.24v0a1.37,1.37,0,0,1-.23.47c-1.73-1.61-4.28-3.8-6.17-5.31a8.29,8.29,0,0,0,.83-3l.06,0,.58.2h0l1.27.46.07,0,.52.19.09,0,.5.2.06,0,1.51.6.08,0,.35.15.08,0,.32.13.07,0,.65.3.05,0,.2.1.07,0,.14.07.06,0,.11.06,0,0,.1.06c.78.6,1.28,1.77.09,1.9s-2.88.21-2.88.21A24.31,24.31,0,0,1,116.13,116Z"/><path class="cls-7" d="M94.6,89.8s2.47,4.59,3.67,5.16,2,.42,2.43-.11c.2-.26.3-2.18.6-2.44s1,1.19,2.23,1.21.55-2,.12-2.9-4.05-6.55-5.81-9-9.52-9.69-10.65-10.42S84,70,83.67,71.48s10.44,18,10.44,18Z"/><path class="cls-1" d="M99.5,89.38a3.82,3.82,0,0,0,2-2.18c1.24,1.91,2.32,3.67,2.55,4.14.43.92,1,2.93-.13,2.9S102,92.76,101.7,93s-.4,2.18-.6,2.44c-.41.53-1.22.68-2.43.11A6.32,6.32,0,0,1,97,93.76l-1.35-4.21A6.53,6.53,0,0,0,99.5,89.38Z"/><path class="cls-2" d="M95.62,86.32c-.87-3.54-3.17-6.75-5.34-9.62a56.33,56.33,0,0,1-5.79-9.78c-4.23-8.71-8.62-17.63-15.73-24.2-3.06-2.83-6.88-5.27-11.05-5.18-9.58.21-8.76,13.94-9.92,20.83-.91,5.37-2.58,11.09-2.68,16.5-.1,5.58-2.19,10.61-3.24,16a34.58,34.58,0,0,0-.61,7.32,10.51,10.51,0,0,0,1.43,5.07A17.21,17.21,0,0,0,46,107.62a14.59,14.59,0,0,0,3.92,2.68c1.31.6,2.69.9,4,1.61,2.86,1.63,6.72,1.9,9.93,2.31,4.53.58,12.29,3.42,24.24-4S97,92.18,95.62,86.32Z"/><path class="cls-2" d="M73.91,59.32a1.72,1.72,0,0,1-.29.42c-.32.27-.24-.36,0-1.2l.07.19Z"/><path class="cls-8" d="M63.74,114.5c-7.94-1-19.2-3.76-22-12.19-2.51-7.62,1.22-16,2.36-23.5.15-1,1-5.73,1.93-11.39l1.64-9.64-.57,10c-.11.29-.38,17-.34,21.23s0,9.83,3.28,13,6.26,6.87,14.92,8.84a83,83,0,0,0,19.73,1.54C74.61,117.4,67.85,115,63.74,114.5Z"/><path class="cls-9" d="M91.74,107.44A71.54,71.54,0,0,0,94,96.79c.47-4.67-.82-10.35-4.84-12.87s-9.61-4.56-15-3.29S60.46,86.93,58.72,91.9s-2.52,9.24-1.27,14,.7,6.25.65,7.24c0,.29,11.71,4.36,20.87,1.55S91.74,107.44,91.74,107.44Z"/><path class="cls-10" d="M58,108.49A28.55,28.55,0,0,0,65,111a87.82,87.82,0,0,0,18.59,1.69,33.53,33.53,0,0,1-4.59,2c-3.31,1-7.44.88-10.65.68-1.8-.24-3.32-.58-4.59-.74a32.78,32.78,0,0,1-6.3-1.36C57.29,112.43,58.52,111.57,58,108.49Z"/><path class="cls-2" d="M45.58,108.87c2.35-.54,4.13-.9,6.62.13,2.08.87,3.26,1.35,2.95,2.94s-4.1,3-5.83,3.65-8.17,3-9.85,4-7.52,5.54-8.29,6.28-2.06,1.58-3.06,1.24-.63-1.24-.74-1.9a3.88,3.88,0,0,1,.08-1.35,3.82,3.82,0,0,1-2.24.15c-.77-.38-.66-.5-.37-1.27s2.71-2.85,5.84-5.5S42.15,109.66,45.58,108.87Z"/><path class="cls-3" d="M40.43,113.11a79.79,79.79,0,0,1,10.37-2.24,38.24,38.24,0,0,1,4-.48A8,8,0,0,0,52.2,109c-2.49-1-4.27-.67-6.62-.13-3.08.71-10.12,4.8-13.78,7.54A55.47,55.47,0,0,1,40.43,113.11Z"/><path class="cls-1" d="M28.76,118.81a12.52,12.52,0,0,0,2.57,3.45,6.85,6.85,0,0,0,2.78,1.28,31.86,31.86,0,0,0-3,2.68c-.8.77-2.13,1.63-3.18,1.28s-.93-1.3-.76-2,.28-1.24.28-1.24-1.49,1.16-2.42.39a1.24,1.24,0,0,1-.49-1.72C24.77,122.31,26.44,120.8,28.76,118.81Z"/><path class="cls-2" d="M79.79,65.76a21.17,21.17,0,0,0,11.44,3.83c4.92,0,9.24-.9,12.69-4.73,3.92-4.35,4.73-10.93,3-16.52-1.78-5.79-5.72-9.76-10-13.83A66.91,66.91,0,0,1,86.41,20.93c-1.68-2.79-1.55-4.3-1.55-4.3-5.64-3.95-16.38-2.52-25.43,2.92C53.56,23.08,52,32.3,51.6,39.24c4.06,11.85,17.37,17.69,19.31,19C74.08,60.44,76.52,63.61,79.79,65.76Z"/><path class="cls-8" d="M67.92,45.13,73.05,55c1.26,2.43,2.58,4.94,4.76,6.59-.85-2.25,1.38-4.84.45-7.05a5.35,5.35,0,0,0-1.6-1.88Z"/><path class="cls-9" d="M77.13,56.77c.5-3.83,4.13-7.59,7.06-9.83,6.69-5.12,16-6.5,18.28-5.39,3.94,2,5.24,6.59,5.3,11,.07,5.25.94,11.66-9.28,16.26C86.77,74,76.08,65,77.13,56.77Z"/><path class="cls-10" d="M86.39,69.55c-3.38-.7-6.65-3.5-8.57-6.36a8.46,8.46,0,0,1,0-9.1,19.27,19.27,0,0,1,1.6,1.53,13.46,13.46,0,0,0,3,2.79,27.47,27.47,0,0,0,6.22,3.88c4.23,1.7,6.88,3.14,11.64,2.55,1.32-.17,4.4-.33,4.83-.76A14.84,14.84,0,0,1,99,68.35C94.6,70.38,91.48,70.6,86.39,69.55Z"/><path class="cls-11" d="M75.64,15.17c.12-.26.25-.52.38-.78a14.84,14.84,0,0,1,8.84,2.24s-.1,3.72,3.88,6.6L87.58,25.6c-.13,0-.54,0-.66,0-1.33-.42-6-2.55-6.5-2.76-.37-.14-1-.92-1.59-1.12C77.44,19.75,76.42,18.84,75.64,15.17Z"/><path class="cls-12" d="M84.87,54.79c.12,2.14,1.48,3.81,3,3.72s2.72-1.9,2.6-4S89,50.65,87.46,50.74,84.74,52.64,84.87,54.79Z"/><path class="cls-1" d="M85.71,54.49c.09,1.68,1.21,3,2.49,2.9s2.24-1.49,2.14-3.17-1.21-3-2.49-2.9S85.61,52.81,85.71,54.49Z"/><path class="cls-8" d="M91.39,69.54a13.2,13.2,0,0,1-6.87-3.11,10.49,10.49,0,0,1-3.3-6.1,10.81,10.81,0,0,1-.06-3l0-.25a.21.21,0,0,0-.42-.06,11.63,11.63,0,0,0-.24,2,11,11,0,0,0,6.76,10.31,11.55,11.55,0,0,0,4.41.94c.7,0,2-.17,2.67-.25,1.06-.14,1.56-.34,1.69-.53A17.37,17.37,0,0,1,91.39,69.54Z"/><path class="cls-1" d="M40.49,64.87a17.48,17.48,0,0,0,4-5.56c.53-1.13,2.9-4.67,2.33-5.86-.34-.72-2-.1-3,.3s-2.38.8-2.38.8l.2-.27c.2-.27,3.27-4.5,4.77-7.22a16.84,16.84,0,0,0,1.84-5.41s-1.85,1.45-2.42,1.4-1.09.55-.79-.06c2-4,2.36-11,6.94-13.17,8.86-4.16,6,11.68,5.26,15.58a6.72,6.72,0,0,1-2-3.72c-.92,4.88.21,9.25,0,14.07l-2.38-1.56c.08,2.41.31,4.87.29,7.27A16,16,0,0,1,51,69.9c0-1.59-.09-3.18-.13-4.77a37,37,0,0,1-2.24,4.1c-2,3.16-5.26,5.66-9,5.91A22.2,22.2,0,0,0,45,63.9a6.22,6.22,0,0,1-5.81,2C39.63,65.6,40.07,65.25,40.49,64.87Z"/><path class="cls-2" d="M61.16,28.43a26,26,0,0,0,5.7-7.29A1.92,1.92,0,0,0,67.15,20c-.11-.64-.74-1-1.31-1.31a23.11,23.11,0,0,0-15-1.62c-5.87,1.29-11.27,4.75-15.84,8.5-.38.31-.79.7-.75,1.19a1.44,1.44,0,0,0,.54.89,18.24,18.24,0,0,0,6.1,3.6A21.92,21.92,0,0,0,51.7,33.07,18.06,18.06,0,0,0,61.16,28.43Z"/><path class="cls-3" d="M64.87,18.23A23.35,23.35,0,0,0,50.8,17.06a35.05,35.05,0,0,0-12.69,6.08C46.73,20.79,56.07,17.65,64.87,18.23Z"/><path class="cls-4" d="M65.84,18.68l-.22-.1a23.46,23.46,0,0,1-20.6,11,23.63,23.63,0,0,1-10.78-3.07h0a.83.83,0,0,0,0,.27,1.44,1.44,0,0,0,.54.89,18.24,18.24,0,0,0,6.1,3.6A21.92,21.92,0,0,0,51.7,33.07a18.06,18.06,0,0,0,9.46-4.64,26,26,0,0,0,5.7-7.29A1.92,1.92,0,0,0,67.15,20C67,19.35,66.41,19,65.84,18.68Z"/><path class="cls-8" d="M82.77,28.88c1.49,3.41,4.73,5.37,7.25,4.36s3.36-4.58,1.88-8-4.11-5.43-7.25-4.37C81,22.09,81.29,25.46,82.77,28.88Z"/><path class="cls-8" d="M72.93,25.64c2.76-1.77,6.86-.29,9.16,3.3s1.94,7.93-.82,9.7-6.86.29-9.16-3.3S70.17,27.4,72.93,25.64Z"/><path class="cls-13" d="M82.77,27.82c1.49,3.41,4.73,5.37,7.25,4.36s3.36-4.58,1.88-8-4.11-5.43-7.25-4.37C81,21,81.29,24.4,82.77,27.82Z"/><path class="cls-14" d="M92.61,27.15c.13,2.32-.81,4.32-2.59,5S85.79,32,84.13,30C85.7,30.78,89,32.31,92.61,27.15Z"/><path class="cls-15" d="M83.73,26.7a2.38,2.38,0,0,0,4-2.6,2.29,2.29,0,0,0-2.48-1c-.26.06.3,1.88.06,2s-1.09-1.51-1.2-1.4A2.31,2.31,0,0,0,83.73,26.7Z"/><path class="cls-13" d="M72.93,24.58c2.76-1.77,6.86-.29,9.16,3.3s1.94,7.93-.82,9.7-6.86.29-9.16-3.3S70.17,26.34,72.93,24.58Z"/><path class="cls-14" d="M70.63,30.07c1.39,2.18,4.54,6.25,8.51,5.62,2.88-.46,3.66-3.13,4.35-4.22.41,2.53-.35,4.91-2.22,6.11-2.76,1.76-6.86.29-9.16-3.3A9.37,9.37,0,0,1,70.63,30.07Z"/><path class="cls-15" d="M73.18,31a2.63,2.63,0,1,0,2.33-3.79c-.38,0,.23,2.54-.13,2.72S73.81,27.79,73.59,28A2.63,2.63,0,0,0,73.18,31Z"/><path class="cls-1" d="M57.26,24.84a26.66,26.66,0,0,0,1-2.76c.23-.84.46-1.7.69-2.53a.32.32,0,0,0-.31-.41,22.21,22.21,0,0,0-4.46.3.33.33,0,0,1-.32-.53c2.28-2.63,5.63-5.05,9-5.49A.33.33,0,0,0,63.1,13c-.83-2.28-3.63-3.9-5.87-5a.33.33,0,0,1,.14-.62,28.83,28.83,0,0,1,5,.79,25.16,25.16,0,0,1,7.41,2,.32.32,0,0,0,.39-.06A13,13,0,0,0,74,.34a.32.32,0,0,1,.61-.17,32.15,32.15,0,0,1,1.92,4.12c.56,1.51.81,3.61,1.64,5a.33.33,0,0,0,.48.1,34.45,34.45,0,0,0,5.15-4.27.32.32,0,0,1,.56.26c-.18,1.59-1.22,3-1.61,4.43a.33.33,0,0,0,.42.4c1.81-.64,4.19-.08,5.94.33.9.21,4.4,1.19,4.48,1.78s-3.29.85-4.35,1a15.17,15.17,0,0,0-3,1,.33.33,0,0,0,0,.61c2.72,1.05,5.54,3.64,7.55,5.9a.33.33,0,0,1-.39.52c-3.39-1.64-7.46-3.26-11.1-2.83a.33.33,0,0,0-.29.38,27.44,27.44,0,0,1,.54,3.85A.33.33,0,0,1,82,23c-1.48-1.49-5-4-6-3.57-.44.18-1.28,1.52-1.57,1.88a35.74,35.74,0,0,0-3.24,5.33C70.43,28.07,69.66,29.51,69,31a.33.33,0,0,1-.62-.08,21.62,21.62,0,0,1,.86-9.1.33.33,0,0,0-.47-.38,15.65,15.65,0,0,0-4.61,3.83.33.33,0,0,1-.57-.23c0-1.37.21-2.76.17-4.1a.33.33,0,0,0-.49-.28,17.35,17.35,0,0,0-5.73,5.29.33.33,0,0,1-.57-.31C57.05,25.37,57.16,25.1,57.26,24.84Z"/><path class="cls-7" d="M55.88,69.89a7,7,0,0,1,6.5,3.87c1.5,2.92,4.93,14.66,5.33,17.08s1.51,6.57.74,7.64-1.39.55-1.91.39-1.1-1.28-1.33-1.36-.69,1.14-1,1.66a1.33,1.33,0,0,1-1.5.5.85.85,0,0,1-.26-.11c-.63-.35-.81-1.14-1-2.11s-.77-4.54-1.07-6.06S58.86,84.94,57,82a29.81,29.81,0,0,1-3.1-6.81C53.36,73.87,53.28,70.28,55.88,69.89Z"/><path class="cls-3" d="M62.25,73.9c1.48,2.89,5.06,14.55,5.46,16.94s1.42,5.21.66,6.27-1.51,1.72-2,1.56-.8-.77-1.07-1.12c-.16-.53-.33-1.09-.51-1.63a42.29,42.29,0,0,1-1.1-7.06s-2.09-9.15-3.35-11.11-2.57-6.49-4.09-6.91c-.31-.09-.83-.2-1.42-.33a2.26,2.26,0,0,1,1-.42A6.94,6.94,0,0,1,62.25,73.9Z"/><path class="cls-1" d="M60.38,92.18a12,12,0,0,0,4.57.07,6.61,6.61,0,0,0,1.52-.43,6.83,6.83,0,0,1,1.15-.57,33.07,33.07,0,0,1,1.18,7.23,1.4,1.4,0,0,1-.36,1.17,1.11,1.11,0,0,1-1.21-.05c-.46-.28-1.24-1.3-1.87-1-.44.2-.66,1.28-.88,1.68a1.43,1.43,0,0,1-1.61.55,1.39,1.39,0,0,1-.28-.12c-.68-.38-.87-1.22-1.11-2.27S60.71,93.93,60.38,92.18Z"/><path class="cls-6" d="M65,92.25a4.43,4.43,0,0,0,2.73-1.19,26.62,26.62,0,0,1,1.14,7.82,1.11,1.11,0,0,1-.42.94,1,1,0,0,1-.93.05,2.9,2.9,0,0,1-.78-.57l-.94-.86A1.44,1.44,0,0,1,65.4,98c-.16-.37-.24-.81-.36-1.19a26.59,26.59,0,0,1-.86-4.43C64.43,92.33,64.69,92.3,65,92.25Z"/></g></g></g></svg>