<svg xmlns="http://www.w3.org/2000/svg" viewBox="0 0 104.75 105.37"><defs><style>.cls-1{fill:#7c9ad4;}.cls-2{fill:#6584c3;}.cls-3{fill:#90ade2;}.cls-4{fill:#e4e7ec;}.cls-5{fill:#f3f3f9;}.cls-6{fill:#bbc5d8;}.cls-7{fill:#6080c4;}.cls-8{fill:#fff;}.cls-9{fill:#313245;}.cls-10{fill:#617ebd;}.cls-11{fill:#4e6dab;}.cls-12{fill:#5274b3;}.cls-13{fill:#cccdd7;}</style></defs><g id="Слой_2" data-name="Слой 2"><g id="animal"><g id="elephant"><path class="cls-1" d="M34.33,7.28A2,2,0,0,1,33,7.3c-.86-.29-1.29-1.22-1.87-1.92C27.59,1.05,19.8-1.55,14.66,1A22.64,22.64,0,0,0,8.78,5.7c-3.92,4-7.68,9-8.6,14.65C-.94,27.26,3.4,31.28,6.71,36.69A51.34,51.34,0,0,1,11.34,46.9c1,2.92,2.49,5.86,6.21,5.14,1.17-.23,4.9-1.45,3.22.87a23.65,23.65,0,0,0-1.81,3,34.11,34.11,0,0,0-2.51,6.35,41.25,41.25,0,0,0-1.4,13.81,46.83,46.83,0,0,0,3.39,14.8c1.32,3.22,4.39,11.29,8.61,11.28,1.87,0,12.61-4.09,12.61-4.09l5.14-2.51s2.34,1.09,7.49,1.07a34.83,34.83,0,0,0,8.1-.8,8.15,8.15,0,0,0,6.71,4.81c5.31.76,10.6,0,11.38-.81,4.24-4.26,6.88-12,8.22-17.75,2.16-9.22,1.3-19.44-3.35-27.79-.36-.65-2.52-3.66-1.3-4.3.64-.33,1.82.73,2.4.94a15,15,0,0,0,2.87.7c5.32.76,6.62-4.91,8.58-8.72,3.39-6.6,7.69-13,8.62-20.44.78-6.17-.37-12.77-5-17.27-7.31-7.16-17-5.49-24.91-.64-.91.55-3.35,3.16-4.49,2.85a1,1,0,0,1-.42-.26A27.47,27.47,0,0,0,53,.1C46.36-.16,41.08,3.68,35.57,6.72A6.92,6.92,0,0,1,34.33,7.28Z"/><path class="cls-2" d="M78.22,91a32.55,32.55,0,0,1-11.51,9.6l.39.06c5.31.76,10.6,0,11.38-.81,4.24-4.26,6.88-12,8.22-17.75a41.28,41.28,0,0,0-.12-19.64C85.83,72.21,84.1,83.06,78.22,91Z"/><path class="cls-1" d="M100,32.28c-3.15-.33-6.91-1.07-9.6-3a17.35,17.35,0,0,0-1,1.77c-2.09,4.08-2.46,8.61-2.45,13.13,0,2.47.05,4.94.06,7.41l.38.06c5.32.76,6.62-4.91,8.58-8.72,1.81-3.51,3.86-7,5.53-10.54C100.93,32.36,100.44,32.32,100,32.28Z"/><path class="cls-3" d="M19.37,65.72a30.94,30.94,0,0,1,3.45-9.46,15.35,15.35,0,0,1,.48-5,2.23,2.23,0,0,1-.16-.43,3.55,3.55,0,0,1-.06-.47.59.59,0,0,1,0-.14c-.47.35-.92.76-1.34,1-.21.13-.44.26-.68.38.25.18.23.56-.27,1.25a23.65,23.65,0,0,0-1.81,3,34.11,34.11,0,0,0-2.51,6.35,41.25,41.25,0,0,0-1.4,13.81,46.83,46.83,0,0,0,3.39,14.8c1,2.42,3,7.61,5.71,10a66,66,0,0,1-4.34-15.56C18.81,78.92,18.23,72.17,19.37,65.72Z"/><path class="cls-3" d="M99.56,5.21c-7.31-7.16-17-5.49-24.91-.64-.91.55-3.35,3.16-4.49,2.85a1,1,0,0,1-.42-.26A27.47,27.47,0,0,0,53,.1C46.36-.16,41.08,3.68,35.57,6.72a6.92,6.92,0,0,1-1.24.56A2,2,0,0,1,33,7.3c-.86-.29-1.29-1.22-1.87-1.92C27.59,1.05,19.8-1.55,14.66,1A22.64,22.64,0,0,0,8.78,5.7c-3.92,4-7.68,9-8.6,14.65-.77,4.74,1,8.12,3.31,11.53-.09-.8-.16-1.61-.22-2.41a13.71,13.71,0,0,1-.56-9.13,24.36,24.36,0,0,1,1.37-3.53,18.33,18.33,0,0,1,3.14-5.3l0,0a18.5,18.5,0,0,1,3.57-4.08C13.4,5.24,16.68,2.9,20.18,3A14.8,14.8,0,0,1,32,9.64c2.4,1.06,6.78-1.29,8.78-2.14A46.49,46.49,0,0,1,47.53,5a18,18,0,0,1,9.39-1.4,25.16,25.16,0,0,1,8.33,2.54,63.62,63.62,0,0,1,5.6,3.51c.78.5,1.77-.06,2.54-.57,7-4.72,18-10.56,25-2.55,5.11,5.83,5.59,13.61,5,21a27.62,27.62,0,0,0,1.15-5.05C105.3,16.31,104.15,9.71,99.56,5.21Z"/><path class="cls-4" d="M74.63,97.7A2,2,0,0,0,74,96.14a2.31,2.31,0,0,0-2.17-.07,3.56,3.56,0,0,0-1.55,1.52,1.8,1.8,0,0,0-.29,1,1.15,1.15,0,0,0-.56-1.48,1.75,1.75,0,0,0-1.76.2c-1.89,1.39-.18,4.38,2,4.14,2.63-.29,5.17.44,7.86-.06a1.19,1.19,0,0,0,.47-.16,3.49,3.49,0,0,0,.86-1.84c.13-1.09-.59-2.85-2-2.47-1.68.46-1.74,2.35-1.82,3.83,0,.06,0,.14-.06.18a.18.18,0,0,1-.24,0,.42.42,0,0,1-.09-.24C74.51,99.65,74.78,98.68,74.63,97.7Z"/><path class="cls-5" d="M68.65,66.17a13.72,13.72,0,0,0-7.79-6.88,22.33,22.33,0,0,0-8-.75,33.27,33.27,0,0,0-12.66,2.65A19.87,19.87,0,0,0,29.93,72.61a21.08,21.08,0,0,0,.7,14.71,13.16,13.16,0,0,0,2.77,4.44,13.92,13.92,0,0,0,5.31,3.12A17.63,17.63,0,0,1,42.66,96a67.91,67.91,0,0,0,6.84,1.2,82.37,82.37,0,0,0,9-.52,11.55,11.55,0,0,0,4-.89,8.39,8.39,0,0,0,3.34-3.62,34.47,34.47,0,0,0,4.62-16.22A20.29,20.29,0,0,0,68.65,66.17Z"/><path class="cls-6" d="M64.5,85.86c-.27.27-.53.53-.81.79-3.22,3-7.57,5.71-12.13,5.86a14.9,14.9,0,0,1-9.81-3.1A21,21,0,0,1,35.15,88a37.52,37.52,0,0,1-4.6-2.21c0,.08.05.15.07.22a15.67,15.67,0,0,0,2.78,5,13.67,13.67,0,0,0,5.31,3.54,15.77,15.77,0,0,1,3.95,1.24,58.77,58.77,0,0,0,6.84,1.36,69.81,69.81,0,0,0,9-.58,10.33,10.33,0,0,0,4-1,9.19,9.19,0,0,0,3.34-4.1A42.92,42.92,0,0,0,69,83.35,24.91,24.91,0,0,1,64.5,85.86Z"/><path class="cls-4" d="M26.76,102.25a1.62,1.62,0,0,1-.31-.33,4,4,0,0,1-1-3.24,1.58,1.58,0,0,1,.37-.77c.73-.76,2-.28,2.71.3.84.73.83,1.8,1.41,2.69.08.12.21.25.36.22s-.45-2.24-.51-2.44c-.34-1-.59-2.21.51-2.9a3.08,3.08,0,0,1,3.11.31c.89.66,2.11,2,2.19,3.11a1.25,1.25,0,0,1-.23.9,1.9,1.9,0,0,1-.78.46,37.55,37.55,0,0,1-3.77,1.2,10.81,10.81,0,0,1-3.69.66A1,1,0,0,1,26.76,102.25Z"/><path class="cls-1" d="M26.86,53.15c-1.85,7.83-.72,15.09.68,22.9a224.36,224.36,0,0,0,5.51,23.6c1.09,3.73,2,5.26,6,5.2,2.1,0,5.87-.23,7.48-1.84,1.33-1.35.22-6,0-7.59-.43-3.88-1.39-7.54-2-11.37a172.17,172.17,0,0,0-3.75-17.11c-.64-2.32-1.12-4.71-1.74-7-.48-1.75-2.8-8-5.44-6.53Z"/><path class="cls-3" d="M28.44,74.9a108.74,108.74,0,0,1,0-11.13c.16-3.68,1-7.57.82-11.24a6.23,6.23,0,0,0-1.33.25,2.24,2.24,0,0,0-1.41.74,2.16,2.16,0,0,0-.26,1A70.73,70.73,0,0,0,26,64.84a100.68,100.68,0,0,0,1.54,11.21c.87,4.9,1.91,9.78,3.1,14.61-.06-.67-.1-1.35-.13-2A76.27,76.27,0,0,1,28.44,74.9Z"/><path class="cls-3" d="M45.4,99.25a7.26,7.26,0,0,1-.79,2,1.75,1.75,0,0,1-1,.81c.35.68.71,1.36,1.07,2A4.94,4.94,0,0,0,46.5,103c.7-.71.72-2.35.56-4A1.94,1.94,0,0,1,45.4,99.25Z"/><path class="cls-2" d="M46.54,95.42c-.43-3.88-1.39-7.54-2-11.37-.32-1.89-.68-3.78-1.06-5.65.08.88.14,1.76.15,2.65.07,4.28-.59,9.35-3.73,12.56C37.78,95.73,34.5,96.77,32,95.8c.35,1.28.71,2.57,1.08,3.85,1.09,3.73,2,5.26,6,5.2,2.1,0,5.87-.23,7.48-1.84C47.83,101.66,46.72,97,46.54,95.42Z"/><path class="cls-1" d="M79.26,52.32c1.26,4.9.82,10.09-.33,15-1,4.17-1.59,8.45-2.52,12.68-1.67,7.58-3.92,15-5.9,22.48-.83,3.11-6.64,2.86-8.88,2.55a6.54,6.54,0,0,1-3.39-1.14,3.86,3.86,0,0,1-.7-2.49,35.66,35.66,0,0,1,.13-7.08,131.8,131.8,0,0,1,2.69-14.16,136.92,136.92,0,0,1,7.35-23.29Z"/><path class="cls-2" d="M76.57,68.94c-1.09,3.81-2.1,7.65-3.18,11.46s-2.34,7.91-4.67,11.19c-1.63,2.3-3.77,5.08-6.92,4.94h-.13a2.56,2.56,0,0,1-1.82-.33,11,11,0,0,1-2.16-2,.77.77,0,0,0,0,.15,35.66,35.66,0,0,0-.13,7.08,3.86,3.86,0,0,0,.7,2.49,6.54,6.54,0,0,0,3.39,1.14c2.24.31,8.05.56,8.88-2.55,2-7.5,4.23-14.9,5.9-22.48.93-4.23,1.55-8.51,2.52-12.68a35,35,0,0,0,.93-11.65C79,60.19,77.8,64.65,76.57,68.94Z"/><path class="cls-7" d="M53,19.14c0,4.72-3.16,8.56-7.1,8.57s-7.15-3.81-7.16-8.53,3.17-8.56,7.11-8.57S53,14.42,53,19.14Z"/><path class="cls-7" d="M70.46,19c0,4.77-3.24,8.64-7.28,8.65s-7.31-3.84-7.33-8.6,3.25-8.64,7.28-8.65S70.45,14.2,70.46,19Z"/><path class="cls-8" d="M52.54,18.67c0,4.46-3,8.08-6.71,8.09s-6.74-3.59-6.75-8,3-8.07,6.71-8.09S52.53,14.22,52.54,18.67Z"/><path class="cls-4" d="M51.8,20.3a8.57,8.57,0,0,1-3.7,3.3,5.14,5.14,0,0,1-5,.54,6.9,6.9,0,0,1-.86-.43,7.67,7.67,0,0,1-2.41-1.31,6.73,6.73,0,0,0,6,4.36c3.53,0,6.41-3.28,6.68-7.42A9.51,9.51,0,0,1,51.8,20.3Z"/><path class="cls-8" d="M70,18.49c0,4.5-3.06,8.15-6.87,8.16s-6.9-3.62-6.91-8.12,3.06-8.14,6.86-8.16S69.94,14,70,18.49Z"/><path class="cls-4" d="M68.13,21a8.82,8.82,0,0,1-2.65,2.12A6.54,6.54,0,0,1,63.9,24c-2.83,1.11-5.5-.4-7.28-2.84,1,3.18,3.51,5.44,6.46,5.43,3.81,0,6.88-3.79,6.87-8.44,0-.16,0-.31,0-.46A11.6,11.6,0,0,1,68.13,21Z"/><path class="cls-9" d="M49.85,18.81a2.54,2.54,0,1,1-5.08,0,2.59,2.59,0,0,1,1.57-2.38c.3-.12.77,2.31,1.11,2.31s.67-2.4,1-2.22A2.57,2.57,0,0,1,49.85,18.81Z"/><path class="cls-9" d="M65.67,18.22a2.68,2.68,0,1,1-3.58-2.52c.28-.1.77,2.7,1.08,2.7s.69-2.75,1.07-2.55A2.68,2.68,0,0,1,65.67,18.22Z"/><path class="cls-1" d="M37.77,35.74c2.2,7,4.27,14.11,5.13,21.4.79,6.7.59,14.13,2.58,20.62s8.91,9.78,14.65,5.62c2.76-2,4.24-4.9,3.26-8.28-1.21-4.19-4.29-2.09-7.3-1.9,0-7.07,2.48-13.87,5.09-20.33,1.42-3.53,2.87-7,4.46-10.49,1.27-2.75,2.38-6.24,4.68-8.31Z"/><path class="cls-2" d="M65.64,42.38c.11-.23.21-.47.32-.71l-.41.51a38.77,38.77,0,0,0-6,11c-2.19,6.11-4.51,13.31-4,20,.09.14.18.28.26.42,2.12-.07,4.31.66,4.11,3.23a6,6,0,0,1-5.29,5.13c-4.91.77-9.26-4.61-9.5-9.52a3.34,3.34,0,0,1-.9-.26,37,37,0,0,0,1.22,5.63c2,6.45,8.91,9.78,14.65,5.62,2.76-2,4.24-4.9,3.26-8.28-1.21-4.19-4.29-2.09-7.3-1.9,0-7.07,2.48-13.87,5.09-20.33C62.6,49.34,64.05,45.83,65.64,42.38Z"/><path class="cls-4" d="M46.82,100.89c1.93,3.8-7,4.24-9.17,3.93-.77-.12-1.74-.16-2.08-.93-.83-1.84.66-3.58,2.57-2.75a3.28,3.28,0,0,1,1.24,1,5.67,5.67,0,0,1,.55,1.92.79.79,0,0,0,.19.39.13.13,0,0,0,.17,0,.39.39,0,0,0,.06-.18c.11-1-.43-2-.23-3,.16-.75,1.24-.82,1.83-.63a3.5,3.5,0,0,1,1,.49c.64.48.77,1.64,1,2.37a.75.75,0,0,0,.13.27.23.23,0,0,0,.28.07c.13-.06.13-.25.11-.39-.07-.52-.14-1-.22-1.55s-.25-1-.09-1.31A1.28,1.28,0,0,1,45,100a1.38,1.38,0,0,1,.67,0c.19,0,.45.23.62.23A1.57,1.57,0,0,1,46.82,100.89Z"/><path class="cls-4" d="M69.31,103.44c0-.78-.57-2.2-1.42-2.45a2,2,0,0,0-2.3,1.55c-.16.55-.18,1.14-.31,1.69-.24,0-.54.07-.65-.14a.42.42,0,0,1-.06-.25,8,8,0,0,0-.15-1.7,1.37,1.37,0,0,0-1.18-1.07,1.38,1.38,0,0,0-.63.17c-1.12.56-1.09,1.71-1.12,2.78a.45.45,0,0,1-.17.41.33.33,0,0,1-.43-.17,1.1,1.1,0,0,1-.09-.51c0-1-.15-2.72-1.41-2.82s-1.58,1.63-1.52,2.57a.83.83,0,0,0,.65.86,14.63,14.63,0,0,0,6.87,1,9.52,9.52,0,0,0,3.13-.57,1.41,1.41,0,0,0,.51-.35A1.43,1.43,0,0,0,69.31,103.44Z"/><path class="cls-10" d="M30.58,15.39S28.3,4.3,21,4.32C12.15,4.35,4.57,16,7.09,24.05c1,3.17,3.38,5.33,4.68,8.32C13,35.1,17.61,45.55,21.29,44.1c2-.78,3.92-4.64,4.76-6.44a36.8,36.8,0,0,0,2.37-7.46A115.4,115.4,0,0,0,30.58,15.39Z"/><path class="cls-11" d="M11.39,15.18C13.79,11.67,17.8,9,22.24,9.42c3.47.31,6.65,2,8.11,5.05C29.61,11.8,27,4.3,21,4.32,12.15,4.35,4.57,16,7.09,24.05c1,3.09,3.27,5.23,4.59,8.11C9.82,26.38,7.68,20.61,11.39,15.18Z"/><path class="cls-10" d="M75.8,17.62a73.83,73.83,0,0,0,1,8.26c.28,2.28-.2,4.52.29,6.71A24,24,0,0,0,80.77,41C82.22,43,86,46.51,88.83,44.82a2.92,2.92,0,0,0,.92-1c4.79-7.35,8.1-14.56,9.14-23.31.34-2.8.39-5.74-.79-8.3a10.76,10.76,0,0,0-7.53-5.73A15.37,15.37,0,0,0,81,7.77C77.5,9.39,75.77,13.89,75.8,17.62Z"/><path class="cls-11" d="M98.1,12.19a10.76,10.76,0,0,0-7.53-5.73A15.37,15.37,0,0,0,81,7.77c-3.13,1.44-4.84,5.17-5.15,8.61A8.68,8.68,0,0,1,79.94,12a11.33,11.33,0,0,1,8.58-1,11.14,11.14,0,0,1,8.31,9,21.91,21.91,0,0,1-.79,10,27.35,27.35,0,0,1-.49,3.14,46.18,46.18,0,0,0,3.34-12.57C99.23,17.69,99.28,14.75,98.1,12.19Z"/><path class="cls-12" d="M20,51.26a9.6,9.6,0,0,0,1.31-.93c.25-.21.52-.48.82-.75.6-.57,1.28-1.25,2-2,.35-.38.7-.79,1-1.21s.68-.85,1-1.28.67-.88,1-1.32l.47-.66c.14-.22.28-.44.43-.66.28-.43.53-.87.77-1.27s.46-.8.64-1.17.35-.71.46-1,.25-.58.32-.81l.23-.73a.2.2,0,0,1,.25-.13.2.2,0,0,1,.13.26l-.24.73c-.08.24-.2.51-.33.83s-.3.66-.47,1-.4.78-.63,1.2-.48.87-.76,1.31-.56.9-.86,1.36-.62.91-.94,1.37-.65.91-1,1.35L24.6,48c-1.49,1.9-2.71,3.71-5.4,3.61C19.47,51.51,19.72,51.39,20,51.26Z"/><path class="cls-12" d="M82,50.26a.78.78,0,0,1-.21,0c-.6-.22-1.42-1.3-1.82-1.8A15.88,15.88,0,0,1,78.43,46c-.24-.45-.47-.94-.71-1.41s-.46-1-.7-1.44c-.47-1-.9-2-1.3-2.9s-.71-1.83-1-2.61c-.12-.38-.23-.74-.31-1.06s-.15-.6-.21-.83L74.08,35a.2.2,0,0,1,.15-.24.2.2,0,0,1,.25.16l.14.72c.06.23.11.5.21.82s.18.66.3,1c.26.76.59,1.64,1,2.55.2.46.42.93.66,1.4s.48,1,.74,1.42l.76,1.41c.25.47.5.92.77,1.34a19.53,19.53,0,0,0,1.58,2.19,10.58,10.58,0,0,0,2.22,2.26A2,2,0,0,1,82,50.26Z"/><path class="cls-12" d="M34.77,36.81l0,0,0,0-.12-.08a1.73,1.73,0,0,1-.45-.5,3.41,3.41,0,0,1-.33-.75l-.27-.83c-.39-1.22-.91-2.85-1.35-4.52a35,35,0,0,1-.91-4.63c-.08-.64-.12-1.18-.14-1.55l0-.59a.2.2,0,0,1,.19-.22.21.21,0,0,1,.21.18h0s0,.21.07.57.12.89.24,1.51A36.63,36.63,0,0,0,33,29.83c.54,1.6,1.17,3.18,1.64,4.36.12.29.22.56.32.8a2.06,2.06,0,0,0,.24.46.44.44,0,0,0,.14.13h0l0,0,0,0a.68.68,0,0,1-.63,1.21Z"/><path class="cls-12" d="M68.84,35.41l1-1.65,1.06-1.68.57-.95c.19-.34.36-.65.53-1a27.81,27.81,0,0,0,1.51-3.94c.34-1.11.55-1.86.55-1.86a.2.2,0,0,1,.39.09h0s-.15.76-.41,1.91a27.55,27.55,0,0,1-1.23,4.16c-.14.35-.32.74-.48,1.09s-.34.69-.51,1l-.93,1.77L70,36.09a.68.68,0,0,1-1.21-.64Z"/><path class="cls-5" d="M73.17,38.57a6.49,6.49,0,0,1-.13.85C72,44,73,47.85,74.28,52.41c.18.62.11,1.56-.53,1.57a1,1,0,0,1-.58-.22,17.62,17.62,0,0,1-6-7.54c-1.31-2.82-2.5-6.64-1.27-9.69a4.41,4.41,0,0,1,1.4-2C70.61,32.1,73.52,35.1,73.17,38.57Z"/><path class="cls-6" d="M73,39.42a6.49,6.49,0,0,0,.13-.85.66.66,0,0,0,0-.14,9.88,9.88,0,0,0-.48,1.42c-.52,2-.12,3.75-.26,5.78a5.16,5.16,0,0,1-.77,2.61,1.1,1.1,0,0,1-.87.7,2.38,2.38,0,0,1-.85.17,2.59,2.59,0,0,1-1.49-.5,15.6,15.6,0,0,0,4.71,5.15,1,1,0,0,0,.58.22c.64,0,.71-.95.53-1.57C73,47.85,72,44,73,39.42Z"/><path class="cls-13" d="M72.69,40.72l-.06.15c0,.29,0,.57,0,.86A15.85,15.85,0,0,1,72.92,40C72.85,40.22,72.77,40.47,72.69,40.72Z"/><path class="cls-5" d="M34.89,34.29c-1.35.87-1.36,2.75-1.36,4.19,0,4.74-.27,10.4-2.77,14.57-.2.33-.39.83-.06,1,1,.63,5.48-3.92,6.05-4.61C38.93,46.84,41.22,43.56,41,40,40.84,37.41,38.19,32.14,34.89,34.29Z"/><path class="cls-6" d="M40.83,38.91A15.66,15.66,0,0,1,40,41.59a28.19,28.19,0,0,1-3.32,5.52c-1,1.37-2.15,2.73-4,2.25a1.2,1.2,0,0,1-.33-.13,16.63,16.63,0,0,1-1.62,3.82c-.2.33-.39.83-.06,1,1,.63,5.48-3.92,6.05-4.61C38.93,46.84,41.22,43.56,41,40A6.66,6.66,0,0,0,40.83,38.91Z"/><path class="cls-12" d="M47.54,42.78s.12-.17.35-.43c.06-.06.11-.14.19-.21l.29-.23.35-.27.4-.21a4.73,4.73,0,0,1,.45-.23l.49-.18a9,9,0,0,1,1.11-.27,9.57,9.57,0,0,1,1.21-.09H53l.61.06a9.26,9.26,0,0,1,1.21.26,7.87,7.87,0,0,1,1.12.43c.18.08.35.16.51.25l.47.28c.31.18.57.41.82.58s.45.38.62.56.32.35.42.49a3.2,3.2,0,0,0,.35.45.21.21,0,0,1-.29.3l0,0v0a2.45,2.45,0,0,0-.31-.4,5.78,5.78,0,0,0-.46-.36,6.49,6.49,0,0,0-.66-.37,7.41,7.41,0,0,0-.84-.31l-.47-.13-.5-.11c-.33-.08-.69-.11-1-.18L54,42.33l-.26,0-.27,0-.54-.05-.54,0a3,3,0,0,0-.52,0h-.51l-.49,0a3.39,3.39,0,0,0-.47,0,6.76,6.76,0,0,0-.85.16l-.38.09-.31.11a2.43,2.43,0,0,0-.54.21,5,5,0,0,1-.5.23.2.2,0,0,1-.27-.11A.2.2,0,0,1,47.54,42.78Z"/><path class="cls-12" d="M46.45,50.28l.09-.12a1.8,1.8,0,0,1,.29-.35,3,3,0,0,1,.55-.48,4.43,4.43,0,0,1,.81-.47,5.31,5.31,0,0,1,1-.37,6.64,6.64,0,0,1,1.21-.21,7.89,7.89,0,0,1,1.29,0,8.47,8.47,0,0,1,1.32.15,10,10,0,0,1,4.36,2,8.46,8.46,0,0,1,.67.6c.19.19.34.36.47.51a2.81,2.81,0,0,1,.28.35l.1.12a.2.2,0,1,1-.31.26l0,0v0l-.07-.12a2.19,2.19,0,0,0-.25-.33,1.29,1.29,0,0,0-.2-.21,3.08,3.08,0,0,0-.26-.24,6.87,6.87,0,0,0-.69-.47,8.71,8.71,0,0,0-1.94-.8,18.83,18.83,0,0,0-2.33-.48c-.4-.05-.8-.1-1.19-.13s-.78,0-1.15,0-.73.06-1.07.09a8,8,0,0,0-.93.19,5.44,5.44,0,0,0-.75.26l-.3.15a1.91,1.91,0,0,0-.25.13,3.56,3.56,0,0,0-.35.23l-.12.09a.22.22,0,0,1-.29,0A.21.21,0,0,1,46.45,50.28Z"/><path class="cls-12" d="M46.23,57.74l.32-.24a2.57,2.57,0,0,1,.4-.25,4.17,4.17,0,0,1,.56-.28,5,5,0,0,1,.69-.25,5.69,5.69,0,0,1,.79-.2,8.46,8.46,0,0,1,.88-.1c.3,0,.6,0,.91,0a8.85,8.85,0,0,1,.9.12,7,7,0,0,1,.85.21,5.36,5.36,0,0,1,.77.3,4.38,4.38,0,0,1,.65.33,5.37,5.37,0,0,1,.89.64l.3.28a.21.21,0,0,1-.22.34h0l-.36-.15a9.77,9.77,0,0,0-.93-.36l-.63-.2c-.22-.07-.47-.11-.71-.18l-.77-.13c-.26,0-.53-.06-.79-.09s-.54,0-.8,0-.53,0-.78,0-.5,0-.72.09-.45.07-.65.12a4.31,4.31,0,0,0-.54.13,3.25,3.25,0,0,0-.43.12l-.38.11a.21.21,0,0,1-.26-.14A.2.2,0,0,1,46.23,57.74Z"/></g></g></g></svg>