<svg xmlns="http://www.w3.org/2000/svg" viewBox="0 0 132.7 93.74"><defs><style>.cls-1{fill:#9090f0;}.cls-2{fill:#adadf5;}.cls-3{fill:#7f7feb;}.cls-4{fill:#5e5eb0;}.cls-5{fill:#dfe4f5;}.cls-6{fill:#f0f3fa;}.cls-7{fill:#b7c2eb;}.cls-8{fill:#c4c8de;}.cls-9{fill:#e8ebf5;}.cls-10{fill:#ff4f4f;}.cls-11{fill:#6464a8;}.cls-12{fill:#fff;}.cls-13{fill:#f7f9fc;}.cls-14{fill:#1d1d2b;}</style></defs><g id="Слой_2" data-name="Слой 2"><g id="animal"><g id="x-ray-fish"><path class="cls-1" d="M113.07,70.31c3.54-6.25,6.25-13.23,6.28-20.48A30.7,30.7,0,0,0,103,23.08c-11.41-5.8-42.16-9.54-63.31,6-4.9,3.61-9.47,8.82-9.5,15.06,0,4.76,2.61,9.07,5.42,12.85C49.89,76.27,70.92,88.67,94,84.35,104,82.48,108.43,78.52,113.07,70.31Z"/><path class="cls-2" d="M87.47,25c-7.85-.79-9.07,0-15.14-.53-13.76-1.29-29.48,3.15-37.45,8.9,15-16.69,50.61-19.21,68.09-10.32a30,30,0,0,1,11.12,10A77.92,77.92,0,0,0,92,25.65C90.06,24.29,88.61,24.83,87.47,25Z"/><path class="cls-3" d="M33.58,51C44.65,67.51,63,78.47,82.22,79.59A5.47,5.47,0,0,0,87,81.49c11.49-1.33,17.32-3.17,22.09-5.23-4,4.79-8.8,6.91-15.1,8.09C58.9,90.93,31.9,57,30.3,46.18,31.4,47.83,32.51,49.45,33.58,51Z"/><path class="cls-4" d="M41.52,48.13a329.58,329.58,0,0,0,41.11,3.34c3.49.1,3.08-2.32,1.68-3A5,5,0,0,0,82,48.07c-18.82.1-30.42-2-40.08-3-4.11-.42-8.09-2-12.27-1.79a1,1,0,0,0,.2,1.15,2.62,2.62,0,0,0,1,.63A46,46,0,0,0,41.52,48.13Z"/><path class="cls-4" d="M83.34,41.12c1-7.86-2.79-15.47-5-14.34,0,0,1.68,5.47,1.78,6,.9,4.82-1.29,12.12-5.39,17.4,5.76,5.74,6.21,16.17,3.55,21.48a12.15,12.15,0,0,0-1.53,3.73c1.34,0,5.75-4.4,6.43-12.3.42-4.69-.81-8.9-2.36-13.22a1.3,1.3,0,0,1,0-1.23A27.56,27.56,0,0,0,83.34,41.12Z"/><path class="cls-4" d="M63.32,74.17c-.06,0-1,.11-1,0,3.59-5.66,4.24-6.66,3.94-12.33a24.34,24.34,0,0,0-2.58-9.72,20.76,20.76,0,0,1-1.6-2.69c.49-1.23,1.42-1.26,2.34-4.71a15.73,15.73,0,0,0,.48-5.25A16.74,16.74,0,0,0,61.15,30c-.27-.32-1.89-1.82-1.07-2.16s3.34,2.16,4,2.91C72.22,40,67,48.85,67,49.32a1.54,1.54,0,0,0,.16.62C72.81,62.88,67,73,63.32,74.17Z"/><path class="cls-4" d="M40.45,57.8c-.28.62-.62,1.05-1.24,1.07-.15-4,1.58-6.87-1.25-11.18-.12-.19-1.2-1.36-1.14-1.48.34-.68,1-.69,1.66-2.59.87-2.52.79-6.46-.78-8.66,2.17-.79,5.62,5.72,2.69,11-.12.2-.13.28,0,.56C42.21,49.66,42.7,52.84,40.45,57.8Z"/><path class="cls-4" d="M55,46.17c0,.51-.44,1.7-.26,2.15,2.43,6-.22,13-5.28,17.31a1.62,1.62,0,0,1-1.48.38A5.68,5.68,0,0,1,49,64.09c6.83-9.57,1.09-15.46,1-16.06a1.55,1.55,0,0,1,.22-.85,13,13,0,0,0-2.34-14.45c-.08-.08-.9-1.34-.68-1.34C49.58,31.36,55.4,37.89,55,46.17Z"/><path class="cls-5" d="M72,56.15c3.09,2.23,2.91,7,3.32,10a32.84,32.84,0,0,0,5.36,13.21c1.61,2.5,8.58,10,6.1,13.13C84,96,79.65,91.25,78.05,88.75c1.53,2.39-1.74,3.83-3.48,2.92-3.66-1.93-5.07-5.71-7.48-8.86-.23,3.68-3.18,1-4.28-.61-2.68-4-4.12-14,.69-21.3C65.73,57.5,68.64,53.73,72,56.15Z"/><path class="cls-6" d="M66.77,56.8c1.66-1.48,3.4-2,5.21-.65,4.12,3,1.92,8.43,4.93,16.08C74.72,67.33,71.62,59.3,66.77,56.8Z"/><path class="cls-7" d="M61,77.8c1.41,2.07,4.33,3,5.19,1.29.09,0,.07-.07.07-.16l0-.09A11.26,11.26,0,0,0,72,86.13c.9.49,2.21,1.25,3.15.44a1.22,1.22,0,0,0,.34-1.51,1.18,1.18,0,0,0,.13-.18A15.21,15.21,0,0,0,80,88.44c1.93,1.18,5,3,6.89.34.55,1.46.66,2.79-.08,3.72C84,96,79.65,91.25,78.05,88.75c1.53,2.39-1.74,3.83-3.48,2.92-3.66-1.93-5.07-5.71-7.48-8.86-.23,3.68-3.18,1-4.28-.61A12.83,12.83,0,0,1,61,77.8Z"/><path class="cls-8" d="M78.14,89.27l.28.41a1.58,1.58,0,0,1-.2,1.08c-8.82-13-8.35-27.71-7.67-22.53A48.47,48.47,0,0,0,78.14,89.27Zm-12.41-22a.07.07,0,1,0-.14,0c-.11.85-.22,2.45-.24,2.93A37.26,37.26,0,0,0,66.9,83.86a4.22,4.22,0,0,0,.19-1c.17.23.34.46.5.7C65.17,76.78,65.88,71.27,65.73,67.25Z"/><path class="cls-5" d="M50.6,23.39c9.51-1.82,12.23-5.21,28.42-4.22,10.08.61,14,2.74,16.79,1a1.44,1.44,0,0,0,.54-1.74c-.92-3.15-6.06-7.78-8.69-9.73C82.8,5.13,72-.23,68.38,0a4,4,0,0,0-3.65,2.65c-.44,1.57.87,3.54,2.42,3.27A11.19,11.19,0,0,0,63,5c-4.46.1-4.66,4.95-2.22,5.58-1.83-.71-3.91-1.37-5.68-.49s-2.32,4-.51,4.78c-1.58-.47-3.38-.91-4.79,0s-1.47,3.67.16,3.93c-5.62-.43-5.29,3.7-2.7,4.63A6.26,6.26,0,0,0,50.6,23.39Z"/><path class="cls-7" d="M61.42,19.44c17.37-4.88,27-.49,33.4-.27l1.43.6c-1.86,3.1-10.61-1.69-27.68-.58-9.95.65-20.45,7.29-22.8,2.87C50.89,22.84,57.1,20.66,61.42,19.44Z"/><path class="cls-9" d="M59.31,7.56C59.67,5.94,61.44,5,63.3,5A38.67,38.67,0,0,0,59.31,7.56Z"/><path class="cls-6" d="M76.46,6c-2.55-.28-5.06-1-7.61-.21a1.62,1.62,0,0,1-1.36,0c-1.38-.49-3.28-1.24-2.72-3.13A4.22,4.22,0,0,1,68.38,0a11,11,0,0,1,4.6,1A62.32,62.32,0,0,1,87.66,8.74c2.52,1.87,8.3,7,8.75,10C91.05,11.25,79.89,6.38,76.46,6Z"/><path class="cls-6" d="M49.16,18.23c-.81-1.07-.7-5,4.58-3.62,0,.16,0,.31,0,.47A5.7,5.7,0,0,0,49.16,18.23Z"/><path class="cls-6" d="M56.57,11.37a10.17,10.17,0,0,0-2.22,2.82c-1.93-.49-.3-3.58.79-4.11,1.71-.85,4.73-.17,4.93.23A6.57,6.57,0,0,0,56.57,11.37Z"/><path class="cls-9" d="M46.08,19.67a4.11,4.11,0,0,1,2.55-.93A18.43,18.43,0,0,0,46.08,19.67Z"/><path class="cls-6" d="M65.45,5.29c.62,0,.69-.32,1.75-.6.29.68.71.82,1.93,1.53C66.45,6,61.79,6.82,59.9,10c-1.9-2.15.28-6.19,5.64-4.6Z"/><path class="cls-8" d="M79,12a.09.09,0,0,1-.11.13c-.55-.39-1.23-.93-2-1.53A32,32,0,0,0,65.36,5.17a2.92,2.92,0,0,1-.59-1.08A29.58,29.58,0,0,1,79,12ZM48.75,18.74c2,.39,4.27.92,4.27.92.79,0-2.05-1.17-4-1.68a1.33,1.33,0,0,0,1,.77A8.77,8.77,0,0,0,48.75,18.74ZM60,10.1l.13.05a25.23,25.23,0,0,1,6.51,3.68c1,.62-2.48-3.19-7.27-4.79A2.33,2.33,0,0,0,60,10.1Zm-1.76,6.81c1.56.74-2-2.23-4.58-3.21a1.72,1.72,0,0,0,1,1.16c-.21-.06-.43-.13-.65-.18A26.55,26.55,0,0,1,58.23,16.91Z"/><path class="cls-1" d="M7.75,32.93C.64,41.59,16.49,37,9.25,45.16a4.46,4.46,0,0,0-1.44,3c.1,1.74,2,2.75,3.49,3.85,3.53,2.69-.58,3.2-1.47,5.24-.37.84.5,1.63,1,2.39a4.25,4.25,0,0,1-.18,4.59C9.5,66.08,2.23,68.57,4.9,71.36c.83.87,2.34.78,3.61.53,7-1.37,11.09-4.8,15.34-9.38,3.86-4.16,7.11-9,7.63-14.13C32.72,36.22,23.18,25,11.81,22.33c-3-.71-7.2-1.86-10.3-.42C-1.32,23.23.12,25.55,3.4,26.7S11.19,28.73,7.75,32.93Z"/><path class="cls-2" d="M1.87,26c-2.16-1.22-2.65-3-.36-4.11,3.1-1.44,7.26-.29,10.3.42a26.67,26.67,0,0,1,18,15.38C24.4,30.2,11.94,22,1.87,26Z"/><path class="cls-3" d="M7.18,66.85C17.81,66.77,27.3,55.09,31.54,44.9c.44,7-2.79,12.33-7.69,17.61-4.25,4.58-8.35,8-15.34,9.38-1.27.25-2.78.34-3.61-.53C3.34,69.74,5.16,68.21,7.18,66.85Z"/><path class="cls-4" d="M28.64,46.58c.14.92-4,8.54-6.57,12.15a8.54,8.54,0,0,0-1.36,2.33c.53.15,1.06-.29,1.4-.66a66.6,66.6,0,0,0,7.76-10.26c1.62-2.7,3.5-4.6,1.33-7.55-3.86-5.21-9.81-9.3-15.31-12.43a.86.86,0,0,0-.84-.11c-1.46,1,13.39,12.88,13.78,13-1-.34-1.53-.41-8.17-.45-1.19,0-2.44-.11-3.62-.07-.53,0-2.34.32-1.46,1,.54.4,5.72,1,6.38,1a41.3,41.3,0,0,0,4.83.28c-4.23,2.1-3.71,1.76-8.54,5.33-.42.31-.88.75-.66,1.14C20.23,50.88,27.76,46.89,28.64,46.58Z"/><path class="cls-5" d="M131.94,58.42C136,45.16,122.8,33.06,112.69,27.5c-3.48-1.91-9-4.33-12.94-2.65-4.46,1.92-3,5.11-3.12,6.92-.18,2.78-3,2.61-3.7,2.94-6.91,3.51-1.1,8.4-3.75,10.35a21.65,21.65,0,0,0-2.79,1.8c-2.34,2.31-1.43,6,.49,8.28.83,1,1.87,1.84,2.21,3.09s-.18,2.75-.61,4.08a4.16,4.16,0,0,0,2,5.15c5.74,3,1,7.55,4.86,11.64,1.95,2.06,5.12,3.73,8,3.39a21.34,21.34,0,0,0,5.86-1.93C118.42,75.69,128.37,70,131.94,58.42Z"/><path class="cls-6" d="M114.39,33.23c-6.55-3.62-11.34-4.86-17.19-6.44,3.26-4.59,10.55-2,15.49.71,7.87,4.33,17.63,12.63,19.64,22.35C128.18,42.77,121.47,37.13,114.39,33.23Z"/><path class="cls-7" d="M120.26,69.1c5.39-3.65,9.94-8.38,12.38-14.36-1.25,16.05-23.71,27.06-29.39,27.75a9.78,9.78,0,0,1-6.89-2.4C104.64,78.46,114,75.22,120.26,69.1Z"/><path class="cls-7" d="M106.82,61.65c-4.24-1.33-7.24-6-8.24-10.52C102.66,59.2,113.23,62.5,122,56.6,119.21,61.47,111.7,63.17,106.82,61.65Z"/><path class="cls-10" d="M107.93,63.57a4.41,4.41,0,0,0,5.17,1,3,3,0,0,0,1.45-1.89,4.7,4.7,0,0,0-.51-3.1l-.06-.14-2.22-.08a12.93,12.93,0,0,1-2.07-.12,40.87,40.87,0,0,1-4.62-1.51C106,59.77,106.26,61.91,107.93,63.57Z"/><path class="cls-11" d="M122.21,56.81c-8.44,5.76-19,3.28-24.13-5.93-.15-.27-.32-.5,0-.66s.41.33,1.43,1.62c5.9,7.33,14.37,8.77,22.18,4.66.27-.14.52-.33.66,0A.27.27,0,0,1,122.21,56.81Z"/><path class="cls-7" d="M115.13,45.43c1.72,3.94,5.69,5.93,8.86,4.45s4.34-5.9,2.62-9.84-5.68-5.93-8.85-4.44S113.42,41.49,115.13,45.43Z"/><path class="cls-7" d="M100.52,46.87c2,4.5,6.43,6.8,10,5.14s4.83-6.67,2.87-11.18-6.43-6.8-10-5.13S98.56,42.36,100.52,46.87Z"/><ellipse class="cls-12" cx="121.25" cy="42.11" rx="5.98" ry="7.35" transform="translate(-7.07 44.95) rotate(-20.42)"/><path class="cls-13" d="M121.21,47.08A4.55,4.55,0,0,0,126,45a7.21,7.21,0,0,0,1.46-2c.13,7.18-7.94,8.78-11.31,2.27A9.09,9.09,0,0,0,121.21,47.08Z"/><path class="cls-12" d="M101.26,46.08c1.85,4.24,6.07,6.42,9.42,4.84s4.56-6.29,2.7-10.54S107.32,34,104,35.53,99.41,41.83,101.26,46.08Z"/><path class="cls-13" d="M107.16,48.72c3.71.91,6.26-1.61,7-5.44.41,3.32-.9,6.43-3.49,7.64-3.47,1.63-7.86-.76-9.58-5.27A8.75,8.75,0,0,0,107.16,48.72Z"/><path class="cls-14" d="M120.73,43.77a2.69,2.69,0,0,0-.27-5.22c-.32,0-.18,2.52-.51,2.61s-1.24-2.24-1.54-2C116.44,41,118.15,44.44,120.73,43.77Z"/><path class="cls-14" d="M107.71,45.55c3.19-.83,2.82-5.66-.44-6-.32,0-.08,3.19-.41,3.28-.48.12-1.48-2.83-1.82-2.51C102.78,42.45,104.75,46.32,107.71,45.55Z"/></g></g></g></svg>