<svg xmlns="http://www.w3.org/2000/svg" viewBox="0 0 114.12 117.59"><defs><style>.cls-1{fill:#cacf7e;}.cls-2{fill:#a3d35e;}.cls-3{fill:#8abd48;}.cls-4{fill:#e1e69e;}.cls-5{fill:#c0eb76;}.cls-6{fill:#4a6e19;}.cls-7{fill:#fcfcf3;}.cls-8{fill:#e6e4cf;}.cls-9{fill:#203318;}.cls-10{fill:#527523;}</style></defs><g id="Слой_2" data-name="Слой 2"><g id="animal"><g id="frog"><path class="cls-1" d="M5.34,64.09l-.3.07Z"/><path class="cls-1" d="M5.64,64l-.24.08Z"/><path class="cls-1" d="M17.92,75.39a1.54,1.54,0,0,1-.08-.19A1.54,1.54,0,0,0,17.92,75.39Z"/><path class="cls-1" d="M6,63.82l-.14.07Z"/><path class="cls-1" d="M17.81,75.13l-.08-.21Z"/><path class="cls-1" d="M5.84,63.9,5.65,64Z"/><path class="cls-1" d="M5,64.18l-.33.06Z"/><path class="cls-1" d="M6.11,63.75,6,63.81Z"/><path class="cls-1" d="M5.48,54.36A1.9,1.9,0,0,1,5.36,54,1.9,1.9,0,0,0,5.48,54.36Z"/><path class="cls-1" d="M18.06,75.63l-.1-.17Z"/><path class="cls-1" d="M5.66,54.71a2.1,2.1,0,0,1-.15-.3A2.1,2.1,0,0,0,5.66,54.71Z"/><path class="cls-1" d="M4.57,64.25l-.43,0Z"/><path class="cls-1" d="M4,64.31l-.53,0Z"/><path class="cls-1" d="M6,55.12a3.43,3.43,0,0,1-.24-.33A3.43,3.43,0,0,0,6,55.12Z"/><path class="cls-1" d="M.65,62c0-.13,0-.26,0-.38C.63,61.75.63,61.88.65,62Z"/><path class="cls-1" d="M5.34,53.93l-.06-.32Z"/><path class="cls-1" d="M.07,72.15c0-.11,0-.23.08-.34C.12,71.93.09,72,.07,72.15Z"/><path class="cls-1" d="M.17,71.74c0-.12.08-.24.13-.36C.25,71.5.21,71.62.17,71.74Z"/><path class="cls-1" d="M.32,71.33.5,71Z"/><path class="cls-1" d="M0,72.56c0-.1,0-.2,0-.31C0,72.36,0,72.46,0,72.56Z"/><path class="cls-1" d="M.07,73.42c0-.1,0-.2,0-.3C0,73.22.05,73.32.07,73.42Z"/><path class="cls-1" d="M0,73c0-.1,0-.2,0-.3C0,72.79,0,72.89,0,73Z"/><path class="cls-1" d="M.52,70.93a4,4,0,0,1,.23-.39A4,4,0,0,0,.52,70.93Z"/><path class="cls-1" d="M.25,74a3.39,3.39,0,0,1-.15-.41A3.39,3.39,0,0,0,.25,74Z"/><path class="cls-1" d="M17.56,74.3c0-.09,0-.19,0-.28C17.53,74.11,17.54,74.21,17.56,74.3Z"/><path class="cls-1" d="M17.71,74.87c0-.08-.05-.16-.07-.24C17.66,74.71,17.69,74.79,17.71,74.87Z"/><path class="cls-1" d="M8,69.46l.12,0Z"/><path class="cls-1" d="M9.08,72.12l-.52.14Z"/><path class="cls-1" d="M8.56,72.26l-.19,0Z"/><path class="cls-1" d="M7.89,69.49l0,0Z"/><path class="cls-1" d="M17.63,74.59l-.06-.26Z"/><path class="cls-1" d="M18.83,76.38l-.13-.08Z"/><path class="cls-1" d="M20.49,76.7h0Z"/><path class="cls-1" d="M18.39,76.05l-.11-.13Z"/><path class="cls-1" d="M19.1,76.51,19,76.44Z"/><path class="cls-1" d="M18.6,76.23l-.12-.11Z"/><path class="cls-1" d="M19.72,76.67a.8.8,0,0,1-.15,0A.8.8,0,0,0,19.72,76.67Z"/><path class="cls-1" d="M5.27,53.56c0-.13,0-.27,0-.4C5.25,53.29,5.26,53.43,5.27,53.56Z"/><path class="cls-1" d="M19.39,76.61l-.15,0Z"/><path class="cls-1" d="M5.48,51.9a4.78,4.78,0,0,0-.2.83A4.78,4.78,0,0,1,5.48,51.9Z"/><path class="cls-1" d="M11.83,54.22h0Z"/><path class="cls-1" d="M11.91,53.67c-.05.32-.1.52-.1.52S11.86,54,11.91,53.67Z"/><path class="cls-1" d="M5.25,53.15l0-.4Z"/><path class="cls-1" d="M18.21,75.85l-.1-.15Z"/><path class="cls-1" d="M.67,60.73a4.35,4.35,0,0,0-.05.8A4.35,4.35,0,0,1,.67,60.73Z"/><path class="cls-1" d="M20.09,76.71l-.16,0Z"/><path class="cls-1" d="M12.05,54.48h0Z"/><path class="cls-1" d="M.78,60.27h0c0,.13-.07.27-.1.4C.71,60.54.74,60.4.78,60.27Z"/><path class="cls-1" d="M.78,60.27a3.43,3.43,0,0,0,6.06.26C4.45,56.79,1.42,58.12.78,60.27Z"/><path class="cls-1" d="M6.08,50.63a5.66,5.66,0,0,0-.6,1.27c.39,1.9,2.35,3.83,6.43,1.77.13-.85.27-2.54-.6-3.32C10.13,49.29,7,49.2,6.08,50.63Z"/><path class="cls-1" d="M.75,70.54a4.15,4.15,0,0,0,.31,2.62,3.09,3.09,0,0,0,5.64.17,13.17,13.17,0,0,0,1-3.91C4.71,68,2.52,67.84.75,70.54Z"/><path class="cls-1" d="M7,60.76Z"/><path class="cls-1" d="M38.2,50.29s-5.45,6.33-10.88,7.27-11.12.16-12.73-.86a11.85,11.85,0,0,1-2.35-2h0c-.49.76-3,1.25-3,1.25,2.28,2.64,4.26,3.27,8.36,4.73a10.16,10.16,0,0,1-3.79,1c-2,.06-5.94-.42-6.78-.87l0,0a14.65,14.65,0,0,1-.87,3l.08-.06c2.12,1.75,7.4.38,10-.44-1.84,3.52-4.35,4.83-8.12,6.16a25.9,25.9,0,0,1,1,2.71A21.66,21.66,0,0,0,14.33,70c2.16-1.39,4-4.92,4-4.92l.63.56.42,5.12s-2.16,1.51-1.91,3.16c0,0,0,.07,0,.11a2.47,2.47,0,0,0,2.31,1.41,6,6,0,0,0,3.88-2.25,5.05,5.05,0,0,0-1.25-2.65s-.61-5.54-.63-6.39a4,4,0,0,0-.21-1.34s7.16-1.07,10.11-2.2,7.15-3.74,8-4.75,3-3.13,3.11-4.59-1.27-2.28-2.74-2A2.5,2.5,0,0,0,38.2,50.29Z"/><path class="cls-1" d="M7.84,69.5l-.15-.07Z"/><path class="cls-1" d="M7.69,69.43h0Z"/><path class="cls-1" d="M7.84,69.5l-.16-.08a13.17,13.17,0,0,1-1,3.91,3.09,3.09,0,0,1-5.64-.17,4.15,4.15,0,0,1-.31-2.62h0a4,4,0,0,0-.23.39l0,0-.18.38,0,0c0,.12-.09.24-.13.36s0,.05,0,.07-.06.23-.08.34a.36.36,0,0,0,0,.1c0,.11,0,.21,0,.31s0,.09,0,.13,0,.2,0,.3a.57.57,0,0,0,0,.13c0,.1,0,.2.05.3l0,.13A3.39,3.39,0,0,0,.25,74,4.05,4.05,0,0,0,6,75.58a5.55,5.55,0,0,0,2.4-3.27l.71-.19a25.9,25.9,0,0,0-1-2.71Z"/><path class="cls-1" d="M4.17,62.19A3.34,3.34,0,0,1,.78,60.27c0,.13-.07.27-.1.4v.06a4.35,4.35,0,0,0-.05.8v.1c0,.12,0,.25,0,.38.2,1.52.72,2.39,2.85,2.33l.53,0h.11l.43,0h.08L5,64.18l.06,0,.3-.07.06,0L5.64,64h0l.19-.08h0L6,63.82H6l.09-.06h0a14.65,14.65,0,0,0,.87-3l-.14-.23A3,3,0,0,1,4.17,62.19Z"/><path class="cls-1" d="M19.82,75.43A2.47,2.47,0,0,1,17.51,74h0c0,.09,0,.19,0,.28v0l.06.26v0c0,.08.05.16.07.24l0,0,.08.21,0,.07a1.54,1.54,0,0,0,.08.19.25.25,0,0,1,0,.07l.1.17.05.07.1.15.07.07.11.13.09.07.12.11.1.07.13.08.12.06.15.07.14,0,.15,0,.18,0a.8.8,0,0,0,.15,0l.21,0,.16,0h.4a3.42,3.42,0,0,0,.44,0c2.5-.33,2.67-2,2.77-3.3a1.08,1.08,0,0,0,0-.18A6,6,0,0,1,19.82,75.43Z"/><polygon class="cls-1" points="5.48 51.9 5.48 51.9 5.48 51.9 5.48 51.9"/><path class="cls-1" d="M5.48,51.9a4.78,4.78,0,0,0-.2.83v0l0,.4h0c0,.13,0,.27,0,.4v0l.06.32a.64.64,0,0,0,0,.07,1.9,1.9,0,0,0,.12.36l0,0a2.1,2.1,0,0,0,.15.3.56.56,0,0,1,0,.08,3.43,3.43,0,0,0,.24.33c1.12,1.3,3.26.82,3.26.82s2.54-.49,3-1.25c-.29-.4,0,.07-.43-.5,0-.2.1-.52.1-.52C7.83,55.73,5.87,53.8,5.48,51.9Z"/><path class="cls-1" d="M100.92,35.62a2.76,2.76,0,0,1,.18.39A2.76,2.76,0,0,0,100.92,35.62Z"/><path class="cls-1" d="M100.68,35.24a3,3,0,0,1,.24.38A3,3,0,0,0,100.68,35.24Z"/><path class="cls-1" d="M101.25,36.51c0,.12,0,.24,0,.37C101.29,36.75,101.27,36.63,101.25,36.51Z"/><path class="cls-1" d="M101.12,36.05a2.91,2.91,0,0,1,.12.39A2.91,2.91,0,0,0,101.12,36.05Z"/><path class="cls-1" d="M100.05,34.5a5.17,5.17,0,0,1,.62.71A5.17,5.17,0,0,0,100.05,34.5Z"/><path class="cls-1" d="M106.09,54.48l-.47.08Z"/><path class="cls-1" d="M96.45,63a3,3,0,0,1-.15.87A3,3,0,0,0,96.45,63Z"/><path class="cls-1" d="M108.65,41.64c0,.11.09.22.12.33Z"/><path class="cls-1" d="M99.05,60.35a2,2,0,0,1,0,.24A2,2,0,0,0,99.05,60.35Z"/><path class="cls-1" d="M113.65,51.14l0,0h0S113.64,51.13,113.65,51.14Zm.06.09-.06-.09Zm-12.18-3.16a5.37,5.37,0,0,0,3-2.33,11.32,11.32,0,0,1-2.41-1.8h0A26.61,26.61,0,0,1,97,47a9.44,9.44,0,0,1-3.76.64s1.63-1.62,3.13-3.24a12.58,12.58,0,0,0,2.27-4.44,27.61,27.61,0,0,1-3.06-.37l.29.05a3.19,3.19,0,0,0,2.25-.81,7.83,7.83,0,0,0,1.89-4.29,6.08,6.08,0,0,0-.83-.67c-1.38-.94-4.13.42-4.73,1.86s1.25,3.88,1.13,3.86h0a13.75,13.75,0,0,1-1.37,3.24c-1,1.57-5.69,4.57-10.88,5.92S70.73,46.5,70.73,46.5a2.44,2.44,0,0,0-2.09-.19c-1.4.35-2.32,1.68-1.57,2.94s3.52,2.32,4.66,2.91,6,1.26,9,1.09,9.85-2.09,9.85-2.09A4.24,4.24,0,0,0,91,52.47c.34.78,2.12,6.06,2.12,6.06a4,4,0,0,0,.52,3.82,3.64,3.64,0,0,0,.48,0c2.32-.07,3.1-.36,4.24-1.26a3.46,3.46,0,0,0,.72-.77,7.47,7.47,0,0,0-.17-.76c-.47-1.59-3-2.1-3-2.1l-1.76-4.81.31-.77s3.12,2.45,5.62,2.85a21,21,0,0,0,5.58-.2c-.32-1.15-.59-2.16-.77-2.82a24,24,0,0,1-4.43-.07,11.91,11.91,0,0,1-4.88-2.28A31,31,0,0,0,101.53,48.07Zm7-6.78a5.83,5.83,0,0,1-3,3.21,2.94,2.94,0,0,1-3.19-.66.15.15,0,0,0,0-.07,2,2,0,0,0,.33-.33s.19-3.34,2.28-3.9A3,3,0,0,1,108.49,41.29Zm.94,7.6c-1.8.08-3.88,2.8-3.88,2.8l-.49,0a5.23,5.23,0,0,0,4.07,2.34c2,.11,3.61-1.66,4.5-3A5.3,5.3,0,0,0,109.43,48.89Zm4.57,3a.42.42,0,0,0,0-.1A.42.42,0,0,1,114,51.9Zm.08.35a3.59,3.59,0,0,0-.08-.35A3.59,3.59,0,0,1,114.08,52.25Zm-.26-.8a2.26,2.26,0,0,0-.11-.22A2.26,2.26,0,0,1,113.82,51.45Zm.06.11a2.25,2.25,0,0,1,.08.24A2.25,2.25,0,0,0,113.88,51.56Zm-.06-.11.06.11Z"/><path class="cls-1" d="M108.49,41.29l.15.32Z"/><path class="cls-1" d="M101.31,36.93a2.84,2.84,0,0,1,0,.41A2.84,2.84,0,0,0,101.31,36.93Z"/><path class="cls-1" d="M101.29,37.43a3.58,3.58,0,0,1-.08.43A3.58,3.58,0,0,0,101.29,37.43Z"/><path class="cls-1" d="M98.16,38.79a3.09,3.09,0,0,1-2.54.76,22.05,22.05,0,0,0,3.06.37s2.09-.42,2.53-2.06a3.58,3.58,0,0,0,.08-.43s0-.06,0-.09a2.84,2.84,0,0,0,0-.41s0,0,0,0,0-.25,0-.37a.17.17,0,0,1,0-.07,2.91,2.91,0,0,0-.12-.39l0,0a2.76,2.76,0,0,0-.18-.39h0a3,3,0,0,0-.24-.38v0a5.17,5.17,0,0,0-.62-.71h0A7.83,7.83,0,0,1,98.16,38.79Z"/><path class="cls-1" d="M94.09,62.38a3.64,3.64,0,0,1-.48,0h0a4.17,4.17,0,0,0,.39.51l.17.17a1.27,1.27,0,0,0,.2.16,1.21,1.21,0,0,0,.28.19l.23.11.25.09a2.34,2.34,0,0,0,.32.07h.79l.25,0,.11,0a3.1,3.1,0,0,0,.39-.09l.38-.14.12,0,.22-.11.12-.06L98,63l.11-.07.15-.12.09-.07.14-.13a.46.46,0,0,1,.07-.07,1.49,1.49,0,0,0,.15-.2.61.61,0,0,0,.07-.1l.07-.12a.61.61,0,0,0,0-.12.47.47,0,0,0,0-.1.74.74,0,0,0,0-.14l0-.09c0-.05,0-.1,0-.15a.15.15,0,0,1,0-.07,3.77,3.77,0,0,0,0-.89h0a2,2,0,0,0,0-.24h0a3.46,3.46,0,0,1-.72.77C97.19,62,96.41,62.31,94.09,62.38Z"/><path class="cls-1" d="M109.13,54.07a5.23,5.23,0,0,1-4.07-2.34h-.21c.18.66.45,1.67.77,2.82h0l.64-.11a5.5,5.5,0,0,0,3.49,2,3.87,3.87,0,0,0,4.37-3.78,3,3,0,0,0,0-.42h0a3,3,0,0,0-.45-1.15C112.75,52.41,111.17,54.18,109.13,54.07Z"/><path class="cls-1" d="M102.28,43.82l-.12.1a10.78,10.78,0,0,0,2.42,1.82s.75.31,2.65-.5,2-1.8,1.54-3.27l-.12-.33v0l-.15-.32h0a5.83,5.83,0,0,1-3,3.21A3,3,0,0,1,102.28,43.82Z"/><path class="cls-1" d="M82.1,76.45c.13-.24.26-.49.4-.72,1.59-2.58,7.79-6.62,10-2.51,1.1,2.08,2.09,3.21.65,5.84A12.89,12.89,0,0,1,87,84.23S82.68,85.69,83.28,86s4.59-.5,6.27-1a76.1,76.1,0,0,0,7.53-2.64,17.92,17.92,0,0,0,2.6-1.37s.79-3,3-2.9,3,2.62,2.53,3.78a3.19,3.19,0,0,1-4.05,1.94s-5.55,2.4-6.24,2.6-1.91.82-1.61,1,5.34,1,6,1.29a9.25,9.25,0,0,0,1.82.54s3.1-1.36,4.49-.3,2.8,3.57.51,5.38-3.67,1-4.46.36a34.16,34.16,0,0,1-2.49-2.37s-2.1-.78-2.79-.93-2.73-1.09-3-.82,1,2.95,1.24,3.49,2,4.93,2.17,5.15,1.47.19,2.25.93,1.59,2.45.81,3.66a4.55,4.55,0,0,1-5.56,1.14c-2-1.23-.84-3.93-.6-4.37s.58-1,.58-1a9.55,9.55,0,0,1-1.7-2.19c-.59-1.16-3.37-6.27-3.82-6.87s-.73-1-.93-1a68.2,68.2,0,0,1-7-.27,14.67,14.67,0,0,1-4.31-1.37c-.86-.58-2.23-1.57-1.73-1.91a25.88,25.88,0,0,0,5.08-4.89C81,79.67,81.34,78,82.1,76.45Z"/><path class="cls-1" d="M90,71.82a2.79,2.79,0,0,1,2.47,1.4c1.1,2.08,2.09,3.21.65,5.84a14,14,0,0,1-6.42,5.46S82.32,86.35,82.16,86s2.28-1.25,6.9-5.12C91.92,78.45,91.23,75.15,90,71.82Z"/><path class="cls-1" d="M104.26,78.57a3.15,3.15,0,0,1,1,3.23,3.24,3.24,0,0,1-3.77,2l0-1a4,4,0,0,0,2.88-2.25A1.77,1.77,0,0,0,104.26,78.57Z"/><path class="cls-1" d="M105,91.87a6.55,6.55,0,0,0-.58-3.34,2.23,2.23,0,0,1,1.16.39c1.39,1,2.8,3.57.51,5.38s-3.67,1-4.46.36a12.42,12.42,0,0,1-1.08-1l-.06-.63S104.67,93.41,105,91.87Z"/><path class="cls-1" d="M97.79,102.4A2.91,2.91,0,0,0,99,100.15c.76.76,1.53,2.43.77,3.62a4.55,4.55,0,0,1-5.56,1.14A2.38,2.38,0,0,1,93.13,103,4.21,4.21,0,0,0,97.79,102.4Z"/><path class="cls-1" d="M20,96.21a21,21,0,0,0,3,.25c2.23.07,7.49,0,9.3-.23a14.4,14.4,0,0,0,5.39-2.11c.47-.46-4.42.29-4.42.29a11.7,11.7,0,0,1-7.56-2.28c-2.59-1.7-2.15-3.4-1.94-5.72s4.8-4.67,4.8-4.67c1,.17,4.53-1.19,6.7-.54s12.45,9.38,13.06,9.49-2.83,2.08-3.42,2.93a15.29,15.29,0,0,1-3.57,2.91,69,69,0,0,1-6.53,2.92c-.21.07-.33.53-.51,1.25s-.79,6.44-.9,7.73a8.92,8.92,0,0,1-.74,2.65s.55.38,1,.69,2.56,2.34,1.18,4.21-4.54,1.91-5.77,1.11-1.15-2.68-.7-3.65S30,112,30.09,111.72s0-5,0-5.53.19-3.54-.22-3.66-2,1.53-2.58,1.93S25,106.38,25,106.38a31.59,31.59,0,0,1-1.43,3.12c-.52.85-1.5,2.16-4.42,1.39s-2.58-3.6-1.67-5.1,4.41-1.46,4.41-1.46a9.13,9.13,0,0,0,1.53-1.19c.46-.53,5-3.15,5.17-3.47s-1.22-.42-2-.34-7,0-7,0A3.42,3.42,0,0,1,15,99.16a2.83,2.83,0,0,1,.91-4.42C18,93.82,20,96.21,20,96.21Z"/><path class="cls-1" d="M25.77,87.57c4.8,7.75,13.42,4.81,13.31,5.78-.12,1.16-5.38,1-5.83,1.06a11.7,11.7,0,0,1-7.56-2.28c-2.59-1.7-2.15-3.4-1.94-5.72a3.66,3.66,0,0,1,1.1-2A4.84,4.84,0,0,0,25.77,87.57Z"/><path class="cls-1" d="M19.87,98.58s.7.26.7.79h-.95A3.42,3.42,0,0,1,15,99.16a3,3,0,0,1-.5-3,3.16,3.16,0,0,0,1.06,1.07A7.79,7.79,0,0,0,19.87,98.58Z"/><path class="cls-1" d="M29.07,115.28c1.91.67,4.74-.17,4.53-3.51.41.31,2.56,2.34,1.18,4.21s-4.54,1.91-5.77,1.11a2.63,2.63,0,0,1-1-2.48A2.91,2.91,0,0,0,29.07,115.28Z"/><path class="cls-1" d="M18.17,108.22c4.89,2.18,4.94-2.75,5.52-2.75.27,0,.75.59,1.14,1.33a26.64,26.64,0,0,1-1.26,2.7c-.52.85-1.5,2.16-4.42,1.39a2.85,2.85,0,0,1-2.27-3.42A4,4,0,0,0,18.17,108.22Z"/><path class="cls-1" d="M40.6,48.45S29.9,70,29.4,74.78s-1,9.55,8.33,14.16,21.09,5.24,28.58,2.91c9.92-3.09,18-13,19.15-19.83,1.28-7.71-11.45-19.62-14-22.68s-9.74-7.49-15.93-7.55S42.46,44.63,40.6,48.45Z"/><path class="cls-1" d="M78.14,80.64c-4.78,5.53-9.77,9-14.81,10.52A66.56,66.56,0,0,1,53.69,93c11.43.48,12-.91,16.16-3,8.36-4.24,14.54-10.23,15.61-18,.41-2.94-1.14-6.47-3.36-9.89C82.66,67.84,82.92,75.12,78.14,80.64Z"/><path class="cls-1" d="M40.38,70.4C39,76.35,38,85.87,42.58,89.49c4.35,3.42,11.67,4.87,18.73,3.75S76,86.73,77.4,83.69s2-13.37-4.59-20.49S63.69,53.5,55,54.06C47.9,54.52,41.77,64.45,40.38,70.4Z"/><path class="cls-1" d="M35.9,87.3c-3.21-3.12-5.36-7.62-4.07-12.94,2-8.36,7.49-23.3,7.49-23.3C36.47,56.93,29.79,71,29.4,74.78S28.66,83.64,35.9,87.3Z"/><path class="cls-1" d="M48.16,92.2c-2.31-.17,5.64,2.3,13.15,1,7.06-1.2,14.64-5.67,16-8.71a10.88,10.88,0,0,0,.81-3.89c-.65,1.23-5.65,5.33-7,6C64.87,89.94,62.15,93.21,48.16,92.2Z"/><path class="cls-1" d="M37.65,59.82a2,2,0,1,0,2-2A2,2,0,0,0,37.65,59.82Z"/><path class="cls-1" d="M34.24,65.3c1.25,0,1.31-2,.06-2.07A1,1,0,0,0,34.24,65.3Z"/><path class="cls-1" d="M39.72,56.15a1.38,1.38,0,1,0,.08-2.75A1.38,1.38,0,1,0,39.72,56.15Z"/><path class="cls-1" d="M71.43,12.65l.1.37Z"/><path class="cls-1" d="M71.41,12.56l0,.09Z"/><path class="cls-1" d="M71.69,13.61c0,.12,0,.14,0,0Z"/><path class="cls-1" d="M71.61,13.31l0,.17Z"/><path class="cls-1" d="M71.41,12.56l0,.09Z"/><path class="cls-1" d="M71.41,12.56l0,.09Z"/><path class="cls-1" d="M71.41,12.56l0,.09Z"/><path class="cls-1" d="M61.76.14A7.71,7.71,0,0,0,60.49,0,8.7,8.7,0,0,0,52,6.72a9,9,0,0,0-8.16-5.29,11.83,11.83,0,0,0-8.94,4.45,16.63,16.63,0,0,0-3.35,7.53c-.14.74-.22,5.29-.65,5.55C19.81,25.44,19.8,32.08,19.8,32.08c.4,20.44,36.14,20.25,49.12,14.29C87.36,37.9,87.14,25.52,84.18,19.93,82.92,17.57,80.25,16.2,78,15c-.58-.29-6.26-2.6-6-2l-1.26-3.3C69.08,5.56,66.53,1.08,61.76.14Z"/><path class="cls-1" d="M35.91,46.6c-3.3-2.34-8.22-4.91-10.41-8.4C20,29.44,28.07,23.54,35.43,20.44,34,15.19,35,8.69,40.13,5.89A10.79,10.79,0,0,1,52.85,7.5C55.62,4,61.51,3,66.3,5a11.87,11.87,0,0,1,3.12,1.93c-1.61-3.17-4-6-7.66-6.75A7.71,7.71,0,0,0,60.49,0,8.7,8.7,0,0,0,52,6.72a9,9,0,0,0-8.16-5.29,11.83,11.83,0,0,0-8.94,4.45,16.63,16.63,0,0,0-3.35,7.53c-.14.74-.22,5.29-.65,5.55C19.81,25.44,19.8,32.08,19.8,32.08,20,43,30.28,48,41.79,49.43A16.64,16.64,0,0,1,35.91,46.6Z"/><path class="cls-1" d="M71.43,12.65l.1.37Z"/><path class="cls-1" d="M35.56,19.67c-.07,9.89,9.26,10.69,11.72,9.7,6.45-2.57,8-20.54-3.09-21.66C44.19,7.71,35.65,7.18,35.56,19.67Z"/><path class="cls-1" d="M35.85,19c-.07,9.42,8.83,10.18,11.17,9.24,6.15-2.46,7.66-19.58-2.94-20.65C44.08,7.58,35.94,7.07,35.85,19Z"/><path class="cls-1" d="M56.22,18.88c1.88,10.15,10.24,7.86,11.46,7s4.39-5.78,1.89-13.54-9-7-9-7C58.31,5.89,54.34,8.73,56.22,18.88Z"/><path class="cls-1" d="M56.42,18.08c1.78,9.63,9.72,7.46,10.87,6.67s4.17-5.49,1.8-12.85-8.54-6.67-8.54-6.67C58.41,5.76,54.64,8.45,56.42,18.08Z"/><path class="cls-1" d="M45.31,26.06c-4.27.47-7.38-2.33-9.29-4.89,1.21,7.35,8.85,7.92,11,7.06a7.54,7.54,0,0,0,3.47-3.74A13.84,13.84,0,0,1,45.31,26.06Z"/><path class="cls-1" d="M58.12,22.53c3,4.36,8.25,2.85,9.17,2.22s3.09-3.87,2.6-9.06C67.83,22.57,64.53,25.37,58.12,22.53Z"/><path class="cls-1" d="M43.57,16.18c-.46,0-.81-3-1.21-2.86a3.37,3.37,0,0,0,1.1,6.5c4,.12,4.74-5.72.87-6.64C44.11,13.13,43.8,16.19,43.57,16.18Z"/><path class="cls-1" d="M61.72,13.8c-.44,0-.78-2.65-1.16-2.49-3.2,1.33-2.4,6.4,1,6.5s4.53-5.23,1.2-6.53C62.49,11.16,62.07,13.81,61.72,13.8Z"/><path class="cls-1" d="M55.11,37c2.07,0,2.06-1.83,0-1.81S53,37,55.11,37Z"/><path class="cls-1" d="M62.71,36.12c1.75-.43,1.37-2-.38-1.58S61,36.54,62.71,36.12Z"/><path class="cls-1" d="M83.19,24.74c-.53,4.37-1.45,8.46-4.06,12.11-6.38,8.94-16.94,12-27.43,12.93a8.28,8.28,0,0,1-3.19-.22c2.09,1,5.64.52,7.86.25,11.88-1.41,29-9.1,29.3-23.22a13.83,13.83,0,0,0-1.49-6.66,8.73,8.73,0,0,0-2.57-2.75A13.14,13.14,0,0,1,83.19,24.74Z"/><path class="cls-1" d="M26,23.09c0,.81.91,1.5,2.07,1.53s2.14-.6,2.16-1.41-.9-1.5-2.07-1.53S26,22.27,26,23.09Z"/><path class="cls-1" d="M21.28,27.87a.89.89,0,0,0,.76,1,.88.88,0,0,0,.82-.93.8.8,0,1,0-1.58-.05Z"/><path class="cls-1" d="M22.72,33.24a.82.82,0,1,0,1.63,0,.82.82,0,1,0-1.63,0Z"/><path class="cls-1" d="M76.65,17.92a1.6,1.6,0,1,0,.09-3.19A1.6,1.6,0,1,0,76.65,17.92Z"/><path class="cls-1" d="M80.08,24.32c1.32,0,1.36-1.37,0-1.41S78.76,24.28,80.08,24.32Z"/><path class="cls-1" d="M81.18,20.64c1.31,0,1.38-2.57.08-2.61S79.87,20.61,81.18,20.64Z"/><path class="cls-1" d="M25.2,28.66a1.37,1.37,0,1,0,1.39-1.15A1.29,1.29,0,0,0,25.2,28.66Z"/><path class="cls-1" d="M72,37.18c-3.8,2.25-6.24,4-14.32,5.32-3.37.54-13.83.25-19-1.54-5.88-2-8.28-4-8.91-3.7s7,4.51,11.61,5.52C54.08,45.59,62.53,45,72.77,38.05c3.27-2.22,8.4-7.78,7.84-7.67S75.59,35,72,37.18Z"/><path class="cls-2" d="M5.34,64.09l-.3.07Z"/><path class="cls-2" d="M5.64,64l-.24.08Z"/><path class="cls-2" d="M17.92,75.39a1.54,1.54,0,0,1-.08-.19A1.54,1.54,0,0,0,17.92,75.39Z"/><path class="cls-2" d="M6,63.82l-.14.07Z"/><path class="cls-2" d="M17.81,75.13l-.08-.21Z"/><path class="cls-2" d="M5.84,63.9,5.65,64Z"/><path class="cls-2" d="M5,64.18l-.33.06Z"/><path class="cls-2" d="M6.11,63.75,6,63.81Z"/><path class="cls-2" d="M5.48,54.36A1.9,1.9,0,0,1,5.36,54,1.9,1.9,0,0,0,5.48,54.36Z"/><path class="cls-2" d="M18.06,75.63l-.1-.17Z"/><path class="cls-2" d="M5.66,54.71a2.1,2.1,0,0,1-.15-.3A2.1,2.1,0,0,0,5.66,54.71Z"/><path class="cls-2" d="M4.57,64.25l-.43,0Z"/><path class="cls-2" d="M4,64.31l-.53,0Z"/><path class="cls-2" d="M6,55.12a3.43,3.43,0,0,1-.24-.33A3.43,3.43,0,0,0,6,55.12Z"/><path class="cls-2" d="M.65,62c0-.13,0-.26,0-.38C.63,61.75.63,61.88.65,62Z"/><path class="cls-2" d="M5.34,53.93l-.06-.32Z"/><path class="cls-2" d="M.07,72.15c0-.11,0-.23.08-.34C.12,71.93.09,72,.07,72.15Z"/><path class="cls-2" d="M.17,71.74c0-.12.08-.24.13-.36C.25,71.5.21,71.62.17,71.74Z"/><path class="cls-2" d="M.32,71.33.5,71Z"/><path class="cls-2" d="M0,72.56c0-.1,0-.2,0-.31C0,72.36,0,72.46,0,72.56Z"/><path class="cls-2" d="M.07,73.42c0-.1,0-.2,0-.3C0,73.22.05,73.32.07,73.42Z"/><path class="cls-2" d="M0,73c0-.1,0-.2,0-.3C0,72.79,0,72.89,0,73Z"/><path class="cls-2" d="M.52,70.93a4,4,0,0,1,.23-.39A4,4,0,0,0,.52,70.93Z"/><path class="cls-2" d="M.25,74a3.39,3.39,0,0,1-.15-.41A3.39,3.39,0,0,0,.25,74Z"/><path class="cls-2" d="M17.56,74.3c0-.09,0-.19,0-.28C17.53,74.11,17.54,74.21,17.56,74.3Z"/><path class="cls-2" d="M17.71,74.87c0-.08-.05-.16-.07-.24C17.66,74.71,17.69,74.79,17.71,74.87Z"/><path class="cls-2" d="M8,69.46l.12,0Z"/><path class="cls-2" d="M9.08,72.12l-.52.14Z"/><path class="cls-2" d="M8.56,72.26l-.19,0Z"/><path class="cls-2" d="M7.89,69.49l0,0Z"/><path class="cls-2" d="M17.63,74.59l-.06-.26Z"/><path class="cls-2" d="M18.83,76.38l-.13-.08Z"/><path class="cls-2" d="M20.49,76.7h0Z"/><path class="cls-2" d="M18.39,76.05l-.11-.13Z"/><path class="cls-2" d="M19.1,76.51,19,76.44Z"/><path class="cls-2" d="M18.6,76.23l-.12-.11Z"/><path class="cls-2" d="M19.72,76.67a.8.8,0,0,1-.15,0A.8.8,0,0,0,19.72,76.67Z"/><path class="cls-2" d="M5.27,53.56c0-.13,0-.27,0-.4C5.25,53.29,5.26,53.43,5.27,53.56Z"/><path class="cls-2" d="M19.39,76.61l-.15,0Z"/><path class="cls-2" d="M5.48,51.9a4.78,4.78,0,0,0-.2.83A4.78,4.78,0,0,1,5.48,51.9Z"/><path class="cls-2" d="M11.83,54.22h0Z"/><path class="cls-2" d="M11.91,53.67c-.05.32-.1.52-.1.52S11.86,54,11.91,53.67Z"/><path class="cls-2" d="M5.25,53.15l0-.4Z"/><path class="cls-2" d="M18.21,75.85l-.1-.15Z"/><path class="cls-2" d="M.67,60.73a4.35,4.35,0,0,0-.05.8A4.35,4.35,0,0,1,.67,60.73Z"/><path class="cls-2" d="M20.09,76.71l-.16,0Z"/><path class="cls-2" d="M12.05,54.48h0Z"/><path class="cls-2" d="M.78,60.27h0c0,.13-.07.27-.1.4C.71,60.54.74,60.4.78,60.27Z"/><path class="cls-2" d="M.78,60.27a3.43,3.43,0,0,0,6.06.26C4.45,56.79,1.42,58.12.78,60.27Z"/><path class="cls-2" d="M6.08,50.63a5.66,5.66,0,0,0-.6,1.27c.39,1.9,2.35,3.83,6.43,1.77.13-.85.27-2.54-.6-3.32C10.13,49.29,7,49.2,6.08,50.63Z"/><path class="cls-2" d="M.75,70.54a4.15,4.15,0,0,0,.31,2.62,3.09,3.09,0,0,0,5.64.17,13.17,13.17,0,0,0,1-3.91C4.71,68,2.52,67.84.75,70.54Z"/><path class="cls-2" d="M7,60.76Z"/><path class="cls-2" d="M38.2,50.29s-5.45,6.33-10.88,7.27-11.12.16-12.73-.86a11.85,11.85,0,0,1-2.35-2h0c-.49.76-3,1.25-3,1.25,2.28,2.64,4.26,3.27,8.36,4.73a10.16,10.16,0,0,1-3.79,1c-2,.06-5.94-.42-6.78-.87l0,0a14.65,14.65,0,0,1-.87,3l.08-.06c2.12,1.75,7.4.38,10-.44-1.84,3.52-4.35,4.83-8.12,6.16a25.9,25.9,0,0,1,1,2.71A21.66,21.66,0,0,0,14.33,70c2.16-1.39,4-4.92,4-4.92l.63.56.42,5.12s-2.16,1.51-1.91,3.16c0,0,0,.07,0,.11a2.47,2.47,0,0,0,2.31,1.41,6,6,0,0,0,3.88-2.25,5.05,5.05,0,0,0-1.25-2.65s-.61-5.54-.63-6.39a4,4,0,0,0-.21-1.34s7.16-1.07,10.11-2.2,7.15-3.74,8-4.75,3-3.13,3.11-4.59-1.27-2.28-2.74-2A2.5,2.5,0,0,0,38.2,50.29Z"/><path class="cls-2" d="M7.84,69.5l-.15-.07Z"/><path class="cls-2" d="M7.69,69.43h0Z"/><path class="cls-3" d="M7.84,69.5l-.16-.08a13.17,13.17,0,0,1-1,3.91,3.09,3.09,0,0,1-5.64-.17,4.15,4.15,0,0,1-.31-2.62h0a4,4,0,0,0-.23.39l0,0-.18.38,0,0c0,.12-.09.24-.13.36s0,.05,0,.07-.06.23-.08.34a.36.36,0,0,0,0,.1c0,.11,0,.21,0,.31s0,.09,0,.13,0,.2,0,.3a.57.57,0,0,0,0,.13c0,.1,0,.2.05.3l0,.13A3.39,3.39,0,0,0,.25,74,4.05,4.05,0,0,0,6,75.58a5.55,5.55,0,0,0,2.4-3.27l.71-.19a25.9,25.9,0,0,0-1-2.71Z"/><path class="cls-3" d="M4.17,62.19A3.34,3.34,0,0,1,.78,60.27c0,.13-.07.27-.1.4v.06a4.35,4.35,0,0,0-.05.8v.1c0,.12,0,.25,0,.38.2,1.52.72,2.39,2.85,2.33l.53,0h.11l.43,0h.08L5,64.18l.06,0,.3-.07.06,0L5.64,64h0l.19-.08h0L6,63.82H6l.09-.06h0a14.65,14.65,0,0,0,.87-3l-.14-.23A3,3,0,0,1,4.17,62.19Z"/><path class="cls-3" d="M19.82,75.43A2.47,2.47,0,0,1,17.51,74h0c0,.09,0,.19,0,.28v0l.06.26v0c0,.08.05.16.07.24l0,0,.08.21,0,.07a1.54,1.54,0,0,0,.08.19.25.25,0,0,1,0,.07l.1.17.05.07.1.15.07.07.11.13.09.07.12.11.1.07.13.08.12.06.15.07.14,0,.15,0,.18,0a.8.8,0,0,0,.15,0l.21,0,.16,0h.4a3.42,3.42,0,0,0,.44,0c2.5-.33,2.67-2,2.77-3.3a1.08,1.08,0,0,0,0-.18A6,6,0,0,1,19.82,75.43Z"/><polygon class="cls-3" points="5.48 51.9 5.48 51.9 5.48 51.9 5.48 51.9"/><path class="cls-3" d="M5.48,51.9a4.78,4.78,0,0,0-.2.83v0l0,.4h0c0,.13,0,.27,0,.4v0l.06.32a.64.64,0,0,0,0,.07,1.9,1.9,0,0,0,.12.36l0,0a2.1,2.1,0,0,0,.15.3.56.56,0,0,1,0,.08,3.43,3.43,0,0,0,.24.33c1.12,1.3,3.26.82,3.26.82s2.54-.49,3-1.25c-.29-.4,0,.07-.43-.5,0-.2.1-.52.1-.52C7.83,55.73,5.87,53.8,5.48,51.9Z"/><path class="cls-2" d="M100.92,35.62a2.76,2.76,0,0,1,.18.39A2.76,2.76,0,0,0,100.92,35.62Z"/><path class="cls-2" d="M100.68,35.24a3,3,0,0,1,.24.38A3,3,0,0,0,100.68,35.24Z"/><path class="cls-2" d="M101.25,36.51c0,.12,0,.24,0,.37C101.29,36.75,101.27,36.63,101.25,36.51Z"/><path class="cls-2" d="M101.12,36.05a2.91,2.91,0,0,1,.12.39A2.91,2.91,0,0,0,101.12,36.05Z"/><path class="cls-2" d="M100.05,34.5a5.17,5.17,0,0,1,.62.71A5.17,5.17,0,0,0,100.05,34.5Z"/><path class="cls-2" d="M106.09,54.48l-.47.08Z"/><path class="cls-2" d="M96.45,63a3,3,0,0,1-.15.87A3,3,0,0,0,96.45,63Z"/><path class="cls-2" d="M108.65,41.64c0,.11.09.22.12.33Z"/><path class="cls-2" d="M99.05,60.35a2,2,0,0,1,0,.24A2,2,0,0,0,99.05,60.35Z"/><path class="cls-2" d="M113.65,51.14l0,0h0S113.64,51.13,113.65,51.14Zm.06.09-.06-.09Zm-12.18-3.16a5.37,5.37,0,0,0,3-2.33,11.32,11.32,0,0,1-2.41-1.8h0A26.61,26.61,0,0,1,97,47a9.44,9.44,0,0,1-3.76.64s1.63-1.62,3.13-3.24a12.58,12.58,0,0,0,2.27-4.44,27.61,27.61,0,0,1-3.06-.37l.29.05a3.19,3.19,0,0,0,2.25-.81,7.83,7.83,0,0,0,1.89-4.29,6.08,6.08,0,0,0-.83-.67c-1.38-.94-4.13.42-4.73,1.86s1.25,3.88,1.13,3.86h0a13.75,13.75,0,0,1-1.37,3.24c-1,1.57-5.69,4.57-10.88,5.92S70.73,46.5,70.73,46.5a2.44,2.44,0,0,0-2.09-.19c-1.4.35-2.32,1.68-1.57,2.94s3.52,2.32,4.66,2.91,6,1.26,9,1.09,9.85-2.09,9.85-2.09A4.24,4.24,0,0,0,91,52.47c.34.78,2.12,6.06,2.12,6.06a4,4,0,0,0,.52,3.82,3.64,3.64,0,0,0,.48,0c2.32-.07,3.1-.36,4.24-1.26a3.46,3.46,0,0,0,.72-.77,7.47,7.47,0,0,0-.17-.76c-.47-1.59-3-2.1-3-2.1l-1.76-4.81.31-.77s3.12,2.45,5.62,2.85a21,21,0,0,0,5.58-.2c-.32-1.15-.59-2.16-.77-2.82a24,24,0,0,1-4.43-.07,11.91,11.91,0,0,1-4.88-2.28A31,31,0,0,0,101.53,48.07Zm7-6.78a5.83,5.83,0,0,1-3,3.21,2.94,2.94,0,0,1-3.19-.66.15.15,0,0,0,0-.07,2,2,0,0,0,.33-.33s.19-3.34,2.28-3.9A3,3,0,0,1,108.49,41.29Zm.94,7.6c-1.8.08-3.88,2.8-3.88,2.8l-.49,0a5.23,5.23,0,0,0,4.07,2.34c2,.11,3.61-1.66,4.5-3A5.3,5.3,0,0,0,109.43,48.89Zm4.57,3a.42.42,0,0,0,0-.1A.42.42,0,0,1,114,51.9Zm.08.35a3.59,3.59,0,0,0-.08-.35A3.59,3.59,0,0,1,114.08,52.25Zm-.26-.8a2.26,2.26,0,0,0-.11-.22A2.26,2.26,0,0,1,113.82,51.45Zm.06.11a2.25,2.25,0,0,1,.08.24A2.25,2.25,0,0,0,113.88,51.56Zm-.06-.11.06.11Z"/><path class="cls-2" d="M108.49,41.29l.15.32Z"/><path class="cls-2" d="M101.31,36.93a2.84,2.84,0,0,1,0,.41A2.84,2.84,0,0,0,101.31,36.93Z"/><path class="cls-2" d="M101.29,37.43a3.58,3.58,0,0,1-.08.43A3.58,3.58,0,0,0,101.29,37.43Z"/><path class="cls-3" d="M98.16,38.79a3.09,3.09,0,0,1-2.54.76,22.05,22.05,0,0,0,3.06.37s2.09-.42,2.53-2.06a3.58,3.58,0,0,0,.08-.43s0-.06,0-.09a2.84,2.84,0,0,0,0-.41s0,0,0,0,0-.25,0-.37a.17.17,0,0,1,0-.07,2.91,2.91,0,0,0-.12-.39l0,0a2.76,2.76,0,0,0-.18-.39h0a3,3,0,0,0-.24-.38v0a5.17,5.17,0,0,0-.62-.71h0A7.83,7.83,0,0,1,98.16,38.79Z"/><path class="cls-3" d="M94.09,62.38a3.64,3.64,0,0,1-.48,0h0a4.17,4.17,0,0,0,.39.51l.17.17a1.27,1.27,0,0,0,.2.16,1.21,1.21,0,0,0,.28.19l.23.11.25.09a2.34,2.34,0,0,0,.32.07h.79l.25,0,.11,0a3.1,3.1,0,0,0,.39-.09l.38-.14.12,0,.22-.11.12-.06L98,63l.11-.07.15-.12.09-.07.14-.13a.46.46,0,0,1,.07-.07,1.49,1.49,0,0,0,.15-.2.61.61,0,0,0,.07-.1l.07-.12a.61.61,0,0,0,0-.12.47.47,0,0,0,0-.1.74.74,0,0,0,0-.14l0-.09c0-.05,0-.1,0-.15a.15.15,0,0,1,0-.07,3.77,3.77,0,0,0,0-.89h0a2,2,0,0,0,0-.24h0a3.46,3.46,0,0,1-.72.77C97.19,62,96.41,62.31,94.09,62.38Z"/><path class="cls-3" d="M109.13,54.07a5.23,5.23,0,0,1-4.07-2.34h-.21c.18.66.45,1.67.77,2.82h0l.64-.11a5.5,5.5,0,0,0,3.49,2,3.87,3.87,0,0,0,4.37-3.78,3,3,0,0,0,0-.42h0a3,3,0,0,0-.45-1.15C112.75,52.41,111.17,54.18,109.13,54.07Z"/><path class="cls-3" d="M102.28,43.82l-.12.1a10.78,10.78,0,0,0,2.42,1.82s.75.31,2.65-.5,2-1.8,1.54-3.27l-.12-.33v0l-.15-.32h0a5.83,5.83,0,0,1-3,3.21A3,3,0,0,1,102.28,43.82Z"/><path class="cls-2" d="M82.1,76.45c.13-.24.26-.49.4-.72,1.59-2.58,7.79-6.62,10-2.51,1.1,2.08,2.09,3.21.65,5.84A12.89,12.89,0,0,1,87,84.23S82.68,85.69,83.28,86s4.59-.5,6.27-1a76.1,76.1,0,0,0,7.53-2.64,17.92,17.92,0,0,0,2.6-1.37s.79-3,3-2.9,3,2.62,2.53,3.78a3.19,3.19,0,0,1-4.05,1.94s-5.55,2.4-6.24,2.6-1.91.82-1.61,1,5.34,1,6,1.29a9.25,9.25,0,0,0,1.82.54s3.1-1.36,4.49-.3,2.8,3.57.51,5.38-3.67,1-4.46.36a34.16,34.16,0,0,1-2.49-2.37s-2.1-.78-2.79-.93-2.73-1.09-3-.82,1,2.95,1.24,3.49,2,4.93,2.17,5.15,1.47.19,2.25.93,1.59,2.45.81,3.66a4.55,4.55,0,0,1-5.56,1.14c-2-1.23-.84-3.93-.6-4.37s.58-1,.58-1a9.55,9.55,0,0,1-1.7-2.19c-.59-1.16-3.37-6.27-3.82-6.87s-.73-1-.93-1a68.2,68.2,0,0,1-7-.27,14.67,14.67,0,0,1-4.31-1.37c-.86-.58-2.23-1.57-1.73-1.91a25.88,25.88,0,0,0,5.08-4.89C81,79.67,81.34,78,82.1,76.45Z"/><path class="cls-3" d="M90,71.82a2.79,2.79,0,0,1,2.47,1.4c1.1,2.08,2.09,3.21.65,5.84a14,14,0,0,1-6.42,5.46S82.32,86.35,82.16,86s2.28-1.25,6.9-5.12C91.92,78.45,91.23,75.15,90,71.82Z"/><path class="cls-3" d="M104.26,78.57a3.15,3.15,0,0,1,1,3.23,3.24,3.24,0,0,1-3.77,2l0-1a4,4,0,0,0,2.88-2.25A1.77,1.77,0,0,0,104.26,78.57Z"/><path class="cls-3" d="M105,91.87a6.55,6.55,0,0,0-.58-3.34,2.23,2.23,0,0,1,1.16.39c1.39,1,2.8,3.57.51,5.38s-3.67,1-4.46.36a12.42,12.42,0,0,1-1.08-1l-.06-.63S104.67,93.41,105,91.87Z"/><path class="cls-3" d="M97.79,102.4A2.91,2.91,0,0,0,99,100.15c.76.76,1.53,2.43.77,3.62a4.55,4.55,0,0,1-5.56,1.14A2.38,2.38,0,0,1,93.13,103,4.21,4.21,0,0,0,97.79,102.4Z"/><path class="cls-2" d="M20,96.21a21,21,0,0,0,3,.25c2.23.07,7.49,0,9.3-.23a14.4,14.4,0,0,0,5.39-2.11c.47-.46-4.42.29-4.42.29a11.7,11.7,0,0,1-7.56-2.28c-2.59-1.7-2.15-3.4-1.94-5.72s4.8-4.67,4.8-4.67c1,.17,4.53-1.19,6.7-.54s12.45,9.38,13.06,9.49-2.83,2.08-3.42,2.93a15.29,15.29,0,0,1-3.57,2.91,69,69,0,0,1-6.53,2.92c-.21.07-.33.53-.51,1.25s-.79,6.44-.9,7.73a8.92,8.92,0,0,1-.74,2.65s.55.38,1,.69,2.56,2.34,1.18,4.21-4.54,1.91-5.77,1.11-1.15-2.68-.7-3.65S30,112,30.09,111.72s0-5,0-5.53.19-3.54-.22-3.66-2,1.53-2.58,1.93S25,106.38,25,106.38a31.59,31.59,0,0,1-1.43,3.12c-.52.85-1.5,2.16-4.42,1.39s-2.58-3.6-1.67-5.1,4.41-1.46,4.41-1.46a9.13,9.13,0,0,0,1.53-1.19c.46-.53,5-3.15,5.17-3.47s-1.22-.42-2-.34-7,0-7,0A3.42,3.42,0,0,1,15,99.16a2.83,2.83,0,0,1,.91-4.42C18,93.82,20,96.21,20,96.21Z"/><path class="cls-3" d="M25.77,87.57c4.8,7.75,13.42,4.81,13.31,5.78-.12,1.16-5.38,1-5.83,1.06a11.7,11.7,0,0,1-7.56-2.28c-2.59-1.7-2.15-3.4-1.94-5.72a3.66,3.66,0,0,1,1.1-2A4.84,4.84,0,0,0,25.77,87.57Z"/><path class="cls-3" d="M19.87,98.58s.7.26.7.79h-.95A3.42,3.42,0,0,1,15,99.16a3,3,0,0,1-.5-3,3.16,3.16,0,0,0,1.06,1.07A7.79,7.79,0,0,0,19.87,98.58Z"/><path class="cls-3" d="M29.07,115.28c1.91.67,4.74-.17,4.53-3.51.41.31,2.56,2.34,1.18,4.21s-4.54,1.91-5.77,1.11a2.63,2.63,0,0,1-1-2.48A2.91,2.91,0,0,0,29.07,115.28Z"/><path class="cls-3" d="M18.17,108.22c4.89,2.18,4.94-2.75,5.52-2.75.27,0,.75.59,1.14,1.33a26.64,26.64,0,0,1-1.26,2.7c-.52.85-1.5,2.16-4.42,1.39a2.85,2.85,0,0,1-2.27-3.42A4,4,0,0,0,18.17,108.22Z"/><path class="cls-2" d="M40.6,48.45S29.9,70,29.4,74.78s-1,9.55,8.33,14.16,21.09,5.24,28.58,2.91c9.92-3.09,18-13,19.15-19.83,1.28-7.71-11.45-19.62-14-22.68s-9.74-7.49-15.93-7.55S42.46,44.63,40.6,48.45Z"/><path class="cls-3" d="M78.14,80.64c-4.78,5.53-9.77,9-14.81,10.52A66.56,66.56,0,0,1,53.69,93c11.43.48,12-.91,16.16-3,8.36-4.24,14.54-10.23,15.61-18,.41-2.94-1.14-6.47-3.36-9.89C82.66,67.84,82.92,75.12,78.14,80.64Z"/><path class="cls-4" d="M40.38,70.4C39,76.35,38,85.87,42.58,89.49c4.35,3.42,11.67,4.87,18.73,3.75S76,86.73,77.4,83.69s2-13.37-4.59-20.49S63.69,53.5,55,54.06C47.9,54.52,41.77,64.45,40.38,70.4Z"/><path class="cls-5" d="M35.9,87.3c-3.21-3.12-5.36-7.62-4.07-12.94,2-8.36,7.49-23.3,7.49-23.3C36.47,56.93,29.79,71,29.4,74.78S28.66,83.64,35.9,87.3Z"/><path class="cls-1" d="M48.16,92.2c-2.31-.17,5.64,2.3,13.15,1,7.06-1.2,14.64-5.67,16-8.71a10.88,10.88,0,0,0,.81-3.89c-.65,1.23-5.65,5.33-7,6C64.87,89.94,62.15,93.21,48.16,92.2Z"/><path class="cls-6" d="M37.65,59.82a2,2,0,1,0,2-2A2,2,0,0,0,37.65,59.82Z"/><path class="cls-6" d="M34.24,65.3c1.25,0,1.31-2,.06-2.07A1,1,0,0,0,34.24,65.3Z"/><path class="cls-6" d="M39.72,56.15a1.38,1.38,0,1,0,.08-2.75A1.38,1.38,0,1,0,39.72,56.15Z"/><path class="cls-2" d="M71.43,12.65l.1.37Z"/><path class="cls-2" d="M71.41,12.56l0,.09Z"/><path class="cls-2" d="M71.69,13.61c0,.12,0,.14,0,0Z"/><path class="cls-2" d="M71.61,13.31l0,.17Z"/><path class="cls-2" d="M71.41,12.56l0,.09Z"/><path class="cls-2" d="M71.41,12.56l0,.09Z"/><path class="cls-2" d="M71.41,12.56l0,.09Z"/><path class="cls-2" d="M61.76.14A7.71,7.71,0,0,0,60.49,0,8.7,8.7,0,0,0,52,6.72a9,9,0,0,0-8.16-5.29,11.83,11.83,0,0,0-8.94,4.45,16.63,16.63,0,0,0-3.35,7.53c-.14.74-.22,5.29-.65,5.55C19.81,25.44,19.8,32.08,19.8,32.08c.4,20.44,36.14,20.25,49.12,14.29C87.36,37.9,87.14,25.52,84.18,19.93,82.92,17.57,80.25,16.2,78,15c-.58-.29-6.26-2.6-6-2l-1.26-3.3C69.08,5.56,66.53,1.08,61.76.14Z"/><path class="cls-5" d="M35.91,46.6c-3.3-2.34-8.22-4.91-10.41-8.4C20,29.44,28.07,23.54,35.43,20.44,34,15.19,35,8.69,40.13,5.89A10.79,10.79,0,0,1,52.85,7.5C55.62,4,61.51,3,66.3,5a11.87,11.87,0,0,1,3.12,1.93c-1.61-3.17-4-6-7.66-6.75A7.71,7.71,0,0,0,60.49,0,8.7,8.7,0,0,0,52,6.72a9,9,0,0,0-8.16-5.29,11.83,11.83,0,0,0-8.94,4.45,16.63,16.63,0,0,0-3.35,7.53c-.14.74-.22,5.29-.65,5.55C19.81,25.44,19.8,32.08,19.8,32.08,20,43,30.28,48,41.79,49.43A16.64,16.64,0,0,1,35.91,46.6Z"/><path class="cls-2" d="M71.43,12.65l.1.37Z"/><path class="cls-3" d="M35.56,19.67c-.07,9.89,9.26,10.69,11.72,9.7,6.45-2.57,8-20.54-3.09-21.66C44.19,7.71,35.65,7.18,35.56,19.67Z"/><path class="cls-7" d="M35.85,19c-.07,9.42,8.83,10.18,11.17,9.24,6.15-2.46,7.66-19.58-2.94-20.65C44.08,7.58,35.94,7.07,35.85,19Z"/><path class="cls-3" d="M56.22,18.88c1.88,10.15,10.24,7.86,11.46,7s4.39-5.78,1.89-13.54-9-7-9-7C58.31,5.89,54.34,8.73,56.22,18.88Z"/><path class="cls-7" d="M56.42,18.08c1.78,9.63,9.72,7.46,10.87,6.67s4.17-5.49,1.8-12.85-8.54-6.67-8.54-6.67C58.41,5.76,54.64,8.45,56.42,18.08Z"/><path class="cls-8" d="M45.31,26.06c-4.27.47-7.38-2.33-9.29-4.89,1.21,7.35,8.85,7.92,11,7.06a7.54,7.54,0,0,0,3.47-3.74A13.84,13.84,0,0,1,45.31,26.06Z"/><path class="cls-8" d="M58.12,22.53c3,4.36,8.25,2.85,9.17,2.22s3.09-3.87,2.6-9.06C67.83,22.57,64.53,25.37,58.12,22.53Z"/><path class="cls-9" d="M43.57,16.18c-.46,0-.81-3-1.21-2.86a3.37,3.37,0,0,0,1.1,6.5c4,.12,4.74-5.72.87-6.64C44.11,13.13,43.8,16.19,43.57,16.18Z"/><path class="cls-9" d="M61.72,13.8c-.44,0-.78-2.65-1.16-2.49-3.2,1.33-2.4,6.4,1,6.5s4.53-5.23,1.2-6.53C62.49,11.16,62.07,13.81,61.72,13.8Z"/><path class="cls-10" d="M55.11,37c2.07,0,2.06-1.83,0-1.81S53,37,55.11,37Z"/><path class="cls-10" d="M62.71,36.12c1.75-.43,1.37-2-.38-1.58S61,36.54,62.71,36.12Z"/><path class="cls-3" d="M83.19,24.74c-.53,4.37-1.45,8.46-4.06,12.11-6.38,8.94-16.94,12-27.43,12.93a8.28,8.28,0,0,1-3.19-.22c2.09,1,5.64.52,7.86.25,11.88-1.41,29-9.1,29.3-23.22a13.83,13.83,0,0,0-1.49-6.66,8.73,8.73,0,0,0-2.57-2.75A13.14,13.14,0,0,1,83.19,24.74Z"/><path class="cls-6" d="M26,23.09c0,.81.91,1.5,2.07,1.53s2.14-.6,2.16-1.41-.9-1.5-2.07-1.53S26,22.27,26,23.09Z"/><path class="cls-6" d="M21.28,27.87a.89.89,0,0,0,.76,1,.88.88,0,0,0,.82-.93.8.8,0,1,0-1.58-.05Z"/><path class="cls-6" d="M22.72,33.24a.82.82,0,1,0,1.63,0,.82.82,0,1,0-1.63,0Z"/><path class="cls-6" d="M76.65,17.92a1.6,1.6,0,1,0,.09-3.19A1.6,1.6,0,1,0,76.65,17.92Z"/><path class="cls-6" d="M80.08,24.32c1.32,0,1.36-1.37,0-1.41S78.76,24.28,80.08,24.32Z"/><path class="cls-6" d="M81.18,20.64c1.31,0,1.38-2.57.08-2.61S79.87,20.61,81.18,20.64Z"/><path class="cls-6" d="M25.2,28.66a1.37,1.37,0,1,0,1.39-1.15A1.29,1.29,0,0,0,25.2,28.66Z"/><path class="cls-10" d="M72,37.18c-3.8,2.25-6.24,4-14.32,5.32-3.37.54-13.83.25-19-1.54-5.88-2-8.28-4-8.91-3.7s7,4.51,11.61,5.52C54.08,45.59,62.53,45,72.77,38.05c3.27-2.22,8.4-7.78,7.84-7.67S75.59,35,72,37.18Z"/></g></g></g></svg>