<svg xmlns="http://www.w3.org/2000/svg" viewBox="0 0 82.76 105.35"><defs><style>.cls-1{fill:#a76050;}.cls-2{fill:#bd7668;}.cls-3{fill:#944a3b;}.cls-4{fill:#f9d8c2;}.cls-5{fill:#ebc3a2;}.cls-6{fill:#f9efe0;}.cls-7{fill:#b56c5c;}.cls-8{fill:#ffbd9b;}.cls-9{fill:#e09777;}.cls-10{fill:#fff;}.cls-11{fill:#f0e6df;}.cls-12{fill:#471815;}.cls-13{fill:#c2301d;}.cls-14{fill:#ff4d35;}.cls-15{fill:#702d2b;}</style></defs><g id="Слой_2" data-name="Слой 2"><g id="animal"><g id="hamster"><path class="cls-1" d="M51.57,45.54a3.29,3.29,0,0,0-3.11.18c-3.17,1.53-10,3-12.55.63-.26-.24-1.31-2.21-.46-2.34a26.69,26.69,0,0,0-9.73,3.37C1.39,61.7-2,81.48,3,89.24a24,24,0,0,0,4,4.49,3.09,3.09,0,0,1,1.49-.92L9,92.68a3.13,3.13,0,0,1,2.8.66,21.22,21.22,0,0,1,5.6,6.74,2.85,2.85,0,0,1,.26.74c5.87,2.16,38.63,7.27,53.1-4.07,6.31-4.94,9.82-8.1,10-16.54C81,63.79,67.19,50.37,51.57,45.54Z"/><path class="cls-2" d="M5.6,94.86c2.74,3.1,7.32,3.36,10.61,3.58a28.82,28.82,0,0,1-9.07-8.92c-6.36-10,3-28.92,13.12-38.6C6.33,60.84-4,76.85,3.93,92.27A11.94,11.94,0,0,0,5.6,94.86Z"/><path class="cls-3" d="M73.49,60.16c3.34,6,4.38,15.57,3.34,22.43C76,88.2,72.4,93.12,68.24,97.19c-.21.53-.42,1.06-.62,1.6,3.06-1.69,8.78-6.15,10.95-9.86C82.07,82.94,81.93,70.77,73.49,60.16Z"/><path class="cls-4" d="M16.16,95.49c-.24-.6-.46-1.21-.72-1.8a15.78,15.78,0,0,1-1.36-3.16,17.67,17.67,0,0,1-.35-8C15,77.35,24.18,64.4,40.81,63.44,67,61.91,79.75,84.21,70.39,95.7a10.14,10.14,0,0,1-2.77,2,27.67,27.67,0,0,0-2.31,1.72c-5.21,3.92-12.47,5.44-18.93,5.55a91.62,91.62,0,0,1-16.73-.76C24.34,103.31,18.15,100.33,16.16,95.49Z"/><path class="cls-5" d="M60.16,99.72c-7.08,3-28.91,3.14-43.71-3.62,2.24,4.48,8.11,7.25,13.2,8.1a91.62,91.62,0,0,0,16.73.76c14.08-.25,19.42-6.17,21.24-7.27,1.52-.93,3.24-1.46,4.87-5.74a14.65,14.65,0,0,0,.72-2.65A27.38,27.38,0,0,1,60.16,99.72Z"/><path class="cls-6" d="M32.83,68.76c10.7-3.55,22.49-2.19,32.6,2.21-5.08-4.33-13.24-8.2-24.62-7.53-16.19.94-25.35,13.23-27,18.68C16.58,77.73,23.4,71.89,32.83,68.76Z"/><path class="cls-1" d="M19.5,74.17a15.27,15.27,0,0,1,1.7,5.58c.1,1.29-.34,2.66,0,3.93.25,1.11,1.75,2.42,3,1.9a2.19,2.19,0,0,0,1.08-1.23,3.92,3.92,0,0,0,.23-2.06,3.27,3.27,0,0,0,2,2.8,1.48,1.48,0,0,0,1.87-.38,1.54,1.54,0,0,0,.15-.77,5.05,5.05,0,0,0-1-3c.93,1,3.76,2.86,4.84,1.07.95-1.57-1.52-3.47-2.64-4.14-2-1.18-3.13-3.87-4.19-5.64-1.46-2.41-3.15-4.72-4.56-7.14a10,10,0,0,0-2.1-2.75c-1.71-1.43-5.07-1.74-6,.58C12.42,66.27,17.43,69.4,19.5,74.17Z"/><path class="cls-2" d="M22.34,66.2l.3.15c-1.24-2-1.72-3-2.86-4-3.34-2.79-8.65-.23-5,4.87C13.53,62.9,20.75,62.15,22.34,66.2Z"/><path class="cls-1" d="M66.41,74.52A15.31,15.31,0,0,0,65.2,80.2c0,1.53.83,3.36.33,4.86a1.7,1.7,0,0,1-2.93.52,3.84,3.84,0,0,1-.91-2.26A5.69,5.69,0,0,1,60,86.08a2,2,0,0,1-2.86-.43c-.49-1,.37-2.17.61-3.29a5.18,5.18,0,0,1-3.46,1.3,1.53,1.53,0,0,1-.77-.17,1.18,1.18,0,0,1-.4-1.36,3.49,3.49,0,0,1,.84-1.25,29.33,29.33,0,0,0,4.82-6.69,45,45,0,0,1,3-5.63c1.53-2.17,2.14-4.9,4.56-6.55a3.19,3.19,0,0,1,5.17,1.81C72,67,67.85,70.3,66.41,74.52Z"/><path class="cls-2" d="M71.42,65.18c.66-3.65-4.21-6.5-7.78-.06C66.57,63.17,69.6,63.6,71.42,65.18Z"/><path class="cls-1" d="M73.56,87.68A7.77,7.77,0,0,1,73,91.8a12.32,12.32,0,0,1,1.85-1.9,4.43,4.43,0,0,1,1.66-1,2.07,2.07,0,0,1,1.84.31A2.2,2.2,0,0,1,79,90.82c.08,1.73-1.16,3.2-2.33,4.48,1.27-1.17,3.9-2.39,5.29-.81,1.76,2,.1,4.13-1.5,5.5-4,3.39-10.89,6.51-16.29,4.9-3.62-1.08-3.74-5.08-2.75-8a20.48,20.48,0,0,1,8.05-10.44C70.4,85.9,72,85,73,85.77c.6.45.52,1.09.56,1.73Z"/><path class="cls-7" d="M77,95.13c2.08-.56,4.14-.51,5.71.74A3,3,0,0,0,82,94.49c-1.12-1.27-3-.73-4.43.15C77.38,94.79,77.19,95,77,95.13Z"/><path class="cls-7" d="M65.68,90a5.93,5.93,0,0,1,5.91-1.91,3.26,3.26,0,0,1,2,1.39,14,14,0,0,0,0-1.83V87.5c0-.64,0-1.28-.56-1.73-1-.76-2.59.13-3.48.68a18.2,18.2,0,0,0-4.35,3.9C65.33,90.24,65.51,90.12,65.68,90Z"/><path class="cls-7" d="M76.91,89.73A1.94,1.94,0,0,1,79,91c0-.06,0-.12,0-.17a2.2,2.2,0,0,0-.69-1.58,2.07,2.07,0,0,0-1.84-.31,4.43,4.43,0,0,0-1.66,1c-.22.18-.43.38-.63.58A10,10,0,0,1,76.91,89.73Z"/><path class="cls-3" d="M69.34,103.34a8.08,8.08,0,0,1-8.2-5.25C59,108.23,72.72,106.68,80.5,100a9,9,0,0,0,1.67-1.77C78.93,101.52,74.11,104,69.34,103.34Z"/><path class="cls-8" d="M68.54,102.32a5,5,0,0,0,2.14-.39,3.88,3.88,0,0,0,2.06-3.77c-.2-2.84-4.13-4-6.41-2.51C62.7,98,64.41,102.29,68.54,102.32Z"/><path class="cls-9" d="M64.35,99c.2,4,7.7,5,8.35,0C70.25,101.47,66.24,101.75,64.35,99Z"/><path class="cls-1" d="M8,87.24a4.86,4.86,0,0,0,1.15,4.27A5.45,5.45,0,0,0,6.7,90,3.44,3.44,0,0,0,5,89.84a2,2,0,0,0-1.38,1,2.76,2.76,0,0,0,0,2A7.91,7.91,0,0,0,6.1,96.72C4.44,96,1.19,94.2.23,96.57c-.85,2.1.82,3.56,2.46,4.7A21.7,21.7,0,0,0,17.28,105c5-.56,6-4.78,4.13-8.78a21.41,21.41,0,0,0-9-9.49c-1-.51-2.65-1.3-3.69-.48A2.23,2.23,0,0,0,8,87.24Z"/><path class="cls-7" d="M4.91,96.2C3.2,95.45,1,94.69.23,96.57a2.75,2.75,0,0,0,.33,2.75,4.36,4.36,0,0,1,1.18-1.6A4.79,4.79,0,0,1,5,96.54,2.09,2.09,0,0,1,4.91,96.2Z"/><path class="cls-7" d="M7.62,91.56a5.46,5.46,0,0,1,1.14-.07c0-.11,0-.21.06-.32A5.38,5.38,0,0,0,6.7,90,3.44,3.44,0,0,0,5,89.84a2,2,0,0,0-1.38,1,2.76,2.76,0,0,0,0,2,7.82,7.82,0,0,0,1.29,2.52.48.48,0,0,0,0-.12C5,93.66,5.82,91.86,7.62,91.56Z"/><path class="cls-7" d="M9.93,89.33a5.16,5.16,0,0,1,5.09-1,18.39,18.39,0,0,0-2.57-1.66c-1-.51-2.65-1.3-3.69-.48a2.23,2.23,0,0,0-.73,1,4.7,4.7,0,0,0,.82,3.84A3.86,3.86,0,0,1,9.93,89.33Z"/><path class="cls-3" d="M19.53,93.06a9.64,9.64,0,0,1,.12,2.39,7.27,7.27,0,0,1-3.51,5.74c-2.2,1.27-7.31,1.62-11.66-.25l-.57-.15A15,15,0,0,1,.46,99.18a8,8,0,0,0,2.23,2.09A21.7,21.7,0,0,0,17.28,105C22.67,104.35,24.11,99.29,19.53,93.06Z"/><path class="cls-8" d="M14.06,102.25a5,5,0,0,0,2.2-.4A4,4,0,0,0,18.38,98c-.21-2.92-4.24-4.08-6.59-2.58C8.05,97.77,9.82,102.23,14.06,102.25Z"/><path class="cls-9" d="M18.38,98a2.94,2.94,0,0,0-.46-1.4,4.71,4.71,0,0,1-8.16,2.3c.13,1.78,1.78,3.36,4.3,3.37a5,5,0,0,0,2.2-.4A4,4,0,0,0,18.38,98Z"/><path class="cls-1" d="M15.38,27.76a23.84,23.84,0,0,1,6.48-15.12C28.49,5.87,36.88,2.48,44.18,3s16.23,4.23,20,10.64S71.64,26.9,71.78,29.2,47.7,42.26,44.05,43.71,15.14,33.54,15.38,27.76Z"/><path class="cls-3" d="M64.06,13.37a34.32,34.32,0,0,1,.67,20.68c4.08-2.15,7.09-4,7-4.85C71.6,26.27,65.53,15.77,64.06,13.37Z"/><path class="cls-2" d="M41.63,4.86a31.28,31.28,0,0,1,14.06,1.3C43.38-.07,31.07,3.23,21.86,12.64a23.83,23.83,0,0,0-6.47,15C16.32,19.25,27.93,6.86,41.63,4.86Z"/><ellipse class="cls-3" cx="34.47" cy="23.37" rx="6.51" ry="7.73" transform="translate(-1.1 1.71) rotate(-2.8)"/><ellipse class="cls-3" cx="48.67" cy="22.72" rx="8.25" ry="6.67" transform="matrix(0.09, -1, 1, 0.09, 21.76, 69.2)"/><path class="cls-10" d="M41,22.12c.17,4.27-2.61,7.83-6.2,8S28.13,26.85,28,22.59s2.61-7.83,6.2-8S40.81,17.86,41,22.12Z"/><path class="cls-11" d="M36.86,27a5,5,0,0,1-4.81.67,5.78,5.78,0,0,1-.84-.37,7.39,7.39,0,0,1-2.38-1.19C32.08,32.85,40.75,30.5,41,22.76,39.27,25.51,38.07,26.41,36.86,27Z"/><path class="cls-10" d="M55.32,22.16c-.34,4.54-3.59,8-7.27,7.77s-6.38-4.13-6-8.67,3.6-8,7.27-7.78S55.66,17.61,55.32,22.16Z"/><path class="cls-10" d="M55.32,22.16c-.34,4.54-3.59,8-7.27,7.77s-6.38-4.13-6-8.67,3.6-8,7.27-7.78S55.66,17.61,55.32,22.16Z"/><path class="cls-11" d="M50.64,26.66c-3.19,2.16-6.43.77-8.41-2.48.72,3.18,3,5.56,5.82,5.75,3.68.25,6.93-3.23,7.27-7.77a3.39,3.39,0,0,0,0-.45A9,9,0,0,1,50.64,26.66Z"/><path class="cls-12" d="M35.32,25.61a2.55,2.55,0,0,1-1.16-4.87c.29-.14.86,2.26,1.2,2.25s.59-2.41,1-2.24A2.56,2.56,0,0,1,35.32,25.61Z"/><path class="cls-12" d="M48.07,25.38a2.73,2.73,0,0,1-.5-5.34c.28-.08.55,2.8.87,2.82s.9-2.74,1.26-2.51A2.73,2.73,0,0,1,48.07,25.38Z"/><path class="cls-4" d="M46.17,33.76c.82-.77,6.48-8.08,13.94-8.71s13.12.13,15.68,6.55c3.9,9.75-10.62,33.09-34.92,17.24-.79-.46-6.56,3.5-7.62,3.88-8.37,3-15.84-1.6-20.85-7.15-5.7-6.31-5.36-11.4-3-14.48,1.8-2.4,7.81-6.47,14.41-5.66,7.18.88,10.57,9,17.74,9.91A5.24,5.24,0,0,0,46.17,33.76Z"/><path class="cls-6" d="M24.61,28.07a42.28,42.28,0,0,1,8.65,2.82c-2.85-2.41-5.62-5-9.49-5.46-6.44-.79-12.52,3.15-14.41,5.66l-.07.09A21.44,21.44,0,0,1,24.61,28.07Z"/><path class="cls-6" d="M73,27.49c-3-2.62-7.42-2.89-12.89-2.44-7.41.62-13,7.79-13.94,8.71a5.24,5.24,0,0,1-4.66,1.58A11.76,11.76,0,0,1,40,35a9.56,9.56,0,0,1,.83.86,6.86,6.86,0,0,0,3.5.18C52.75,28.23,65.47,25.54,73,27.49Z"/><path class="cls-5" d="M57.59,50c-4.78.23-9.11-1.36-13.74-2.06a21.94,21.94,0,0,0-7.15.37C30.58,50.44,23.81,50.47,18,46.85A25.43,25.43,0,0,1,7.87,34.91C7.4,39,9.68,42.56,12.4,45.57c5,5.55,12.48,10.1,20.85,7.15,1.06-.38,6.83-4.34,7.62-3.88,8,5.19,18,8,26.65,2a22.56,22.56,0,0,0,8.22-11.18A23,23,0,0,1,57.59,50Z"/><path class="cls-1" d="M55.34,7.12c-.54-1.26.67-4.47,5.27-6s6.9-1,8.25.36c.55.54.82,1,.42,1.74-1.21,2.11-3.17,6.36-4.87,8.62-.79,1-2.48.68-3.49,0-.82-.54-1.6-1.12-2.37-1.72C57.57,9.32,55.81,8.26,55.34,7.12Z"/><path class="cls-2" d="M68.9,1.48C66.84-.6,63.39.13,60.61,1.08c-4,1.37-5.45,4-5.39,5.48C57.73,2.28,63.78.42,68.9,1.48Z"/><path class="cls-4" d="M59.79,8.41c-.51-1.78,2.65-4.64,4.24-5.3A9.9,9.9,0,0,1,67,2.53c.86-.08,1.3.26.72,1C64.74,7,64.12,11.12,63,11.13,62.19,11.13,60.05,9.32,59.79,8.41Z"/><path class="cls-5" d="M67.88,2.75c-.16-.23-.59-.25-.92-.22A9.9,9.9,0,0,0,64,3.11C62.61,3.7,60,6,59.75,7.8,62.5,5.49,64.76,3.64,67.88,2.75Z"/><path class="cls-1" d="M30.85,5.35C30.47,4.24,27.27,1.72,24.64.7,20.58-.87,16.53.46,16.12,2.15S18.82,6.5,19.5,8c.6,1.29.9,2.88,2,3.91,1.49,1.35,3.76-.51,5-1.28C28.17,9.58,31.62,7.59,30.85,5.35Z"/><path class="cls-2" d="M31,6a1.91,1.91,0,0,0-.11-.66C30.47,4.24,27.27,1.72,24.64.7c-3.38-1.31-6.75-.6-8,.65C20.2.46,26.88,2.14,31,6Z"/><path class="cls-4" d="M25.68,8.31C27.59,4.8,17.46.63,17.54,2.74a.89.89,0,0,0,.34.55c3.63,3.66,2.84,7,4.87,7.14C23.61,10.49,25.32,9,25.68,8.31Z"/><path class="cls-5" d="M25.64,8.38c1.41-2.3-2.45-4.65-4.93-5.73a7,7,0,0,0-2.45-.46C21,3.46,23.57,6,25.64,8.38Z"/><path class="cls-5" d="M41.15,44.85c-2.09-.52-2.72,2.8-6.65,0-1.08-.77-2.2-1.8-2.09-3,3.81,3,7.06,2.24,8.49.94a7.78,7.78,0,0,0,8.9.18c-.21,3.24-4.51,4.91-7.29,2.8A3.88,3.88,0,0,0,41.15,44.85Z"/><path class="cls-4" d="M38,50.47c2,1.49,3.4,1.08,4.47.41a5.26,5.26,0,0,0,2.42-4.29c-4-1.35-3.43-3.18-4.94-1.72a4.4,4.4,0,0,1-2.53,1.19.48.48,0,0,0-.24.07C35.93,47,37.07,49.75,38,50.47Z"/><path class="cls-13" d="M40.73,50.19c-1.31,0-3.12-1.4-2.46-4.09a.45.45,0,0,1,.18-.27c1.79-1.35,1.83-1.47,2.15-1.47a.54.54,0,0,1,.52.34c.26.41,2.33,1.41,2.47,2.18s-1,3.31-2.86,3.31Z"/><path class="cls-14" d="M38.82,45.67s-.47,1.93.56,2.85c2.27,2,3.76-1.58,3.66-2.09s-2.25-1.6-2.44-2.1Z"/><path class="cls-3" d="M32.34,41.45c.58,1.64,1.86,3.46,3.55,3.85a4.62,4.62,0,0,0,2.6-.12,5.09,5.09,0,0,0,2.32-2.24l.31.57a4.86,4.86,0,0,0,3.13,2.26,4.91,4.91,0,0,0,3.8-.87,5.5,5.5,0,0,0,1.66-2.09.3.3,0,0,1,.58.18,5.24,5.24,0,0,1-4.19,4,5.42,5.42,0,0,1-2.07,0,5,5,0,0,1-3.24-2.32,3.81,3.81,0,0,1-.36-.73l.67,0c-2,4.07-8.25,3.24-9.21-2.34a.23.23,0,0,1,.45-.12Z"/><path class="cls-3" d="M41.31,37.18l-.05,6.22a.46.46,0,1,1-.92,0l.49-6.2a.24.24,0,0,1,.26-.22A.23.23,0,0,1,41.31,37.18Z"/><path class="cls-12" d="M40,38.12c-1.52-1.76-4-3.5-4-5.94,0-1.41,2.91-2.25,4.56-2.25,1.93,0,4.88.72,5.7,2,1.29,2.07-2.37,4.77-3.7,6S40.55,38.77,40,38.12Z"/><path class="cls-15" d="M40.05,31.21c-1.17.3-2.78,1.11-.68,1.36,1.42.16,2.72.64,4.17.26a.8.8,0,0,0,.51-.31C43.48,30.94,41.57,30.82,40.05,31.21Z"/></g></g></g></svg>