<svg xmlns="http://www.w3.org/2000/svg" viewBox="0 0 122.4 118.01"><defs><style>.cls-1{fill:#f5b390;}.cls-2{fill:#e39b74;}.cls-3{fill:#87513f;}.cls-4{fill:#734032;}.cls-5{fill:#f0b395;}.cls-6{fill:#f5caab;}.cls-7{fill:#e69b78;}.cls-8{fill:#ebc3a2;}.cls-9{fill:#f9ddca;}.cls-10{fill:#ebc0a4;}.cls-11{fill:#f9efe0;}.cls-12{fill:#5e2b29;}.cls-13{fill:#592d1f;}.cls-14{fill:#fff;}.cls-15{fill:#f0ebe8;}.cls-16{fill:#471815;}.cls-17{fill:#703534;}.cls-18{fill:#fffbf1;}.cls-19{fill:#e8d5ba;}.cls-20{fill:#52201e;}.cls-21{fill:#6b3727;}</style></defs><g id="Слой_2" data-name="Слой 2"><g id="animal"><g id="horse"><path class="cls-1" d="M75.21,110.43l.19.14h0l-.29-.23.36.23h.31c.25-.07,1.81-.34,2-.37,1.31-.21,2.63-.42,4-.51,1.73-.12,3.47-.12,5.19-.28l.41,0c.25,0,.49-.09.73-.15a16,16,0,0,0,1.73-.58,5.67,5.67,0,0,1,.66-.22c0-.27,0-.54.07-.81a48.6,48.6,0,0,0-.36-10.44c-.45-3.15-1.28-6.39-3.35-8.8S81.14,84.61,78.27,86s-4,4.68-4.19,7.76.34,6.19-.14,9.24c-.29,1.77-.92,3.48-1.19,5.26,0,.21-.06.43-.08.65A10.07,10.07,0,0,1,75.21,110.43Z"/><path class="cls-2" d="M90,96.16c-3.94,5-9.78,7-16.11,7-.29,1.73-.9,3.4-1.16,5.14,0,.21-.06.43-.08.65a10.07,10.07,0,0,1,2.54,1.52l.19.14h0l-.29-.23.36.23h.31c.25-.07,1.81-.34,2-.37,1.31-.21,2.63-.42,4-.51,1.73-.12,3.47-.12,5.19-.28l.41,0c.25,0,.49-.09.73-.15a16,16,0,0,0,1.73-.58,5.67,5.67,0,0,1,.66-.22c0-.27,0-.54.07-.81a48.6,48.6,0,0,0-.36-10.44C90.13,96.82,90.08,96.49,90,96.16Z"/><path class="cls-3" d="M73.71,106.54a2.86,2.86,0,0,0-1,1.84,9.59,9.59,0,0,0,0,4.73,4.82,4.82,0,0,0,2.39,2.72,8.71,8.71,0,0,0,3.8.56,13.32,13.32,0,0,0,5.43-.85c1.64-.72,3.42-1.09,4.61-2.57a9.26,9.26,0,0,0,1.56-5.27c.2-2.85-3.45-1.86-5.27-1.91-2.26-.05-4.52-.25-6.79-.26C76.85,105.53,74.87,105.55,73.71,106.54Z"/><path class="cls-4" d="M83.54,112.16c-3.34.84-7.77,1-11.08-.54a5.18,5.18,0,0,0,.29,1.49,4.82,4.82,0,0,0,2.39,2.72,8.71,8.71,0,0,0,3.8.56,13.32,13.32,0,0,0,5.43-.85c1.64-.72,3.42-1.09,4.61-2.57a8.72,8.72,0,0,0,1.53-4.8A15.51,15.51,0,0,1,83.54,112.16Z"/><path class="cls-1" d="M24.69,97.2a12,12,0,0,0,1.08,2.19,8.09,8.09,0,0,0,1.69,2.16,9.14,9.14,0,0,0,4.63,1.61,11.73,11.73,0,0,0,4.53.11c3.62-.85,4.69-5.51,5.38-8.6A32.07,32.07,0,0,0,42.24,82a10.6,10.6,0,0,0-1.81-4.67A4.63,4.63,0,0,0,36,75.49c-2.59.57-3.6,3.62-4.49,6.11a37,37,0,0,1-3.92,7.54C26.51,90.85,24.69,93,24.42,95A4.75,4.75,0,0,0,24.69,97.2Z"/><path class="cls-2" d="M32.23,93.06A13.4,13.4,0,0,1,27,90c-1.06,1.52-2.34,3.27-2.57,5a4.72,4.72,0,0,0,.27,2.17,11.14,11.14,0,0,0,1.08,2.19,8.31,8.31,0,0,0,1.68,2.17,9.23,9.23,0,0,0,4.64,1.61,11.93,11.93,0,0,0,4.53.12c3.61-.86,4.69-5.51,5.38-8.6a31.61,31.61,0,0,0,.6-3.88A10.9,10.9,0,0,1,32.23,93.06Z"/><path class="cls-3" d="M36.47,100.88c-.46-.36-1-.73-1.41-1.15a101.64,101.64,0,0,1-9-7.34.85.85,0,0,0-.35-.24c-.28-.07-.55.15-.77.35-1.53,1.49-4.46,3.27-5.15,5.36s.9,4.1,2.36,5.68a21.94,21.94,0,0,0,5.18,4.54,7.38,7.38,0,0,0,6.62.59A9.34,9.34,0,0,0,37.62,105c.59-.92,1.05-2.47,0-3.24C37.21,101.44,36.85,101.18,36.47,100.88Z"/><path class="cls-4" d="M24.49,102.38l-.62-.14a14.65,14.65,0,0,1-3.79-1.51,12,12,0,0,0,2.05,2.81,21.94,21.94,0,0,0,5.18,4.54,7.38,7.38,0,0,0,6.62.59A9.34,9.34,0,0,0,37.62,105a2.29,2.29,0,0,0,.14-2.86A13,13,0,0,1,24.49,102.38Z"/><path class="cls-5" d="M32,17.61a4.41,4.41,0,0,0,.87-1.8c.54-3.7-4.75-6-7.46-7.1-1.43-.57-9-1.92-6.67,1.65,1.77,2.76,4,5.89,4.53,9.23.31.85.73,1.8,1.59,2.07C26.81,22.26,30.33,19.83,32,17.61Z"/><path class="cls-6" d="M19,10.73a21.74,21.74,0,0,1,13.36,4.95l.47.39a1.22,1.22,0,0,0,.06-.26c.54-3.7-4.75-6-7.46-7.1-1.43-.57-9-1.92-6.67,1.65Z"/><path class="cls-5" d="M39.09,48.52A24,24,0,0,0,37,53.32c-1.57,4.81-3.45,10-4.35,14.93C31.1,76.48,36,84.56,42.28,89.61c7.59,6.12,17.85,6.85,27.22,6.74,5.66-.07,11.54-1.73,16.88-3.44,2.93-.94,6.83-2.07,9.13-4.23a17.73,17.73,0,0,0,5.21-18.55c-1.66-5.67-5.06-9.19-10.84-10.55-6.22-1.46-12.7-1.35-19-2.54S58.2,53,55.08,47.41c-1.19-2.12-2-4.68-4-5.95-3.52-2.16-6.48.73-8.83,3.07A19.87,19.87,0,0,0,39.09,48.52Z"/><path class="cls-6" d="M34.85,74.54a43,43,0,0,1,1.54-14.92,111.28,111.28,0,0,1,3.87-12.1c.19-.49.39-1,.59-1.48a21.07,21.07,0,0,0-1.76,2.48A24,24,0,0,0,37,53.32c-1.57,4.81-3.45,10-4.35,14.93-.94,5.16.64,10.25,3.5,14.58A69.64,69.64,0,0,1,34.85,74.54Z"/><path class="cls-7" d="M101.17,72A26.59,26.59,0,0,1,92.34,82.6c-8.7,6.38-19.92,9.11-30.5,9.53a22.94,22.94,0,0,1-6.66-1c-7-1.82-13.2-2.52-18.66-7.66a30.36,30.36,0,0,0,5.76,6.15c7.59,6.12,17.85,6.85,27.22,6.74,5.66-.07,11.54-1.73,16.88-3.44,2.93-.94,6.83-2.07,9.13-4.23A17.7,17.7,0,0,0,101.17,72Z"/><path class="cls-8" d="M10.09,34.89c.64-.65,1.31-1.28,2-2,1.66-1.7,2.78-3.81,4.41-5.62C20,23.41,23.61,19.44,28.25,17c6.06-3.2,13.44-3.47,20-1.48a14.44,14.44,0,0,1,7.13,4.23c2,2.46,2.62,5.76,3,8.92.67,5,1.23,11.52-2.16,15.78-4,5.06-9.52,8.13-15.59,10.11C36.26,56,31.21,57.44,26.55,57A36.12,36.12,0,0,1,15.8,54.55C9.38,51.89,4.63,46.49,7.14,39.26A11.82,11.82,0,0,1,10.09,34.89Z"/><path class="cls-8" d="M41.36,53.68l-.82-.06c-.74,0-1.49-.08-2.23-.1-1.51,0-3-.06-4.53-.11a78.23,78.23,0,0,1-8.92-.68,99.49,99.49,0,0,1-13-2.78,16.1,16.1,0,0,0,6.27,4.41A33.2,33.2,0,0,0,28,56.64a24.08,24.08,0,0,0,7.51-.74c1.35-.31,2.7-.65,4-1.08a10.78,10.78,0,0,0,3.29-1.28,1.06,1.06,0,0,0-.6.09A2.58,2.58,0,0,1,41.36,53.68Z"/><path class="cls-8" d="M29.63,20.87a89,89,0,0,1,7.91-6.53A24.15,24.15,0,0,0,28.25,17C23.61,19.44,20,23.41,16.47,27.31c-1.63,1.81-2.75,3.92-4.41,5.62-.66.68-1.33,1.31-2,2a11.82,11.82,0,0,0-2.95,4.37,11.66,11.66,0,0,0-.68,4C12.7,34.54,20.8,27.19,29.63,20.87Z"/><path class="cls-8" d="M36.45,21.2a1.94,1.94,0,0,1-.84-1.11c-.16-.59.3-1.81-.18-2.22s-1.4.31-1.6-.46a2.37,2.37,0,0,1,.5-1.72c.34-.56.67-1.12,1-1.67a6.23,6.23,0,0,1,.72-1c1.68-1.75,4.71-1.09,6.85-1.56,2.56-.57,4.56,1.15,6.67,2.38,1.1.72,2.3,1.72,2.22,3S50.39,19,49.11,19.32c-1.88.4-3.85-.27-5.69.16A19.93,19.93,0,0,0,39.08,21a5.34,5.34,0,0,1-1.15.5A2,2,0,0,1,36.45,21.2Z"/><path class="cls-8" d="M52.42,45.93c0,.21,0,.44.06.65.21,4.35,2.76,8.26,5.81,11.37a10.77,10.77,0,0,0,3.19,2.43c3,1.34,8.26.34,8.11-3.53-.17-4.37-3.63-8.11-6-11.52-3-4.47-4-11.22-5.66-16.34a2.08,2.08,0,0,0-.43-.85,1.52,1.52,0,0,0-1.26-.34c-2.15.21-3.42,2.48-4.11,4.52S48,43.51,50.86,44.64a7.81,7.81,0,0,1,1,.25A1.29,1.29,0,0,1,52.42,45.93Z"/><path class="cls-8" d="M5,58.74C.43,54.82-1.48,48.44,1.28,42.8a12,12,0,0,1,8.06-6,25,25,0,0,1,10.3,0c3.95.7,8,1.94,10.81,4.82,5.31,5.45,3.1,15.63-3.45,19-6.38,3.27-14.46,3.29-20.56-.8A15,15,0,0,1,5,58.74Z"/><path class="cls-8" d="M16.7,59.21,16,59.13A20.89,20.89,0,0,1,5.86,56.88a19.49,19.49,0,0,1-4.8-3.49A14.64,14.64,0,0,0,5,58.74a15,15,0,0,0,1.47,1.12c6.1,4.09,14.18,4.07,20.56.8a12.13,12.13,0,0,0,5.82-7.31A19.7,19.7,0,0,1,16.7,59.21Z"/><path class="cls-8" d="M18.3,40h0c2.55.53,5,1.27,7.53,2,1.11.32,2.24.56,3.32,1,.67.25,2.93.89,3.23,1.57a9.69,9.69,0,0,0-1.94-2.84c-2.79-2.88-6.86-4.12-10.81-4.82a25,25,0,0,0-10.3,0,12.12,12.12,0,0,0-7.95,5.8,14.35,14.35,0,0,1,1.89-1.2C8,38.93,13.22,38.92,18.3,40Z"/><path class="cls-8" d="M4.47,47.53A2.12,2.12,0,0,0,6.08,48a1,1,0,0,0,.66-1.3,3,3,0,0,0-.44-.85,3.46,3.46,0,0,0-1.51-1.56,1.63,1.63,0,0,0-1.85.2A1.54,1.54,0,0,0,3,46.3,4.56,4.56,0,0,0,4.47,47.53Z"/><path class="cls-8" d="M26.92,49.1c-.9,3.45-9.79,1.63-3.94-1.76,1.14-.66,2.78-.85,3.61.18A1.79,1.79,0,0,1,26.92,49.1Z"/><path class="cls-8" d="M13.19,57.93s.16.06.45.14l.23.08.26.06c.19,0,.39.09.63.12l.36.05.4,0a5.83,5.83,0,0,0,.84,0,5.31,5.31,0,0,0,.87-.11l.45-.09.43-.13a6.19,6.19,0,0,0,1.53-.81,5,5,0,0,0,.58-.54l.25-.27a3,3,0,0,1,.2-.29,4,4,0,0,0,.32-.54,2.51,2.51,0,0,0,.21-.45,4,4,0,0,1,.18-.41v0a.26.26,0,0,1,.33-.12.28.28,0,0,1,.15.22s0,.18,0,.5v.27c0,.09,0,.19-.06.3a2.91,2.91,0,0,1-.23.73c-.05.13-.11.27-.18.41s-.16.26-.25.4a4.3,4.3,0,0,1-1.58,1.42,5.27,5.27,0,0,1-1,.45,5.16,5.16,0,0,1-1.09.23,7.67,7.67,0,0,1-1.06.05,7.41,7.41,0,0,1-1-.13l-.44-.1-.4-.14a3.67,3.67,0,0,1-.69-.29l-.28-.14-.21-.14L13,58.38a.25.25,0,0,1-.06-.35A.26.26,0,0,1,13.19,57.93Z"/><path class="cls-5" d="M10.09,34.89c.64-.65,1.31-1.28,2-2,1.66-1.7,2.78-3.81,4.41-5.62C20,23.41,23.61,19.44,28.25,17c6.06-3.2,13.44-3.47,20-1.48a14.44,14.44,0,0,1,7.13,4.23c2,2.46,2.62,5.76,3,8.92.67,5,1.23,11.52-2.16,15.78-4,5.06-9.52,8.13-15.59,10.11C36.26,56,31.21,57.44,26.55,57A36.12,36.12,0,0,1,15.8,54.55C9.38,51.89,4.63,46.49,7.14,39.26A11.82,11.82,0,0,1,10.09,34.89Z"/><path class="cls-7" d="M41.36,53.68l-.82-.06c-.74,0-1.49-.08-2.23-.1-1.51,0-3-.06-4.53-.11a78.23,78.23,0,0,1-8.92-.68,99.49,99.49,0,0,1-13-2.78,16.1,16.1,0,0,0,6.27,4.41A33.2,33.2,0,0,0,28,56.64a24.08,24.08,0,0,0,7.51-.74c1.35-.31,2.7-.65,4-1.08a10.78,10.78,0,0,0,3.29-1.28,1.06,1.06,0,0,0-.6.09A2.58,2.58,0,0,1,41.36,53.68Z"/><path class="cls-6" d="M29.63,20.87a89,89,0,0,1,7.91-6.53A24.15,24.15,0,0,0,28.25,17C23.61,19.44,20,23.41,16.47,27.31c-1.63,1.81-2.75,3.92-4.41,5.62-.66.68-1.33,1.31-2,2a11.82,11.82,0,0,0-2.95,4.37,11.66,11.66,0,0,0-.68,4C12.7,34.54,20.8,27.19,29.63,20.87Z"/><path class="cls-7" d="M36.45,21.2a1.94,1.94,0,0,1-.84-1.11c-.16-.59.3-1.81-.18-2.22s-1.4.31-1.6-.46a2.37,2.37,0,0,1,.5-1.72c.34-.56.67-1.12,1-1.67a6.23,6.23,0,0,1,.72-1c1.68-1.75,4.71-1.09,6.85-1.56,2.56-.57,4.56,1.15,6.67,2.38,1.1.72,2.3,1.72,2.22,3S50.39,19,49.11,19.32c-1.88.4-3.85-.27-5.69.16A19.93,19.93,0,0,0,39.08,21a5.34,5.34,0,0,1-1.15.5A2,2,0,0,1,36.45,21.2Z"/><path class="cls-7" d="M52.42,45.93c0,.21,0,.44.06.65.21,4.35,2.76,8.26,5.81,11.37a10.77,10.77,0,0,0,3.19,2.43c3,1.34,8.26.34,8.11-3.53-.17-4.37-3.63-8.11-6-11.52-3-4.47-4-11.22-5.66-16.34a2.08,2.08,0,0,0-.43-.85,1.52,1.52,0,0,0-1.26-.34c-2.15.21-3.42,2.48-4.11,4.52S48,43.51,50.86,44.64a7.81,7.81,0,0,1,1,.25A1.29,1.29,0,0,1,52.42,45.93Z"/><path class="cls-9" d="M5,58.74C.43,54.82-1.48,48.44,1.28,42.8a12,12,0,0,1,8.06-6,25,25,0,0,1,10.3,0c3.95.7,8,1.94,10.81,4.82,5.31,5.45,3.1,15.63-3.45,19-6.38,3.27-14.46,3.29-20.56-.8A15,15,0,0,1,5,58.74Z"/><path class="cls-10" d="M16.7,59.21,16,59.13A20.89,20.89,0,0,1,5.86,56.88a19.49,19.49,0,0,1-4.8-3.49A14.64,14.64,0,0,0,5,58.74a15,15,0,0,0,1.47,1.12c6.1,4.09,14.18,4.07,20.56.8a12.13,12.13,0,0,0,5.82-7.31A19.7,19.7,0,0,1,16.7,59.21Z"/><path class="cls-11" d="M18.3,40h0c2.55.53,5,1.27,7.53,2,1.11.32,2.24.56,3.32,1,.67.25,2.93.89,3.23,1.57a9.69,9.69,0,0,0-1.94-2.84c-2.79-2.88-6.86-4.12-10.81-4.82a25,25,0,0,0-10.3,0,12.12,12.12,0,0,0-7.95,5.8,14.35,14.35,0,0,1,1.89-1.2C8,38.93,13.22,38.92,18.3,40Z"/><path class="cls-12" d="M4.47,47.53A2.12,2.12,0,0,0,6.08,48a1,1,0,0,0,.66-1.3,3,3,0,0,0-.44-.85,3.46,3.46,0,0,0-1.51-1.56,1.63,1.63,0,0,0-1.85.2A1.54,1.54,0,0,0,3,46.3,4.56,4.56,0,0,0,4.47,47.53Z"/><path class="cls-12" d="M26.92,49.1c-.9,3.45-9.79,1.63-3.94-1.76,1.14-.66,2.78-.85,3.61.18A1.79,1.79,0,0,1,26.92,49.1Z"/><path class="cls-13" d="M13.19,57.93s.16.06.45.14l.23.08.26.06c.19,0,.39.09.63.12l.36.05.4,0a5.83,5.83,0,0,0,.84,0,5.31,5.31,0,0,0,.87-.11l.45-.09.43-.13a6.19,6.19,0,0,0,1.53-.81,5,5,0,0,0,.58-.54l.25-.27a3,3,0,0,1,.2-.29,4,4,0,0,0,.32-.54,2.51,2.51,0,0,0,.21-.45,4,4,0,0,1,.18-.41v0a.26.26,0,0,1,.33-.12.28.28,0,0,1,.15.22s0,.18,0,.5v.27c0,.09,0,.19-.06.3a2.91,2.91,0,0,1-.23.73c-.05.13-.11.27-.18.41s-.16.26-.25.4a4.3,4.3,0,0,1-1.58,1.42,5.27,5.27,0,0,1-1,.45,5.16,5.16,0,0,1-1.09.23,7.67,7.67,0,0,1-1.06.05,7.41,7.41,0,0,1-1-.13l-.44-.1-.4-.14a3.67,3.67,0,0,1-.69-.29l-.28-.14-.21-.14L13,58.38a.25.25,0,0,1-.06-.35A.26.26,0,0,1,13.19,57.93Z"/><path class="cls-7" d="M26.58,30.47c-1.62,3.39-5.23,5-8.06,3.69s-3.81-5.2-2.19-8.59,5.23-5,8.06-3.69S28.2,27.08,26.58,30.47Z"/><path class="cls-7" d="M39.45,33.9c-1.8,3.77-5.77,5.63-8.85,4.16s-4.12-5.73-2.32-9.5,5.77-5.63,8.85-4.16S41.25,30.13,39.45,33.9Z"/><path class="cls-14" d="M26.26,29.47c-1.62,3.39-5.23,5-8.06,3.69S14.4,28,16,24.57s5.23-5,8.06-3.69S27.88,26.08,26.26,29.47Z"/><path class="cls-15" d="M25.11,30.43a7.33,7.33,0,0,1-4,1.16,4.34,4.34,0,0,1-4-1.42,5.16,5.16,0,0,1-.49-.64,6.35,6.35,0,0,1-1.35-1.88,5.66,5.66,0,0,0,2.95,5.51C20.89,34.44,24.28,33,26,30A6.92,6.92,0,0,1,25.11,30.43Z"/><path class="cls-14" d="M39.13,32.9c-1.8,3.77-5.76,5.63-8.85,4.16s-4.12-5.73-2.31-9.5,5.76-5.63,8.84-4.16S40.94,29.13,39.13,32.9Z"/><path class="cls-15" d="M36.56,34.47a7.8,7.8,0,0,1-3,.68,6,6,0,0,1-1.64.13c-2.72-.21-4.3-2.47-4.78-5.14-.44,3,.71,5.78,3.1,6.92,3.09,1.47,7-.39,8.85-4.16l.17-.38A10.36,10.36,0,0,1,36.56,34.47Z"/><path class="cls-16" d="M25.63,26.31a2.43,2.43,0,1,1-2.87-2.85c.3-.06.31,2.31.63,2.37s1.06-2.13,1.36-1.9A2.48,2.48,0,0,1,25.63,26.31Z"/><path class="cls-16" d="M38.24,29.37a2.73,2.73,0,1,1-5.36-1,2.75,2.75,0,0,1,2.27-2.19c.29,0,.25,2.85.56,2.91s1.21-2.61,1.55-2.34A2.69,2.69,0,0,1,38.24,29.37Z"/><path class="cls-12" d="M57.58,9a33.58,33.58,0,0,0-5.52,10.17.18.18,0,0,1-.21.11c-2.49-.53-5.2-1.5-7.76-1.58a15.1,15.1,0,0,0-3.35.32A7.67,7.67,0,0,0,37,19.57l-.3.29a7.34,7.34,0,0,1,.74-1.45c.25-.47.51-.94.77-1.4a14,14,0,0,1,1.61-2.4.19.19,0,0,0-.17-.31,13.24,13.24,0,0,0-4,1.43.19.19,0,0,1-.25-.25l.72-1.54a.18.18,0,0,0-.21-.26A30.27,30.27,0,0,0,24.9,19a.19.19,0,0,1-.27-.25A17.36,17.36,0,0,1,31,12.66a.19.19,0,0,0-.06-.35l-5.19-.85a.19.19,0,0,1-.07-.35A27,27,0,0,1,31.8,8.36a.19.19,0,0,0,.1-.29,23.71,23.71,0,0,0-5-5.18.18.18,0,0,1,.14-.33,18.9,18.9,0,0,1,10.5,5.27.18.18,0,0,0,.32-.11A12.86,12.86,0,0,0,36.32.77a.18.18,0,0,1,.26-.24,32.68,32.68,0,0,1,9.48,8.89.19.19,0,0,0,.33,0A15.21,15.21,0,0,0,47.14.23a.19.19,0,0,1,.33-.16A23.38,23.38,0,0,1,52.26,11.6a.18.18,0,0,0,.3.12,18.53,18.53,0,0,1,4.8-3A.19.19,0,0,1,57.58,9Z"/><path class="cls-17" d="M24.9,19a29.18,29.18,0,0,1,2.7-1.84c1.39-.84,4.88-2.39,5.49-3.87.51-1.22-1.06-5,1.58-4.62l6.25,1c-.25-1.16-.46-2.33-.61-3.51,2.24,1.59,4.12,4,6,5.94.36.36.89.75,1.32.48a1.16,1.16,0,0,0,.38-.76c.28-1.28.55-2.55.82-3.82.22.53,4.71,7.51,5.06,6.79A27.52,27.52,0,0,1,57.58,9a.19.19,0,0,0-.22-.29,18.53,18.53,0,0,0-4.8,3,.18.18,0,0,1-.3-.12A23.38,23.38,0,0,0,47.47.07a.19.19,0,0,0-.33.16,15.21,15.21,0,0,1-.75,9.16.19.19,0,0,1-.33,0A32.68,32.68,0,0,0,36.58.53a.18.18,0,0,0-.26.24,12.86,12.86,0,0,1,1.57,7,.18.18,0,0,1-.32.11,18.9,18.9,0,0,0-10.5-5.27.18.18,0,0,0-.14.33,23.71,23.71,0,0,1,5,5.18.19.19,0,0,1-.1.29,27,27,0,0,0-6.15,2.75.19.19,0,0,0,.07.35l5.19.85a.19.19,0,0,1,.06.35,17.36,17.36,0,0,0-6.34,6.08A.19.19,0,0,0,24.9,19Z"/><path class="cls-3" d="M77.84,76.83c5.82-2.87,8.28-12,6.94-17.91a3.11,3.11,0,0,0-.87-1.75c-1.2-1-4.4-.52-6-.76-3.51-.43-6.07-.81-9.18-2.51a1.89,1.89,0,0,0-.85-.3,1.86,1.86,0,0,0-1.31.78c-4.49,5-6.23,13.09-2,18.85C67.56,77.22,73.39,79,77.84,76.83Z"/><path class="cls-4" d="M78.71,71.1a15.39,15.39,0,0,1-15.78-1,12.2,12.2,0,0,0,1.68,3.16c3,4,8.78,5.78,13.23,3.6,4.17-2,6.62-7.32,7.17-12.32A14.94,14.94,0,0,1,78.71,71.1Z"/><path class="cls-4" d="M71.33,80.15a57.29,57.29,0,0,1-1.16,8.75,33.41,33.41,0,0,1-1.37,4.47c-.27.7-.59,1.38-.91,2.06a8.33,8.33,0,0,0-1,2c-.17,1.31,2.28.74,2.85.31s.86-1.76,1.14-2.49a31.78,31.78,0,0,0,1-3.19c.5-1.85,1-3.72,1.31-5.6,0-.07,0-.15,0-.23a72.77,72.77,0,0,0,1-13.08l-2.5.22C71.59,75.71,71.49,78,71.33,80.15Z"/><path class="cls-18" d="M65.24,69.54a8.33,8.33,0,0,0,7.28,5.57c4.75.3,8.94-3.39,10-7.9a20.2,20.2,0,0,0-.44-9.43,1.86,1.86,0,0,0-.81-1.16,1.92,1.92,0,0,0-.79-.15c-3.24-.2-6.72-.17-9.73-1.56a2.92,2.92,0,0,0-1.38-.42c-3,.18-4.3,6.85-4.69,9A11.07,11.07,0,0,0,65.24,69.54Z"/><path class="cls-19" d="M66,71a8.09,8.09,0,0,0,6.54,4.07c4.33.27,8.21-2.78,9.63-6.74C77.66,72.43,71.54,72.84,66,71Z"/><path class="cls-12" d="M78,52.93l-5.38-.61a.13.13,0,0,0-.12.2,17.61,17.61,0,0,0,6.29,5.62.13.13,0,0,1-.06.24l-2.93-.15a.13.13,0,0,0-.09.23l4.93,4.4a.13.13,0,0,1-.09.23,23.39,23.39,0,0,1-15-6.71.12.12,0,0,0-.21.11c.13.87.27,1.75.41,2.63a.13.13,0,0,1-.19.14A22.68,22.68,0,0,1,57,50.75,17.24,17.24,0,0,1,55.06,45a16.41,16.41,0,0,1-.23-4.81.13.13,0,0,0-.22-.11l-1.45,1.67a.13.13,0,0,1-.23-.1c.41-6.06,2.35-11.7,3.85-17.53.37-1.43.8-2.91,2.33-3.68h0c2.11-.58,3,1.24,3.59,2.77A52.48,52.48,0,0,0,74,40.11a.13.13,0,0,1-.14.21A14.45,14.45,0,0,0,69.43,39a.13.13,0,0,0-.12.21l4.81,6.24a.13.13,0,0,1-.13.21l-4.48-1a.13.13,0,0,0-.13.21A33.87,33.87,0,0,0,78,52.69.13.13,0,0,1,78,52.93Z"/><path class="cls-17" d="M78,52.93l-5.38-.61a.13.13,0,0,0-.12.2c2,2.91,4.65,3.81,7.13,5.95-3.39.61-6.54-3.06-8.5-5.34-.85-1-1.71-2.47-.86-3.46a1.55,1.55,0,0,0,1.35-.26,8.42,8.42,0,0,1-3.68-7,3.14,3.14,0,0,0,2.22,0,6.15,6.15,0,0,1-2.87-7A81.87,81.87,0,0,1,60.9,23.63c-.44-1-.72-2.09,0-3a4.14,4.14,0,0,1,1.82,2.49A52.48,52.48,0,0,0,74,40.11a.13.13,0,0,1-.14.21A14.45,14.45,0,0,0,69.43,39a.13.13,0,0,0-.12.21l4.81,6.24a.13.13,0,0,1-.13.21l-4.48-1a.13.13,0,0,0-.13.21A33.87,33.87,0,0,0,78,52.69.13.13,0,0,1,78,52.93Z"/><path class="cls-20" d="M73.89,60.47a29,29,0,0,0,6.38,2.38c-.93,1.28-6.77-1.27-7.94-1.8a23.32,23.32,0,0,1-6.78-4.67.12.12,0,0,0-.21.11c.13.87.27,1.75.41,2.63a.13.13,0,0,1-.19.14A22.68,22.68,0,0,1,57,50.75,17.24,17.24,0,0,1,55.06,45a16.41,16.41,0,0,1-.23-4.81.13.13,0,0,0-.22-.11l-1.45,1.67a.13.13,0,0,1-.23-.1c.16-2.28.26-5.61,1.33-7.67-.5,1,0,3.68.54,4.57.2.33,1.05,0,1.44.63s.3,2.44.47,3.27c.83,4,2.56,9.33,5.39,12.43.44.48,1.14,1,1.68.59s.48-1.81,1.26-1.83A29.8,29.8,0,0,0,73.89,60.47Z"/><path class="cls-5" d="M50.46,20.62a4.21,4.21,0,0,1,.32-1.1,9.31,9.31,0,0,1,2.49-2.78,14.67,14.67,0,0,1,6.41-3.43c1.53-.39,3.4-1.09,5-.76,2.95.61,1.55,3.24.39,4.91-1.94,2.79-3.84,5.57-5.88,8.35-1,1.38-2.94,3.22-4.8,2.6S51.11,24.79,50.62,23A5.77,5.77,0,0,1,50.46,20.62Z"/><path class="cls-7" d="M61.41,21.09a34.45,34.45,0,0,1-5.21,3.43l-.5.25a8.55,8.55,0,0,1-2.35,3,3.22,3.22,0,0,0,1,.62c1.86.62,3.79-1.22,4.8-2.6C60.86,23.54,62.43,21.27,64,19,63.16,19.73,62.28,20.43,61.41,21.09Z"/><path class="cls-6" d="M54,18.24a28.37,28.37,0,0,1,4.48-1.75,30.48,30.48,0,0,1,8-1.83c.15-1-.22-1.8-1.72-2.11s-3.47.37-5,.76a14.67,14.67,0,0,0-6.41,3.43,9.31,9.31,0,0,0-2.49,2.78,4.32,4.32,0,0,0-.25.77A23.81,23.81,0,0,1,54,18.24Z"/><path class="cls-21" d="M53.55,24.19a3.9,3.9,0,0,1,1.6-3.48,12.48,12.48,0,0,1,6-2,.62.62,0,0,1,.27,0,.57.57,0,0,1,.34.72,1.7,1.7,0,0,1-.52.7,20.9,20.9,0,0,0-3.42,4.36A5.73,5.73,0,0,1,57,25.63a1.71,1.71,0,0,1-1.24.59A1.76,1.76,0,0,1,55,26,2.53,2.53,0,0,1,53.55,24.19Z"/><path class="cls-12" d="M122.4,92.76l-1.78-1.69a72.78,72.78,0,0,1,.87,15.18,36.28,36.28,0,0,0-6.77-10.5c0,1.15,0,2.3-.07,3.46a39.87,39.87,0,0,1-6.46-16.09L106.57,89A23.83,23.83,0,0,1,103,76.89l-1.69,1.72c3.68-3.75-4.24-12.81-5.85-15.78a1.82,1.82,0,0,1,0-1.88c.65-.89,3.86-1.3,4.9-1.31a13.44,13.44,0,0,1,8.47,3.42c3.06,2.55,5.34,5.9,8.08,8.79l-3.28-.7A43.43,43.43,0,0,0,121,79.88l-5.74-.76A30.21,30.21,0,0,1,122.4,92.76Z"/><path class="cls-20" d="M120.72,89.22a1.39,1.39,0,0,0-.75.48c-.69.73-.54,5.83-.79,5.92-.83.31-1.53-.66-1.89-1.47-.44-1-.88-2-1.33-3-.24-.23-.53.3-.86.39s-2.76-3.8-3.07-4.33-3.11-6.61-3.35-6.59a5,5,0,0,0-2.54.92c-1-5.47-3-10.52-7.2-14.11-.41-.36-.8-.72-1.18-1.09,2.71,4,6.23,9.55,3.54,12.3L103,76.89A23.83,23.83,0,0,0,106.57,89l1.62-5.91a39.87,39.87,0,0,0,6.46,16.09c0-1.16,0-2.31.07-3.46a36.28,36.28,0,0,1,6.77,10.5,72.78,72.78,0,0,0-.87-15.18l1.78,1.69C122.12,91.54,121.76,89.08,120.72,89.22Z"/><path class="cls-17" d="M96,63.66a10.06,10.06,0,0,1,4.14-.19,20.73,20.73,0,0,1,12.48,7.6c.33.4,1.66,2.1,1.57,2l1,1.21c1,1.24,2,2.48,2.9,3.74.41.54.81,1.08,1.21,1.63l1.82.24a43.43,43.43,0,0,1-7.44-8.73l3.28.7c-2.74-2.89-5-6.24-8.08-8.79a13.44,13.44,0,0,0-8.47-3.42c-1,0-4.25.42-4.9,1.31a1.82,1.82,0,0,0,0,1.88C95.58,63.06,95.75,63.35,96,63.66Z"/><path class="cls-5" d="M43.08,109.73l0,0h0c.25.08.49.16.74.22.77.21,1.54.4,2.31.56,1.67.36,3.34.87,5,1.22.34-.19.68-.37,1-.58a4.58,4.58,0,0,1,.36-.34,7.66,7.66,0,0,1,5.59-2.21A55.11,55.11,0,0,0,60.5,92.4c0-3.27-.54-6.72-2.55-9.3S52,79.22,49.28,81c-2.54,1.69-3,5.14-3.57,8.14A47.38,47.38,0,0,1,40,104.57,8.29,8.29,0,0,1,43.08,109.73Z"/><path class="cls-6" d="M59.93,87.38a11.25,11.25,0,0,0-2-4.28c-2-2.58-6-3.88-8.67-2.06-2.54,1.69-3,5.14-3.57,8.14,0,.23-.09.45-.14.67C49.07,85.41,55.23,83.85,59.93,87.38Z"/><path class="cls-7" d="M51.32,101.71a23.13,23.13,0,0,1-8.73-2.23A45.69,45.69,0,0,1,40,104.57a8.29,8.29,0,0,1,3,5.16l0,0h0c.25.08.49.16.74.22.77.21,1.54.4,2.31.56,1.67.36,3.34.87,5,1.22.34-.19.68-.37,1-.58a4.58,4.58,0,0,1,.36-.34,7.66,7.66,0,0,1,5.59-2.21A60.33,60.33,0,0,0,60.27,97.9,12.14,12.14,0,0,1,51.32,101.71Z"/><path class="cls-3" d="M41.87,103.36c-1,.13-1.62.87-2.26,1.92-.88,1.46-1.88,3-1.71,4.71.22,2.2,2.29,3.68,4.15,4.86a22.91,22.91,0,0,0,5.27,2.72,7.65,7.65,0,0,0,5.78-.26,10.46,10.46,0,0,0,3.65-4,11,11,0,0,0,1.35-4.85c0-.1,0-.22-.1-.27a12.18,12.18,0,0,0-2-.18,22.31,22.31,0,0,1-2.84-.4,31.37,31.37,0,0,1-4.81-1.74A44.4,44.4,0,0,0,43,103.47,2.87,2.87,0,0,0,41.87,103.36Z"/><path class="cls-4" d="M49.38,114c-3.58-.29-8.15-1.38-11.43-3.67.36,2,2.32,3.43,4.1,4.56a22.91,22.91,0,0,0,5.27,2.72,7.65,7.65,0,0,0,5.78-.26,12.08,12.08,0,0,0,4.61-6.22A11.93,11.93,0,0,1,49.38,114Z"/><path class="cls-5" d="M92.37,111.12a7.91,7.91,0,0,1,1.43.24c.62.17,1.24.41,1.87.6l.07,0a12.9,12.9,0,0,0,1.24-.42l.49-.19,1.36-.57c.41-.18.83-.34,1.24-.51.61-.22,1.23-.37,1.84-.55-.26,0,1.55-.72,1.93-.92a16.71,16.71,0,0,1,4-1.66c.69-.16,1.39-.27,2.09-.37l0-.32c-.7-7.35-3.95-14.18-7.36-20.73-1.57-3-3.87-6.17-7.64-6.33a5.62,5.62,0,0,0-1.3.12L93,79.6c-3.13.79-5.56,2.94-5.84,6.38-.25,3.14,1.08,6.16,2.12,9.13A54.32,54.32,0,0,1,92.37,111.12Z"/><path class="cls-6" d="M88.53,87.2a13.08,13.08,0,0,1,6.2-4,9.85,9.85,0,0,1,6.55.46c-1.5-2.24-3.53-4.14-6.43-4.27a5.62,5.62,0,0,0-1.3.12L93,79.6c-3.13.79-5.56,2.94-5.84,6.38a11.62,11.62,0,0,0,.16,2.83A11.84,11.84,0,0,1,88.53,87.2Z"/><path class="cls-7" d="M109.85,106.42A44,44,0,0,0,106,92.93c-2,6.16-8,11.28-14.68,9.6a54,54,0,0,1,1,8.59,7.91,7.91,0,0,1,1.43.24c.62.17,1.24.41,1.87.6l.07,0a12.9,12.9,0,0,0,1.24-.42l.49-.19,1.36-.57c.41-.18.83-.34,1.24-.51.61-.22,1.23-.37,1.84-.55-.26,0,1.55-.72,1.93-.92a16.71,16.71,0,0,1,4-1.66c.69-.16,1.39-.27,2.09-.37Z"/><path class="cls-3" d="M108.8,103.37a14.24,14.24,0,0,0-3,.9,23.18,23.18,0,0,1-3.48,1.13,37.45,37.45,0,0,1-9.16,1.26,1.19,1.19,0,0,0-.5.07c-.43.2-.46.79-.43,1.26.12,1.56.08,3.22.35,4.76a5.83,5.83,0,0,0,.42,1.48c.12.27,1,1.38,1,1.49a8.3,8.3,0,0,0,3.51,1.42c1.33.21,2.22-.42,3.52-.59a11.16,11.16,0,0,0,7-3.07,8.49,8.49,0,0,0,2.08-3.4c.59-2.09-.45-4.74-.87-6.81Z"/><path class="cls-4" d="M109.14,107.89c-3.84,4.41-10.3,6.54-15.84,4.26l-.55-.25c.08,0,.22,2.26.34,2.56a5.89,5.89,0,0,0,1.66,2.1c2,1.19,4.58.68,6.7.06,2.45-.71,4.82-1.2,6.67-3.14a8.49,8.49,0,0,0,2.08-3.4,7.52,7.52,0,0,0-.15-3.32C109.76,107.15,109.46,107.52,109.14,107.89Z"/></g></g></g></svg>