<svg xmlns="http://www.w3.org/2000/svg" viewBox="0 0 97.82 122.85"><defs><style>.cls-1{fill:#b695ff;}.cls-2{fill:#9278e9;}.cls-3{fill:#c4a9ff;}.cls-4{fill:#957be9;}.cls-5{fill:#c0a5ff;}.cls-6{fill:#9a85e7;}.cls-7{fill:#b999ff;}.cls-8{fill:#d0b9ff;}.cls-9{fill:#a28fe7;}.cls-10{fill:#fff;}.cls-11{fill:#dcd5e0;}.cls-12{fill:#231f20;}.cls-13{fill:#8674c9;}.cls-14{fill:#735bb0;}</style></defs><g id="Слой_2" data-name="Слой 2"><g id="animal"><g id="jellyfish"><path class="cls-1" d="M93.7,89.79c6.13,6.89,4,17.48-.94,20.1a4.72,4.72,0,0,1-5.5-.62c-3.06-3.27.5-10.78.94-14.66Z"/><path class="cls-2" d="M96.2,93.86c1,2.93.16,6.18-1.11,8.93-.94,2.06-2.48,4.43-4.69,5.3-1.71.68-3.29.61-4.19-1.1a3.55,3.55,0,0,0,2.36,3.19,6.16,6.16,0,0,0,4.19-.29,8.45,8.45,0,0,0,3.66-4.46,21.45,21.45,0,0,0,1.38-6.67c.16-2-1-4.15-2-5.82A6.55,6.55,0,0,1,96.2,93.86Z"/><path class="cls-1" d="M77.16,86c-1,.92-.64,3.39-.27,4.52,1.46,4.53,6.67,6.11,10.9,4.47,9-3.46,11.56-19-.91-20Z"/><path class="cls-2" d="M93,77.58c1.35,4.54.16,10.11-3.51,13.08-3.9,3.15-8.91,2.46-12.22-1.19a10.87,10.87,0,0,1-.78-1,7.33,7.33,0,0,0,2.91,5.64,9,9,0,0,0,8.37.93C94,92.64,98.37,83,93,77.58Z"/><path class="cls-2" d="M86,82.13a3.82,3.82,0,0,1,.89,3.9,3.2,3.2,0,0,1-3.34,2.06c-2.18-.34-1.35-3.8-.39-5C83.85,82.17,85,81.34,86,82.13Z"/><path class="cls-3" d="M84.66,88.24c2.53-1.46,3.55-5.37.37-6.31,1.31-.43,3.46-.31,4,.92C90.07,85.1,88.25,88.07,84.66,88.24Z"/><path class="cls-1" d="M86.32,78.64C84,85.7,75.63,88,70.74,83.72,65.51,79.11,67.7,70,79,69.5A138.24,138.24,0,0,1,66,46.27c-.41-1,4.16-1.73,4.66-1.7,2.12.14,2.53,2.34,3.43,4C78,55.67,83.72,62.25,86,70.12A14.41,14.41,0,0,1,86.32,78.64Z"/><path class="cls-3" d="M70,80.87c-1.51-5,1.86-10.8,7.42-11.07a2.14,2.14,0,0,1,2.19,2.1c-.25,2.81-1.69,6.28-4.89,6.71,3,1.07,5.36-.69,6.47-3.23a10,10,0,0,0,0-7.29C79,62.25,73.32,58.76,69.68,53.93A138.92,138.92,0,0,0,79,69.5c-10.22.42-13.3,8-9.23,13.21A2.23,2.23,0,0,1,70,80.87Z"/><path class="cls-2" d="M86.41,71.77c-2,11.3-14.77,14.36-18.24,7.09C69.7,90.28,89.89,87.52,86.41,71.77Z"/><path class="cls-2" d="M73.8,76.24a1.9,1.9,0,0,1,.49-.49,4.94,4.94,0,0,1,1.84-.65c1.38-.28,3.85.16,2.27,1.79-.83.85-2.59,2-3.83,1.61A1.44,1.44,0,0,1,73.8,76.24Z"/><path class="cls-1" d="M38.11,107c-2.34,3.16-4.74,6.4-7.93,8.38s-7.37,2.46-10.46.11c-2.41-1.84-2.85-4.46.29-6.94a24,24,0,0,1,6.71-3.77Z"/><path class="cls-3" d="M29.11,105.23l-2.39-.47A24,24,0,0,0,20,108.53a4.86,4.86,0,0,0-2.23,3.54,3.52,3.52,0,0,0,.16,1C19.88,109.21,25,106.68,29.11,105.23Z"/><path class="cls-2" d="M37.53,106.87c-2.79,3.92-10.42,8.86-15.23,7.89a10.2,10.2,0,0,1-4-.85c1.74,3,6.91,4.53,11.86,1.45,3.19-2,5.59-5.22,7.93-8.38Z"/><path class="cls-1" d="M46.21,92.49c2.35,5-.71,14.19-10.51,14.9-6.75.48-11.32-3.62-12.36-8.48-.86-4,1-8.43,4.28-10Z"/><path class="cls-2" d="M35,91.51a7.09,7.09,0,0,0,1.86-.84l-2.51-.49A5.13,5.13,0,0,1,35,91.51Z"/><path class="cls-2" d="M29.58,103.48a12,12,0,0,1-6.4-5.62,10.59,10.59,0,0,0,5,7.82c4.77,2.95,12.34,2.19,16.24-2.47A11.54,11.54,0,0,0,47,96C44.5,101.93,36.43,106.06,29.58,103.48Z"/><path class="cls-2" d="M38.77,95.66a1.06,1.06,0,0,1,.64.34c.74,1.08-3.12,3.79-6.16,3.06s-3-3.79-1.24-4.57C33,94.05,33.84,94.39,38.77,95.66Z"/><path class="cls-3" d="M31.3,98a1.12,1.12,0,0,1-.16-.22,5.18,5.18,0,0,0,4.07,2.69,8,8,0,0,0,4.61-1.27,4.91,4.91,0,0,0,1.49-1.26c.53-.76.66-2.25-.26-2.81-1.15-.7-2.38.25-3.46.41a1.8,1.8,0,0,1,1.43.44c.55.5.28.76-.16,1.24a6.31,6.31,0,0,1-2.62,1.75C35,99.37,32.27,99.13,31.3,98Z"/><path class="cls-1" d="M43.41,80.24A44.75,44.75,0,0,0,42.66,65c-.73-3.17-1.46-6.15-1.89-9.36-.16-1.23-.52-2.43-.58-3.66a4.28,4.28,0,0,1,1.15-3.41,2.94,2.94,0,0,1,2.37-.72A5.13,5.13,0,0,1,46.1,49.1c1.87,1.49,2.58,3.9,3.36,6.08A58.72,58.72,0,0,1,51.92,64a50.86,50.86,0,0,1,.67,14.31c-.21,2.23-.31,5.18-1.31,7.22-3.06,6.19-9.61,11.84-17.12,9.16a10.64,10.64,0,0,1-6.27-5.65C24.07,80.31,36.79,70.51,43.41,80.24Z"/><path class="cls-3" d="M41.7,78.65a1.84,1.84,0,0,1,.6.19c-6.32-6.88-16.93,1-14.85,9C27.88,82.68,31.91,77.17,41.7,78.65Z"/><path class="cls-3" d="M35.2,85.71l.39.13a8,8,0,0,0,2.15.48c.33,0,.65,0,1-.06,6-.58,9.64-7.53,8.56-13C45,61.5,41.73,58.28,41.84,52.53c-2.38,1.75-1.34,5-.52,7.53,1.88,5.63,2.31,11.08,2.94,16.9a7.78,7.78,0,0,1-3,6.47,8,8,0,0,1-3.32,1.94c-.63.11-3.12.27-3.51-.13A2.07,2.07,0,0,0,35.2,85.71Z"/><path class="cls-2" d="M42,89.22c-5,1.91-11.78,1-14.77-3.06.31,6.21,7.72,11.36,15.34,8.3,4-1.58,6.05-4.61,8.37-7.89,1.2-1.7,1.17-4.21,1.33-6.2a49.74,49.74,0,0,0,0-7.91C51.18,79.1,49,86.53,42,89.22Z"/><path class="cls-2" d="M37.71,85.34c-.88.17-2.87.57-3.74-.8-1.77-2.78,5.61-3.52,6.16-.89C40.35,84.69,38.76,85.13,37.71,85.34Z"/><path class="cls-4" d="M32.89,53.19c-.08-1-1.14-2.15-3.21-1.8,2,1,4,4.65-2.86,8a13,13,0,0,1-.51,2.4C29.16,59.37,33,54.94,32.89,53.19Z"/><path class="cls-1" d="M3.92,86.63A12.2,12.2,0,0,0,0,95.9a7.78,7.78,0,0,0,3,6.22c2,1.38,5.14,1.19,6.5-.77,1-1.46.83-3.37.62-5.11l-.6-4.89Z"/><path class="cls-3" d="M4.61,87.22l-.69-.59A12.2,12.2,0,0,0,0,95.9c0,.22,0,.44,0,.65A24.61,24.61,0,0,1,4.61,87.22Z"/><path class="cls-2" d="M7.85,98.66a5.33,5.33,0,0,1-6.36-1A9.76,9.76,0,0,1,0,95.51c0,.13,0,.26,0,.39a7.78,7.78,0,0,0,3,6.22c2,1.38,5.14,1.19,6.5-.77,1-1.42.84-3.28.63-5A5.45,5.45,0,0,1,7.85,98.66Z"/><path class="cls-1" d="M10.11,72.87a11.77,11.77,0,0,0-6.85,7.21c-1.21,3.73,1,7.87,4,10.23,5.68,4.47,13.53,1.92,14.92-4,.4-1.7,0-3.78-1.51-4.69Z"/><path class="cls-2" d="M8,87.66c-2.68-1.54-4.29-5.09-4.36-8.48-.13.29-.24.6-.34.9-1.21,3.73,1,7.87,4,10.23,7.17,5.65,16-.14,15-6.09C19.69,89.73,13,90.6,8,87.66Z"/><path class="cls-2" d="M16.27,81.72a3.12,3.12,0,0,0-2.47-1.57c-1.57-.08-3.1,1.46-2.32,3a3.86,3.86,0,0,0,2.83,2C16.61,85.42,17.43,83.74,16.27,81.72Z"/><path class="cls-3" d="M16.3,81.76a2.49,2.49,0,0,1-4.3,2c-.66,1.64,3.41,2.44,4.54,2.15C19.1,85.3,19.24,81.85,16.3,81.76Z"/><path class="cls-1" d="M15.63,62.19c-2.75,2.25-4.94,5.37-5.27,8.85a10.45,10.45,0,0,0,7.79,10.72c6.29,1.54,15.16-3.07,12.23-10.37-1.32-3.27-4.24-4.28-7.47-4.62C27.85,62.86,32.4,59.62,35.62,54a3.12,3.12,0,0,0,.58-1.88c-.12-1.06-1.41-2.23-3.65-1.59-2.85.81-5.66,3.62-7.67,5.65C22.25,58.86,18.5,59.84,15.63,62.19Z"/><path class="cls-3" d="M18.05,64.3a71.69,71.69,0,0,0,10.78-9.66c1.46-1.64,3.53-1.22,4.93.2,1-1.41,2.75-2.27,2.3-4.14a3.54,3.54,0,0,0-3.93-2.81c-1.54.35-2.43,1.9-3.12,3.29-1.1,2.2-2.4,3.26-4.13,5-2.45,2.48-6,3.89-9,5.76-2.71,1.73-3.77,3.37-4.65,6.55a11,11,0,0,0-.08,6.11C11.76,70.11,14.43,67,18.05,64.3Z"/><path class="cls-2" d="M30.77,72.21a10.7,10.7,0,0,1-8.12,7.17c-4.82.9-9.9-1.94-12.2-6a10.56,10.56,0,0,0,7.7,8.43c4.49,1.1,10.34-.81,12.33-5.17a10.48,10.48,0,0,0,.85-2.14C31.43,73.79,30.66,72.58,30.77,72.21Z"/><path class="cls-2" d="M24.23,70.17c-1.19-1.72-3.21-1.63-4-.52-.95,1.36.37,3.87,1.7,4.59a2.07,2.07,0,0,0,2.21-.08C25.15,73.37,25.12,71.45,24.23,70.17Z"/><path class="cls-4" d="M60.42,51.7a5,5,0,0,1,1.66.32,3.25,3.25,0,0,0-1.72-.38Z"/><path class="cls-1" d="M64.59,109.81c0,4.3.58,9,4.22,11.65,4.67,3.41,10.1-.06,9.26-4.11-.4-1.89-2.06-3.23-3.53-4.53s-2.92-3-2.67-4.91Z"/><path class="cls-3" d="M65.8,109.5l-1.21.31c0,3.23.26,6.39,2,9.13A27.59,27.59,0,0,1,65.8,109.5Z"/><path class="cls-2" d="M77.77,116.45c-.92-2.2-2.6-3-4.12-4.4,1.69,1.59,1.61,4.46.4,6.42a5.47,5.47,0,0,1-6.12,2.19c2.07,1.62,4.36,2.86,7.09,1.8A4.62,4.62,0,0,0,77.77,116.45Z"/><path class="cls-1" d="M58.18,99.07c-2,2.47-.9,6.28,1.21,8.36,2.4,2.35,6.73,2.95,9.84,1.83,5.42-2,8.33-8.42,6.49-12.67a5.54,5.54,0,0,0-5-3.4Z"/><path class="cls-2" d="M75.93,97.15c-.3,8.58-12.12,15-18.7,6.19,1.05,5.8,7.65,7.49,12,5.92a11,11,0,0,0,6.41-6.52A8.6,8.6,0,0,0,75.93,97.15Z"/><path class="cls-3" d="M69,98.25a3,3,0,0,0-.42,0c.3.68,1,1.14,1.13,1.92a2.43,2.43,0,0,1-1,2A4.8,4.8,0,0,1,65,103.36c.49,0,1.09.45,1.62.53a5.41,5.41,0,0,0,1.84,0,4.09,4.09,0,0,0,2.19-1.57A2.39,2.39,0,0,0,69,98.25Z"/><path class="cls-2" d="M69,102.48c1.12-1.23,1.24-3.44-.47-4.18A5.37,5.37,0,0,0,66.24,98a3.94,3.94,0,0,0-2.79.88,2.4,2.4,0,0,0-.38,2.57A3.72,3.72,0,0,0,69,102.48Z"/><path class="cls-1" d="M71.34,86.05c4.21,7-3.72,13.79-10.6,13.51-4.92-.2-9.14-3.45-9-8.51a15,15,0,0,1,1.59-5.47C57,77,58.16,65.94,57.23,56.72a13.66,13.66,0,0,1,0-4.6c.93-3.71,4.9-4.24,6.79-1.08,1.6,2.67,1,7.62,2.09,13.35,1,5.36-3.16,15.52-3.83,18.12,1-1.08,3.73-.24,4.93.21A8.13,8.13,0,0,1,71.34,86.05Z"/><path class="cls-3" d="M66,87.91c-.19-.19-.7-.38-.94-.15S65,88.9,64.54,89.3a3.73,3.73,0,0,1-1.67.62,2,2,0,0,1-1.48-.29c.49.37.72.91,1.39,1.19a2.81,2.81,0,0,0,1.8.23C65.73,90.69,67.15,89,66,87.91Z"/><path class="cls-3" d="M51.67,90.8c.29-1.32,2.1-3.12,2.79-4.36a44.14,44.14,0,0,0,2.36-4.9c3.92-9.6,5-23.26.85-32-2.53,1.16-.66,4.91-.47,6.88a69.63,69.63,0,0,1,.26,9.9,55.39,55.39,0,0,1-4.15,19.28A26.37,26.37,0,0,0,51.67,90.8Z"/><path class="cls-2" d="M71.38,86.37c-.42-1-1.44-1.53-1.85-2.36,2.38,4.86-1,10.15-4.77,11.37a11.23,11.23,0,0,1-13-4.41c-.33,9.3,13.49,11.87,19.27,3.54a6.81,6.81,0,0,0,1.36-5.25A16.68,16.68,0,0,0,71.38,86.37Z"/><path class="cls-2" d="M64.06,86.65c-1.34-1-2.55-.61-3.05,0-1,1.25.3,3.64,2.22,3.59C64.81,90.23,66.22,88.18,64.06,86.65Z"/><path class="cls-4" d="M44.63,55.15a8.51,8.51,0,0,0-.16,4.33C44.53,58,44.57,56.6,44.63,55.15Z"/><path class="cls-5" d="M25.21,48a19.37,19.37,0,0,1-15.14,5.14c-1.45-.16-3.13-.4-4.17.59-1.22,1.16-.64,3.26.56,4.43,2.58,2.53,6.85,2.3,10.35,1.27a31.5,31.5,0,0,0,11.66-6.34c3.64-3.14,4.93-9.09.42-7.85C27.36,45.68,26.3,47,25.21,48Z"/><path class="cls-6" d="M29,52.52c-3.49,2.67-8,4.44-11.9,4.39a18.91,18.91,0,0,1-6.27-.86A6.71,6.71,0,0,1,7,53.17a2.4,2.4,0,0,0-1.06.58c-1.22,1.16-.64,3.26.56,4.43C12.52,64.12,27.22,55.2,29,52.52Z"/><path class="cls-5" d="M40.68,73.52a27.21,27.21,0,0,0,6.73-21c-.53-4.41-5-3.38-6.5-.11a1.53,1.53,0,0,0-.09.74c.18,4.62-2.62,9.38-5.37,13-1.14,1.5-1.37,2.72-1.66,5.39C33.36,75.3,36.79,77.92,40.68,73.52Z"/><path class="cls-6" d="M44.54,64.65C43.14,66.74,41,70.58,38,70.43a3.6,3.6,0,0,1-3.51-2.57,15.84,15.84,0,0,0-.66,3.6c-.21,1.82.56,4,2.5,4.32,1.73.28,3.27-1,4.39-2.26a27.64,27.64,0,0,0,6.59-14A29.24,29.24,0,0,1,44.54,64.65Z"/><path class="cls-5" d="M48.33,71.86c-1.48,10.6,8.5,12.51,9,7.47a9.55,9.55,0,0,0-.3-2.76c-2-10.21,2.65-16.52-1.11-23.82-1.26-2.44-8-5.72-6.38-.6C52.14,60.48,49.13,66.16,48.33,71.86Z"/><path class="cls-6" d="M56.34,72.88c-.74,5.68-5.22,5.81-7,2.64a11.63,11.63,0,0,1-1-3.93c-.72,2-.12,7.78,3.66,9.79,2.09,1.11,5.13.67,5.4-2C57.54,77.16,56.07,75,56.34,72.88Z"/><path class="cls-5" d="M58.57,53.46C58.84,58.13,59.7,62.87,62,67c3.79,6.65,8.9,5,10.14,2.77,1.86-3.31-2-6.88-3.42-8.58-5.55-6.92-2.67-12.55-6.56-13.36A3.07,3.07,0,0,0,59,49.64,7.71,7.71,0,0,0,58.57,53.46Z"/><path class="cls-6" d="M70.21,62.86c-.37,6.27-7.4,6.81-10.76-2.83,0,.4,2,9.32,7,11.29,2,.78,4.64.26,5.67-1.59C73.49,67.38,71.87,64.79,70.21,62.86Z"/><path class="cls-5" d="M72.94,66c0,2.07-.47,4.6,1.26,5.8,2.46,1.7,5.12-1.13,5.66-3.3a17,17,0,0,0-5.1-16.61c-2.27-2.09-7.16-7-9.51-4.92a2.29,2.29,0,0,0-.55,2.35C65.45,52,73.11,58.34,72.94,66Z"/><path class="cls-6" d="M77.68,55.4c3.3,8.49-1.62,16.21-4.82,12.74,0,1.46.18,2.87,1.34,3.68,2.46,1.7,5.12-1.13,5.66-3.3A16.85,16.85,0,0,0,77.68,55.4Z"/><path class="cls-5" d="M74.61,49.48C76.67,55.42,85,56.59,88,62c.72,1.32,1.38,3.07,2.91,3.21,2.75.24,5.85-6.72-.75-11.64-3.35-2.5-7.28-3.94-10.46-6.7A10.23,10.23,0,0,0,78,45.64C75.5,44.24,73.64,46.68,74.61,49.48Z"/><path class="cls-6" d="M92.6,56.21c-.66-1.22-1.75-1.8-2.55-2.82,1.24,1.57,2.51,3.52,1.78,5.52-.82,2.26-3.76,2.66-5.94.27l-.2.07A10.25,10.25,0,0,1,88,62c.72,1.32,1.38,3.07,2.91,3.21,2.48.21,3.53-3.77,3-5.51A17.93,17.93,0,0,0,92.6,56.21Z"/><path class="cls-5" d="M37.72,49.7c.93,1.45,1.55,3.06.71,4.56-2.83,5-6.1,8.77-6.85,14.73-.3,2.32.14,9-3.89,7.57-2.06-.74-3.52-4.53-3.63-6.47-.44-7.77,5.56-17.84,10.12-21.16a2.63,2.63,0,0,1,2-.52C37,48.5,37.31,49.06,37.72,49.7Z"/><path class="cls-6" d="M31.58,69c-.94,3.27-3.13,3.87-4.33,3.34-2.16-.94-2.65-5.22-2.69-7.49a13.79,13.79,0,0,0-.5,5.25c.11,1.94,1.57,5.73,3.63,6.47C32,78.1,31,71,31.58,69Z"/><path class="cls-7" d="M16,41.6C8.39,30.5,37.69-12.73,64.51,3.67,74.68,9.89,89.15,27.76,85.91,40S55.85,54.68,46.33,53.59,22.84,51.66,16,41.6Z"/><path class="cls-8" d="M52.57,4.7l1.57,0c1.84,0,3.6-.29,5.47-.07,4,.45,9.25,2,12.2,4.81a44.6,44.6,0,0,0-7.3-5.8C54.34-2.55,41.34-.46,30.43,9.26,23.32,15.59,17.48,24.68,15.48,32A68.19,68.19,0,0,1,28.4,15.6,42.62,42.62,0,0,1,40.26,7a25,25,0,0,1,7.13-2A41.35,41.35,0,0,1,52.57,4.7Z"/><path class="cls-9" d="M74.24,43.22C55.45,54.54,20.8,51.09,15.65,31.08c-.48,3.47-1.87,7.31.32,10.52,6.87,10.06,20.85,10.9,30.36,12S82.66,52.32,85.91,40c1-3.34,0-6.4-.38-9.7C84,36.68,79.48,40.06,74.24,43.22Z"/><path class="cls-9" d="M50.75,22.72c.14,4.8,3.54,8.59,7.6,8.47s7.23-4.1,7.08-8.89-3.54-8.59-7.59-8.47S50.61,17.93,50.75,22.72Z"/><path class="cls-9" d="M37,23.72c.13,4.3,3.18,7.71,6.79,7.62s6.44-3.67,6.3-8-3.18-7.71-6.79-7.62S36.85,19.42,37,23.72Z"/><path class="cls-10" d="M50.63,21.47c.14,4.8,3.54,8.59,7.59,8.47s7.23-4.1,7.09-8.89-3.54-8.59-7.6-8.47S50.48,16.68,50.63,21.47Z"/><path class="cls-11" d="M56,26.74a7.75,7.75,0,0,0,8.7-1.9c-3,8.14-13.38,6-14-2.91C50.93,22.34,52.43,25.86,56,26.74Z"/><path class="cls-10" d="M36.86,22.47c.14,4.3,3.18,7.71,6.8,7.62s6.43-3.67,6.3-8-3.18-7.71-6.8-7.62S36.73,18.17,36.86,22.47Z"/><path class="cls-11" d="M48.74,26.91c-3.9,6.44-12.64,2.35-11.84-5.67C39.53,26.67,44.06,29.89,48.74,26.91Z"/><path class="cls-12" d="M44.67,25c2.93-.59,3.27-5.24.51-5.8-.35-.07-.78,2.75-1.15,2.82s-1.26-2.56-1.53-2.38A3,3,0,0,0,44.67,25Z"/><path class="cls-12" d="M53.83,21.63a3,3,0,0,0,3.3,2.58c3.36-.38,3.12-5.24.57-5.8-.3-.06-.91,2.65-1.23,2.69s-1-2.86-1.33-2.65A3.42,3.42,0,0,0,53.83,21.63Z"/><path class="cls-13" d="M30.05,29.16l.28.62a14.28,14.28,0,0,0,2.08,3.34,17.88,17.88,0,0,0,3.33,3.07c5.12,3.67,12.93,5.15,19.17,4.55a22.43,22.43,0,0,0,12.3-5s.65-.57.69-.6A16.18,16.18,0,0,0,73.31,22a.15.15,0,0,1,.3,0,15.5,15.5,0,0,1-4,13.13,22.29,22.29,0,0,1-14.52,7.06c-7.18.72-19.36-1.34-24.34-10.49A10.06,10.06,0,0,1,30,29.91c-.15-.43-.34-.75-.12-.83A.16.16,0,0,1,30.05,29.16Z"/><path class="cls-14" d="M24.2,38.32A1.86,1.86,0,0,0,24.09,41a2,2,0,0,0,2.75,0A1.88,1.88,0,0,0,27,38.35,2,2,0,0,0,24.2,38.32Z"/><path class="cls-14" d="M22.21,35.7c.84.86,2.32-.5,1.47-1.37S21.37,34.83,22.21,35.7Z"/><path class="cls-14" d="M26.2,32.63a1.33,1.33,0,1,0,2-1.81A1.33,1.33,0,1,0,26.2,32.63Z"/><path class="cls-14" d="M79.27,30.07A1.54,1.54,0,1,0,81.53,28,1.54,1.54,0,1,0,79.27,30.07Z"/><path class="cls-14" d="M77,38.61c.43,1.29,2.61.35,1.5-.8C77.85,37.12,76.69,37.63,77,38.61Z"/><path class="cls-14" d="M82.69,35.92a1.33,1.33,0,0,0-1.53-2.13C79.81,34.54,81.17,37.33,82.69,35.92Z"/></g></g></g></svg>