<svg xmlns="http://www.w3.org/2000/svg" viewBox="0 0 121.32 145.78"><defs><style>.cls-1{fill:#e48742;}.cls-2{fill:#d27228;}.cls-3{fill:#f9dfc7;}.cls-4{fill:#f0c5a1;}.cls-5{fill:#ffab66;}.cls-6{fill:#ffa861;}.cls-7{fill:#f9ece0;}.cls-8{fill:#a16447;}.cls-9{fill:#4d2512;}.cls-10{fill:#73412c;}.cls-11{fill:#fff;}.cls-12{fill:#e6e1da;}.cls-13{fill:#402315;}</style></defs><g id="Слой_2" data-name="Слой 2"><g id="animal"><g id="kangaroo"><path class="cls-1" d="M98.49,8.45a28.16,28.16,0,0,1,4.74-5.08C106,1.18,111.67-2.15,114,1.92c1.54,2.71.92,6.74.63,9.69-.55,5.71-2.63,13-8.18,16.27-6.18,3.61-14.28,1.28-14.17-6.37.06-4,2.35-7.62,4.7-11C97.45,9.85,98,9.14,98.49,8.45Z"/><path class="cls-2" d="M92.26,21.51c.06-3.92,2.27-7.5,4.58-10.79-.44,5.24,1.3,11,5.88,13.69a8.4,8.4,0,0,0,6.93.75,12.59,12.59,0,0,1-3.22,2.72C100.25,31.49,92.15,29.16,92.26,21.51Z"/><path class="cls-3" d="M108.64,4.78c1.3-1.49,2.64-2.24,3.69-1.11A3.62,3.62,0,0,1,113,6.28a37.51,37.51,0,0,1-1.37,10.61c-.72,2.33-7.4,14.34-10.07,8-1.44-3.43.37-8.53,1.51-11.7A45.65,45.65,0,0,1,108.64,4.78Z"/><path class="cls-4" d="M111.57,4.61a21.8,21.8,0,0,0-4.3,5.74c-2.55,4.47-5,9.61-5.58,14.87,0-.1-.1-.2-.15-.32-1.44-3.43.37-8.53,1.51-11.7a45.65,45.65,0,0,1,5.59-8.42c1.3-1.49,2.64-2.24,3.69-1.11a2.23,2.23,0,0,1,.19.24A6.61,6.61,0,0,0,111.57,4.61Z"/><path class="cls-5" d="M93.79,79.36a41.15,41.15,0,0,0,5.79,5.79,1.63,1.63,0,0,0,.59,1.28c2.46,2.06,5.13,4.14,7.64,6.39.41.47.81,1,1.21,1.44l-.57-.13c-1.67-1.31-3.51-2.39-5.38-3.67a28.62,28.62,0,0,1-8.4-8.33,7.67,7.67,0,0,1-1.13-2.61,6.18,6.18,0,0,1-.08-.8A2,2,0,0,0,93.79,79.36Z"/><path class="cls-1" d="M112.8,95.45a10.28,10.28,0,0,0-1.23-1.74c-2.71-2.92-5.93-4.2-9.33-6A28.85,28.85,0,0,1,93,80.24a7.62,7.62,0,0,1-1.38-2.49c-.45-1.54-.33-4.11.89-5.28a4,4,0,0,1,3.16-.93,9.77,9.77,0,0,1,3.21,1,43.14,43.14,0,0,1,15.92,12.33c1.11,1.46,2.36,2.8,3.47,4.27,1.33,1.77,3,3.9,3,6.21a1.25,1.25,0,0,1-.73,1.25,1.23,1.23,0,0,1-1.18-.3,3.76,3.76,0,0,1-.74-1,2,2,0,0,1,.4,2,1.18,1.18,0,0,1-.55.72,1.16,1.16,0,0,1-1.28-.25,3.35,3.35,0,0,1-.75-1.17,1.66,1.66,0,0,1,.21,1.21c-.26,1-1.39,1-2.07.41A10.64,10.64,0,0,1,112.8,95.45Z"/><path class="cls-2" d="M92.54,72.47a4,4,0,0,1,3.16-.93,9.77,9.77,0,0,1,3.21,1,47.49,47.49,0,0,1,11,7.09,48.79,48.79,0,0,0-10.48-6A2,2,0,0,0,96.66,76,1.68,1.68,0,0,0,96.9,78c.43.52.88,1,1.34,1.49A1.73,1.73,0,0,0,99,80.93c.87.66,1.79,1.3,2.73,1.95a1.83,1.83,0,0,0,.63,1.93c2.56,2.21,5.18,4.36,7.93,6.33.55.4,1.18.68,1.69,1.12s1.1,1.09,1.66,1.62a16,16,0,0,0,3.53,2.75,3.27,3.27,0,0,0,2,.36,2.46,2.46,0,0,1-.07.29,1.18,1.18,0,0,1-.55.72,1.16,1.16,0,0,1-1.28-.25,2.68,2.68,0,0,1-.61-.88,1.53,1.53,0,0,1,.07.92c-.26,1-1.39,1-2.07.41a10.64,10.64,0,0,1-1.83-2.75,10.28,10.28,0,0,0-1.23-1.74c-2.71-2.92-5.93-4.2-9.33-6A28.85,28.85,0,0,1,93,80.24a7.62,7.62,0,0,1-1.38-2.49C91.2,76.21,91.32,73.64,92.54,72.47Z"/><path class="cls-6" d="M119.27,92.51a8.47,8.47,0,0,1,1.94,2.8h.11c-.11-2.28-1.71-4.39-3-6.13-1.11-1.47-2.36-2.81-3.47-4.27A43.14,43.14,0,0,0,98.91,72.59a9.77,9.77,0,0,0-3.21-1,4,4,0,0,0-3.16.93,4.19,4.19,0,0,0-1.07,2.46,1.58,1.58,0,0,1,2-.91,30.62,30.62,0,0,1,11.81,6.46,55.82,55.82,0,0,1,8.13,5.76,37.78,37.78,0,0,1,3.5,3.43c.54.61,1,1.25,1.54,1.89C118.72,91.89,119,92.2,119.27,92.51Z"/><path class="cls-1" d="M78.42,129.09c-1.7-1.84-2.14-4.43-2.19-6.88a30.14,30.14,0,0,1,8.24-21.16c3.81-4,10.84-8.6,16.31-4.57a12,12,0,0,1,4.1,6.64c2.15,7.81.08,13.79-3.92,20.33a26.84,26.84,0,0,1,13.25,3,7,7,0,0,1,2.74,2.16c.66,1,1,2.94-.22,3.7s-2.76-.8-3.44-1.78c.61.88,1.53,2.53.95,3.64s-2.46,1.13-3.42.63a4.42,4.42,0,0,1-1.94-2.25,2.81,2.81,0,0,1-3.16,3.36c-3-.69-3.61-3.72-6.85-4.09a63.56,63.56,0,0,0-11,0C84.5,132,80.68,131.53,78.42,129.09Z"/><path class="cls-2" d="M113.64,131a2.09,2.09,0,0,0-.34-.85,1.88,1.88,0,0,0,.24-.25,7,7,0,0,0,4,.22,2.13,2.13,0,0,1-.77,2.2C115.7,132.92,114.42,131.88,113.64,131Z"/><path class="cls-2" d="M84.47,101.05c3.81-4,10.84-8.6,16.31-4.57a12,12,0,0,1,4.1,6.64c2,7.19.38,12.84-3,18.79a35.56,35.56,0,0,1-3.73-.19l-.39,0-.27-.05-.87-.17a14.55,14.55,0,0,1-2-.56l-.22-.08-.18-.1-.43-.25-.29-.24c-2.91-4.55-10-.45-7.28,4.29,1.51,2.63,4.28,4.12,7.17,4.88a2.06,2.06,0,0,0,.74.19c.52.11,1,.21,1.57.28l1.24.16c2.49.61,4.87,1.66,7.42,2.07a8.39,8.39,0,0,0,4.23-.13,7.19,7.19,0,0,0,3.29,1.06,1.66,1.66,0,0,0,1.81-2c.54.91,1.06,2.17.59,3.07-.6,1.13-2.46,1.13-3.42.63a4.42,4.42,0,0,1-1.94-2.25,2.81,2.81,0,0,1-3.16,3.36c-3-.69-3.61-3.72-6.85-4.09a63.56,63.56,0,0,0-11,0c-3.42.22-7.24-.22-9.5-2.66-1.7-1.84-2.14-4.43-2.19-6.88A30.14,30.14,0,0,1,84.47,101.05Z"/><path class="cls-1" d="M16.45,130.94c-3-.92-18.53-6.83-16.21-11.85,1.58-3.42,10.48-1.65,13.34-1.91,9.2-.84,21.43-2.76,28.42-9.44C45.92,104,47.82,97,49.53,92c1.81-5.3,3.43-10.71,6-15.71,3.1-6,7.46-11.27,11.17-16.92,3.48-5.3,5-10.67,7.28-16.43a11.17,11.17,0,0,1,5.41-6.23c4.14-1.85,11.49,1.31,14.3,4.53,3.23,3.7,4.55,9.22,4.45,14-.11,5.14-.72,9.4,1,14.43,1.33,3.79,3,7.46,4.46,11.21,1.32,3.51,1.85,7.21,3.1,10.73a53.69,53.69,0,0,1,3.15,11.6c1.64,13.73-8.11,23.74-21,26.62a38.48,38.48,0,0,1-16.34-.21c-5.86-1.15-11.81-3.44-17.85-2.21-3.22.65-6.14,2.27-9.18,3.51C37.08,134.41,25,133.53,16.45,130.94Z"/><path class="cls-2" d="M96.63,55.57C96,51.89,94.27,48,89.84,48.23a13.14,13.14,0,0,0-2.69.43c.26-4.1-.06-8.76-2.36-12.21a17.61,17.61,0,0,1,8.91,4.8c3.23,3.7,4.55,9.22,4.45,14l0,1.11A4,4,0,0,0,96.63,55.57Z"/><path class="cls-2" d="M77.35,51.63l0,.13a8.25,8.25,0,0,0-.53-.86,33.79,33.79,0,0,0,1-3.72c0,1-.09,2-.21,3C77.48,50.63,77.43,51.13,77.35,51.63Z"/><path class="cls-2" d="M.24,119.09a2.3,2.3,0,0,1,.51-.72c2.06,5.6,10,7.64,15.32,9.38,10.38,3.41,22.57,2.34,31.51-3.5A19.4,19.4,0,0,0,53,122.33c.66-.32,1.32-.67,2-1,0,0,1.21-.41,1.26-.42a14.3,14.3,0,0,1,1.83-.43c4.07-.65,9.15.76,13.46,1.29,8.35,1,18,2,25.42-2.84a22.58,22.58,0,0,0,9.58-12.1c.25-.81.46-1.63.66-2.46.48-1,.94-2.12,1.39-3.19.23-.53.44-1.06.64-1.6a31.9,31.9,0,0,1,.66,3.64c1.64,13.73-8.11,23.74-21,26.62a38.48,38.48,0,0,1-16.34-.21c-5.86-1.15-11.81-3.44-17.85-2.21-3.22.65-6.14,2.27-9.18,3.51-8.46,3.44-20.51,2.56-29.09,0C13.4,130-2.08,124.11.24,119.09Z"/><path class="cls-6" d="M71.12,50.6A40,40,0,0,0,72.92,44c-.06.3.85,1.55,1,1.91a10.14,10.14,0,0,1,.56,2.36,10.27,10.27,0,0,1-1,4.36c-2.19,5.55-6,10.3-9.73,15A31.23,31.23,0,0,0,59.84,73c-3.09,6.21-4.57,13-6.44,19.67-.83,3-2,5.67-3,8.55a20.92,20.92,0,0,1-4.94,7.88c-.44.45-.9.88-1.37,1.28a31.73,31.73,0,0,1-12.42,6.33,65.6,65.6,0,0,1-8,1.75c-2.36.34-4.68.26-7,.56-2.86.37-5.71-.26-8.54-.62a22.71,22.71,0,0,0-4.36-.18c-.77,0-1.89.32-2.55-.14,1-1.41,4.52-1.16,6-1.14a58,58,0,0,0,6.32.23c9.2-.84,21.43-2.76,28.42-9.44C45.92,104,47.82,97,49.53,92c1.81-5.3,3.43-10.71,6-15.71C59.75,68.12,66.42,61.48,70.15,53,70.5,52.23,70.82,51.42,71.12,50.6Z"/><path class="cls-3" d="M78.56,130.18a32.34,32.34,0,0,0,10.92-2.08c6-2,12.18-4.84,16-10,11.85-15.9-1.12-36.8-8.72-51.7a14.7,14.7,0,0,0-3.12-4.59,5,5,0,0,0-5.16-1.11C86,61.88,84,67.1,82.64,69.41a53.26,53.26,0,0,0-5.33,11.88A53.83,53.83,0,0,0,75,99.82c.13,2.45.85,4.76-.23,7a20.29,20.29,0,0,1-5.49,6.32,48.75,48.75,0,0,0-3.93,3.07,5.9,5.9,0,0,0-2,4.39,6.84,6.84,0,0,0,2.47,4.32A19.54,19.54,0,0,0,78.56,130.18Z"/><path class="cls-3" d="M79.71,124.75c3.89,2.36,10.46,4.33,14.87,2.34a29.35,29.35,0,0,0,10.89-8.4c9.25-12.42,3-30.26-3.17-42.71C100,71.35,96.92,62.31,91.16,61c-4.16-.91-7.52,3.9-9.67,6.76A49.36,49.36,0,0,0,74.3,81.72c-2.9,8.48-4,17.33-4.9,26.15a13.12,13.12,0,0,0,1.23,6.55A24.41,24.41,0,0,0,79.71,124.75Z"/><path class="cls-4" d="M69.4,107.87c.89-8.82,2-17.67,4.9-26.15A49.36,49.36,0,0,1,81.49,67.8c.77-1,1.71-2.31,2.77-3.49-.58,1.14-1.1,2.32-1.58,3.5s-.9,2.38-1.31,3.59c-.35.68-.69,1.35-1,2A53.83,53.83,0,0,0,76.8,84c-1.7,7.28-2,15-2,22.49a74.78,74.78,0,0,0,1.15,14.72l.15.74a24.16,24.16,0,0,1-5.43-7.51A13.12,13.12,0,0,1,69.4,107.87Z"/><path class="cls-7" d="M85.33,126.61c.17-.48.33-1,.46-1.48.09-.15.19-.31.27-.47l.2.17a15,15,0,0,0-.05,2Z"/><path class="cls-7" d="M87.94,101.33c0-.64.07-1.28.11-1.93,0,.51,0,1-.07,1.52C88,101.06,88,101.2,87.94,101.33Z"/><path class="cls-7" d="M102.65,84.68a100.85,100.85,0,0,0-8.16-21.27,1.73,1.73,0,0,0-2.24-.88,20.92,20.92,0,0,0-1.09-2C96.92,61.76,100,70.8,102.3,75.43c6.17,12.45,12.42,30.29,3.17,42.71-.29.39-.61.77-.94,1.15C108.33,107.91,106.91,95.82,102.65,84.68Z"/><path class="cls-7" d="M80.08,111.79c0-.15,0-.31-.08-.46q.12-.56.21-1.08l-.12,1.31C80.09,111.64,80.08,111.72,80.08,111.79Z"/><path class="cls-1" d="M89,104.94a4,4,0,0,1-1.9-3.7,7.42,7.42,0,0,1,3.85-6,10.15,10.15,0,0,1,7.85-.81,9.11,9.11,0,0,1,5.65,4.89,2.76,2.76,0,0,1,.13,2.42,4.29,4.29,0,0,1-2.46,1.59c-3.37,1.19-6.88,2.31-10.5,2.21A5.76,5.76,0,0,1,89,104.94Z"/><path class="cls-1" d="M83.7,131.39c6.33-.46,12.76-2.25,17.9-5.84,5.5-3.82,9.9-9.84,10.68-16.74.27-2.44.44-8.9-1.72-10.66-2.33-1.91-8.09,2.43-10.42,3.53a29.33,29.33,0,0,1-13.92,3.2c-1.8-.1-3.66-.4-5.36.17-6,2-9.62,11.76-10,17.36-.17,2.86.4,6.08,2.72,7.74a9.39,9.39,0,0,0,5.3,1.34A44.84,44.84,0,0,0,83.7,131.39Z"/><path class="cls-5" d="M110.94,108.67a6.7,6.7,0,0,0-.54-2.85c-.76-1.83-3.14-4.92-5.47-4a50.89,50.89,0,0,1-9.3,2.91c-2.94.48-5.68,1.6-8.75,1.27-.06,0-1.29-.23-1.24-.22l-1.85-.38c-.78-.16-1.55-.33-2.32-.47a18,18,0,0,1,4.75,0,29.33,29.33,0,0,0,13.92-3.2c2.33-1.1,8.09-5.44,10.42-3.53,2.16,1.76,2,8.22,1.72,10.66a21.09,21.09,0,0,1-2.2,7.19A20.57,20.57,0,0,0,110.94,108.67Z"/><path class="cls-5" d="M72.14,116.38a20.13,20.13,0,0,0,3.29,1.9,7,7,0,0,0-.05,1.3A28.33,28.33,0,0,0,72.69,123a5.65,5.65,0,0,0,2,7.69l.25.13a5.77,5.77,0,0,1-1.32-.7c-2.32-1.66-2.89-4.88-2.72-7.74A24.75,24.75,0,0,1,72.14,116.38Z"/><path class="cls-2" d="M71.16,120.31a20.81,20.81,0,0,0,7.56,4.36,31.23,31.23,0,0,0,15.12,1.41c6.4-1.06,12.18-5,16.24-10.09a26.57,26.57,0,0,1-8.48,9.56c-5.14,3.59-11.57,5.38-17.9,5.84a44.84,44.84,0,0,1-4.77.1,9.39,9.39,0,0,1-5.3-1.34c-2.32-1.66-2.89-4.88-2.72-7.74A18.93,18.93,0,0,1,71.16,120.31Z"/><path class="cls-1" d="M49.19,132.81a6.79,6.79,0,0,1-.64-5,33,33,0,0,1,1.62-4.8c1.27-3.59,1.69-7.39,2.51-11.1s2.1-7.45,4.77-10.26a14.42,14.42,0,0,1,9.42-4.37,14.75,14.75,0,0,1,10,3.06c4.77,3.76,6.44,10.26,5.38,16s-4.48,10.94-8.44,15.44c4.09.63,9.26,2.36,12.55,4.9a6.08,6.08,0,0,1,2.38,3.11,2.75,2.75,0,0,1-1.5,3.3c-1.71.56-2.72-1.1-3.36-2.4.45.93.81,2.3.11,3.19a2.37,2.37,0,0,1-4.13-2.16,7.55,7.55,0,0,1-.61,2.44,2.63,2.63,0,0,1-1.9,1.52,3,3,0,0,1-2.75-1.67C73.31,142,73,141,70.56,140a30,30,0,0,0-6.92-1.82C59.08,137.38,51.66,136.94,49.19,132.81Z"/><path class="cls-6" d="M74.38,131.2l-.6.06c.19-.38.37-.76.57-1.14.57-1.07,1.15-2.13,1.69-3.22a25.24,25.24,0,0,0,2.58-7.27,17.37,17.37,0,0,0-4.69-14.35c-3.35-3.69-8.23-6.45-13.37-5.88l-.32,0a14.58,14.58,0,0,1,16.63.93c4.77,3.76,6.44,10.26,5.38,16C81.24,121.92,78.1,126.86,74.38,131.2Z"/><path class="cls-5" d="M77.41,145.37l.83,0a2.06,2.06,0,0,1-.89.34,2.34,2.34,0,0,1-1.75-.54C76.2,145.28,76.8,145.33,77.41,145.37Z"/><path class="cls-2" d="M84.43,141.37a1.9,1.9,0,0,0-.22-.87l.16,0a4.07,4.07,0,0,0,1.67,1,2.67,2.67,0,0,0,1.12.15,4.28,4.28,0,0,0,1.62-.39,2.45,2.45,0,0,1-1.54,2c-1.31.43-2.21-.44-2.85-1.46A1.37,1.37,0,0,0,84.43,141.37Z"/><path class="cls-2" d="M48.55,128a33,33,0,0,1,1.62-4.76c0-.09,0-.18.08-.26a13.52,13.52,0,0,0,.59,2c2.79,7.14,9,10.35,16.26,11.78,2.76.54,5.17,2.27,7.42,3.94,1.37,1,2.64,2.07,4.44,1.56a2,2,0,0,0,.91-.52,4.15,4.15,0,0,0,.42.57,2.7,2.7,0,0,0,.86.67,3.19,3.19,0,0,0,1.93.24A1.68,1.68,0,0,0,84.31,142,2.31,2.31,0,0,1,84,144a2.48,2.48,0,0,1-2.83.7,2.43,2.43,0,0,1-1.39-2.19,6,6,0,0,1-.52,1.77,2.64,2.64,0,0,1-1.9,1.51,3,3,0,0,1-2.75-1.65c-1.29-2.09-1.59-3-4-4.09a30,30,0,0,0-6.92-1.81c-4.56-.77-12-1.2-14.45-5.29A6.72,6.72,0,0,1,48.55,128Z"/><path class="cls-5" d="M82.76,136.09c-.29-.18-.59-.35-.89-.51a39.7,39.7,0,0,0-4.23-2A30.78,30.78,0,0,1,74,132.24c1.64-.53,4.1.56,5.62,1.09a23.52,23.52,0,0,1,6.73,3.43,6.08,6.08,0,0,1,2.38,3.11,3.14,3.14,0,0,1,.06,1.26A21,21,0,0,0,82.76,136.09Z"/><path class="cls-1" d="M71,100.87a10.51,10.51,0,0,0,.24-2.16c-.06-4.06-1.64-7.23-3-10.94a29.4,29.4,0,0,1-1.92-11.92A7.84,7.84,0,0,1,67,73c.71-1.47,2.55-3.34,4.27-3.4a4.08,4.08,0,0,1,3,1.44A10.38,10.38,0,0,1,76,74a44.33,44.33,0,0,1,3.69,20.22c-.16,1.86-.12,3.74-.28,5.6-.2,2.25-.42,5-1.94,6.79a1.14,1.14,0,0,1-2.1-.59,3.71,3.71,0,0,1,.14-1.28,2.1,2.1,0,0,1-1,1.76,1.27,1.27,0,0,1-.91.17,1.21,1.21,0,0,1-.8-1.07,3.58,3.58,0,0,1,.23-1.4,1.7,1.7,0,0,1-.67,1.07c-.89.6-1.72-.21-1.85-1.1A10.9,10.9,0,0,1,71,100.87Z"/><path class="cls-2" d="M70.79,88.57a31.45,31.45,0,0,1,1.38,6.58c.31,2.26.36,4.78,1.21,6.9.47,1.2,1.34,3,2.65,3.7a2.25,2.25,0,0,0,1,.41,1.86,1.86,0,0,0,.7.14l-.27.35a1.14,1.14,0,0,1-2.1-.59,3.21,3.21,0,0,1,0-.62,2.12,2.12,0,0,1-.9,1.1,1.27,1.27,0,0,1-.91.17,1.21,1.21,0,0,1-.8-1.07,2.73,2.73,0,0,1,.14-1.09,1.57,1.57,0,0,1-.58.76c-.89.6-1.72-.21-1.85-1.1a10.9,10.9,0,0,1,.49-3.34,10.51,10.51,0,0,0,.24-2.16c-.06-4.06-1.64-7.23-3-10.94a29.72,29.72,0,0,1-1.93-11.7C67.35,80.37,69.26,84.43,70.79,88.57Z"/><path class="cls-6" d="M77.62,92.77a38.9,38.9,0,0,0-2.29-11.33c-.6-4-1.65-9.14-4.74-11.73a2.84,2.84,0,0,1,.64-.1,4.08,4.08,0,0,1,3,1.44A10.38,10.38,0,0,1,76,74a44.33,44.33,0,0,1,3.69,20.22c-.16,1.86-.12,3.74-.28,5.6-.19,2.16-.4,4.77-1.77,6.57A39.91,39.91,0,0,0,77.62,92.77Z"/><path class="cls-2" d="M96.4,98.67a1.85,1.85,0,0,0-1.19.71,2.94,2.94,0,0,1,.93-2.66.76.76,0,0,1,.19-.12A20.26,20.26,0,0,1,96.4,98.67Z"/><path class="cls-2" d="M89.33,97.72a2,2,0,0,1,.13,1.88,7.13,7.13,0,0,1-.29.69A15.57,15.57,0,0,1,89.33,97.72Z"/><path class="cls-1" d="M104.34,99.41a10.67,10.67,0,0,1,.58,4.83,6.66,6.66,0,0,1-2.5,4.44,2.57,2.57,0,0,1-2.3.56,2.51,2.51,0,0,1-1.25-2.82,22.11,22.11,0,0,0,.67-3.08,8.85,8.85,0,0,0-1.31-3.61c-.52-1.12-.78-2.49,0-3.42a3.14,3.14,0,0,1,3.82-.2A6,6,0,0,1,104.34,99.41Z"/><path class="cls-2" d="M98.87,106.42a6.6,6.6,0,0,1,.17-.77,2.32,2.32,0,0,0,4.06.72c1.82-2.6,1.35-6,.31-8.93a8.27,8.27,0,0,1,.93,2,10.67,10.67,0,0,1,.58,4.83,6.66,6.66,0,0,1-2.5,4.44,2.57,2.57,0,0,1-2.3.56A2.51,2.51,0,0,1,98.87,106.42Z"/><path class="cls-1" d="M87.36,109.09a3.12,3.12,0,0,1-1.4-2.44,17.25,17.25,0,0,1-.45-4.63,6.73,6.73,0,0,1,1.78-4.27,3.65,3.65,0,0,1,1.92-1.13,2.29,2.29,0,0,1,2.13.59,2.09,2.09,0,0,1,.19,2.12c-.27.7-.71,1.34-.92,2a7.43,7.43,0,0,0,.13,3.31,4.94,4.94,0,0,1-.25,3.27A2.56,2.56,0,0,1,87.36,109.09Z"/><path class="cls-2" d="M85.51,102a7.22,7.22,0,0,1,1-3.19,20.93,20.93,0,0,0-.11,7c.43,2.63,4.65,1.48,4.27-1.09a12.17,12.17,0,0,1-.13-1.59c0,.52.16,1.05.24,1.56a4.94,4.94,0,0,1-.25,3.27,2.56,2.56,0,0,1-3.13,1.13,3.12,3.12,0,0,1-1.4-2.44A17.25,17.25,0,0,1,85.51,102Z"/><path class="cls-1" d="M84.32,25.77A54.23,54.23,0,0,0,76.82,30c-7.7,5.05-5,16.36-.11,22.7C80.39,57.49,91.86,69,100.83,69.6a10.2,10.2,0,0,0,1.75,0c7.3-.15,10.7-7.64,10.63-14.1.1-.67.22-1.32.33-2,1.65-9.94-.93-21-9-26.68C97.71,22.05,90.84,22.84,84.32,25.77Z"/><path class="cls-5" d="M74.48,48.77l-.1-.07a3.05,3.05,0,0,1-.6-1.05,22.27,22.27,0,0,1-1.58-5.53c-.53-3.58,0-7.44,2.46-10.25-1.87,5.43-1,11.84.56,17.19C75.3,49.34,74.71,48.94,74.48,48.77Z"/><path class="cls-5" d="M108.93,35c-3.63-5.25-9.28-9.13-15.78-9.63a31.1,31.1,0,0,0-9.76.83l.93-.43c6.52-2.93,13.39-3.72,20.2,1,7.93,5.54,10.57,16.32,9.1,26.11,0-.14,0-.27-.05-.41A28.59,28.59,0,0,0,108.93,35Z"/><path class="cls-2" d="M80.35,56.83a.69.69,0,0,1,.08-.28,40.46,40.46,0,0,1,6,3.59c1.29.86,2.91.91,4.4,1.24a25.23,25.23,0,0,0,6.75.55c.56,0,1.12-.08,1.68-.14,4.89-.47,10.86-1.06,13.77-5.87.63,6.34-3.26,12.75-9.88,13.48a11.45,11.45,0,0,1-1.56.13,17.41,17.41,0,0,1-7.86-2.18,45.35,45.35,0,0,1-8.21-5.65C84.69,61,80.28,58.26,80.35,56.83Z"/><path class="cls-2" d="M98,42.14c1,4.54-1,8.8-4.43,9.53s-7-2.38-7.91-6.91,1-8.8,4.43-9.52S97,37.61,98,42.14Zm4.77-8.33c-3.12.66-4.93,4.57-4,8.72s4.12,7,7.23,6.33,4.93-4.56,4-8.72S105.86,33.15,102.75,33.81Z"/><path class="cls-3" d="M96.92,50a19.18,19.18,0,0,0-8.28,6.81c-1.12,1.52-2,3.48-1.37,5.27a6.8,6.8,0,0,0,3,3.27c3.29,2.1,7,4.07,10.82,4.09a11.42,11.42,0,0,0,1.64-.12,11.74,11.74,0,0,0,10.54-14,7,7,0,0,0-.21-1.46,5.07,5.07,0,0,0-.58-1.39C109.41,47.33,101.56,48,96.92,50Z"/><path class="cls-7" d="M108.52,50.91c-5.38-1.83-11.6-.33-16.51,2.27l-.3.16A18.18,18.18,0,0,1,96.92,50c4.64-2,12.49-2.68,15.61,2.42a5.1,5.1,0,0,1,.59,1.42A11.16,11.16,0,0,0,108.52,50.91Z"/><path class="cls-4" d="M100.37,65.15c6.49.42,12.91-3.22,13-10,1.07,7-3.25,13.91-10.27,14.57a10,10,0,0,1-1.64.11c-3.81,0-8.43-2.68-11.73-4.78-2.17-1.39-2.75-2.88-2.55-4.66,3.45,2.43,7.16,4.39,11.37,4.73A15.87,15.87,0,0,0,100.37,65.15Z"/><path class="cls-8" d="M92.58,59.32l0,.17c0,.1.09.27.17.46s.16.4.28.66.14.26.21.39a4.63,4.63,0,0,0,.24.43A9.5,9.5,0,0,0,95,63.24a10.45,10.45,0,0,0,1,.87c.35.27.73.52,1.11.76a11.44,11.44,0,0,0,1.2.63,12.32,12.32,0,0,0,1.22.48,9,9,0,0,0,1.19.29,6.3,6.3,0,0,0,1.1.11,5.14,5.14,0,0,0,.92-.07l.39-.08.31-.09a2.41,2.41,0,0,0,.43-.18l.15-.07a.26.26,0,1,1,.28.43l0,0-.16.08a3.63,3.63,0,0,1-.47.22l-.35.13-.42.11a5.75,5.75,0,0,1-1,.16,8,8,0,0,1-2.54-.26,10.29,10.29,0,0,1-5-2.93,9,9,0,0,1-.85-1,8.27,8.27,0,0,1-.62-1,6.11,6.11,0,0,1-.41-.94,7.12,7.12,0,0,1-.24-.76c-.06-.21-.08-.37-.11-.48l0-.17a.28.28,0,0,1,.21-.31.25.25,0,0,1,.29.17Z"/><path class="cls-9" d="M102,60l-.76-.57-.87-.67-1.13-.87a1.49,1.49,0,0,1-.54-.82,1.57,1.57,0,0,1,.19-1,4.2,4.2,0,0,1,1.4-1.41,7.15,7.15,0,0,1,4-1.21,6.47,6.47,0,0,1,1.08.09l.26,0,.28.06a2.55,2.55,0,0,1,.54.24,1,1,0,0,1,.25.22.83.83,0,0,1,.11.15l.05.09,0,.06a1.19,1.19,0,0,1,0,.67c-.1.37-.22.65-.32,1L106,57.77a8.12,8.12,0,0,1-.69,1.59,2.77,2.77,0,0,1-1.1,1.1,1.57,1.57,0,0,1-.68.18,1.74,1.74,0,0,1-.6-.11,3.4,3.4,0,0,1-.68-.38Z"/><path class="cls-10" d="M101.48,55.8a.28.28,0,0,1,0-.15c.5-1,2.32-1,3.35-.93a.65.65,0,0,1,.61.47c.16.72-.8,1.12-1.34,1.48a2.14,2.14,0,0,1-2.46-.16A.65.65,0,0,1,101.48,55.8Z"/><path class="cls-11" d="M98.23,40.89c1,4.54-1,8.8-4.43,9.53s-7-2.38-7.91-6.91,1-8.8,4.43-9.52S97.27,36.36,98.23,40.89Z"/><path class="cls-12" d="M98.26,41.48c-.4,2.19-1.42,4.39-3.32,5.46a6.35,6.35,0,0,1-.74.54,5.08,5.08,0,0,1-4.76,0A7.41,7.41,0,0,1,87.35,46,5.3,5.3,0,0,1,86,44.11c.82,3.35,4,7.11,7.77,6.31,3.29-.7,5.26-4.72,4.51-9.09Z"/><path class="cls-11" d="M110.23,38.89c.88,4.16-.93,8.06-4,8.72S99.83,45.44,99,41.28s.93-8.06,4-8.72S109.35,34.74,110.23,38.89Z"/><path class="cls-12" d="M109.34,40.06c-.66,2.12-1.63,4.34-3.69,5.43a4.71,4.71,0,0,1-6.06-2c1.2,2.39,3.71,4.76,6.59,4.15,3.12-.66,4.93-4.56,4-8.72a9.18,9.18,0,0,0-.32-1.17A17,17,0,0,1,109.34,40.06Z"/><path class="cls-13" d="M106.14,38.09a2.73,2.73,0,0,1-2.33,3,3.08,3.08,0,0,1-3-2.61,2.53,2.53,0,0,1,1-2.72c.28-.15,1.39,2.39,1.72,2.36s.43-2.72.71-2.63A2.88,2.88,0,0,1,106.14,38.09Z"/><path class="cls-13" d="M94.31,39.68a2.94,2.94,0,0,1-2.49,3.25,2.78,2.78,0,0,1-3.12-2.51c-.14-1.27.13-2.38,1.2-2.91.27-.14,1.48,2.33,1.8,2.28s.24-3,.62-2.85A3.39,3.39,0,0,1,94.31,39.68Z"/><path class="cls-1" d="M88.59,86.68a9.58,9.58,0,0,1,4-4.38,8.82,8.82,0,0,1,7.24-.39,7.44,7.44,0,0,1,4.59,5.29c.38,2.06-.35,4.13-1.1,6.12-1.06,2.84-2.34,5.92-5.07,7.71a6.59,6.59,0,0,1-4.75,1.1c-2.65-.5-4.46-2.89-5.32-5.27A13.23,13.23,0,0,1,88.59,86.68Z"/><path class="cls-2" d="M88.59,86.68c.12-.25.25-.5.39-.74,0,.35-.08.69-.13,1a23.65,23.65,0,0,0,.61,9.43,2.05,2.05,0,0,0,2,1.67c.11.27.21.55.32.83a2.56,2.56,0,0,0,4.88-.31,2.66,2.66,0,0,0,.53-.21,2.63,2.63,0,0,0,2.55-1,9.4,9.4,0,0,0,1-1.67,19.94,19.94,0,0,0,3.07-9c.07-.33.13-.66.17-1a5.8,5.8,0,0,1,.45,1.41c.38,2.06-.35,4.13-1.1,6.12-1.06,2.84-2.34,5.92-5.07,7.71a6.59,6.59,0,0,1-4.75,1.1c-2.65-.5-4.46-2.89-5.32-5.27A13.23,13.23,0,0,1,88.59,86.68Z"/><path class="cls-3" d="M93.27,102.31c-3.33-.67-7.33-5.63-3-7.78a9.77,9.77,0,0,1,7.25-.26c1.35.53,3.06,1.87,3.29,3.31s-1.33,3.14-2.48,3.89A6.86,6.86,0,0,1,93.27,102.31Z"/><path class="cls-7" d="M88.49,96.39a3.17,3.17,0,0,1,1.76-1.86,9.77,9.77,0,0,1,7.25-.26,5.62,5.62,0,0,1,3.22,3A10.76,10.76,0,0,0,88.49,96.39Z"/><path class="cls-4" d="M89,95.46c.53,2.19,1.8,4.37,4.15,5,3.24.86,6-1.15,7.34-3.69a2.88,2.88,0,0,1,.29.82c.22,1.42-1.33,3.14-2.48,3.89a6.86,6.86,0,0,1-5,.84C90.36,101.72,86.94,97.86,89,95.46Z"/><path class="cls-1" d="M88,82.09A7.08,7.08,0,0,0,93,83.29a2.48,2.48,0,0,0,2.49-2.19,4.79,4.79,0,0,0-.37-2.1,11.65,11.65,0,0,0-5.1-6c-1.68-.87-5.08-2.16-6.14.15a4.14,4.14,0,0,0,0,2.94A11.41,11.41,0,0,0,88,82.09Z"/><path class="cls-5" d="M93.28,77.22a10.88,10.88,0,0,0-9.18-4.43c1.22-1.86,4.36-.66,6,.17a11.65,11.65,0,0,1,5.1,6,4.7,4.7,0,0,1,.37,2.08A13.26,13.26,0,0,0,93.28,77.22Z"/><path class="cls-3" d="M90.49,75.9a6.29,6.29,0,0,0-1.84-1.43A4.43,4.43,0,0,0,86.72,74c-.38,0-1-.17-1.34.09-.68.61-.11,2.09.16,2.77A9.28,9.28,0,0,0,89,81.55c.69.43,2.11,1.14,3,.92,1.19-.3.83-2.07.64-2.87a8.25,8.25,0,0,0-1.76-3.33C90.71,76.14,90.61,76,90.49,75.9Z"/><path class="cls-4" d="M88.54,76.26a12.57,12.57,0,0,0-3.15-2.15c.64-.64,2.18.16,2.82.47a8.12,8.12,0,0,1,2.47,1.82,7.76,7.76,0,0,1,1.78,3.22c.19.75.68,2.35-.34,2.79A10.28,10.28,0,0,0,88.54,76.26Z"/><path class="cls-11" d="M95.34,90.51c-.2,1.74-1.5,3-2.91,2.91S90,91.76,90.23,90s1.49-3,2.9-2.9S95.53,88.78,95.34,90.51Z"/><path class="cls-12" d="M95.28,90.73a3,3,0,0,1-2,1.57,2.35,2.35,0,0,1-.35.11,2.65,2.65,0,0,1-2.63-1,2.55,2.55,0,0,0,2.1,2,2.93,2.93,0,0,0,2.88-2.74Z"/><path class="cls-11" d="M101,91c-.2,1.82-1.56,3.18-3,3s-2.5-1.73-2.3-3.54,1.56-3.18,3-3S101.23,89.17,101,91Z"/><path class="cls-12" d="M100.47,91.35a3.61,3.61,0,0,1-2.9,1.77A2.58,2.58,0,0,1,96,92.54,2.49,2.49,0,0,0,98,94c1.47.14,2.83-1.22,3-3a4.53,4.53,0,0,0,0-.52A9.15,9.15,0,0,1,100.47,91.35Z"/><path class="cls-13" d="M99.57,90.07a1.29,1.29,0,0,1-1.32,1.26A1.45,1.45,0,0,1,97,90a1.16,1.16,0,0,1,.67-1.2c.15-.05.53,1.18.69,1.19s.38-1.23.51-1.17A1.3,1.3,0,0,1,99.57,90.07Z"/><path class="cls-13" d="M94,89.71a1.25,1.25,0,0,1-1.36,1.1,1.2,1.2,0,0,1-1-1.4c.08-.55.31-1,.8-1.1.12,0,.35,1.15.48,1.16s.42-1.22.56-1.13A1.52,1.52,0,0,1,94,89.71Z"/><path class="cls-9" d="M92.3,96.24a1.88,1.88,0,0,0,1.46,1.81,2.53,2.53,0,0,0,2.43-.73A1,1,0,0,0,96.34,96a1.67,1.67,0,0,0-1-.4,14.84,14.84,0,0,0-2-.16,1.38,1.38,0,0,0-.64.11A.85.85,0,0,0,92.3,96.24Z"/><path class="cls-10" d="M93.8,96.08a.91.91,0,0,1,.74-.18,1.41,1.41,0,0,1,.85.32c.22.24,0,.52-.26.59A1.45,1.45,0,0,1,94,96.58l0,0a.64.64,0,0,1-.19-.21A.21.21,0,0,1,93.8,96.08Z"/><path class="cls-8" d="M97.5,98.87s0,.09,0,.24a1.36,1.36,0,0,1-.06.29,1.3,1.3,0,0,1-.16.37,2,2,0,0,1-.11.2l-.16.19a2.33,2.33,0,0,1-.4.36,2.45,2.45,0,0,1-.52.24,2.24,2.24,0,0,1-.57.13,2.81,2.81,0,0,1-.58,0,1.17,1.17,0,0,1-.27,0l-.27-.08a2.78,2.78,0,0,1-.46-.21,1.81,1.81,0,0,1-.38-.26,1.45,1.45,0,0,1-.29-.25,1.24,1.24,0,0,1-.19-.22,1.07,1.07,0,0,0-.16-.19.13.13,0,0,1,.19-.18h0l0,0,.15.17.19.18a2.1,2.1,0,0,0,.27.2,2.29,2.29,0,0,0,.35.19,3.4,3.4,0,0,0,.42.15,2.31,2.31,0,0,0,.47.07,2.67,2.67,0,0,0,.49,0,2.57,2.57,0,0,0,.48-.11,2.35,2.35,0,0,0,.43-.19,1.84,1.84,0,0,0,.34-.27l.14-.14.11-.16a1.55,1.55,0,0,0,.15-.28.81.81,0,0,0,.08-.25l.06-.23a.13.13,0,0,1,.16-.09.14.14,0,0,1,.1.13Z"/><path class="cls-1" d="M99.28,83.5a1.71,1.71,0,0,1,.12-.89,8,8,0,0,1,1.18-2.06,13.27,13.27,0,0,1,11-4.74,2.76,2.76,0,0,1,1.78.55,2,2,0,0,1,.23,2.22,10.94,10.94,0,0,1-5.13,5.87,9.15,9.15,0,0,1-5,1.2,6.69,6.69,0,0,1-3.3-1.19A1.79,1.79,0,0,1,99.28,83.5Z"/><path class="cls-5" d="M113.09,79.21c-.57-3.14-5.16-2.4-7.35-1.59a14.64,14.64,0,0,0-6.41,5.24,1.82,1.82,0,0,1,.07-.25,8,8,0,0,1,1.18-2.06,13.27,13.27,0,0,1,11-4.74,2.76,2.76,0,0,1,1.78.55,2,2,0,0,1,.23,2.22c-.12.34-.26.67-.41,1A2.23,2.23,0,0,0,113.09,79.21Z"/><path class="cls-3" d="M101.86,83.93a.75.75,0,0,1-.21-.26c-.41-.85.64-2,1.21-2.55a14,14,0,0,1,6-3.05c1.12-.26,3.23-.51,2.84,1.16-.51,2.12-3.2,4.25-5.38,4.87C105.39,84.36,102.74,84.71,101.86,83.93Z"/><path class="cls-4" d="M106.05,80.3a11.21,11.21,0,0,0-4.45,3.23c-.25-.83.72-1.91,1.26-2.41a14,14,0,0,1,6-3.05c1.11-.26,3.2-.5,2.84,1.13C109.83,78.64,107.89,79.51,106.05,80.3Z"/><path class="cls-1" d="M85.1,34s5.27-5.59-1.29-14.14S62.06,8,57.9,11.39s2.81,15.31,7.63,19.4,9.31,6.86,12.61,6.35S85.1,34,85.1,34Z"/><path class="cls-5" d="M73.33,14.94C69.46,13,65,11.45,60.6,11.73a14.19,14.19,0,0,0-3.53.72,3.06,3.06,0,0,1,.83-1.06c4.16-3.43,19.34-.07,25.91,8.48,3,3.85,3.51,7.1,3.22,9.51C84.68,23.18,79.43,18,73.33,14.94Z"/><path class="cls-3" d="M73.89,20a30.53,30.53,0,0,0-11.68-5.63c-6.58-1.24-1.81,6.26-.1,8.68a33.72,33.72,0,0,0,10.75,9.73,9.41,9.41,0,0,0,3.79,1.39c8.28.64,2.24-9.42-.32-12A22.7,22.7,0,0,0,73.89,20Z"/><path class="cls-4" d="M78.44,28.91c-.63-.89-1.31-1.75-2-2.58a48,48,0,0,0-8-7.26c-3-2.12-6.08-3-9.57-3.73,0-1.17,2.46-1.07,3.3-1a12.84,12.84,0,0,1,4.25,1.11A35.79,35.79,0,0,1,73.89,20a22.7,22.7,0,0,1,2.44,2.13,19.71,19.71,0,0,1,3.73,5.15c.78,1.64,1.49,3.27.52,5,.19-.33-1.6-2.64-1.84-3Z"/></g></g></g></svg>