<svg xmlns="http://www.w3.org/2000/svg" viewBox="0 0 90.55 137.61"><defs><style>.cls-1{fill:#f79d58;}.cls-2{fill:#e08441;}.cls-3{fill:#fbaf6e;}.cls-4{fill:#f5dfcb;}.cls-5{fill:#e4c3a4;}.cls-6{fill:#f29955;}.cls-7{fill:#a23e0f;}.cls-8{fill:#bd5424;}.cls-9{fill:#c44921;}.cls-10{fill:#f55b2a;}.cls-11{fill:#ecc19e;}.cls-12{fill:#ce7027;}.cls-13{fill:#4d2918;}.cls-14{fill:#fff;}.cls-15{fill:#e4d6ce;}.cls-16{fill:#392518;}.cls-17{fill:#763c3c;}.cls-18{fill:#944513;}</style></defs><g id="Слой_2" data-name="Слой 2"><g id="animal"><g id="lion"><path class="cls-1" d="M21.77,127.11a1.48,1.48,0,0,0-.39-1.68,4.09,4.09,0,0,0-1.63-.84,56,56,0,0,0-8.56-2.12c-1.86-.3-3.84-.56-5.3-1.75a2.1,2.1,0,0,1-.69-.9,1.93,1.93,0,0,1,.86-2c2-1.54,5-.53,7.4-1.41a1.37,1.37,0,0,0,1-.91,1.19,1.19,0,0,0-.49-1c-1-.9-2.59-.78-3.94-.51a27.81,27.81,0,0,0-4.89,1.47,8.85,8.85,0,0,0-3.66,2.38,3.81,3.81,0,0,0-.6,4.12,4.18,4.18,0,0,0,1.76,1.57c3.62,1.94,8.18.83,12,2.3,1.8.68,3.43,1.93,5.35,2.06A1.82,1.82,0,0,0,21.77,127.11Z"/><path class="cls-1" d="M68.58,81.07c-4.06-5.22-11.44-5.51-17.49-5.24-7.41.33-15.67,1.58-22.06,5.61-5.52,3.49-8.31,9.64-9.14,15.93-.74,5.67-.59,13.85,4.76,17.42,2.85,1.9,6.74,2.19,10,2.74a91.7,91.7,0,0,0,12,1.25c7.77.26,16-.53,23-4,5.64-2.72,9.54-7.71,8.77-14.19C77.63,93.2,73.05,86.82,68.58,81.07Z"/><path class="cls-2" d="M66.38,79.94a38.27,38.27,0,0,1,1.48,4.34,37.81,37.81,0,0,1,6.28,16A74.12,74.12,0,0,1,75,111.13a12.62,12.62,0,0,0,3.57-10.49c-.89-7.44-5.47-13.82-9.94-19.57a11.58,11.58,0,0,0-2.89-2.63Q66.05,79.18,66.38,79.94Z"/><path class="cls-3" d="M25.51,109a35.87,35.87,0,0,1-.88-8.32c.38-6.44,2.58-11.95,5.43-17.66.5-1,1-2,1.52-3A28.59,28.59,0,0,0,29,81.44c-5.52,3.49-8.31,9.64-9.14,15.93-.74,5.67-.59,13.85,4.76,17.42a11.44,11.44,0,0,0,2.46,1.2A61.52,61.52,0,0,1,25.51,109Z"/><path class="cls-4" d="M55.77,93.44a16,16,0,0,1,4.6,1,14.39,14.39,0,0,1,4.87,3.42c2.84,3,4.75,7.11,3.94,11.12-.58,2.84-2.51,6.26-5.55,6.92-3.5.76-6.85,2-10.48,2.16-2.95.14-5.84.4-8.8.28a45.75,45.75,0,0,1-6.82-.63,8,8,0,0,1-6.79-8.36c.25-4.08,2.89-8,6.09-10.42A28,28,0,0,1,55.77,93.44Z"/><path class="cls-5" d="M67.19,109.62c-4.35,4-10.1,5.19-15.77,6-4.83.66-12,1.8-17.68.4a9,9,0,0,0,3.79,1.69,45.75,45.75,0,0,0,6.82.63c3,.12,5.85-.14,8.8-.28,3.63-.17,7-1.4,10.48-2.16,3-.66,5-4.08,5.55-6.92a9.38,9.38,0,0,0,.18-1.67A21,21,0,0,1,67.19,109.62Z"/><path class="cls-6" d="M44.84,105.22a8.26,8.26,0,0,1-1.69-.73,10.05,10.05,0,0,1-2.77-2.63c-1-1.51-1.31-3.45-2.07-5.09a40.49,40.49,0,0,1-1.64-4.38c-.34-1-.7-2.13-2-2.17-1.42,0-3.58,1.74-4,3.06a3.2,3.2,0,0,0-.09.93A18.37,18.37,0,0,0,35,106a18.27,18.27,0,0,1,2.61,4.2,22.7,22.7,0,0,1,.88,2.6c.23.66.57,1.4,1.25,1.56a.72.72,0,0,0,.71-.21,1,1,0,0,0,.16-.47,5.43,5.43,0,0,0-.43-2.48l.48-.12c1,.54,4.26,2.92,4.65.57.14-.87-.6-1.31-.94-2-.13-.27-.28-.6-.11-.84.61-.81,2,.23,2.77,0a1.32,1.32,0,0,0,.45-1.94A4.53,4.53,0,0,0,44.84,105.22Z"/><path class="cls-2" d="M35.58,103.65a17.75,17.75,0,0,1-3-4.48,32.11,32.11,0,0,1-1.88-4.84A18.31,18.31,0,0,0,35,106a18.27,18.27,0,0,1,2.61,4.2,22.7,22.7,0,0,1,.88,2.6c.23.66.57,1.4,1.25,1.56a.72.72,0,0,0,.71-.21,1,1,0,0,0,.16-.47,5.43,5.43,0,0,0-.43-2.48l.48-.12c1,.54,4.26,2.92,4.65.57a1.21,1.21,0,0,0,0-.19C40.91,110.54,37.73,107.46,35.58,103.65Z"/><path class="cls-6" d="M57.84,113.15H58a1.9,1.9,0,0,0,1.78-1.6c.06-.5,0-1.13.44-1.35s.94.26,1.21.71.7,1,1.19.8a.88.88,0,0,0,.43-.4c.66-1.1-.06-2.46-.37-3.7-1-4,2.82-7.61,4.18-11a7.77,7.77,0,0,0,.7-4.4,2.91,2.91,0,0,0-5.57-1c-1.27,2.24-1.42,5.06-2.61,7.36A85.13,85.13,0,0,1,54,107.21,8.66,8.66,0,0,0,53,109c-.24.67-.59,2.18.45,2.36a1.68,1.68,0,0,0,1.31-.48,3.6,3.6,0,0,0,.6-.75c.12-.16.38-.26.51-.1.29.34.13,1.41.33,1.88A2,2,0,0,0,57.84,113.15Z"/><path class="cls-2" d="M67.56,92.16c0-.12-.06-.24-.1-.36-1.14,3.64-3.3,7.17-5,10.68,0,.09,0,.17,0,.26-.53,2.53-.74,5.18-2.55,7.22a4.66,4.66,0,0,1-3.77,1.54,1.73,1.73,0,0,0,.09.39,2,2,0,0,0,1.63,1.26H58a1.9,1.9,0,0,0,1.78-1.6c.06-.5,0-1.13.44-1.35s.94.26,1.21.71.7,1,1.19.8a.88.88,0,0,0,.43-.4c.66-1.1-.06-2.46-.37-3.7-1-4,2.82-7.61,4.18-11A7.77,7.77,0,0,0,67.56,92.16Z"/><path class="cls-7" d="M74.4,12.22A127.77,127.77,0,0,0,60.8,8.76a.29.29,0,0,1-.15-.5l3.25-3.2a.3.3,0,0,0-.21-.51,34.13,34.13,0,0,0-14.35,3.6.29.29,0,0,1-.41-.34L51.07.38A.29.29,0,0,0,50.7,0,19.65,19.65,0,0,0,40.59,7.43a.28.28,0,0,1-.39.08A18.92,18.92,0,0,0,26.94,5a.3.3,0,0,0,0,.57,10.74,10.74,0,0,1,4.6,3,.29.29,0,0,1-.21.49A27.88,27.88,0,0,0,14,16.16a.29.29,0,0,0,.24.51,39.88,39.88,0,0,1,4.51-.32.3.3,0,0,1,.11.57c-3.83,1.5-6.86,4.78-9.36,8.13A73.5,73.5,0,0,0,0,42.14a.3.3,0,0,0,.49.31,12.86,12.86,0,0,1,5.73-3.24.29.29,0,0,1,.34.41,32.67,32.67,0,0,0-1.39,23,.29.29,0,0,0,.57,0,7.58,7.58,0,0,1,3.13-4.79.3.3,0,0,1,.45.34c-.93,2.72.41,9.93.7,11.57.74,4.17,2.09,8.5,5.31,11.41a.3.3,0,0,0,.49-.24,10.71,10.71,0,0,1,1.44-6,.29.29,0,0,1,.53.05,46.81,46.81,0,0,0,9.37,15.37.3.3,0,0,0,.51-.15q.75-4,1.62-8c-.46,2.1,1.74,5.15,2.83,6.82,2,3.15,4.26,6.45,7.57,8.21a.29.29,0,0,0,.42-.24A19.68,19.68,0,0,1,43,87.22a.29.29,0,0,1,.5,0,52.62,52.62,0,0,1,4.74,13,.29.29,0,0,0,.54.09,47.88,47.88,0,0,0,5.33-13.15.29.29,0,0,1,.54-.08,17.58,17.58,0,0,1,2.32,7.87.29.29,0,0,0,.51.17A22.19,22.19,0,0,0,63,81.67a.29.29,0,0,1,.55-.12,60.08,60.08,0,0,1,3.32,7.8.29.29,0,0,0,.51.08c4-5.4,4.93-12.59,4.79-19.15a.29.29,0,0,1,.5-.22c2.19,2.06,3,7.21,3,9.82A2.16,2.16,0,0,0,76,81a.29.29,0,0,0,.46,0A44.34,44.34,0,0,0,83.13,67.3a24.46,24.46,0,0,0,1-7A34.74,34.74,0,0,0,84,54.7a.29.29,0,0,1,.52-.23l2.61,3.34c.81,1,2.07,3.34,2,.78-.23-6.44-.92-12.84-5.27-18a.3.3,0,0,1,.23-.48L90.26,40a.3.3,0,0,0,.25-.45,51.08,51.08,0,0,0-12.3-13.38.29.29,0,0,1,.15-.52,16.65,16.65,0,0,0,5.72-1.46.3.3,0,0,0,.06-.5A62.29,62.29,0,0,0,71.55,16a.29.29,0,0,1,0-.54,5.65,5.65,0,0,0,3-2.79A.3.3,0,0,0,74.4,12.22Z"/><path class="cls-8" d="M81.86,41.08c-.62-1.59-1.29-3.15-2-4.71a20.82,20.82,0,0,1,4.23,1.27,5.16,5.16,0,0,0-1.15-3,33.05,33.05,0,0,0-4.87-6.3c-.88-.83-1.75-1.6-1.73-2.93,0-.89,1.36-2,1.36-2.25a46.69,46.69,0,0,0-6.53-5.28,6.63,6.63,0,0,1-2.49-2.32c-.5-1-.18-2.56.92-2.9a24.91,24.91,0,0,0-7-2.26C62.12,10.34,57,9.8,57,9.76a6.1,6.1,0,0,1,.52-2.86A34.22,34.22,0,0,0,48,9.08a5.15,5.15,0,0,1-.28-5,50.87,50.87,0,0,0-6.27,4.75C38.67,8.13,35.84,7.5,33,7a10.83,10.83,0,0,1,2.52,2.79c-4.68.47-10.4.56-14.21,3.7-1.84,1.52.58,1.54.15,3.08S17.27,20.06,16,21.17c-4,3.44-6.86,8-9.61,12.57a8.25,8.25,0,0,0-1.45,3.18c1.36-.1,2.65-.66,4.06-.68A111.89,111.89,0,0,0,7.15,55a23,23,0,0,0,4-3.8c-1.37,1.53.51,8.8.93,10.63.68,3,1.64,7.23,3.68,9.59,1.41-1.43,1.33-4,3-5.55-.83.77,3.63,10.16,4.06,11.32.74,2,1.55,4,3.19,5.35a24.07,24.07,0,0,1,1.87-6.82c.27-.6.8-1.3,1.42-1.08.35.12.53.5.68.83a22.08,22.08,0,0,0,2.82,4.56c1.93,2.42,3.46,6,5.86,7.75A99.31,99.31,0,0,1,42.12,78c3.33,2.7,4.22,7.54,5.11,11.52a.28.28,0,0,0,.52.09A46.44,46.44,0,0,0,53,76.8a.29.29,0,0,1,.53-.07,17.11,17.11,0,0,1,2.25,7.67.29.29,0,0,0,.51.17,21.66,21.66,0,0,0,5.43-13.1.29.29,0,0,1,.54-.12A59.16,59.16,0,0,1,65.44,79a.29.29,0,0,0,.5.08c4.25-5.79,3.33-12.38,4.82-19a33.79,33.79,0,0,1,3.3,3.37c.89,1.27.94,3,2.15,4.07a22.06,22.06,0,0,0,3.08-10A60.65,60.65,0,0,0,79,47c.09,1,5,4.45,5.9,5.19A43.59,43.59,0,0,0,81.86,41.08Z"/><path class="cls-1" d="M61.83,48.44c-.1,3.58-1.41,6.9-4.42,9-4.13,2.87-8.65,1.39-13.25,1s-9.09.25-13.51-1.42c-3.1-1.17-3.49-4.3-3.66-7.32,0-.78-.48-3.23-.51-4.57a26.81,26.81,0,0,1,1.91-11A17.88,17.88,0,0,1,41.33,23.67,16.75,16.75,0,0,1,57.66,30C61.56,35.24,62,42.13,61.83,48.44Z"/><path class="cls-1" d="M64.09,48.9c-.1,3.8-1.5,7.33-4.7,9.56-4.4,3-9.2,1.48-14.1,1.1s-9.67.26-14.37-1.51c-3.29-1.25-3.71-4.57-3.89-7.79,0-.83-.52-3.43-.54-4.87a28.46,28.46,0,0,1,2-11.69A19.06,19.06,0,0,1,42.28,22.54a17.84,17.84,0,0,1,17.37,6.74C63.8,34.86,64.27,42.19,64.09,48.9Z"/><path class="cls-2" d="M61.39,32.14a73.11,73.11,0,0,1-.66,10.68,38.9,38.9,0,0,1-2,8.59c-1.05,2.72-2.46,5.85-5.3,7.11a3,3,0,0,1-3.93-1A2.83,2.83,0,0,1,49.11,56a6.46,6.46,0,0,1-4.48.83l-.29.08a24.27,24.27,0,0,1-16.29-1.48,5.09,5.09,0,0,0,2.87,2.61c4.7,1.77,9.5,1.12,14.37,1.51s9.7,1.95,14.1-1.1c3.2-2.23,4.6-5.76,4.7-9.56C64.24,43.28,63.92,37.23,61.39,32.14Z"/><path class="cls-3" d="M26.49,45.59A33.75,33.75,0,0,1,31.27,33.8c3.58-5.78,8.94-8.92,15.84-8.17a24.42,24.42,0,0,1,5.51,1.29A10.06,10.06,0,0,1,59,30.16l.38.27a11.28,11.28,0,0,1,1.56.77,19.7,19.7,0,0,0-1.25-1.92,17.84,17.84,0,0,0-17.37-6.74A19.06,19.06,0,0,0,28.52,33.7a28.46,28.46,0,0,0-2,11.69Z"/><path class="cls-4" d="M43.36,66.37s0-.11,0-.1-.09.09-.1.16a2.38,2.38,0,0,0,.26,1.19A5,5,0,0,0,46.4,70.3a4.25,4.25,0,0,0,3.86-.59,3.7,3.7,0,0,0,1.38-3.59c-.47-2.23-3.89-2.58-6.11-2.08a3.77,3.77,0,0,0-1.77.89A1.32,1.32,0,0,0,43.36,66.37Z"/><path class="cls-9" d="M44.76,66.39s0-.08,0-.07-.06.06-.06.1a1.53,1.53,0,0,0,.19.78,3.25,3.25,0,0,0,1.95,1.72,2.79,2.79,0,0,0,2.53-.46,2.41,2.41,0,0,0,.85-2.39c-.28-1.18-1.64-2.36-2.59-3a1.11,1.11,0,0,0-.34-.18C46.56,62.69,44.39,66.26,44.76,66.39Z"/><path class="cls-10" d="M45.33,65.72s0-.06,0,0,0,0,0,.08a1.31,1.31,0,0,0,.15.61A2.61,2.61,0,0,0,47,67.72a2.23,2.23,0,0,0,2-.36,1.92,1.92,0,0,0,.67-1.89,5,5,0,0,0-2-2.39.7.7,0,0,0-.27-.14C46.75,62.8,45,65.62,45.33,65.72Z"/><path class="cls-4" d="M64.65,50.32c4.77,3.77,2.7,10.56-1.08,14.21-4.57,4.41-11.94,2.2-16.75-.69C44,66.93,39,67.37,35.17,66.35,29.35,64.8,22.74,59,27,52.6a9,9,0,0,1,8.55-3.94c3.65.44,6.85,2.76,10.6,2.66C52.23,51.17,59,45.83,64.65,50.32Z"/><path class="cls-11" d="M66.84,53.14a15,15,0,0,1-.69,2.32,11,11,0,0,1-11.58,7.23,15.83,15.83,0,0,1-4.24-1c-1-.37-2-1.21-3-1.47a.79.79,0,0,1-.11.14c-.38.35-.76.7-1.17,1a12.52,12.52,0,0,1-3.87,1.92,22.72,22.72,0,0,1-11.62.91,15.9,15.9,0,0,0,4.61,2.1c3.85,1,8.85.58,11.65-2.51,4.81,2.89,12.18,5.1,16.75.69C66.53,61.67,68.44,56.89,66.84,53.14Z"/><path class="cls-2" d="M44.63,36.75c0,3.66-2.56,6.63-5.71,6.63s-5.71-3-5.71-6.63,2.56-6.64,5.71-6.64S44.63,33.08,44.63,36.75Z"/><ellipse class="cls-2" cx="52.15" cy="36.18" rx="6.37" ry="7.26"/><path class="cls-12" d="M41.35,41.33a26.71,26.71,0,0,0-.12,9.1,2.07,2.07,0,0,0,.61,1.49,2,2,0,0,0,1,.31c3.5.42,7.44,1.53,9-2.79,1.31-3.69-.87-7.74-2.14-11.12a2.13,2.13,0,0,0-.81-1.2,1.94,1.94,0,0,0-1-.17,16.65,16.65,0,0,0-5.32,1A16,16,0,0,0,41.35,41.33Z"/><path class="cls-13" d="M47.5,46.49c-2.5-.09-5.35.11-6.85,1.61-2.53,2.54,2,4.64,3.62,5.76,1,.7,3.17,2.15,4.5,1.53A10.42,10.42,0,0,0,51.63,53a8.79,8.79,0,0,0,2.09-3.13c.69-2.23-1.7-3.08-3.46-3.21C49.47,46.6,48.51,46.52,47.5,46.49Z"/><path class="cls-14" d="M44.63,35.71c0,3.66-2.56,6.63-5.71,6.63s-5.71-3-5.71-6.63,2.56-6.64,5.71-6.64S44.63,32,44.63,35.71Z"/><path class="cls-15" d="M44.25,36.49A16,16,0,0,1,41,39.39a5.53,5.53,0,0,1-7.29-1,5.73,5.73,0,0,0,5.2,3.91c3,0,5.51-2.76,5.69-6.23Z"/><path class="cls-16" d="M41.52,37A2.27,2.27,0,1,1,37,37a2.58,2.58,0,0,1,1.31-2.31c.29-.14.81,1.77,1.15,1.77s.23-2,.44-1.89A2.52,2.52,0,0,1,41.52,37Z"/><ellipse class="cls-14" cx="52.15" cy="35.14" rx="6.37" ry="7.26"/><path class="cls-15" d="M58.37,34.56l-.07.1-.54.76c-.39.57-.8,1.13-1.23,1.67a6.53,6.53,0,0,1-7.75,2.3,10.41,10.41,0,0,1-2.52-1.48,6.43,6.43,0,0,0,5.89,4.49c3.52,0,6.37-3.25,6.37-7.26q0-.36,0-.72Z"/><path class="cls-16" d="M54.29,36.46a2.62,2.62,0,0,1-2.35,2.83,2.63,2.63,0,0,1-2.36-2.83A2.92,2.92,0,0,1,51,33.87c.3-.16,1,2.19,1.32,2.19s.3-2.35.59-2.2A2.91,2.91,0,0,1,54.29,36.46Z"/><path class="cls-1" d="M22.37,34.13a12.76,12.76,0,0,0,2.55-3.2c.7-1.36,1.14-2.84,1.83-4.21a2,2,0,0,0,.28-.85c0-1.28-1.58-2.17-2.45-2.76a9,9,0,0,0-4.56-2,5.61,5.61,0,0,0-4.82,3,7.52,7.52,0,0,0-1,4.26A8.23,8.23,0,0,0,16,33.17a6,6,0,0,0,4.6,2.17,1.32,1.32,0,0,0,.62-.12,1.9,1.9,0,0,0,.38-.32C21.87,34.63,22.12,34.38,22.37,34.13Z"/><path class="cls-1" d="M62.09,26.11a2.8,2.8,0,0,1,.11-1.61,8,8,0,0,1,3.88-3.69,5.72,5.72,0,0,1,5.53.6C73.54,22.88,74.16,25.57,74,28a6.57,6.57,0,0,1-.4,1.92c-1,2.46-5.09,6-7.27,2.84l-2.55-3.66A9.28,9.28,0,0,1,62.09,26.11Z"/><path class="cls-1" d="M25.08,121.2a9.48,9.48,0,0,0,4.14-.3,6.14,6.14,0,0,0,4.28-4.67c.41-2.9-1.73-5.16-3.68-7L27.4,107c-2.81-2.63-5.78-5.34-9.5-6.36a3.14,3.14,0,0,0-2.41.08c-2.43,1.42.72,3.59.46,5.1-1.21-.23-2-1-3.35-.67a3.14,3.14,0,0,0-1.2,5.42c.4.34.89.58,1.28,1,1.22,1.15-1.57.5-1.75.51a1.43,1.43,0,0,0-1.43,1.19c-.58,2.2,1.87,3.31,3.53,3.74a18.69,18.69,0,0,1,3.53,1,54,54,0,0,0,6.1,2.68A14.39,14.39,0,0,0,25.08,121.2Z"/><path class="cls-2" d="M25.17,118.91c-3.23.16-6.86-1-9.79-2-.82-.29-5.53-1.47-5.82-2.22.5,1.29,2.21,2,3.47,2.33a18.69,18.69,0,0,1,3.53,1,54,54,0,0,0,6.1,2.68,14.39,14.39,0,0,0,2.42.56,9.48,9.48,0,0,0,4.14-.3,6.14,6.14,0,0,0,4.28-4.67,5,5,0,0,0-.17-2.16c.23.78-2.61,2.84-3.16,3.19A10.63,10.63,0,0,1,26,118.83C25.72,118.87,25.45,118.89,25.17,118.91Z"/><path class="cls-1" d="M79,100.59a4,4,0,0,1,2.06-.13,2.29,2.29,0,0,1,1.24,3.22c-.37.72-1.15,1.27-1.23,2.08.33.29.83.08,1.24-.08,1.59-.63,4.2-.12,4.31,2a2.55,2.55,0,0,1-1.74,2.24c-.29.14-1,.18-1.12.54-.34.89.78.65,1.23.68.79,0,1.5.23,1.79,1,.43,1.22-.56,2.7-1.53,3.33-1.27.85-2.74.81-4.16,1.27a28.93,28.93,0,0,0-4.21,1.89c-2.26,1.15-4.65,2.28-7.18,2.2s-5.19-1.81-5.44-4.33c-.3-3,1.31-5.16,3.22-7.27a52.41,52.41,0,0,1,5.33-5.1A16.84,16.84,0,0,1,79,100.59Z"/><path class="cls-2" d="M84.53,111.14a21,21,0,0,1-5.33,4.71c-3.17,2-7,4.47-10.87,4.3a7,7,0,0,1-2.06-.41,6.45,6.45,0,0,0,3.44,1.16c2.53.08,4.92-1.05,7.18-2.2a28.93,28.93,0,0,1,4.21-1.89c1.42-.46,2.89-.42,4.16-1.27,1-.63,2-2.11,1.53-3.33S85.44,111.19,84.53,111.14Z"/><path class="cls-4" d="M25.44,110.38l-.35-.11a8.6,8.6,0,0,0-3.24-.1c-2.3.24-5.69,2.33-3.2,4.9a6.12,6.12,0,0,0,2.41,1.36,12.38,12.38,0,0,0,6.08,1.06,2.88,2.88,0,0,0,2.23-1.23c.51-1-.06-2.17-.7-3.07A7.48,7.48,0,0,0,25.44,110.38Z"/><path class="cls-4" d="M74,109.06c-2.58,1.09-5.22,3.32-5.63,6.29a1,1,0,0,0,0,.52,1,1,0,0,0,.55.42c2.16.85,4.61,0,6.72-1,1.67-.79,4.18-2.49,3.33-4.71-.78-2-3.24-2.29-5-1.58Z"/><path class="cls-12" d="M22.33,25.69a4.09,4.09,0,0,0-4.84.57c-.82.75-1.29,3-.62,3.95.83,1.2,3.57,1.95,4.84,1.28a3,3,0,0,0,.79-.63c1.14-1.24,1.71-3.59.33-4.81A3.52,3.52,0,0,0,22.33,25.69Z"/><path class="cls-12" d="M66.74,24.2A3.7,3.7,0,0,1,70.84,30a2.33,2.33,0,0,1-2,1A3.34,3.34,0,0,1,67,29.69a7.44,7.44,0,0,1-1.59-2.32,2.52,2.52,0,0,1,.43-2.64A2.49,2.49,0,0,1,66.74,24.2Z"/><path class="cls-7" d="M17.4,126.54a3.3,3.3,0,0,0-.09,2.26c.55,1.93,2.8,3.75,4.34,4.93a17.35,17.35,0,0,0,4.45,2.53,15.38,15.38,0,0,0,2.4.71,11,11,0,0,0,4.13-.07,4.71,4.71,0,0,1-1-1.17,1.4,1.4,0,0,1-.24-1.19c.69-1.77,6.82,2.35,7.71,2.91a.76.76,0,0,0,.45.15c.92-.09-1.19-4-1.5-4.46-.51-.69-2.43-1.67-2.27-2.6a6.42,6.42,0,0,1,1.81.56,22.31,22.31,0,0,0,2.71.89c.39-.45-.17-1.09-.67-1.42q-2.4-1.55-4.92-2.92a28.62,28.62,0,0,0-7.36-3,17.64,17.64,0,0,0-6.79-.17A4,4,0,0,0,17.4,126.54Z"/><path class="cls-17" d="M49.31,48.46c0,.63-1.41,1.19-3.2,1.25s-3.25-.4-3.27-1,1.41-1.19,3.19-1.25S49.28,47.83,49.31,48.46Z"/><path class="cls-8" d="M21.08,43l1.71-8.69a9.54,9.54,0,0,0-3.26,2.83,17,17,0,0,1,8.27-11.8c.3-.57,1.48-.06,1.55.58a2.68,2.68,0,0,1-.73,1.74c-3,4.26-2.49,10.19-5.39,14.49-.42.62-1.05,1.27-1.8,1.19C21.29,43.1,21,43.29,21.08,43Z"/><path class="cls-7" d="M27.91,25.53l-.78.5-.74.53-.71.58-.67.62-.64.66-.6.68-.56.72-.52.74-.48.78-.44.79-.39.81-.34.84-.3.85-.25.86-.2.88-.15.88h0L19,36.79a10.28,10.28,0,0,1,3.36-3.23h0l.06,0a.83.83,0,0,1,1.12.35.84.84,0,0,1,.07.6l-2.36,8.57a.2.2,0,0,1-.25.14.2.2,0,0,1-.15-.22L22,34.15l1.25.93h0A8.8,8.8,0,0,0,20,37.52l-.05,0a.61.61,0,0,1-.86.09.6.6,0,0,1-.2-.61h0l.21-.95.27-.92.31-.91.37-.89.42-.86.46-.84.5-.81.55-.78.59-.75.63-.71.66-.68.7-.64.73-.6.77-.56.8-.51.81-.46a.2.2,0,0,1,.28.08A.21.21,0,0,1,27.91,25.53Z"/><path class="cls-8" d="M61.06,23.4c.46-.38,3.57,1.66,4,2a17.2,17.2,0,0,1,3.49,3.1c1.93,2.25,4.55,5,5.09,8-1-.28-2.07-.77-3.1-1.12,1.48.5,1.08,4,.7,5a.68.68,0,0,1-.35.44.65.65,0,0,1-.39,0,11.39,11.39,0,0,1-4.16-2.64c-1.17-1.09-1.52-2.89-2.23-4.28C63.05,31.7,62,29.55,61,27.38a6,6,0,0,1-.63-1.89A2.68,2.68,0,0,1,61.06,23.4Z"/><path class="cls-7" d="M61.13,23.21l.56.15.58.18a11.9,11.9,0,0,1,1.12.45c.36.17.72.35,1.07.55s.69.41,1,.64a15.26,15.26,0,0,1,1.89,1.51A19.61,19.61,0,0,1,69,28.43c.51.59,1,1.19,1.51,1.82s1,1.27,1.41,1.94c.22.34.44.68.63,1,.09.18.17.36.25.55s.14.39.21.58c.11.4.2.8.28,1.2l.21,1.2v0a.22.22,0,0,1-.18.25.2.2,0,0,1-.19-.06,5.48,5.48,0,0,0-1.42-1,4.23,4.23,0,0,0-1.67-.48h0l.56-.83A4.82,4.82,0,0,1,71.41,36a6.25,6.25,0,0,1,.21.74c0,.24.09.49.12.74s0,.5,0,.74,0,.49,0,.73c0,.48-.06,1-.1,1.43a.21.21,0,0,1-.22.19.21.21,0,0,1-.19-.2c0-.48,0-.95-.05-1.41,0-.24,0-.47-.07-.69s-.06-.44-.11-.68-.11-.44-.18-.64a5.56,5.56,0,0,0-.25-.61,3.84,3.84,0,0,0-.73-1l-.08-.08a.5.5,0,0,1,0-.7.49.49,0,0,1,.65,0h0c.26.19.52.36.78.53l.39.26.38.26c.51.34,1,.7,1.47,1.07l-.36.22c-.07-.18-.13-.36-.21-.53s-.17-.34-.26-.51q-.3-.49-.63-1c-.22-.31-.43-.62-.63-.94l-.59-1c-.41-.64-.86-1.26-1.32-1.87s-.93-1.23-1.42-1.84-1-1.18-1.49-1.72A22.2,22.2,0,0,0,64.89,26c-.29-.24-.6-.46-.9-.69s-.63-.43-1-.63-.66-.39-1-.57l-.51-.25L61,23.59a.2.2,0,0,1-.1-.27A.2.2,0,0,1,61.13,23.21Z"/><path class="cls-7" d="M43.25,15.41c0-.49-.06-1,0-1.51s0-1,.12-1.51a14.48,14.48,0,0,1,.7-3l.77.57q-.4.35-.78.72c-.24.26-.48.52-.71.79s-.44.54-.65.83-.4.58-.59.88-.35.61-.51.92-.3.63-.44.95-.25.66-.36,1-.19.67-.27,1a.7.7,0,0,1-.84.53h0l-1.52-.35-1.52-.31c-.51-.09-1-.18-1.53-.25l-1.55-.21L32,16.32c-.52-.05-1-.08-1.56-.11s-1-.07-1.55-.09l-1.56,0,.17-1.26a9.47,9.47,0,0,1,.93.37c.3.14.6.3.88.46a9.84,9.84,0,0,1,.82.56c.26.2.52.41.76.63a7.6,7.6,0,0,1,.68.71c.21.24.42.5.61.76s.35.55.51.83.28.58.41.87a.21.21,0,0,1-.11.27.2.2,0,0,1-.25-.08h0a7.67,7.67,0,0,0-.53-.74c-.19-.24-.39-.47-.59-.69l-.32-.32-.32-.31-.35-.28-.35-.28c-.24-.17-.48-.34-.74-.49s-.51-.29-.77-.42-.53-.25-.8-.35l-.83-.27a.63.63,0,0,1-.45-.79.64.64,0,0,1,.58-.47h0c.54,0,1.07,0,1.6-.05h1.61q1.6.06,3.21.24c1.06.12,2.12.29,3.17.5.53.1,1,.21,1.58.33l1.55.41-.86.51c.09-.37.21-.75.33-1.11s.28-.73.44-1.08.33-.7.52-1,.4-.66.61-1,.45-.63.69-.93.49-.59.75-.87.55-.54.83-.79.59-.5.9-.73h0a.49.49,0,0,1,.69.09.51.51,0,0,1,.06.49,15.32,15.32,0,0,0-.9,2.73A13.82,13.82,0,0,0,43.79,14a13.7,13.7,0,0,0-.13,1.45.21.21,0,0,1-.21.2.21.21,0,0,1-.2-.19Z"/><path class="cls-7" d="M48.65,15.57c.39-.27.77-.53,1.19-.77s.82-.47,1.25-.68.85-.41,1.29-.59.89-.35,1.34-.49.92-.28,1.38-.4.93-.21,1.4-.29,1-.14,1.42-.2,1-.08,1.44-.09,1,0,1.43,0l.36,0a1.39,1.39,0,0,1,.53.09,1,1,0,0,1,.39.3.73.73,0,0,1,.12.68.8.8,0,0,1-.29.42c-.09.08-.17.12-.22.16-.4.22-.83.47-1.25.67L59.18,15,58,15.66c-.4.22-.81.43-1.19.67a12,12,0,0,0-1.1.77,10.89,10.89,0,0,0-1,.92h0l-.21-.32A12.31,12.31,0,0,1,58,17.47c1.16.05,2.32.15,3.43.11h0a.43.43,0,0,1,.3.75A9.67,9.67,0,0,0,58.87,23a.21.21,0,0,1-.25.15.2.2,0,0,1-.15-.24,10.34,10.34,0,0,1,2.62-5.18l.32.75h0c-1.2,0-2.34-.23-3.49-.35a11.6,11.6,0,0,0-3.38,0,.21.21,0,0,1-.24-.17.25.25,0,0,1,0-.15h0a7.46,7.46,0,0,1,.88-1.15,10,10,0,0,1,1.07-1,11.84,11.84,0,0,1,1.18-.82c.4-.25.8-.51,1.21-.73l1.22-.68c.41-.23.79-.44,1.2-.69,0,0,.07,0,.06,0a.32.32,0,0,0-.08.15.37.37,0,0,0,.06.35.44.44,0,0,0,.11.1h-.16l-.34,0c-.45,0-.9,0-1.36,0s-.9,0-1.36.07-.9.08-1.35.14-.9.14-1.34.23-.89.19-1.34.3l-.66.18-.65.2c-.44.14-.87.29-1.3.45s-.85.34-1.27.53l-1.25.6a.21.21,0,0,1-.28-.09A.22.22,0,0,1,48.65,15.57Z"/><path class="cls-18" d="M36.74,53.94c0,.32-.34.57-.76.57s-.76-.25-.76-.57.34-.57.76-.57S36.74,53.63,36.74,53.94Z"/><path class="cls-18" d="M37.5,58.51a.57.57,0,0,1-.57.57.58.58,0,0,1-.57-.57.57.57,0,0,1,.57-.57A.56.56,0,0,1,37.5,58.51Z"/><path class="cls-18" d="M32.55,57.75c0,.31-.34.57-.76.57s-.76-.26-.76-.57.34-.57.76-.57S32.55,57.43,32.55,57.75Z"/><path class="cls-18" d="M58.05,53.32a.77.77,0,1,1-.76-.66A.72.72,0,0,1,58.05,53.32Z"/><path class="cls-18" d="M61.47,57.18a.76.76,0,1,1-.76-.76A.76.76,0,0,1,61.47,57.18Z"/><path class="cls-18" d="M56.91,57.75c0,.31-.34.57-.76.57s-.76-.26-.76-.57.34-.57.76-.57S56.91,57.43,56.91,57.75Z"/><path class="cls-18" d="M47.84,55.4a8.74,8.74,0,0,1,.33,1.36,11.23,11.23,0,0,1,.17,1.43c0,.27,0,.54,0,.82s0,.56,0,.85a12.36,12.36,0,0,1-.25,1.65c-.07.26-.13.51-.21.75s-.16.45-.25.64a5.68,5.68,0,0,1-.49.92l-.22.32-.17-.1.12-.36c0-.11.08-.25.13-.41a4.34,4.34,0,0,0,.15-.53,10.81,10.81,0,0,0,.26-1.35c0-.26.06-.51.08-.78s0-.53.05-.8c0-.54,0-1.08,0-1.59s0-1,0-1.41,0-.76.05-1,0-.38,0-.38Z"/></g></g></g></svg>