<svg xmlns="http://www.w3.org/2000/svg" viewBox="0 0 106.24 113.91"><defs><style>.cls-1{fill:#84a7c0;}.cls-2{fill:#6e94b4;}.cls-3{fill:#a1c2d9;}.cls-4{fill:#f0f4ff;}.cls-5{fill:#c3dbeb;}.cls-6{fill:#8aafc9;}.cls-7{fill:#7da4c0;}.cls-8{fill:#6b90b0;}.cls-9{fill:#fff;}.cls-10{fill:#d7e1e9;}.cls-11{fill:#243340;}.cls-12{fill:#253a4c;}.cls-13{fill:#374c64;}.cls-14{fill:#6386a3;}.cls-15{fill:#597899;}</style></defs><g id="Слой_2" data-name="Слой 2"><g id="animal"><g id="mouse"><path class="cls-1" d="M22.56,83c-2.7,2.38-4.95,5.17-8.2,6.87-3.51,1.84-7.62,2.82-10.68,5.45-4.94,4.27-5,11.49.42,15.33,5.91,4.17,13.71,3.52,20.49,2.52a103.77,103.77,0,0,1,12.71-.94c4-.09,8.83.62,12.72-.36,3.7-.94,2.11-3.09-.65-4a29,29,0,0,0-11.69-1.4c-7.94.65-15.85,3.79-23.88,3.41a7.83,7.83,0,0,1-7.22-5c-1.31-3.52,1.33-6.07,4.14-7.75,5.85-3.49,12.6-5.16,17.65-10,1.62-1.55,3-4,.62-5.68C26.94,80,24.13,81.6,22.56,83Z"/><path class="cls-2" d="M30.13,82.72A7,7,0,0,0,26.48,84c-1.66,1-3.24,2-4.85,3.06l-.22.41c-1.53,2.57-3.85,4-6.26,5.59C13,94.51,9.83,96.43,8.24,98.88A14.16,14.16,0,0,1,10.72,97c5.85-3.49,12.6-5.16,17.65-10C29.58,85.87,30.67,84.18,30.13,82.72Z"/><path class="cls-2" d="M49.37,107.81c-.42-.15-.85-.28-1.28-.4A6.66,6.66,0,0,1,44.67,109c-3,.48-6,.06-9.08,0a37.64,37.64,0,0,0-7.72.67c-7.39,1.4-17.46,4.33-24.3-.13a4.92,4.92,0,0,1-.67.1,11.7,11.7,0,0,0,1.2,1c5.91,4.17,13.71,3.52,20.49,2.52a103.77,103.77,0,0,1,12.71-.94c4-.09,8.83.62,12.72-.36C53.72,110.92,52.13,108.77,49.37,107.81Z"/><path class="cls-1" d="M81.7,70.62c-.52,5.22-2,11.06-5.93,14.78C72,89,68.6,92.39,63.53,93.93a40.53,40.53,0,0,1-29.28-2.88c-9.18-4.77-12.59-14.32-10.89-24.29,1.78-10.34,8.37-19.18,14.75-27.2-.2.25-.4.49-.61.73a28.82,28.82,0,0,0,2.37-3,5,5,0,0,1-.55.73c3.13-4.1,9-4.67,13.68-5.45,3-.5,6.29-1.19,9.25-.33a16.17,16.17,0,0,1,7.45,4.84C77.63,46,82.89,58.6,81.7,70.62Z"/><path class="cls-3" d="M30.86,58.05c3-5.95,6.12-12.55,10.81-17.5a11.28,11.28,0,0,1-.26-1.26,17.41,17.41,0,0,1-.15-3.13,9.72,9.72,0,0,0-1.56,1.45c-.59,1-1.56,1.79-2.2,2.68.21-.24.41-.48.61-.73-6.38,8-13,16.86-14.75,27.2a25.17,25.17,0,0,0,1.48,14.36C24.75,73.09,27.17,65.34,30.86,58.05Z"/><path class="cls-2" d="M77.21,68.46c-.83,3.36-3.2,6.37-5.42,9A29.71,29.71,0,0,1,62,85.28,35.18,35.18,0,0,1,47,89a54.4,54.4,0,0,1-13-1.28,30.89,30.89,0,0,1-6.7-2.45,20.66,20.66,0,0,0,7,5.79,40.53,40.53,0,0,0,29.28,2.88C68.6,92.39,72,89,75.77,85.4c3.94-3.72,5.41-9.56,5.93-14.78a40.85,40.85,0,0,0-2.63-18,50.63,50.63,0,0,0-3.87-8.19q-1.14-2-2.46-3.8c-.68-1-2-2.08-2.44-3.14,3.66,9.17,7.47,18.76,7.22,28.8A10.24,10.24,0,0,1,77.21,68.46Z"/><path class="cls-4" d="M72.94,87.37A12.14,12.14,0,0,1,70.3,90.6h0a14.38,14.38,0,0,1-3.39,2.17s0,0,0,0a31.78,31.78,0,0,1-6,2c-.72.17-1.44.33-2.17.45h0c-1,.12-1.95.2-2.93.24a49.81,49.81,0,0,1-12.46-1.13c-.28-.08-.55-.18-.81-.28a11,11,0,0,1-1.26-.57,12.38,12.38,0,0,1-6-8,15.49,15.49,0,0,1-.14-6,21.33,21.33,0,0,1,2-6,24.5,24.5,0,0,1,3.55-5.31C47.16,60.69,61.08,57.89,69,64.63A18.5,18.5,0,0,1,72.94,87.37Z"/><path class="cls-5" d="M62,85.28A35.18,35.18,0,0,1,47,89a57.41,57.41,0,0,1-10.78-.83,12,12,0,0,0,5,5.34,11,11,0,0,0,1.26.57l.72.26.49.11a49.46,49.46,0,0,0,6.9,1,38.11,38.11,0,0,0,13-1.46,22.64,22.64,0,0,0,8.22-4.82,13,13,0,0,0,1.19-1.74,18.38,18.38,0,0,0,1.67-13.7C71.4,78.52,67.07,82.88,62,85.28Z"/><path class="cls-6" d="M22.62,85.05c-.35-.46-2.63-3.75-3.44-3.22a5.36,5.36,0,0,1-3.45,1c-.88-.12-2.7-1.28-1.87-2.36.45-.58,2.2-.65,2.41-1.11.31-.69-1.62-1-2-1.17a4,4,0,0,1-1.17-.53,1.26,1.26,0,0,1-.52-1.12c.15-.9,1.33-1.4,2.11-1.42.6,0,1.14.18,1.71.21a.87.87,0,0,0-.5-.77,11.23,11.23,0,0,0-2.73-1.1,4.45,4.45,0,0,1-2.41-1.61c-1.26-2,1-3.42,2.76-3.26a13.47,13.47,0,0,1,5.29,2.09,51.72,51.72,0,0,1,8.62,6.39A37.75,37.75,0,0,1,34.6,85.3c1.71,2.85,3.32,7,2.37,10.4a2.64,2.64,0,0,1-1.6,1.87c-2.32.76-5.25-2.47-6.58-4C26.5,91,24.79,87.83,22.62,85.05Z"/><path class="cls-2" d="M37,91.13c-2,2.94-5.47,2.71-8,.54A20.29,20.29,0,0,1,25.91,88l-4.38-6.12c-.47-.66-1.07-1.39-1.88-1.37a3.27,3.27,0,0,0-1,.29,10.31,10.31,0,0,1-5,0c-.24,1,1.27,1.88,2.05,2a5.36,5.36,0,0,0,3.45-1c.81-.53,3.09,2.76,3.44,3.22,2.17,2.78,3.88,5.91,6.17,8.52,1.33,1.53,4.26,4.76,6.58,4A2.64,2.64,0,0,0,37,95.7,9.67,9.67,0,0,0,37,91.13Z"/><path class="cls-6" d="M71.14,96.75c-3.69-1-3.7-5.24-2.37-8.15,2.25-4.9,6.65-9,10.6-12.52,3.2-2.88,7.3-7,12-6.2,1.35.22,2.83,1.45,1.84,2.9-.29.44-3.44,2.19-3.17,2.54a.46.46,0,0,0,.41.12c.49,0,.94-.25,1.43-.31a1.78,1.78,0,0,1,.89.06,1.15,1.15,0,0,1,.56,1.31c-.21,1-1.27,1.32-2,1.81v.28c0-.35,1.8-.16,2,0,1,.45,1.7,2,.82,2.9A2.78,2.78,0,0,1,93,82c-2.39.68-5.31.1-7.21,2s-2.76,4.33-4.33,6.37C79.34,93.22,75,97.29,71.14,96.75Z"/><path class="cls-2" d="M93.37,78.54a2.33,2.33,0,0,0-1.46,0,4.49,4.49,0,0,1,.4.37,1.2,1.2,0,0,1-.2,1.77A3.6,3.6,0,0,1,90,81a6.85,6.85,0,0,0-4.21,1c-.48.36-.87.88-1.33,1.28-.61.53-1.22,1.06-1.78,1.64a37.8,37.8,0,0,0-3.06,3.74c-1.51,2-3.17,4.38-5.6,5.33a4.32,4.32,0,0,1-6-2.55c-.22,2.31.56,4.6,3.14,5.29,3.86.54,8.2-3.53,10.34-6.3,1.57-2,2.52-4.52,4.33-6.37s4.82-1.36,7.21-2a2.78,2.78,0,0,0,1.17-.6C95.07,80.58,94.39,79,93.37,78.54Z"/><path class="cls-5" d="M79.59,85.14c-3.89-2.26-9.62,6.33-5.16,7.75C77.32,93.82,82.8,87,79.59,85.14Z"/><path class="cls-5" d="M28.14,85.25c2.7-3.87,9.57,5.34,6.3,7.64C32.14,94.51,26.63,87.41,28.14,85.25Z"/><path class="cls-7" d="M37.84,57.2a12,12,0,0,0,.26,1.19c1.54,6,4.35,12,4.18,18.32,0,.78,0,1.72.62,2.15a1.32,1.32,0,0,0,1.49-.1,1.94,1.94,0,0,0,.68-1.39c-.07.95,1.21,4.1,2.55,2.63a1.52,1.52,0,0,0,.28-.62,9,9,0,0,0,.19-2.92c.26.72,1.39,1.61,2.19,1.08s.18-2.76-.15-3.57c-.69-1.72-1.82-3.22-2.53-4.93a30.6,30.6,0,0,1-1.53-5.43c-.63-3-1.5-6-3.49-8.37-.85-1-2.17-1.86-3.38-1.38a2.51,2.51,0,0,0-1.39,2A5,5,0,0,0,37.84,57.2Z"/><path class="cls-3" d="M42.9,78.86a1.14,1.14,0,0,0,.56.19c.11-.68.18-1.36.24-2.22a15.51,15.51,0,0,0-.21-4.71c-.46-1.9-1.13-3.76-1.54-5.68,0-.14-.05-.28-.08-.41-.9-2.65-1.57-5.33-.92-8.2a4.09,4.09,0,0,1,1.77-2.41l-.14-.18c-.85-1-2.17-1.86-3.38-1.38a2.51,2.51,0,0,0-1.39,2,5,5,0,0,0,0,1.33,12,12,0,0,0,.26,1.19c1.54,6,4.35,12,4.18,18.32C42.26,77.49,42.25,78.43,42.9,78.86Z"/><path class="cls-7" d="M63.38,56c-.61,1.07-1,2.28-1.5,3.42-2.53,5.5-3.13,11-3.88,16.94a3.69,3.69,0,0,0,0,1.24,1.23,1.23,0,0,0,.75.94,1.25,1.25,0,0,0,1.31-.5,3.63,3.63,0,0,0,.56-1.36c-.37,1.4,1.55,5.29,2.9,2.82.35-.63.12-1.41.27-2.11a1.33,1.33,0,0,0,2.55.55A2.7,2.7,0,0,0,66.19,76a18.48,18.48,0,0,1,1.69-15.3,11.53,11.53,0,0,0,1.62-3.42,3.34,3.34,0,0,0-1.09-3.42c-1.36-.92-3.31-.17-4.36,1.1A7.47,7.47,0,0,0,63.38,56Z"/><path class="cls-3" d="M58.74,78.53l.1,0a22.49,22.49,0,0,1,1.49-3.14v-.2a61.38,61.38,0,0,1,1.21-9.45c.55-2.78,1.33-5.83,3.44-7.87a6.24,6.24,0,0,1,4.59-1.77,2.94,2.94,0,0,0-1.16-2.22c-1.36-.92-3.31-.17-4.36,1.1a7.47,7.47,0,0,0-.67,1c-.61,1.07-1,2.28-1.5,3.41C59.35,64.91,58.75,70.45,58,76.35a3.69,3.69,0,0,0,0,1.24A1.23,1.23,0,0,0,58.74,78.53Z"/><path class="cls-3" d="M12.92,32.13c0,.16.05.33.08.5.06.38.12.76.2,1.14.17.9.36,1.8.59,2.7l.12.44A8.64,8.64,0,0,1,15,36q.13-1.3.36-2.55c.82-4.66,3-10.66,7.61-12.81a8.89,8.89,0,0,1,8.28.23,6.49,6.49,0,0,1-.4-.79,9.94,9.94,0,0,0-2.75-4.19c.08.1-.86-.58-1-.66a3.68,3.68,0,0,1-.37-.2L26.5,15a11.91,11.91,0,0,0-3-.66c-2.14-.11-3.83.1-5.3,1.51a17.65,17.65,0,0,0-4,6.09,25.24,25.24,0,0,0-1.37,4.43,1.36,1.36,0,0,0,0,.17c0,.26,0,.52,0,.78A29.45,29.45,0,0,0,12.9,32Z"/><path class="cls-3" d="M95.55,23A12.66,12.66,0,0,0,96,19.43q0,.36,0,.72Q95.84,21.55,95.55,23Z"/><path class="cls-1" d="M34.55,33a2.55,2.55,0,0,1,.39-.28l1,2.83A26.37,26.37,0,0,0,42,44.78,45.07,45.07,0,0,0,54,53.41a3.58,3.58,0,0,0,1.8.55,3.46,3.46,0,0,0,1.72-.78,34.83,34.83,0,0,0,9.82-11.09c1.25-2.18,2.08-4.5,3.14-6.76a19.85,19.85,0,0,0,1.24-3.1c.12-.42,1-3.8,1.63-2.57s1.1,2.23,1.76,3.3a18.85,18.85,0,0,0,2.55,3.28c3.42,3.51,8.87,4.63,13.61,3.38a20.06,20.06,0,0,0,11.4-8.73C109.56,20.14,106.51,5,93.47.9c-3.79-1.18-8.65-1.33-12.34.33C78.08,2,75,4.35,72.48,6.18a4.42,4.42,0,0,1-1.84.94c-1.94.32-3.91-.79-5.66-1.47a29.78,29.78,0,0,0-6.65-1.76A32.29,32.29,0,0,0,39.65,6.6c-1.52.77-3,2.12-4.77,1.27-.74-.35-1.54-1.1-2.3-1.52a25.55,25.55,0,0,0-6.64-3C20.61,2.11,16,3.67,11.68,7.1,5.77,11.82,3.34,19.68,3.71,27c.41,8,3.51,16.62,12.38,18.18,6,1.06,10.92-1.82,14.41-6.5.78-1,1.54-2.12,2.29-3.19A14.67,14.67,0,0,1,34.55,33Z"/><path class="cls-8" d="M59.6,46.07c-6.74,3.3-13.85,1-19.43-3.38A42.7,42.7,0,0,0,54,53.41a3.58,3.58,0,0,0,1.8.55,3.46,3.46,0,0,0,1.72-.78C63.74,48.7,68,42.06,70.66,34.74,68,39.22,64.32,43.77,59.6,46.07Z"/><path class="cls-3" d="M93.47.9c-3.79-1.18-8.65-1.33-12.34.33C78.08,2,75,4.35,72.48,6.18a4.42,4.42,0,0,1-1.84.94c-1.94.32-3.91-.79-5.66-1.47a29.78,29.78,0,0,0-6.65-1.76A32.29,32.29,0,0,0,39.65,6.6c-1.52.77-3,2.12-4.77,1.27-.74-.35-1.54-1.1-2.3-1.52a25.55,25.55,0,0,0-6.64-3C20.61,2.11,16,3.67,11.68,7.1c-5.86,4.68-8.3,12.45-8,19.75a23,23,0,0,1,1.73-7.36C7.58,14.4,10.57,9,15.85,6.66a17.86,17.86,0,0,1,15.37.67,13.89,13.89,0,0,1,2.51,1.76,15,15,0,0,0,4.18,1.23c2.09,0,4-1.07,5.82-2a25.54,25.54,0,0,1,7.92-2.95,21.94,21.94,0,0,1,9.11.72,71.32,71.32,0,0,1,8.7,3.41l1.4.62a20.15,20.15,0,0,0,5.63-3c3.15-2.38,6.19-4.44,10.26-4.73a17.41,17.41,0,0,1,14.3,6.39A18,18,0,0,1,104.74,24a28.25,28.25,0,0,1-3.38,8.68c.45-.57.87-1.16,1.26-1.76C109.56,20.14,106.51,5,93.47.9Z"/><path class="cls-2" d="M53.82,22.36c-.66,4.69-4.4,8-8.35,7.47S38.86,25,39.53,20.34s4.4-8,8.34-7.47S54.48,17.68,53.82,22.36Z"/><path class="cls-2" d="M70.73,20.8c-.09,4.94-3.3,8.88-7.18,8.81s-6.95-4.12-6.87-9.06,3.31-8.88,7.18-8.81S70.81,15.86,70.73,20.8Z"/><path class="cls-9" d="M53.82,21.36c-.66,4.69-4.4,8-8.35,7.47S38.86,24,39.53,19.34s4.4-8,8.34-7.47S54.48,16.68,53.82,21.36Z"/><path class="cls-10" d="M53.66,19.41c-1.4,4.18-4.94,7.89-9.72,6.16A8.37,8.37,0,0,1,39.51,22c.46,3.52,2.79,6.34,6,6.79,4,.56,7.69-2.78,8.35-7.47a10.07,10.07,0,0,0,0-2.57C53.79,19,53.73,19.2,53.66,19.41Z"/><path class="cls-9" d="M70.73,19.8c-.09,4.94-3.3,8.88-7.18,8.81s-6.95-4.12-6.87-9.06,3.31-8.88,7.18-8.81S70.81,14.86,70.73,19.8Z"/><path class="cls-10" d="M69.85,15.28c-.09.74-.2,1.46-.32,2.16-.55,3-2,7.18-5.56,7.73s-5.92-1.67-7.26-4.62c.31,4.47,3.22,8,6.84,8.06,3.88.07,7.09-3.87,7.18-8.81A10.86,10.86,0,0,0,69.85,15.28Z"/><path class="cls-11" d="M50.24,19.39a2.73,2.73,0,1,1-5.4-.76,2.7,2.7,0,0,1,1.56-2.1c.23-.11.79,1.84,1,1.8s.21-2.06.48-2A2.73,2.73,0,0,1,50.24,19.39Z"/><path class="cls-11" d="M65.89,19.75A2.68,2.68,0,0,1,61,17.59,2.71,2.71,0,0,1,62.7,16.1C63,16,63.34,18,63.6,18s.58-1.87.91-1.72A2.67,2.67,0,0,1,65.89,19.75Z"/><path class="cls-12" d="M60.67,53.84a4.81,4.81,0,1,1-4.06-5.6A4.9,4.9,0,0,1,60.67,53.84Z"/><path class="cls-12" d="M61,53.9s0,.11-.05.34a3.62,3.62,0,0,1-.09.42l-.07.28-.1.31a5.6,5.6,0,0,1-.75,1.45,4.72,4.72,0,0,1-4.14,2,2.06,2.06,0,0,1-.35,0,3.33,3.33,0,0,1-.38,0,4.16,4.16,0,0,1-.66-.16A5,5,0,0,1,53,57.86a5.37,5.37,0,0,1-1.91-2.37,5.51,5.51,0,0,1-.38-1.5,5.74,5.74,0,0,1,.05-1.55A6.17,6.17,0,0,1,51,51.7a5.15,5.15,0,0,1,.29-.72,5.59,5.59,0,0,1,.84-1.25,5.29,5.29,0,0,1,2.43-1.55,5,5,0,0,1,2.67,0,4.93,4.93,0,0,1,2.11,1.17A5.1,5.1,0,0,1,60.49,51a4.88,4.88,0,0,1,.44,1.52,3.1,3.1,0,0,1,0,.58,3.2,3.2,0,0,1,0,.44l0,.36Zm-.57-.1s0-.11,0-.32a2.3,2.3,0,0,0,0-.39,3.25,3.25,0,0,0,0-.53,4.36,4.36,0,0,0-.34-1.4A4.74,4.74,0,0,0,59,49.62a4.53,4.53,0,0,0-1.91-1.07,4.45,4.45,0,0,0-2.45.08,4.52,4.52,0,0,0-2.13,1.47,4.74,4.74,0,0,0-.67,1.15,3.83,3.83,0,0,0-.2.63,5.24,5.24,0,0,0-.12.67,4.86,4.86,0,0,0,.05,1.32,5.13,5.13,0,0,0,.4,1.22,4.37,4.37,0,0,0,1.65,1.8,3.81,3.81,0,0,0,1,.46,5.13,5.13,0,0,0,.58.13l.25,0,.27,0a4.7,4.7,0,0,0,1.95-.44,5,5,0,0,0,1.43-1A4.14,4.14,0,0,0,60,55a2.53,2.53,0,0,0,.2-.47,2.24,2.24,0,0,0,.11-.38c.06-.22.08-.33.08-.33Z"/><path class="cls-13" d="M57.48,50.36a2.62,2.62,0,1,1-3.28-1.28A2.49,2.49,0,0,1,57.48,50.36Z"/><path class="cls-14" d="M33.29,14.26a2,2,0,0,0,0-.24c-1-5.22-7.17-7.81-11.92-6.79-7,1.5-11.48,9.16-12.83,15.66-1.5,7.2,1.65,16.85,9.47,19,4.45,1.24,8.58-4.22,10.38-7.61s2.23-7,3.67-10.44A16.76,16.76,0,0,0,33.29,14.26Z"/><path class="cls-15" d="M10.48,23.33a20.93,20.93,0,0,1,6.26-8.22c2.84-2.5,6.56-4.22,10.27-3.75a15,15,0,0,1,6.24,2.16C31.23,9,26.94,6,21.33,7.23c-7,1.5-11.48,9.16-12.83,15.66A19.28,19.28,0,0,0,9.65,34.06,17.07,17.07,0,0,1,10.48,23.33Z"/><path class="cls-14" d="M95.6,33.06a18.26,18.26,0,0,0,7-15.26c-.27-4.7-4.83-14.68-15.41-13.75S75.32,15.43,75.32,15.43c.17,3.2.24,5.7.42,8.9a18,18,0,0,0,1,6.08,10.63,10.63,0,0,0,9.11,6.11C89.73,36.76,92.56,35.43,95.6,33.06Z"/><path class="cls-15" d="M86.23,7.09a13.49,13.49,0,0,1,11.12,7.64,25.22,25.22,0,0,1,2,14.36A18,18,0,0,0,102.6,17.8c-.27-4.7-4.83-14.68-15.41-13.75a12.36,12.36,0,0,0-10.57,7.27C79.11,8.64,82.59,6.8,86.23,7.09Z"/></g></g></g></svg>