<svg xmlns="http://www.w3.org/2000/svg" viewBox="0 0 158.04 115.62"><defs><style>.cls-1{fill:#ffac47;}.cls-2{fill:#fbcb71;}.cls-3{fill:#ad4f02;opacity:0.35;}.cls-4{fill:#984714;}.cls-5{fill:#853707;}.cls-6{fill:#b55c22;}.cls-7{fill:#f1e1be;}.cls-8{fill:#f0cf9e;}.cls-9{fill:#faf8f5;}.cls-10{fill:#f55b2a;}.cls-11{fill:#ffc08f;}.cls-12{fill:#fff;}.cls-13{fill:#f0eae4;}.cls-14{fill:#3d2517;}.cls-15{fill:#944f29;}.cls-16{fill:#a85d1e;}</style></defs><g id="Слой_2" data-name="Слой 2"><g id="animal"><g id="numbut"><path class="cls-1" d="M37.51,85.71s-3.74-6-6.4-6.4-2.67,2.48-2.67,2.48-3-.88-4.44.18.53,3.91.53,3.91-2.84-.53-3.73,1.43,1.6,3.73,3.55,4.26A3.84,3.84,0,0,1,27.2,93.7c1.13,1.9,1.43,4.41,2.42,6.42a7.4,7.4,0,0,0,2,2.18c1.49,1.25,2.2,1.7,4.13,1.72a6.14,6.14,0,0,0,2.37-.33c2.74-1,3.44-4.63,3.38-7.2C41.36,92.52,39.54,89,37.51,85.71Z"/><path class="cls-2" d="M21.85,89.23a7.24,7.24,0,0,1,4.84-1.3c-1.81-1.91.4-5.42,3-4.1A2.68,2.68,0,0,1,32.89,81a8.08,8.08,0,0,1,1.39.45,6.38,6.38,0,0,0-3.17-2.15c-2.67-.36-2.67,2.48-2.67,2.48s-3-.88-4.44.18.53,3.91.53,3.91c-2.87-.53-4.92,1.59-3.4,3.64A3.39,3.39,0,0,1,21.85,89.23Z"/><path class="cls-3" d="M32.17,100.34C30,99,28.93,96.58,28,95.46a47.41,47.41,0,0,0,1.62,4.66,10.42,10.42,0,0,0,4.16,3.62,7.42,7.42,0,0,0,4.3,0c1.85-.7,2.77-2.57,3.15-4.5A7.45,7.45,0,0,1,32.17,100.34Z"/><path class="cls-4" d="M154.2,72.7c-1.32-1.81-3.21-1.31-5.07-2.11A27.2,27.2,0,0,1,157,80.73s-1.6-1.07-3.38-2.14c0,0,3.91,7.65,4.45,11,0,0-1.6-3.56-3.56-4.63,0,0,2.67,7.47,1.25,14.58,0,0-2.49-4.8-3.2-5.69a35.7,35.7,0,0,0,.12,3.61c.25,2.64.59,5.31.71,8a17.76,17.76,0,0,0-6.83-6.66c1.37.74-.31,7.09-.54,8.31a11.21,11.21,0,0,0-2.1-3.34c-.42-.53-3.14-2.88-3.13-3.35a52.16,52.16,0,0,1-1.51,11.21c-.39-3.12-2.4-5.85-4.05-8.42-.42,1.93-.92,3.83-1.24,5.78a8.37,8.37,0,0,0-4.73-5.21c.7.29.33,7.57.26,8.62a18.8,18.8,0,0,0-6.78-8.27,30.15,30.15,0,0,0-2.89,8A22.35,22.35,0,0,0,116,106c-.46-.56-2.49-2.21-2.51-3a49.93,49.93,0,0,1-.25,6.58,25.85,25.85,0,0,0-3.78-6.26c-.89-1-2-2-2.23-3.39a10,10,0,0,0-2.13,7.34c-1.12-3-3.2-5.37-5.06-7.85-2.08-2.79-3.23-6.11-4.74-9.17a11.6,11.6,0,0,1,.32-9.79c1-1.9,2.9-3.6,4.3-5.28,0,0,0-8,2.32-11.56,0,0-1.78,5.69-.18,9.07,0,0,4.44-11.91,9.95-14.76,0,0-3.91,5.34-3.91,8.89,0,0,6.94-7.46,11.91-9.42,0,0-3.91,3.73-4.26,5.33,0,0,8.17-5.69,13.33-5.86,0,0-5.16,4.09-5.33,5.15,0,0,10.66-6,14.22-5.86,0,0-6.22,3.55-6.22,5.33h.07a56.37,56.37,0,0,1,6.37-.3c3,0,6.11.13,8.74,1.8a11.45,11.45,0,0,0-5.28.73,11.59,11.59,0,0,0-1.19.33c-.34.14-.6.51-1,.56C145.3,63.91,151.44,67.64,154.2,72.7Z"/><path class="cls-5" d="M153.61,90.92c-.56.17-2.91-1.42-2.91-1.84,0,2.54.55,5.2-.79,7.39-1.65-.18-3.15-1.53-4.77-1.18a20.23,20.23,0,0,0-.86,4c-5.13-4.39-5.41-4.59-6.17-4.86.77,1.68,1.14,3.2.4,4.9-1.06,2.39-2.55.71-4-.68-.32-.31-.59-.35-.84.09-.56,1-.37,3.1-1.06,3.24-.31.06-.33-.07-4.83-3.53-.38-.3-.93-.6-1.31-.3,0,.66.08,3.89-.23,4.36s-1,.14-1.43-.22c-4.25-3.62-4.67-4.11-5.66-4.32a11.77,11.77,0,0,1-.51,5c-.09.42-.33.94-.76.9a.88.88,0,0,1-.49-.3c-.46-.43-4.5-5.11-4.66-4.92-1,1.25-1.24,1.73-1.64,1.76s-.6-.26-4.12-3.08a3.53,3.53,0,0,0-2.3-1,4,4,0,0,1-.84,2.19c-1-.4-4.67-4.36-5.18-1.64-.29,1.57,4.59,5.65,6.45,10.53a10,10,0,0,1,2.13-7.34c.28,1.34,1.34,2.35,2.23,3.39a25.85,25.85,0,0,1,3.78,6.26,49.93,49.93,0,0,0,.25-6.58c0,.76,2,2.41,2.51,3a22.35,22.35,0,0,1,3.84,6.1,30.15,30.15,0,0,1,2.89-8,18.8,18.8,0,0,1,6.78,8.27c.07-1,.43-8.34-.26-8.62A8.37,8.37,0,0,1,134,109c.32-2,.82-3.85,1.24-5.78,1.65,2.57,3.66,5.3,4.05,8.42a52.16,52.16,0,0,0,1.51-11.21c0,.47,2.71,2.82,3.13,3.35a11.21,11.21,0,0,1,2.1,3.34c.23-1.22,1.91-7.57.54-8.31a17.76,17.76,0,0,1,6.83,6.66c-.12-2.64-.46-5.31-.71-8a35.7,35.7,0,0,1-.12-3.61c.71.89,3.2,5.69,3.2,5.69,1.19-6-.5-12.21-1.07-14a17.26,17.26,0,0,1-.4,2.09C154.21,88.82,154.75,90.58,153.61,90.92Z"/><path class="cls-6" d="M108.76,82.65a1.77,1.77,0,0,1-.93,1.47,4.75,4.75,0,0,1-1.74.48,8.32,8.32,0,0,1,5.79,2.31,9.65,9.65,0,0,0-3.66-5.83A6.8,6.8,0,0,1,108.76,82.65Z"/><path class="cls-6" d="M115.86,90.64a41.85,41.85,0,0,1-2.61,7.93,2.6,2.6,0,0,1-.94,1.28,55.26,55.26,0,0,0,.57-6.29C114.12,94.34,115.27,92,115.86,90.64Z"/><path class="cls-6" d="M121.63,90.66a13.91,13.91,0,0,0-.78-6.85c0,.53,0,2.46-.56,2.73s-2-1-2.3-1.41A15.49,15.49,0,0,1,121.63,90.66Z"/><path class="cls-6" d="M121.94,78.24c-1.25-2.18-4.12-2.58-7.53-3.18,1.7.07,2.48.16,3.2-.2a1.34,1.34,0,0,0,.75-1.63C119.72,74.43,121.8,76.89,121.94,78.24Z"/><path class="cls-6" d="M128.35,67.2c-1.41-.86-3.17-1.17-6-1.64,1.85.31.9,2,0,2.73a15.7,15.7,0,0,1,3.16-.85C126.14,67.33,127.77,66.85,128.35,67.2Z"/><path class="cls-6" d="M137.65,83.8c-2.48-3.49-3.43-3.48-6-5.29a20.28,20.28,0,0,0-2.38-1,5.63,5.63,0,0,0,1.65.5,3.27,3.27,0,0,0,1.64.05c1.64-.5,1-3.14.28-4.15A38,38,0,0,1,137.65,83.8Z"/><path class="cls-6" d="M145.23,76.7A3.69,3.69,0,0,0,143,74.85c-.88-.34-2.15-1.22-3.11-1.24,1.27,0,1.73-.73,1.76-1.94a1.67,1.67,0,0,0-.55-1.36C142.71,71.11,144.56,74.8,145.23,76.7Z"/><path class="cls-6" d="M147.23,85.85c-.56,1.37-1.1,3.41-2.35,1.79a17.65,17.65,0,0,1-1.12-1.6c1.08,2.59,1.71,5.55.77,8.19C146.84,90.42,147.29,90.2,147.23,85.85Z"/><path class="cls-6" d="M132.26,90c-.25-.2-.48-.41-.73-.6a5,5,0,0,1,0,2.45c-.79,1.88-2.58.3-3.39-.62A27.42,27.42,0,0,1,131,98.69c.72-2.1.52-4.16.85-6.33a4.19,4.19,0,0,0,0-2.11c1,1.1,2.06,2.32,2.12,3.8a16.34,16.34,0,0,0,.17-3,6.44,6.44,0,0,0-.78-2.78C133.57,88.9,133.35,90.91,132.26,90Z"/><path class="cls-5" d="M125.52,76a29.19,29.19,0,0,1,3,.94c3.9,1.47,8,3.74,10,7.42l-1,.34c.16-.25,0-.49-.05-.94a27.62,27.62,0,0,0-.8-2.72,17,17,0,0,0-4.34-7.19,6.8,6.8,0,0,0-.73-.57,7.14,7.14,0,0,0-1.62-.88.26.26,0,0,1-.16-.35A.26.26,0,0,1,130,72a9.23,9.23,0,0,1,.9.42,12.26,12.26,0,0,1,4.63,4.95,27.62,27.62,0,0,1,2.67,6.76.79.79,0,0,0,.25.45.57.57,0,0,1-.76.84c-.4-.37-1.1-4.26-9.49-7.77a28.75,28.75,0,0,0-2.87-1,4.78,4.78,0,0,0-1-.22.25.25,0,0,1-.23-.28C124.22,75.67,124.85,75.89,125.52,76Z"/><path class="cls-5" d="M138.36,73c2.09.42,5.53,1.73,6.79,3.54a4,4,0,0,1,.62,1l-.73.27a20,20,0,0,0-3.88-7,7.84,7.84,0,0,0-4-2.46.26.26,0,1,1,.1-.51,8.27,8.27,0,0,1,.83.19c3.74,1,6.57,5.88,7.67,9.56a.39.39,0,0,1-.73.27,3.32,3.32,0,0,0-.52-.84c-1.09-1.64-4.39-3-6.29-3.51a.26.26,0,0,1-.19-.32A.25.25,0,0,1,138.36,73Z"/><path class="cls-5" d="M111.82,91.15a13.57,13.57,0,0,1,1.34,7.09,5.74,5.74,0,0,1-.57,1.75l-1.17-.82h0c1.7-1.3,4.37-6,4.11-9.33a6.51,6.51,0,0,0-.57-2.32.26.26,0,0,1,.48-.2A7.9,7.9,0,0,1,116,91.5a19.42,19.42,0,0,1-2.64,7l-.81,1.53a.71.71,0,0,1-1.16-.82,5.38,5.38,0,0,0,.78-3.26,16.39,16.39,0,0,0-.81-4.65.26.26,0,0,1,.16-.33A.27.27,0,0,1,111.82,91.15Z"/><path class="cls-5" d="M120,68.93c.78-.31,1.57-.57,2.36-.82A19.3,19.3,0,0,1,129.84,67l-.23.77a33.41,33.41,0,0,0-6.3-2,7.77,7.77,0,0,0-2.94-.07.26.26,0,0,1-.11-.5A6.44,6.44,0,0,1,122.8,65a19,19,0,0,1,3.64.75A36.36,36.36,0,0,1,129.93,67a.42.42,0,0,1,.21.53c-.16.36-.55.23-1,.17a10.43,10.43,0,0,0-1.19,0c-.15,0-.87.08-1.21.14-1.27.2-1.72.29-3,.59s-2.47.65-3.57,1a.27.27,0,0,1-.33-.17A.26.26,0,0,1,120,68.93Z"/><path class="cls-5" d="M127.63,89.56A44.44,44.44,0,0,1,129.92,94,13.79,13.79,0,0,1,131.36,99l-1.16-.16a25.5,25.5,0,0,0,1-7.07,5.68,5.68,0,0,0-.41-2.22A.39.39,0,0,1,131,89c.37-.14.67.39.93.73a11.58,11.58,0,0,1,2.32,5l-.64,0c.79-3.24-.07-6.26-1.18-7.46l-.33-.4,0,0a.25.25,0,0,1,0-.36.27.27,0,0,1,.37,0l.36.43a2.48,2.48,0,0,1,.33.45c.1.16.22.31.3.47a5.22,5.22,0,0,1,.46,1,8.88,8.88,0,0,1,.5,2.16,11.89,11.89,0,0,1,0,2.75c-.1.94-.16,1.44-.56,1.35a.34.34,0,0,1-.26-.28,11.38,11.38,0,0,0-2.75-5.19l.64-.43c1,2.42.58,5.78.08,8.71-.05.27-.17.95-.23,1.22a.6.6,0,0,1-1.17-.15,5.52,5.52,0,0,0-.08-1.13,16.53,16.53,0,0,0-.57-2.33,42.84,42.84,0,0,0-2.36-5.67.27.27,0,0,1,.12-.36A.26.26,0,0,1,127.63,89.56Z"/><path class="cls-5" d="M111.08,75a20.21,20.21,0,0,1,6.48.35,8.38,8.38,0,0,1,5.58,3.53l-1,.48A15.74,15.74,0,0,0,121,76.87c-1.85-3.12-4-4.34-5.63-4.53-.19,0-.76-.07-.7-.07a.26.26,0,0,1,0-.51,7.22,7.22,0,0,1,5.27,2.33,16,16,0,0,1,3.25,4.84.56.56,0,0,1-1,.48,6,6,0,0,0-2-2.09c-2.43-1.58-6.21-2-9-1.84a.26.26,0,0,1-.28-.25A.25.25,0,0,1,111.08,75Z"/><path class="cls-5" d="M142,82.35c1.85,2.4,3.65,5.91,3.72,9a7,7,0,0,1-.73,3.44L143.71,94c.54-.79,4.55-5.21,2.43-9.88a.26.26,0,1,1,.45-.26,6.43,6.43,0,0,1,1,3.53c.11,2.83-1.82,6.55-2.69,7.59a.78.78,0,0,1-1.3-.86c.11-.21.23-.4.32-.62,1.48-3-.52-8-2.36-10.79a.27.27,0,0,1,.07-.37A.27.27,0,0,1,142,82.35Z"/><path class="cls-5" d="M104.64,84.79a9.78,9.78,0,0,1,7.8,1.76l-.62.45a13.52,13.52,0,0,0-2.92-4.79,14.61,14.61,0,0,0-3.49-2.72.26.26,0,0,1,.25-.46,13.22,13.22,0,0,1,6.91,7.71.39.39,0,0,1-.61.45,9.64,9.64,0,0,0-7.21-1.85c-.34.06-.76.21-.82-.12S104.31,84.87,104.64,84.79Z"/><path class="cls-5" d="M116.63,83.22c.59.59,1.14,1.21,1.69,1.84a19.3,19.3,0,0,1,4,6.42l-.8.09c0-2.71-.29-7-1.75-9.25-.23-.36.22-.58.4-.34,1.18,1.54,1.61,3.34,1.92,5.9a34.64,34.64,0,0,1,.24,3.69.4.4,0,0,1-.79.12c-.76-2.6-3.52-6-5.31-8.12a.26.26,0,0,1,0-.37A.26.26,0,0,1,116.63,83.22Z"/><path class="cls-1" d="M34.68,59.32c-1.31.29-2.25,1.46-3.62,1.44-2,0-.91-2.83.72-4,6.21-4.55,10.57-.37,17.85-2.49,3.77-1.1,9.66-4,12.43.14s-1.29,7.79-3.93,9-8.49,1.38-12-.07a5.75,5.75,0,0,0-4.64-.19A14.83,14.83,0,0,1,38.32,67c-1.08.73-2.83.59-2.82-1,0-2.09,1.88-3.11,2.09-4-1-.15-1.35,1.11-3.06,2.72-1.55,1.46-3.24,0-2.82-1.9s1.13-1.82,2.7-3C34.57,59.69,34.75,59.51,34.68,59.32Z"/><path class="cls-3" d="M30,59.24c-.2.83,0,1.51,1,1.52a5.71,5.71,0,0,0,2.67-1.08l.09-.09A5.3,5.3,0,0,1,30,59.24Z"/><path class="cls-3" d="M43.68,61.28a1.63,1.63,0,0,1-.31.27c-2.32,1.54-3.19,2.69-4.45,3.17a2.19,2.19,0,0,1-2.41-.51,2.08,2.08,0,0,1-.23-.38A3.62,3.62,0,0,0,35.5,66c0,1.6,1.74,1.74,2.82,1a14.83,14.83,0,0,0,3.2-3.93,5.75,5.75,0,0,1,4.64.19c3.48,1.45,9.33,1.25,12,.07A9,9,0,0,0,62.65,59C57.06,63.74,47.9,60.05,43.68,61.28Z"/><path class="cls-3" d="M32.84,63a2.12,2.12,0,0,1-.74-1.29c-1.38,2.6.65,4.68,2.43,3,.49-.46,1.31-1.41,1.65-1.82C35.31,63.27,33.52,63.64,32.84,63Z"/><path class="cls-2" d="M48.16,55.71c8.28-.59,8.91-2.44,12.47-2.73-3.06-1.89-7.79.34-11,1.27-7.22,2.1-11.68-2-17.85,2.49A5,5,0,0,0,30.1,59C34.52,54.49,42.4,56.12,48.16,55.71Z"/><path class="cls-1" d="M97.59,70.77c-3.64-6.91-6.31-19-7.49-27.09-.45-3.08-.49-6.11-.74-9.19-.4-5.06-6-9.08-15-5.86-7.84,2.81-7.5,7.19-8.29,9.85a18,18,0,0,1-3.83,6.34C59,48.55,47.82,58.33,44.08,63.66S34,85,37.68,91.22s13.69,15.64,26,16.35S95.64,101.88,98,93,102.75,80.55,97.59,70.77Z"/><path class="cls-2" d="M47.14,65.89c6.08-9,6.81-8,9.16-9.51,3.34-2.14,10.71-11.85,13-19.12.22-.7.75-7,.12-6.77-4.11,1.85-.66,6.68-7.21,14.33C59,48.55,47.82,58.33,44.08,63.66S34,85,37.68,91.22c.89,1.46,1.59,2.47,1.65,4.23C39.94,83.43,40.52,75.68,47.14,65.89Z"/><path class="cls-3" d="M87.69,34.49A76.06,76.06,0,0,0,96.31,68c-3-7.2-5.06-16.44-6.21-24.33-1.08-7.4.21-11-2.79-13.53l-.18,2.49A3.55,3.55,0,0,1,87.69,34.49Z"/><path class="cls-7" d="M56.41,50.33c6.69-4.38,14.86-9.67,18.07,8,1.07,5.87,2.48,17.08,3.2,25.06.89,9.78-3.73,22.58-8,25.78s-10.31,2.13-18.48-.89S37,98.15,35.73,88c-.84-6.81,2.14-14.28,5.16-20.22A44.27,44.27,0,0,1,56.41,50.33Z"/><path class="cls-8" d="M54.26,105.61c-6.92-1.61-13.84-5.9-17.21-11.83a23.31,23.31,0,0,0,14.15,14.5c14.31,5.29,19.15,3.2,23.16-6.17A25.61,25.61,0,0,1,54.26,105.61Z"/><path class="cls-9" d="M72.67,51.78C68.94,42.73,63,46,56.41,50.33A44.27,44.27,0,0,0,40.89,67.8c-6.1,12-5.91,18.48-4.41,24.12C38.23,63.5,61,40.76,72.67,51.78Z"/><path class="cls-1" d="M55,79c-.82-.15-1,.88-1.29,1.43a3.94,3.94,0,0,1-1.65,1.66C50,83.2,49.6,79.64,50.66,77.51c4.07-8.13,10.92-6.1,17.42-12.26,3.38-3.2,8-9.43,13.16-6.58s2.84,8.89.71,11.55-8.18,6-12.62,6.4c-6.13.49-4.59,5.19-6.22,8.18-1.07,2-3,1.78-3.56.36a6.93,6.93,0,0,1-.41-2.51c0-.59.37-1.43.14-2-1.26.07-.53,2.13-.74,2.88-.72,2.66-3.59,3.3-4.55.73a4.61,4.61,0,0,1,0-2.75C54.2,80.77,55.09,79.76,55,79Z"/><path class="cls-2" d="M70.3,64.76c4.35-3.14,9-5.35,13.76-2.87a5.74,5.74,0,0,0-2.82-3.22c-5.92-3.27-10.8,5.19-15.38,8.4A18.11,18.11,0,0,0,70.3,64.76Z"/><path class="cls-3" d="M54.25,79.45c-1.33,1.1-2.83,1.64-4.17.77,0,1.46.68,2.58,2,1.91a4.69,4.69,0,0,0,2.1-2.55Z"/><path class="cls-3" d="M58.57,81.56a2.35,2.35,0,0,1-4.3-.83A5.29,5.29,0,0,0,54,84.29c1,2.57,3.83,1.94,4.55-.73A11.8,11.8,0,0,0,58.57,81.56Z"/><path class="cls-3" d="M67.23,75.53c-3.71,2-3.73,6.09-6.73,6.93a1.65,1.65,0,0,1-1.35-.14c-.18,4.91,2.8,4.59,4,2.48,1.63-3,.09-7.69,6.22-8.18,4.44-.35,10.49-3.73,12.62-6.4a11.83,11.83,0,0,0,2.14-4.37C80.31,72.35,69.75,74.19,67.23,75.53Z"/><path class="cls-1" d="M76.26,96.91s4.62-10.49,10.49-12.63,12.8-1.06,13.69,6c.51,4.07-1.47,7.09-3.66,10.3a25,25,0,0,1-8,7.2,46.11,46.11,0,0,1-13.14,4.92c-.47.11-4.13.6-4.21.87Z"/><path class="cls-2" d="M100.18,89c-1.56-5.89-8-6.69-13.43-4.7-5.87,2.14-10.49,12.63-10.49,12.63s-.39,1.34-.94,3.28C81.1,85.51,93.65,84.79,100.18,89Z"/><path class="cls-3" d="M72.72,109.23l-1.26,4.39c.08-.27,3.74-.76,4.21-.87,8.07-1.86,16.47-5.3,21.11-12.12a26.49,26.49,0,0,0,3-5.16C94.73,102,83,109.71,72.72,109.23Z"/><path class="cls-1" d="M68.72,91.26c0-1.25-1.33-4.15-3-3.78-4.52,1-.52,6.58-3.57,15.28-1,2.92-2.05,6.31.32,9.85,2.72,4.08,7.51,3.64,11,.88,3.9-3,4.62-8.59,6-12.93,1.14-3.42,4.41-8.5,2.59-10.81a3,3,0,0,0-3.78-.46,9,9,0,0,0-2.81,3,9.93,9.93,0,0,0-.26-4,3,3,0,0,0-5.73-.52A10,10,0,0,0,68.72,91.26Z"/><path class="cls-2" d="M70.87,88.81a3.77,3.77,0,0,1,3.71.93,6.89,6.89,0,0,1,1,1.68l.07,0a8.06,8.06,0,0,0-.31-3.06c-1-2.87-4.2-3.32-5.73-.52a7.64,7.64,0,0,0-.74,2.39A3,3,0,0,1,70.87,88.81Z"/><path class="cls-2" d="M65.38,89.81a2.84,2.84,0,0,1,1.2,0,3.69,3.69,0,0,1,.45.11l.13,0,.22.08a4.83,4.83,0,0,1,1.2.7.59.59,0,0,1,0-.08c-.34-1.39-1.46-3.46-2.85-3.14a2.6,2.6,0,0,0-2.26,2.61A3,3,0,0,1,65.38,89.81Z"/><path class="cls-2" d="M78.42,89.29a6.69,6.69,0,0,0-2,1.86c2.62-.59,4.7,1.09,5.59,3.6C84.31,88.43,80.16,88.34,78.42,89.29Z"/><path class="cls-3" d="M70.49,111.53c-3.2,1.17-7.93.53-9.4-3.09a9.29,9.29,0,0,0,1.43,4.17c2.72,4.08,7.51,3.64,11,.88,4-3.13,4.65-8.91,6.15-13.18C77.56,104.7,75,109.86,70.49,111.53Z"/><path class="cls-4" d="M66.5,110c4.21,2.73,9.17-8.35,5.8-11.1a3.39,3.39,0,0,0-4.52-.13c-1.5,1.27-1.7,3.24-2.26,5a9.49,9.49,0,0,0-.55,3.32A3.71,3.71,0,0,0,66.5,110Z"/><path class="cls-6" d="M73.34,100.86a3.17,3.17,0,0,0-1-2,3.39,3.39,0,0,0-4.52-.13,6.69,6.69,0,0,0-1.89,3.71C68,99.23,71.28,99.25,73.34,100.86Z"/><path class="cls-5" d="M68.08,108.48A6.66,6.66,0,0,1,65,107.37,3.6,3.6,0,0,0,66.5,110c2.84,1.85,6-2.6,6.75-6.53C72.41,105.91,70.87,108.73,68.08,108.48Z"/><path class="cls-10" d="M13,45.06c-2.6,2.79-5.54,3.49-7.7,4.65-1.3.71-2.53,1.66-3.76,2.5-.37.25-1.5.8-1.5,1.28a5.2,5.2,0,0,1,2.08.28.42.42,0,0,1,.06.19c0,.41-.3,1.95.16,2,.08,0,.15-.06.21-.12.6-.65,1.16-1.36,1.8-2,3.43-3.29,8.84-5,10.92-7.26,1-1,3-5.21-.26-4C13.92,42.93,13.71,44.26,13,45.06Z"/><path class="cls-11" d="M59.74,7.41q-.39-.41-.81-.78a8.59,8.59,0,0,1-.28,2.48C59,8.59,59.39,8,59.74,7.41Z"/><path class="cls-1" d="M61,3.9S55.25-.89,53,.15s-6.7,2.94-5.1,6.91,7.61,5.7,9.55,5.1S61,3.9,61,3.9Z"/><path class="cls-2" d="M59.74,2.94C57.93,1.6,54.6-.59,53,.15c-2.09,1-6.16,2.71-5.33,6.21C49,2.75,54.43.23,59.74,2.94Z"/><path class="cls-4" d="M58.59,6.85s-3.36-3.42-5.33-3-2.74,3-2.74,3-.05,1.51,3.25,2.87S57.67,10.43,58.59,6.85Z"/><path class="cls-5" d="M55.14,5.56A14.65,14.65,0,0,1,58.57,7s0-.07,0-.11-3.36-3.42-5.33-3a3.5,3.5,0,0,0-2.19,1.81A6.12,6.12,0,0,1,55.14,5.56Z"/><path class="cls-1" d="M95.29,24.44c.19-5.22-2.52-7-4.84-10.06A138.91,138.91,0,0,0,80.77,2.76c-2.71-2.71-7.69-2.61-11-.43C67.2,4,66.74,2.42,64.8,2c-2.69-.54-5.33,1.28-6.68,3.53-2,3.29-3.15,8-3.76,11.72a19.44,19.44,0,0,0,2.4,13.43c2.56,4.45,11.07,6.07,16.2,6.55,7.89.75,11.73,1.3,17.84-3.64A12.09,12.09,0,0,0,95.29,24.44Z"/><path class="cls-3" d="M83.44,36.69c3-.3,3.58,0,7.36-3.06A12.09,12.09,0,0,0,95.29,24C93.26,29.57,90.49,33.53,83.44,36.69Z"/><path class="cls-2" d="M80.77,2.76c-2.71-2.71-7.69-2.61-11-.43C67.2,4,66.74,2.42,64.8,2c-3.61-.73-6.26,2.56-7.89,5.86,2.44-2.84,5.79-4.64,9.33-3.44,1.35,0,2.94.5,4-.14s3.2-2.3,6.32-1.91c2.91.37,5.39,2.26,7.58,4.12C82.92,5.06,81.73,3.72,80.77,2.76Z"/><path class="cls-3" d="M67.9,13.16c-1,3.46-4,5.6-6.87,4.79s-4.36-4.29-3.4-7.75,4-5.61,6.87-4.79S68.86,9.7,67.9,13.16Z"/><path class="cls-3" d="M80.41,12.89c-1.1,4-4.56,6.43-7.74,5.51S67.8,13.53,68.9,9.57s4.56-6.43,7.74-5.51S81.5,8.93,80.41,12.89Z"/><path class="cls-12" d="M67.9,12.16c-1,3.46-4,5.6-6.87,4.79s-4.36-4.29-3.4-7.75,4-5.61,6.87-4.79S68.86,8.7,67.9,12.16Z"/><path class="cls-13" d="M63.44,15A4.11,4.11,0,0,1,59,13.79a6.2,6.2,0,0,1-1.55-1.56c.81,6.26,8.17,6.58,10.32.44A8.25,8.25,0,0,1,63.44,15Z"/><path class="cls-12" d="M80.41,11.89c-1.1,4-4.56,6.43-7.74,5.51S67.8,12.53,68.9,8.57s4.56-6.43,7.74-5.51S81.5,7.93,80.41,11.89Z"/><path class="cls-13" d="M75.51,15c-3.2,1.31-5.78-.56-6.94-3.79.07,3,1.64,5.49,4.1,6.2,3.29,1,6.88-1.73,7.83-5.9A7.9,7.9,0,0,1,75.51,15Z"/><path class="cls-14" d="M63.3,12.11a2.37,2.37,0,0,1-.43-4.59c.27-.08.48,2.17.79,2.2s.81-2.12,1.11-1.92A2.36,2.36,0,0,1,63.3,12.11Z"/><path class="cls-14" d="M75,12.13a2.47,2.47,0,0,1-.35-4.83c.26-.06.45,2.54.73,2.57s.86-2.45,1.18-2.23A2.46,2.46,0,0,1,75,12.13Z"/><path class="cls-1" d="M85.8,6.11S88,1.5,91.74,1s8.07,1,8.36,5.36c.16,2.48.09,5.4-1.59,7.4-1.44,1.73-4.93,3.24-7.15,2.87C87.32,15.92,83.76,9.88,85.8,6.11Z"/><path class="cls-3" d="M94.5,14.66a5.44,5.44,0,0,1-3.79,1.19,7.92,7.92,0,0,1-1,.19,5.6,5.6,0,0,0,1.62.57c2.22.37,5.71-1.14,7.15-2.87a8.93,8.93,0,0,0,1.64-5.93A11.33,11.33,0,0,1,94.5,14.66Z"/><path class="cls-2" d="M88.29,4.86C90.24,3.19,92.46,2.15,95.5,3a13.3,13.3,0,0,1,4.43,2.29C99.09,1.79,95.2.49,91.74,1c-3.3.46-6.23,4.54-6.5,7C86.71,6.35,87,5.79,88.29,4.86Z"/><path class="cls-4" d="M91.64,5.43c2.8-.07,5.11,2.59,3.41,4.64-4.73,5.68-8.16,4-8.39,1.63S89.13,5.49,91.64,5.43Z"/><path class="cls-5" d="M95.11,7.07a4.2,4.2,0,0,0-3.47-1.64c-2.19.06-4.51,3-4.93,5.28C87.56,9.21,91.33,5.28,95.11,7.07Z"/><path class="cls-1" d="M76.5,30.38c-4,7.32-13,7.85-20.3,6.58-3.89-.68-7.77-1.64-11.71-1.66A79.22,79.22,0,0,0,30.24,37a30.28,30.28,0,0,0-7.91,3.51c-2.22,1.29-5.4,4.81-7.84,4.86-.4,0-2.94-.24-4-1.73C8.4,40.68,12.1,32.78,23.12,27.1c8.34-4.28,18.81-6,28.26-7.63,2.4-.42,4.86-.28,7.28-.57,2.21-.26,4.39-.44,6.6-.57C71.6,17.93,80.64,22.86,76.5,30.38Z"/><path class="cls-3" d="M62.11,34.44c-7.12-1-14.36-2-21.55-1.25a48.64,48.64,0,0,0-23.09,9.46c-.92.7-2.77,2.8-4.12,2.51a3.49,3.49,0,0,0,2.84-.34c2.46-1.16,3.92-3.07,6.14-4.36A30.28,30.28,0,0,1,30.24,37a62.49,62.49,0,0,1,9.43-1.37c7.49-.7,8.71,0,16.53,1.38,6,1,13.12.87,17.7-3.28A25.37,25.37,0,0,1,62.11,34.44Z"/><path class="cls-2" d="M58.66,18.51c-2.42.29-4.88.15-7.28.57-9.45,1.67-19.92,3.35-28.26,7.64-11,5.64-14.57,13.39-12.73,16.34.53-6.28,8-11.05,14-14.39a49.81,49.81,0,0,1,12.77-4.8c4.24-2.07,9.19-2.36,14-2.71a28.49,28.49,0,0,1,7.8-1c2.46-.33,5-.18,7.49-.35,2-.14,3.78-.5,5.91-.68C69.67,18.15,69.35,17.26,58.66,18.51Z"/><path class="cls-15" d="M16.75,39.57A1.74,1.74,0,0,1,16.36,41a1.5,1.5,0,0,1-2.75-1.21C13.94,38.57,16.28,38.09,16.75,39.57Z"/><path class="cls-16" d="M15.57,45A14.79,14.79,0,0,0,19,42.08a49.83,49.83,0,0,0,3.8-6.21c.09-.17.4-.12.32.18a24.94,24.94,0,0,1-1.93,4.49,11.64,11.64,0,0,1-2.09,2.79,7.93,7.93,0,0,1-1.33,1A7.1,7.1,0,0,1,16,45a1.43,1.43,0,0,1-.61.1Z"/></g></g></g></svg>