<svg xmlns="http://www.w3.org/2000/svg" viewBox="0 0 116.88 126.36"><defs><style>.cls-1{fill:#cbcbf5;}.cls-2{fill:#e8ebf5;}.cls-3{fill:#9090f0;}.cls-4{fill:#adadf5;}.cls-5{fill:#7f7feb;}.cls-6{fill:#5558a6;}.cls-7{fill:#fff;}.cls-8{fill:#d3d6ed;}.cls-9{fill:#1d2238;}</style></defs><g id="Слой_2" data-name="Слой 2"><g id="animal"><g id="octupus"><path class="cls-1" d="M68.47,80.36c.92,0,2,8.67,3.27,10C83.51,103.06,105,98,109.9,81.74c-.61,2-8.62,9.83-13.88,11.21-4,1-10.58,1.64-14.14-1C76.82,88.1,73.84,80.35,68.47,80.36Z"/><path class="cls-1" d="M74.82,69.66c1.34,1.83,5.34,2,7.39,1.67a11.88,11.88,0,0,0,2.42-1,30.66,30.66,0,0,1,4.18-.71c4.51-.92,9.34-3.9,10.09-8.52.27-1.71,1-3.44,1.17-5.12s-.64-10.22,1.24-16.8c1.12,10.08,3.1,23.6-4.24,31.94a20.31,20.31,0,0,1-14.39,6.72C79.85,75.42,76.7,72.93,74.82,69.66Z"/><path class="cls-1" d="M49.81,92.19C48.74,95.12,47,99,47,102.17a32.22,32.22,0,0,0-.84,4.55c-.31,6.13-8.13,14.11-14,14.48a18.59,18.59,0,0,0,15.14-9.37c3.84-6.46,4.27-14.53,9.64-19.86.53-.54,1.31-1,1.78-1.55.7-.85.48-1.11.17-2.26-.61-2.26-1.58-4.88-4.54-3.56C51.66,85.78,50.7,89.77,49.81,92.19Z"/><path class="cls-2" d="M49.81,92.19C48.74,95.12,47,99,47,102.17a32.22,32.22,0,0,0-.84,4.55c-.31,6.13-8.13,14.11-14,14.48a18.59,18.59,0,0,0,15.14-9.37c3.84-6.46,4.27-14.53,9.64-19.86.53-.54,1.31-1,1.78-1.55.7-.85.48-1.11.17-2.26-.61-2.26-1.58-4.88-4.54-3.56C51.66,85.78,50.7,89.77,49.81,92.19Z"/><path class="cls-1" d="M65.9,119.37c-1.21-5.79-.37-4.59-.46-6.61-.07-1.32-.51-2.64-.63-4-.47-5.3-.2-12.91-3.44-18.42a11.17,11.17,0,0,0-1.91-2.56,6.65,6.65,0,0,0-.82-.67,12.38,12.38,0,0,1-.92-.87,3.57,3.57,0,0,0-.28-.27.5.5,0,0,0-.37-.1c0,.06,0,.13-.07.2a5.7,5.7,0,0,0,0,1.65c0,.49,0,1,0,1.47s0,1.23.05,1.84a3.22,3.22,0,0,0,.25,1.31,39.16,39.16,0,0,1,4,13.72C62.17,112,63.13,118,66.82,123,66.22,122.15,66.11,120.34,65.9,119.37Z"/><path class="cls-1" d="M28.68,67.51c2.47.51,5,2,7.34,2.28,1.14.11,2.55-.76,2.77.66.4,2.47-5.29,4.73-7.08,4.65C18.56,74.54,7,56.61,15.46,33.24c-.62,1.72-.35,4.31-.5,6.14-.48,5.95-1.58,8.85.7,15.71C17.68,61.13,22.11,66.15,28.68,67.51Z"/><path class="cls-1" d="M42.74,83.1a19.58,19.58,0,0,0,2.64-1.69A37.6,37.6,0,0,0,39,90.93C25.9,95.37,21.08,95.34,7.33,85.87c4.55.19,8.43.15,12.59,1.83s9.47,2.31,13.75.48a26.71,26.71,0,0,0,3-1.26C38.16,86,42.18,83.49,42.74,83.1Z"/><path class="cls-3" d="M58.44.08c4.48.41,12.83,2.71,17.92,7.5,6,5.62,11.18,15.92,8.83,26.17C84,39.06,72.74,54.64,80.68,58.48a6.26,6.26,0,0,0,5.81-.3c7.6-4.36,2.88-12.19,5.38-18.63a12,12,0,0,1,4.42-5.81,7.6,7.6,0,0,1,7.16-.76,4.67,4.67,0,0,1,2.53,5.5,4.25,4.25,0,0,1-2.84,2.78,3.31,3.31,0,0,1-2.56-.52c.12,11.58.65,20.08-5,26.41-3.37,3.75-9.68,7-15,6.3a.19.19,0,0,0-.18.31c1.53,1.86,3.59,7.93,9.47,9.39,3.48.86,7.28-.29,10.39-1.85s5.28-4.89,8.64-6.07c4.71-1.66,8.59,2.27,7.84,6.82a5.05,5.05,0,0,1-2.91,3.87,3.91,3.91,0,0,1-4.59-1.18,33.36,33.36,0,0,1-5.57,5.57,22.79,22.79,0,0,1-20,3.54c-3.26-1-6.85-2.77-8.61-5.76,3.6,6.12,2,17.44.38,24.08-.17.65-.41,3.21-1,3.55,1.35-.75,2-.64,3.45-.14.7.23,2.11.56,2.55,1.21,1.33,1.79.93,4.31-.15,6.11-2.82,4.7-9.49,4.17-13.1.72-1.54-1.47-1.74-3.05-2.14-5-.71-3.53-1.64-7.24-1.44-10.85.35-6.27-.2-11.52-3.09-17-.21-.41-2.77-4.74-3-4.59-1.46.91-2.76,1.33-3.86,2.73-6.24,8-3.65,18.89-11.41,26.71-3.68,3.71-11.19,8.5-16,4-2.87-2.71-2.63-7.18,2.15-8.7a4.14,4.14,0,0,1,4.3.81c3.93-5.61-.4-17,3.83-23.36a22.89,22.89,0,0,1,1.63-2.54c-6.4,6.95-19,4.25-27.86.95a5.85,5.85,0,0,1-3,3.57C.74,93.22-2.26,83.45,1.94,79.66A12,12,0,0,1,10.39,77c2.5.1,4.73.92,7.15,1.36,2.62.47,15.74-.07,19-7.6C32.82,72,27.64,69.86,24.43,68c-7.33-4.3-10.25-10.08-11.33-17a26.72,26.72,0,0,1,.13-7.2c.08-.73,1.35-7.57,1-7.69C10.05,34.42,7,28.34,12.45,25.73a6.69,6.69,0,0,1,6.4.43c11.31,7-1.31,24.55,11.62,30.61,4.27,2,9.67,2.1,9.59-4.22-.07-5-9.54-13-10.58-24.09C27.93,11.69,44.67-1.17,58.44.08Z"/><path class="cls-4" d="M34.58,24.07a25.93,25.93,0,0,1,2.6-7.73C40.62,6.07,58.27.8,67.68,3.67A30.62,30.62,0,0,1,77.57,8.8C72.55,3.43,64.21.61,58.44.08c-13.77-1.25-30.51,11.61-29,28.38.71,7.61,5.38,13.75,8.27,18.48C37.81,39.67,32.4,36.62,34.58,24.07Z"/><path class="cls-4" d="M23.85,38.94c-.12-4.53-.7-10.12-5-12.78a6.71,6.71,0,0,0-6.41-.43c-1.7.81-3.32,2.82-2.95,4.78C11.32,24.69,23.48,24.59,23.85,38.94Z"/><path class="cls-4" d="M32.7,111.61c-3.14-2.42-8.12-.42-8.58,3.49.2-1.7,3.76-3,5.2-2.94,1.63.11,3.43,1.8,4,3.21a4.09,4.09,0,0,0-1-3.89c0-.19.71-.8.85-1,.26-.33.51-.68.74-1a12.74,12.74,0,0,0,1.14-2.16c1.28-3.09,1.44-6.52,1.65-9.82.13-2,.26-4,.49-6,.12-1.1.28-2.19.47-3.29a7.19,7.19,0,0,1,.35-1.79c.26-.57.45-1.16.66-1.75a14.77,14.77,0,0,0-1.84,2.72,25.59,25.59,0,0,0-1.41,2.76,10.55,10.55,0,0,0-.58,2.73c-.08.85-.26,1.69-.33,2.54a46.58,46.58,0,0,0,0,5.15,43.53,43.53,0,0,1,0,6.15A11.39,11.39,0,0,1,34,109.4C33.89,109.6,32.85,111.73,32.7,111.61Z"/><path class="cls-4" d="M65.58,116.28q.14-.57.3-1.11a3.41,3.41,0,0,1-1.29-.29c-.08.29-.16.58-.25.87.11.46.21.93.29,1.41A2.75,2.75,0,0,1,65.58,116.28Z"/><path class="cls-4" d="M37.81,67.26c-2,6.13-5.11,9.82-14.81,11a18.56,18.56,0,0,1-5.46.14c-2.42-.44-4.65-1.26-7.15-1.36a12,12,0,0,0-8.45,2.65c-2.65,2.39-2.43,7.18-.26,9.63a7.72,7.72,0,0,1-.07-6.11c2.47-5.68,10.09-4.46,14.93-3.33,6.23,1.46,13.58,2,18.3-3.15A11.79,11.79,0,0,0,37.81,67.26Z"/><path class="cls-4" d="M79.13,57.47c.06,1.57,2.26,2.63,3.67,2.84a9.68,9.68,0,0,0,10.91-7.17c1.42-5.43-1.1-11.6,2.2-16.58a10.87,10.87,0,0,1,5.46-4.22c-1.8.62-3.36.28-5.08,1.4a12,12,0,0,0-4.42,5.81c-2.5,6.44,2.22,14.27-5.38,18.63a6.28,6.28,0,0,1-5.82.3A15.14,15.14,0,0,1,79.13,57.47Z"/><path class="cls-4" d="M108.9,75.23c-3.36,1.18-5.59,4.52-8.64,6.07S93.35,84,89.87,83.15s-5.55-3.2-7.38-6a36.71,36.71,0,0,0-2.09-3.39.19.19,0,0,1,.18-.31c5.37.75,12-2.68,15.44-6.87a15.74,15.74,0,0,1-9.57,1.87,3.25,3.25,0,0,1-2.84,1.91,3.79,3.79,0,0,1-4-.41,1.61,1.61,0,0,1,0,.22c-.26,12.08,15.19,20.37,24.73,11.56,1.48-1.37,2.65-3,4.21-4.33s3.74-2.14,5.66-1.45C112.2,75.23,111.17,74.43,108.9,75.23Z"/><path class="cls-4" d="M73,117.38a3.65,3.65,0,0,0,.22,3.52c.49-2.83,4.78-4.07,7.3-3.93C78.9,114.39,74.4,114.6,73,117.38Z"/><path class="cls-4" d="M28.54,120.23a3.15,3.15,0,0,1-.49.54,6.56,6.56,0,0,0,1.48.48c-.23-.5-1.28-1.19-.89-1Z"/><path class="cls-5" d="M14.27,36.05c.31.12-1,7-1,7.69a26.72,26.72,0,0,0-.13,7.2c1.08,7,4,12.74,11.33,17a24.42,24.42,0,0,0,6.84,2.8c1.07.25,4.48,1,5.23-.17a9.66,9.66,0,0,0,1.24-3.22C37.45,69,30,66.13,29.06,65.67a24.73,24.73,0,0,1-7.51-5.73c-5-5.51-6.21-12.48-5.36-19.59a34,34,0,0,1,.54-3.48c.34-1.56,2-2.6,1.72-5a5.55,5.55,0,0,0-1.06-1.7,4.13,4.13,0,0,1-4.53,2.42,4,4,0,0,1-3.16-4,5.51,5.51,0,0,0,.88,4.51A8,8,0,0,0,14.27,36.05Z"/><path class="cls-5" d="M57.25,86.25l.21-.14s.1-.06.1-.11a.16.16,0,0,0,0-.1A5,5,0,0,0,56,83.79a.21.21,0,0,0-.1,0,.15.15,0,0,0-.1.06,37.8,37.8,0,0,0-7.64,10.52c-1.56,3.34-2.58,6.89-3.9,10.34-1.63,4.29-3.62,9.66-7.91,12.12-6.53,3.74-11.22,1-11.6-2.87a5.16,5.16,0,0,0,1.56,5.63c4.78,4.51,12.29-.28,16-4,6.66-6.72,5.52-15.15,9.22-23A14.49,14.49,0,0,1,53.89,89c.49-.54,1-1,1.56-1.54A10.79,10.79,0,0,1,57.25,86.25Z"/><path class="cls-5" d="M79.76,116.21l-.17-.11c1.29,3.63-2.24,7.64-6.9,6.72-7.76-1.52-7.51-10.68-7-16.62.31-4.1-1.24-6.84-3.79-12.54a29.8,29.8,0,0,1,1.93,8.84c.36,12.25,0,14.59.94,17.27,2,6.07,11.68,9.61,15.57,3.13C81.49,120.91,81.88,117.76,79.76,116.21Z"/><path class="cls-5" d="M105.44,35a1.35,1.35,0,0,1-.09-.45,8.07,8.07,0,0,1-.7,2.79,3.26,3.26,0,0,1-2.19,1.79,2.11,2.11,0,0,1-2.39-1.23c-3.27,8.34-.17,16.85-7.5,25.43a16.82,16.82,0,0,1-11.12,6.18,11.14,11.14,0,0,1-2.94-.05,40.64,40.64,0,0,0,2.22,4c5.25.65,11.46-2.61,14.8-6.32,5.79-6.44,5.16-15.25,5-26.41a3.31,3.31,0,0,0,2.56.52A4.25,4.25,0,0,0,106,38.48a4,4,0,0,0,0-2A13.59,13.59,0,0,0,105.44,35Z"/><path class="cls-5" d="M114.91,82.53c-1.86,1.61-4.35,1.54-5.22.45a1.3,1.3,0,0,1,.35-2c-4.32,2.48-6.93,7.18-15.88,8.85C86,91.38,79.61,87.47,77.27,86.65a4.23,4.23,0,0,1-2.72-2.36,18.41,18.41,0,0,0,.71,3.95c.31,1.11,1,1.54,1.94,2.25,8.26,6.31,19.21,5.19,26.47-.18a33.36,33.36,0,0,0,5.57-5.57,3.91,3.91,0,0,0,4.59,1.18c1.34,0,2-1.47,2.49-2.48a5.37,5.37,0,0,0,.55-2.11c0-.65-.32-1.37-.27-2A4.82,4.82,0,0,1,114.91,82.53Z"/><path class="cls-5" d="M36.6,87.18l.21-.16a7.82,7.82,0,0,0,1.89-2c.55-.88.94-1.84,1.46-2.73l.16-.26a2.66,2.66,0,0,1-.87,1.09c-.38.22-.74.46-1.12.69a17.5,17.5,0,0,1-2.47,1.28,24.15,24.15,0,0,1-5.59,1.6,32.74,32.74,0,0,1-11.76-.19c-.61-.13-1.21-.27-1.81-.43-2.19-.6-7.41-2.66-7.4-3.18a5.18,5.18,0,0,1-3.18,4.52,6.42,6.42,0,0,1-2.93.53c-.54,0-2.61-.35-2.81-1,1.76,5.49,8,5,9.93-.23,0,.08,4.82,1.59,5.25,1.71a50.22,50.22,0,0,0,5.69,1.26,25.25,25.25,0,0,0,11-.35A13.26,13.26,0,0,0,36.6,87.18Z"/><path class="cls-6" d="M74.79,22.53c.29,19.11-25.36,21.19-33,4.62-.13-.3-.4-.66-.11-.8s.42.29.88,1.09c6.51,12,27.66,12.87,31.25-1.31a16.79,16.79,0,0,0,.49-3.61c0-.33,0-.76.28-.75S74.79,22.21,74.79,22.53Z"/><path class="cls-5" d="M57.62,20.85c.43,4,3.65,6.84,7.19,6.33S70.88,23,70.45,19s-3.64-6.84-7.18-6.33S57.2,16.85,57.62,20.85Z"/><path class="cls-5" d="M44.83,20.74c0,4,2.71,7.11,6,7s5.9-3.4,5.87-7.37-2.71-7.11-6-7S44.79,16.77,44.83,20.74Z"/><path class="cls-7" d="M57.62,19.85c.43,4,3.65,6.84,7.19,6.33S70.88,22,70.45,18s-3.64-6.84-7.18-6.33S57.2,15.85,57.62,19.85Z"/><path class="cls-8" d="M70.37,20.32a6.91,6.91,0,0,1-5.56,5.86c-4.33.62-7.92-3.69-7.12-8.53C59.83,25.81,67.38,24.77,70.37,20.32Z"/><path class="cls-9" d="M61.53,19.53a2.57,2.57,0,0,0,3.2,1.74A2.51,2.51,0,0,0,65,16.41c-.23-.07-.58,1.8-.83,1.79s-.4-1.87-.66-1.8A2.62,2.62,0,0,0,61.53,19.53Z"/><path class="cls-7" d="M44.83,19.74c0,4,2.71,7.11,6,7s5.9-3.4,5.87-7.37-2.71-7.11-6-7S44.79,15.77,44.83,19.74Z"/><path class="cls-8" d="M44.85,20.24c.25,3.73,2.83,6.6,6,6.51s5.54-3,5.84-6.57A6.42,6.42,0,0,1,44.85,20.24Z"/><path class="cls-9" d="M48.6,19.9a2.49,2.49,0,0,0,3.15,1.39A2.25,2.25,0,0,0,51.87,17c-.23-.08-.75,1.54-1,1.53s-.38-1.65-.7-1.54A2.31,2.31,0,0,0,48.6,19.9Z"/><path class="cls-6" d="M37.42,63.67c-1.93-.26-1.48-3.47.46-3.21S39.36,63.93,37.42,63.67Z"/><path class="cls-6" d="M47.67,65.13A1.65,1.65,0,1,1,46,63.32,1.73,1.73,0,0,1,47.67,65.13Z"/><path class="cls-6" d="M44.54,42.71a2.22,2.22,0,1,1-2.22-2.21A2.21,2.21,0,0,1,44.54,42.71Z"/><path class="cls-6" d="M36.42,31.54c-1.29,0-1.29-2.21,0-2.21S37.7,31.54,36.42,31.54Z"/><path class="cls-6" d="M49,49.49c-1.47,0-1.47-2.52,0-2.52S50.41,49.49,49,49.49Z"/><path class="cls-6" d="M72.53,49.33a1.26,1.26,0,1,1,0-2.52A1.26,1.26,0,1,1,72.53,49.33Z"/><path class="cls-6" d="M79.47,34.38a1.65,1.65,0,1,1-1.64-1.8A1.73,1.73,0,0,1,79.47,34.38Z"/><path class="cls-6" d="M44.63,54.09c-1.19,0-1.19-2.05,0-2.05S45.82,54.09,44.63,54.09Z"/><path class="cls-6" d="M78,42.78c-1,0-1-1.79,0-1.79S79,42.78,78,42.78Z"/><path class="cls-6" d="M74.75,61.35a1,1,0,1,1,0-2.05A1,1,0,1,1,74.75,61.35Z"/></g></g></g></svg>