<svg xmlns="http://www.w3.org/2000/svg" viewBox="0 0 95.06 105.12"><defs><style>.cls-1{fill:#273541;}.cls-2{fill:#1f2c3a;}.cls-3{fill:#e2eaf0;}.cls-4{fill:#bcd0de;}.cls-5{fill:#2f4051;}.cls-6{fill:#ebefff;}.cls-7{fill:#162232;}.cls-8{fill:#fafcff;}.cls-9{fill:#d8e6ed;}.cls-10{fill:#1f262f;}.cls-11{fill:#28364a;}.cls-12{fill:#2c3c4a;}.cls-13{fill:#324557;}</style></defs><g id="Слой_2" data-name="Слой 2"><g id="animal"><g id="panda"><path class="cls-1" d="M71.36,38.21c.91,1.15,2.53,2.07,3.61,3.1a47.1,47.1,0,0,1,3.62,3.86A48,48,0,0,1,84.4,53.9c4,7.74,7.11,18.07,4.41,26.7-4.36,14-20.48,21.43-34.25,21.27h-.43a36.38,36.38,0,0,1-4.78.11,72.51,72.51,0,0,1-14.58-2.11c-1.45-.36-2.84-.77-4.18-1.19a24,24,0,0,1-5.4-1.2,20,20,0,0,1-4.5-2.2,21.92,21.92,0,0,1-8.47-10.42,23.64,23.64,0,0,1-1.16-4.15C9.83,68.36,14.86,56.14,22,46a35.32,35.32,0,0,1,3.08-3.27,31.25,31.25,0,0,1,7.21-5.08A26.68,26.68,0,0,1,37,35.84c10.42-.5,21.77-6.82,31.5-.5A15.77,15.77,0,0,1,71.36,38.21Z"/><path class="cls-2" d="M84.4,53.9a48,48,0,0,0-5.81-8.73A47.1,47.1,0,0,0,75,41.31c-1.08-1-2.7-2-3.61-3.1a15.77,15.77,0,0,0-2.91-2.87A16.83,16.83,0,0,0,65,33.64c4.1,4.87,8.48,9.52,12,14.84,5.34,8,7.67,17.29,5.74,26.78C80.68,85.64,71.68,92.19,62.15,95.4A32.92,32.92,0,0,1,45.8,96.74a32.71,32.71,0,0,1-4.17-.59A27.29,27.29,0,0,1,35,94.85a20.14,20.14,0,0,1-7.43-3,23.55,23.55,0,0,1-9.45-12.42,25,25,0,0,1-1.08-10c1-10.35,5.2-20.07,10.63-28.9-.89.68-1.76,1.41-2.59,2.18A35.32,35.32,0,0,0,22,46C14.86,56.14,9.83,68.36,11.06,80.7a23.64,23.64,0,0,0,1.16,4.15,21.92,21.92,0,0,0,8.47,10.42,20,20,0,0,0,4.5,2.2,24,24,0,0,0,5.4,1.2c1.34.42,2.73.83,4.18,1.19A72.51,72.51,0,0,0,49.35,102a36.38,36.38,0,0,0,4.78-.11h.43c13.77.16,29.89-7.28,34.25-21.27C91.51,72,88.4,61.64,84.4,53.9Z"/><path class="cls-3" d="M76.33,91.43S77,84.3,73,79.86,61.59,66.9,46,67s-21.28,11.12-23,14.39-3.36,9.83-3.3,11.77,8.05,6.44,14.83,7.77,20.48,2.35,28.4-.28S76.33,91.43,76.33,91.43Z"/><path class="cls-4" d="M76.14,87.18a36.81,36.81,0,0,1-14,8.22A32.92,32.92,0,0,1,45.8,96.74a32.71,32.71,0,0,1-4.17-.59A27.29,27.29,0,0,1,35,94.85a20.14,20.14,0,0,1-7.43-3,25.84,25.84,0,0,1-6.23-6,30.28,30.28,0,0,0-1.54,7.27c.06,1.94,8.05,6.44,14.83,7.77s20.48,2.35,28.4-.28,13.33-9.22,13.33-9.22A19.64,19.64,0,0,0,76.14,87.18Z"/><path class="cls-1" d="M29,98.78a7.49,7.49,0,0,0,.24-7.6c-1.52-3.13-6.24-6.82-11.71-8.87-3.34-1.25-12.12-4-13.69,1.22-.15.51,0,3.73.81,3.87,0,0-3.6-.68-4.52,2.8-.68,2.55,1.26,3.71,3,5a5.66,5.66,0,0,0-.68.77c-1.67,2.59,1,4.83,3.21,5.75a24.56,24.56,0,0,0,12.39,1.45C21.68,102.76,26.87,102,29,98.78Z"/><path class="cls-5" d="M16,83.47a24.71,24.71,0,0,1,13.39,8l-.12-.25c-1.52-3.13-6.24-6.82-11.71-8.87-3.34-1.25-12.12-4-13.69,1.22a5.78,5.78,0,0,0,0,1.33C7.2,82.51,12.19,82.64,16,83.47Z"/><path class="cls-2" d="M22,100.43a18.29,18.29,0,0,1-3.33.52c-.45.08-.91.16-1.38.21A14.53,14.53,0,0,1,10,100c-2.5-1.08-3.93-2.76-6-4.44a.88.88,0,0,0-.36-.21c-.35-.08-.63.26-.83.55C2,97.21,1.63,98,2.62,99.45a7.63,7.63,0,0,0,3.08,2.3,24.56,24.56,0,0,0,12.39,1.45c3.59-.44,8.78-1.21,10.92-4.42a7,7,0,0,0,1.15-4.07A15.08,15.08,0,0,1,22,100.43Z"/><path class="cls-3" d="M25.5,98.31c2.87-2,1.58-4.92-.42-7a10,10,0,0,0-2.64-2c-3.4-1.72-9.14-2.44-11.77,1-2.35,3.08-1.82,7.86,2,9.34a13.39,13.39,0,0,0,8.11.42A14.35,14.35,0,0,0,25.5,98.31Z"/><path class="cls-4" d="M9.27,94.45a5.34,5.34,0,0,0,3.38,5.21,13.39,13.39,0,0,0,8.11.42,14.35,14.35,0,0,0,4.74-1.77,3.56,3.56,0,0,0,1.63-2.38C22,100.11,14.47,98.69,9.27,94.45Z"/><path class="cls-1" d="M90.8,90.37s4-.54,4.24,3.26a4,4,0,0,1-.51,2.54c-.25.39-1.47,1.65-2,1.37a2.65,2.65,0,0,1,1.3,2.71,4.25,4.25,0,0,1-1.67,2.65c-3,2.34-7.1,2.26-10.7,2.2-5-.08-14.18-.94-16.2-6.56A7.65,7.65,0,0,1,64.86,96C64.93,86.87,77.33,81,85.37,81.56c3.48.27,6.49,1.42,7.53,3.12s.36,3.58-1,4.87Z"/><path class="cls-5" d="M68.31,88.73c5.11-4.16,11.38-5.1,17.76-4.12a17.72,17.72,0,0,1,7.24,2.64,3.31,3.31,0,0,0-.41-2.57c-1-1.7-4.05-2.85-7.53-3.12-6.23-.47-15.07,3-18.77,8.8A16.27,16.27,0,0,1,68.31,88.73Z"/><path class="cls-2" d="M92.49,97.12c-3.63,2.84-7.38,4.9-12,5.42a15.7,15.7,0,0,1-5.58-.43,10.35,10.35,0,0,1-3.44-.66,18.12,18.12,0,0,1-6.55-4.62,6.64,6.64,0,0,0,.33,1.71c2,5.62,11.22,6.48,16.2,6.56,3.6.06,7.7.14,10.7-2.2a4.25,4.25,0,0,0,1.67-2.65,2.65,2.65,0,0,0-1.3-2.71c.57.28,1.79-1,2-1.37A3.25,3.25,0,0,0,95,94.55,15.5,15.5,0,0,1,92.49,97.12Z"/><path class="cls-3" d="M86.62,96.29c-.45-5.23-4.4-7.52-9.21-7-3.91.44-9.49,1.25-10.52,5.84-1.26,5.65,8,7.17,11.72,6.87,4-.33,8.44-.64,8-5.74C86.37,93.4,87,101.23,86.62,96.29Z"/><path class="cls-4" d="M86.62,96.29a3.14,3.14,0,0,1,0-.38l0,.38c0-.18-.05-.35-.07-.53a15.85,15.85,0,0,1-12.43,4.65,18.82,18.82,0,0,1-6.58-1.92c2.13,2.93,8.2,3.77,11.07,3.54,4-.33,8.44-.64,8-5.74,0,.3,0,.64.08.95C86.68,97,86.65,96.69,86.62,96.29Z"/><path class="cls-3" d="M45.48.2a34.14,34.14,0,0,0-13.7,4c-4.57,2.61-8,6.8-11.31,10.89-5,6.18-7.23,12-4.71,19.88,2,6.12,8.93,9.06,14.77,10.48a56.5,56.5,0,0,0,18.39.91c6-.56,11.63-1.16,17.47-3.16a28.73,28.73,0,0,0,5.75-2.54c8.18-5,10.64-16.37,4.17-23.78C70.84,10.57,64.39,4.56,56.52,1.5A25.7,25.7,0,0,0,45.48.2Z"/><path class="cls-6" d="M19.4,18.74C24.11,12.48,30,6,38.14,4.55c.92-.17,1.84-.3,2.76-.41a32.42,32.42,0,0,1,15,1,40.43,40.43,0,0,1,11.25,5c1,.71,2,1.44,3,2.2l1.21.72a34.16,34.16,0,0,1,4.08,2.88C70.15,10,64,4.4,56.52,1.5a25.7,25.7,0,0,0-11-1.3,34.14,34.14,0,0,0-13.7,4c-4.57,2.61-8,6.8-11.31,10.89-3,3.71-5,7.3-5.57,11.27A40.52,40.52,0,0,1,19.4,18.74Z"/><path class="cls-4" d="M81.12,24.34A11.75,11.75,0,0,0,78.58,20c-.2-.24-1-1.09-1.65-1.91.17,8.13-2.53,16-9.48,21.1-4,2.91-10.06,4.88-14.94,3.59A10.55,10.55,0,0,1,49,41.1a7.49,7.49,0,0,0-2.14-.4c-1.83,0-3.81.63-5.66.77a43.56,43.56,0,0,1-12.27-.8,38.77,38.77,0,0,1-13-5.27c2.16,5.81,8.91,8.63,14.6,10,6.44,1.56,12.63,1,19.14.79,4.72-.16,9.43.16,14-1.4A31.8,31.8,0,0,0,70.4,42c1.82-1.19,3.59-2.72,5.34-4a7.64,7.64,0,0,0,.87-.73,8.54,8.54,0,0,0,1.27-1.77C79.91,32,82.14,28.45,81.12,24.34Z"/><path class="cls-7" d="M75.16,17.68c-2.18.5-4.13-.76-6.29-3.37s-5.28-4-7.34-5.14-3.14-3.59-.42-6S69.71-1.67,74,1.58s5.32,4.49,5.61,8.55S77.62,17.11,75.16,17.68Z"/><path class="cls-7" d="M28.48,7.58l.06,0c2.25-2-.1-4.09-2.15-5.09-2.72-1.34-6.46-.72-9,.76-3.85,2.26-5.13,8.16-3.66,12.17.74,2,2.11,3.48,4.48,2.72s3.38-3.67,4.68-5.61C24.43,10.19,26.42,9.39,28.48,7.58Z"/><path class="cls-7" d="M49.79,11.81c-7.78.37-9.91,10.42-5.7,15.85,4.37,5.64,14.27,13,21.79,9.08C82.6,28,60.5,11.3,49.79,11.81Z"/><path class="cls-7" d="M38.93,17.82a4.46,4.46,0,0,0-1.17-1.33,7,7,0,0,0-6.17-1.2,23.76,23.76,0,0,0-11.94,7.76c-4.68,6-1.79,14.25,6.61,14.57,5.87.22,13.3-7.54,13.57-13a15.8,15.8,0,0,0-.13-2.48C39.56,20.76,39.68,19.09,38.93,17.82Z"/><path class="cls-8" d="M33.53,16.11c-2.32-.37-6.31,1.68-6.56,6.41s2.59,7.94,6.64,7.47,5-6.38,4.63-8.73A6,6,0,0,0,33.53,16.11Z"/><path class="cls-9" d="M37.78,25.76c-.65,2.06-1.94,4-4.17,4.23-3.46.4-6-1.88-6.55-5.5,1.88,1.39,4.79,3.17,7.16,2.92A6.72,6.72,0,0,0,37.78,25.76Z"/><path class="cls-10" d="M31.33,22.15a2.61,2.61,0,1,0,5.22-.32,2.85,2.85,0,0,0-1.89-2.27c-.34-.14-.37,1.74-.77,1.76s-.72-1.79-1-1.6A2.75,2.75,0,0,0,31.33,22.15Z"/><path class="cls-4" d="M56.92,19.27c.77,2.35.38,9.31-4.23,10s-7.24-1.38-7.95-7.55,3.31-7.35,5.62-7.51C54.11,13.93,56.15,16.92,56.92,19.27Z"/><path class="cls-4" d="M57,23.46A4.77,4.77,0,0,1,55.78,25l-.68.54-.28.21a4.6,4.6,0,0,1-.6.41,4.79,4.79,0,0,1-1.67.68,4.12,4.12,0,0,1-.88.2,6.82,6.82,0,0,1-4.5-.8,6.43,6.43,0,0,1-1.87-1.65c1.15,3.91,3.6,5.2,7.39,4.66,3-.42,4.18-3.45,4.47-6.19C57.09,23.19,57,23.32,57,23.46Z"/><path class="cls-4" d="M47.3,21.34a2.65,2.65,0,1,0,5.29-.23,3.11,3.11,0,0,0-2.09-2.42c-.33-.12-.47,1.88-.83,1.9s-.55-2-.86-1.83A2.74,2.74,0,0,0,47.3,21.34Z"/><path class="cls-8" d="M56.92,19.27c.77,2.35.38,9.31-4.23,10s-7.24-1.38-7.95-7.55,3.31-7.35,5.62-7.51C54.11,13.93,56.15,16.92,56.92,19.27Z"/><path class="cls-9" d="M57,23.46A4.77,4.77,0,0,1,55.78,25l-.68.54-.28.21a4.6,4.6,0,0,1-.6.41,4.79,4.79,0,0,1-1.67.68,4.12,4.12,0,0,1-.88.2,6.82,6.82,0,0,1-4.5-.8,6.43,6.43,0,0,1-1.87-1.65c1.15,3.91,3.6,5.2,7.39,4.66,3-.42,4.18-3.45,4.47-6.19C57.09,23.19,57,23.32,57,23.46Z"/><path class="cls-10" d="M47.3,21.34a2.65,2.65,0,1,0,5.29-.23,3.11,3.11,0,0,0-2.09-2.42c-.33-.12-.47,1.88-.83,1.9s-.55-2-.86-1.83A2.74,2.74,0,0,0,47.3,21.34Z"/><path class="cls-3" d="M46.69,27.45c-5.2-.39-10.95-.29-14.27,4.07a7.69,7.69,0,0,0-1.65,4.14,7.91,7.91,0,0,0,.13,2.06c2.62,8.73,14,11.35,21.36,6.94.5-.33,1-.68,1.46-1a13.58,13.58,0,0,0,1.34-1.19c2.81-2.85,2.6-7.17.43-10.45C53.43,28.85,50.24,27.71,46.69,27.45Z"/><path class="cls-6" d="M35.56,31.78a20.48,20.48,0,0,1,7.71-2.11,20.55,20.55,0,0,1,5,.43,12.09,12.09,0,0,1,3.84,1.25,33.45,33.45,0,0,1,3.78,1.25q-.18-.32-.39-.63c-2.06-3.12-5.25-4.26-8.8-4.52-5.2-.39-10.95-.29-14.27,4.07a8,8,0,0,0-1.55,3.38,16,16,0,0,1,2-1.46A10.66,10.66,0,0,1,35.56,31.78Z"/><path class="cls-4" d="M54.11,39.14a13.53,13.53,0,0,1-7.18,4.18,16.4,16.4,0,0,1-7.63,0,12.76,12.76,0,0,1-4-1.61A18,18,0,0,1,31,38.07C33.84,46.52,45,49,52.26,44.66c.5-.33,1-.68,1.46-1a13.58,13.58,0,0,0,1.34-1.19,7.55,7.55,0,0,0,1.81-7.32A24.94,24.94,0,0,1,54.11,39.14Z"/><path class="cls-7" d="M48.53,33.12c.32,1.5-2.18,3-3.21,3.62a4.15,4.15,0,0,1-2.56.74,7.67,7.67,0,0,1-4-1.95,2.15,2.15,0,0,1-1-1.47A1.87,1.87,0,0,1,39,32.39a10.7,10.7,0,0,1,5.82-.95C45.9,31.55,48.27,31.87,48.53,33.12Z"/><path class="cls-7" d="M49.56,38.18l-.09.5,0,.26-.11.32A3.31,3.31,0,0,1,49,40l-.22.4-.3.38a5.23,5.23,0,0,1-.74.75,5.45,5.45,0,0,1-.95.6,5.92,5.92,0,0,1-1.09.4l-.57.12a5.48,5.48,0,0,1-.57,0l-.28,0H44c-.18,0-.37,0-.55-.05a6.21,6.21,0,0,1-1-.23L42,42.26l-.4-.2a3.5,3.5,0,0,1-.67-.41l-.27-.19-.2-.19L40,40.91a.21.21,0,0,1,0-.3.21.21,0,0,1,.28,0l0,0,.4.28.2.15.27.14a3.17,3.17,0,0,0,.64.3l.37.16.41.11a6.26,6.26,0,0,0,.9.15h.72l.25,0c.16,0,.33,0,.49-.06l.49-.11a6.66,6.66,0,0,0,.91-.37,8,8,0,0,0,.81-.5,5.37,5.37,0,0,0,.65-.6l.28-.3.23-.32a4.2,4.2,0,0,0,.35-.57l.14-.25.1-.26.14-.35.06-.12v0a.22.22,0,0,1,.41.13Z"/><path class="cls-11" d="M42.5,32a6.45,6.45,0,0,0-2,.7c-.89.5-.14.82.55.81a23.4,23.4,0,0,0,2.37-.18,3.74,3.74,0,0,0,1.82-.59.55.55,0,0,0,.19-.24.39.39,0,0,0-.2-.44,1,1,0,0,0-.5-.14A7.2,7.2,0,0,0,42.5,32Z"/><path class="cls-12" d="M72.85,58.39a13.19,13.19,0,0,1,.2,1.87,13.63,13.63,0,0,1-.84,4.16,47.45,47.45,0,0,1-2.67,7.41c-.65,1.37-.7,7.14-1.34,8.8-.71,1.84-1.49,2.49-2.65,1.78a3.21,3.21,0,0,1-1.24-1.57c-.13-.31-.08-2.24-.27-2.26-.45,0-.23,1.78-.37,2.09a4.34,4.34,0,0,1-1.23,1.94c-.54.31-1.39.79-2,.55A2.68,2.68,0,0,1,59,81.58a4.35,4.35,0,0,1-.19-1.72c0-.31.09-.64.1-1,0,0,0-.1,0-.12s-.09,0-.12.08a8.55,8.55,0,0,0-.34.92,1.82,1.82,0,0,1-.85.86,2.76,2.76,0,0,1-2.38,0c-1.63-.81-1.3-4-.53-5.37S57.92,70,57.92,70s1.21-5.32,1.93-7.31,1.28-4,1.47-4.29,2.29-4.89,6.76-4.87a4.5,4.5,0,0,1,3.27,1.37A7.93,7.93,0,0,1,72.85,58.39Z"/><path class="cls-13" d="M58.82,68.15a20,20,0,0,1,2.37-6.64,11.53,11.53,0,0,1,7.62-5.36,6,6,0,0,1,3.47.36,7.27,7.27,0,0,0-.93-1.59,4.5,4.5,0,0,0-3.27-1.37c-4.47,0-6.57,4.55-6.76,4.87s-.74,2.3-1.47,4.29c-.55,1.51-1.38,4.92-1.74,6.49C58.35,68.85,58.59,68.51,58.82,68.15Z"/><path class="cls-2" d="M72.88,58.62a24.58,24.58,0,0,1-1.64,5.87c-.95,2.25-2.28,4.38-2.95,6.73-.61,2.17-1,4.5-2.48,6.3-.38.48-1,.93-1.55.59a1,1,0,0,0-.31-.2c-.26-.07-.47.2-.64.42a3.2,3.2,0,0,1-2,1.17A3.64,3.64,0,0,1,58.91,79c-.45,1.64-.31,3.7,1.57,4.27a2.68,2.68,0,0,0,2.6-1,1.85,1.85,0,0,0,.23-.34,5,5,0,0,0,.42-2c0-.2-.07-1.37.31-1.33.19,0,.14,2,.27,2.26a3.21,3.21,0,0,0,1.24,1.57c1.16.71,1.94.06,2.65-1.78.64-1.66.69-7.43,1.34-8.8a47.45,47.45,0,0,0,2.67-7.41,13.63,13.63,0,0,0,.84-4.16A12.84,12.84,0,0,0,72.88,58.62Z"/><path class="cls-2" d="M54,77.81A3.32,3.32,0,0,0,54.12,79a2.64,2.64,0,0,0,.54,1.19,2.67,2.67,0,0,0,2.14.73,1.78,1.78,0,0,0,1.51-.77,3.39,3.39,0,0,0,.33-.87.83.83,0,0,0,0-.44,8.16,8.16,0,0,1-1.19.56,2.31,2.31,0,0,1-1.35-.14A6.26,6.26,0,0,1,55,78.55a5.66,5.66,0,0,0-1-.75Z"/><path class="cls-12" d="M19.43,60.41c0,2.17-.38,3,.16,5a63.13,63.13,0,0,0,3.22,8.16c.68,1.32.87,7.11,1.44,8.75s2,2.42,2.86,1.88A4.82,4.82,0,0,0,28.31,82c.11-.32-.17-1.52.09-1.38s.46,1.1.66,1.51c.55,1,1.46,2.86,2.91,2.29a2.66,2.66,0,0,0,1.59-2.72c0-.29-.88-2-.61-2.18S34,81.2,34.39,81.34A2.93,2.93,0,0,0,37,81.28c1.48-.9.74-3.88-.07-5.2s-3.35-5-3.35-5-1.45-5.23-2.24-7.17-1.43-3.89-1.63-4.2-2.43-4.74-6.62-4.46C20.4,55.41,19.47,58.34,19.43,60.41Z"/><path class="cls-13" d="M31.34,63.88c-.8-2-1.43-3.89-1.63-4.2s-2.43-4.74-6.62-4.46c-1.93.14-2.7,1.79-3.3,3.37.17-.44,1.64-1.12,2.07-1.22a4.72,4.72,0,0,1,4.24,1,4.9,4.9,0,0,1,.75.76,13.37,13.37,0,0,1,2.58,2.57,21.42,21.42,0,0,1,1.94,3.07l.57.82C31.72,64.91,31.51,64.31,31.34,63.88Z"/><path class="cls-2" d="M36,79.31a3,3,0,0,1-1.79.17,1.56,1.56,0,0,0-1,0c-.78.38-1,1.32-1.9,1.6a2.43,2.43,0,0,1-1.95-.27c-.34-.21-.66-.51-1.09-.44s-.62.47-1,.47a1,1,0,0,1-.85-.6,2.63,2.63,0,0,1-.22-1.07,10.82,10.82,0,0,0-.77-4.19c-.61-1.15-1.24-2.31-1.86-3.47a54.25,54.25,0,0,1-3.36-6.9,19.32,19.32,0,0,1-.77-2.86,9.33,9.33,0,0,0,.21,3.7,63.13,63.13,0,0,0,3.22,8.16c.68,1.32.87,7.11,1.44,8.75s2,2.42,2.86,1.88a3.62,3.62,0,0,0,.56-.37,2.82,2.82,0,0,0,.81-1.8c0-.14-.32-1.49-.08-1.36s.46,1.1.66,1.51c.55,1,1.46,2.86,2.91,2.29a2.55,2.55,0,0,0,1.68-2.13,3.83,3.83,0,0,0-.45-1.58c-.06-.17-.49-1-.25-1.19S34,81.2,34.39,81.34A2.93,2.93,0,0,0,37,81.28a2.1,2.1,0,0,0,.92-1.76c0-.69-.34-1.32-.34-2C37.77,78.41,36.69,79,36,79.31Z"/></g></g></g></svg>