<svg xmlns="http://www.w3.org/2000/svg" viewBox="0 0 131.25 101.75"><defs><style>.cls-1{fill:#ffd473;}.cls-2{fill:#8d4a40;}.cls-3{fill:#ffbf61;}.cls-4{fill:#763b35;}.cls-5{fill:#f9de9a;}.cls-6{fill:#a85b50;}.cls-7{fill:#f1e1be;}.cls-8{fill:#f0cf9e;}.cls-9{fill:#f2ebda;}.cls-10{fill:#fcfbf9;}.cls-11{fill:#e8ded0;}.cls-12{fill:#562b28;}.cls-13{fill:#6b3632;}</style></defs><g id="Слой_2" data-name="Слой 2"><g id="animal"><g id="raccoon"><path class="cls-1" d="M55,69a29.59,29.59,0,0,0-10.3.81c-4.9,1.32-11.66,3.61-17.58,5.35S11,79.25,8.41,79.81s-5.41.71-6.76,2-2,2.14-1.43,3.8,3.37,4.5,7.94,6.48a41.31,41.31,0,0,0,18.33,2.85A176.53,176.53,0,0,0,49,92.06c3.55-.87,6.59-2,8-3.64s3.63-4.82,3.8-7A31.64,31.64,0,0,0,59,72.06C58.42,70.87,56,69,55,69Z"/><path class="cls-2" d="M9.34,89.69c.68-2.61,1.35-6.17-.34-9.17l-.43-.75c1.2-.25,3.66-.82,6.56-1.51a11.8,11.8,0,0,1,.8,1.63c.34,1,2,5.21,1.35,8.22a27.31,27.31,0,0,1-2.56,6,32.59,32.59,0,0,1-6.46-2A10.26,10.26,0,0,0,9.34,89.69ZM24.46,78.62c1.61,3.48,1.52,8.38,1.1,11A31.14,31.14,0,0,1,23.64,95c.93,0,1.88,0,2.85-.07,2.18-.12,4.71-.34,7.28-.61.34-1.55.64-3.12.91-4,.59-1.82.51-7-.17-12.33a16,16,0,0,0-1.26-4.71c-2.06.64-4.12,1.28-6.09,1.86-1.12.33-2.41.69-3.77,1C23.67,76.84,24,77.63,24.46,78.62Zm20.28-8.83c-1,.27-2.1.59-3.23.93a22.25,22.25,0,0,0,.69,2.37c1.1,3.08,1.95,10.27,1.69,16-.06,1.4-.19,2.72-.34,3.91,2.35-.36,4.28-.7,5.41-1s2-.53,3-.84a75.61,75.61,0,0,0,.66-9.44c0-4.5-1.47-9.63-2.53-12.87A28.39,28.39,0,0,0,44.74,69.79Z"/><path class="cls-3" d="M49.69,91.87l-.73.19Z"/><path class="cls-3" d="M25,95l-1.38,0Z"/><path class="cls-3" d="M29.88,94.67l-.69,0Z"/><path class="cls-3" d="M11.23,93.19,10.58,93Z"/><path class="cls-3" d="M47.34,92.4l-.62.12Z"/><path class="cls-3" d="M48.4,92.19l-.35.07Z"/><path class="cls-3" d="M47.89,92.3l-.44.08Z"/><path class="cls-3" d="M29,94.74l-.6.05Z"/><path class="cls-3" d="M10.35,92.9c-.2-.07-.4-.13-.59-.21C10,92.77,10.15,92.83,10.35,92.9Z"/><path class="cls-3" d="M28.09,94.81l-.59,0Z"/><path class="cls-3" d="M46.7,92.52l-.65.12Z"/><path class="cls-3" d="M49,92.06l-.42.1Z"/><path class="cls-3" d="M43.93,87.76a43.39,43.39,0,0,1-9,1.43,6.19,6.19,0,0,1-.23,1.13c-.27.86-.57,2.43-.91,4L30,94.66c4.46-.38,9.57-1,13.51-1.62.15-1.19.28-2.51.34-3.91C43.91,88.68,43.92,88.22,43.93,87.76Z"/><path class="cls-3" d="M51.93,91.22l-.68.22Z"/><path class="cls-3" d="M60.41,77.53a36.33,36.33,0,0,1-7.86,6.52c-.1,2.5-.34,5-.62,7.17A11.53,11.53,0,0,0,57,88.42c1.43-1.66,3.63-4.82,3.8-7A17.94,17.94,0,0,0,60.41,77.53Z"/><path class="cls-3" d="M45.91,92.66l-.61.11Z"/><path class="cls-3" d="M25.05,95l1.44,0,.78,0-.78,0Z"/><path class="cls-3" d="M50.44,91.67l-.59.16Z"/><path class="cls-3" d="M45.18,92.79,43.55,93Z"/><path class="cls-3" d="M51.19,91.46l-.63.18Z"/><path class="cls-3" d="M25.63,89.15c-.37,0-.73-.06-1.1-.1L23.8,89l-.92-.08c-1.85-.18-3.74-.41-5.61-.71a27.81,27.81,0,0,1-2.55,5.92q-1.76-.36-3.33-.84A43,43,0,0,0,23.64,95a31.14,31.14,0,0,0,1.92-5.37C25.58,89.46,25.6,89.31,25.63,89.15Z"/><path class="cls-3" d="M9.34,89.69A24.24,24.24,0,0,0,10,86.55a18.62,18.62,0,0,1-4.58-1.67,12.19,12.19,0,0,1-1.81-1.22A12.37,12.37,0,0,1,1.43,82C.23,83.15-.34,84,.22,85.58s3.37,4.5,7.94,6.48c.44.19.9.37,1.38.55-.44-.16-.87-.33-1.28-.51A10.26,10.26,0,0,0,9.34,89.69Z"/><path class="cls-2" d="M46.72,92.52h0Z"/><path class="cls-2" d="M47.45,92.38l-.11,0Z"/><path class="cls-2" d="M48.54,92.16l-.14,0Z"/><polygon class="cls-2" points="51.93 91.22 51.93 91.22 51.93 91.22 51.93 91.22"/><path class="cls-2" d="M48.05,92.26l-.16,0Z"/><path class="cls-2" d="M51.25,91.44l-.06,0Z"/><path class="cls-2" d="M50.56,91.64l-.12,0Z"/><path class="cls-2" d="M49.85,91.83l-.16,0Z"/><path class="cls-2" d="M10.58,93l-.23-.08Z"/><path class="cls-2" d="M11.39,93.24l-.16,0Z"/><polygon class="cls-2" points="23.64 94.98 23.64 94.98 23.64 94.98 23.64 94.98"/><path class="cls-2" d="M9.76,92.69l-.22-.08Z"/><path class="cls-2" d="M25.05,95h0Z"/><path class="cls-2" d="M29.19,94.72l-.24,0Z"/><path class="cls-2" d="M45.3,92.77l-.12,0Z"/><polygon class="cls-2" points="43.55 93.04 43.55 93.04 43.55 93.04 43.55 93.04"/><path class="cls-2" d="M27.5,94.85h0Z"/><path class="cls-2" d="M28.35,94.79l-.26,0Z"/><path class="cls-2" d="M30,94.66h0Z"/><path class="cls-2" d="M46.05,92.64l-.14,0Z"/><path class="cls-4" d="M34.68,90.32a6.19,6.19,0,0,0,.23-1.13,67.47,67.47,0,0,1-7.39,0q-.94,0-1.89-.06c0,.16-.05.31-.07.46A31.14,31.14,0,0,1,23.64,95h0L25,95h0l1.44,0,.78,0h.23l.59,0,.26,0,.6-.05.24,0,.69,0H30l3.73-.36C34.11,92.75,34.41,91.18,34.68,90.32Z"/><path class="cls-4" d="M45.65,87.25c-.57.18-1.14.35-1.72.51,0,.46,0,.92,0,1.37-.06,1.4-.19,2.72-.34,3.91h0l1.63-.25.12,0,.61-.11.14,0,.65-.12h0l.62-.12.11,0,.44-.08.16,0,.35-.07.14,0,.42-.1.73-.19.16,0,.59-.16.12,0,.63-.18.06,0,.68-.22h0c.28-2.15.52-4.67.62-7.17A33.44,33.44,0,0,1,45.65,87.25Z"/><path class="cls-4" d="M17.27,88.16A50.17,50.17,0,0,1,11,86.78c-.35-.07-.7-.14-1-.23a24.24,24.24,0,0,1-.62,3.14A10.26,10.26,0,0,1,8.26,92.1c.41.18.84.35,1.28.51l.22.08c.19.08.39.14.59.21l.23.08.65.21.16,0q1.57.48,3.33.84A27.81,27.81,0,0,0,17.27,88.16Z"/><path class="cls-5" d="M12.91,78.79l.24-.06Z"/><path class="cls-5" d="M10.75,79.29l.14,0Z"/><path class="cls-5" d="M23.39,76.19c-2.73.72-5.75,1.47-8.41,2.11l.15,0c.28.5.53,1,.69,1.35l5.58-.78,2.87-.62c-.36-.79-.64-1.46-.88-2Z"/><path class="cls-5" d="M41.51,70.71l.69-.2Z"/><path class="cls-5" d="M43.49,70.14l.39-.11Z"/><path class="cls-5" d="M42.48,70.43l.55-.16Z"/><path class="cls-5" d="M11.19,79.19l.13,0Z"/><path class="cls-5" d="M12.39,78.91l.24-.06Z"/><path class="cls-5" d="M8.57,79.77h0l-.16,0c-2.17.45-4.44.65-5.93,1.41a33.53,33.53,0,0,1,4.81-.17l.23,0,1.57-.31L9,80.52Z"/><path class="cls-5" d="M28.52,74.74l.4-.12Z"/><path class="cls-5" d="M24.32,75.94l.16,0Z"/><path class="cls-5" d="M26.2,75.42l.18,0Z"/><path class="cls-5" d="M14,78.53l.25-.06Z"/><path class="cls-5" d="M13.48,78.65l.22-.05Z"/><path class="cls-5" d="M30,74.3l.36-.11Z"/><path class="cls-5" d="M25.35,75.66h0Z"/><path class="cls-5" d="M47.16,69.26l.34-.06Z"/><path class="cls-5" d="M48.86,69l.54,0Z"/><path class="cls-5" d="M45.57,69.58l.27-.06Z"/><path class="cls-5" d="M10,79.46l.07,0Z"/><path class="cls-5" d="M47.89,69.15l.83-.11Z"/><path class="cls-5" d="M49.51,69l.55,0Z"/><path class="cls-5" d="M59.35,73a6.52,6.52,0,0,0-.34-.9c-.59-1.19-3-3-4-3.08a32.35,32.35,0,0,0-5-.07c.45,1.37,1,3.08,1.43,4.94,1.06,0,2.12.07,3.18.16C56.22,73.61,57.77,73.25,59.35,73Z"/><path class="cls-5" d="M8.8,79.72h0Z"/><path class="cls-5" d="M10.33,79.38l.13,0Z"/><path class="cls-5" d="M41.51,70.72c-2.57.76-5.41,1.66-8.26,2.56a15.51,15.51,0,0,1,.9,2.66c2.8-.62,5.62-1.16,8.45-1.53-.13-.5-.26-.94-.4-1.32A22.25,22.25,0,0,1,41.51,70.72Z"/><path class="cls-5" d="M46.37,69.41l.33-.06Z"/><path class="cls-2" d="M23.39,76.19l.93-.25Z"/><path class="cls-2" d="M14.27,78.47,15,78.3Z"/><path class="cls-2" d="M8.57,79.77l.23,0Z"/><path class="cls-2" d="M10.46,79.35l.29-.06Z"/><path class="cls-2" d="M10.06,79.44l.27-.06Z"/><path class="cls-2" d="M11.32,79.16l1.07-.25Z"/><path class="cls-2" d="M13.7,78.6l.32-.07Z"/><path class="cls-2" d="M10.89,79.25l.3-.06Z"/><path class="cls-2" d="M8.82,79.72,10,79.46Z"/><path class="cls-2" d="M12.63,78.85l.28-.06Z"/><path class="cls-2" d="M13.15,78.73l.33-.08Z"/><path class="cls-2" d="M25.37,75.65l.83-.23Z"/><path class="cls-2" d="M45.84,69.52l.53-.11Z"/><path class="cls-2" d="M44.74,69.79l.83-.21Z"/><path class="cls-2" d="M43.88,70l.86-.24Z"/><polygon class="cls-2" points="50.06 68.91 50.06 68.91 50.06 68.91 50.06 68.91"/><path class="cls-2" d="M48.72,69l.14,0Z"/><path class="cls-2" d="M49.4,69h0Z"/><path class="cls-2" d="M43,70.27l.46-.13Z"/><path class="cls-2" d="M47.5,69.2l.39,0Z"/><path class="cls-2" d="M46.7,69.35l.46-.09Z"/><path class="cls-2" d="M28.52,74.74l-1.36.4-.78.23.78-.23Z"/><path class="cls-2" d="M24.48,75.9l.87-.24Z"/><path class="cls-2" d="M33.25,73.28l-2.93.91,2.93-.91Z"/><path class="cls-2" d="M28.92,74.62l1-.32Z"/><polygon class="cls-2" points="41.51 70.72 41.51 70.72 41.51 70.71 41.51 70.72"/><path class="cls-2" d="M42.2,70.51l.28-.08Z"/><path class="cls-6" d="M50.06,68.91l-.55,0H49.4l-.54,0-.14,0-.83.11-.39,0-.34.06-.46.09-.33.06-.53.11-.27.06-.83.21-.86.24-.39.11-.46.13-.55.16-.28.08-.69.2h0a22.25,22.25,0,0,0,.69,2.37c.14.38.27.82.4,1.32a58.89,58.89,0,0,1,8.89-.56c-.46-1.86-1-3.57-1.43-4.94Z"/><path class="cls-6" d="M15,78.3l-.71.17-.25.06-.32.07-.22.05-.33.08-.24.06-.28.06-.24.06-1.07.25-.13,0-.3.06-.14,0-.29.06-.13,0-.27.06-.07,0-1.17.26h0l-.23,0h0l.43.75.09.17c2.23-.42,4.48-.76,6.73-1.08-.16-.37-.41-.85-.69-1.35Z"/><path class="cls-6" d="M30.32,74.19,30,74.3l-1,.32-.4.12-1.36.4-.78.23-.18,0-.83.23h0l-.87.24-.16,0-.93.25h0c.24.56.52,1.23.88,2,2.09-.46,4.18-.93,6.26-1.43,1.2-.29,2.41-.57,3.62-.84a15.51,15.51,0,0,0-.9-2.66Z"/><path class="cls-1" d="M48.8,91.91l-1.18.44c.52-.1,1-.2,1.34-.29a23.12,23.12,0,0,0,6.6-2.45C53.28,90.3,51,91.08,48.8,91.91Z"/><path class="cls-2" d="M105.35,44.87a13.55,13.55,0,0,0-4.62-2.8,9.65,9.65,0,0,0-1-.26,24.93,24.93,0,0,0-3.23-.64,75.16,75.16,0,0,0-9.9-.34,23.83,23.83,0,0,0-3.51.2,21,21,0,0,0-9.46,3.8,28.43,28.43,0,0,0-2.74,2.23,39.92,39.92,0,0,0-3.36,3.52c-7.52,9.2-15,22.73-7.89,34.75,3.38,5.26,9.39,7.88,15.27,9,1.25.29,2.52.54,3.79.78l3.83.69c1.18.19,2.35.35,3.48.46s2.22.19,3.25.22a42.32,42.32,0,0,0,5.43-.25c.94-.1,1.88-.23,2.82-.38a23.73,23.73,0,0,0,3.88-.23,25.78,25.78,0,0,0,3.71-.8,18.48,18.48,0,0,0,3.94-1,16.69,16.69,0,0,0,3.35-1.69,19.44,19.44,0,0,0,3.7-3,16.05,16.05,0,0,0,2.51-3.42c3.81-7,1.69-15.58-1.1-22.5a54.37,54.37,0,0,0-6.79-12.08A40.92,40.92,0,0,0,105.35,44.87Z"/><path class="cls-6" d="M59.65,73.82c.14-.72.31-1.45.52-2.18a48.78,48.78,0,0,1,4.59-10.93A35,35,0,0,1,67,57.45a38.75,38.75,0,0,1,3-4.77c2.5-3.39,5.27-6.75,9-8.91,1-.89,1.94-1.73,3-2.53a21,21,0,0,0-8.2,3.59,28.43,28.43,0,0,0-2.74,2.23,39.92,39.92,0,0,0-3.36,3.52c-6.73,8.25-13.46,20-9.65,31a35.39,35.39,0,0,1,1.57-7.24C59.54,74.13,59.6,74,59.65,73.82Z"/><path class="cls-4" d="M117.54,63.21a54.37,54.37,0,0,0-6.79-12.08l-.47-.62c.07.15.14.3.2.45,1.65,3.67,3.71,7.42,4.31,11.4a35.16,35.16,0,0,1,.44,6,18.73,18.73,0,0,1-.3,9.51,17.72,17.72,0,0,1-12.75,11.75c-7,3-15,2.79-22.42,1.44-3.2-.59-7-1.37-9.61-3.31a29.64,29.64,0,0,1-2.6-2.14,10.58,10.58,0,0,1-3.21-2.34,3.39,3.39,0,0,1-1.83-.16l.72,1.46a3.24,3.24,0,0,1-.8,4A25.2,25.2,0,0,0,75,94.31c1.25.29,2.52.54,3.79.78l3.83.69c1.18.19,2.35.35,3.48.46s2.22.19,3.25.22a42.32,42.32,0,0,0,5.43-.25c.94-.1,1.88-.23,2.82-.38a23.73,23.73,0,0,0,3.88-.23,25.78,25.78,0,0,0,3.71-.8,18.48,18.48,0,0,0,3.94-1,16.69,16.69,0,0,0,3.35-1.69,19.44,19.44,0,0,0,3.7-3,16.05,16.05,0,0,0,2.51-3.42C122.45,78.69,120.33,70.13,117.54,63.21Z"/><path class="cls-7" d="M89.89,58.43c12.32-.38,18,9.2,19.68,19,.51,3-.28,6.2-1.23,9.07-.48,1.45-1.07,2.85-1.67,4.25-.48,1.12-.47,2.66-1.3,3.59a4.14,4.14,0,0,1-1.87,1c-4.37,1.42-9.66,1.59-14.26,1.46a53.29,53.29,0,0,1-7.12-.69c-.8-.13-1.5-.39-2.32-.45a11.52,11.52,0,0,1-4.43-1.06,7.72,7.72,0,0,1-3.3-3.46,25.53,25.53,0,0,1-2-6c-.86-3.52-1.19-7.39.22-10.85C72.2,69.65,77.56,58.81,89.89,58.43Z"/><path class="cls-8" d="M102.18,89.66c-7,3-15,2.79-22.42,1.44-2.9-.53-6.26-1.23-8.84-2.8a16.66,16.66,0,0,0,1.15,2.85,7.72,7.72,0,0,0,3.3,3.46,11.52,11.52,0,0,0,4.43,1.06c.82.06,1.52.32,2.32.45a53.29,53.29,0,0,0,7.12.69c4.6.13,9.89,0,14.26-1.46a4.14,4.14,0,0,0,1.87-1c.83-.93.82-2.47,1.3-3.59s1-2.47,1.49-3.74A18.08,18.08,0,0,1,102.18,89.66Z"/><path class="cls-1" d="M53.59,81.36a3.61,3.61,0,0,1,.58.31,2.74,2.74,0,0,1-.49-2.28c.47-1.89,3.15-2.9,4.86-2.3a5.8,5.8,0,0,1,1.58.91A40.66,40.66,0,0,1,65,82.48c1.86,2,4.15,3,5.66,5.45,1.78,2.85,3.1,7.07,1,10.07-3.93,5.67-13.78,4.37-18.09-.29-1.63-1.76-2.92-3.5-4-3.51s-3.61-.28-3.87-3.28c-.21-2.48,1.35-3.42,3.58-3.46-1.09-1.32-2-2.88-1-4.54a3.66,3.66,0,0,1,1.27-1.17A4.48,4.48,0,0,1,53.59,81.36Z"/><path class="cls-5" d="M56.31,79.72A30.84,30.84,0,0,1,63.81,83a24,24,0,0,1,7.3,6.13c.22.28.42.57.63.86a16.33,16.33,0,0,0-1.07-2c-1.51-2.41-3.8-3.48-5.66-5.45A40.66,40.66,0,0,0,60.12,78a5.8,5.8,0,0,0-1.58-.91c-1.71-.6-4.39.41-4.86,2.3a2.33,2.33,0,0,0,0,.28A6.08,6.08,0,0,1,56.31,79.72Z"/><path class="cls-3" d="M53.82,94.35a9.78,9.78,0,0,1-7.35-5.9,3.06,3.06,0,0,0-.69,2.47c.26,3,2.84,3.26,3.87,3.28S52,96,53.6,97.71c4.31,4.66,14.16,6,18.09.29a6.14,6.14,0,0,0,1-2.87C68.23,99.91,58.82,98.5,53.82,94.35Z"/><path class="cls-2" d="M56.1,90.27a4.92,4.92,0,0,1,2.58-2.78A7.25,7.25,0,0,1,63.07,87c5,.91,9.62,7,4.43,10.8-4.13,3-9.86,0-11.29-4.35A5.69,5.69,0,0,1,56,90.84Q56,90.56,56.1,90.27Z"/><path class="cls-4" d="M68.93,93.61a9.07,9.07,0,0,1-4,2.24,8.25,8.25,0,0,1-2.37.26A8.12,8.12,0,0,1,58.77,95,8.86,8.86,0,0,1,56,92.41a7.73,7.73,0,0,0,.26,1.08c1.43,4.38,7.16,7.36,11.29,4.35a4.69,4.69,0,0,0,2.16-5A5.74,5.74,0,0,1,68.93,93.61Z"/><path class="cls-1" d="M109.79,59.81c-.21.93-2,7.57-2.79,9.53a66.39,66.39,0,0,1-4,8c-.6.74-1.12,1.71-2.08,2-.74.24-1.6.12-1.83-.75a3.07,3.07,0,0,1,.23-1.81A5.88,5.88,0,0,1,98.09,78a1.47,1.47,0,0,1-.68.29c-.62,0-1.07-.6-1.15-1.21a2.47,2.47,0,0,1,.66-2,2.66,2.66,0,0,1-1.36.77,1.52,1.52,0,0,1-1.45-.45c-.5-.59-.13-1.28.17-1.85a4.81,4.81,0,0,1,1.4-1.73,11.75,11.75,0,0,0,2.75-4.35c.3-1.28,1.36-9.76,3-11.18s4.54-2.07,6.1-1.07A4.36,4.36,0,0,1,109.79,59.81Z"/><path class="cls-5" d="M106.15,57.37a5.56,5.56,0,0,1,3.71,1.93,4.45,4.45,0,0,0-2.3-4.12c-1.56-1-4.43-.35-6.1,1.07-1,.9-1.87,4.62-2.4,7.56C100.41,60.64,102.41,57,106.15,57.37Z"/><path class="cls-3" d="M94.58,75.71a1.64,1.64,0,0,0,1,.1,2,2,0,0,0,.66-.25A6.64,6.64,0,0,1,94.58,75.71Z"/><path class="cls-3" d="M103.39,71.74a18.51,18.51,0,0,1-6.81,3.74,2.48,2.48,0,0,0-.32,1.58c.08.61.53,1.26,1.15,1.21a1.47,1.47,0,0,0,.68-.29,5.88,5.88,0,0,0,1.27-1.22,3.07,3.07,0,0,0-.23,1.81c.23.87,1.09,1,1.83.75,1-.3,1.48-1.27,2.08-2a66.39,66.39,0,0,0,4-8c.44-1,1.13-3.36,1.72-5.46C107.43,66.64,105.7,69.75,103.39,71.74Z"/><path class="cls-1" d="M70.69,56.35a5.11,5.11,0,0,1,6.94.59c1.63,2,1.9,5.54,2.33,8s.94,5.7,3.27,7.29c.91.62,2,2.13,1.82,3.31-.25,1.43-2.19.82-2.77,0a2.66,2.66,0,0,1,.36,1.82,1.52,1.52,0,0,1-1.28,1.21,2.07,2.07,0,0,1-1.68-1A1.54,1.54,0,0,1,78.79,80c-.86.08-1.71-.86-2.18-1.47a32.7,32.7,0,0,1-3.33-6.09,53,53,0,0,1-2.63-7,29.07,29.07,0,0,1-1.38-5A4.23,4.23,0,0,1,70.69,56.35Z"/><path class="cls-5" d="M71.68,57.7c3-.9,6,1.55,7.75,3.95a10.63,10.63,0,0,0-1.8-4.71,5.11,5.11,0,0,0-6.94-.59,3.84,3.84,0,0,0-1.44,2.78A5.41,5.41,0,0,1,71.68,57.7Z"/><path class="cls-3" d="M80.65,75.65h0c-4.15-.31-6.13-3.69-7.75-7.1-1.12-2.34-2.34-4.57-3.39-6.88.31,1.32.82,2.63,1.15,3.73a53,53,0,0,0,2.63,7,32.7,32.7,0,0,0,3.33,6.09c.47.61,1.32,1.55,2.18,1.47a1.54,1.54,0,0,0,.89-2.43,2.07,2.07,0,0,0,1.68,1,1.52,1.52,0,0,0,1.28-1.21,2.29,2.29,0,0,0,0-1A12.13,12.13,0,0,1,80.65,75.65Z"/><path class="cls-1" d="M123.31,81.57a.55.55,0,0,0-.14.12,2.9,2.9,0,0,0-1.12-4.46,3.84,3.84,0,0,0-3,.1,17.56,17.56,0,0,0-3.56,2.44c-1.27,1-2.56,1.88-3.86,2.8a23.52,23.52,0,0,0-6.71,6.77,7.26,7.26,0,0,0,.07,8,8.57,8.57,0,0,0,6.69,4,18.07,18.07,0,0,0,8.87-2.09,15.37,15.37,0,0,0,3.72-2.89c.85-.91,1.89-3,3.28-3.08,1-.06,3.57-.44,3.69-3.35a3.13,3.13,0,0,0-.88-2.44c-.41-.39-1.58-1.1-2.1-.55a3.85,3.85,0,0,0,.51-4.48,3.29,3.29,0,0,0-.91-.74,4.31,4.31,0,0,0-2.46-.55A5.28,5.28,0,0,0,123.31,81.57Z"/><path class="cls-5" d="M114,82.56c2.55-1.41,5.6-3.06,8.6-3a7.12,7.12,0,0,1,1.17.12,2.65,2.65,0,0,0-.07-.48,3,3,0,0,0-1.66-2,3.84,3.84,0,0,0-3,.1,17.56,17.56,0,0,0-3.56,2.44c-1.27,1-2.56,1.88-3.86,2.8a23.52,23.52,0,0,0-6.71,6.77,8.43,8.43,0,0,0-1.07,2.88A25.84,25.84,0,0,1,114,82.56Z"/><path class="cls-3" d="M130.37,87.47a3.45,3.45,0,0,0-.8-.54,11.57,11.57,0,0,1-1.22,1.82c-1.36,1.65-3.23,2.63-5,3.84a33.18,33.18,0,0,1-4.52,2.92c-5,2.32-11.35,2.81-15-1A7.45,7.45,0,0,0,105,97.36a8.57,8.57,0,0,0,6.69,4,18.07,18.07,0,0,0,8.87-2.09,15.37,15.37,0,0,0,3.72-2.89c.85-.91,1.89-3,3.28-3.08,1-.06,3.57-.44,3.69-3.35A3.13,3.13,0,0,0,130.37,87.47Z"/><path class="cls-2" d="M120.65,89.45a5,5,0,0,0-1.46-2.23A5.1,5.1,0,0,0,115.28,86a9,9,0,0,0-2.87,1c-4.51,2.24-7.29,9.16-.65,10.9,4.28,1.12,9.2-2.56,9.14-7A4.63,4.63,0,0,0,120.65,89.45Z"/><path class="cls-2" d="M120.65,89.45a5,5,0,0,0-1.46-2.23A5.1,5.1,0,0,0,115.28,86a9,9,0,0,0-2.87,1c-4.51,2.24-7.29,9.16-.65,10.9,4.28,1.12,9.2-2.56,9.14-7A4.63,4.63,0,0,0,120.65,89.45Z"/><path class="cls-4" d="M118.87,93.09c-2,2-5.07,3.29-7.91,2.36a9.93,9.93,0,0,1-3.14-1.6c.07,1.79,1.21,3.38,3.94,4.1,4.28,1.12,9.2-2.56,9.14-7a4.21,4.21,0,0,0-.12-1A8.58,8.58,0,0,1,118.87,93.09Z"/><path class="cls-6" d="M118,19.53a14,14,0,0,0,2.57-8.08c-.15-5-1.71-10.91-2.77-11.23a6.31,6.31,0,0,0-2.21,0,36.34,36.34,0,0,0-3.6.54,17.86,17.86,0,0,0-4.5,1.59,20.3,20.3,0,0,0-2.15,1.28c-.56.38-1.33.76-1.55,1.45-.33,1-.57,4.19.13,5.67s4.4,5.54,4.4,5.54l5.48,3S116.31,20.18,118,19.53Z"/><path class="cls-7" d="M116.33,18.28a10.71,10.71,0,0,0,2.18-4.19,11.54,11.54,0,0,0,0-5.95,22.15,22.15,0,0,0-1.22-4.48,1.47,1.47,0,0,0-.74-.79,2.08,2.08,0,0,0-.82-.14,16.72,16.72,0,0,0-6,.68c-1.85.68-4.52,1.67-4.78,3.31a6.48,6.48,0,0,0,.49,4.66c.9,1.7,6.93,6.27,6.93,6.27S115.91,18.71,116.33,18.28Z"/><path class="cls-4" d="M115.52,16.53c.48-.32.6-1.33.7-1.83a18.67,18.67,0,0,0,.41-2.88,13.8,13.8,0,0,0-1-5.89,1.79,1.79,0,0,0-.76-1,1.92,1.92,0,0,0-1.14,0A41.5,41.5,0,0,0,109,6.17c-1,.32-2,.82-2.07,1.94a5,5,0,0,0,.93,2.83l3.25,3.32S114.89,16.93,115.52,16.53Z"/><path class="cls-6" d="M76.51,4.91a6.61,6.61,0,0,0-1.69-1.6,25.8,25.8,0,0,0-3.1-2.08,10.6,10.6,0,0,0-5-1.14C65.12,0,63.18-.2,61.66.43a1.76,1.76,0,0,0-1.27,1.81c0,.93-1.44,6.36-1.72,7.87a12.52,12.52,0,0,0,.18,5.49c.54,1.73,2.93,4.46,2.93,4.46l9.44-2.32,4.09-6.54Z"/><path class="cls-7" d="M75.41,6.45l-.18-.21A20.78,20.78,0,0,0,72.6,3.73a7,7,0,0,0-4.29-1.36c-1.29-.05-2.59,0-3.89-.07A2.08,2.08,0,0,0,62.12,4c-.26,1.34-1.5,5.5-1.69,6.78s-.69,3.29-.17,4.7,2,3.81,3.27,3.63,9.07-5,9.54-6,.88-1.79,1.31-2.7c.28-.6.55-1.2.81-1.81s.69-1.19.52-1.69A1.47,1.47,0,0,0,75.41,6.45Z"/><path class="cls-4" d="M73.68,7.72a7,7,0,0,0-2.37-2.08,23.59,23.59,0,0,0-4.89-1c-1-.05-1.9-.11-2.46.72a12,12,0,0,0-1.07,5,32.33,32.33,0,0,0,.1,5.33c.24,1.24.29,2.28,1.14,2.52s9.23-4.13,9.2-6A32.82,32.82,0,0,1,73.68,7.72Z"/><path class="cls-1" d="M119.24,19c-.91-.91-1.8-1.84-2.71-2.7-4.46-4.28-8.89-10-14.29-13A25.69,25.69,0,0,0,80.81,1.65c-6.39,2.5-12.07,7.87-16.72,12.82-4.3,4.59-15.94,9.16-11.12,17,2.57,4.19,9,8.41,13.62,10.26,6.55,2.62,13.81,3.63,20.83,4a56.4,56.4,0,0,0,20.94-3.23c5-1.71,10.23-3.92,14.24-7.56,3-2.74,5.23-5.29,3-9.28C124.16,22.92,121.32,21.09,119.24,19Z"/><path class="cls-5" d="M79.49,4.7c.83-.2,1.67-.38,2.52-.5l3.18-.45a32,32,0,0,1,4.56-.42,23.77,23.77,0,0,1,9,1.46,66.93,66.93,0,0,1,15.66,9.52l.49.34c-3.92-4-7.9-8.71-12.63-11.38A25.69,25.69,0,0,0,80.81,1.65,39.26,39.26,0,0,0,69,9.56,34.51,34.51,0,0,1,79.49,4.7Z"/><path class="cls-3" d="M124.17,23.59a26.22,26.22,0,0,1-11.44,11.57,41.6,41.6,0,0,1-9.93,4,21.84,21.84,0,0,1-6.42.46A44.09,44.09,0,0,1,84,40a37.69,37.69,0,0,1-10.79-2.58c-7.07-.12-13.06-4.39-16.8-10.2a26.32,26.32,0,0,1-2.29-4.44c-2.19,2.44-3.21,5.24-1.11,8.67,2.57,4.19,9,8.41,13.62,10.26,6.55,2.62,13.81,3.63,20.83,4a56.4,56.4,0,0,0,20.94-3.23c5-1.71,10.23-3.92,14.24-7.56,3-2.74,5.23-5.29,3-9.28A10.89,10.89,0,0,0,124.17,23.59Z"/><path class="cls-7" d="M69.52,42.16l1.77.71A46.26,46.26,0,0,0,92,45.57c7.35-.61,15.46-1.69,21.63-6.08,3-2.17,7.24-4.59,7.24-9,0-3.24-3.44-5.26-5.56-7.09-.6-.51-1.16-1-1.67-1.49-5.81-5.59-17.67-19-24.8-7.64A10.21,10.21,0,0,0,82,10.62c-4-.34-7.33,1.93-10.17,4.47-3.49,3.12-7,6.24-10.6,9.14-2.88,2.28-5.09,5.33-3.33,9.05C60,37.72,65,40.31,69.52,42.16Z"/><path class="cls-9" d="M59.52,26.83c2.32-1.95,4.23-4.33,6.52-6.31,3.41-2.92,7.79-6,12.1-7.35a8.72,8.72,0,0,1,6,0c1.16.49,2.27,1.15,3.4,1.71a2.11,2.11,0,0,0,3-.47,7.38,7.38,0,0,1,7-1.9c4.78,1.23,9.2,4.82,13.1,7.7l3.09,2.28c-1-.77-1.73-2.19-2.66-3.11s-1.9-1.85-2.88-2.74a37.43,37.43,0,0,0-6.57-5C96.9,9,92,9.28,88.86,14.23A10.21,10.21,0,0,0,82,10.62c-4-.34-7.33,1.93-10.17,4.47-3.49,3.12-7,6.24-10.6,9.14a11.34,11.34,0,0,0-3.45,4.1Z"/><path class="cls-8" d="M112.73,35.16a41.6,41.6,0,0,1-9.93,4,21.84,21.84,0,0,1-6.42.46A44.09,44.09,0,0,1,84,40a37.69,37.69,0,0,1-10.79-2.58c-6.38-.1-11.88-3.6-15.64-8.55a5.71,5.71,0,0,0,.34,4.38c2.09,4.44,7.14,7,11.65,8.88l1.77.71A46.26,46.26,0,0,0,92,45.57c7.35-.61,15.46-1.69,21.63-6.08,3-2.17,7.24-4.59,7.24-9a4.4,4.4,0,0,0-.27-1.51A27.16,27.16,0,0,1,112.73,35.16Z"/><path class="cls-4" d="M61.87,26.73l-.48.38c-1.11.91-2.14,2.22-1.91,3.75a5.52,5.52,0,0,0,1.42,2.63c6.68,7.85,18.65,10.95,28.53,10.42,9-.48,18.53-2.22,25.31-7.87,1.49-1.24,3.43-3.22,3.4-5.32,0-2.49-2.5-3.25-4.17-4.55-3.85-3-7.54-6.26-11.91-8.5-3.76-1.93-8.13-3-11.54.25-1.11,1.06-1.48,1.63-2.93.29a9.8,9.8,0,0,0-9.34-2.15c-3.64,1-6.53,4.14-9.6,6.29C66.48,23.87,64,25.13,61.87,26.73Z"/><path class="cls-10" d="M76,26.61c.42,4,3.4,6.83,6.65,6.4s5.55-4,5.12-8-3.39-6.83-6.64-6.4S75.58,22.65,76,26.61Z"/><path class="cls-11" d="M76.13,24c.87,3.1,2.46,5.56,4.91,6.23A10.07,10.07,0,0,0,87,29.66,5.79,5.79,0,0,1,82.65,33c-3.25.43-6.23-2.44-6.65-6.4A8.83,8.83,0,0,1,76.13,24Z"/><path class="cls-12" d="M80.69,25.51a2.28,2.28,0,1,0,4.55.2,2.41,2.41,0,0,0-1.55-2.39c-.2-.07-.49,1.85-.71,1.84s-.24-2-.39-1.94A2.37,2.37,0,0,0,80.69,25.51Z"/><path class="cls-10" d="M96.19,19.39c3,.55,5.07,4.06,4.51,7.82S97.2,33.58,94.15,33,89.09,29,89.65,25.2,93.14,18.83,96.19,19.39Z"/><path class="cls-11" d="M96.88,30.47A5.41,5.41,0,0,1,90.48,29a3.72,3.72,0,0,1-.79-1.37l-.06-.08c.35,2.8,2.11,5.08,4.52,5.52,3,.54,5.79-1.88,6.48-5.45A6.2,6.2,0,0,1,96.88,30.47Z"/><path class="cls-12" d="M92.17,25.84a2.45,2.45,0,0,0,2.27,2.58A2.4,2.4,0,0,0,96.88,26a2.47,2.47,0,0,0-1.7-2.49c-.18-.05-.44,1.93-.63,1.92s-.5-2-.77-1.89A2.48,2.48,0,0,0,92.17,25.84Z"/><path class="cls-7" d="M88.11,29.81a17.66,17.66,0,0,0-9.59,3.63c-2.35,1.78-3.27,4.3-2,7.06a8.4,8.4,0,0,0,3.7,3.76,15.37,15.37,0,0,0,2.65,1.15c5.86,2.07,13.89,1,17-5.26,1.62-3.23-.9-6.38-3.46-8.1A14.17,14.17,0,0,0,88.11,29.81Z"/><path class="cls-9" d="M77.05,35.51l.24-.12a19,19,0,0,1,10.14-3.48A17.81,17.81,0,0,1,94,33.13c1.1.39,2.17.85,3.24,1.31.46.2,2.32.76,2.55,1.23a10,10,0,0,0-3.36-3.62,14.17,14.17,0,0,0-8.32-2.24,17.66,17.66,0,0,0-9.59,3.63,6.88,6.88,0,0,0-2,2.35Z"/><path class="cls-8" d="M97.34,39.22C95,41.81,90.6,43.29,87.09,43.15a13.8,13.8,0,0,1-11-6,5.49,5.49,0,0,0,.47,3.38,8.4,8.4,0,0,0,3.7,3.76,15.37,15.37,0,0,0,2.65,1.15c5.86,2.07,13.89,1,17-5.26a4.89,4.89,0,0,0-.28-4.82A11,11,0,0,1,97.34,39.22Z"/><path class="cls-4" d="M85.51,41.17l.38.37c.13.09.27.2.45.31a3.69,3.69,0,0,0,.66.32c.12,0,.26.08.39.12a3.12,3.12,0,0,0,.44.09l.23,0h.25l.24,0h.25a4.55,4.55,0,0,0,.52,0l.53-.08A8.36,8.36,0,0,0,90.91,42a6.38,6.38,0,0,0,1-.43l.47-.26.42-.29a8.6,8.6,0,0,0,.78-.64,7.91,7.91,0,0,0,.65-.64c.39-.41.71-.78.93-1l.35-.4a.25.25,0,0,1,.34,0,.26.26,0,0,1,0,.32l-.31.44c-.2.28-.47.68-.85,1.14-.19.23-.41.47-.65.72a8.21,8.21,0,0,1-.81.73L92.8,42c-.17.1-.34.21-.52.3a6.92,6.92,0,0,1-1.11.49A7,7,0,0,1,90,43.1c-.2,0-.4.07-.6.08a5.63,5.63,0,0,1-.58,0h-.29l-.28,0-.28,0-.27,0a4.1,4.1,0,0,1-.5-.14,3.12,3.12,0,0,1-.46-.17l-.4-.2L86,42.36c-.21-.16-.37-.33-.51-.45l-.33-.42a.23.23,0,0,1,0-.34A.22.22,0,0,1,85.51,41.17Z"/><path class="cls-12" d="M88.6,36.87C90,37.06,91.21,36,92,35.41s1.35-1.79.76-2.43-1.86-1.21-4.14-1.28-4.46.71-4.46,2.05S86.64,36.61,88.6,36.87Z"/><ellipse class="cls-13" cx="88.84" cy="32.99" rx="2.3" ry="0.86"/></g></g></g></svg>