<svg xmlns="http://www.w3.org/2000/svg" viewBox="0 0 129.34 100.47"><defs><style>.cls-1{fill:#da9d7d;}.cls-2{fill:#c8886a;}.cls-3{fill:#66372a;}.cls-4{fill:#f9efe0;}.cls-5{fill:#f3dfcc;}.cls-6{fill:#f2b996;}.cls-7{fill:#e09e79;}.cls-8{fill:#fffaf6;}.cls-9{fill:#debda0;}.cls-10{fill:#fbd8ba;}.cls-11{fill:#fffbff;}.cls-12{fill:#f1e6dd;}.cls-13{fill:#3b2a2a;}.cls-14{fill:#9e684e;}.cls-15{fill:#fef2f5;}.cls-16{fill:#edd5bd;}</style></defs><g id="Слой_2" data-name="Слой 2"><g id="animal"><g id="sheep"><path class="cls-1" d="M75.92,67A34.93,34.93,0,0,0,88,78.77c1,.58,2.16,1.32,2.22,2.48a3.1,3.1,0,0,1-.69,1.8,17.8,17.8,0,0,1-2.69,3.12,4.94,4.94,0,0,1-3.56,1.63c-1.5-.12-2.62-1.38-3.57-2.55l-4.86-6c-2-2.43-4-5.07-4.25-8.2-.1-1.58.46-3.39,1.9-4.06a3.64,3.64,0,0,1,3.16.24,9.75,9.75,0,0,1,2.49,2.13Z"/><path class="cls-2" d="M72.3,76a3.29,3.29,0,0,1,1-2.43,3.72,3.72,0,0,1,1.8-2c-.2-.57-.4-1.15-.57-1.72a3.35,3.35,0,0,1,.13-2.35,3.23,3.23,0,0,0-1.74.26c-1.53.71-2.12,2.62-2,4.31a10.34,10.34,0,0,0,1.45,4.46Z"/><path class="cls-2" d="M88,78.77a33.3,33.3,0,0,1-3.65-2.46,8.85,8.85,0,0,1-.77,4A6.47,6.47,0,0,1,78.63,84l1,1.27c1,1.17,2.07,2.43,3.57,2.55a4.94,4.94,0,0,0,3.56-1.63,17.8,17.8,0,0,0,2.69-3.12,3.1,3.1,0,0,0,.69-1.8C90.12,80.09,89,79.35,88,78.77Z"/><path class="cls-3" d="M83.59,85.57c1-1.77,2.14-3.28,3.27-5,.39-.59.81-1.25,1.49-1.42a2.47,2.47,0,0,1,1.54.27c1.26.54,4.85,2.95,4.08,4.73s-3.73.19-3.81,2.42,1.07,4.12-2.23,3.74a9.1,9.1,0,0,1-5-2.24.86.86,0,0,1-.24-.3.85.85,0,0,1,.08-.56A17.37,17.37,0,0,1,83.59,85.57Z"/><path class="cls-4" d="M4.74,46.17A5.61,5.61,0,0,0,2.36,48.1a3,3,0,0,0-.52,2.31,1.18,1.18,0,0,0,.55.84,3.49,3.49,0,0,0,.72.2.66.66,0,0,1,.51.48c0,.37-.37.59-.7.74a4.66,4.66,0,0,0-1.29.85A6,6,0,0,0,.08,58.31c.32,1.56,2,3.37,3.58,2A7.78,7.78,0,0,0,4.7,59,2.48,2.48,0,0,1,6,58a.79.79,0,0,1,.55,0,1,1,0,0,1,.43.92c.17,2.35,3.45,1.21,4.77.58a8.6,8.6,0,0,0,4.18-4.43c1.12-2.78.07-7.75-2.77-9.21-1.76-.9-3.87-.62-5.83-.31A11.38,11.38,0,0,0,4.74,46.17Z"/><path class="cls-5" d="M15.46,50.83a14.11,14.11,0,0,1-2.76,3.69c-1.81,1.64-4.24,2.17-5.92.94a6.82,6.82,0,0,1-1.33,1.11,4.88,4.88,0,0,1-5.33-.16,4.54,4.54,0,0,0-.09.51c-.27,1.94,1.41,5.17,3.67,3.35a10.5,10.5,0,0,0,1.2-1.45,4.31,4.31,0,0,1,.85-.74.73.73,0,0,1,.37-.14.57.57,0,0,1,.47.31,2.58,2.58,0,0,1,.2.55c.45,1.41,1.42,1.63,2.76,1.4a8.53,8.53,0,0,0,6.38-5.13,8.37,8.37,0,0,0,.13-5Q15.77,50.49,15.46,50.83Z"/><path class="cls-2" d="M24.9,76.37A4.76,4.76,0,0,1,24.05,78a46,46,0,0,1-4.19,4.74c-1.88,1.92-4,4-6.71,4.1a12.23,12.23,0,0,1-4.54-6.21,2.93,2.93,0,0,1-.17-1.13c.09-.93,1-1.56,1.73-2.08a43.19,43.19,0,0,1,7.27-4.13,7.63,7.63,0,0,1,4.86-.64C23.91,73.11,25.27,74.75,24.9,76.37Z"/><path class="cls-3" d="M3.43,83.32c-.39,1,.35,1.74,1.36,1.92a4.5,4.5,0,0,0,1.59-.08,13.19,13.19,0,0,0,2.8-.88c.13.45-.22.88-.45,1.29a2.59,2.59,0,0,0-.18,2.09,2.46,2.46,0,0,0,1.57,1.53,3.42,3.42,0,0,0,3.44-1.41,3.7,3.7,0,0,0,.92-1.8,4.23,4.23,0,0,0-1-2.76,20.62,20.62,0,0,0-3.69-4.37,1.53,1.53,0,0,0-.7-.39,1.56,1.56,0,0,0-1.05.37C7,79.57,4.09,81.6,3.43,83.32Z"/><path class="cls-6" d="M73.72,96.18a6.18,6.18,0,0,1-2-1.36,35.47,35.47,0,0,1-9-16.89c-.51-2.2,1.36-5.5,3.49-6.26,2.61-.94,4.32.34,5.54,2.58A70,70,0,0,0,80,85.84c.66.78,1.47,1.42,2.15,2.18,2.22,2.49.57,4.24-1.47,6.11C78.81,95.83,76.24,97.18,73.72,96.18Z"/><path class="cls-7" d="M65.22,78.2c.09-1,.07-2,.13-3A5.9,5.9,0,0,0,64,78.76,2.08,2.08,0,0,0,65.22,78.2Z"/><path class="cls-7" d="M82.13,88c-.68-.76-1.49-1.4-2.15-2.18q-1.47-1.73-2.85-3.49a13.2,13.2,0,0,1-1,4.58,7.05,7.05,0,0,1-1.65,2.33,6.67,6.67,0,0,1-3.52,3,7.08,7.08,0,0,1-1.28.33,27.69,27.69,0,0,0,2,2.27,6.18,6.18,0,0,0,2,1.36c2.52,1,5.09-.35,6.94-2.05C82.7,92.26,84.35,90.51,82.13,88Z"/><path class="cls-6" d="M19.57,79.39c1.64-1.44,3.39-3,5.55-3.32s4.75.91,4.94,3.09c.15,1.67-.81,3.21-1.67,4.52s-1.33,2.73-2.11,4A22.16,22.16,0,0,1,20,94.51a3,3,0,0,1-1.6.68,2.85,2.85,0,0,1-1.62-.61A12.54,12.54,0,0,1,12.16,89c-.92-2.22.29-3.32,1.86-4.71Z"/><path class="cls-7" d="M20.28,87.74a9,9,0,0,1-4.68-1.8,6.57,6.57,0,0,1-1.85-1.43c-1.43,1.28-2.45,2.38-1.59,4.47a12.54,12.54,0,0,0,4.58,5.6,2.85,2.85,0,0,0,1.62.61,3,3,0,0,0,1.6-.68,22.16,22.16,0,0,0,6.32-6.79c.5-.84.88-1.73,1.3-2.6A10,10,0,0,1,20.28,87.74Z"/><path class="cls-4" d="M91.08,61.76a4.1,4.1,0,0,1-4.56,6.67c-.42-.14-1-.56-1.2,0-.06.21.21.76.23,1a4.63,4.63,0,0,1-.07,1.39,5.19,5.19,0,0,1-1.63,3,4.74,4.74,0,0,1-5.43.7c-1.83-1.08-1.7,2.29-2.15,3.39a6.68,6.68,0,0,1-2.84,3.34,5.4,5.4,0,0,1-4.15.39,5,5,0,0,1-1.79-.94c-.33-.28-.85-1.12-1.37-.7-.34.27-.46.94-.68,1.31a6.57,6.57,0,0,1-3.75,3,6.46,6.46,0,0,1-4.41-.38c-.87-.41-2.11-2-2.75-.52a5.07,5.07,0,0,1-.9,1.66,5.44,5.44,0,0,1-3.84,1.86,5.3,5.3,0,0,1-3.5-1.29c-.51-.43-1.65-2.71-2.45-2-.34.31-.51.77-.87,1.11a6,6,0,0,1-1.33.9,5,5,0,0,1-6-1.08,5.52,5.52,0,0,1-1-1.41c-.25-.49-.09-1-.33-1.47a.67.67,0,0,0-.56-.35c-.87,0-2,1-2.78,1.27a12.15,12.15,0,0,1-3.25.73A5.82,5.82,0,0,1,24.87,83a4,4,0,0,1-2.29-3.17,3,3,0,0,1,.39-1.8c.23-.43.74-1.17.24-1.62a1.14,1.14,0,0,0-.69-.19,13.34,13.34,0,0,1-4.68-1.14,9.92,9.92,0,0,1-4.55-4.25,9.45,9.45,0,0,1,1-9.94c.43-.54,1.46-1,1.62-1.71s-.73-1.18-1.3-1.42a8.83,8.83,0,0,1-2.38-1.63,5.61,5.61,0,0,1-2-4.86,6.08,6.08,0,0,1,1.88-3.19,5.12,5.12,0,0,1,.73-.66c.18-.12.37-.15.47-.36.27-.57-.44-.64-.76-.84a3.17,3.17,0,0,1-.81-.78A3.59,3.59,0,0,1,11,43.39a7,7,0,0,1,1.84-4.27,10.42,10.42,0,0,1,3.33-2.79,6.34,6.34,0,0,1,2.07-.66c.33,0,.68,0,1,0,.61-.06.45-.25.29-.73-.76-2.34,1.14-5.59,3.09-6.83a8.12,8.12,0,0,1,2.43-1,6.38,6.38,0,0,1,1.55-.27,10.79,10.79,0,0,1,2.83.62.77.77,0,0,0,.45,0c.29-.13.06-.61.13-.86a6.18,6.18,0,0,1,3.28-3.4,9.53,9.53,0,0,1,4.54-1,5.26,5.26,0,0,1,4,1.66c.2.23.45.48.75.45s.5-.31.63-.57.22-.84.41-1.22a4.5,4.5,0,0,1,1.07-1.15,4.56,4.56,0,0,1,5.35-.87,5.43,5.43,0,0,1,1.22.79A2.92,2.92,0,0,1,52,22.44c.45.87,1-.1,1.14-.61a2.44,2.44,0,0,1,1.58-1.42,7.19,7.19,0,0,1,3.63-.18,10,10,0,0,1,4.3,1.57,4.87,4.87,0,0,1,1.53,1.63c.24.45.61,1.19,1.23,1.12s1.15-.68,1.65-.86a10,10,0,0,1,5-.57A9,9,0,0,1,78,27.57a15.27,15.27,0,0,1,1.55,3.79,10.71,10.71,0,0,0,.64,2.52c.54,1,1.37.89,2.33,1.17a9.8,9.8,0,0,1,5,3.66,26.41,26.41,0,0,1,3.46,7.82l1.89,6a4.69,4.69,0,0,1,.25,3A8.59,8.59,0,0,1,92,57.13C91,58.63,89.8,60.5,91.08,61.76Z"/><path class="cls-8" d="M53.87,42.53a3.32,3.32,0,0,0,2.21-.74C57.49,40.61,58,38.11,59.85,38a5.06,5.06,0,0,1,1.94.55c2.09.79,7.34,0,6.78-2.88-.24-1.18-1.15-.88-.88-2.26.38-1.89,2.19-2.72,1.2-5-.83-1.94-3.79-2.75-5.17-1.16-1-2.39-3.2-5.77-6.31-5a7.26,7.26,0,0,0-3.85,3,4.49,4.49,0,0,0-5-1.73c-.91.26-4.15,2.63-3,3.95a4.3,4.3,0,0,0-7,.74,5,5,0,0,0-8.31,3A4.71,4.71,0,0,0,24,37.66a12.82,12.82,0,0,0-3.91.53C15.31,39.9,17,47.59,22,46.71A9.69,9.69,0,0,0,26,44.54a1.81,1.81,0,0,1,.92-.45,2.15,2.15,0,0,1,1.24.51,5.36,5.36,0,0,0,6-.36c1.28-1,2.35-2.76,4-2.6,1.08.1,1.86,1,2.77,1.62a4.87,4.87,0,0,0,6.58-1.62c.33-.59.72-1.36,1.39-1.3a1.56,1.56,0,0,1,.81.45A7.06,7.06,0,0,0,53.87,42.53Z"/><path class="cls-5" d="M93,55.5a4.69,4.69,0,0,0-.25-3l-1.89-6a26.41,26.41,0,0,0-3.46-7.82,9.8,9.8,0,0,0-5-3.66c-1-.28-1.79-.18-2.33-1.17a10.71,10.71,0,0,1-.64-2.52A15.27,15.27,0,0,0,78,27.57a9,9,0,0,0-5.85-4.45,6.64,6.64,0,0,0-1-.1,27.36,27.36,0,0,1,5.25,8.51,26.24,26.24,0,0,1,1.51,8.65c.07,2.65,1.16,5.08,1.24,7.61a3.75,3.75,0,0,1-5,3.4c0,1.79,1.76,2.92,2,4.68a49.08,49.08,0,0,0,1.4,6,14.14,14.14,0,0,1,.69,4.63,7.73,7.73,0,0,1-7.37,6.72,10,10,0,0,0-3.51.25c-1.3.53-2.06,1.84-3,2.88a8.89,8.89,0,0,1-9.15,2.37,11,11,0,0,0-3.08-.93c-1.5-.07-2.86.82-4.17,1.56A11.29,11.29,0,0,1,43.14,81a5.43,5.43,0,0,1-4.6-1.8,6.42,6.42,0,0,0-.91-1.09c-1-.79-2.5-.26-3.78-.44a5.75,5.75,0,0,1-3.5-2.5,13.9,13.9,0,0,0-2.9-3.29c-1.16-.79-2.7,0-4.06-.06A8.72,8.72,0,0,1,19,70.23a9.42,9.42,0,0,1-3.59-4.87c-.45-1.4-.07-3.52-.88-4.64A7.07,7.07,0,0,0,12.71,64a9.24,9.24,0,0,0,.58,6.85,9.92,9.92,0,0,0,4.55,4.25,13.34,13.34,0,0,0,4.68,1.14,1.14,1.14,0,0,1,.69.19c.5.45,0,1.19-.24,1.62a3,3,0,0,0-.39,1.8A4,4,0,0,0,24.87,83a5.82,5.82,0,0,0,2.87.34A12.15,12.15,0,0,0,31,82.65c.81-.31,1.91-1.26,2.78-1.27a.67.67,0,0,1,.56.35c.24.44.08,1,.33,1.47a5.52,5.52,0,0,0,1,1.41,5,5,0,0,0,6,1.08,6,6,0,0,0,1.33-.9c.36-.34.53-.8.87-1.11.8-.74,1.94,1.54,2.45,2a5.3,5.3,0,0,0,3.5,1.29,5.44,5.44,0,0,0,3.84-1.86,5.07,5.07,0,0,0,.9-1.66c.64-1.5,1.88.11,2.75.52a6.46,6.46,0,0,0,4.41.38,6.57,6.57,0,0,0,3.75-3c.22-.37.34-1,.68-1.31.52-.42,1,.42,1.37.7a5,5,0,0,0,1.79.94,5.4,5.4,0,0,0,4.15-.39,6.68,6.68,0,0,0,2.84-3.34c.45-1.1.32-4.47,2.15-3.39a4.74,4.74,0,0,0,5.43-.7,5.19,5.19,0,0,0,1.63-3,4.63,4.63,0,0,0,.07-1.39c0-.24-.29-.79-.23-1,.16-.57.78-.15,1.2,0a4.1,4.1,0,0,0,4.56-6.67c-1.28-1.26-.1-3.13.89-4.63A8.59,8.59,0,0,0,93,55.5Z"/><path class="cls-9" d="M33.72,61.62l-.25.26c-.06.09-.13.17-.19.25l-.17.28L33,62.7l-.12.31-.09.31-.06.32,0,.32v.32l0,.32.05.31c0,.11.06.21.08.31l.1.3.13.28.17.27.18.24.23.24.23.18.26.17.27.15a2.52,2.52,0,0,1,.29.12l.3.1.31.07.32,0,.32,0h.32l.32,0,.32-.06c.21-.06.41-.12.62-.2l.3-.14.29-.17,0,0a.16.16,0,0,1,.22,0,.17.17,0,0,1,0,.21h0a3.11,3.11,0,0,0-.5.74,3.53,3.53,0,0,0-.25.84,4,4,0,0,0,.12,1.73,3.47,3.47,0,0,0,.36.78l.12.18,0,0,0,0,.08.1c.1.13.19.21.28.31a4.32,4.32,0,0,0,1.44.9,4.84,4.84,0,0,0,1.68.3l.42,0h.11l.1,0,.23,0a7.18,7.18,0,0,0,.82-.22,6.07,6.07,0,0,0,.79-.34c.26-.14.52-.28.76-.44a7,7,0,0,0,1.35-1.15l.58.64a1.12,1.12,0,0,0-.45,1,1.44,1.44,0,0,0,.15.61,1.59,1.59,0,0,0,.39.48,1.91,1.91,0,0,0,.56.32,3.25,3.25,0,0,0,.65.16,4,4,0,0,0,.69,0H49l.16,0a3,3,0,0,0,.37,0,4.47,4.47,0,0,0,.65-.17,3.21,3.21,0,0,1,.33-.12l.31-.14a6.11,6.11,0,0,0,.61-.36l.28-.22a2,2,0,0,0,.26-.24,3.87,3.87,0,0,0,.47-.52,3.29,3.29,0,0,0,.36-.6,3.52,3.52,0,0,0,.23-.67c0-.12.05-.24.06-.36l0-.37v0a.19.19,0,0,1,.21-.18.2.2,0,0,1,.18.15l.09.42c0,.14,0,.28,0,.43a3.56,3.56,0,0,1-.11.86,3.83,3.83,0,0,1-.33.81A2.4,2.4,0,0,1,53,73a1.77,1.77,0,0,1-.26.35,2.27,2.27,0,0,1-.3.32,2.89,2.89,0,0,1-.32.29,5.2,5.2,0,0,1-.72.51l-.38.21-.41.17a5.66,5.66,0,0,1-.88.22c-.16,0-.27,0-.41,0h-.45A4.35,4.35,0,0,1,48,75a3.77,3.77,0,0,1-.85-.31,3.26,3.26,0,0,1-.76-.55,2.27,2.27,0,0,1-.54-.77,2.64,2.64,0,0,1-.22-.92,2.27,2.27,0,0,1,.16-1,1.85,1.85,0,0,1,.62-.8.43.43,0,0,1,.6.62l0,0a7.64,7.64,0,0,1-1.42,1.42,5.52,5.52,0,0,1-.86.56,7.26,7.26,0,0,1-.94.42,5.25,5.25,0,0,1-1,.25l-.24,0h-.26a4.69,4.69,0,0,1-.53,0,5.87,5.87,0,0,1-2-.45A4.89,4.89,0,0,1,38,72.38a5.15,5.15,0,0,1-.32-.41l-.07-.1,0-.06,0-.06-.13-.23a4.37,4.37,0,0,1-.36-1,5.05,5.05,0,0,1-.11-1,3.94,3.94,0,0,1,.55-1.94,3.7,3.7,0,0,1,.64-.78h0l.22.24a3.78,3.78,0,0,1-.22.33,3.83,3.83,0,0,1-.28.29l-.32.25-.36.2-.38.16-.39.11-.41.07-.42,0-.42,0-.41-.08-.41-.11-.4-.16-.38-.2-.35-.25c-.13-.1-.25-.21-.36-.31l-.27-.29-.26-.36-.21-.38-.16-.4-.12-.41c0-.13-.05-.27-.07-.41l0-.41v-.41l0-.41.09-.4.13-.38c0-.12.1-.25.16-.37l.2-.34.24-.32.27-.28.31-.26.31-.19h0a.19.19,0,0,1,.27.07A.2.2,0,0,1,33.72,61.62Z"/><path class="cls-6" d="M101.67,14.67a4.15,4.15,0,0,1,1.26-.16c2.19,0,4,1.23,5.93,1.92a22.61,22.61,0,0,0,7.56.9q5.56,0,11.11-.46a1.28,1.28,0,0,1,1.28.72c.94,2,.51,4.56-.43,6.64a13.7,13.7,0,0,1-9.67,7.86,16.76,16.76,0,0,1-10-1.7,18.32,18.32,0,0,1-8.92-8.09C98.47,19.62,98.39,15.66,101.67,14.67Z"/><path class="cls-10" d="M121,20.5a2.81,2.81,0,0,0,1-2.43c-.25-1.46-4.67-.74-5.59-.74a22.61,22.61,0,0,1-7.56-.9c-2.76-1-5.35-2.65-8.39-1.91a1.5,1.5,0,0,0-.7.32c-.56.52-.2,1.44.23,2.07a15,15,0,0,0,19.55,4.67A6.45,6.45,0,0,0,121,20.5Z"/><path class="cls-10" d="M128.82,17.62a7.76,7.76,0,0,1-.22.79,15.93,15.93,0,0,1-5,10,12,12,0,0,1-5.69,3.82l.84-.12a13.7,13.7,0,0,0,9.67-7.86C129.32,22.16,129.74,19.63,128.82,17.62Z"/><path class="cls-6" d="M44.37,32.06a3.69,3.69,0,0,1-.29-3.37c.56-1,1.77-1.31,2.86-1.6,6.47-1.71,13.77-3.45,19.32-7.39,1.8-1.28,3.38-2.95,5.45-3.69a3.5,3.5,0,0,1,1.69-.24c5.35.76,2.53,10,1.31,12.75a25.16,25.16,0,0,1-5.12,8,15.75,15.75,0,0,1-25.22-4.46Z"/><path class="cls-10" d="M46.29,29.44a11.67,11.67,0,0,0,4.13,2.12,15.59,15.59,0,0,0,10-.62,17.33,17.33,0,0,0,8.24-7.07A14,14,0,0,0,70.45,19a13.22,13.22,0,0,0,.07-2.43,48.57,48.57,0,0,0-4.26,3.14c-5.55,3.94-12.85,5.68-19.32,7.39a7.36,7.36,0,0,0-2,.75A7.66,7.66,0,0,0,46.29,29.44Z"/><path class="cls-7" d="M128.81,17.59a1.28,1.28,0,0,0-1.28-.72l-1.34.09a13.89,13.89,0,0,1-4.06,6.42,18,18,0,0,1-12.32,4.45,21.8,21.8,0,0,1-6.8-1.24,21.66,21.66,0,0,0,5.7,3.8,16.76,16.76,0,0,0,10,1.7,13.7,13.7,0,0,0,9.67-7.86C129.32,22.15,129.75,19.61,128.81,17.59Z"/><path class="cls-7" d="M75.91,17.46C74.88,24.39,71.13,31,64.61,34c-4.69,2.14-11,3.67-15.83,1a14.24,14.24,0,0,1-5-5,5.28,5.28,0,0,0,.59,2.14,15.75,15.75,0,0,0,25.22,4.46,25.16,25.16,0,0,0,5.12-8C75.65,26.4,77.53,20.44,75.91,17.46Z"/><path class="cls-6" d="M107.8,38l-.27-.36c-.86-1.18-1.71-2.36-2.5-3.57a26,26,0,0,1-3.93-9.52,12.51,12.51,0,0,0-1-4.07c-2.94-4.93-11.2-6.06-16.21-4.69-6.3,1.72-8.62,6.68-9.28,12.75a43.23,43.23,0,0,1-1.52,9.2c-1,2.89-2.41,5.61-3.15,8.57a12,12,0,0,0-.36,3.08,10.89,10.89,0,0,0,1,4.32,12.12,12.12,0,0,0,1.14,2,17.65,17.65,0,0,0,5,4.63C87.12,66.9,101.39,65,109,55.12,113.54,49.24,111.88,43.63,107.8,38Z"/><path class="cls-7" d="M76.73,60.35a16.82,16.82,0,0,1-5.63-5.56,12.37,12.37,0,0,1-.95-2.06,10.63,10.63,0,0,1-.32-1.1c0-.24,0-.88-.19-1.06a31.82,31.82,0,0,0,3.25,3.52c.37.35.76.67,1.16,1,5.13,4.71,12.64,6.91,19.36,5.11,4-1.06,8-2.41,11-5.25A19.46,19.46,0,0,0,108.73,48c.52-1.33,1.69-5.73,1-7,2.58,4.64,3.06,9.31-.68,14.17C101.39,65,87.12,66.9,76.73,60.35Z"/><path class="cls-7" d="M81.74,25.36c7-1.47,8.89,10.17,4.3,13.73-6.39,5-13.29-11.84-4.3-13.73Z"/><path class="cls-7" d="M90.3,29.81a8.54,8.54,0,0,1,1.57-5.45,5.35,5.35,0,0,1,5.06-2.14c2.21.42,3.77,2.44,4.71,4.48,1.23,2.68,1.77,5.87.58,8.56s-4.5,4.55-7.21,3.39a6.77,6.77,0,0,1-3-2.95A12.34,12.34,0,0,1,90.3,29.81Z"/><path class="cls-11" d="M81.74,24c7-1.46,8.89,10.17,4.3,13.74-6.39,5-13.29-11.85-4.3-13.74C83,23.75,79.35,24.51,81.74,24Z"/><path class="cls-12" d="M87.81,27.68c0,3.73-.83,7.18-4.34,8.22a4.93,4.93,0,0,1-4.57-.78C80.54,38,83.34,39.84,86,37.74S89.16,31,87.81,27.68Z"/><path class="cls-13" d="M81.14,31.16a2.35,2.35,0,1,0,4.65-.27A2.63,2.63,0,0,0,84,28.45c-.21-.06-.16,2-.39,2s-.69-2-.89-1.94A2.63,2.63,0,0,0,81.14,31.16Z"/><path class="cls-14" d="M91.56,51.38c.33,0-.42,4.92-.49,5.29a.5.5,0,0,0,.58-.18,1.38,1.38,0,0,0,.23-.61c.32-1.41.46-3,.87-4.32Z"/><path class="cls-14" d="M95.63,54.68c-3,1.57-6,2.47-8.95.2a3,3,0,0,0-1.37-.77c-.13.62.47,1.13,1,1.45a9.8,9.8,0,0,0,4.28,1.52c2.45.16,4.33-.8,6.31-2.06.48-.3,1-.75.92-1.31A14.2,14.2,0,0,0,95.63,54.68Z"/><path class="cls-11" d="M90.3,28.45A8.54,8.54,0,0,1,91.87,23a5.39,5.39,0,0,1,5.06-2.14c2.21.42,3.77,2.44,4.71,4.49,1.23,2.67,1.77,5.86.58,8.55s-4.5,4.55-7.21,3.39a6.75,6.75,0,0,1-3-2.94A12.41,12.41,0,0,1,90.3,28.45Z"/><path class="cls-12" d="M101.65,25.37a19,19,0,0,1-.43,3c-.19,3.06-1.34,5.63-4.35,6.53a6.56,6.56,0,0,1-4.78-.36A6.66,6.66,0,0,0,95,37.29c2.71,1.16,6-.69,7.21-3.39S102.87,28,101.65,25.37Z"/><path class="cls-13" d="M94,29.94a2.46,2.46,0,1,0,4.81-.55,2.7,2.7,0,0,0-1.89-2.52c-.22-.05-.2,2.25-.44,2.28s-.91-2.24-1.14-2.12A2.9,2.9,0,0,0,94,29.94Z"/><path class="cls-4" d="M75,3.9c1.68-1,4.07-1.08,5.47.1a.37.37,0,0,0,.61-.24A3.73,3.73,0,0,1,83.83.61a3.71,3.71,0,0,1,3.85,1.67.37.37,0,0,0,.65-.06,3.77,3.77,0,0,1,4-2.15,3.77,3.77,0,0,1,2.8,3.63.37.37,0,0,0,.58.31,4.32,4.32,0,0,1,5.1.17,4.32,4.32,0,0,1,.82,5.36.36.36,0,0,0,.24.54A4.09,4.09,0,0,1,105,12.81,3.67,3.67,0,0,1,103.26,17c-1.17.61-2.7-.28-3.62-.82a.35.35,0,0,0-.52.35c.21,1.37,1.32,3.59-1,5a4.69,4.69,0,0,1-4.47,0,7.66,7.66,0,0,1-2.49-2,.37.37,0,0,0-.65.2,3.62,3.62,0,0,1-3.1,3.11,4.49,4.49,0,0,1-4.27-2.66.37.37,0,0,0-.66,0,7.91,7.91,0,0,1-3,3.19,4.6,4.6,0,0,1-5-.18,3.37,3.37,0,0,1-1-3.73.37.37,0,0,0-.41-.5,3.88,3.88,0,0,1-4.28-3.62A4.82,4.82,0,0,1,73,11a.36.36,0,0,0,.22-.61,3.58,3.58,0,0,1-.79-3.17A5.43,5.43,0,0,1,75,3.9Z"/><path class="cls-15" d="M86.06,17c.52-.07,1-.11,1.58-.13l1-.38a9,9,0,0,1-1.82-.29A7.76,7.76,0,0,1,86.06,17Z"/><path class="cls-8" d="M73.73,11.61a3.09,3.09,0,0,1,1.2-.89c-2.15-4,3.12-8.09,6.52-5.2a.37.37,0,0,0,.61-.24,3.69,3.69,0,0,1,2.71-3.15,3.71,3.71,0,0,1,3.85,1.66s2.83-1.68,4-.71c2.08,1.68.88,4.63-1.09,5.8a3.06,3.06,0,0,1-2.62.23c.54,1-.28,2.24-1.3,2.73a3.82,3.82,0,0,1-3.54-.15A2.22,2.22,0,0,1,83,14.26c-.71.38-4.1-.36-3.58-.83-.86.78-1.2.46-1.94.84s-1.22,1.24-2.29,1.24a2.23,2.23,0,0,1-2.1-2.19A2.63,2.63,0,0,1,73.73,11.61Z"/><path class="cls-5" d="M105,12.81a4.09,4.09,0,0,0-3.08-2.73.36.36,0,0,1-.24-.54,4.32,4.32,0,0,0-.82-5.36,3.15,3.15,0,0,0-2.06-.82c.21,0,.38,1.47.38,1.65a3,3,0,0,1-.25,1.29c-.17.39-.31.82-.5,1.2s-.62.77-.6,1.26a2.3,2.3,0,0,0,.59,1.09c1.12,1.68-.35,3.8-2.15,4.08-.23,0-.47,0-.7.1a.78.78,0,0,0-.55.41,1.55,1.55,0,0,0,0,.61,3.06,3.06,0,0,1-1.4,2.05,4,4,0,0,1-2.38.78,3.94,3.94,0,0,1-1.9-.77A.73.73,0,0,0,89,17c-.51,0-.61.68-.87,1a2.78,2.78,0,0,1-1.46.68c-1.22.24-1.92-.66-2.9-.69a5.18,5.18,0,0,0-2.28,1.12,7.73,7.73,0,0,1-2,1.19,8.71,8.71,0,0,1-6.12,0,3.43,3.43,0,0,0,1.22,3,4.6,4.6,0,0,0,5,.18,7.91,7.91,0,0,0,3-3.19.37.37,0,0,1,.66,0,4.49,4.49,0,0,0,4.27,2.66,3.62,3.62,0,0,0,3.1-3.11.37.37,0,0,1,.65-.2,7.66,7.66,0,0,0,2.49,2,4.69,4.69,0,0,0,4.47,0c2.31-1.45,1.2-3.67,1-5a.35.35,0,0,1,.52-.35c.92.54,2.45,1.43,3.62.82A3.67,3.67,0,0,0,105,12.81Z"/><path class="cls-9" d="M58.37,66.58V66l.39,0h0a4.83,4.83,0,0,0,1.19,3.16,5.78,5.78,0,0,0,.61.6,4.86,4.86,0,0,0,.68.48,7.23,7.23,0,0,0,3.22,1,2.29,2.29,0,0,0,.75-.06h0l.06,0,.11,0a.59.59,0,0,0,.16-.08,1.4,1.4,0,0,0,.3-.18,2.37,2.37,0,0,0,.52-.57,4.42,4.42,0,0,0,.39-.75,7.35,7.35,0,0,0,.43-1.72h0a.2.2,0,0,1,.23-.17.22.22,0,0,1,.17.14h0a2.78,2.78,0,0,0,1.84,1.84,2.83,2.83,0,0,0,.63.13h.32a2.32,2.32,0,0,0,.31,0,3.2,3.2,0,0,0,1.22-.44,3.58,3.58,0,0,0,.55-.38c.18-.15.33-.31.49-.47s.15-.17.21-.26l0-.07,0-.07.1-.16c.11-.18.23-.39.34-.6a8.92,8.92,0,0,0,.72-2.84.2.2,0,0,1,.22-.18.19.19,0,0,1,.17.16,6.08,6.08,0,0,1-.16,3.24,4.57,4.57,0,0,1-.34.8l-.1.17-.06.1-.06.09a2.9,2.9,0,0,1-.25.36,5,5,0,0,1-1.31,1.15,4.38,4.38,0,0,1-1.7.56,3.52,3.52,0,0,1-.45,0h-.23l-.23,0a3.15,3.15,0,0,1-.87-.27,3.15,3.15,0,0,1-1.75-1.91,2.48,2.48,0,0,1-.1-.85l.39,0h0a5.59,5.59,0,0,1-.1,2,3.6,3.6,0,0,1-1,1.83A2.45,2.45,0,0,1,66,72l-.25.13-.11,0,0,0h-.1a3.2,3.2,0,0,1-1.09.18,6.52,6.52,0,0,1-1-.1,8.2,8.2,0,0,1-1-.23,7,7,0,0,1-1.81-.86,6.9,6.9,0,0,1-.8-.65,4.87,4.87,0,0,1-.66-.76A5,5,0,0,1,58.34,68a4.27,4.27,0,0,1,0-2h0a.21.21,0,0,1,.22-.17.21.21,0,0,1,.18.19h0v.56a.19.19,0,0,1-.19.2A.19.19,0,0,1,58.37,66.58Z"/><path class="cls-9" d="M24.53,40.25l-.23.16-.21.16a3.33,3.33,0,0,0-.39.36,4.09,4.09,0,0,0-.64.86,3.58,3.58,0,0,0-.39,1,4.34,4.34,0,0,0-.07.52,3,3,0,0,0,0,.52c0,.07,0,.18.05.26l.08.24a2.71,2.71,0,0,0,.94,1.22,3.23,3.23,0,0,0,.44.27,2.81,2.81,0,0,0,.49.16,2.13,2.13,0,0,0,.25,0h.25l.25,0,.24-.07h0a.2.2,0,0,1,.24.13.21.21,0,0,1,0,.19l0,0a4.31,4.31,0,0,0-1,1.92,4.64,4.64,0,0,0-.1,1,4,4,0,0,0,.16,1c0,.08,0,.16.08.24l.08.19a5.3,5.3,0,0,0,.28.47l.13.18.16.19a2.81,2.81,0,0,0,.34.35,5.3,5.3,0,0,0,.83.57,6,6,0,0,0,.94.39,5.06,5.06,0,0,0,1,.22,7.25,7.25,0,0,0,1,0L30,53h.11l.15,0,.52-.09a7.73,7.73,0,0,0,1-.3,6.52,6.52,0,0,0,1-.46,6.75,6.75,0,0,0,.89-.62,5.17,5.17,0,0,0,.77-.78,5.48,5.48,0,0,0,.64-.93h0a.19.19,0,0,1,.27-.07.19.19,0,0,1,.1.2,4.85,4.85,0,0,1-.35,1.22,5.44,5.44,0,0,1-.68,1.1,5.34,5.34,0,0,1-.92.92,7.15,7.15,0,0,1-1.09.73,7.33,7.33,0,0,1-1.23.49,5.42,5.42,0,0,1-.64.16l-.15,0-.18,0-.34,0a6.87,6.87,0,0,1-2.65-.32A7.16,7.16,0,0,1,26,53.77a6.21,6.21,0,0,1-1.08-.85A4.62,4.62,0,0,1,24,51.79a5.6,5.6,0,0,1-.27-.58h0l0,0h0v0l0,0,0-.08-.05-.17c0-.11-.05-.23-.08-.34a4.44,4.44,0,0,1,0-1.36,4.58,4.58,0,0,1,.35-1.28,4.16,4.16,0,0,1,1.67-1.93l.19.34h0l-.3.08-.3,0h-.31l-.3,0a2.84,2.84,0,0,1-1.09-.49,3.36,3.36,0,0,1-.81-.87,3.71,3.71,0,0,1-.26-.53c0-.1-.07-.2-.09-.3s0-.17-.06-.29a3.84,3.84,0,0,1,0-.59,4,4,0,0,1,.08-.59,3.93,3.93,0,0,1,.43-1.09,4.49,4.49,0,0,1,.69-.93l.43-.4c.16-.12.31-.23.47-.33h0a.2.2,0,0,1,.27.06A.19.19,0,0,1,24.53,40.25Z"/><path class="cls-9" d="M44.06,53.88a3.75,3.75,0,0,0,0,.74,3.38,3.38,0,0,0,.1.72,4.35,4.35,0,0,0,.58,1.3,5.45,5.45,0,0,0,.95,1.08,5.24,5.24,0,0,0,1.19.79,5.32,5.32,0,0,0,.66.26,4.53,4.53,0,0,0,.7.15,5,5,0,0,0,.69,0c.24,0,.47,0,.71-.07A5.94,5.94,0,0,0,51,58.44a4.15,4.15,0,0,0,.64-.38,5.13,5.13,0,0,0,.61-.46h0a.16.16,0,0,1,.22,0,.16.16,0,0,1,.06.12v0a2,2,0,0,0,.69,1.36,4.46,4.46,0,0,0,1.33.9A2.94,2.94,0,0,0,56,60.3h.21l.17,0a1.78,1.78,0,0,0,.36-.1,3.88,3.88,0,0,0,.7-.3,5.47,5.47,0,0,0,1.22-1,4.59,4.59,0,0,0,.48-.61,3.05,3.05,0,0,0,.36-.65,2.88,2.88,0,0,0,.15-.7,4.93,4.93,0,0,0,0-.77c0-.27-.06-.54-.11-.8a7,7,0,0,0-.2-.79h0a.39.39,0,0,1,.16-.51l.12,0h.1a5.31,5.31,0,0,0,1.08-.24l.51-.21c.16-.08.32-.16.47-.25a4.58,4.58,0,0,0,.84-.67l.18-.19,0,0,0-.06.09-.13a3.35,3.35,0,0,0,.29-.44,4.45,4.45,0,0,0,.26-.48c.07-.17.14-.35.2-.52a8.11,8.11,0,0,0,.3-1.1c0-.18,0-.37.07-.56a3.62,3.62,0,0,0,0-.57,5.46,5.46,0,0,0,0-.57c0-.18-.08-.37-.13-.56v0a.2.2,0,0,1,.13-.24.19.19,0,0,1,.22.08l.18.28.15.3a4.75,4.75,0,0,1,.2.64,3.52,3.52,0,0,1,.1.65,5,5,0,0,1,0,.67,6.47,6.47,0,0,1-.19,1.31,5.1,5.1,0,0,1-.2.63c-.09.21-.17.42-.28.62a4.6,4.6,0,0,1-.37.6l-.09.12,0,.06-.07.09-.23.25a4.62,4.62,0,0,1-1.11.82,4.44,4.44,0,0,1-2.64.53l.38-.56h0A6,6,0,0,1,60.66,56a5.21,5.21,0,0,1,.06,1,3.6,3.6,0,0,1-.19,1,3.55,3.55,0,0,1-.46.89,5.82,5.82,0,0,1-2.14,1.89,4.76,4.76,0,0,1-.91.35l-.49.1-.26,0H56a3,3,0,0,1-1-.16,4.93,4.93,0,0,1-.87-.4,4.54,4.54,0,0,1-.76-.54,3.82,3.82,0,0,1-.65-.68,3.08,3.08,0,0,1-.47-.83,1.84,1.84,0,0,1-.09-1l.29.12h0a3.7,3.7,0,0,1-.51.67,5.6,5.6,0,0,1-.63.56,6.87,6.87,0,0,1-.74.44,5.48,5.48,0,0,1-.8.3,4.21,4.21,0,0,1-.86.16,5.27,5.27,0,0,1-.89,0,4.62,4.62,0,0,1-.86-.16,4.77,4.77,0,0,1-.82-.31,5.63,5.63,0,0,1-1.43-1,5.17,5.17,0,0,1-1-1.37,4.21,4.21,0,0,1-.5-1.66,3.39,3.39,0,0,1,.27-1.68h0a.19.19,0,0,1,.26-.09A.19.19,0,0,1,44.06,53.88Z"/><path class="cls-9" d="M23.2,59.87h-.13a1,1,0,0,0-.29.1,1.42,1.42,0,0,0-.37.25,2,2,0,0,0-.38.46,4.65,4.65,0,0,0-.34.67,7.21,7.21,0,0,0-.26.82,6.93,6.93,0,0,0-.16.91,3.15,3.15,0,0,0,0,.87,2,2,0,0,0,.27.79,2.09,2.09,0,0,0,.49.6,3.85,3.85,0,0,0,.67.47,6.13,6.13,0,0,0,.71.31,9.15,9.15,0,0,0,1.18.31l.47.08h0a.2.2,0,0,1,0,.39l-.13,0-.37.06A4.83,4.83,0,0,1,24,67a4.36,4.36,0,0,1-.78-.05,4.89,4.89,0,0,1-.92-.22,4.18,4.18,0,0,1-1-.51,3.28,3.28,0,0,1-.86-.91A3.33,3.33,0,0,1,20,64.16a3.9,3.9,0,0,1,0-1.23,5.36,5.36,0,0,1,.27-1.1,4.9,4.9,0,0,1,.44-1,3.83,3.83,0,0,1,.59-.77,2.42,2.42,0,0,1,.69-.5,1.63,1.63,0,0,1,.65-.19,1.24,1.24,0,0,1,.43,0l.13,0a.21.21,0,0,1,.14.25A.22.22,0,0,1,23.2,59.87Z"/><path class="cls-16" d="M88.91,13.58a2.26,2.26,0,0,0,0,.27,1.17,1.17,0,0,0,.07.25,1.61,1.61,0,0,0,.26.46,2,2,0,0,0,.4.36l.11.06.13.07.24.09a2.5,2.5,0,0,0,1.09.08l.27,0,.27-.07a3,3,0,0,0,1.39-.83,2.67,2.67,0,0,0,.32-.43l.06-.11.07-.13a1.69,1.69,0,0,0,.08-.24,2.16,2.16,0,0,0-.4-2h0a.2.2,0,0,1,.27-.29,5.05,5.05,0,0,0,.58.36,3.56,3.56,0,0,0,.6.27l.31.08h.08l.08,0h.15a2,2,0,0,0,.61-.06,1.36,1.36,0,0,0,.52-.23l.06,0s0,0,0,0l0,0,.07-.06,0,0a1.25,1.25,0,0,0,.16-.22,1.85,1.85,0,0,0,.19-1.45A1.9,1.9,0,0,0,97,9.36a3.37,3.37,0,0,0-.3-.56,4,4,0,0,0-.41-.51A2.61,2.61,0,0,0,96,8.05a2.46,2.46,0,0,0-.25-.22,3.92,3.92,0,0,0-1.14-.65,2.65,2.65,0,0,0-1.28-.12h0a.2.2,0,0,1-.09-.38,2.75,2.75,0,0,1,1.53,0,4.24,4.24,0,0,1,1.37.66l.3.24a3.45,3.45,0,0,1,.28.26,4,4,0,0,1,.5.58,4.64,4.64,0,0,1,.38.69c0,.13.09.25.13.39a2.26,2.26,0,0,1,.07.39,2.41,2.41,0,0,1-.34,1.6,1.62,1.62,0,0,1-.26.34l-.09.08-.06.06,0,0,0,0-.09.06a2.3,2.3,0,0,1-.78.32,2.45,2.45,0,0,1-.81,0l-.2,0-.19-.05a2.32,2.32,0,0,1-.37-.13,3.4,3.4,0,0,1-.67-.38,3.64,3.64,0,0,1-.56-.48l.26-.29h0a2.23,2.23,0,0,1,.67,1.13,2.72,2.72,0,0,1,0,1.33,2.55,2.55,0,0,1-.11.33l-.06.13a1.19,1.19,0,0,1-.08.16,2.66,2.66,0,0,1-.39.54,3.32,3.32,0,0,1-1.06.77,4.62,4.62,0,0,1-.62.23l-.31.06-.33,0a3.06,3.06,0,0,1-1.3-.17,2.73,2.73,0,0,1-.31-.14l-.13-.07-.15-.1a2.08,2.08,0,0,1-.77-1.07c0-.11-.06-.22-.08-.33s0-.24,0-.33h0a.19.19,0,0,1,.2-.19.19.19,0,0,1,.19.2Z"/><path class="cls-9" d="M81.3,6.75h0s0,0,0,.11a1.64,1.64,0,0,0,0,.38,1.57,1.57,0,0,0,0,.46,2,2,0,0,0,.21.51,2.44,2.44,0,0,0,.37.51A2.75,2.75,0,0,0,83,9.46l.16,0,.19.05.34,0a4.29,4.29,0,0,0,.71,0,7.84,7.84,0,0,0,1.28-.16l.92-.21L87,9.2a.19.19,0,0,1,.24.15.18.18,0,0,1-.11.22h0l-.34.15c-.21.08-.52.21-.92.33a7,7,0,0,1-1.38.27,4.5,4.5,0,0,1-.82,0,3.64,3.64,0,0,1-.44-.07l-.19,0-.22-.07a3.28,3.28,0,0,1-1.41-1,2.74,2.74,0,0,1-.64-1.36,2.14,2.14,0,0,1,0-.62,1.78,1.78,0,0,1,.12-.43.59.59,0,0,1,.24-.34.37.37,0,0,1,.16,0h0a.2.2,0,0,1,.21.19A.2.2,0,0,1,81.3,6.75Z"/><path class="cls-9" d="M77.24,9.65l-.18.16a1,1,0,0,0-.14.15,2.52,2.52,0,0,0-.24.33,2.1,2.1,0,0,0-.27.76,2.8,2.8,0,0,0,.24,1.58,2.6,2.6,0,0,0,.21.36,2.42,2.42,0,0,0,.25.31,1.75,1.75,0,0,0,.64.41,1.24,1.24,0,0,0,.38.09,1.7,1.7,0,0,0,.39,0,.78.78,0,0,0,.21,0,1.17,1.17,0,0,0,.2-.06c.14,0,.27-.12.41-.18h0l.23.32a1.88,1.88,0,0,0-.58,1,2.51,2.51,0,0,0-.07.55,1.39,1.39,0,0,0,.09.5,1.32,1.32,0,0,0,.66.7l.24.11.14.05.12,0a3.39,3.39,0,0,0,.57.1,5.74,5.74,0,0,0,.6,0l.62,0a2.12,2.12,0,0,0,.53-.05,1.08,1.08,0,0,0,.44-.2,3.5,3.5,0,0,0,.45-.37c.16-.14.32-.27.45-.4a1.9,1.9,0,0,0,.32-.44,1.57,1.57,0,0,0,.17-.53h0a.2.2,0,0,1,.22-.16.19.19,0,0,1,.17.16,1.8,1.8,0,0,1,0,.73,2.38,2.38,0,0,1-.32.66,4.76,4.76,0,0,1-.44.53,4.67,4.67,0,0,1-.5.49,2.12,2.12,0,0,1-.7.37,2.49,2.49,0,0,1-.74.09c-.23,0-.43,0-.66,0s-.45,0-.68,0a4.45,4.45,0,0,1-.69-.14l-.18-.06-.17-.07a2.59,2.59,0,0,1-.33-.17,2,2,0,0,1-1-2,2.41,2.41,0,0,1,.18-.7,2.26,2.26,0,0,1,.92-1.08h0a.19.19,0,0,1,.27.07.2.2,0,0,1,0,.25h0a2.4,2.4,0,0,1-.41.3,1.36,1.36,0,0,1-.24.13l-.25.1a1.91,1.91,0,0,1-.54.1.88.88,0,0,1-.28,0,1.26,1.26,0,0,1-.28,0,1.89,1.89,0,0,1-.53-.21,2.1,2.1,0,0,1-.46-.32,3,3,0,0,1-.38-.41,3.52,3.52,0,0,1-.28-.46,3.1,3.1,0,0,1-.26-2.12,2.59,2.59,0,0,1,.51-1,2.35,2.35,0,0,1,.41-.36,2,2,0,0,1,.23-.14l.22-.1a.21.21,0,0,1,.27.11A.22.22,0,0,1,77.24,9.65Z"/><path class="cls-3" d="M18.14,97.61a13,13,0,0,0,2-2.39,1.55,1.55,0,0,0,.37-.8,1.62,1.62,0,0,0-.58-1.09l-3.17-3.39c-1.13-1.2-3.08-3.59-4.95-3.12-1.29.32-3.38,3-3.89,4.1a1.58,1.58,0,0,0,.66,2.13,2.81,2.81,0,0,0,1.43.32,10.94,10.94,0,0,0,4.12-1.07,3.11,3.11,0,0,1-.52,2A4.16,4.16,0,0,0,13.16,97c.43,1.71,2.38,2,3.78,1.36A5.3,5.3,0,0,0,18.14,97.61Z"/><path class="cls-3" d="M86.07,91.19a10.31,10.31,0,0,0-2.78-2.67A2.29,2.29,0,0,0,81.9,88a2.15,2.15,0,0,0-.9.37,55.3,55.3,0,0,0-6.85,5.71c-.53.46-1.19,1.13-1,1.9a2.4,2.4,0,0,0,.58.9,13.89,13.89,0,0,0,3.72,2.93c1,.53,2.75,1.14,3.52-.06.51-.79.34-2.46.39-3.35a2.37,2.37,0,0,1,1.48-2.13A9.14,9.14,0,0,1,84.24,94c1.17-.24,2.73-1,2.11-2.33A5,5,0,0,0,86.07,91.19Z"/><path class="cls-14" d="M97.77,47.28a.24.24,0,0,0-.23-.09.69.69,0,0,0-.3.14c-1.17.83-2.36,1.62-3.57,2.38a4.42,4.42,0,0,1-2,.68c-1.61.18-3.46-1.28-4.5-2.35-.59-.61-.94-.46-.4.36a7.33,7.33,0,0,0,2.88,2.78,3.85,3.85,0,0,0,2.83.59,6.55,6.55,0,0,0,2.66-1.33,14.32,14.32,0,0,0,2.53-2.85.35.35,0,0,0,.09-.23A.19.19,0,0,0,97.77,47.28Z"/></g></g></g></svg>