<svg xmlns="http://www.w3.org/2000/svg" viewBox="0 0 118.6 92.99"><defs><style>.cls-1{isolation:isolate;}.cls-2{fill:#72a333;}.cls-3{fill:#67942e;}.cls-10,.cls-4{fill:#ecefb6;}.cls-5{fill:#a3d35e;}.cls-6{fill:#8abd48;}.cls-7{fill:#b1d441;}.cls-8{fill:#81b53e;}.cls-9{fill:#dde19b;}.cls-10{opacity:0.45;mix-blend-mode:screen;}.cls-11{fill:#77c219;opacity:0.24;mix-blend-mode:multiply;}.cls-12{fill:#b0e06a;}.cls-13{fill:#5f8231;}.cls-14{fill:#fff;}.cls-15{fill:#e6e4cf;}.cls-16{fill:#253320;}</style></defs><g class="cls-1"><g id="Слой_2" data-name="Слой 2"><g id="animal"><g id="turtle"><path class="cls-2" d="M5.8,71C3.88,72.94.08,75.6,0,78.63c-.06,2.24,2.32,3.63,4.06,4.47,3.69,1.78,12.8,6.52,15.79,1.87,1.27-2,1.46-4.58,1.72-6.86.3-2.63-.26-3.81-2.46-5.2C16,71,9,67.46,5.8,71,4.11,72.7,9.07,67.37,5.8,71Z"/><path class="cls-3" d="M10.69,77.33a45.75,45.75,0,0,1,5.4,2.85,46.46,46.46,0,0,1,4.42,3.08,24.14,24.14,0,0,0,.92-5.14c.3-2.61-.26-3.76-2.43-5.14C15.93,71,9,67.6,5.87,71.09l-.34.33c-.6.57-1.32,1.21-2,1.88A38.06,38.06,0,0,1,10.69,77.33Z"/><path class="cls-3" d="M5.87,71.09c2.84-3.16-.63.58-.34.33Z"/><path class="cls-4" d="M17.54,86.62l.22-.11c.43-.21.43-1.88.49-2.31a1.59,1.59,0,0,0-1-1.67c-2.32-1-4,.5-4.34,2.65a2.28,2.28,0,0,1-.18.78.67.67,0,0,1-.65.39,2.09,2.09,0,0,1,.13-1.07c.52-1.75,1-4.54-1.54-5a3.8,3.8,0,0,0-2.81,1.11c-.69.61-.8,1.94-1.38,2.43a.79.79,0,0,1-.37.2c-.14,0-.31-.06-.32-.2a.41.41,0,0,1,0-.21,7.47,7.47,0,0,0,.5-4.57c-.23-1.13-.73-2.11-2-1.94a3.48,3.48,0,0,0-2.07,1.25c-1.2,1.38-1.41,3.4.28,4.49a30.64,30.64,0,0,0,6.77,3.39c1.77.59,4.89,1.52,6.7,1A14.59,14.59,0,0,0,17.54,86.62Z"/><path class="cls-2" d="M87.92,71.67s5.47-1.67,8.21-.74,11,4.1,9.17,7.78c-.79,1.63-9.33,6.69-12.55,6.85S82.34,77.85,87.92,71.67Z"/><path class="cls-3" d="M97.48,72.65c.39-.26.79-.51,1.19-.75-1-.42-1.92-.75-2.54-1-2.74-.93-8.21.74-8.21.74-3.59,4-1.89,8.66.64,11.45C89.31,78.35,93.71,75.23,97.48,72.65Z"/><path class="cls-4" d="M104.75,77.78a3.07,3.07,0,0,0-3.79-.62,1.83,1.83,0,0,0-.95,1.13c-.21.9.49,1.71,1,2.5a.94.94,0,0,1,.15.93c-.58,0-.86-.64-1.26-.93A7.93,7.93,0,0,0,98.22,80a1.74,1.74,0,0,0-1.07-.17,1.62,1.62,0,0,0-.61.35c-1,.87-1.65,2.76-.75,3.92s2.28.42,3.25-.11a27.91,27.91,0,0,0,4.16-2.82C104.37,80.22,106.27,79.23,104.75,77.78Z"/><path class="cls-5" d="M20.18,77.44c-1.53,2.17-6.62,8.66-4.68,11.39,1.32,1.86,5.46,2.32,7.47,2.7,3.11.59,6.64,1.13,9.78.43s3.72-4,3.69-6.69c0-2-.19-5.29-2.39-6.08C29.78,77.66,24.67,77.68,20.18,77.44Z"/><path class="cls-6" d="M23,81.76a46.58,46.58,0,0,1,8.16,3.13,31.09,31.09,0,0,1,5,3.2,12.27,12.27,0,0,0,.28-2.82c0-2-.19-5.29-2.39-6.08-4.27-1.53-9.38-1.51-13.87-1.75-.49.7-1.35,1.84-2.22,3.16A35.45,35.45,0,0,1,23,81.76Z"/><path class="cls-5" d="M73.06,79.89c1.75,3.68,4,9.54,7.74,11.63,2.17,1.22,5.78,0,7.9-.78,2.29-.8,6.47-2.31,7.14-5,.59-2.43-2.2-5.13-3.74-6.6-1.27-1.22-3.95-4-5.94-3.8A39.34,39.34,0,0,0,79,77.16C78.2,77.41,73,78.66,73.06,79.89Z"/><path class="cls-6" d="M83,82.37a49.8,49.8,0,0,1,7.7-4.61c-1.35-1.24-3.1-2.61-4.52-2.45A39.34,39.34,0,0,0,79,77.16c-.81.25-6,1.5-6,2.73a55.92,55.92,0,0,0,4.4,8.4A18.89,18.89,0,0,1,83,82.37Z"/><path class="cls-4" d="M34.21,91.45C35.11,90,34,88.58,32.66,88a3.33,3.33,0,0,0-2.27-.35c-1.52-.08-2,3.34-2.18,4.22,0,.18-.15.41-.33.39a.27.27,0,0,1-.19-.14,1.07,1.07,0,0,1-.12-.69c.08-1.57.39-3.21-1.14-4.25a2.33,2.33,0,0,0-1.34-.36c-2.15.06-2.84,1.75-2.89,3.62a1.26,1.26,0,0,1-.17.75c-.16.21-.55.24-.65,0a.66.66,0,0,1,0-.28c.22-1.85.66-3.33-.89-4.72-1-.89-1.89-.61-2.93.09s-1.8,1.48-1.46,2.68a2.89,2.89,0,0,0,2.09,2,54.82,54.82,0,0,0,8,1.77C28.3,92.91,32.78,93.67,34.21,91.45Z"/><path class="cls-4" d="M96,86.53a2.39,2.39,0,0,0-2.19-2.9c-2.41-.29-3.2,2.26-2.58,4.18a3.2,3.2,0,0,1,.35,1.87c-.34.13-.63-.27-.78-.61-.65-1.51-1.24-3.78-3.46-2.95a2.76,2.76,0,0,0-1.43,3.67c.23.5.63,1,.5,1.54-.25.07-.45-.21-.56-.45-.49-1.1-.57-2.37-1.73-2.92a2.19,2.19,0,0,0-2.71.41,2.78,2.78,0,0,0-.28,2.86c.74,1.65,2.52,1.28,4.08.94a47.12,47.12,0,0,0,5.73-1.45,9.8,9.8,0,0,0,4.89-3.82A2,2,0,0,0,96,86.53Z"/><path d="M59.41,81.47a.07.07,0,0,1-.06,0,.09.09,0,0,1,0-.13,1.67,1.67,0,0,0,.18-.28.1.1,0,0,1,.13-.05.1.1,0,0,1,0,.13,1.77,1.77,0,0,1-.21.32S59.43,81.48,59.41,81.47Z"/><path class="cls-7" d="M90.07,48.3q-2.44,2-4.76,4.23c-1.44,1.36-2.49,3.64-4.46,4.33A47.85,47.85,0,0,0,65.59,36.74c.38,0,4-7.2,4.68-8.12.54-.75,1.12-1.48,1.71-2.19.7.47,1.38,1,2,1.48a41.65,41.65,0,0,1,4.07,3.56c4.92,4.9,8.54,10.85,12,16.83C88.44,49.66,89.45,47.22,90.07,48.3Z"/><path class="cls-7" d="M43.34,44.33a35.39,35.39,0,0,0-9,9.39,40.89,40.89,0,0,0-3.16,5.72c-.37.83-.5,1.71-1.41,2a3.48,3.48,0,0,1-2.7-.69L13.45,52.58c-1-.58-1-.87-.36-1.74,2.2-2.9,4.68-5.61,7.07-8.37C23,39.24,25.81,36,28.86,33c.69-.68,1.38-1.35,2.09-2,.74.5,1.46,1,2.17,1.57a45.26,45.26,0,0,1,4,3.55,45.3,45.3,0,0,1,3.56,4C41.51,41.16,43.35,43,43.34,44.33Z"/><path class="cls-8" d="M25.91,80c-6.53-1.87-13.32-4-19-7.85-2.45-1.65-5.28-4-5.52-7.19C1.2,62.54,2.94,60.9,4.48,59.2a87.71,87.71,0,0,1,7-6.66c.9-.79,1.66-1.46,2.84-1a37,37,0,0,1,3.89,2.29c2.56,1.49,5.13,3,7.69,4.44,1.29.75,4.19,1.74,4.54,3.25s-.94,3.47-1.58,4.9a31.12,31.12,0,0,0-2.07,6.15C26.6,73.35,25,79.75,25.91,80Z"/><path class="cls-9" d="M59.67,83.68c-10,.8-.22-2.58,0,0a96.34,96.34,0,0,1-30.53-2.79c-.79-.19-3.32-.35-3.4-1.31a14.2,14.2,0,0,1,.35-3.5,52.53,52.53,0,0,1,1.81-7.75c.67-2,1-4.15,1.9-6.11.53-1.2.89-1.25,2.17-1,.63.09,1.22.31,1.84.46,1.85.43,3.7,0,5.58,0a25.48,25.48,0,0,1,6.53,1.24c1.47.45,2.86,1.11,4.32,1.58,1.15.36,2.76.32,3.79.93,1.58,1,2,3.18,2.45,4.83C57,72.31,57.92,74,58.58,76A33.63,33.63,0,0,1,59.67,83.68Z"/><path class="cls-7" d="M88.12,76.58A65.71,65.71,0,0,1,74.3,81.42c-1.27.31-14.44,3-14.59,2.22-.41-2.23-1.06-4.45-1.6-6.65-.72-2.88-1.13-6-2.31-8.73-.8-1.83-1.16-3.19.85-4.17s3.48-2.66,5.37-3.75a25.92,25.92,0,0,1,14-3.5c1.63,0,4.34-1.16,5.41.59s1.23,3.81,1.63,5.7a46.24,46.24,0,0,0,5.05,13.45C82.86,79.18,87.5,75.52,88.12,76.58Z"/><path class="cls-8" d="M89.48,75.88h0c-1,.54-1.17,1.08-1.82-.1-.43-.8-.84-1.63-1.22-2.46-.8-1.8-1.45-3.66-2.07-5.53q-1.19-3.6-2.52-7.16c-.37-1-1.33-2.45-1.31-3.49S81.7,55,82.37,54.31a41.43,41.43,0,0,1,7.69-6c1.9,2.5,3.18,5.64,4.85,8.31,1.46,2.34,3.21,4.7,3.57,7.52C99.2,69.81,93.81,73.57,89.48,75.88Z"/><path class="cls-9" d="M72,26.43c-2.36,2.8-4,6.55-5.77,9.76-.68,1.2-2.83,1.06-4,1.27q-2.53.43-5,1.07a71.29,71.29,0,0,0-9.75,3.21,10.25,10.25,0,0,0-2.82,1.57c-1.65,1.42-2-.62-2.9-1.87a43.43,43.43,0,0,0-3.21-3.94,31,31,0,0,0-6.27-4.82,5.47,5.47,0,0,1-1.43-1.19.3.3,0,0,1-.08-.17.33.33,0,0,1,.13-.25,42,42,0,0,1,8.72-6.71,32.7,32.7,0,0,1,5-2.48c1.51-.6,3.69-1.59,5.35-1.51C57.73,19,65.55,22,72,26.43Z"/><path class="cls-8" d="M80.83,56.83a2.23,2.23,0,0,0-.14-.34,1.12,1.12,0,0,1,.09.41,10,10,0,0,1-2.28-.17,29.14,29.14,0,0,0-4.17.3,36.31,36.31,0,0,0-7.84,1.69,26.62,26.62,0,0,0-7,3.6c-.21.15-4.59,4.07-4.19,4.17a39.88,39.88,0,0,1-4.93-1.7C44,62.28,36.91,61.7,30.08,61.49a31.68,31.68,0,0,1,3.86-7.8,36.68,36.68,0,0,1,5.33-6.52,38.2,38.2,0,0,1,14-8.8,31.19,31.19,0,0,1,8.38-1.68,27,27,0,0,1,3.92.05,43.15,43.15,0,0,1,4.19,3.57A46.19,46.19,0,0,1,80.83,56.83Z"/><path class="cls-10" d="M5.9,58.22,14,51.57c2.22-1.82,4.8-3,6.92-4.9,11.86-9,25-20.49,40.88-19.09a23.66,23.66,0,0,1,3.5-.65,41,41,0,0,1,7.16-.15l-.5-.35C66.5,22.68,60,19.92,53.31,20c-7.34.15-13.89,3.78-19.41,8.37-1,.83-2,1.7-2.95,2.59-6.61,6.12-12.13,13.31-18.26,19.93-3,3.29-6.56,6.16-9.45,9.57a3.22,3.22,0,0,0-1,1.76,12,12,0,0,1,3.53-4Z"/><path class="cls-11" d="M95,56.16a31.18,31.18,0,0,0-3.44-4.32c-1.14,4-4,7.29-6.85,10.27C81,66,77.42,68.92,72.45,70.88c-5.74,2.26-11.27,4.28-17.45,5a91.84,91.84,0,0,1-35.55-2.29c-6.23-1.73-12.64-4.06-17.88-7.87C3.3,72.45,17.82,77.7,25.91,80c1.57.46,2.89.8,3.84,1a101.27,101.27,0,0,0,30,2.64,83.37,83.37,0,0,0,11.72-1.61,70.48,70.48,0,0,0,16.68-5.49l1.36-.7c4.06-2.17,9.17-5.66,9.06-10.85C98.48,62.31,96.91,59,95,56.16Z"/><path class="cls-5" d="M112,36.18a22.2,22.2,0,0,1-9.5,6.62c-3.56,1.12-5,5.27-6.92,8.2C90.8,58.24,76.35,70.63,69.32,72.07s-16.73-3.45-11.93-8C65.27,56.63,70,45,72.35,34.6c2.22-10,3.18-21,10.27-28.81,8.78-9.73,23.06-6,29.95,2.41S116.82,30.87,112,36.18Z"/><path class="cls-12" d="M57.55,64.31a109,109,0,0,0,11-12.44A49,49,0,0,0,75.69,36.7c2.89-9.86,5.2-20.33,13.55-27.17A20.73,20.73,0,0,1,101,4.4c4.68-.28,8.72,1.57,12.2,4.59-.19-.27-.39-.53-.6-.79C105.68-.23,91.4-3.94,82.62,5.79c-7.09,7.86-8.05,18.82-10.27,28.81-2.32,10.42-7.08,22-15,29.48a4.27,4.27,0,0,0-1.07,1.51Z"/><path class="cls-6" d="M109.85,34.12c-2.63,2.48-5.93,4.8-9.62,5.17a22,22,0,0,1-6-.24L93.84,39a4.8,4.8,0,0,0-1.45,1.42,7.1,7.1,0,0,0-.74,3.55,13.39,13.39,0,0,1-.75,3.54,23.31,23.31,0,0,1-3,5.73,67.56,67.56,0,0,1-8.15,9.17A43.57,43.57,0,0,1,73,67.75a16.48,16.48,0,0,1-9.43,2c-2.89-.14-4.87-1.26-7.29-2.6,0,0-.09,0-.14,0s-.1.22,0,.34c1.07,1.94,2.58,2.72,4.51,3.64a13.87,13.87,0,0,0,7.34,1.31c3.21-.31,5.73-1.91,8.4-3.59A78.26,78.26,0,0,0,89.05,58.56a44.87,44.87,0,0,0,6.8-7.82c1.53-2.41,2.54-5.34,5-7.07a5.81,5.81,0,0,1,1.72-.87,22.2,22.2,0,0,0,9.5-6.62c2-2.26,3.69-6.15,4.38-10.53A36.92,36.92,0,0,1,109.85,34.12Z"/><path class="cls-13" d="M84.75,28v.15c0,.08,0,.23,0,.4a12.67,12.67,0,0,0,.3,1.46,8.42,8.42,0,0,0,.3.94,9.55,9.55,0,0,0,.43,1l.28.5.33.48c.12.16.25.3.38.45a5.44,5.44,0,0,0,.42.41,4,4,0,0,0,.46.35,2.46,2.46,0,0,0,.5.28l.26.13a2,2,0,0,0,.27.1,5.74,5.74,0,0,0,.58.2,6.19,6.19,0,0,0,2,.32,3.57,3.57,0,0,0,.78-.11,3.16,3.16,0,0,0,.54-.22,1.73,1.73,0,0,0,.28-.2c.06-.06.07-.07.06-.07a.38.38,0,0,1,.53-.09.38.38,0,0,1,.1.53,1.1,1.1,0,0,1-.15.17,2.31,2.31,0,0,1-.41.33,3.13,3.13,0,0,1-.71.34,4,4,0,0,1-1,.19,5.48,5.48,0,0,1-1.14,0A7.33,7.33,0,0,1,89,35.83a6.09,6.09,0,0,1-.61-.17l-.32-.1-.33-.14a3.73,3.73,0,0,1-.63-.32,4,4,0,0,1-.6-.41,6.78,6.78,0,0,1-1-1l-.42-.55-.36-.57a10.5,10.5,0,0,1-.55-1.12,10.63,10.63,0,0,1-.39-1,13.48,13.48,0,0,1-.42-1.61c0-.21-.06-.36-.08-.48l0-.16a.74.74,0,1,1,1.47-.2V28Z"/><path class="cls-13" d="M101.19,26.7c0,.56-.28,1-.7,1.05s-.78-.41-.81-1a.91.91,0,0,1,.71-1C100.8,25.71,101.16,26.15,101.19,26.7Z"/><path class="cls-13" d="M106.1,26.45c0,.67-.27,1.22-.69,1.24s-.78-.5-.81-1.16.27-1.22.69-1.24S106.07,25.79,106.1,26.45Z"/><ellipse class="cls-6" cx="90.47" cy="14.34" rx="8.5" ry="10.29" transform="translate(-0.62 4.66) rotate(-2.94)"/><path class="cls-6" d="M117.92,12.86c.5,6.07-3.13,11.33-8.11,11.74s-9.43-4.18-9.94-10.25S103,3,108,2.62,117.42,6.79,117.92,12.86Z"/><path class="cls-14" d="M99.6,12.47c.29,5.68-3.28,10.47-8,10.71s-8.73-4.16-9-9.84,3.27-10.47,8-10.71S99.31,6.8,99.6,12.47Z"/><path class="cls-15" d="M99.6,12.47a12.28,12.28,0,0,0-.42-2.6C98.75,13.5,97.45,17,94.3,19c-2.87,1.82-7.2,1.44-10.2-.45a8.33,8.33,0,0,0,7.54,4.62C96.32,22.94,99.89,18.15,99.6,12.47Z"/><path class="cls-14" d="M118.56,11.43c.5,6.07-3.13,11.32-8.12,11.73S101,19,100.51,12.92s3.13-11.32,8.11-11.74S118.05,5.36,118.56,11.43Z"/><path class="cls-15" d="M118.47,10.67l-.06.14A13.47,13.47,0,0,1,113.92,18a7.88,7.88,0,0,1-8.69.71,7.71,7.71,0,0,1-3.76-2.42l-.33-.24c1.48,4.46,5.21,7.5,9.3,7.16,5-.41,8.62-5.66,8.12-11.73C118.54,11.17,118.51,10.92,118.47,10.67Z"/><path class="cls-16" d="M110.12,11.38a3.23,3.23,0,1,1-6.42.33,3.66,3.66,0,0,1,1.68-3.35c.41-.23,1,2.89,1.5,2.86s.91-3.17,1.37-2.92A3.63,3.63,0,0,1,110.12,11.38Z"/><path class="cls-16" d="M95.42,12.26a3.21,3.21,0,1,1-6.4.33,3.47,3.47,0,0,1,1.5-3.09c.44-.29.7,2.48,1.26,2.45s1.46-2.83,2-2.53A3.52,3.52,0,0,1,95.42,12.26Z"/></g></g></g></g></svg>