<svg xmlns="http://www.w3.org/2000/svg" viewBox="0 0 165.33 81.88"><defs><style>.cls-1{fill:#6c8fd4;}.cls-2{fill:#597fcb;}.cls-3{fill:#e8f0f5;}.cls-4{fill:#c3d5e3;}.cls-5{fill:#7699da;}.cls-6{fill:#97b3c7;}.cls-7{fill:#86a9e0;}.cls-8{fill:#fff;}.cls-9{fill:#c1d5e5;}.cls-10{fill:#242e36;}.cls-11{fill:#3d5991;}</style></defs><g id="Слой_2" data-name="Слой 2"><g id="animal"><g id="whale"><path class="cls-1" d="M103.14,34.92c-6-.75-11.74-5.56-9.3-9.53A54.65,54.65,0,0,1,111.43,21c1.34-.1,3.14.19,3.31,1.53s-1.33,1.44-2.65,3.87C110.27,29.7,110.51,35.86,103.14,34.92Z"/><path class="cls-2" d="M103.31,28.18c-3-.13-6.39-.73-8.72-2.7l-.47-.2-.28.11c-3.65,5.93,10.48,12.73,14.92,8.08,2.37-2.47,1.9-5.44,4-8.21C109.78,26.71,106.8,28.33,103.31,28.18Z"/><path class="cls-3" d="M33,64.15A34.25,34.25,0,0,1,4,48.23,28.27,28.27,0,0,1,.09,37.87a5,5,0,0,1,0-1.8l.2,0c4.82-.55,10.94,3.16,14.57,6.09,6.1,4.92,7.08,9.6,15.68,15.81A45.43,45.43,0,0,0,33,64.15Z"/><path class="cls-4" d="M30.52,58A46.15,46.15,0,0,1,26.67,55c-5.17.68-12.28-1.4-18.59-7.61A56,56,0,0,1,.19,38.46,28.67,28.67,0,0,0,4,48.23,34.25,34.25,0,0,0,33,64.15,45.43,45.43,0,0,1,30.52,58Z"/><path class="cls-5" d="M30.52,58c-8.61-6.22-9.59-10.9-15.68-15.81C11.21,39.27,5.09,35.56.27,36.11l-.2,0c1.09-5.7,14.17-.46,17,1.34A29.42,29.42,0,0,1,27,48.52C27.38,49.3,29,54,30.52,58Z"/><path class="cls-3" d="M120.71,58c-7.91,7.22-17.55,9-37.21,19.14-6.84,3.52-15.48,4.3-23.14,4.7C43,82.73,22.92,70.19,23.64,45.9c9,18.46,33.81,23.89,52.45,18.13C84.6,61.4,93,57.23,101.35,53.75c7.58-3.15,14.72-2.63,21.07-8.66a28.65,28.65,0,0,0,8.73-18.25l.1,0A34.54,34.54,0,0,1,120.71,58Z"/><path class="cls-4" d="M120.68,55c-4.83,3.12-10.43,4.88-15.67,7.17-6.24,2.72-12.41,5.64-18.72,8.18-5.23,3.14-7.62,3.83-10.35,4.37-5.86,2.91-11.6,3-19.47,2.47C47.66,76.54,39,74.76,32.74,68c-3.44-3.74-7-8.67-8.53-13.88,3,17.59,19.74,28.56,36.15,27.72,7.66-.4,16.3-1.18,23.14-4.7,23.72-12.2,38.45-13.48,45.75-31.56A26.86,26.86,0,0,1,120.68,55Z"/><path class="cls-6" d="M113.34,58.39a.26.26,0,0,1-.22-.47,30.56,30.56,0,0,0,5.1-3,30.95,30.95,0,0,0,8.53-9.38,30.42,30.42,0,0,0,2.62-5.75,29.91,29.91,0,0,0,1.39-6.2,31.24,31.24,0,0,0,.19-3.21,5,5,0,0,0-.13-1.5,9.39,9.39,0,0,1-.28-1.75,3.42,3.42,0,0,1,.16-1.71,5.63,5.63,0,0,1,.6,1.65,17.55,17.55,0,0,1,.18,3.4,31,31,0,0,1-.19,3.2,30.6,30.6,0,0,1-1.38,6.19,31.33,31.33,0,0,1-2.59,5.76,32.1,32.1,0,0,1-3.71,5.12,31.17,31.17,0,0,1-10.27,7.62ZM27.51,63.12l-.05-.39a10.88,10.88,0,0,1-.06-1.67,12.15,12.15,0,0,1,1.08-4.59,11.15,11.15,0,0,1,1-1.78.38.38,0,0,0-.64-.4,12.44,12.44,0,0,0-1.31,2.64,13.29,13.29,0,0,0-.7,3.33c0,.27,0,.54,0,.79s0,.48,0,.7,0,.47.05.67.3.64.46.95A.24.24,0,0,0,27.51,63.12ZM58.43,81A23.94,23.94,0,0,1,46.52,69a22.37,22.37,0,0,1-1.64-5.37l-.68-.24c-.15.21,0,.64.15,1.36a24.39,24.39,0,0,0,14.9,17.15l.86,0C60.13,81.55,59.55,81.5,58.43,81Zm14.86-1.28a30.61,30.61,0,0,1-11.55-4,30.19,30.19,0,0,1-10.67-10.4.32.32,0,0,0-.22-.15H50.8a.37.37,0,0,0-.35.57,30.72,30.72,0,0,0,11,10.54,30.06,30.06,0,0,0,12.62,4c.57-.11,1.14-.24,1.71-.38C75.24,79.9,74.21,79.83,73.29,79.71ZM34.77,58.17h0c-1-.14-.69-.28-.88-.42-.06,0-.26.09-.29.17-.38,1.06-.38.81-.58,1.53a19.31,19.31,0,0,0,.87,12.64c.36.35,1,.68,1.41,1A17.41,17.41,0,0,1,34.77,58.17Zm29.36,8c.61,1.16,13.93,6.33,31.32.77l1.33-.48a.26.26,0,0,0-.17-.49l-1.34.47c-11.9,3.72-21.25,3-30-.34Zm12.81-1.57c6,1.49,14.12-1.82,24.31-6.19,5-2.16,14.83-6.52,18.63-9.83A14.65,14.65,0,0,0,123,44.85a.22.22,0,0,0,0-.3l-.54.54c-.13.13-.27.23-.4.35a18.26,18.26,0,0,1-5.11,4.62c-3.86,2.49-15.12,7.65-24.7,11.23C87.12,63.17,82.15,65,76.89,63.76l-.78.26C76.07,64.4,76.53,64.45,76.94,64.56ZM45.15,79.21a18.38,18.38,0,0,1-5-17,.38.38,0,0,0-.74-.14,19.08,19.08,0,0,0,4.68,16.81q.55.24,1.11.45ZM96,71.13h0c-4.37,1.2-6.06,1.65-9.22,2.33-5.79,1.14-9.13,1.46-14.62.74-10.06-2.08-12.55-6.81-14-8l-.09,0h-.27a.36.36,0,0,0-.1.64c1.21.9,7.48,10.8,25.83,7.9a85.29,85.29,0,0,0,9.69-2.2Z"/><path class="cls-1" d="M163.52,12.85a18.36,18.36,0,0,1-9.75,7.93,18.39,18.39,0,0,1-15.86-2.1c-2-1.33-4.4-3.13-6.48-1.94-3.48,2,0,7.88-.42,11.69a29.08,29.08,0,0,1-8.59,16.66c-6.35,6-13.49,5.51-21.07,8.66C93,57.23,84.6,61.4,76.09,64c-18.64,5.76-43.43.33-52.45-18.13.17-10,1.57-16.53,7.87-26.2C40.78,5.47,65.89.39,82,13.32c4.45,3.56,11,12.58,15.4,16.16a16,16,0,0,0,25.71-9.92c-5.39-6.19-16.76-.16-24.54-1.41A14.53,14.53,0,0,1,87.85,10C86.77,7.63,86.9,4,89.4,3.37,90.67,3,92,3.66,93.27,4c5,1.22,9.79-2.52,14.84-3.65a15.43,15.43,0,0,1,16.82,8.28,16.92,16.92,0,0,1,19.63-7.43c3,1.05,5.69,3,8.59,4.33a11.94,11.94,0,0,0,6.53,1.31c1.68-.17,4.28-1.46,5.38.35C166,8.74,164.28,11.57,163.52,12.85Z"/><path class="cls-2" d="M98.59,18.15c6.86,1.1,17.47-3.62,22.89-.26-3.44-2.14-8.33-2.89-12.3-3.14-4.61-.29-8.84,1.44-13.47-.14a13.89,13.89,0,0,1-5.55-3.44c-.62-.66-2.88-2.93-2.93-3.66C87.52,11.65,92.22,17.13,98.59,18.15Z"/><path class="cls-2" d="M101.91,50.12c-3.93,1-7.38,3.43-11,5.29a59.94,59.94,0,0,1-47.16,2.73A57.41,57.41,0,0,1,23.64,45.72c1.74,1.58,2.91,4.34,4.57,6.13s3.42,3.37,5,5.16C39.06,63.52,58,69.62,76.09,64,84.6,61.4,93,57.23,101.35,53.75c7.58-3.15,14.72-2.63,21.07-8.66,3.16-3,4.54-5.56,6.33-9.14C122.44,45.49,112.22,47.6,101.91,50.12Z"/><path class="cls-2" d="M145.37,18.64c-4.29-.45-7.67-1.87-10.34-1.73a22.66,22.66,0,0,1,2.88,1.77,18.39,18.39,0,0,0,15.86,2.1,18.36,18.36,0,0,0,9.75-7.93,19.94,19.94,0,0,0,1.31-2.5A22.14,22.14,0,0,1,145.37,18.64Z"/><path class="cls-7" d="M25.93,49.49c-1.62-14.9,6.34-31.63,22.21-36a40.83,40.83,0,0,1,23.8.84c14.91,5.09,20.81,16.78,29.88,19a19,19,0,0,0,13.11-1.71C109.82,34.06,103.5,33,98.62,30c-7-4.2-10.38-11.74-16.6-16.72C65.89.39,40.78,5.47,31.51,19.7c-6.3,9.67-7.7,16.16-7.87,26.2a31.35,31.35,0,0,0,2.22,3.83C25.88,49.65,25.91,49.57,25.93,49.49Z"/><path class="cls-7" d="M159.68,6.82a11.94,11.94,0,0,1-6.53-1.31c-2.9-1.37-5.55-3.28-8.59-4.33a16.92,16.92,0,0,0-19.63,7.43A15.43,15.43,0,0,0,108.11.33c-5,1.13-9.82,4.87-14.84,3.65-1.2-.3-2.42-.86-3.62-.66l.07.11c4.07,2.13,8.57,3.37,10.65,3.15,3.69-.37,11.42-4.33,20.63.24a19.78,19.78,0,0,1,3.9,2.46,19.78,19.78,0,0,1,11-4.53,14.19,14.19,0,0,1,11.12,1c1.91,1,3.71,2.25,5.71,3.08l.43.2.36.07s1.45.16.94.17A15.11,15.11,0,0,0,157.42,9c-.12,0,1.13-.33,1.07-.31a16.84,16.84,0,0,0,1.59-.61,10.8,10.8,0,0,0,2.24-1.41,5.15,5.15,0,0,0,.5-.43C161.76,6.31,160.58,6.73,159.68,6.82Z"/><path class="cls-2" d="M52.93,34.83c-.58,4.57-4.24,7.73-8.18,7.07S38.09,37,38.66,32.41s4.24-7.73,8.18-7.06S53.5,30.26,52.93,34.83Z"/><path class="cls-2" d="M66.75,36c-.4,4.53-3.68,7.87-7.32,7.47s-6.26-4.42-5.86-9,3.68-7.87,7.32-7.46S67.16,31.49,66.75,36Z"/><path class="cls-8" d="M52.38,33.92c-.57,4.57-4.23,7.74-8.17,7.07s-6.67-4.91-6.09-9.48,4.23-7.74,8.17-7.07S53,29.35,52.38,33.92Z"/><path class="cls-9" d="M38.15,34.15c.52,3.47,2.9,6.31,6.06,6.84,4.83.82,8.92-4.05,8.16-9.59C49.74,40.83,41.28,39.16,38.15,34.15Z"/><path class="cls-10" d="M49.55,32.77a2.83,2.83,0,0,1-3.61,1.92,2.9,2.9,0,0,1-.13-5.57c.26-.07.61,2.07.89,2.07s.49-2.13.78-2.05A3,3,0,0,1,49.55,32.77Z"/><path class="cls-8" d="M66.21,35.12c-.4,4.53-3.68,7.87-7.32,7.46S52.62,38.17,53,33.64s3.68-7.87,7.32-7.47S66.61,30.59,66.21,35.12Z"/><path class="cls-9" d="M65.68,30.88c-.71,3.74-2.37,8.35-6.17,8.57-3.26.19-5.46-2.06-6.52-4.9,0,4.15,2.51,7.65,5.9,8C64,43.16,67.74,36.57,65.68,30.88Z"/><path class="cls-10" d="M62.3,34.28a2.68,2.68,0,0,1-3.56,1.31,2.62,2.62,0,0,1,.27-5c.26-.06.67,1.84.94,1.85s.56-1.85.9-1.7A2.68,2.68,0,0,1,62.3,34.28Z"/><path class="cls-11" d="M32.65,35.56A19.06,19.06,0,0,0,35,41.09c9.86,15.45,30.61,13,37.83-3.14a.27.27,0,0,1,.35-.15c.3.14,0,.58-.08.91-8.75,21.19-35.59,18.64-41-3-.07-.36-.27-.84.07-.92S32.56,35.22,32.65,35.56Z"/><path class="cls-4" d="M125.66,75c-.45.39-.57,1.89-1,2.48a7.9,7.9,0,0,1-2.51,2c-5.66,3.12-13.57.66-17.15-2.27-4.87-4-10.64-15.49-14.78-21.41l.38-.24c2.61,2.72,5.64,5.27,8.08,8.07,2.64,3,4.34,6.55,7.49,9.22C111,77,120.19,79.75,125.66,75Z"/><path class="cls-1" d="M125.31,75.45C119.85,80.19,111,77,106.15,72.83c-3.15-2.67-4.85-6.19-7.49-9.22-2.44-2.8-5.47-5.35-8.08-8.07l6.55-4.17C109.7,52,117.9,63.4,124,71.93,124.79,73,125.5,74.09,125.31,75.45Z"/><path class="cls-2" d="M123.33,71c-2.06,3.43-7.47,5.24-15.53-1.08-5.86-4.6-10.55-10.63-16.94-14.56l-.28.18c2.61,2.72,5.64,5.27,8.08,8.07,2.64,3,4.34,6.55,7.49,9.22,4.87,4.13,13.7,7.36,19.16,2.62C125.53,73.84,124.52,72.67,123.33,71Z"/></g></g></g></svg>