<svg xmlns="http://www.w3.org/2000/svg" viewBox="0 0 131.36 109.54"><defs><style>.cls-1{fill:#ffbd9b;}.cls-2{fill:#e09777;}.cls-3{fill:#f2a47e;}.cls-4{fill:#994e40;}.cls-5{fill:#8a4336;}.cls-6{fill:#a76050;}.cls-7{fill:#c47e70;}.cls-8{fill:#944a3b;}.cls-9{fill:#ba7161;}.cls-10{fill:#73342a;}.cls-11{fill:#fae4d4;}.cls-12{fill:#f9f5ef;}.cls-13{fill:#f0c5a1;}.cls-14{fill:#b07d52;}.cls-15{fill:#fff;}.cls-16{fill:#f0e8e2;}.cls-17{fill:#491b04;}.cls-18{fill:#521e04;}.cls-19{fill:#f9d8c2;}.cls-20{fill:#fcece0;}.cls-21{fill:#a66e3b;}</style></defs><g id="Слой_2" data-name="Слой 2"><g id="animal"><g id="yak"><path class="cls-1" d="M67.16,108.3c-1.5-1.26-3.06-2.66-3.23-4.66-.11-1.32.48-2.61.41-3.92s-.93-2.77-.65-4.15a5.33,5.33,0,0,1,5.37-3.43,4.08,4.08,0,0,1,2.58,3c.38,1.34.44,2.76.93,4.07,1.22,3.28,2.84,5.55,2,9.26a51.12,51.12,0,0,1-4.34-3.11c.2.16-1.47,3.68-1.82,4C68,109,67.6,108.67,67.16,108.3Z"/><path class="cls-1" d="M83.57,91.21a3.47,3.47,0,0,1,2.51,2.4C87.68,98,90,102,89.51,106.83a.89.89,0,0,1-.17.51c-.3.32-.83,0-1.16-.26l-2.76-2.43a8.23,8.23,0,0,1-.61,3c-.73,1.76-2.12-.53-2.89-1.13-1-.8-2.18-1.31-2.88-2.49a4.36,4.36,0,0,1-.33-1.52L78,93.75A28.88,28.88,0,0,1,83.57,91.21Z"/><path class="cls-1" d="M30.24,97.87c-.31-1.82-2.21-3.27-1.93-5.11s2.47-2.59,4.3-2.63a4.18,4.18,0,0,1,3.5,1.22A8.39,8.39,0,0,1,37.05,94c.76,2.43,3,4.07,4.49,6.12,1.27,1.71,2.7,4.24,2.06,6.44-.06.2-2.83-1.45-3.06-1.63-2-1.54-2.69,1.14-3.55,2.41a1.38,1.38,0,0,1-.83.68,1.37,1.37,0,0,1-1.1-.54c-1.7-1.63-4.23-4.86-4.7-7.23C30.21,99.47,30.38,98.65,30.24,97.87Z"/><path class="cls-1" d="M22.52,92.9c.59-.17,1.07.51,1.27,1.1.52,1.55.71,3.2,1.33,4.7,1.23,3,4.58,6.22,3,9.66-.68-.48-2.5-3.2-3.26-3.17-1.05,0-2,3.5-2.79,4.24a18,18,0,0,1-5.63-8.21,3.52,3.52,0,0,1,.08-1.61,12.09,12.09,0,0,0,0-3.89,7.44,7.44,0,0,1-.17-2.2,2.91,2.91,0,0,1,3.25-2.32,3.77,3.77,0,0,1,2.51,2C22.72,94.12,22.28,91.83,22.52,92.9Z"/><path class="cls-2" d="M65.83,102.05c.23.21.45.43.69.63.7.6,1.77,1,2.51.49a2,2,0,0,1,.48-.33.79.79,0,0,1,.43,0,4.29,4.29,0,0,1,2.16,1.47,1.21,1.21,0,0,0,.65.47c1.22.2.76-1.48,1.15-2a4.87,4.87,0,0,1,1.1,3.5c0,.74,0,2.34-1.15,2.12a3,3,0,0,1-1.15-.7,6.19,6.19,0,0,0-1.14-.74,1.44,1.44,0,0,0-.67-.19c-.48,0-.83.46-1,.91a5.57,5.57,0,0,1-.55,1.33c-.78,1-1.56-.18-2.18-.7-2.39-2-3.77-4-2.88-7.2A3.59,3.59,0,0,1,65.83,102.05Z"/><path class="cls-3" d="M83.7,92.24a1.8,1.8,0,0,0-.51.17l-1-.74a5.32,5.32,0,0,1,1.39-.46,2.85,2.85,0,0,1,1.69,1A4.85,4.85,0,0,0,83.7,92.24Z"/><path class="cls-2" d="M80.19,100.14a10.61,10.61,0,0,0,2.21,1.73,2.08,2.08,0,0,0,1.13.41c.57,0,1-.45,1.61-.49,1-.06,1.74,1.13,2.73,1.07a1.19,1.19,0,0,0,1.07-1c.9,1.3.71,3.45.57,5a.89.89,0,0,1-.17.51c-.53.53-2.43-1-2.89-1.37a1.25,1.25,0,0,0-.8-.32c-.56,0-.66,1.59-.84,2-.54,1.29-1.54.25-2.14-.37a25.16,25.16,0,0,0-2.54-2.18,3.61,3.61,0,0,1-1.42-2.59l-.45-5.33A10.65,10.65,0,0,0,80.19,100.14Z"/><path class="cls-2" d="M33.1,101.39a7.66,7.66,0,0,0,5.13,1.37c.9-.12,1.62-1.23,2.38-.93a4.87,4.87,0,0,0,2.25.38,6.1,6.1,0,0,1,.93,4.29.65.65,0,0,1-.2.35c-.18.12-.42,0-.61-.09l-2.88-1.57c-2-1.12-2.18.77-3.11,2.14a1.38,1.38,0,0,1-.83.68,1.37,1.37,0,0,1-1.1-.54c-1.7-1.63-4.23-4.86-4.7-7.23a5.35,5.35,0,0,1-.07-1.06A16.89,16.89,0,0,0,33.1,101.39Z"/><path class="cls-2" d="M16.62,98.94a11,11,0,0,0,3.05,2.8,6.43,6.43,0,0,0,2.92.89c1.13.06,2.37-.25,3.33.51a2.25,2.25,0,0,0,1.88.47c.51-.11,1.38,4.43.63,4.68s-1.25-.27-1.74-.71l-1.15-1.06c-.26-.24-.6-.49-.93-.37a6.37,6.37,0,0,0-.65,1.1c-.32.81-1,2.75-2.14,2.2-.64-.31-1.4-1.58-1.87-2.12a16.09,16.09,0,0,1-3.49-6.11,3.52,3.52,0,0,1,.08-1.61C16.57,99.39,16.6,99.16,16.62,98.94Z"/><path class="cls-4" d="M94.5,74.85c0,2.65-1.42,6.13-2,7.89-.8,2.19-1.6,4.4-2.55,6.53a24.14,24.14,0,0,1-1.53,3c-.25.39-1.5,1.78-1.42,2.17a4.82,4.82,0,0,0-1.54-2.63c-.72.94-1.43,1.88-2.15,2.81-.11.15-.26.31-.43.27a.51.51,0,0,1-.27-.23L81.4,93c-.28-.4-.65-.86-1.15-.82s-.78.53-1,.94a7,7,0,0,1-1.1,1.32.66.66,0,0,1-.46.23c-.29,0-.43-.34-.52-.61-.89-3-1.79-5.93-2.68-8.9-.81-2.65-1.64-5-.32-7.67a10,10,0,0,1,2.82-3.23c4.44-3.55,9.22-3.52,14.62-2.92C93.74,71.62,94.47,73,94.5,74.85Z"/><path class="cls-5" d="M80.51,90.65a3.49,3.49,0,0,0,3.68-.85,2,2,0,0,1,.79-.55c.54-.13,1.08.33,1.63.26a1.66,1.66,0,0,0,1-.64A20.75,20.75,0,0,0,91,83.66a1.32,1.32,0,0,1,.39-.56.43.43,0,0,1,.61.07.58.58,0,0,1,.06.32C92,85.33,90.91,87.23,90.4,89a34.1,34.1,0,0,1-3.26,6.81s0,.09-.1.11-.23-.07-.29-.17c-.47-.74-.91-1.53-1.43-2.22a9,9,0,0,0-1.63,2.13,1.23,1.23,0,0,1-.45.48c-.55.27-1.1-.32-1.43-.82s-.81-1.27-1.22-1.91a.41.41,0,0,0-.28-.23c-.13,0-.23.1-.31.2L78.72,95c-.24.3-.57.63-.94.53s-.47-.45-.58-.76c-.3-.94-2.75-9.2-2.1-9.21a2.37,2.37,0,0,1,1.54.55A7.37,7.37,0,0,1,78,88.35,4.86,4.86,0,0,0,80.51,90.65Z"/><path class="cls-5" d="M40.89,81.46a24.35,24.35,0,0,1-1.09,5.38c-.79,2.57-.44,5.53-1.49,8-.07.15-.16.33-.33.36s-.29-.09-.41-.2a19.66,19.66,0,0,1-2.18-2.46h-.15c-.92,1-.51,4.28-2.29,2.79-.25-.2-2.19-2.22-1.92-2.55a20.83,20.83,0,0,0-1.69,3.45c0,.07-.08.14-.16.16s-.2-.06-.27-.15c-2.38-3-4.36-6.79-3.91-10.71a11.43,11.43,0,0,1,5.76-8.58c4.48-2.47,10-1.56,10.13,4.11Z"/><path class="cls-6" d="M73.5,1a23.56,23.56,0,0,0-6.68-1l2.11,2c1.49,1.44-4.5,1-5.3.89-4.81-.52-9.79-.77-14.37.78a3.62,3.62,0,0,1,2.28,1.48c-.15-.21-12.87,4.89-14.23,5.38-5.46,1.93-11.74,4-15.52,8.64l3.34,1.15c-.59-.21-3.54,2.14-4.13,2.52C19.28,24,15.32,25.76,15,28a11.53,11.53,0,0,0,3.16,0,35.51,35.51,0,0,0-4.73,6.38c-1.53,2.31-3.34,4.44-4.84,6.79C6.2,45,2.89,48.62,1.6,53c1.06-.48,2.11-1,3.13-1.53a21.47,21.47,0,0,0-3.16,6.15A55.21,55.21,0,0,0,0,64.21l2.38-2.84a19.26,19.26,0,0,0-.66,8.95,50.25,50.25,0,0,0,3.19,10.9,3.54,3.54,0,0,1,1.15-2.29c-.58.52,1.87,4.49,2.23,5a10.63,10.63,0,0,0,3.14,3.16c2.15,1.24,5.08,1.45,7.42,2.28,8,2.83,16.56,1.69,24.86,1.25,10.29-.54,20.72-1.72,30.41-5.42,10-3.82,19.24-10.62,24.1-20.17a54.23,54.23,0,0,0,5.25-20.35c.42-6.54-2.57-12.64-4-19-1.37-6-2.34-11-7.36-14.95A59.72,59.72,0,0,0,73.5,1Z"/><path class="cls-7" d="M77.5,2a52,52,0,0,1,10,5.11c2.33,1.48,4.61,2.58,5.66,5.35a8.7,8.7,0,0,1-3.89-1.76c-4.52-3-9.89-5.74-15.17-4.47-1.09.26-2.14.7-3.25.87-3.76.58-8.69-2.67-12.12-.49-1,.66-1.38,1.92-2.32,2.67-1.41,1.12-3.26,1.08-5,1.23-2.88.26-5.47.15-8.29,1a67.19,67.19,0,0,0-9.83,4c-1.76.83-3,1.61-3.55,3.51-.43,1.39-.16,2-1.3,3-1.5,1.28-4.52,1.8-5.42,3.67s.62,3.62-1.73,4.79c-.7.35-1.47.54-2.17.89a12.87,12.87,0,0,0-3.26,2.82,32.54,32.54,0,0,1-4.81,4.11c1.12-1.72,5-10.16,7.14-10.23A11.53,11.53,0,0,1,15,28c.29-2.27,4.25-4.06,6-5.17.59-.38,3.54-2.73,4.13-2.52l-3.34-1.15c3.78-4.64,10.06-6.71,15.52-8.64C38.67,10.06,51.39,5,51.54,5.17a3.62,3.62,0,0,0-2.28-1.48c4.58-1.55,9.56-1.3,14.37-.78.8.09,6.79.55,5.3-.89-.71-.67-1.41-1.34-2.1-2,.38.37,3.75.22,4.57.35A33.09,33.09,0,0,1,77,1.82Z"/><path class="cls-8" d="M10.72,82.82C16.61,86.76,25.27,86.4,32,86.31A207.64,207.64,0,0,0,69.7,81.94c8.58-1.74,17-5.51,21.7-13.24a9.13,9.13,0,0,0,.93-2.07,39.83,39.83,0,0,0,8.61-15.47,10.25,10.25,0,0,0-1.92-9,28.65,28.65,0,0,0,1.5-5.26c.28-1.62.52-3.25.71-4.9,1.29,4.18,2.52,8.34,2.24,12.7A54.23,54.23,0,0,1,98.22,65c-4.86,9.55-14.09,16.35-24.1,20.17-9.69,3.7-20.12,4.88-30.41,5.42-8.3.44-16.83,1.58-24.86-1.25-2.34-.83-5.27-1-7.42-2.28a5.67,5.67,0,0,1-.76-.52A13.11,13.11,0,0,0,10.72,82.82Z"/><path class="cls-6" d="M30.06,81.56c-.32,1.53-.77,3-1.16,4.31A88.61,88.61,0,0,1,25.19,96.7.77.77,0,0,1,25,97a.5.5,0,0,1-.63-.07,1.54,1.54,0,0,1-.33-.6c-.25-.71-.51-1.41-.76-2.11-.15-.41-.34-.87-.76-1a16.12,16.12,0,0,1-1.22,2.55c-.16.27-.37.56-.68.56s-.54-.29-.71-.55l-1.73-2.68s-1.29,2.18-1.43,2.33c-.79.86-.59.94-1.49,0a26.78,26.78,0,0,1-3.18-4.93A56.76,56.76,0,0,1,7.34,79.72,6,6,0,0,1,9.23,73c2-1.8,7-2.81,9.69-2.86a16.23,16.23,0,0,1,4.73.75,10,10,0,0,1,5.83,3.69C30.86,76.58,30.55,79.23,30.06,81.56Z"/><path class="cls-8" d="M13.1,89a9.26,9.26,0,0,0,1.16,1,3.35,3.35,0,0,0,3,.68c.88-.28,1.13-1.34,2.18-.32a17.68,17.68,0,0,1,1.24,1.36,1,1,0,0,0,.42.38c.54.2.7-.41,1.09-.55a4.58,4.58,0,0,1,1.25-.24,3,3,0,0,0,2.77-1.7,10,10,0,0,1,2.2-3.09,3.13,3.13,0,0,1,1.69,0c.31.1.64.28.7.6s-.31.75-.63,1c-2,1.6-2.89,3.86-3.87,6.11-.34.81-.78,1.6-1.15,2.42A.77.77,0,0,1,25,97a.5.5,0,0,1-.63-.07,1.54,1.54,0,0,1-.33-.6c-.25-.71-.51-1.41-.76-2.11-.15-.41-.34-.87-.76-1a16.12,16.12,0,0,1-1.22,2.55c-.16.27-.37.56-.68.56s-.54-.29-.71-.55l-1.73-2.68s-1.29,2.18-1.43,2.33c-.79.86-.59.94-1.49,0A21.94,21.94,0,0,1,12,91c-.58-1.08-1.23-2-1.83-3s-.62-3-1.26-3.82q1.41,1.71,2.83,3.4C12.19,88,12.62,88.53,13.1,89Z"/><path class="cls-6" d="M76.18,76.31a8.82,8.82,0,0,1,.41,2,23,23,0,0,1-.28,6.09,23.87,23.87,0,0,1-1.92,6,20.72,20.72,0,0,1-2.83,4c-.69-.43-.64-1.46-1-2.14-.14-.25-.39-.5-.67-.45a.77.77,0,0,0-.35.2A6.87,6.87,0,0,0,68,93.64c-.34.54-.77,1.22-1.4,1.13-.44-.06-.72-.48-1-.84s-.64-.73-1.07-.64a1,1,0,0,0-.52.34,5.93,5.93,0,0,0-1.14,2.57c-1.58-1-3-2.67-4.32-3.92a16,16,0,0,1-3.86-4.63,11.94,11.94,0,0,1-1-4.13,11.78,11.78,0,0,1,1.18-7c1.83-3.17,5.58-4.7,9.17-5.42,2.56-.51,6.84-.89,9.11.74A9.11,9.11,0,0,1,76.18,76.31Z"/><path class="cls-8" d="M56.43,90.55c-1.34-1.72-2.7-4.2-2.46-5.64a16.37,16.37,0,0,0,5.46,5.76,3.24,3.24,0,0,0,2.53.64c.54-.21.67-1,1.29-1.14s1.15.3,1.73.51c1.9.67,2.27-1.52,3.68-1.59.93,0,1.68,1.1,2.65.5a2.67,2.67,0,0,0,.86-1,28.9,28.9,0,0,0,2.74-5.15c.56-1.58.7-2.72,2.4-3.61a1.54,1.54,0,0,1,.67-.2.65.65,0,0,1,.58.33,1,1,0,0,1-.17.82,22.29,22.29,0,0,0-2,3.62c-.5,1.56-.67,3.19-1.28,4.73a77.27,77.27,0,0,1-3.53,7,1.43,1.43,0,0,1-.61-.84A11.74,11.74,0,0,0,70.1,93c-.16-.25-.46-.53-.71-.37a.55.55,0,0,0-.2.29c-.45,1.09-.9,2.17-1.36,3.26-.11.28-.29.6-.59.62a.8.8,0,0,1-.57-.29,17.41,17.41,0,0,1-2-2.25,8,8,0,0,0-1.06,3.23c-.52.12-1-.36-1.28-.78-.67-.89-1.21-2-1.91-2.79a18.93,18.93,0,0,0-2.55-1.86A10.54,10.54,0,0,1,56.43,90.55Z"/><path class="cls-6" d="M108.07,48.14a54.33,54.33,0,0,0-.78-14A30.94,30.94,0,0,0,105.65,28c-5.48-13-27.66-13.43-31.33,1a33.26,33.26,0,0,0-.68,4.21,99.29,99.29,0,0,0-.47,15.9Z"/><path class="cls-8" d="M88.76,18.27a2.76,2.76,0,0,0,.18,2.21,16.08,16.08,0,0,1,1.19,3.26,2.74,2.74,0,0,0-1.4,1.06,3.41,3.41,0,0,0-.78-.05,3.14,3.14,0,0,0-1.32-1A2.76,2.76,0,0,0,83.87,22a2.77,2.77,0,0,0-2.31-1.91A17.64,17.64,0,0,1,88.76,18.27Z"/><path class="cls-8" d="M94.72,19.75c-.11-.3-.24-.6-.37-.9.4.1.81.22,1.2.35A2.56,2.56,0,0,0,94.72,19.75Z"/><path class="cls-8" d="M73.64,33.29a33.26,33.26,0,0,1,.68-4.21,13.51,13.51,0,0,1,3.91-6.69,39,39,0,0,0-1.7,10.79,52.06,52.06,0,0,0-.81,15.93l-2.55.08A99.29,99.29,0,0,1,73.64,33.29Z"/><path class="cls-8" d="M105.7,33.84a46.14,46.14,0,0,0-2.48-9.71A14.55,14.55,0,0,1,105.65,28a30.94,30.94,0,0,1,1.64,6.09,54.33,54.33,0,0,1,.78,14l-2.71.08A56.32,56.32,0,0,0,105.7,33.84Z"/><path class="cls-9" d="M106.71,24.35c3,1.25,6.31,3,6.73,3.26,4.09,2.1,8.2,4.6,10.17,9a3.58,3.58,0,0,1,.31,2.88,3.5,3.5,0,0,1-2.7,1.65,16.34,16.34,0,0,1-9-1.27c-6.51-3.06-9.82-9.16-10.22-16.21C102,22.61,104.19,23.29,106.71,24.35Z"/><path class="cls-7" d="M121.06,41a10,10,0,0,0-2.39-8.18c-3.14-3.81-8-6.17-12.73-7.75-1.3-.55-2.61-1.08-3.91-1.62.22-.75,2.33-.09,4.68.9,3,1.25,6.31,3,6.73,3.26,4.09,2.1,8.2,4.6,10.17,9a3.58,3.58,0,0,1,.31,2.88,3.5,3.5,0,0,1-2.7,1.65l-.19,0Z"/><path class="cls-5" d="M116,35.58A47.67,47.67,0,0,0,110,31.39c-1.08-.64-2.18-1.24-3.3-1.82-.46-.24-1.56-.92-1.85-.27-.14.31.31,1.33.43,1.61a10.51,10.51,0,0,0,1.14,2,17.28,17.28,0,0,0,3,3.15A10.71,10.71,0,0,0,116,38.71c.64.06,1.47,0,1.68-.62a1.14,1.14,0,0,0-.12-.88,4.66,4.66,0,0,0-1.23-1.35Z"/><path class="cls-10" d="M116.1,38.71a22.51,22.51,0,0,0-4.69-4.55l-.09-.06c-1.37-1.07-2.7-2.18-4.06-3.26a8.13,8.13,0,0,0-2.46-1.39.34.34,0,0,1,0-.15c.29-.65,1.39,0,1.85.27,1.12.58,2.22,1.18,3.3,1.82A47.67,47.67,0,0,1,116,35.58l.33.28a4.66,4.66,0,0,1,1.23,1.35,1.14,1.14,0,0,1,.12.88C117.51,38.68,116.74,38.76,116.1,38.71Z"/><path class="cls-9" d="M60.23,42.38a4.63,4.63,0,0,1-3.33-2c-.71-1.29-.26-2.93.47-4.22,3.64-6.47,11.5-7.52,17.39-10.81,1-.55,2.08-1.19,3.1-.77a2.32,2.32,0,0,1,1.25,2.27,7,7,0,0,1-.84,2.61c-1.87,3.88-2.87,8-6.59,10.41A15.9,15.9,0,0,1,60.23,42.38Z"/><path class="cls-7" d="M67.92,28.9c-2.48,1.89-5.11,3.75-7.05,6.21a19.17,19.17,0,0,0-3.22,6.19,3.07,3.07,0,0,1-.75-.89c-.71-1.29-.26-2.93.47-4.22,2.6-4.62,7.35-6.47,12-8.36C68.88,28.18,68.4,28.53,67.92,28.9Z"/><path class="cls-5" d="M62.4,40.2c.54.55,2.33.43,3.46.15a12.87,12.87,0,0,0,4-1.7c2.43-1.55,4.9-4.75,5.31-7.67a3.71,3.71,0,0,0-1.46.52l-1.8.94a37.71,37.71,0,0,0-8.81,6C62.19,39.34,62.09,39.89,62.4,40.2Z"/><path class="cls-10" d="M66.16,37.5a20.36,20.36,0,0,0-2.87,3,1.49,1.49,0,0,1-.89-.35c-.31-.31-.21-.86.68-1.73a37.71,37.71,0,0,1,8.81-6l1.8-.94A3.71,3.71,0,0,1,75.15,31c0,.17-.06.34-.09.5A57.44,57.44,0,0,0,66.16,37.5Z"/><path class="cls-11" d="M55.33,8.93c-1.5-.47-3.79-.93-5.24-.06-1.8,1.08,1.53,3.82,2.27,4.51,3.61,3.36,4.46,8.32,7.46,12.14A13.08,13.08,0,0,0,68.94,30c3.86.26,7.27-1.91,10.4-3.89,3.5-2.23,7.15-4.43,11.42-4.58s8.07,1.66,11.73,3.57,7.15,3.52,11.25,4a11.86,11.86,0,0,0,11.85-6.4c2.44-5,1.16-11.52,4.57-15.94.59-.77,1.36-1.61,1.17-2.57-.26-1.25-2-1.56-3.19-1.2-2.8.84-4.59,3.55-5.89,6.17-1.58,3.19-3.69,8.73-8.13,8.25-1.6-.17-2.91-1.3-4.14-2.34-2.21-1.88-4.64-3.69-7.5-4.23-4.16-.78-8.29,1.27-12,3.39-2.68-2.21-5.65-4.31-9.08-3.8-5.66.85-10,9.6-16.27,6.61-2.83-1.35-4.28-4.53-6.71-6.51A9.41,9.41,0,0,0,55.33,8.93Z"/><path class="cls-12" d="M91,16.37c-3.78-1.19-7.22-4.47-11.47-2.78a29.09,29.09,0,0,0-6.9,4.11c-1.91,1.46-4,3.67-6.69,2.92C63.62,20,62.19,18,60.83,16.1a31.89,31.89,0,0,0-6.42-7.19,5.85,5.85,0,0,0-.48-.34,12.89,12.89,0,0,1,1.4.36,9.41,9.41,0,0,1,3.12,1.67c2.43,2,3.88,5.16,6.71,6.51,6.28,3,10.61-5.76,16.27-6.61,3.43-.51,6.4,1.59,9.08,3.8,3.68-2.12,7.81-4.17,12-3.39,2.86.54,5.29,2.35,7.5,4.23,1.23,1,2.54,2.17,4.14,2.34,4.44.48,6.55-5.06,8.13-8.25,1.3-2.62,3.09-5.33,5.89-6.17a3.77,3.77,0,0,1,1.3-.13A12.83,12.83,0,0,0,125.75,7c-2,3.3-3.31,6.89-6.12,9.65-1.49,1.46-3.42,2.95-5.64,2.3-2.44-.72-4.46-2.32-6.73-3.42A14.11,14.11,0,0,0,98.93,14a17.74,17.74,0,0,0-5.41,1.78A14.53,14.53,0,0,0,91,16.37Z"/><path class="cls-13" d="M56,15c1.95,2.94,3.1,6.35,5.59,9,2.67,2.81,6.46,4.29,10.22,3.14s7.26-3.57,10.75-5.56C84,20.73,85.2,19.78,86.93,20a21.69,21.69,0,0,0,3.94.34c2.22-.15,4.43-.47,6.65-.59l.34.1a38.15,38.15,0,0,1,8,3.45c4.44,2.69,10.19,5.28,14.66,1.09,3.27-3.07,3.91-7.57,5.46-11.57a27.79,27.79,0,0,1,2.53-5.13c.6-.91,1.53-2.37,2.7-2.51a6.51,6.51,0,0,1-1.09,1.69c-3.41,4.42-2.13,10.92-4.57,15.94a11.86,11.86,0,0,1-11.85,6.4c-4.1-.52-7.58-2.13-11.25-4s-7.59-3.72-11.73-3.57-7.92,2.35-11.42,4.58c-3.13,2-6.54,4.15-10.4,3.89a13.08,13.08,0,0,1-9.12-4.51c-3-3.82-3.85-8.78-7.46-12.14-.55-.51-2.51-2.14-2.77-3.4l.2.06A15.69,15.69,0,0,1,56,15Z"/><path class="cls-7" d="M50.93,19.32a29.17,29.17,0,0,1-1.16,5.12c-.18.57-.84,3.25-1.48,3.48-.26.09-.48-.18-.62-.41-1-1.65-1.8-3.38-2.72-5.05-.46,1.59-2,3-2.92,4.46.53-.78-5.94-6.71-5.53-8.52,1.42,1.09,2.71,3.26,4.64,3.49,1.57.19,2.93-1.82,4.2-.33s2.46,1.71,3.61.12l1.78-2.45Z"/><path class="cls-5" d="M51.33,19.37c-.07.65-.17,1.31-.28,2s-.27,1.3-.43,1.94c-.08.32-.17.64-.26,1s-.18.61-.27.93c-.18.63-.37,1.27-.62,1.91a4,4,0,0,1-.55,1,1.29,1.29,0,0,1-.34.28l-.06,0,0,0H48.4l-.07,0a.78.78,0,0,1-.35,0,1.15,1.15,0,0,1-.66-.52,1.46,1.46,0,0,1-.15-.24l-.12-.22L46.81,27l-.45-.88c-.59-1.17-1.15-2.35-1.76-3.49l.73-.08a6.35,6.35,0,0,1-.9,1.76c-.37.53-.76,1-1.14,1.5-.19.24-.38.48-.55.73s-.18.24-.26.37l-.12.18h0c-.36.31-.1.09-.18.16h-.05l-.08,0a.51.51,0,0,1-.17,0,.28.28,0,0,1-.1-.06l0,0-.07-.07-.09-.1c-.22-.26-.4-.5-.59-.76l-.55-.75c-.73-1-1.45-2-2.16-3L37.22,21l-.53-.77c-.17-.26-.34-.5-.53-.8a.42.42,0,0,1,.13-.55.41.41,0,0,1,.55.13h0v0l.5.75.52.77L38.93,22c.7,1,1.41,2,2.14,3l.54.74c.18.25.37.5.55.72l.07.07h0a.41.41,0,0,0-.09,0,.29.29,0,0,0-.16,0h-.1c-.08.07.18-.15-.18.16v0l.13-.2.27-.39c.19-.26.38-.51.58-.75.38-.49.77-1,1.1-1.47a5.29,5.29,0,0,0,.77-1.54.41.41,0,0,1,.5-.27.37.37,0,0,1,.23.19l1.92,3.42.48.84.24.41.13.22a1.94,1.94,0,0,0,.1.17c.06.09.15.13.08.1a.16.16,0,0,0-.12,0h0l0,0a3.66,3.66,0,0,0,.38-.72,19,19,0,0,0,.61-1.8c.08-.3.19-.65.29-.94s.19-.61.28-.92c.18-.62.33-1.24.48-1.87s.26-1.25.37-1.89a.39.39,0,0,1,.46-.33.4.4,0,0,1,.33.44Z"/><path class="cls-7" d="M20.6,44.41c-.41-1.74-.63-3.49-.93-5.24-.2-1.21-.17-3.75-.7-4.78.45.87,1.09,1.64,1.53,2.51a9,9,0,0,0,1,2.13,1.21,1.21,0,0,0,1.57.28c.31-.24.53-.71.92-.66a.76.76,0,0,1,.39.22A3.3,3.3,0,0,1,25.12,40a5.91,5.91,0,0,0,.57,1.25c1.09,1.41,2.34-1.29,2.87-2,.74-.24,1.39.75,2.17.67s2.37-2.1,2.3-2.76c.31,2.71-1,5.58-1.66,8.16a12.55,12.55,0,0,0-2.51-4.41c-.38,3-1.59,5.3-3,8-1.37-2.94-2.3-5.45-2.09-8.78C23.12,41.83,22.28,43.68,20.6,44.41Z"/><path class="cls-5" d="M33.47,37.3l0,.51,0,.54q0,.52-.09,1A20.22,20.22,0,0,1,33,41.46c-.15.67-.35,1.33-.54,2l-.55,2h0a.55.55,0,0,1-1.06,0c-.12-.38-.26-.77-.41-1.15s-.31-.75-.5-1.12a9.36,9.36,0,0,0-.61-1.06,9.15,9.15,0,0,0-.76-1l.7-.22a19.14,19.14,0,0,1-1,4.3c-.25.69-.54,1.37-.83,2s-.62,1.31-.94,2a.62.62,0,0,1-.82.28.6.6,0,0,1-.28-.29c-.33-.7-.63-1.41-.92-2.13a17.22,17.22,0,0,1-.69-2.25,14.25,14.25,0,0,1-.35-2.33c0-.4,0-.79,0-1.18s0-.79.06-1.18l.78.18a15.58,15.58,0,0,1-1.29,2.5A6.22,6.22,0,0,1,22,43.9a4.34,4.34,0,0,1-.58.46l-.32.2-.33.16a.33.33,0,0,1-.44-.15l0-.06v0c-.38-1.6-.69-3.21-.94-4.84s-.43-3.26-.56-4.9a.4.4,0,0,1,.8-.06h0c.08,1.62.23,3.24.47,4.85s.52,3.2.89,4.78l-.47-.23.28-.14L21,43.8l.49-.4a6,6,0,0,0,.8-1A14.49,14.49,0,0,0,23.44,40a.4.4,0,0,1,.52-.23.41.41,0,0,1,.26.38v0c0,.37,0,.74,0,1.1a10,10,0,0,0,.09,1.1c.05.37.11.73.19,1.09s.18.71.28,1.06.22.71.35,1.05.27.69.41,1,.29.68.44,1l.48,1-1.11,0,1-1.91c.34-.63.65-1.26.94-1.9a17.35,17.35,0,0,0,.75-2c.1-.33.19-.67.26-1s.13-.69.18-1h0a.41.41,0,0,1,.46-.34.38.38,0,0,1,.24.13c.29.33.56.67.83,1s.52.71.76,1.08a11.82,11.82,0,0,1,.64,1.16,8.92,8.92,0,0,1,.5,1.24l-1.06,0c.19-.67.39-1.32.59-2s.38-1.3.57-1.95.33-1.29.45-1.94c.06-.33.11-.66.16-1l0-.48,0-.51a.4.4,0,0,1,.8,0Z"/><path class="cls-7" d="M57.77,48.07c-.87,3-1.44,6-2.42,9q-.83-2.34-1.64-4.69a18.86,18.86,0,0,1-3.44,7.26,53.6,53.6,0,0,1-3-7.37,25.27,25.27,0,0,1-3,4.68c.38-.48-1.51-4.43-1.73-5.11a13.49,13.49,0,0,1-.72-4.74,28.8,28.8,0,0,1,2,2.46c.32.42,1.51,2.49,1.9,2.62.68.21,1-1,1.73-1.08a1.29,1.29,0,0,1,1,.48,14.4,14.4,0,0,1,1.7,1.95c.25.34.58.75,1,.67a1.1,1.1,0,0,0,.59-.48,14.69,14.69,0,0,0,1.39-2.32c.13-.28.3-.6.61-.65.54-.08.82.74,1.36.81s2.34-2.93,2.73-3.47Z"/><path class="cls-5" d="M58.16,48.18c-.22.75-.41,1.49-.6,2.25L57,52.7c-.37,1.51-.75,3-1.24,4.53h0a.43.43,0,0,1-.56.29.45.45,0,0,1-.29-.28l-1.59-4.71h0l.76,0A19.13,19.13,0,0,1,50.71,60h0a.54.54,0,0,1-.76.12.55.55,0,0,1-.17-.2h0a53.28,53.28,0,0,1-2.92-7.49h0l.74.06a25.86,25.86,0,0,1-2.92,4.8h0a.49.49,0,0,1-.68.09.56.56,0,0,1-.17-.26h0q-.16-.62-.36-1.23c-.13-.41-.27-.82-.41-1.23-.29-.82-.59-1.64-.86-2.48-.13-.42-.25-.85-.36-1.28s-.2-.88-.27-1.32l-.09-.67-.06-.67v-.68l0-.68a.4.4,0,0,1,.42-.38.39.39,0,0,1,.38.41v0l0,.62,0,.63.06.63.1.62c.07.42.17.83.28,1.24s.24.82.37,1.22c.27.82.58,1.63.89,2.45.15.41.29.82.44,1.24s.27.84.39,1.27l-.85-.17h0a24.48,24.48,0,0,0,3-4.54.4.4,0,0,1,.54-.18.38.38,0,0,1,.2.23h0a52.14,52.14,0,0,0,3.15,7.24l-.94-.09h0a18.62,18.62,0,0,0,3.48-7h0A.39.39,0,0,1,53.8,52a.38.38,0,0,1,.28.25h0l1.69,4.67h-.85c.49-1.46.89-3,1.27-4.46l.58-2.26c.19-.76.4-1.52.62-2.26h0a.4.4,0,0,1,.49-.27A.41.41,0,0,1,58.16,48.18Z"/><path class="cls-7" d="M66.61,68.19l-2.22,7-2.73-3.46A36.55,36.55,0,0,1,60.33,76c-.15.36-2.06,3.34-2.06,3.33a21.16,21.16,0,0,1-2-6,9.89,9.89,0,0,1-2.93,2.49c-.81-1.71-3-4.31-3-6.24L52.72,71a3,3,0,0,0,1,.46c1.22.24,2.49-1.08,3.6-.52.4.2.68.62,1.1.76A1.76,1.76,0,0,0,60,71.13a3.12,3.12,0,0,1,1.48-1c.85-.13,1.67.57,2.51.41,1-.2,1.41-1.56,2.34-2.1Z"/><path class="cls-5" d="M67,68.31l-2,7.11,0,.07a.59.59,0,0,1-.73.41.57.57,0,0,1-.36-.28c-.36-.64-.78-1.25-1.2-1.85S61.8,72.59,61.34,72l.71-.14c-.34,1.17-.57,2.38-1,3.59l-.15.45-.08.22-.06.13-.06.13c-.16.31-.3.56-.46.84-.3.54-.62,1.07-.94,1.59l-.5.79v0l-.11.12a.63.63,0,0,1-.25.14.68.68,0,0,1-.4,0,.66.66,0,0,1-.37-.29l0,0h0l0,0,0-.1-.1-.21-.2-.43A16.5,16.5,0,0,1,56.64,77a24.89,24.89,0,0,1-.79-3.68l.74.18A14.77,14.77,0,0,1,55.19,75a9.17,9.17,0,0,1-1.62,1.22A.48.48,0,0,1,52.9,76v0l-.69-1.4-.72-1.39c-.24-.47-.48-.93-.73-1.39s-.49-.92-.75-1.37a.4.4,0,0,1,.68-.42h0c.59.88,1.14,1.79,1.66,2.71.26.47.5.93.75,1.4s.48,1,.7,1.43l-.69-.22a11,11,0,0,0,1.56-1A7,7,0,0,0,55.93,73a.42.42,0,0,1,.58-.09.42.42,0,0,1,.15.25v0a19.15,19.15,0,0,0,1.08,3.42c.23.55.47,1.1.73,1.63l.19.4.1.21,0,.1,0,0h0s0,0,0,0a.63.63,0,0,0-.37-.31.74.74,0,0,0-.39,0,.66.66,0,0,0-.24.14.39.39,0,0,0-.09.11h0l.5-.76c.34-.51.67-1,1-1.52l.49-.74,0-.08,0-.07.1-.21.17-.4a31.23,31.23,0,0,0,1.17-3.46h0a.4.4,0,0,1,.5-.27.6.6,0,0,1,.21.14q.66.89,1.38,1.71a19.27,19.27,0,0,0,1.53,1.6L63.78,75l2.44-7a.4.4,0,0,1,.51-.24A.41.41,0,0,1,67,68.31Z"/><path class="cls-7" d="M32.14,63.13a9.2,9.2,0,0,1-2,5.59,10.76,10.76,0,0,0-1.41-3c-.14-.2-.34-.43-.59-.4s-.37.26-.47.46l-2.12,4.12c.26-.51-1.5-4.49-1.67-5.31-.28-1.39-.91-3.54-.54-4.94a22.45,22.45,0,0,0,2.19,3.92,1.34,1.34,0,0,0,.72.63c.52.13,1-.34,1.55-.34.87,0,1.49,1.25,2.32,1a1.45,1.45,0,0,0,.55-.4L32,63Z"/><path class="cls-5" d="M32.54,63.15v.38l0,.4c0,.26,0,.53-.09.79A9.12,9.12,0,0,1,32,66.26a9.55,9.55,0,0,1-1.49,2.82h0a.57.57,0,0,1-.79.12.69.69,0,0,1-.21-.3v0a10.5,10.5,0,0,0-.82-2.07c-.09-.16-.18-.32-.28-.48l-.14-.24L28.23,66l-.06-.08a.31.31,0,0,0-.07-.08s0,0,.06,0,.06,0,0,0a.73.73,0,0,0-.1.14l-2.2,4.14h0a.43.43,0,0,1-.58.18.42.42,0,0,1-.19-.21c-.2-.45-.38-.91-.55-1.36s-.32-.92-.46-1.39-.28-.93-.4-1.41-.22-1-.31-1.42-.17-1-.24-1.45-.11-1-.16-1.45-.06-1-.07-1.46,0-1,0-1.46a.39.39,0,0,1,.4-.39.4.4,0,0,1,.39.41h0c0,.47,0,1,0,1.42s.05.94.09,1.41.09.94.16,1.41.15.93.24,1.4.19.92.31,1.38.25.91.38,1.36.3.9.46,1.34.35.88.54,1.31l-.78,0h0l2.09-4.22a1.45,1.45,0,0,1,.23-.34,1,1,0,0,1,.53-.32.9.9,0,0,1,.63.11,1.26,1.26,0,0,1,.36.31l.12.15.09.13.17.26c.11.17.22.34.32.52a11.12,11.12,0,0,1,1,2.27l-1-.21h0a8.76,8.76,0,0,0,1.47-2.42,9.54,9.54,0,0,0,.42-1.38c.05-.23.09-.47.12-.7l0-.35,0-.38a.39.39,0,0,1,.42-.37A.4.4,0,0,1,32.54,63.15Z"/><path class="cls-7" d="M12.35,82.77a17.6,17.6,0,0,1-1.5-5.08c-.2-1.47.06-3.16-.2-4.57A4.79,4.79,0,0,0,12.45,76c.37.21.67-.42,1.09-.51.72-.15,1,1.34,1.71,1.18a.75.75,0,0,0,.36-.22,4.75,4.75,0,0,0,1-1.44c.92.83-.39,4.55-.61,5.76A13.31,13.31,0,0,1,13.49,77,18.17,18.17,0,0,1,12.35,82.77Z"/><path class="cls-5" d="M17.46,75.18c-.05.48-.12,1-.18,1.43L17.07,78c-.14.94-.31,1.89-.48,2.83a.58.58,0,0,1-.66.47.63.63,0,0,1-.31-.17h0a8.39,8.39,0,0,1-.78-.9,10.79,10.79,0,0,1-.66-1,10.57,10.57,0,0,1-.56-1.05,10.43,10.43,0,0,1-.48-1.08l.76-.18c0,.26,0,.52,0,.78s0,.51-.08.76a12.44,12.44,0,0,1-.3,1.5c-.23,1-.53,1.93-.82,2.87h0a.33.33,0,0,1-.41.21.31.31,0,0,1-.2-.17l-.29-.64-.27-.65L11.27,81l-.22-.67-.18-.68-.16-.68-.13-.69-.11-.7-.07-.7-.05-.7,0-.7v-.7l0-.7.05-.71.08-.69.12-.7a.39.39,0,0,1,.45-.33.41.41,0,0,1,.34.46h0v0l-.12.66-.1.67-.07.67,0,.67v1.35l0,.67.07.67.1.67.12.67.14.66.18.65.19.64.23.64.25.63.27.62-.61,0c.28-1,.57-1.89.78-2.84A10.64,10.64,0,0,0,13.09,77a.4.4,0,0,1,.76-.2v0c.16.33.34.66.53,1s.41.62.63.91a21,21,0,0,0,1.42,1.68l-1,.29c.18-.94.36-1.88.57-2.82l.3-1.4c.12-.47.22-.94.34-1.4a.42.42,0,0,1,.49-.29A.41.41,0,0,1,17.46,75.18Z"/><path class="cls-14" d="M110,15.27l.24.48c.08.15.16.34.25.55s.2.45.3.72a9.05,9.05,0,0,1,.3.88c.11.32.18.66.27,1s.15.71.19,1.09.08.76.11,1.14a11,11,0,0,1,0,1.15c0,.38-.05.75-.08,1.11s-.1.71-.18,1-.14.63-.22.91-.16.53-.23.75a5.29,5.29,0,0,1-.21.58l-.19.49h0a.21.21,0,0,0,.12.27.2.2,0,0,0,.27-.11l.21-.51a5.14,5.14,0,0,0,.22-.58c.08-.23.18-.49.26-.78s.17-.6.24-.93.13-.7.2-1.06.1-.76.11-1.15,0-.8,0-1.2,0-.8-.09-1.19-.12-.77-.18-1.14-.16-.72-.27-1.05-.19-.64-.29-.92-.21-.54-.3-.77v0c-.36-.28-.72-.58-1.06-.87A.22.22,0,0,0,110,15.27Z"/><path class="cls-14" d="M123.35,7.55a.31.31,0,0,0,.21.07,3.24,3.24,0,0,1,.46-.07,4.71,4.71,0,0,1,.66,0,6.66,6.66,0,0,1,.75.09,5.17,5.17,0,0,1,1.35.48,3.76,3.76,0,0,1,.41.24l.16.1h0a.22.22,0,0,0,.27,0,.22.22,0,0,0,0-.3L127.46,8a3,3,0,0,0-.43-.31,4.89,4.89,0,0,0-1.47-.64,5,5,0,0,0-1.6-.12l-.43.05-.27.41A.32.32,0,0,0,123.35,7.55Z"/><path class="cls-14" d="M69.56,22.83c.06.35.12.69.2,1,.15.65.32,1.25.47,1.76.32,1,.55,1.68.55,1.68h0a.21.21,0,1,0,.39-.13s-.21-.67-.5-1.68c-.14-.51-.3-1.1-.44-1.74-.06-.32-.12-.65-.17-1s-.08-.67-.11-1a10.25,10.25,0,0,1,.08-2A7.86,7.86,0,0,1,70.48,18,5.57,5.57,0,0,1,71,17l.11-.16a9.57,9.57,0,0,1-1,.45c-.08.17-.17.36-.25.58a8.57,8.57,0,0,0-.44,1.81,10.05,10.05,0,0,0,0,2.13C69.46,22.12,69.5,22.49,69.56,22.83Z"/><path class="cls-14" d="M125.76,17.05a.22.22,0,0,0,.29.06.2.2,0,0,0,.07-.28l-.16-.28c0-.08-.12-.19-.21-.31a4.16,4.16,0,0,0-.3-.4c-.11-.14-.24-.28-.38-.43s-.3-.3-.47-.45a8.31,8.31,0,0,0-1.14-.82,7.36,7.36,0,0,0-1.28-.59c-.21-.06-.42-.14-.62-.18a4.62,4.62,0,0,0-.58-.12l-.49-.06-.23,0c-.12.21-.24.42-.37.62h.56a4.4,4.4,0,0,1,.45,0,3.55,3.55,0,0,1,.52.09c.19,0,.38.1.58.15a7.32,7.32,0,0,1,1.2.51,8.62,8.62,0,0,1,1.09.73c.16.14.31.27.45.41s.26.26.37.39.2.25.28.36a2.17,2.17,0,0,1,.2.29Z"/><path class="cls-14" d="M117.28,17.45a7.39,7.39,0,0,1,1,.65,7.55,7.55,0,0,1,1.19,1.16A7.35,7.35,0,0,1,120,20c.09.14.17.28.25.42s.16.29.23.44a8.55,8.55,0,0,1,.65,1.81,8.3,8.3,0,0,1,.24,1.66,8.68,8.68,0,0,1,0,1.19c0,.29,0,.46,0,.46a.21.21,0,1,0,.41.07v0s0-.16.06-.46a7.53,7.53,0,0,0,0-1.25,9.06,9.06,0,0,0-.87-3.69,4.93,4.93,0,0,0-.23-.46c-.08-.15-.16-.31-.25-.45a7.55,7.55,0,0,0-.57-.83,7.75,7.75,0,0,0-1.26-1.29,8.11,8.11,0,0,0-1-.71l-.35-.2a5.29,5.29,0,0,1-.52.29.31.31,0,0,0,.16.24Z"/><path class="cls-14" d="M90.78,16.89c0-.72.12-1.44.2-2s.15-.9.15-.9h0s0,0,0-.05c-.21.11-.41.23-.61.35l-.06-.05c0,.15,0,.35-.07.58a18.49,18.49,0,0,0-.46,2c0,1.48-.23,3-.23,3h0c0,.11.44.19.55.19s.37-.11.36-.22S90.68,18.34,90.78,16.89Z"/><path class="cls-14" d="M62.4,23.36a5.17,5.17,0,0,0,.07.71,4.77,4.77,0,0,0,.09.6,3.09,3.09,0,0,0,.1.45l.1.4a.21.21,0,0,0,.25.15.22.22,0,0,0,.16-.25h0L63.08,25a3.38,3.38,0,0,1-.09-.44c0-.17-.06-.36-.08-.57s0-.44,0-.68,0-.5,0-.76,0-.54.08-.81.09-.55.14-.83.13-.55.22-.81.19-.52.28-.76.2-.48.32-.69a6.29,6.29,0,0,1,.32-.59c.11-.19.22-.34.31-.48a4.28,4.28,0,0,1,.26-.36L65,17c-.19-.1-.37-.21-.55-.32l-.14.18c-.07.1-.16.23-.26.39a5.89,5.89,0,0,0-.33.52c-.11.19-.22.41-.33.64s-.21.48-.32.74-.19.53-.27.81a8.29,8.29,0,0,0-.21.86,8.48,8.48,0,0,0-.13.88,8.09,8.09,0,0,0-.06.85C62.39,22.84,62.38,23.1,62.4,23.36Z"/><path class="cls-14" d="M79.79,20.86c.13.37.25.71.39,1,.07.15.13.3.2.44s.14.26.2.39.24.45.35.61l.33.52a.21.21,0,1,0,.36-.22h0l-.31-.51a5.22,5.22,0,0,1-.33-.6l-.19-.37c-.06-.13-.12-.28-.18-.43a10.09,10.09,0,0,1-.36-1c-.12-.35-.2-.74-.3-1.13a11.91,11.91,0,0,1-.19-1.24c-.06-.42-.06-.85-.08-1.28s0-.87.07-1.29a12.13,12.13,0,0,1,.18-1.23,11.63,11.63,0,0,1,.29-1.13,10.12,10.12,0,0,1,.35-1c.06-.15.12-.29.17-.43s.13-.25.19-.36a4.66,4.66,0,0,1,.32-.6l.31-.52h0s0,0,0,0h-.13q-.34.06-.69.15l0,.08a7,7,0,0,0-.33.63c-.06.13-.13.26-.19.41l-.18.45a9.71,9.71,0,0,0-.35,1,12,12,0,0,0-.29,1.18c-.06.42-.14.85-.17,1.29s0,.89,0,1.34,0,.9.11,1.34a12.66,12.66,0,0,0,.21,1.28C79.57,20.1,79.66,20.5,79.79,20.86Z"/><path class="cls-14" d="M60.2,12.34l-.09,0a4.11,4.11,0,0,0-.62.21l-.39.18c-.14.06-.27.15-.42.23a5.77,5.77,0,0,0-.83.62,7,7,0,0,0-.7.75,6.23,6.23,0,0,0-.48.76,5.27,5.27,0,0,0-.27.57l-.08.23a.2.2,0,0,0,.11.26.2.2,0,0,0,.27-.11h0l.09-.2a4.13,4.13,0,0,1,.26-.52A4.86,4.86,0,0,1,58.2,14a4.61,4.61,0,0,1,.77-.53,5.26,5.26,0,0,1,.74-.34,4.14,4.14,0,0,1,.54-.16l.23-.05h0a.38.38,0,0,0,.12-.1Z"/><path class="cls-14" d="M102.69,17.82a6.24,6.24,0,0,1,0,.72,9.34,9.34,0,0,1,0,1.09c0,.26,0,.41,0,.41h0a.21.21,0,0,0,.19.22.2.2,0,0,0,.22-.19s0-.15,0-.42a10.73,10.73,0,0,0,0-1.12c0-.24,0-.49,0-.76s0-.54-.08-.83a13.14,13.14,0,0,0-.35-1.79,14.67,14.67,0,0,0-.61-1.73c-.12-.26-.23-.52-.36-.76s-.25-.46-.37-.66c-.23-.4-.47-.74-.62-.95l-.24-.31H100a.3.3,0,0,0,0,.35l.26.33.27.38c.11.15.22.31.34.51a6.81,6.81,0,0,1,.36.62c.13.22.24.47.36.72a14.16,14.16,0,0,1,.62,1.63A12.39,12.39,0,0,1,102.6,17,7.53,7.53,0,0,1,102.69,17.82Z"/><path class="cls-8" d="M91.24,38.8c.19,4.51-2.67,8.23-6.39,8.3S78,43.56,77.76,39s2.67-8.23,6.39-8.3S91,34.28,91.24,38.8Z"/><path class="cls-8" d="M104.42,38.39c.21,4.46-2.57,8.18-6.2,8.3s-6.76-3.38-7-7.84,2.57-8.18,6.21-8.3S104.22,33.93,104.42,38.39Z"/><path class="cls-15" d="M90.86,37.77c.18,4.26-2.52,7.76-6,7.83s-6.5-3.34-6.68-7.6,2.51-7.77,6-7.83S90.67,33.5,90.86,37.77Z"/><path class="cls-16" d="M90.4,36.05c-.54,3.92-3,7.72-7.42,6.87a7.56,7.56,0,0,1-4.41-2.52c1,3.07,3.45,5.25,6.26,5.2,3.51-.07,6.21-3.57,6-7.83a9.46,9.46,0,0,0-.39-2.3C90.45,35.66,90.43,35.86,90.4,36.05Z"/><path class="cls-17" d="M88.35,37.77a2.59,2.59,0,0,1-2.76,2.46,2.67,2.67,0,0,1-2.44-2.86,2.64,2.64,0,0,1,1.33-2.15c.21-.12.89,1.75,1.13,1.7s0-2,.3-2A2.7,2.7,0,0,1,88.35,37.77Z"/><path class="cls-15" d="M104.05,37.37c.2,4.2-2.42,7.71-5.86,7.83S91.82,42,91.62,37.8s2.43-7.71,5.86-7.83S103.85,33.16,104.05,37.37Z"/><path class="cls-16" d="M103,33.56c0,.63-.09,1.25-.16,1.85-.32,2.59-1.41,6.21-4.48,6.84s-5.33-1.15-6.68-3.61c.52,3.8,3.3,6.67,6.49,6.56,3.44-.12,6.06-3.63,5.86-7.83A8.94,8.94,0,0,0,103,33.56Z"/><path class="cls-17" d="M99.57,38.53A2.56,2.56,0,0,1,96.3,40a2.41,2.41,0,0,1,0-4.6c.24-.08.71,1.66,1,1.65s.43-1.74.76-1.62A2.44,2.44,0,0,1,99.57,38.53Z"/><path class="cls-18" d="M90.85,19.85c.06,0,2-1.41,2.3-1.55A6.61,6.61,0,0,1,96,17.47l-2.46,2.18c-.16.15-.34.35-.26.55s.42.22.67.17a10,10,0,0,1,6.53.61,13.91,13.91,0,0,1,5.56,3.95l-7.38-.38A14,14,0,0,1,102,33.32c0-.16-1.06-.74-1.19-.83l-3-2.14c-1.76-1.25-3.24-2.68-5.14-3.77-.12-.06-.25-.12-.36-.06a.42.42,0,0,0-.12.15l-2.82,5.19a33.42,33.42,0,0,0-2.61-5.3c-3,.14-5.4,2.21-7.61,4.18a8.73,8.73,0,0,1,6-7.74c-1.2-.28-2.38-.55-3.59-.74,1.37-1.55,3.47-2.2,5.45-2.78C88.12,19.16,89.73,19.61,90.85,19.85Z"/><path class="cls-6" d="M113,61.86A19.43,19.43,0,0,1,102.53,72.1c-2.82,1.19-5.46,2.58-8.51,3.14a23.19,23.19,0,0,1-23.4-9.75c-3.32-4.87-3.54-12.41,1.68-16.06,3.26-2.29,7.36-2.94,11.3-3.5a69.08,69.08,0,0,1,12.91-1,24.33,24.33,0,0,1,12.3,3.61,11.42,11.42,0,0,1,4.71,5.55A11.13,11.13,0,0,1,113,61.86Z"/><path class="cls-6" d="M89.92,47.3c-6.81-.22-14.16,1.07-20,4.61a8.86,8.86,0,0,1,2.41-2.48c3.26-2.29,7.36-2.94,11.3-3.5a69.08,69.08,0,0,1,12.91-1,24.33,24.33,0,0,1,12.3,3.61,11.42,11.42,0,0,1,4.71,5.55,9.28,9.28,0,0,1,.45,3.81C109,50.64,98.18,47.56,89.92,47.3Z"/><path class="cls-6" d="M68.28,56.73a27.55,27.55,0,0,0,4,6,25.35,25.35,0,0,0,15.9,8.51,19.21,19.21,0,0,0,4.91,0c6.28.15,12.59-2.58,17.29-6.62a18,18,0,0,0,2.71-2.9l0,.08A19.43,19.43,0,0,1,102.53,72.1c-2.82,1.19-5.46,2.58-8.51,3.14a23.19,23.19,0,0,1-23.4-9.75A13.89,13.89,0,0,1,68.28,56.73Z"/><path class="cls-6" d="M105.61,52.72c-.67-.72-2.86.26-3.38.62-.76.51-2.48,2-2.39,3.06.12,1.65,1.62.68,2.4.1s1.14-1.11,1.74-1.61c.35-.29,1.77-1,1.81-1.33A1,1,0,0,0,105.61,52.72Z"/><path class="cls-6" d="M79.27,57.25a1.34,1.34,0,0,0,.43-.51c.8-1.69-1.14-2.74-2.39-3.11-.55-.16-1.81-.64-2.32-.35a.87.87,0,0,0,0,1.64c.5.29,1,.26,1.45.63.73.61.63,1.83,1.78,2A1.39,1.39,0,0,0,79.27,57.25Z"/><path class="cls-6" d="M108.39,58.39l-.2.46a11.9,11.9,0,0,1-.61,1.28c-.16.27-.31.58-.51.9l-.66,1c-.25.35-.54.71-.83,1.1s-.67.74-1,1.14-.78.77-1.22,1.14a15.82,15.82,0,0,1-1.4,1.1,18.92,18.92,0,0,1-3.33,2,18.55,18.55,0,0,1-8.2,1.76,21.15,21.15,0,0,1-4.22-.6,20.27,20.27,0,0,1-3.86-1.47,19.83,19.83,0,0,1-3.25-2.07,17.49,17.49,0,0,1-1.36-1.15c-.42-.39-.79-.8-1.17-1.18s-.68-.79-1-1.18l-.79-1.12-.62-1c-.19-.32-.33-.64-.48-.91a13.06,13.06,0,0,1-.57-1.31l-.18-.47a.2.2,0,0,1,.11-.27.21.21,0,0,1,.27.1h0l.23.44a13.29,13.29,0,0,0,.65,1.23c.16.26.31.55.51.85l.67,1c.25.33.54.67.83,1l1,1.08c.37.34.74.72,1.17,1.07s.85.73,1.33,1a20,20,0,0,0,3.14,1.87,20.64,20.64,0,0,0,3.66,1.32,19.89,19.89,0,0,0,4,.53,21.18,21.18,0,0,0,4-.39,21.43,21.43,0,0,0,3.71-1.19,19.94,19.94,0,0,0,3.2-1.75,21.25,21.25,0,0,0,2.58-2c.36-.36.71-.7,1-1l.87-1,.7-.93c.21-.29.37-.57.54-.82.33-.49.54-.93.7-1.21l.25-.44a.21.21,0,0,1,.28-.08A.22.22,0,0,1,108.39,58.39Z"/><path class="cls-19" d="M113,61.86A19.43,19.43,0,0,1,102.53,72.1c-2.82,1.19-5.46,2.58-8.51,3.14a23.19,23.19,0,0,1-23.4-9.75c-3.32-4.87-3.54-12.41,1.68-16.06,3.26-2.29,7.36-2.94,11.3-3.5a69.08,69.08,0,0,1,12.91-1,24.33,24.33,0,0,1,12.3,3.61,11.42,11.42,0,0,1,4.71,5.55A11.13,11.13,0,0,1,113,61.86Z"/><path class="cls-20" d="M89.92,47.3c-6.81-.22-14.16,1.07-20,4.61a8.86,8.86,0,0,1,2.41-2.48c3.26-2.29,7.36-2.94,11.3-3.5a69.08,69.08,0,0,1,12.91-1,24.33,24.33,0,0,1,12.3,3.61,11.42,11.42,0,0,1,4.71,5.55,9.28,9.28,0,0,1,.45,3.81C109,50.64,98.18,47.56,89.92,47.3Z"/><path class="cls-13" d="M68.28,56.73a27.55,27.55,0,0,0,4,6,25.35,25.35,0,0,0,15.9,8.51,19.21,19.21,0,0,0,4.91,0c6.28.15,12.59-2.58,17.29-6.62a18,18,0,0,0,2.71-2.9l0,.08A19.43,19.43,0,0,1,102.53,72.1c-2.82,1.19-5.46,2.58-8.51,3.14a23.19,23.19,0,0,1-23.4-9.75A13.89,13.89,0,0,1,68.28,56.73Z"/><path class="cls-10" d="M105.61,52.72c-.67-.72-2.86.26-3.38.62-.76.51-2.48,2-2.39,3.06.12,1.65,1.62.68,2.4.1s1.14-1.11,1.74-1.61c.35-.29,1.77-1,1.81-1.33A1,1,0,0,0,105.61,52.72Z"/><path class="cls-10" d="M79.27,57.25a1.34,1.34,0,0,0,.43-.51c.8-1.69-1.14-2.74-2.39-3.11-.55-.16-1.81-.64-2.32-.35a.87.87,0,0,0,0,1.64c.5.29,1,.26,1.45.63.73.61.63,1.83,1.78,2A1.39,1.39,0,0,0,79.27,57.25Z"/><path class="cls-21" d="M108.39,58.39l-.2.46a11.9,11.9,0,0,1-.61,1.28c-.16.27-.31.58-.51.9l-.66,1c-.25.35-.54.71-.83,1.1s-.67.74-1,1.14-.78.77-1.22,1.14a15.82,15.82,0,0,1-1.4,1.1,18.92,18.92,0,0,1-3.33,2,18.55,18.55,0,0,1-8.2,1.76,21.15,21.15,0,0,1-4.22-.6,20.27,20.27,0,0,1-3.86-1.47,19.83,19.83,0,0,1-3.25-2.07,17.49,17.49,0,0,1-1.36-1.15c-.42-.39-.79-.8-1.17-1.18s-.68-.79-1-1.18l-.79-1.12-.62-1c-.19-.32-.33-.64-.48-.91a13.06,13.06,0,0,1-.57-1.31l-.18-.47a.2.2,0,0,1,.11-.27.21.21,0,0,1,.27.1h0l.23.44a13.29,13.29,0,0,0,.65,1.23c.16.26.31.55.51.85l.67,1c.25.33.54.67.83,1l1,1.08c.37.34.74.72,1.17,1.07s.85.73,1.33,1a20,20,0,0,0,3.14,1.87,20.64,20.64,0,0,0,3.66,1.32,19.89,19.89,0,0,0,4,.53,21.18,21.18,0,0,0,4-.39,21.43,21.43,0,0,0,3.71-1.19,19.94,19.94,0,0,0,3.2-1.75,21.25,21.25,0,0,0,2.58-2c.36-.36.71-.7,1-1l.87-1,.7-.93c.21-.29.37-.57.54-.82.33-.49.54-.93.7-1.21l.25-.44a.21.21,0,0,1,.28-.08A.22.22,0,0,1,108.39,58.39Z"/></g></g></g></svg>