<svg xmlns="http://www.w3.org/2000/svg" viewBox="0 0 123.33 122.64"><defs><style>.cls-1{isolation:isolate;}.cls-2{fill:#c4d4de;}.cls-3{fill:#dbe7f0;}.cls-4{fill:#afc4d2;}.cls-5{fill:#445669;}.cls-6{fill:#232e3c;}.cls-7,.cls-9{fill:#e3e8fa;}.cls-8{fill:#bdceda;}.cls-10,.cls-9{mix-blend-mode:overlay;}.cls-10{fill:#e4e4e8;}.cls-11{fill:#e6ecf2;}.cls-12{fill:#d2dfeb;}.cls-13{fill:#d1e1ed;}.cls-14{fill:#f3f7fa;}.cls-15{fill:#aabdcb;}.cls-16{fill:#fff;}.cls-17{fill:#1e252e;}</style></defs><g class="cls-1"><g id="Слой_2" data-name="Слой 2"><g id="animal"><g id="zebra"><path class="cls-2" d="M21.86,105c2.35,1.71,6.5,4.32,8.59,4.15,2.34-.19,4.09-5,4.9-6.8a44.39,44.39,0,0,1,3.91-6.47,39,39,0,0,0,4.09-7c1.76-4.26,1.94-11.74-2.7-14.38C37.92,73,35.16,74.45,33.78,77c-4.45,8.07-7.59,16.46-12.6,23.55a3.39,3.39,0,0,0-.77,2.85A3.56,3.56,0,0,0,21.86,105Z"/><path class="cls-2" d="M21.26,100.41c1.9-2.72,3.33-5,4.54-7.07a4.31,4.31,0,0,0,.39.81,4,4,0,0,0,.35,4c1.76,2.92,4.85,4.11,7.08,3.45a8.13,8.13,0,0,0,3-1.82,22.63,22.63,0,0,0-1.31,2.54c-.78,1.76-2.53,6.62-4.87,6.81-2.09.17-6.24-2.44-8.59-4.15a3.56,3.56,0,0,1-1.45-1.62A3.51,3.51,0,0,1,21.26,100.41Z"/><path class="cls-2" d="M36.16,88.83c1.27.89,2.67,1.68,3.29,3.09-1.49.12-2.59-1.36-4-1.94-1-.41-2.06-.37-3-.73-1.19-.43-2.24-1.45-3.5-1.32-.68-.94,1.21-3.52,1.7-4.38-.24.42,3.44,3.49,3.78,3.82s.64.61,1,.89S35.9,88.65,36.16,88.83Z"/><path class="cls-2" d="M31.81,94.33c-.22-.14-.43-.28-.63-.43-1.13-.86-2-2.13-3.27-2.7a1.48,1.48,0,0,0,.47,1.87A13.26,13.26,0,0,1,30,94.49c.29.37.46.81.78,1.17a4.92,4.92,0,0,0,1,.79c1.21.83,2.9,1.62,3.58,3a2.79,2.79,0,0,0,.36.63.48.48,0,0,0,.59.17c.42-.61,2.18-2.57,1.49-3.43a1.68,1.68,0,0,0-.84-.45c-1-.3-1.91-.62-2.86-1A12.9,12.9,0,0,1,31.81,94.33Z"/><path class="cls-2" d="M24.33,95.7a.12.12,0,0,1,.05,0c.11-.06.39.14.5.19l.55.28a4.61,4.61,0,0,1,1,.67c.54.51,1,1.11,1.54,1.67,1.16,1.16,4.8,2.31,5.08,3.81a4.68,4.68,0,0,1-2.18-.8,12.27,12.27,0,0,0-3.16-1.08,7.64,7.64,0,0,1-1.9-.5A15,15,0,0,1,24.31,99c-.31-.18-.61-.37-.89-.56s-.56-.31-.5-.58a1,1,0,0,1,.11-.23l1.28-1.92Z"/><path class="cls-2" d="M18.7,102.29a3.94,3.94,0,0,1,1.94-1.18c1.78-.06,3.83,2.41,5.34,3.3a52,52,0,0,0,6,3.25c.28.11.58.27.63.62a1.43,1.43,0,0,1-.31.91c-1.76,2.62-3.63,5.15-6.93,5.83-4.71,1-13.63-4.63-9.37-9.66A30.6,30.6,0,0,1,18.7,102.29Z"/><path class="cls-2" d="M84.72,114.7a7.31,7.31,0,0,0,4.34-2.49,8.64,8.64,0,0,0,1.09-5.35c-.25-5.58-.44-11.46-1.22-17.32a13.08,13.08,0,0,0-1.07-4.18A8,8,0,0,0,81,81.07a7.54,7.54,0,0,0-6.93,4.05,9.48,9.48,0,0,0-.15,6.6c.61,2.17,1.61,4.23,2.22,6.4,1,3.7.3,6.43-.43,10.62a6.26,6.26,0,0,0,0,2.85C76.75,114.76,81.38,115.55,84.72,114.7Z"/><path class="cls-2" d="M76.88,101.17a7.38,7.38,0,0,0,.63,1c.25,1.17,1.24,2.23,3.28,2.9a11.33,11.33,0,0,0,3.82.54c2.3.4,4.27,0,5.33-1.23.07.75.14,1.52.18,2.34.1,1.8,0,3.87-1.06,5.45a7.31,7.31,0,0,1-4.34,2.49c-3.34.85-8,.06-9-3.11a6.38,6.38,0,0,1,0-2.88,40.38,40.38,0,0,0,.88-7.95C76.7,100.9,76.78,101,76.88,101.17Z"/><path class="cls-2" d="M89.15,103.39a3.86,3.86,0,0,0-1.84.11,41.9,41.9,0,0,0-4.47.86,8.15,8.15,0,0,1-4.35.36c-.24,0-.15.33,0,.45a5.28,5.28,0,0,0,2.63.67c1,0,1.91,0,2.82,0,.72,0,5.86,1.29,5.88.65a11,11,0,0,0-.09-2.07C89.66,103.81,89.45,103.52,89.15,103.39Z"/><path class="cls-2" d="M84.84,99.34a6.19,6.19,0,0,1,.6-.23,5.8,5.8,0,0,1,.85-.13c.62-.06,1.25-.12,1.88-.21a.92.92,0,0,1-.64.82,7,7,0,0,1-1.12.24c-1.15.24-2.08.89-3.23,1.23a22.24,22.24,0,0,1-4.51.89l-1.37.11a1.4,1.4,0,0,1-.62,0,.57.57,0,0,1-.29-.53c-.08-.75-.62-1.66.56-2.08a7.63,7.63,0,0,1,2.65.11,29.42,29.42,0,0,0,3.63.08,5.58,5.58,0,0,0,1.45-.21Z"/><path class="cls-2" d="M85.92,92.7c-1.34.49-2.71.94-4,1.44a10.08,10.08,0,0,1-5.14.53c-.2,0-.49,0-.51.17s.1.22.21.28a7.07,7.07,0,0,0,3.2.78,26.16,26.16,0,0,0,4.92.17c.37,0,4.46-.45,4.46-.47,0-.42-.17-4-.41-3.9Z"/><path class="cls-2" d="M73.67,112.76q-.39,1-.66,2c-.36,1.37-.27,3.5,1,4.6a5.9,5.9,0,0,0,2.81,1.25c5.3,1.07,9.8.75,12.39-4.25.48-.94,2-6.3.38-6.42-1.37-.1-3,.52-5,.48a46.48,46.48,0,0,1-5.46-.47c-.79-.11-2.9-1-3.49-.85a1.27,1.27,0,0,0-.65.71A25.69,25.69,0,0,0,73.67,112.76Z"/><path class="cls-2" d="M50.46,33c2,7.58-1.09-4,0,0,3.13,11.62,8.4,20.71,20.92,23.31,1.19.25,2.41.48,3.63.71s2.56.37,3.9.47c6.39.31,15-2.43,18.12,5,1.57,3.91,1.18,8.22,1.16,12.6a26.85,26.85,0,0,1-.49,4.24c-3.85,21.49-42.81,20.2-56.34,9.07-3.12-2.56-6.89-6.85-8.06-10.72-1.51-4.94-2.14-10.28-3.56-15.29-1-3.48-2.18-6.89-3.18-10.36a26.55,26.55,0,0,1-1.18-8.54c.09-3-.18-5.7.67-8.65a16.22,16.22,0,0,1,4.23-7.3,14,14,0,0,1,12.31-3.46c5.59,1.18,7.12,6.15,8.44,11q-1.78-6.6.25.94-2-7.53-.11-.39-1.91-7.09,0,.07c-2.23-8.28-.37-1.37,0-.17C51,35,49.85,30.75,50.46,33Z"/><path class="cls-2" d="M32.25,70.38a44.69,44.69,0,0,0,3.3,5.54,44.51,44.51,0,0,0,5.5,6.82c3.67,3.55,7.24,5.77,12.23,6.56S62.8,92,67.9,92.15c9.76.38,20.4-2.91,26.28-11.15.59-.84,1.27-1.83,1.95-2.93s1.39-2.34,2-3.65l0,.7a24.49,24.49,0,0,1-.44,4.19c-3.85,21.49-42.81,20.2-56.34,9.07-3.12-2.56-6.89-6.85-8.06-10.72-1-3.23-1.6-6.62-2.3-10C31.39,68.6,31.81,69.5,32.25,70.38Z"/><path class="cls-2" d="M39.19,64.75l.1-.06a15,15,0,0,1-4.08,5c-.91.84-2,2.24-3.12,2.68A9.11,9.11,0,0,1,31.48,69C31.45,68.79,38.1,65.46,39.19,64.75Z"/><path class="cls-2" d="M49.66,56.07c1.09-1.25,2.16-2.51,3.23-3.77a22.09,22.09,0,0,1,4-3.72.33.33,0,0,0,.15-.18.32.32,0,0,0-.06-.18l-2.14-4A.43.43,0,0,0,54.5,44c-1,1.41-2.35,2.57-3.3,4.11-1.09,1.76-1.65,4-2.66,5.81a41,41,0,0,1-3.82,5.75,2.78,2.78,0,0,0-.81,1.65,15.4,15.4,0,0,0,4.73-4.05Z"/><path class="cls-2" d="M50,70.41c1.44-1.38,3-2.66,4.49-4A19.66,19.66,0,0,0,57,64c.93-1.15,1.58-2.51,2.55-3.63,1.94-2.22,4.19-3.89,5.88-6.37-.38-.13-5.74-2-5.31-2.88-.9,1.65-1.8,3.29-2.76,4.89a77.16,77.16,0,0,1-5.09,8c-2.14,2.77-3.68,5.78-5.55,8.66a3.1,3.1,0,0,0-.65,1.66,2,2,0,0,0,1-.82A31.46,31.46,0,0,1,50,70.41Z"/><path class="cls-2" d="M61.44,72.23c-.19.81-.37,1.62-.53,2.44-.33,1.77-1.24,5.41-.38,7a.78.78,0,0,0,.56-.59c.76-2.28,1.36-4.59,2.24-6.82.82-2.06,2.13-3.56,3.19-5.48C67.7,66.7,67.71,64.19,68.6,62a13.47,13.47,0,0,1,4-5c-.37-.08-.54-.32-.92-.46l-2.71-1A2.72,2.72,0,0,0,67,55.38c-.31.67-.7,1.35-1,2A52.38,52.38,0,0,0,63.19,65l-1.53,6.34C61.59,71.61,61.52,71.92,61.44,72.23Z"/><path class="cls-2" d="M74.78,58.68a34.77,34.77,0,0,0-1.16,4.2A34.4,34.4,0,0,0,73,67.31a56.45,56.45,0,0,1-1.36,8.86,9.45,9.45,0,0,0-.4,2.83.56.56,0,0,0,.12.36c.24.25.64,0,.84-.29a12.06,12.06,0,0,0,1.5-3.28c.29-.85.59-1.7.9-2.54s.62-1.69.94-2.53c1.12-4.73,5.42-8.25,5-13.34-1.95.4-3.52-1.17-5.35,0C75.08,57.81,74.92,58.25,74.78,58.68Z"/><path class="cls-2" d="M87.79,57.34C85.69,63.25,82.17,68.73,81,75c0-.22.81-.72,1-.89s.65-.64,1-1c.6-.64,1.17-1.31,1.71-2a45.5,45.5,0,0,0,2.93-4.32c1-1.73,2-3.5,3-5.24.52-.89,1-1.77,1.61-2.63.24-.38.66-.71.2-1A3.76,3.76,0,0,0,91,57.34c-.53-.06-1-.28-1.55-.29C89.16,57,87.86,57.13,87.79,57.34Z"/><path class="cls-2" d="M51.14,35.53v0h0Z"/><path class="cls-2" d="M51,35l0-.15,0,.1v0h0Z"/><path class="cls-2" d="M51,34.81h0v0Z"/><path class="cls-2" d="M50.94,34.77l-.06-.23,0,.08v0l0,.08v.1Z"/><path class="cls-2" d="M51,34.89a1.6,1.6,0,0,1,0-.21Z"/><path class="cls-2" d="M50.61,33.55l0,.07h0l0-.07Z"/><path class="cls-2" d="M51.08,35.27h0v0l0,.08h0v0h0v0l0,0,0-.09v.05h0Z"/><path class="cls-2" d="M50.44,32.93h0l0,.15Z"/><polygon class="cls-2" points="50.39 32.74 50.39 32.74 50.39 32.73 50.39 32.74"/><path class="cls-2" d="M50.41,32.81h0v0Z"/><path class="cls-2" d="M51,35.09l0,.1,0-.1Z"/><path class="cls-2" d="M51.28,36l-.11-.42h0l0-.11h0l0,.1h0C51.2,35.75,51.24,35.89,51.28,36Z"/><path class="cls-2" d="M68.13,77.51c0,2.61-.29,5.22-.35,7.84,0,.94,1,10.89.68,11a6.85,6.85,0,0,1-3.33-.22c-.61-.17-.39-3.42-.45-4a12.49,12.49,0,0,1,.41-4.33,80.35,80.35,0,0,0,2-12.4c0-.74.16-1.61.82-1.94A32.05,32.05,0,0,1,68.13,77.51Z"/><path class="cls-2" d="M44.06,70.7c-1.05,2.35-2.88,4.14-4.48,6.2-1.3,1.67-1.57,4.83-3.3,6a6.41,6.41,0,0,1-1-.93c-.66-.69-1.79-2.15-1.72-3.16s3.46-3.22,4.27-4.22c1.6-2,3.67-3.52,5.11-5.61.75-1.08,1.8-3.61,3.3-3.49A32.23,32.23,0,0,1,44.06,70.7Z"/><path class="cls-2" d="M75.82,96.06c-1.14,0-1.15-.17-1.36-1.11-.4-1.88.05-4.35.07-6.28,0-1.09,0-2.17.12-3.26A21.17,21.17,0,0,1,76.24,79c.37-.12.57.43.55.82-.14,2.44-1,4.94-.27,7.28a18.77,18.77,0,0,1,.88,2.48c.09.54.06,1.1.14,1.65a6.93,6.93,0,0,0,1.11,2.59A2.29,2.29,0,0,1,79.09,95C79.07,95.93,76.55,96.05,75.82,96.06Z"/><path class="cls-2" d="M95.53,70.77c-2.8,1.87-6.71,1.48-8.67,4.61,3.91-.78,7.44,2,10.56.78,1.18-.39,1.18-3.52.46-5.49C97.43,69.9,96.36,70.44,95.53,70.77Z"/><path class="cls-2" d="M43.14,85.05A28.92,28.92,0,0,1,47.58,79a45.63,45.63,0,0,0,7.12-8.16h.6c-.65,4.29-4.11,7.07-6.28,10.58A18.9,18.9,0,0,0,47.19,86c-.49,1.6-1.5,3.12-1.78,4.75a4.94,4.94,0,0,1-2.7-1.31l-1-.76C40.74,87.9,42.65,85.86,43.14,85.05Z"/><path class="cls-2" d="M61.19,57.45l-.35-.13a17.79,17.79,0,0,1-4.41-3A38.82,38.82,0,0,1,53,51c-.47-.73-.94-1.46-1.39-2.2A74.23,74.23,0,0,1,48.74,41c-1.88-6-2.06-12.4-4-18.37,0-.33-.07-.66-.11-1a15.27,15.27,0,0,1,3.61,5.11,56.74,56.74,0,0,1,2.18,6.14l0-.07v0l0,.09,0,.13,0-.12c.13.43.25.87.37,1.3C54,45.21,59.29,53.78,71.38,56.29l1.53.31c.93.18,4.27-.2,5.23-.05,10.33-.49,21.24-.34,20.46,13.75-2.44-13.31-15.26-9-24.14-9.54a22.71,22.71,0,0,1-2.63-.55c-2.55-.7-5-1.71-7.59-2.27A27.69,27.69,0,0,1,61.19,57.45Z"/><path class="cls-2" d="M80.86,53.2c.39.4-.26.66-1,.92-1.67.57-1,1.84.49,2,.66,0,4-.74,3.91.44,0,.91-2.69,1.94-3.35,2.1a9.9,9.9,0,0,1-5.3-.47c-.81-.28-1.6-.6-2.39-.9a19.09,19.09,0,0,0-2.35-.79,1.1,1.1,0,0,0-.76,0c-.37.19-.39.72-.25,1.11a4.29,4.29,0,0,1,.43,1.16,2.78,2.78,0,0,1-2.4-.91L60.5,51.74c-.48-.39-1.21-.78-1.64-.34a1,1,0,0,1-.47,1.26,13.31,13.31,0,0,1-5.2-5.82c-.91-2.11-1.44-4.38-2.45-6.45a1,1,0,0,0-.32,1c-.54.25-1.06-.37-1.32-.89a37,37,0,0,1-3-8.15,5.56,5.56,0,0,1,0-3.18c1.26-3.36,7.44-.32,9.22,1.11A31.91,31.91,0,0,1,58.91,34a47.61,47.61,0,0,0,3.73,3c-1,1.22-3.56.4-4,1.79-.21.69.4,1.35,1,1.78,2.16,1.56,4.62,2.15,7.1,2.85-.23,1.11-3.33,2.49-2.33,3.78.61.79,2.68.41,3.54.41a17,17,0,0,0,2.47-.14,10.93,10.93,0,0,1,2.68,0,.6.6,0,0,1,.23.06c.16.12.08.37,0,.54-.49.81-3.09,1.74-2.43,2.83s2.85,1,3.92,1.09c1.76.17,3.89.1,5.51.89A2.39,2.39,0,0,1,80.86,53.2Z"/><path class="cls-2" d="M103.08,114.84c.25,0,.51-.12.76-.19a7.74,7.74,0,0,0,4.45-3.91c1.11-2.41-.11-5.3-.89-7.19-1.6-3.87-3.23-8.12-5.13-12.31-1-2.18-2.14-4.27-3.16-6.44-1.5-3.18-5.22-6.55-8.89-6.73-3.52-.18-6.54,4.76-6.13,7.89.54,4.12,3.7,8.27,5.67,11.82a56.56,56.56,0,0,1,5.62,14c.35,1.39,1,3.56,2.71,3.88a6.55,6.55,0,0,0,2.41-.32C101.31,115.13,102.19,115,103.08,114.84Z"/><path class="cls-2" d="M98.54,107.11a10.14,10.14,0,0,0,7.51-2.76,4.55,4.55,0,0,0,1-1.4c.08.18.17.36.25.55.85,1.94,2.07,4.83,1,7.24a7.74,7.74,0,0,1-4.45,3.91c-.25.07-.51.14-.76.19-.89.19-1.77.29-2.58.46a6.55,6.55,0,0,1-2.41.32c-1.74-.32-2.36-2.49-2.73-3.94a61.42,61.42,0,0,0-2.22-7.21A8.37,8.37,0,0,0,98.54,107.11Z"/><path class="cls-2" d="M89,90.13a11.06,11.06,0,0,1-2,2.08.36.36,0,0,1-.27.11c-.1,0-.16-.1-.22-.17a10.63,10.63,0,0,1-.88-1.4c-1-2,3.77-4.59,5-5.17.33-.15,4.76-2.27,4.81-2.19.22.34-.06.78-.34,1.08a45.56,45.56,0,0,1-4,3A15.66,15.66,0,0,0,89,90.13Z"/><path class="cls-2" d="M99.87,91.75a20.2,20.2,0,0,0,2-1.41,20,20,0,0,1-1.62-2.65c-1,.77-1.94,1.75-3,2.46S95,91.19,94,91.88s-2.49.7-3.47,1.53a1,1,0,0,0-.37.53.53.53,0,0,0,.22.57.59.59,0,0,0,.32,0,6.93,6.93,0,0,0,2.34-.87,16,16,0,0,1,3.47-.53,6.49,6.49,0,0,0,3.06-1.23Z"/><path class="cls-2" d="M91.36,100.8a7.07,7.07,0,0,1,1.74-1,18.06,18.06,0,0,1,2.56-1.37c.62-.15,1.24,0,1.87-.17a10,10,0,0,0,2.76-1.37,12.3,12.3,0,0,1,1.84-1c.09,1.23-1,1.73-1.72,2.5a7.09,7.09,0,0,1-2.79,2.09,7.83,7.83,0,0,0-3.43,1.93,4.54,4.54,0,0,1-.63.61,1,1,0,0,1-.83.19C92,103,92.07,101.27,91.36,100.8Z"/><path class="cls-2" d="M102.44,105.13a17.39,17.39,0,0,0,3.6-1c1-.32,1.34-.33,1.1-1.15-.14-.5-.49-1.93-1.19-2s-1.47.62-2,.85A72.94,72.94,0,0,1,97.22,105a4,4,0,0,0-2.16,1.4,3.45,3.45,0,0,0,2.09-.31,11.65,11.65,0,0,1,2.24-.78,16,16,0,0,1,2.31-.1Z"/><path class="cls-2" d="M95.39,113.22A15.63,15.63,0,0,0,96,116a6.71,6.71,0,0,0,2,3.61c1.91,1.46,5.41.9,7.43-.18a10,10,0,0,0,4.52-5.31c.84-2.32-.09-5.06-.91-7.08-.29-.72-.88-.6-1.38-.27-1.86,1.24-2.74,2.71-5.35,3.56-2.15.69-4.16,1.61-6,1.63a1.07,1.07,0,0,0-.68.17C95.42,112.32,95.37,112.72,95.39,113.22Z"/><path class="cls-2" d="M14.94.38c-7.38-2.45-3.77,7.5-2.38,11.49A52.84,52.84,0,0,0,19,24.47a8.51,8.51,0,0,0,3.59,3.35c3.84,1.49,12-.52,12.85-5.17.66-3.47-2.46-8.38-4.44-11-3.85-5-9.38-8.61-15.2-11C15.47.57,15.2.47,14.94.38Z"/><path class="cls-2" d="M16.25,14.5l.49.55a24.83,24.83,0,0,0,2.57,3.75c2.77,3.24,6.85,5.56,11.25,4.48a9.92,9.92,0,0,0,4.83-2.77,6.41,6.41,0,0,1,0,2.14c-.89,4.65-9,6.66-12.85,5.17A8.51,8.51,0,0,1,19,24.47a52.84,52.84,0,0,1-6.4-12.6,45.79,45.79,0,0,1-1.85-6.29A34,34,0,0,0,16.25,14.5Z"/><path class="cls-2" d="M32,23.51a27.22,27.22,0,0,0-3.41-10C25.49,7.82,17.58,1.26,10.55,2,10.89.33,12.1-.56,14.94.38c.26.09.53.19.82.31,5.82,2.38,11.35,5.95,15.2,11,2,2.59,5.1,7.5,4.44,11a6.28,6.28,0,0,1-3.47,4.09A11.14,11.14,0,0,0,32,23.51Z"/><path class="cls-2" d="M26.18,21.66a4.24,4.24,0,0,1-.38,1.28c-1.38,2.88-4.36,2.55-5.94,0A60.7,60.7,0,0,1,14.49,10.9c-.8-2.24-1-3.55,1.57-2.33,3.16,1.5,7.08,5.68,8.88,8.67A7,7,0,0,1,26.18,21.66Z"/><path class="cls-2" d="M37.16,22.22a10.5,10.5,0,0,0-3.77-.92,12.74,12.74,0,0,0-5,.92,26.41,26.41,0,0,0-4,2.41,45.52,45.52,0,0,0-8.69,7.43,43.77,43.77,0,0,0-5.77,6.77c-.16.25-.31.5-.46.75a16.86,16.86,0,0,0-2,5.08c-.27,1.4-.68,2.8-.89,4.21A13,13,0,0,0,7.8,56.34a17.53,17.53,0,0,0,11.8,9.24c4.38,1,8.86-1.46,12.59-3.5a19.55,19.55,0,0,0,4.61-3.29A17.66,17.66,0,0,0,39,56c4.5-6.83,5.85-14.29,6.74-22.26C46.34,28.39,41.94,24.28,37.16,22.22Z"/><path class="cls-2" d="M14.94,35.5c-.6,1-1.12,2-1.77,3-1,1.59-1.92,3.27-2.8,5A61.45,61.45,0,0,0,6.5,51.64a18.24,18.24,0,0,0,.06-2.58c.13-.85.32-1.73.47-2.6a19.92,19.92,0,0,1,1.79-6A21.65,21.65,0,0,1,11.17,37a60.25,60.25,0,0,1,9-9.26c.25-.2,1.58-1.5,1.67-.72,0,.42-1.44,1.74-1.73,2.08L16.29,33.6A15,15,0,0,0,14.94,35.5Z"/><path class="cls-2" d="M33.09,57.75l-.33.21a39.69,39.69,0,0,1-3.95,2,32.77,32.77,0,0,1-8.12,2.39A17.93,17.93,0,0,1,17.8,63c-.39,0-4.58-.63-4.46-.83-.22.37.18.79.54,1,6,3.8,12.41,2.66,18.45-.45a15.54,15.54,0,0,0,2.6-1.63,17.66,17.66,0,0,0,3.79-4.42,40,40,0,0,0,3.45-6.45,1.71,1.71,0,0,0-1.17.64A50.18,50.18,0,0,1,33.09,57.75Z"/><path class="cls-2" d="M11.22,39.6c-2,.78-.78-.63-.17-1.58a3.6,3.6,0,0,1,1-1.14c1.07-.68,3.16.58,4,1.15a13.42,13.42,0,0,0,3.35,1.66.86.86,0,0,1-.69.43,2.2,2.2,0,0,1-.84-.1,22.32,22.32,0,0,0-4.29-.7,7,7,0,0,0-2.15.2Z"/><path class="cls-2" d="M16.4,32.71c1,.76,1.67,1.71,2.64,2.57a.23.23,0,0,1-.18.27.64.64,0,0,1-.36,0,18,18,0,0,0-2.74-.68,12.15,12.15,0,0,1-2.09-.32c.56-.82,1.16-1.63,1.8-2.4A7.77,7.77,0,0,1,16.4,32.71Z"/><path class="cls-2" d="M38.47,55.34a3.78,3.78,0,0,0-.33-.22C36.79,54.28,36,52.78,35,51.57c-.56-.65-2.9-3.47-2.34-1a44.42,44.42,0,0,1,1.26,4.77,22.66,22.66,0,0,1,0,5.27c0,.18,0,.4.14.48a.43.43,0,0,0,.35,0c1.8-.69,2.84-2.93,4-4.33a1.16,1.16,0,0,0,.38-1A.88.88,0,0,0,38.47,55.34Z"/><path class="cls-2" d="M41.42,49.75l-.17-.1c-1.31-.79-2.32-1.82-3.7-2.51s-.34.78,0,1.22a10.7,10.7,0,0,1,2.35,4.56,1,1,0,0,0,.17.45.37.37,0,0,0,.42.15.59.59,0,0,0,.25-.32c.25-.6,1.4-2.26,1.18-2.9A1.11,1.11,0,0,0,41.42,49.75Z"/><path class="cls-2" d="M26.12,42.2c6.64,3.68,12.84,14.66,8.76,22a13.3,13.3,0,0,1-3.94,4.24c-5.54,4-13.55,5-19.49,1.55a24.84,24.84,0,0,1-9-9.93C.5,56.45-.77,52.13.53,48.23,4,37.91,18.18,37.81,26.12,42.2Z"/><path class="cls-2" d="M21.68,41.71c5.47,2,11.43,9,9.13,14.24A8.44,8.44,0,0,1,28.27,59a15.45,15.45,0,0,1-14.72,2.29,20,20,0,0,1-8-6.1c-1.88-2.32-3.32-5.13-2.77-7.84C4.27,40.24,15.12,39.26,21.68,41.71Z"/><path class="cls-2" d="M13.51,66.58C6.71,64.16.56,56.53.29,49.1c-.86,3.66.35,7.61,2.14,11a24.84,24.84,0,0,0,9,9.93c4.67,2.74,10.58,2.64,15.5.64a25.36,25.36,0,0,0,6.5-3.75c1.43-1.23,2.15-3.57,2.37-5.83C30,66.58,21,69.25,13.51,66.58Z"/><path class="cls-2" d="M9.24,46.77c-1.91-.94-2.4,1.36-1.3,2.58.46.51,2.62,1.93,3.24,1.34.93-.89-.84-3.18-1.49-3.65A2.07,2.07,0,0,0,9.24,46.77Z"/><path class="cls-2" d="M25.81,56c-1.3.16-3.19.16-2.45-1.56.52-1.2,3.05-2,4.24-1.81a1.47,1.47,0,0,1,1,2.36c-.49.72-1.3.76-2.12.9C26.32,55.88,26.08,55.92,25.81,56Z"/><path class="cls-2" d="M17.24,65.26c.17-.32,1.1.06,1.38.12A11.89,11.89,0,0,0,20,65.6a12.54,12.54,0,0,0,1.51.06c.26,0,.52,0,.77,0s.52,0,.77-.07a14.21,14.21,0,0,0,1.5-.28A8.69,8.69,0,0,0,26,64.81a6.65,6.65,0,0,0,1.18-.65c.18-.12.35-.25.51-.37l.44-.4a6.61,6.61,0,0,0,.67-.8l.25-.36.19-.33a1.46,1.46,0,0,0,.14-.28l.11-.2.08-.18,0,0a.2.2,0,0,1,.28-.09.21.21,0,0,1,.11.24l-.06.19a5.38,5.38,0,0,1-.16.56l-.15.39-.21.44A7.66,7.66,0,0,1,22.6,67a10.42,10.42,0,0,1-3.79-.64c-.32-.11-1.37-.33-1.52-.68A.51.51,0,0,1,17.24,65.26Z"/><path class="cls-2" d="M22.86,10.68v0a10.84,10.84,0,0,0,2.18,1.69l2.18,1.74a19.4,19.4,0,0,1,1.71,1.41,1.81,1.81,0,0,1,.58.85c.06.75-1.09.71-1.6.95-1,.51-2.1.9-3.13,1.4a9.27,9.27,0,0,0-2.28,1.44,1.1,1.1,0,0,0-.27,1.31c.31.51,1,.52,1.64.48a28.45,28.45,0,0,1,5.22.15c1,.12,2.73.21,3.42,1-1.1.77-2.3,1.4-3.39,2.2-1.31,1,1.26,1,1.82,1.07,1.62.1,3.22-.19,4.84-.25a7.72,7.72,0,0,1,2.49.18c.65.2,1.21.56,1.89.71a3.35,3.35,0,0,0,3.34-.63c2.1-2.3-.81-8.09-2.08-10.24a10.31,10.31,0,0,0-3.78-3.89.63.63,0,0,0-.37-.1c-.31.06-.32.49-.25.79.18.81.36,1.62.53,2.43-2-1.14-3.85-2.48-6-3.57a18.46,18.46,0,0,0-4.68-1.64c-.66-.14-3.68-.92-4.1-.31A.77.77,0,0,0,22.86,10.68Z"/><path class="cls-2" d="M44.92,37.33a8.69,8.69,0,0,1-.81-2.26c-.69-2.71-1.7-4.8-.73-7.6,2.55-7.33,10.5-8.88,17.21-9,2.49,0,12.38-.57,13.08,2.65.65,3-3.61,6.5-5.57,8.22a19.23,19.23,0,0,1-3.62,2.89q-1.89,1.38-3.89,2.61c-1.35.84-2.74,1.63-4.14,2.42a14.63,14.63,0,0,1-4.18,1.41,15.51,15.51,0,0,1-3.38.5,4.52,4.52,0,0,1-3.67-1.47A3.91,3.91,0,0,1,44.92,37.33Z"/><path class="cls-2" d="M54.48,36.38a27.55,27.55,0,0,0,4.31-2.86c2-1.3,3.91-2.65,5.92-3.9A21.37,21.37,0,0,0,70,26.9a13.17,13.17,0,0,0,1.89-1.72l.81-.59a26.29,26.29,0,0,1-4.63,4.79,63.73,63.73,0,0,1-11.65,7.91,18.37,18.37,0,0,1-5.59,1.84,10.09,10.09,0,0,1-2.9.13C50.07,38.21,52.37,37.49,54.48,36.38Z"/><path class="cls-2" d="M48.14,25.09a30.43,30.43,0,0,0-4.26,1.17c3-6.29,10.38-7.67,16.71-7.75,2.49,0,12.38-.57,13.08,2.65a3.68,3.68,0,0,1-.23,2.08,8.54,8.54,0,0,0-4.7-2.39,32.66,32.66,0,0,0-9.87,0A23.68,23.68,0,0,0,48.14,25.09Z"/><path class="cls-2" d="M47,35.73a3,3,0,0,1-.39-5.07,22.33,22.33,0,0,1,8.07-4.41,26.08,26.08,0,0,1,11.05-.73c.84.11,1.86.49,1.93,1.34s-.61,1.24-1.21,1.63-1.34.88-2,1.31C60.09,32.63,57,35.67,51.5,36.45a7.59,7.59,0,0,1-2.56,0A5.35,5.35,0,0,1,47,35.73Z"/><path class="cls-2" d="M27.13,36.25C24.89,39.84,20.79,41,18,38.93s-3.27-6.75-1-10.34,6.34-4.8,9.14-2.68S29.37,32.65,27.13,36.25Z"/><path class="cls-2" d="M40.61,41.1c-2.2,4.15-6.66,6-9.95,4.15s-4.18-6.7-2-10.85,6.66-6,10-4.15S42.81,37,40.61,41.1Z"/><path class="cls-2" d="M26.74,35.21c-2.24,3.6-6.34,4.8-9.15,2.68s-3.26-6.74-1-10.34,6.34-4.79,9.15-2.67S29,31.62,26.74,35.21Z"/><path class="cls-2" d="M27.35,33.53c-2.62,2.87-6.71,4.45-9.72,1a8.19,8.19,0,0,1-2.07-4.77c-1,3.1-.22,6.41,2,8.11,2.81,2.12,6.91.92,9.15-2.68a9.41,9.41,0,0,0,1-2.11Z"/><path class="cls-2" d="M24.74,33a2.52,2.52,0,0,1-3.75.19,3,3,0,0,1-.21-4.05,2.54,2.54,0,0,1,2.4-.9c.25.05-.36,2.07-.13,2.19s1.29-1.67,1.48-1.48A3,3,0,0,1,24.74,33Z"/><path class="cls-2" d="M40.22,40.07c-2.2,4.14-6.65,6-9.95,4.15s-4.18-6.71-2-10.85,6.65-6,10-4.15S42.43,35.93,40.22,40.07Z"/><path class="cls-2" d="M41.42,35.83c-.39.59-.8,1.15-1.21,1.69-1.77,2.29-4.84,5.14-8.09,4s-4.36-4.14-4.23-7.27c-1.66,3.94-.69,8.28,2.38,10,3.3,1.85,7.75,0,10-4.15A10.07,10.07,0,0,0,41.42,35.83Z"/><path class="cls-2" d="M36.76,37.64a3.1,3.1,0,0,1-4.27-4.5,3,3,0,0,1,2.44-.77c.3,0-.11,2.22.17,2.35s1.4-1.69,1.69-1.38A3,3,0,0,1,36.76,37.64Z"/><path class="cls-2" d="M56.23,81.35a6.38,6.38,0,0,0-2.92-1.6,4.93,4.93,0,0,0-5,2.26,16.25,16.25,0,0,0-2.05,5.46c-1.27,5.06-1.69,10.25-3.39,15.19a35,35,0,0,1-2.12,5.23c-.66,1.25-2.17,3.29-.11,3.92a57.07,57.07,0,0,0,10.52,2.26,3.19,3.19,0,0,0,2.21-.22,2.61,2.61,0,0,0,.73-1.46,55.38,55.38,0,0,1,2.36-7.82,45.08,45.08,0,0,0,2.69-7.95,21.55,21.55,0,0,0,.33-9.4A12.23,12.23,0,0,0,56.23,81.35Z"/><path class="cls-2" d="M40.79,107.89a41.39,41.39,0,0,0,2.11-5.23l0-.08a2.89,2.89,0,0,0,0,.29c.6,3.67,6.41,6.39,9.79,5a9.3,9.3,0,0,0,4.09-4.12c-.12.29-.23.58-.35.86a55.38,55.38,0,0,0-2.36,7.82,2.61,2.61,0,0,1-.73,1.46,3.19,3.19,0,0,1-2.21.22,57.07,57.07,0,0,1-10.52-2.26C38.62,111.18,40.13,109.14,40.79,107.89Z"/><path class="cls-2" d="M45.73,93.35A91.26,91.26,0,0,0,56.14,96a3.31,3.31,0,0,1,2,.89c-1.47.78-3.33.48-5.06.16-1.47-.27-3.06-.8-4.49-.46s-2.5.88-4,.66a5.8,5.8,0,0,1,0-2.78c.07-.32.38-.73.38-1a.33.33,0,0,1,.13-.17.43.43,0,0,1,.25,0Z"/><path class="cls-2" d="M41.57,106.32l0-.08c-.13-.47.54-1.29.71-1.76a.24.24,0,0,1,.11-.15c.56-.31,2.48.74,3.14.93,2,.59,4,1.45,6,1.87a3.75,3.75,0,0,1,1,.31,1.29,1.29,0,0,1,.68.78c-.5,0-1,0-1.53,0-2.11-.12-4-.84-6.15-1.17C44.53,106.87,42.05,107.25,41.57,106.32Z"/><path class="cls-2" d="M53.18,104.32c-2.15-1-4.14-2.54-6.34-3.56-.56-.26-1.2-.59-1.38-1.19a20.6,20.6,0,0,1,6.07,1.26c.45.19.9.42,1.37.57a11.69,11.69,0,0,0,2.73.71c.57,0,2.25-.3,1.59.73a19.18,19.18,0,0,0-1.09,2.23c-.05.09-.1.19-.2.22a.33.33,0,0,1-.22,0A13.58,13.58,0,0,1,53.18,104.32Z"/><path class="cls-2" d="M59,92.3c.29.09.78.4,1,.1a1.06,1.06,0,0,0,.11-.51c0-.45,0-.91,0-1.37a3.42,3.42,0,0,0-.35-1.47c-.22-.19-.54,0-.79,0a17.9,17.9,0,0,1-5.4-.26c-2.28-.5-4.25-2.12-6.63-1.86-.12,0-.15.18-.1.3a.68.68,0,0,0,.28.25l3,1.9a8.17,8.17,0,0,0,2.55,1.25,15.88,15.88,0,0,0,2.28.15c1.24.09,2.27.91,3.45,1.33C58.61,92.16,58.83,92.24,59,92.3Z"/><path class="cls-2" d="M39.35,109.8a1.37,1.37,0,0,1,.42-.34c.55-.28,1.09.3,1.58.5a46.29,46.29,0,0,0,11.71,3,1,1,0,0,1,.76.37.86.86,0,0,1,.1.44,8.64,8.64,0,0,1-4.9,8.36c-3.31,1.52-12-.18-12.82-4.65a4.72,4.72,0,0,1,.37-2.52,25.9,25.9,0,0,1,2.48-4.7A3.19,3.19,0,0,1,39.35,109.8Z"/><path class="cls-2" d="M101.88,81.08c-.5-1.26-1-2.5-1.6-3.76a45.1,45.1,0,0,1-2.1-6.19c-1.05-3.71-2-7.5-3.78-11-.22-.41-.44-.9-.18-1.3.69-1.05,3-.06,3.79.31a10.4,10.4,0,0,1,2,1.28,17.74,17.74,0,0,1,3.21,3.5c1.91,2.6,3.52,5.29,5.86,7.6.73.73,1.46,1.44,2.19,2.16,1.84,1.81,3.67,3.62,5.57,5.38,1,.91,2,1.8,3,2.68,1.26,1.1,1.6,2.16-.67,1.71-1.37-.26-2.55-.93-2.15.71.32,1.31,1.66,2.52,2.46,3.59a19.23,19.23,0,0,0,2,2.46c.64.62,1.9,1.43,0,1.77a4.93,4.93,0,0,1-2.93-.9l4.33,7.4c.36.61.7,1.42.21,2s-1.63.34-2.4,0c-3.17-1.56-5.15-3.81-7.45-6.27-.15-.15-.33-.32-.54-.3s-.41.48-.37.8a8.26,8.26,0,0,1,0,2.58c-.43.06-.75-.32-1-.66a51.27,51.27,0,0,1-4.38-8.65c-.33,0-.41.42-.39.72a11.91,11.91,0,0,1-.05,2c0,.18-.07.39-.26.46s-.5-.23-.59-.49A57.72,57.72,0,0,0,101.88,81.08Z"/><path class="cls-3" d="M21.86,105c2.35,1.71,6.5,4.32,8.59,4.15,2.34-.19,4.09-5,4.9-6.8a44.39,44.39,0,0,1,3.91-6.47,39,39,0,0,0,4.09-7c1.76-4.26,1.94-11.74-2.7-14.38C37.92,73,35.16,74.45,33.78,77c-4.45,8.07-7.59,16.46-12.6,23.55a3.39,3.39,0,0,0-.77,2.85A3.56,3.56,0,0,0,21.86,105Z"/><path class="cls-4" d="M21.26,100.41c1.9-2.72,3.33-5,4.54-7.07a4.31,4.31,0,0,0,.39.81,4,4,0,0,0,.35,4c1.76,2.92,4.85,4.11,7.08,3.45a8.13,8.13,0,0,0,3-1.82,22.63,22.63,0,0,0-1.31,2.54c-.78,1.76-2.53,6.62-4.87,6.81-2.09.17-6.24-2.44-8.59-4.15a3.56,3.56,0,0,1-1.45-1.62A3.51,3.51,0,0,1,21.26,100.41Z"/><path class="cls-5" d="M36.16,88.83c1.27.89,2.67,1.68,3.29,3.09-1.49.12-2.59-1.36-4-1.94-1-.41-2.06-.37-3-.73-1.19-.43-2.24-1.45-3.5-1.32-.68-.94,1.21-3.52,1.7-4.38-.24.42,3.44,3.49,3.78,3.82s.64.61,1,.89S35.9,88.65,36.16,88.83Z"/><path class="cls-5" d="M31.81,94.33c-.22-.14-.43-.28-.63-.43-1.13-.86-2-2.13-3.27-2.7a1.48,1.48,0,0,0,.47,1.87A13.26,13.26,0,0,1,30,94.49c.29.37.46.81.78,1.17a4.92,4.92,0,0,0,1,.79c1.21.83,2.9,1.62,3.58,3a2.79,2.79,0,0,0,.36.63.48.48,0,0,0,.59.17c.42-.61,2.18-2.57,1.49-3.43a1.68,1.68,0,0,0-.84-.45c-1-.3-1.91-.62-2.86-1A12.9,12.9,0,0,1,31.81,94.33Z"/><path class="cls-5" d="M24.33,95.7a.12.12,0,0,1,.05,0c.11-.06.39.14.5.19l.55.28a4.61,4.61,0,0,1,1,.67c.54.51,1,1.11,1.54,1.67,1.16,1.16,4.8,2.31,5.08,3.81a4.68,4.68,0,0,1-2.18-.8,12.27,12.27,0,0,0-3.16-1.08,7.64,7.64,0,0,1-1.9-.5A15,15,0,0,1,24.31,99c-.31-.18-.61-.37-.89-.56s-.56-.31-.5-.58a1,1,0,0,1,.11-.23l1.28-1.92Z"/><path class="cls-6" d="M18.7,102.29a3.94,3.94,0,0,1,1.94-1.18c1.78-.06,3.83,2.41,5.34,3.3a52,52,0,0,0,6,3.25c.28.11.58.27.63.62a1.43,1.43,0,0,1-.31.91c-1.76,2.62-3.63,5.15-6.93,5.83-4.71,1-13.63-4.63-9.37-9.66A30.6,30.6,0,0,1,18.7,102.29Z"/><path class="cls-3" d="M84.72,114.7a7.31,7.31,0,0,0,4.34-2.49,8.64,8.64,0,0,0,1.09-5.35c-.25-5.58-.44-11.46-1.22-17.32a13.08,13.08,0,0,0-1.07-4.18A8,8,0,0,0,81,81.07a7.54,7.54,0,0,0-6.93,4.05,9.48,9.48,0,0,0-.15,6.6c.61,2.17,1.61,4.23,2.22,6.4,1,3.7.3,6.43-.43,10.62a6.26,6.26,0,0,0,0,2.85C76.75,114.76,81.38,115.55,84.72,114.7Z"/><path class="cls-4" d="M76.88,101.17a7.38,7.38,0,0,0,.63,1c.25,1.17,1.24,2.23,3.28,2.9a11.33,11.33,0,0,0,3.82.54c2.3.4,4.27,0,5.33-1.23.07.75.14,1.52.18,2.34.1,1.8,0,3.87-1.06,5.45a7.31,7.31,0,0,1-4.34,2.49c-3.34.85-8,.06-9-3.11a6.38,6.38,0,0,1,0-2.88,40.38,40.38,0,0,0,.88-7.95C76.7,100.9,76.78,101,76.88,101.17Z"/><path class="cls-5" d="M89.15,103.39a3.86,3.86,0,0,0-1.84.11,41.9,41.9,0,0,0-4.47.86,8.15,8.15,0,0,1-4.35.36c-.24,0-.15.33,0,.45a5.28,5.28,0,0,0,2.63.67c1,0,1.91,0,2.82,0,.72,0,5.86,1.29,5.88.65a11,11,0,0,0-.09-2.07C89.66,103.81,89.45,103.52,89.15,103.39Z"/><path class="cls-5" d="M84.84,99.34a6.19,6.19,0,0,1,.6-.23,5.8,5.8,0,0,1,.85-.13c.62-.06,1.25-.12,1.88-.21a.92.92,0,0,1-.64.82,7,7,0,0,1-1.12.24c-1.15.24-2.08.89-3.23,1.23a22.24,22.24,0,0,1-4.51.89l-1.37.11a1.4,1.4,0,0,1-.62,0,.57.57,0,0,1-.29-.53c-.08-.75-.62-1.66.56-2.08a7.63,7.63,0,0,1,2.65.11,29.42,29.42,0,0,0,3.63.08,5.58,5.58,0,0,0,1.45-.21Z"/><path class="cls-5" d="M85.92,92.7c-1.34.49-2.71.94-4,1.44a10.08,10.08,0,0,1-5.14.53c-.2,0-.49,0-.51.17s.1.22.21.28a7.07,7.07,0,0,0,3.2.78,26.16,26.16,0,0,0,4.92.17c.37,0,4.46-.45,4.46-.47,0-.42-.17-4-.41-3.9Z"/><path class="cls-6" d="M73.67,112.76q-.39,1-.66,2c-.36,1.37-.27,3.5,1,4.6a5.9,5.9,0,0,0,2.81,1.25c5.3,1.07,9.8.75,12.39-4.25.48-.94,2-6.3.38-6.42-1.37-.1-3,.52-5,.48a46.48,46.48,0,0,1-5.46-.47c-.79-.11-2.9-1-3.49-.85a1.27,1.27,0,0,0-.65.71A25.69,25.69,0,0,0,73.67,112.76Z"/><path class="cls-7" d="M50.46,33c2,7.58-1.09-4,0,0,3.13,11.62,8.4,20.71,20.92,23.31,1.19.25,2.41.48,3.63.71s2.56.37,3.9.47c6.39.31,15-2.43,18.12,5,1.57,3.91,1.18,8.22,1.16,12.6a26.85,26.85,0,0,1-.49,4.24c-3.85,21.49-42.81,20.2-56.34,9.07-3.12-2.56-6.89-6.85-8.06-10.72-1.51-4.94-2.14-10.28-3.56-15.29-1-3.48-2.18-6.89-3.18-10.36a26.55,26.55,0,0,1-1.18-8.54c.09-3-.18-5.7.67-8.65a16.22,16.22,0,0,1,4.23-7.3,14,14,0,0,1,12.31-3.46c5.59,1.18,7.12,6.15,8.44,11q-1.78-6.6.25.94-2-7.53-.11-.39-1.91-7.09,0,.07c-2.23-8.28-.37-1.37,0-.17C51,35,49.85,30.75,50.46,33Z"/><path class="cls-8" d="M32.25,70.38a44.69,44.69,0,0,0,3.3,5.54,44.51,44.51,0,0,0,5.5,6.82c3.67,3.55,7.24,5.77,12.23,6.56S62.8,92,67.9,92.15c9.76.38,20.4-2.91,26.28-11.15.59-.84,1.27-1.83,1.95-2.93s1.39-2.34,2-3.65l0,.7a24.49,24.49,0,0,1-.44,4.19c-3.85,21.49-42.81,20.2-56.34,9.07-3.12-2.56-6.89-6.85-8.06-10.72-1-3.23-1.6-6.62-2.3-10C31.39,68.6,31.81,69.5,32.25,70.38Z"/><path class="cls-5" d="M39.19,64.75l.1-.06a15,15,0,0,1-4.08,5c-.91.84-2,2.24-3.12,2.68A9.11,9.11,0,0,1,31.48,69C31.45,68.79,38.1,65.46,39.19,64.75Z"/><path class="cls-5" d="M49.66,56.07c1.09-1.25,2.16-2.51,3.23-3.77a22.09,22.09,0,0,1,4-3.72.33.33,0,0,0,.15-.18.32.32,0,0,0-.06-.18l-2.14-4A.43.43,0,0,0,54.5,44c-1,1.41-2.35,2.57-3.3,4.11-1.09,1.76-1.65,4-2.66,5.81a41,41,0,0,1-3.82,5.75,2.78,2.78,0,0,0-.81,1.65,15.4,15.4,0,0,0,4.73-4.05Z"/><path class="cls-5" d="M50,70.41c1.44-1.38,3-2.66,4.49-4A19.66,19.66,0,0,0,57,64c.93-1.15,1.58-2.51,2.55-3.63,1.94-2.22,4.19-3.89,5.88-6.37-.38-.13-5.74-2-5.31-2.88-.9,1.65-1.8,3.29-2.76,4.89a77.16,77.16,0,0,1-5.09,8c-2.14,2.77-3.68,5.78-5.55,8.66a3.1,3.1,0,0,0-.65,1.66,2,2,0,0,0,1-.82A31.46,31.46,0,0,1,50,70.41Z"/><path class="cls-5" d="M61.44,72.23c-.19.81-.37,1.62-.53,2.44-.33,1.77-1.24,5.41-.38,7a.78.78,0,0,0,.56-.59c.76-2.28,1.36-4.59,2.24-6.82.82-2.06,2.13-3.56,3.19-5.48C67.7,66.7,67.71,64.19,68.6,62a13.47,13.47,0,0,1,4-5c-.37-.08-.54-.32-.92-.46l-2.71-1A2.72,2.72,0,0,0,67,55.38c-.31.67-.7,1.35-1,2A52.38,52.38,0,0,0,63.19,65l-1.53,6.34C61.59,71.61,61.52,71.92,61.44,72.23Z"/><path class="cls-5" d="M74.78,58.68a34.77,34.77,0,0,0-1.16,4.2A34.4,34.4,0,0,0,73,67.31a56.45,56.45,0,0,1-1.36,8.86,9.45,9.45,0,0,0-.4,2.83.56.56,0,0,0,.12.36c.24.25.64,0,.84-.29a12.06,12.06,0,0,0,1.5-3.28c.29-.85.59-1.7.9-2.54s.62-1.69.94-2.53c1.12-4.73,5.42-8.25,5-13.34-1.95.4-3.52-1.17-5.35,0C75.08,57.81,74.92,58.25,74.78,58.68Z"/><path class="cls-5" d="M87.79,57.34C85.69,63.25,82.17,68.73,81,75c0-.22.81-.72,1-.89s.65-.64,1-1c.6-.64,1.17-1.31,1.71-2a45.5,45.5,0,0,0,2.93-4.32c1-1.73,2-3.5,3-5.24.52-.89,1-1.77,1.61-2.63.24-.38.66-.71.2-1A3.76,3.76,0,0,0,91,57.34c-.53-.06-1-.28-1.55-.29C89.16,57,87.86,57.13,87.79,57.34Z"/><path class="cls-9" d="M51.14,35.53v0h0Z"/><path class="cls-9" d="M51,35l0-.15,0,.1v0h0Z"/><path class="cls-9" d="M51,34.81h0v0Z"/><path class="cls-9" d="M50.94,34.77l-.06-.23,0,.08v0l0,.08v.1Z"/><path class="cls-9" d="M51,34.89a1.6,1.6,0,0,1,0-.21Z"/><path class="cls-9" d="M50.61,33.55l0,.07h0l0-.07Z"/><path class="cls-9" d="M51.08,35.27h0v0l0,.08h0v0h0v0l0,0,0-.09v.05h0Z"/><path class="cls-9" d="M50.44,32.93h0l0,.15Z"/><polygon class="cls-9" points="50.39 32.74 50.39 32.74 50.39 32.73 50.39 32.74"/><path class="cls-9" d="M50.41,32.81h0v0Z"/><path class="cls-9" d="M51,35.09l0,.1,0-.1Z"/><path class="cls-9" d="M51.28,36l-.11-.42h0l0-.11h0l0,.1h0C51.2,35.75,51.24,35.89,51.28,36Z"/><path class="cls-5" d="M68.13,77.51c0,2.61-.29,5.22-.35,7.84,0,.94,1,10.89.68,11a6.85,6.85,0,0,1-3.33-.22c-.61-.17-.39-3.42-.45-4a12.49,12.49,0,0,1,.41-4.33,80.35,80.35,0,0,0,2-12.4c0-.74.16-1.61.82-1.94A32.05,32.05,0,0,1,68.13,77.51Z"/><path class="cls-5" d="M44.06,70.7c-1.05,2.35-2.88,4.14-4.48,6.2-1.3,1.67-1.57,4.83-3.3,6a6.41,6.41,0,0,1-1-.93c-.66-.69-1.79-2.15-1.72-3.16s3.46-3.22,4.27-4.22c1.6-2,3.67-3.52,5.11-5.61.75-1.08,1.8-3.61,3.3-3.49A32.23,32.23,0,0,1,44.06,70.7Z"/><path class="cls-5" d="M75.82,96.06c-1.14,0-1.15-.17-1.36-1.11-.4-1.88.05-4.35.07-6.28,0-1.09,0-2.17.12-3.26A21.17,21.17,0,0,1,76.24,79c.37-.12.57.43.55.82-.14,2.44-1,4.94-.27,7.28a18.77,18.77,0,0,1,.88,2.48c.09.54.06,1.1.14,1.65a6.93,6.93,0,0,0,1.11,2.59A2.29,2.29,0,0,1,79.09,95C79.07,95.93,76.55,96.05,75.82,96.06Z"/><path class="cls-5" d="M95.53,70.77c-2.8,1.87-6.71,1.48-8.67,4.61,3.91-.78,7.44,2,10.56.78,1.18-.39,1.18-3.52.46-5.49C97.43,69.9,96.36,70.44,95.53,70.77Z"/><path class="cls-5" d="M43.14,85.05A28.92,28.92,0,0,1,47.58,79a45.63,45.63,0,0,0,7.12-8.16h.6c-.65,4.29-4.11,7.07-6.28,10.58A18.9,18.9,0,0,0,47.19,86c-.49,1.6-1.5,3.12-1.78,4.75a4.94,4.94,0,0,1-2.7-1.31l-1-.76C40.74,87.9,42.65,85.86,43.14,85.05Z"/><path class="cls-10" d="M61.19,57.45l-.35-.13a17.79,17.79,0,0,1-4.41-3A38.82,38.82,0,0,1,53,51c-.47-.73-.94-1.46-1.39-2.2A74.23,74.23,0,0,1,48.74,41c-1.88-6-2.06-12.4-4-18.37,0-.33-.07-.66-.11-1a15.27,15.27,0,0,1,3.61,5.11,56.74,56.74,0,0,1,2.18,6.14l0-.07v0l0,.09,0,.13,0-.12c.13.43.25.87.37,1.3C54,45.21,59.29,53.78,71.38,56.29l1.53.31c.93.18,4.27-.2,5.23-.05,10.33-.49,21.24-.34,20.46,13.75-2.44-13.31-15.26-9-24.14-9.54a22.71,22.71,0,0,1-2.63-.55c-2.55-.7-5-1.71-7.59-2.27A27.69,27.69,0,0,1,61.19,57.45Z"/><path class="cls-6" d="M80.86,53.2c.39.4-.26.66-1,.92-1.67.57-1,1.84.49,2,.66,0,4-.74,3.91.44,0,.91-2.69,1.94-3.35,2.1a9.9,9.9,0,0,1-5.3-.47c-.81-.28-1.6-.6-2.39-.9a19.09,19.09,0,0,0-2.35-.79,1.1,1.1,0,0,0-.76,0c-.37.19-.39.72-.25,1.11a4.29,4.29,0,0,1,.43,1.16,2.78,2.78,0,0,1-2.4-.91L60.5,51.74c-.48-.39-1.21-.78-1.64-.34a1,1,0,0,1-.47,1.26,13.31,13.31,0,0,1-5.2-5.82c-.91-2.11-1.44-4.38-2.45-6.45a1,1,0,0,0-.32,1c-.54.25-1.06-.37-1.32-.89a37,37,0,0,1-3-8.15,5.56,5.56,0,0,1,0-3.18c1.26-3.36,7.44-.32,9.22,1.11A31.91,31.91,0,0,1,58.91,34a47.61,47.61,0,0,0,3.73,3c-1,1.22-3.56.4-4,1.79-.21.69.4,1.35,1,1.78,2.16,1.56,4.62,2.15,7.1,2.85-.23,1.11-3.33,2.49-2.33,3.78.61.79,2.68.41,3.54.41a17,17,0,0,0,2.47-.14,10.93,10.93,0,0,1,2.68,0,.6.6,0,0,1,.23.06c.16.12.08.37,0,.54-.49.81-3.09,1.74-2.43,2.83s2.85,1,3.92,1.09c1.76.17,3.89.1,5.51.89A2.39,2.39,0,0,1,80.86,53.2Z"/><path class="cls-11" d="M103.08,114.84c.25,0,.51-.12.76-.19a7.74,7.74,0,0,0,4.45-3.91c1.11-2.41-.11-5.3-.89-7.19-1.6-3.87-3.23-8.12-5.13-12.31-1-2.18-2.14-4.27-3.16-6.44-1.5-3.18-5.22-6.55-8.89-6.73-3.52-.18-6.54,4.76-6.13,7.89.54,4.12,3.7,8.27,5.67,11.82a56.56,56.56,0,0,1,5.62,14c.35,1.39,1,3.56,2.71,3.88a6.55,6.55,0,0,0,2.41-.32C101.31,115.13,102.19,115,103.08,114.84Z"/><path class="cls-8" d="M98.54,107.11a10.14,10.14,0,0,0,7.51-2.76,4.55,4.55,0,0,0,1-1.4c.08.18.17.36.25.55.85,1.94,2.07,4.83,1,7.24a7.74,7.74,0,0,1-4.45,3.91c-.25.07-.51.14-.76.19-.89.19-1.77.29-2.58.46a6.55,6.55,0,0,1-2.41.32c-1.74-.32-2.36-2.49-2.73-3.94a61.42,61.42,0,0,0-2.22-7.21A8.37,8.37,0,0,0,98.54,107.11Z"/><path class="cls-5" d="M89,90.13a11.06,11.06,0,0,1-2,2.08.36.36,0,0,1-.27.11c-.1,0-.16-.1-.22-.17a10.63,10.63,0,0,1-.88-1.4c-1-2,3.77-4.59,5-5.17.33-.15,4.76-2.27,4.81-2.19.22.34-.06.78-.34,1.08a45.56,45.56,0,0,1-4,3A15.66,15.66,0,0,0,89,90.13Z"/><path class="cls-5" d="M99.87,91.75a20.2,20.2,0,0,0,2-1.41,20,20,0,0,1-1.62-2.65c-1,.77-1.94,1.75-3,2.46S95,91.19,94,91.88s-2.49.7-3.47,1.53a1,1,0,0,0-.37.53.53.53,0,0,0,.22.57.59.59,0,0,0,.32,0,6.93,6.93,0,0,0,2.34-.87,16,16,0,0,1,3.47-.53,6.49,6.49,0,0,0,3.06-1.23Z"/><path class="cls-5" d="M91.36,100.8a7.07,7.07,0,0,1,1.74-1,18.06,18.06,0,0,1,2.56-1.37c.62-.15,1.24,0,1.87-.17a10,10,0,0,0,2.76-1.37,12.3,12.3,0,0,1,1.84-1c.09,1.23-1,1.73-1.72,2.5a7.09,7.09,0,0,1-2.79,2.09,7.83,7.83,0,0,0-3.43,1.93,4.54,4.54,0,0,1-.63.61,1,1,0,0,1-.83.19C92,103,92.07,101.27,91.36,100.8Z"/><path class="cls-5" d="M102.44,105.13a17.39,17.39,0,0,0,3.6-1c1-.32,1.34-.33,1.1-1.15-.14-.5-.49-1.93-1.19-2s-1.47.62-2,.85A72.94,72.94,0,0,1,97.22,105a4,4,0,0,0-2.16,1.4,3.45,3.45,0,0,0,2.09-.31,11.65,11.65,0,0,1,2.24-.78,16,16,0,0,1,2.31-.1Z"/><path class="cls-6" d="M95.39,113.22A15.63,15.63,0,0,0,96,116a6.71,6.71,0,0,0,2,3.61c1.91,1.46,5.41.9,7.43-.18a10,10,0,0,0,4.52-5.31c.84-2.32-.09-5.06-.91-7.08-.29-.72-.88-.6-1.38-.27-1.86,1.24-2.74,2.71-5.35,3.56-2.15.69-4.16,1.61-6,1.63a1.07,1.07,0,0,0-.68.17C95.42,112.32,95.37,112.72,95.39,113.22Z"/><path class="cls-11" d="M14.94.38c-7.38-2.45-3.77,7.5-2.38,11.49A52.84,52.84,0,0,0,19,24.47a8.51,8.51,0,0,0,3.59,3.35c3.84,1.49,12-.52,12.85-5.17.66-3.47-2.46-8.38-4.44-11-3.85-5-9.38-8.61-15.2-11C15.47.57,15.2.47,14.94.38Z"/><path class="cls-8" d="M16.25,14.5l.49.55a24.83,24.83,0,0,0,2.57,3.75c2.77,3.24,6.85,5.56,11.25,4.48a9.92,9.92,0,0,0,4.83-2.77,6.41,6.41,0,0,1,0,2.14c-.89,4.65-9,6.66-12.85,5.17A8.51,8.51,0,0,1,19,24.47a52.84,52.84,0,0,1-6.4-12.6,45.79,45.79,0,0,1-1.85-6.29A34,34,0,0,0,16.25,14.5Z"/><path class="cls-12" d="M32,23.51a27.22,27.22,0,0,0-3.41-10C25.49,7.82,17.58,1.26,10.55,2,10.89.33,12.1-.56,14.94.38c.26.09.53.19.82.31,5.82,2.38,11.35,5.95,15.2,11,2,2.59,5.1,7.5,4.44,11a6.28,6.28,0,0,1-3.47,4.09A11.14,11.14,0,0,0,32,23.51Z"/><path class="cls-5" d="M26.18,21.66a4.24,4.24,0,0,1-.38,1.28c-1.38,2.88-4.36,2.55-5.94,0A60.7,60.7,0,0,1,14.49,10.9c-.8-2.24-1-3.55,1.57-2.33,3.16,1.5,7.08,5.68,8.88,8.67A7,7,0,0,1,26.18,21.66Z"/><path class="cls-7" d="M37.16,22.22a10.5,10.5,0,0,0-3.77-.92,12.74,12.74,0,0,0-5,.92,26.41,26.41,0,0,0-4,2.41,45.52,45.52,0,0,0-8.69,7.43,43.77,43.77,0,0,0-5.77,6.77c-.16.25-.31.5-.46.75a16.86,16.86,0,0,0-2,5.08c-.27,1.4-.68,2.8-.89,4.21A13,13,0,0,0,7.8,56.34a17.53,17.53,0,0,0,11.8,9.24c4.38,1,8.86-1.46,12.59-3.5a19.55,19.55,0,0,0,4.61-3.29A17.66,17.66,0,0,0,39,56c4.5-6.83,5.85-14.29,6.74-22.26C46.34,28.39,41.94,24.28,37.16,22.22Z"/><path class="cls-8" d="M14.94,35.5c-.6,1-1.12,2-1.77,3-1,1.59-1.92,3.27-2.8,5A61.45,61.45,0,0,0,6.5,51.64a18.24,18.24,0,0,0,.06-2.58c.13-.85.32-1.73.47-2.6a19.92,19.92,0,0,1,1.79-6A21.65,21.65,0,0,1,11.17,37a60.25,60.25,0,0,1,9-9.26c.25-.2,1.58-1.5,1.67-.72,0,.42-1.44,1.74-1.73,2.08L16.29,33.6A15,15,0,0,0,14.94,35.5Z"/><path class="cls-8" d="M33.09,57.75l-.33.21a39.69,39.69,0,0,1-3.95,2,32.77,32.77,0,0,1-8.12,2.39A17.93,17.93,0,0,1,17.8,63c-.39,0-4.58-.63-4.46-.83-.22.37.18.79.54,1,6,3.8,12.41,2.66,18.45-.45a15.54,15.54,0,0,0,2.6-1.63,17.66,17.66,0,0,0,3.79-4.42,40,40,0,0,0,3.45-6.45,1.71,1.71,0,0,0-1.17.64A50.18,50.18,0,0,1,33.09,57.75Z"/><path class="cls-5" d="M11.22,39.6c-2,.78-.78-.63-.17-1.58a3.6,3.6,0,0,1,1-1.14c1.07-.68,3.16.58,4,1.15a13.42,13.42,0,0,0,3.35,1.66.86.86,0,0,1-.69.43,2.2,2.2,0,0,1-.84-.1,22.32,22.32,0,0,0-4.29-.7,7,7,0,0,0-2.15.2Z"/><path class="cls-5" d="M16.4,32.71c1,.76,1.67,1.71,2.64,2.57a.23.23,0,0,1-.18.27.64.64,0,0,1-.36,0,18,18,0,0,0-2.74-.68,12.15,12.15,0,0,1-2.09-.32c.56-.82,1.16-1.63,1.8-2.4A7.77,7.77,0,0,1,16.4,32.71Z"/><path class="cls-5" d="M38.47,55.34a3.78,3.78,0,0,0-.33-.22C36.79,54.28,36,52.78,35,51.57c-.56-.65-2.9-3.47-2.34-1a44.42,44.42,0,0,1,1.26,4.77,22.66,22.66,0,0,1,0,5.27c0,.18,0,.4.14.48a.43.43,0,0,0,.35,0c1.8-.69,2.84-2.93,4-4.33a1.16,1.16,0,0,0,.38-1A.88.88,0,0,0,38.47,55.34Z"/><path class="cls-5" d="M41.42,49.75l-.17-.1c-1.31-.79-2.32-1.82-3.7-2.51s-.34.78,0,1.22a10.7,10.7,0,0,1,2.35,4.56,1,1,0,0,0,.17.45.37.37,0,0,0,.42.15.59.59,0,0,0,.25-.32c.25-.6,1.4-2.26,1.18-2.9A1.11,1.11,0,0,0,41.42,49.75Z"/><path class="cls-13" d="M26.12,42.2c6.64,3.68,12.84,14.66,8.76,22a13.3,13.3,0,0,1-3.94,4.24c-5.54,4-13.55,5-19.49,1.55a24.84,24.84,0,0,1-9-9.93C.5,56.45-.77,52.13.53,48.23,4,37.91,18.18,37.81,26.12,42.2Z"/><path class="cls-14" d="M21.68,41.71c5.47,2,11.43,9,9.13,14.24A8.44,8.44,0,0,1,28.27,59a15.45,15.45,0,0,1-14.72,2.29,20,20,0,0,1-8-6.1c-1.88-2.32-3.32-5.13-2.77-7.84C4.27,40.24,15.12,39.26,21.68,41.71Z"/><path class="cls-8" d="M13.51,66.58C6.71,64.16.56,56.53.29,49.1c-.86,3.66.35,7.61,2.14,11a24.84,24.84,0,0,0,9,9.93c4.67,2.74,10.58,2.64,15.5.64a25.36,25.36,0,0,0,6.5-3.75c1.43-1.23,2.15-3.57,2.37-5.83C30,66.58,21,69.25,13.51,66.58Z"/><path class="cls-6" d="M9.24,46.77c-1.91-.94-2.4,1.36-1.3,2.58.46.51,2.62,1.93,3.24,1.34.93-.89-.84-3.18-1.49-3.65A2.07,2.07,0,0,0,9.24,46.77Z"/><path class="cls-6" d="M25.81,56c-1.3.16-3.19.16-2.45-1.56.52-1.2,3.05-2,4.24-1.81a1.47,1.47,0,0,1,1,2.36c-.49.72-1.3.76-2.12.9C26.32,55.88,26.08,55.92,25.81,56Z"/><path class="cls-5" d="M17.24,65.26c.17-.32,1.1.06,1.38.12A11.89,11.89,0,0,0,20,65.6a12.54,12.54,0,0,0,1.51.06c.26,0,.52,0,.77,0s.52,0,.77-.07a14.21,14.21,0,0,0,1.5-.28A8.69,8.69,0,0,0,26,64.81a6.65,6.65,0,0,0,1.18-.65c.18-.12.35-.25.51-.37l.44-.4a6.61,6.61,0,0,0,.67-.8l.25-.36.19-.33a1.46,1.46,0,0,0,.14-.28l.11-.2.08-.18,0,0a.2.2,0,0,1,.28-.09.21.21,0,0,1,.11.24l-.06.19a5.38,5.38,0,0,1-.16.56l-.15.39-.21.44A7.66,7.66,0,0,1,22.6,67a10.42,10.42,0,0,1-3.79-.64c-.32-.11-1.37-.33-1.52-.68A.51.51,0,0,1,17.24,65.26Z"/><path class="cls-6" d="M22.86,10.68v0a10.84,10.84,0,0,0,2.18,1.69l2.18,1.74a19.4,19.4,0,0,1,1.71,1.41,1.81,1.81,0,0,1,.58.85c.06.75-1.09.71-1.6.95-1,.51-2.1.9-3.13,1.4a9.27,9.27,0,0,0-2.28,1.44,1.1,1.1,0,0,0-.27,1.31c.31.51,1,.52,1.64.48a28.45,28.45,0,0,1,5.22.15c1,.12,2.73.21,3.42,1-1.1.77-2.3,1.4-3.39,2.2-1.31,1,1.26,1,1.82,1.07,1.62.1,3.22-.19,4.84-.25a7.72,7.72,0,0,1,2.49.18c.65.2,1.21.56,1.89.71a3.35,3.35,0,0,0,3.34-.63c2.1-2.3-.81-8.09-2.08-10.24a10.31,10.31,0,0,0-3.78-3.89.63.63,0,0,0-.37-.1c-.31.06-.32.49-.25.79.18.81.36,1.62.53,2.43-2-1.14-3.85-2.48-6-3.57a18.46,18.46,0,0,0-4.68-1.64c-.66-.14-3.68-.92-4.1-.31A.77.77,0,0,0,22.86,10.68Z"/><path class="cls-11" d="M44.92,37.33a8.69,8.69,0,0,1-.81-2.26c-.69-2.71-1.7-4.8-.73-7.6,2.55-7.33,10.5-8.88,17.21-9,2.49,0,12.38-.57,13.08,2.65.65,3-3.61,6.5-5.57,8.22a19.23,19.23,0,0,1-3.62,2.89q-1.89,1.38-3.89,2.61c-1.35.84-2.74,1.63-4.14,2.42a14.63,14.63,0,0,1-4.18,1.41,15.51,15.51,0,0,1-3.38.5,4.52,4.52,0,0,1-3.67-1.47A3.91,3.91,0,0,1,44.92,37.33Z"/><path class="cls-8" d="M54.48,36.38a27.55,27.55,0,0,0,4.31-2.86c2-1.3,3.91-2.65,5.92-3.9A21.37,21.37,0,0,0,70,26.9a13.17,13.17,0,0,0,1.89-1.72l.81-.59a26.29,26.29,0,0,1-4.63,4.79,63.73,63.73,0,0,1-11.65,7.91,18.37,18.37,0,0,1-5.59,1.84,10.09,10.09,0,0,1-2.9.13C50.07,38.21,52.37,37.49,54.48,36.38Z"/><path class="cls-12" d="M48.14,25.09a30.43,30.43,0,0,0-4.26,1.17c3-6.29,10.38-7.67,16.71-7.75,2.49,0,12.38-.57,13.08,2.65a3.68,3.68,0,0,1-.23,2.08,8.54,8.54,0,0,0-4.7-2.39,32.66,32.66,0,0,0-9.87,0A23.68,23.68,0,0,0,48.14,25.09Z"/><path class="cls-5" d="M47,35.73a3,3,0,0,1-.39-5.07,22.33,22.33,0,0,1,8.07-4.41,26.08,26.08,0,0,1,11.05-.73c.84.11,1.86.49,1.93,1.34s-.61,1.24-1.21,1.63-1.34.88-2,1.31C60.09,32.63,57,35.67,51.5,36.45a7.59,7.59,0,0,1-2.56,0A5.35,5.35,0,0,1,47,35.73Z"/><path class="cls-15" d="M27.13,36.25C24.89,39.84,20.79,41,18,38.93s-3.27-6.75-1-10.34,6.34-4.8,9.14-2.68S29.37,32.65,27.13,36.25Z"/><path class="cls-15" d="M40.61,41.1c-2.2,4.15-6.66,6-9.95,4.15s-4.18-6.7-2-10.85,6.66-6,10-4.15S42.81,37,40.61,41.1Z"/><path class="cls-16" d="M26.74,35.21c-2.24,3.6-6.34,4.8-9.15,2.68s-3.26-6.74-1-10.34,6.34-4.79,9.15-2.67S29,31.62,26.74,35.21Z"/><path class="cls-11" d="M27.35,33.53c-2.62,2.87-6.71,4.45-9.72,1a8.19,8.19,0,0,1-2.07-4.77c-1,3.1-.22,6.41,2,8.11,2.81,2.12,6.91.92,9.15-2.68a9.41,9.41,0,0,0,1-2.11Z"/><path class="cls-17" d="M24.74,33a2.52,2.52,0,0,1-3.75.19,3,3,0,0,1-.21-4.05,2.54,2.54,0,0,1,2.4-.9c.25.05-.36,2.07-.13,2.19s1.29-1.67,1.48-1.48A3,3,0,0,1,24.74,33Z"/><path class="cls-16" d="M40.22,40.07c-2.2,4.14-6.65,6-9.95,4.15s-4.18-6.71-2-10.85,6.65-6,10-4.15S42.43,35.93,40.22,40.07Z"/><path class="cls-11" d="M41.42,35.83c-.39.59-.8,1.15-1.21,1.69-1.77,2.29-4.84,5.14-8.09,4s-4.36-4.14-4.23-7.27c-1.66,3.94-.69,8.28,2.38,10,3.3,1.85,7.75,0,10-4.15A10.07,10.07,0,0,0,41.42,35.83Z"/><path class="cls-17" d="M36.76,37.64a3.1,3.1,0,0,1-4.27-4.5,3,3,0,0,1,2.44-.77c.3,0-.11,2.22.17,2.35s1.4-1.69,1.69-1.38A3,3,0,0,1,36.76,37.64Z"/><path class="cls-11" d="M56.23,81.35a6.38,6.38,0,0,0-2.92-1.6,4.93,4.93,0,0,0-5,2.26,16.25,16.25,0,0,0-2.05,5.46c-1.27,5.06-1.69,10.25-3.39,15.19a35,35,0,0,1-2.12,5.23c-.66,1.25-2.17,3.29-.11,3.92a57.07,57.07,0,0,0,10.52,2.26,3.19,3.19,0,0,0,2.21-.22,2.61,2.61,0,0,0,.73-1.46,55.38,55.38,0,0,1,2.36-7.82,45.08,45.08,0,0,0,2.69-7.95,21.55,21.55,0,0,0,.33-9.4A12.23,12.23,0,0,0,56.23,81.35Z"/><path class="cls-8" d="M40.79,107.89a41.39,41.39,0,0,0,2.11-5.23l0-.08a2.89,2.89,0,0,0,0,.29c.6,3.67,6.41,6.39,9.79,5a9.3,9.3,0,0,0,4.09-4.12c-.12.29-.23.58-.35.86a55.38,55.38,0,0,0-2.36,7.82,2.61,2.61,0,0,1-.73,1.46,3.19,3.19,0,0,1-2.21.22,57.07,57.07,0,0,1-10.52-2.26C38.62,111.18,40.13,109.14,40.79,107.89Z"/><path class="cls-5" d="M45.73,93.35A91.26,91.26,0,0,0,56.14,96a3.31,3.31,0,0,1,2,.89c-1.47.78-3.33.48-5.06.16-1.47-.27-3.06-.8-4.49-.46s-2.5.88-4,.66a5.8,5.8,0,0,1,0-2.78c.07-.32.38-.73.38-1a.33.33,0,0,1,.13-.17.43.43,0,0,1,.25,0Z"/><path class="cls-5" d="M41.57,106.32l0-.08c-.13-.47.54-1.29.71-1.76a.24.24,0,0,1,.11-.15c.56-.31,2.48.74,3.14.93,2,.59,4,1.45,6,1.87a3.75,3.75,0,0,1,1,.31,1.29,1.29,0,0,1,.68.78c-.5,0-1,0-1.53,0-2.11-.12-4-.84-6.15-1.17C44.53,106.87,42.05,107.25,41.57,106.32Z"/><path class="cls-5" d="M53.18,104.32c-2.15-1-4.14-2.54-6.34-3.56-.56-.26-1.2-.59-1.38-1.19a20.6,20.6,0,0,1,6.07,1.26c.45.19.9.42,1.37.57a11.69,11.69,0,0,0,2.73.71c.57,0,2.25-.3,1.59.73a19.18,19.18,0,0,0-1.09,2.23c-.05.09-.1.19-.2.22a.33.33,0,0,1-.22,0A13.58,13.58,0,0,1,53.18,104.32Z"/><path class="cls-5" d="M59,92.3c.29.09.78.4,1,.1a1.06,1.06,0,0,0,.11-.51c0-.45,0-.91,0-1.37a3.42,3.42,0,0,0-.35-1.47c-.22-.19-.54,0-.79,0a17.9,17.9,0,0,1-5.4-.26c-2.28-.5-4.25-2.12-6.63-1.86-.12,0-.15.18-.1.3a.68.68,0,0,0,.28.25l3,1.9a8.17,8.17,0,0,0,2.55,1.25,15.88,15.88,0,0,0,2.28.15c1.24.09,2.27.91,3.45,1.33C58.61,92.16,58.83,92.24,59,92.3Z"/><path class="cls-6" d="M39.35,109.8a1.37,1.37,0,0,1,.42-.34c.55-.28,1.09.3,1.58.5a46.29,46.29,0,0,0,11.71,3,1,1,0,0,1,.76.37.86.86,0,0,1,.1.44,8.64,8.64,0,0,1-4.9,8.36c-3.31,1.52-12-.18-12.82-4.65a4.72,4.72,0,0,1,.37-2.52,25.9,25.9,0,0,1,2.48-4.7A3.19,3.19,0,0,1,39.35,109.8Z"/><path class="cls-6" d="M101.88,81.08c-.5-1.26-1-2.5-1.6-3.76a45.1,45.1,0,0,1-2.1-6.19c-1.05-3.71-2-7.5-3.78-11-.22-.41-.44-.9-.18-1.3.69-1.05,3-.06,3.79.31a10.4,10.4,0,0,1,2,1.28,17.74,17.74,0,0,1,3.21,3.5c1.91,2.6,3.52,5.29,5.86,7.6.73.73,1.46,1.44,2.19,2.16,1.84,1.81,3.67,3.62,5.57,5.38,1,.91,2,1.8,3,2.68,1.26,1.1,1.6,2.16-.67,1.71-1.37-.26-2.55-.93-2.15.71.32,1.31,1.66,2.52,2.46,3.59a19.23,19.23,0,0,0,2,2.46c.64.62,1.9,1.43,0,1.77a4.93,4.93,0,0,1-2.93-.9l4.33,7.4c.36.61.7,1.42.21,2s-1.63.34-2.4,0c-3.17-1.56-5.15-3.81-7.45-6.27-.15-.15-.33-.32-.54-.3s-.41.48-.37.8a8.26,8.26,0,0,1,0,2.58c-.43.06-.75-.32-1-.66a51.27,51.27,0,0,1-4.38-8.65c-.33,0-.41.42-.39.72a11.91,11.91,0,0,1-.05,2c0,.18-.07.39-.26.46s-.5-.23-.59-.49A57.72,57.72,0,0,0,101.88,81.08Z"/></g></g></g></g></svg>