<svg xmlns="http://www.w3.org/2000/svg" viewBox="0 0 107.88 109.43"><defs><style>.cls-1{fill:#56801e;}.cls-2{fill:#a3d35e;}.cls-3{fill:#c0eb76;}.cls-4{fill:#8abd48;}.cls-5{fill:#dde19b;}.cls-6{fill:#cacf7e;}.cls-7{fill:#6ba327;}.cls-8{fill:#e1e69e;}.cls-9{fill:#ecefb6;}.cls-10{fill:#fff;}.cls-11{fill:#e6e4cf;}.cls-12{fill:#253320;}.cls-13{fill:#ecf0c3;}.cls-14{fill:#d1db95;}.cls-15{fill:#67942b;}</style></defs><g id="Слой_2" data-name="Слой 2"><g id="animal"><g id="crocodile"><path class="cls-1" d="M90.16,71a2.44,2.44,0,0,0,1,.56.75.75,0,0,0,.9-.35,1.24,1.24,0,0,0,0-.78A28.18,28.18,0,0,0,91,67.62a4.41,4.41,0,0,0,2.53.77c1-.14,0-1.61-.29-2-.66-.93-1.43-2.14-2.6-2.46-.09.94,0,1.27-.78,1.79S88,67,87.12,67.58a4.72,4.72,0,0,0-1.16,1c-1,1.25.22,2.94,1.27,3.91a1,1,0,0,0,.9.37.78.78,0,0,0,.4-.34c.54-.88,0-2.06.07-3.1A13.6,13.6,0,0,0,90.16,71Z"/><path class="cls-2" d="M72.59,59.28a4.11,4.11,0,0,1-1-3.6A3.81,3.81,0,0,1,74,52.91c1.85-.64,3.91.24,5.63,1.16a39.11,39.11,0,0,1,8.17,5.57c2.16,2,5.06,5.12,3.35,8.11a4.58,4.58,0,0,1-2.86,2.19c-1,.25-2.75.15-3.54-.76s-.69-2.35-1.52-3.26A5,5,0,0,0,81.9,65l-7-4.06A9.81,9.81,0,0,1,72.59,59.28Z"/><path class="cls-3" d="M79.59,54.07c-1.72-.92-3.78-1.8-5.63-1.16a3.81,3.81,0,0,0-2.42,2.77,4,4,0,0,0,.06,1.82l.3-.29a3.46,3.46,0,0,1,.31-.47A5.92,5.92,0,0,1,74.49,55,4.29,4.29,0,0,1,77,54.44a5.47,5.47,0,0,1,2,.61l.17.06A15.83,15.83,0,0,1,84,56.82c.24.12.47.26.71.4A50.14,50.14,0,0,0,79.59,54.07Z"/><path class="cls-4" d="M86.47,64.71A10.34,10.34,0,0,1,80,62a9.52,9.52,0,0,1-1.74-.62l-.38-.18h0l-1.29-.51c-1.24-.49-2.49-1-3.66-1.57-.24-.12-.48-.24-.71-.37a5.57,5.57,0,0,0,.43.56,9.81,9.81,0,0,0,2.29,1.64c1,.57,2,1,3,1.56a18.71,18.71,0,0,1,3.18,2.61l.47.41c.92.8,1.94,1.56,2.8,2.46a11,11,0,0,0,1.47,1.73c1.89,1.29,4.42-.44,5.28-1.94a4.34,4.34,0,0,0-.26-4.5A6.82,6.82,0,0,1,86.47,64.71Z"/><path class="cls-2" d="M94.37,83.34l-.06-.09c-2.28-3.12-6.08-5.87-8.87-8.6a13.19,13.19,0,0,0-4.87-3.48c-3.41-1.11-7.31.81-9.22,3.77s-2.15,6.68-1.64,10.13a16,16,0,0,0,1.13,4.08c.6,1.37,2.53,2.42,3.79,3.23a12.82,12.82,0,0,0,6,2,61.58,61.58,0,0,1,7.64,1.07c1.63.32,2.92.28,4-1.09C94.36,91.5,96.65,86.58,94.37,83.34Z"/><path class="cls-4" d="M88.42,91.45l-.2-.24c-3,.54-6.14,0-8.16-2.62-1.72-2.22-2.83-5.17-1.76-8a30,30,0,0,1,1.2-2.79l0,0c0-.08,0-.18.06-.3a6.51,6.51,0,0,1,3.19-4.1,4.81,4.81,0,0,1,.52-.67,9,9,0,0,0-2.72-1.53c-3.41-1.11-7.31.81-9.22,3.77s-2.15,6.68-1.64,10.13a16,16,0,0,0,1.13,4.08c.6,1.37,2.53,2.42,3.79,3.23a12.82,12.82,0,0,0,6,2,61.58,61.58,0,0,1,7.64,1.07c1.63.32,2.92.28,4-1.09.13-.16.26-.34.39-.52A6.77,6.77,0,0,1,88.42,91.45Z"/><path class="cls-2" d="M88.71,91.9a6.17,6.17,0,0,0,1,2.72,5.58,5.58,0,0,0,7.64,1.5,20.21,20.21,0,0,0,6.1-4.93c2.18-2.7,5-7.27,1.85-10.28a12.13,12.13,0,0,0-11.17-3.06c-3.15.78-4.32,4.91-4.92,7.65A19.76,19.76,0,0,0,88.71,91.9Z"/><path class="cls-4" d="M99.72,92.81a7.21,7.21,0,0,1-2.74.48c-2.86,1-5.9.93-8.29-1.55,0,.05,0,.11,0,.16a6.17,6.17,0,0,0,1,2.72,5.58,5.58,0,0,0,7.64,1.5,20.21,20.21,0,0,0,6.1-4.93A22.57,22.57,0,0,0,105,89,13.07,13.07,0,0,1,99.72,92.81Z"/><path class="cls-5" d="M102,88.1c.76-1.88-.36-3.52-2.85-4.72a10.06,10.06,0,0,0-2.85-1,3.42,3.42,0,0,0-2.84.76c-1.6,1.55-2.6,10,.74,10.63,2.42.42,4.87-2.18,6.42-3.69A5.89,5.89,0,0,0,102,88.1Z"/><path class="cls-6" d="M92,88.83c0,2.37.57,4.6,2.23,4.9,2.42.42,4.87-2.18,6.42-3.69A5.89,5.89,0,0,0,102,88.1a3,3,0,0,0,.23-1.23A8.43,8.43,0,0,1,92,88.83Z"/><path class="cls-1" d="M97.24,76.86c.09,1.08-.13,1.92-1.12,1.9s-2.06.22-2.86-.45c-1.31-1.12.25-2.87.82-3.77.35-.57,1.11-2,1.89-2C97.24,72.71,97.14,75.88,97.24,76.86Z"/><path class="cls-1" d="M100,79.18a7.92,7.92,0,0,1-.94-.42,1.24,1.24,0,0,1-.44-.34c-.83-1.2,2.19-3.58,3-4.08.4-.26.94-.48,1.32-.19a1.23,1.23,0,0,1,.35.92c0,.55.06,1.11,0,1.67,0,.92-.19,3.11-1.58,2.89A8.28,8.28,0,0,1,100,79.18Z"/><path class="cls-1" d="M103.74,79.77c.53-1.06,1.69-1.49,2.68-2a1.3,1.3,0,0,1,.8-.22c1.25.19.67,5.56-1.22,4.94a2.71,2.71,0,0,1-.94-.64c-.5-.46-1.61-1-1.41-1.82A1.34,1.34,0,0,1,103.74,79.77Z"/><path class="cls-7" d="M34.82,52.5A2.79,2.79,0,0,1,36,51.19a17.69,17.69,0,0,1,5.95-2.31,1.32,1.32,0,0,0,1-.61c.22-.55-.36-1.08-.85-1.41a11.7,11.7,0,0,1-4.42-4.63c-1.19-2.68,6-1.59,4.38-5.68-.59-1.46-2.67-2.33-2.93-3.86s1.32-2.63,2.63-3.07a20,20,0,0,1,5-1.15,102.82,102.82,0,0,1-6.8,37.2c-2.22,5.79-5.38,11.81-11,14.4a9,9,0,0,1-4.49.92c-3.1-.27-5.62-2.64-7.37-5.22S14,70.28,11.93,68a29.22,29.22,0,0,0-3.81-3.39l-6.19-4.9a1.58,1.58,0,0,1-.77-1.1,1.49,1.49,0,0,1,.38-.88c.8-1.08,2.31-3.58,3.74-3.83C8,53.39,7,59,7.87,60.27c.35.51,4-2.49,4.39-2.8a1.69,1.69,0,0,1,.8-.45,1.19,1.19,0,0,1,1.13.73c1.14,2.25.19,4.86-.1,7.15a16.21,16.21,0,0,1,6-.57,1,1,0,0,1,.68.25c.26.31.06.78-.13,1.14A27.34,27.34,0,0,0,18,72.56c-.28,1.12,4-2.4,4.48-2.8a1.33,1.33,0,0,1,.87-.42c.54,0,.84.63,1,1.14.5,1.45.58,5.16,2.09,5.93,2.53,1.3,1.27-5.39,1.21-6.62-.16-3.05,7.69-1,7.83.18a7.1,7.1,0,0,0-1.72-3.06A10.12,10.12,0,0,1,32,63.1a1.94,1.94,0,0,1,.2-1.7,2,2,0,0,1,.89-.5,19.68,19.68,0,0,1,4.49-1,4.2,4.2,0,0,0,1.53-.33,1.25,1.25,0,0,0,.71-1.28,16.68,16.68,0,0,1-3.81-3C35,54.26,34.53,53.35,34.82,52.5Z"/><path class="cls-1" d="M41.68,29.62c-1.31.44-2.89,1.51-2.63,3.07s2.34,2.4,2.93,3.86a2,2,0,0,1-.23,2.32,4.32,4.32,0,0,1,.4.53l.31.75a4.56,4.56,0,0,1,0,2.11,3.21,3.21,0,0,1-2.2,2.22,3.37,3.37,0,0,1-1,.1A16.63,16.63,0,0,0,42,46.86c.49.33,1.07.86.85,1.41a1.32,1.32,0,0,1-1,.61c-1,.29-2,.53-3,.85a2.63,2.63,0,0,1,.61.72A3,3,0,0,1,40,52a3.21,3.21,0,0,1-.1,1.27A3.41,3.41,0,0,1,39,54.79a3.8,3.8,0,0,1-1.5.85,3.12,3.12,0,0,1-.85.27,16,16,0,0,0,3.21,2.4,1.25,1.25,0,0,1-.71,1.28,4.2,4.2,0,0,1-1.53.33c-.42,0-.83.1-1.24.17a3,3,0,0,1,.61.78,3.15,3.15,0,0,1,.45,1.61A3.05,3.05,0,0,1,37,64a.54.54,0,0,1,0,.11l-.14.25a3,3,0,0,1-2.66,1.53h-.74l-.31,0a8.26,8.26,0,0,0,.65,1A7.1,7.1,0,0,1,35.45,70c-.06-.51-1.65-1.2-3.38-1.55a4.23,4.23,0,0,1,.36,1.78,3.18,3.18,0,0,1-.9,2.18,3,3,0,0,1-2.18.9A5.56,5.56,0,0,1,28,73c.13,2.06,0,4.16-1.54,3.38a3.08,3.08,0,0,1-1.23-1.94c-.15.12-.32.25-.53.39a3.05,3.05,0,0,1-3.71-.48l-.48-.62A3.24,3.24,0,0,1,20,72h0a2,2,0,0,1,0-.24c-1.1.79-2.11,1.4-2,.84a26.71,26.71,0,0,1,1.59-4.69,3.31,3.31,0,0,1-1.29-.06,3.23,3.23,0,0,1-1-.39,5.08,5.08,0,0,1-.66-.53,3.25,3.25,0,0,1-.81-1.37,3.08,3.08,0,0,1-.12-1c-.54.1-1.08.23-1.61.38.13-1.05.4-2.17.55-3.29a3.56,3.56,0,0,1-.73.09,3.21,3.21,0,0,1-2.08-.81,4.32,4.32,0,0,1-.91-1,2.33,2.33,0,0,1-.37-1.07c-1.15.86-2.48,1.74-2.68,1.45-.44-.65-.42-2.32-.61-3.8l-.09.06a3.51,3.51,0,0,1-2.71.27,3.21,3.21,0,0,1-1.55-1c-.54.7-1,1.43-1.37,1.9a1.49,1.49,0,0,0-.38.88,1.58,1.58,0,0,0,.77,1.1l6.19,4.9A29.22,29.22,0,0,1,11.93,68C14,70.28,15.26,73.2,17,75.77s4.27,5,7.37,5.22a9,9,0,0,0,4.49-.92c5.64-2.59,8.8-8.61,11-14.4a102.82,102.82,0,0,0,6.8-37.2A20,20,0,0,0,41.68,29.62Z"/><path class="cls-2" d="M40.77,55.09A67.79,67.79,0,0,1,35.48,68c-2,3.76-4.25,7.15-8.17,8.42a10.58,10.58,0,0,1-2.56.48c-6.61-.23-7-8.32-10.79-12.3a22.8,22.8,0,0,0-2.59-2.41,25,25,0,0,0-6-3.52,6.32,6.32,0,0,0-3-.6A2.57,2.57,0,0,0,0,59.87c-.27,1.33.84,2.48,1.72,3.51a12.6,12.6,0,0,1,3.15,6.27c1.28,5,2,10.47,3.75,15.36a25,25,0,0,0,1.52,3.5c4.65,8,14.57,10.17,23.47,10.56,1,0,2.07,0,3.1,0,3.68,0,7.41.31,11.15.58l3.74.26C64.82,102,83.93,98.68,85.1,82.33a32.37,32.37,0,0,0,.21-4.2,51.88,51.88,0,0,0-3.17-16.29c-2.78-7.65-8-13.05-11.71-20.09-4.4-8.25-11-13.24-20.79-14.52L49,27.15c-3.18-.24-4.19,2.84-4.78,5.53a53.16,53.16,0,0,0-.73,7.57A68.7,68.7,0,0,1,40.77,55.09Z"/><path class="cls-3" d="M14.19,67.92a69,69,0,0,1,3.5,6.65c1.07,2.19,3.17,3.29,2.93,6a1.79,1.79,0,0,0,.18,1.32,1.06,1.06,0,0,0,1.06.31,3.2,3.2,0,0,0,1.05-.51c1.94-1.25,3.86-2.58,6.22-2.62a7.73,7.73,0,0,0,5.49-2.21,28.73,28.73,0,0,0,5.45-7,41.06,41.06,0,0,0,5-17c.09-1.14.84-10.3-.19-10.72a8.05,8.05,0,0,1-1.52-.83,68,68,0,0,1-2.58,13.79A67.79,67.79,0,0,1,35.48,68c-2,3.76-4.25,7.15-8.17,8.42a10.58,10.58,0,0,1-2.56.48c-6.61-.23-7-8.32-10.79-12.3a22.8,22.8,0,0,0-2.59-2.41,25,25,0,0,0-6-3.52,6.32,6.32,0,0,0-3-.6l-.15,0C7.12,59.73,11.68,64,14.19,67.92Z"/><path class="cls-4" d="M80.38,89.05c-3.86,4.48-9.46,6.15-15.14,6.76A109.59,109.59,0,0,1,34,94.61c-5-.91-10.34-2-14.83-4.43-2.46-1.31-5.28-3.37-6.41-6a24.41,24.41,0,0,1-1.73-6.09c-1-2.76-1.49-5.84-2.58-8.78l-.09-.24c-.12-.26-.25-.52-.38-.77-.36-.66-.73-1.32-1.15-1.94A14.57,14.57,0,0,1,6,65.1c-.28-.32-.55-.65-.83-1-1.12-1.23-2.3-2.39-3.5-3.53A9.48,9.48,0,0,1,0,60c-.2,1.28.87,2.41,1.73,3.41a12.6,12.6,0,0,1,3.15,6.27c1.28,5,2,10.47,3.75,15.36a25,25,0,0,0,1.52,3.5c4.65,8,14.57,10.17,23.47,10.56,1,0,2.07,0,3.1,0,3.68,0,7.41.31,11.15.58l3.74.26C64.82,102,83.93,98.68,85.1,82.33c.09-.72.14-1.45.17-2.19A25.65,25.65,0,0,1,80.38,89.05Z"/><path class="cls-8" d="M62.52,51.52a9.7,9.7,0,0,0-1.74,1,11.87,11.87,0,0,0-3.94,7.32,82.18,82.18,0,0,0-.68,8.47A42,42,0,0,1,51.08,85c-1.29,2.36-2.22,3.61-1.23,6.21.85,2.23,2.58,5,4.71,6.13a11.47,11.47,0,0,0,2.85,1A40.56,40.56,0,0,0,67.8,99.81c7.45-.11,15.6-3.64,18.58-10.13a18,18,0,0,0,1.48-6c.51-5.67-1.23-12-3.71-17.06L78.54,55.27c-.93-1.89-2-3.9-3.85-4.86s-3.83-.66-5.77-.41A21.54,21.54,0,0,0,62.52,51.52Z"/><path class="cls-9" d="M59.19,60.29A16.13,16.13,0,0,1,66,53.11a17.85,17.85,0,0,1,9.79-1.93,5.85,5.85,0,0,0-1.12-.77c-1.75-.89-3.83-.66-5.77-.41a21.54,21.54,0,0,0-6.4,1.52,9.7,9.7,0,0,0-1.74,1,11.87,11.87,0,0,0-3.94,7.32,82.18,82.18,0,0,0-.68,8.47c-.07.87-.18,1.74-.31,2.6.22-.55.45-1.09.69-1.63.21-1,.44-2.06.68-3.08A20.82,20.82,0,0,1,58,63.71,14.86,14.86,0,0,1,59.19,60.29Z"/><path class="cls-6" d="M86.69,73.29q-.07.72-.18,1.44a27.75,27.75,0,0,1-6.13,14.32c-3.86,4.48-9.46,6.15-15.14,6.76a105.15,105.15,0,0,1-11.94.6,6.69,6.69,0,0,0,1.26.91,11.47,11.47,0,0,0,2.85,1A40.56,40.56,0,0,0,67.8,99.81c7.45-.11,15.6-3.64,18.58-10.13a18,18,0,0,0,1.48-6A29.42,29.42,0,0,0,86.69,73.29Z"/><path class="cls-4" d="M46.2,33.8a7.55,7.55,0,0,1,4.37,3.28,6.36,6.36,0,0,1,.3.58,9.93,9.93,0,0,1,1.2-.4A10.17,10.17,0,0,1,54.7,37a14,14,0,0,1,2.18-2.89,6.94,6.94,0,0,1,5.53-1.92,26.82,26.82,0,0,0-12.77-4.91L49,27.15c-3.18-.24-4.19,2.84-4.78,5.53l-.15.79A7.44,7.44,0,0,1,46.2,33.8Z"/><path class="cls-2" d="M59.62,3l-.08.08a.54.54,0,0,1-.36.19A.49.49,0,0,1,59,3.15a9.73,9.73,0,0,0-8.21-1.56c-6,1.18-7.55,6.78-7.84,12.13-.18,3.47-1.6,4.88-3.89,7.5a13.73,13.73,0,0,0-2.6,14.58c1.16,2.84,3.92,7.58,7,8.67,2.85,1,7.4-.42,10.29-.8A56.14,56.14,0,0,0,66,40.54c4.51-1.7,10.65-6.06,14.71-8.66,1.47-.95,3.45-1.74,4.42-3.27.84-1.31.77-4,.59-5.56-.22-1.86-2-3.45-3.38-4.61A59.12,59.12,0,0,0,77,15.3c.58-5.37-2-11.81-7-14.44C66.52-1,62.43.43,59.62,3Z"/><path class="cls-3" d="M43.3,44.68a3.77,3.77,0,0,0,1.3.57c1,.16,1.12-1.49.73-2.08a4,4,0,0,0-.79-.8c-2.75-2.24-5.13-4.6-5.45-8.27a15.46,15.46,0,0,1,2.75-10.26c1-1.41,2.27-2.7,2.79-4.35A16.21,16.21,0,0,0,45,15.08c.1-3.75,1-7.77,4-10.26,2.81-2.31,7.53-1.94,10.69-.41a.75.75,0,0,0,.32.1.8.8,0,0,0,.45-.2,17.19,17.19,0,0,1,5.68-2.94c1-.2,4.48-.28,5.17.21A12.48,12.48,0,0,0,70.09.86C66.52-1,62.43.43,59.62,3l-.08.08a.54.54,0,0,1-.36.19A.49.49,0,0,1,59,3.15a9.73,9.73,0,0,0-8.21-1.56c-6,1.18-7.55,6.78-7.84,12.13-.18,3.47-1.6,4.88-3.89,7.5a13.73,13.73,0,0,0-2.6,14.58A19.92,19.92,0,0,0,41.16,43,16.38,16.38,0,0,0,43.3,44.68Z"/><path class="cls-1" d="M42.11,28.6A2.14,2.14,0,1,1,40.54,26,2.15,2.15,0,0,1,42.11,28.6Z"/><path class="cls-1" d="M42.54,34.75a1.25,1.25,0,1,1-1.25-1.25A1.25,1.25,0,0,1,42.54,34.75Z"/><circle class="cls-1" cx="46.13" cy="23.23" r="1.53"/><path class="cls-1" d="M62.31,80.09a2,2,0,0,0,.73.73.8.8,0,0,0,1-.13,1.14,1.14,0,0,0,.2-.73c0-.94,0-1.89,0-2.83a3.87,3.87,0,0,0,2.2,1.3c1.41.13-.13-3.6-.52-4.08-.6-.72-1.37,0-1.95.38a16.35,16.35,0,0,1-3.5,1.48,5,5,0,0,0-1.4.68c-1.25,1-.58,2.81.13,3.92.17.27.42.55.74.54a.83.83,0,0,0,.46-.22c.76-.69.64-1.88,1-2.85A10.76,10.76,0,0,0,62.31,80.09Z"/><path class="cls-2" d="M48.21,64.35A5.27,5.27,0,0,1,47.92,60a4.35,4.35,0,0,1,3.16-2.75c2.14-.36,4.08,1.2,5.64,2.7a39.6,39.6,0,0,1,6.77,8.23c1.53,2.64,3.38,6.52.71,9.08a5.08,5.08,0,0,1-3.4,1.45c-1,0-2.65-.47-3.15-1.51s0-2.42-.59-3.5a5,5,0,0,0-1-1.24l-5.91-5.82A10.09,10.09,0,0,1,48.21,64.35Z"/><path class="cls-3" d="M56.72,60c-1.56-1.5-3.5-3.06-5.64-2.7A4.35,4.35,0,0,0,47.92,60a5.12,5.12,0,0,0-.32,2.12l.35-.26a4.69,4.69,0,0,1,.42-.47,6.35,6.35,0,0,1,2.75-1.49,4.14,4.14,0,0,1,2.8-.1,5.33,5.33,0,0,1,2,1.19l.17.11a15.34,15.34,0,0,1,4.5,3.08c.21.2.41.41.61.62A51,51,0,0,0,56.72,60Z"/><path class="cls-4" d="M60.6,73.22c-2.45-.53-4.25-2.32-5.66-4.29a8.9,8.9,0,0,1-1.57-1L53,67.61l0,0-1.17-.84c-1.13-.81-2.27-1.63-3.31-2.54-.22-.19-.43-.38-.63-.58a5,5,0,0,0,.31.72,10.09,10.09,0,0,0,1.93,2.3c.85.84,1.76,1.56,2.63,2.35a17.84,17.84,0,0,1,2.46,3.41l.35.51a17.53,17.53,0,0,1,1.63,2.34c.33.69.1,1.48.6,2.19a3.82,3.82,0,0,0,3,1.32,5.63,5.63,0,0,0,3.39-1.5,4.64,4.64,0,0,0,1.21-4.54A7.25,7.25,0,0,1,60.6,73.22Z"/><path class="cls-4" d="M47.29,14c1.14,4.81,5.51,8,9.77,7.14s6.79-5.47,5.65-10.28-5.51-8-9.77-7.14S46.15,9.21,47.29,14Z"/><path class="cls-4" d="M63,12.43c1.79,3.94,5.88,5.94,9.14,4.46S76.58,11,74.79,7.08s-5.87-5.94-9.13-4.46S61.22,8.49,63,12.43Z"/><path class="cls-10" d="M47.86,13.27c1.06,4.46,5.11,7.42,9,6.61s6.28-5.06,5.23-9.52S57,3,53.09,3.75,46.81,8.82,47.86,13.27Z"/><path class="cls-11" d="M47.75,12.71l.08.09A10.62,10.62,0,0,0,53,16.92a6.7,6.7,0,0,0,6.87-1.41A6,6,0,0,0,62.19,13c.06-.08.13-.16.19-.25-.08,3.52-2.23,6.52-5.47,7.18-3.94.81-8-2.15-9-6.61C47.82,13.08,47.78,12.9,47.75,12.71Z"/><path class="cls-12" d="M51.91,11.33A3,3,0,0,0,55,14.12,2.79,2.79,0,0,0,57.59,11a3.1,3.1,0,0,0-1.9-2.58c-.38-.15-.52,2.47-.95,2.49s-1.2-2.51-1.57-2.27A2.86,2.86,0,0,0,51.91,11.33Z"/><ellipse class="cls-10" cx="68.9" cy="9.13" rx="5.99" ry="7.26" transform="translate(2.38 29.27) rotate(-24.39)"/><path class="cls-11" d="M63.44,11.6a9.06,9.06,0,0,1-.58-1.76c1.44,2.13,3.4,3.91,6,4.14a7.11,7.11,0,0,0,6.24-3.59,5.87,5.87,0,0,1-3.22,5.34C68.88,17.1,65.1,15.25,63.44,11.6Z"/><path class="cls-12" d="M66.33,9.12a2.44,2.44,0,1,0,4.86,0A2.64,2.64,0,0,0,69.91,6.8c-.35-.21-.64,2-1.06,2s-1-2.13-1.39-1.88A2.64,2.64,0,0,0,66.33,9.12Z"/><path class="cls-2" d="M33,91.83a10.32,10.32,0,0,0,2.32,7.7c2.37,2.93,6.5,3.79,10,4.5a52.06,52.06,0,0,1,5.55,1.16c1.93.62,3.45,1.75,5.45,2.33a4.85,4.85,0,0,0,3.2.17,4.19,4.19,0,0,0,1.81-1.8c2.79-4.55,3-10.84-1.13-14.5a26.33,26.33,0,0,1-4.93-5.8c-2.23-3.54-4.32-6.31-8.95-6.17a13.15,13.15,0,0,0-6.61,2.22A14.33,14.33,0,0,0,33,91.83Z"/><path class="cls-3" d="M52.6,84.29a12,12,0,0,1,3,2.13,7.23,7.23,0,0,1,.53.59l.21.16c-.38-.51-.74-1-1.08-1.58-2.23-3.54-4.32-6.31-8.95-6.17a13.15,13.15,0,0,0-6.61,2.22,15.66,15.66,0,0,0-4,3.68A15.47,15.47,0,0,1,52.6,84.29Z"/><path class="cls-4" d="M60.42,103.89a8.49,8.49,0,0,1-5.54-1.64,14,14,0,0,1-3.32-2.59,6.4,6.4,0,0,1-.76,0,7,7,0,0,1-3.69.84,10.77,10.77,0,0,1-5.41-1.74,11.39,11.39,0,0,1-3.88-2.21,15.47,15.47,0,0,1-4.25-7.3A11.76,11.76,0,0,0,33,91.83a10.32,10.32,0,0,0,2.32,7.7c2.37,2.93,6.5,3.79,10,4.5a52.06,52.06,0,0,1,5.55,1.16c1.93.62,3.45,1.75,5.45,2.33a4.85,4.85,0,0,0,3.2.17,4.19,4.19,0,0,0,1.81-1.8,14.82,14.82,0,0,0,1-2A10.25,10.25,0,0,1,60.42,103.89Z"/><path class="cls-2" d="M52.34,91.56l-.26.21c-3.69,3.17-.58,10.07,1.63,13.39,1.8,2.71,5,4.75,8.22,4.17,2.84-.52,5-3,6-5.71a20.65,20.65,0,0,0,.6-8.58c-.18-2-.11-4.86-2.12-5.88a7,7,0,0,0-3.64-.5,30.2,30.2,0,0,0-6.47,1.1A11.4,11.4,0,0,0,52.34,91.56Z"/><path class="cls-4" d="M66.53,102.25a8.8,8.8,0,0,1-6.05,1.64,8.44,8.44,0,0,1-5.61-1.65,13.47,13.47,0,0,1-3.31-2.58H51a23,23,0,0,0,2.67,5.49c1.8,2.71,5,4.75,8.22,4.17,2.84-.52,5-3,6-5.71a13.76,13.76,0,0,0,.68-3.29A12.65,12.65,0,0,1,66.53,102.25Z"/><path class="cls-1" d="M61.33,89.2a1.35,1.35,0,0,1,0,1,1.11,1.11,0,0,1-.28.29c-1,.72-3,1.13-3.83-.13A2.61,2.61,0,0,1,56.87,89a8.08,8.08,0,0,1,1.3-3.86C59.65,82.69,61.11,88.35,61.33,89.2Z"/><path class="cls-1" d="M63.09,87a7.62,7.62,0,0,1,.77-1.8c1.41-2.25,2.45,1.36,2.7,2.45s.57,1.77-.55,2.25c-.69.3-2.69.27-3.12-.5C62.56,88.85,62.92,87.62,63.09,87Z"/><path class="cls-1" d="M55.84,91.55a1.55,1.55,0,0,1-.65.51,7.59,7.59,0,0,1-1.47.61c-3.07.79-2.28-4.76-1-6a.52.52,0,0,1,.3-.16.56.56,0,0,1,.42.25,17.75,17.75,0,0,1,1.68,2.57C55.53,90,56.32,90.86,55.84,91.55Z"/><path class="cls-5" d="M62.43,94.77c-1.81-.18-5.46.34-6.6,1.89a3.71,3.71,0,0,0-.42,3.12,10.76,10.76,0,0,0,1.44,2.9,10.51,10.51,0,0,0,2,2.55,3.46,3.46,0,0,0,3.06.79c2.69-.79,4-5.82,3.58-8.18A4.37,4.37,0,0,0,65,96.3,3.26,3.26,0,0,0,62.43,94.77Z"/><path class="cls-6" d="M56.35,101.87c.16.27.33.54.5.81a10.51,10.51,0,0,0,2,2.55,3.46,3.46,0,0,0,3.06.79c2.36-.69,3.64-4.66,3.65-7.21A7.51,7.51,0,0,1,56.35,101.87Z"/><path class="cls-2" d="M93.54,22a1.82,1.82,0,0,0-.44.17c-1.27.68-1,1.1-2.52.18-3-1.79-7.51-1.07-10.32.61a89.27,89.27,0,0,1-11.35,5.82c-3.11,1.31-6.31,2.43-9.32,3.95a16.92,16.92,0,0,0-6.51,6.09,1.13,1.13,0,0,0-.28.82,1.15,1.15,0,0,0,.38.57A21.38,21.38,0,0,0,56.75,43a20.69,20.69,0,0,0,2.11,1.18c.6.29,1,.73,1.65,1a37.18,37.18,0,0,0,7.29,1.88,18.41,18.41,0,0,0,4.74.49,7.74,7.74,0,0,0,2.24-.49c.69-.26,1.08-.79,1.72-1.07A2.07,2.07,0,0,1,77.58,46a23.16,23.16,0,0,0,6.85.23,23.45,23.45,0,0,0,4.36-1.66,35.78,35.78,0,0,0,4.67-2.15,32.9,32.9,0,0,0,6.47-4.78,7.48,7.48,0,0,0,1.79-7.43A6.49,6.49,0,0,0,100.57,28a9.41,9.41,0,0,0-1.87-1.37,4.66,4.66,0,0,0-1.57-3.45A4.39,4.39,0,0,0,93.54,22Z"/><path class="cls-3" d="M91.4,23.85a1.72,1.72,0,0,0,.34,0,8.9,8.9,0,0,1,6.46.71,4.43,4.43,0,0,0-1.07-1.4A4.39,4.39,0,0,0,93.54,22a1.82,1.82,0,0,0-.44.17c-1.27.68-1,1.1-2.52.18-3-1.79-7.51-1.07-10.32.61-1.25.74-2.68,1.24-3.43,2.56l1.64-.34C82.07,22.5,87.65,21.74,91.4,23.85Z"/><path class="cls-4" d="M71.2,43.86c-4.72,3.48-13.21-.63-18.39-4.15a1.14,1.14,0,0,0,.37.53A21.38,21.38,0,0,0,56.75,43a20.69,20.69,0,0,0,2.11,1.18c.6.29,1,.73,1.65,1a37.18,37.18,0,0,0,7.29,1.88,18.41,18.41,0,0,0,4.74.49,7.74,7.74,0,0,0,2.24-.49c.69-.26,1.08-.79,1.72-1.07A2.07,2.07,0,0,1,77.58,46a25.82,25.82,0,0,0,6.08.34,24.58,24.58,0,0,0,9.64-3.63c2.58-1.55,5.59-3.52,7.38-6a7.69,7.69,0,0,0,1-6.51A6.41,6.41,0,0,0,100.6,28a21.48,21.48,0,0,1-2,4.56A17.62,17.62,0,0,1,88,40.76a31,31,0,0,1-9.89,3,25.85,25.85,0,0,1-8.51-.11,1.72,1.72,0,0,0,1,.65Z"/><path class="cls-5" d="M59.24,36.5c-1.33-1.48.54-2.38,1.79-2.73l2.55-.72a1.39,1.39,0,0,1,1,0c.59.3-.33,3.48-.44,4.15s-.18,1.77-.86,2.16c-1.2.71-1.79-.83-2.56-1.48A13.47,13.47,0,0,1,59.24,36.5Z"/><path class="cls-5" d="M69.51,41c-.11-1.21-.28-2.4-.55-2.38A5.74,5.74,0,0,0,66.17,40c-1,.76-1.23,1.33-.29,2.12.48.4,2.64,1.61,3.28,1.32C70,43.08,69.57,41.7,69.51,41Z"/><path class="cls-4" d="M65,37.78A6.84,6.84,0,0,1,64.63,40a.76.76,0,0,1-.24.34.58.58,0,0,1-.69-.08,3.65,3.65,0,0,1-.47-.57,16.18,16.18,0,0,0-2.51-2.15c-.62-.52-1.65-1.17-1.9-2-.51-1.76,3.22-2.6,4.36-2.89a3.47,3.47,0,0,1,1-.14,1.19,1.19,0,0,1,.89.45,1.79,1.79,0,0,1,.18,1.17C65.16,35.38,65,36.55,65,37.78Z"/><path class="cls-4" d="M70.76,44a11.66,11.66,0,0,1-3.14-1,18.46,18.46,0,0,1-2.23-1c-.27-.15-.78-.39-.9-.7-.22-.54.09-.48.47-.71.88-.53,3.68-3.29,4.65-1.71C69.94,39.48,70.71,44,70.76,44Z"/><path class="cls-13" d="M59.24,36.5c-1.33-1.48.54-2.38,1.79-2.73l2.55-.72a1.39,1.39,0,0,1,1,0c.59.3-.33,3.48-.44,4.15s-.18,1.77-.86,2.16c-1.2.71-1.79-.83-2.56-1.48A13.47,13.47,0,0,1,59.24,36.5Z"/><path class="cls-13" d="M69.51,41c-.11-1.21-.28-2.4-.55-2.38A5.74,5.74,0,0,0,66.17,40c-1,.76-1.23,1.33-.29,2.12.48.4,2.64,1.61,3.28,1.32C70,43.08,69.57,41.7,69.51,41Z"/><path class="cls-14" d="M63.34,37.23a2.61,2.61,0,0,1-2.26-.39,2.23,2.23,0,0,1-.83-1,2.27,2.27,0,0,1-.22-.32,1.93,1.93,0,0,1-.25-1.3c-.86.48-1.45,1.22-.54,2.23a13.47,13.47,0,0,0,1.5,1.35c.77.65,1.36,2.19,2.56,1.48.68-.39.77-1.52.86-2.16,0-.1.06-.26.1-.46A3,3,0,0,1,63.34,37.23Z"/><path class="cls-14" d="M69,41.69h0l-.29.11a2.16,2.16,0,0,1-2.18-.49,2.07,2.07,0,0,1-.57-1.13h0c-.84.67-.93,1.21-.06,1.94.48.4,2.64,1.61,3.28,1.32s.51-1.28.4-2A2.06,2.06,0,0,1,69,41.69Z"/><path class="cls-15" d="M77.22,31.2l0-.15a2.07,2.07,0,0,1-.06-.47,2.16,2.16,0,0,1,0-.36,3.15,3.15,0,0,1,0-.41,3.51,3.51,0,0,1,.3-.94c.07-.17.17-.33.26-.5s.22-.33.36-.49a4.78,4.78,0,0,1,1-.87,4.27,4.27,0,0,1,1.27-.61,2.37,2.37,0,0,1,.36-.09l.18,0h.19a5.08,5.08,0,0,1,.7,0,4.69,4.69,0,0,1,1.45.24,4.55,4.55,0,0,1,1.25.67,5,5,0,0,1,.9.94,4.29,4.29,0,0,1,.33.5c.1.17.17.34.25.5a6,6,0,0,1,.31.9c.08.27.12.52.16.71a3.59,3.59,0,0,1,0,.47l0,.16a.19.19,0,0,1-.17.2.18.18,0,0,1-.19-.14h0s0-.21-.15-.57a5.73,5.73,0,0,0-.23-.64,6.23,6.23,0,0,0-.38-.79,4.78,4.78,0,0,0-.26-.42,2.94,2.94,0,0,0-.31-.41,4.48,4.48,0,0,0-.81-.75,3.71,3.71,0,0,0-2.19-.68,4.86,4.86,0,0,0-.64,0H81l-.15,0a1.53,1.53,0,0,0-.29.07,3.86,3.86,0,0,0-1.06.47,4.14,4.14,0,0,0-.85.69,4.18,4.18,0,0,0-.6.78,2.87,2.87,0,0,0-.19.4,1.92,1.92,0,0,0-.15.37,2.37,2.37,0,0,0-.08.34,1.67,1.67,0,0,0,0,.29,2.15,2.15,0,0,0,0,.43v.16a.18.18,0,0,1-.18.19A.18.18,0,0,1,77.22,31.2Z"/><path class="cls-1" d="M82,33.71c-.85-.82-1.83-1.8-1.76-3.1.06-.94,1-1.94,2-1.51C84.33,30,83.69,35.38,82,33.71Z"/><path class="cls-15" d="M52,26.42l.77,1.21.39.64.5.72c.36.52.76,1.11,1.22,1.73s1,1.28,1.52,2c.27.36.58.69.87,1s.6.73.93,1.08l1,1.09L60.22,37c.35.37.74.7,1.11,1l.56.53.59.49c.39.33.77.68,1.18,1l1.21.92c.84.56,1.66,1.13,2.5,1.58s1.67.88,2.45,1.28l1.18.47.57.23.56.17,1,.33c.34.11.66.16,1,.24.77.19,1.54.34,2.31.54l.26.07.09,0a.08.08,0,0,1,0,.08,2.7,2.7,0,0,1-.82.3,2,2,0,0,1-.73,0c-.44-.06-.87-.15-1.3-.24s-.65-.11-1-.21l-1.09-.32-.58-.17-.59-.23-1.23-.47L68.21,44c-.21-.11-.43-.2-.64-.32l-.64-.37c-.87-.47-1.71-1.05-2.57-1.63l-1.24-1c-.43-.3-.81-.67-1.22-1l-.59-.51-.57-.55c-.37-.36-.77-.7-1.11-1.09l-1.06-1.11-1-1.12c-.65-.74-1.23-1.49-1.77-2.21s-1-1.41-1.47-2.06c-.22-.33-.44-.64-.63-.94l-.53-.85c-.17-.28-.33-.51-.47-.77l-.36-.66-.69-1.25a.18.18,0,0,1,.07-.25A.18.18,0,0,1,52,26.42Z"/><path class="cls-15" d="M48.86,27.51l.19-.08.47-.21,1.41-.57,1.42-.59c.38-.16.66-.25.66-.25a.19.19,0,0,1,.21.3h0a3.66,3.66,0,0,1-.54.52,4.91,4.91,0,0,1-.63.43,6.35,6.35,0,0,1-.78.4,5.66,5.66,0,0,1-1.59.41,3.41,3.41,0,0,1-.75,0h0a.2.2,0,0,1-.07-.37Z"/></g></g></g></svg>