<svg xmlns="http://www.w3.org/2000/svg" viewBox="0 0 107.28 100"><defs><style>.cls-1{isolation:isolate;}.cls-2,.cls-4{fill:#0c2542;}.cls-3{fill:#871e16;}.cls-28,.cls-3{opacity:0.4;}.cls-16,.cls-21,.cls-26,.cls-3,.cls-4,.cls-5,.cls-7{mix-blend-mode:multiply;}.cls-5{fill:#66932b;}.cls-5,.cls-7{opacity:0.3;}.cls-6{fill:#7c6861;}.cls-8{fill:#83201b;}.cls-10,.cls-9{fill:#125a83;}.cls-10,.cls-32{mix-blend-mode:screen;}.cls-11{fill:#5d8828;}.cls-12{fill:#122e4f;}.cls-13{fill:#a7966d;}.cls-14{fill:#cfe294;}.cls-15{fill:#1b4379;}.cls-16,.cls-31{fill:#1b3f6a;}.cls-16{opacity:0.5;}.cls-17{fill:#db8117;}.cls-18{fill:#e4ac36;}.cls-19,.cls-28{fill:#a71121;}.cls-20,.cls-21{fill:#125a8b;}.cls-22{fill:#1b4980;}.cls-23{fill:#150807;}.cls-24{fill:#fff;}.cls-25{fill:#051c32;}.cls-26{fill:#cf281e;}.cls-27{fill:#eaaf24;}.cls-29{fill:#8f1b15;}.cls-30{fill:#0d2644;}.cls-32{fill:#222123;}</style></defs><g class="cls-1"><g id="Слой_2" data-name="Слой 2"><g id="Layer_1" data-name="Layer 1"><path class="cls-2" d="M63.59,65.49a2.27,2.27,0,0,0-.26-.28c-1.27-1.25-2.6,0-3.72.8a4.9,4.9,0,0,1-2,.95h-.08a21.56,21.56,0,0,0-.05-2.27c-.66-6.42-6.21-13.06-13.17-9.16a12.18,12.18,0,0,0-4.47,5.34A14.26,14.26,0,0,0,39,68.15c.55,4.55,2.69,10.15,7.1,12.25A9.41,9.41,0,0,0,56.7,78.3c0,.37-2.2,10.72,1.17,9.74.74-.21.44-1.73.38-2.17.15,1.13.64,1.91,1.25,1.82.34-.06.48-.37.57-.66a7.4,7.4,0,0,0,0-2.1c.18.62.45,1.56,1.06,1.9,2.21,1.2,3.2-15.13,3.31-16.75S64.61,66.75,63.59,65.49Z"/><path class="cls-3" d="M50.71,68.83A41.88,41.88,0,0,0,64.4,70.32c0-.1,0-.18,0-.24.1-1.52.19-3.33-.83-4.59a2.27,2.27,0,0,0-.26-.28c-1.27-1.25-2.6,0-3.72.8a4.9,4.9,0,0,1-2,.95h-.08a21.56,21.56,0,0,0-.05-2.27c-.66-6.42-6.21-13.06-13.17-9.16a12.18,12.18,0,0,0-4.47,5.34,10.9,10.9,0,0,0-.54,1.58A25.71,25.71,0,0,0,50.71,68.83Z"/><path class="cls-4" d="M58.35,86.65a10.45,10.45,0,0,1-.82-4.4,8.34,8.34,0,0,0-.29,1.92,13.63,13.63,0,0,0,.35,2.46,3.21,3.21,0,0,1,0,1.48,1.84,1.84,0,0,0,.3-.07C58.34,87.91,58.39,87.23,58.35,86.65Z"/><path class="cls-4" d="M60.06,85.07a18.76,18.76,0,0,1,0-5.29A10.17,10.17,0,0,0,59.43,84c.09,1.05.54,2.48.27,3.62a1,1,0,0,0,.37-.58A6.45,6.45,0,0,0,60.06,85.07Z"/><path class="cls-4" d="M61.47,64.83a2.31,2.31,0,0,1,1.66,1.28,10.72,10.72,0,0,1,.68,3.42,22.12,22.12,0,0,1,.07,3.73c-.17,2.68-.66,5.31-1,8a23.11,23.11,0,0,1-.84,4.94c1.54-3,2.25-14.73,2.34-16.09.1-1.52.19-3.33-.83-4.59a2.27,2.27,0,0,0-.26-.28A1.6,1.6,0,0,0,61.47,64.83Z"/><path class="cls-5" d="M60.16,79.5c0,.54-.13,1.1-.18,1.64s0,1.31-.07,2A5.16,5.16,0,0,0,60.45,86s0,0,0,0a7.85,7.85,0,0,1-.42-3.19c0-.59,0-1.19,0-1.78a14.28,14.28,0,0,0,.08-1.46S60.16,79.47,60.16,79.5Z"/><path class="cls-4" d="M57.56,81.94a10.26,10.26,0,0,0,.21,2.76A6.38,6.38,0,0,0,58.53,87s.06,0,0-.07a14.41,14.41,0,0,1-1-4.95S57.57,81.92,57.56,81.94Z"/><path class="cls-6" d="M60.86,85a1.29,1.29,0,0,0-.39,1,4.22,4.22,0,0,0,1.53,2,1.15,1.15,0,0,0,0-.18c0-.93.08-1.85.18-2.77C61.92,84.32,61.26,84.55,60.86,85Z"/><path class="cls-6" d="M58.86,86.1a1.17,1.17,0,0,0-.15,1.38,2.87,2.87,0,0,0,.43.62,3.23,3.23,0,0,0,.37.37s.39.28.39.33a1,1,0,0,0,0-.17c0-.6,0-1.2.09-1.79,0-.29.14-.62,0-.89a.55.55,0,0,0-.72-.14A1.28,1.28,0,0,0,58.86,86.1Z"/><path class="cls-6" d="M56.94,86.85a1.16,1.16,0,0,0-.14,1.38,2.82,2.82,0,0,0,.42.62,4.31,4.31,0,0,0,.37.37s.4.28.39.33a1,1,0,0,0,0-.17c0-.6,0-1.2.09-1.79a1.42,1.42,0,0,0,0-.89.55.55,0,0,0-.72-.14A1.28,1.28,0,0,0,56.94,86.85Z"/><g class="cls-7"><path class="cls-8" d="M51.85,61.78a1.07,1.07,0,0,0-.69-.87,2.33,2.33,0,0,0-1.47-.32,1.28,1.28,0,0,0-.67,1c-.11.45.16.66.42,1,.46.57,1.15.29,1.7,0S51.92,62.31,51.85,61.78Z"/><path class="cls-8" d="M48.53,63.55a.57.57,0,0,0-.54.21c-.15.18-.41.43-.39.68s.22.39.41.5.35,0,.55-.06c.36-.14.33-.53.29-.84S48.8,63.6,48.53,63.55Z"/></g><g class="cls-7"><path class="cls-8" d="M53.11,79.81a.87.87,0,0,0,.12-.88c-.12-.33-.29-.86-.63-1a1,1,0,0,0-1,.18c-.32.19-.29.46-.33.79-.08.58.47.83.92,1S52.85,80.14,53.11,79.81Z"/><path class="cls-8" d="M50.25,78.88a.45.45,0,0,0-.42-.2c-.18,0-.47,0-.61.16a.54.54,0,0,0-.06.51c0,.19.19.21.34.28s.48-.1.64-.3S50.37,79.06,50.25,78.88Z"/></g><path class="cls-9" d="M70.66.31A2.3,2.3,0,0,0,70,.22c-.22,0-.44-.06-.67-.07-.56,0-1.12,0-1.68,0-4.85.23-9.55,3.11-12.76,6.6a28.83,28.83,0,0,0-2.63,3.3,26.49,26.49,0,0,0-3.82,8c-.07.25-.17.78,0,1l.07.07a3.85,3.85,0,0,0,1.19.17A11.33,11.33,0,0,1,58,25.72a21.06,21.06,0,0,1,1.26,3.07,45.29,45.29,0,0,1,1,4.9c.07.42.1.84.14,1.26,0,.17.05.91.34.89s.38-.69.41-.92c.06-.47.15-.94.22-1.41a15.27,15.27,0,0,1,.48-2.7,12.57,12.57,0,0,1,2.56-4.74,5.58,5.58,0,0,1,6.84-1,6.17,6.17,0,0,0,1,.61c.11,0,.07-.16,0-.2a8.2,8.2,0,0,1-.8-1c-1.37-2.43.58-5.77,2.92-6.77a12.18,12.18,0,0,0,1.73-.83,8.39,8.39,0,0,0-1-.66c-2.08-1.59-4.18-3.86-3-6.66A4,4,0,0,1,73.37,7.9,2.82,2.82,0,0,1,74,7.62c.2-.08.42,0,.6-.17s0-.2,0-.21A9.45,9.45,0,0,1,73.28,7c-2.08-.38-6-1.79-4.72-4.6a3.7,3.7,0,0,1,1-1.16,4.87,4.87,0,0,1,.5-.4c.21-.15.46-.21.67-.36A.14.14,0,0,0,70.66.31Z"/><path class="cls-10" d="M70,.22c-.22,0-.44-.06-.67-.07-.56,0-1.12,0-1.68,0-4.85.23-9.55,3.11-12.76,6.6a28.83,28.83,0,0,0-2.63,3.3,26.49,26.49,0,0,0-3.82,8c-.07.25-.17.78,0,1l.07.07a3.85,3.85,0,0,0,1.19.17A11.33,11.33,0,0,1,58,25.72a21.06,21.06,0,0,1,1.26,3.07,45.29,45.29,0,0,1,1,4.9c.07.42.1.84.14,1.26,0,.17.05.91.34.89.73-.07,0-3.37-.08-3.74a25.15,25.15,0,0,0-1.3-4.85,18,18,0,0,0-2.5-4.36,18.54,18.54,0,0,0-2.26-2.43,11.73,11.73,0,0,0-2-1.47c-.68-.39-1.63-.72-2-1.45-.59-1.1.24-2.72.69-3.72a25.5,25.5,0,0,1,5.4-7.35c.62-.63,1.28-1.23,2-1.8A23.07,23.07,0,0,1,64.13,1.3,13.22,13.22,0,0,1,67.68.54c.6-.09,1.21-.15,1.82-.21.29,0,.67,0,1-.06A4,4,0,0,0,70,.22Z"/><path class="cls-6" d="M21.92,51.28a1.29,1.29,0,0,0-1.39-.35l-.32.11c-.33.17-.66.35-1,.55a2.44,2.44,0,0,0-.64.72l.52,0c.91,0,1.83.13,2.75.27C22.53,52.35,22.33,51.69,21.92,51.28Z"/><path class="cls-2" d="M40.58,41.39c-1.29-2.07-4.19-3.3-6.35-1.67a3.68,3.68,0,0,0-1.52,2.65c-.13,1.5,1.09,2.71.46,4.23-1.17,2.85-5.58,2.35-8,2.64a7.64,7.64,0,0,0-3.06.94c-1.65,1-3.47,3.61-.79,4.63a6.7,6.7,0,0,0,2.92.3c.92-.06,2.26-.11,2.95-.82a17.92,17.92,0,0,0,1.38-2c1.4,0,2.82.15,4.21.17a32.25,32.25,0,0,0,4.7-.24,6.17,6.17,0,0,0,2.62-2.52,9,9,0,0,0,1-7.3A5.28,5.28,0,0,0,40.58,41.39Z"/><path class="cls-3" d="M41,42.35a5.28,5.28,0,0,0-.46-1c-1.29-2.07-4.19-3.3-6.35-1.67a3.68,3.68,0,0,0-1.52,2.65c-.13,1.5,1.09,2.71.46,4.23a3.73,3.73,0,0,1-2.75,2.11,34,34,0,0,0,1.43,3.67l.9,0a32.25,32.25,0,0,0,4.7-.24,6.17,6.17,0,0,0,2.62-2.52A9,9,0,0,0,41,42.35Z"/><path class="cls-6" d="M20.26,52.73a1.07,1.07,0,0,0-.87.79,2.44,2.44,0,0,0-.06.26c0,.31-.06.61-.07.92a2,2,0,0,0,.2.76c.08-.12.17-.23.26-.34.45-.6.92-1.19,1.42-1.75C21.27,52.8,20.72,52.64,20.26,52.73Z"/><path class="cls-6" d="M21.69,53.82a1.06,1.06,0,0,0-.86.79,2,2,0,0,0-.07.26,7,7,0,0,0-.06.91,2.13,2.13,0,0,0,.19.76l.26-.33c.46-.61.92-1.19,1.43-1.76C22.7,53.89,22.16,53.73,21.69,53.82Z"/><path class="cls-6" d="M24,54.38a1.08,1.08,0,0,0-.64,1,1.22,1.22,0,0,0,0,.27c0,.3.09.6.15.9a2.11,2.11,0,0,0,.38.69c.06-.13.12-.26.17-.39.29-.69.6-1.38.95-2C25,54.21,24.46,54.18,24,54.38Z"/><path class="cls-11" d="M36.5,47.14c.34-.1.76-.26.74-.69,0-.24,0-.45-.2-.61a.79.79,0,0,0-.71-.19c-.27.1-.42.49-.53.73a.63.63,0,0,0,0,.66C36,47.3,36.25,47.22,36.5,47.14Z"/><path class="cls-11" d="M38.07,46.85c.11.16.25.34.46.27s.23-.06.28-.2a.39.39,0,0,0,0-.38c-.09-.12-.31-.14-.44-.16a.37.37,0,0,0-.33.13C37.92,46.64,38,46.74,38.07,46.85Z"/><path class="cls-11" d="M37.85,45.46c.1,0,.24,0,.29-.11a.23.23,0,0,0,0-.14c0-.1-.06-.19-.11-.27s-.14-.21-.26-.17-.2.21-.25.31a.26.26,0,0,0,0,.3C37.57,45.47,37.75,45.45,37.85,45.46Z"/><g class="cls-7"><path class="cls-8" d="M23.65,52.5c.3-.09.66-.22.64-.59,0-.21,0-.39-.17-.52a.64.64,0,0,0-.61-.17c-.23.09-.36.42-.46.62a.58.58,0,0,0,0,.57C23.24,52.64,23.44,52.57,23.65,52.5Z"/><path class="cls-8" d="M24.93,52.37c.1.14.22.29.4.23s.2-.05.23-.17a.32.32,0,0,0,0-.33c-.08-.1-.26-.11-.38-.13a.3.3,0,0,0-.28.11C24.8,52.19,24.87,52.28,24.93,52.37Z"/><path class="cls-8" d="M24.81,51.06c.09,0,.21,0,.25-.09a.27.27,0,0,0,0-.12.36.36,0,0,0-.09-.23c0-.08-.13-.18-.23-.16s-.17.19-.22.27a.24.24,0,0,0,0,.26C24.57,51.07,24.73,51.05,24.81,51.06Z"/></g><path class="cls-12" d="M89.22,100c-8.42.42-18-3.85-9.83-13.09s9.4-22.53-1.58-24.53a9.89,9.89,0,0,0-3.24-.07c.3-3.16.66-6.3,1.22-9.42.28-1.53.14-14.21.46-15.73C83,38,93.37,44.36,97,51.13c9,16.54-12.39,34.64-14.68,40.77s6,6.34,7.19,7.32S89.22,100,89.22,100Z"/><path class="cls-3" d="M80.71,63.26a21.6,21.6,0,0,0,5.19-12,24.1,24.1,0,0,0-1.73-11.47,25.51,25.51,0,0,0-7.92-2.69c-.32,1.52-.18,14.2-.46,15.73-.56,3.12-.92,6.26-1.22,9.42a9.89,9.89,0,0,1,3.24.07A11.89,11.89,0,0,1,80.71,63.26Z"/><path class="cls-13" d="M89.29,99a6.08,6.08,0,0,0-.56-2.4.25.25,0,0,0-.19,0c-.06.09-.12.19-.19.28a9.42,9.42,0,0,1-1.09,1.46C87.45,98.9,88.71,99.26,89.29,99Z"/><path class="cls-13" d="M84.84,97.93a7.57,7.57,0,0,0,.33-3.15A.28.28,0,0,0,85,94.7L84.6,95a16.47,16.47,0,0,1-1.94,1.31C82.66,97,84,98,84.84,97.93Z"/><path class="cls-13" d="M81.59,92.6a7.57,7.57,0,0,0,3.15-.37.31.31,0,0,0,0-.23l-.33-.28a18.44,18.44,0,0,1-1.71-1.61C82,90.27,81.38,91.84,81.59,92.6Z"/><path class="cls-13" d="M84.47,87a7.14,7.14,0,0,0,2.86.86.31.31,0,0,0,.12-.18c-.06-.13.35-.25.29-.37a18.25,18.25,0,0,1-1.34-2C85.71,85.19,84.58,86.31,84.47,87Z"/><path class="cls-13" d="M88.36,82.12c.45.24,2.84.71,2.23.67a.24.24,0,0,0,.09-.15l-.14-.29a11.62,11.62,0,0,1-.68-1.57C89.33,80.68,88.44,81.54,88.36,82.12Z"/><g class="cls-7"><path class="cls-8" d="M90.66,62.76a1,1,0,0,0-.19-1c-.25-.32-.62-.86-1.07-.93a1.18,1.18,0,0,0-1,.55c-.3.32-.16.63-.1,1,.12.68.82.76,1.39.8C90.08,63.19,90.48,63.23,90.66,62.76Z"/><path class="cls-8" d="M87.1,62.72a.57.57,0,0,0-.55-.07c-.19.08-.52.18-.63.39a.66.66,0,0,0,.12.6c.11.2.28.18.49.2s.5-.29.61-.56S87.3,62.89,87.1,62.72Z"/><path class="cls-8" d="M87,61.05c-.15,0-.38.09-.49-.06a.35.35,0,0,1-.07-.21.59.59,0,0,1,.06-.45c.06-.16.15-.37.35-.37s.37.27.49.39a.42.42,0,0,1,.16.45C87.43,61,87.13,61,87,61.05Z"/></g><g class="cls-7"><path class="cls-8" d="M91.63,51.35a.86.86,0,0,0-.54.7,1.85,1.85,0,0,0,0,1.21,1,1,0,0,0,.93.33c.37,0,.48-.26.68-.52.36-.47,0-1-.29-1.33S92,51.2,91.63,51.35Z"/><path class="cls-8" d="M93.64,53.6a.46.46,0,0,0,.26.38c.17.08.42.23.61.17s.25-.24.31-.41-.06-.28-.15-.42-.47-.15-.71-.06S93.63,53.38,93.64,53.6Z"/></g><g class="cls-7"><path class="cls-8" d="M92.45,75.16a.84.84,0,0,0-.16-.87c-.21-.28-.52-.73-.9-.79a1,1,0,0,0-.87.47c-.25.27-.14.53-.08.85.1.57.69.65,1.18.68C92,75.52,92.3,75.56,92.45,75.16Z"/><path class="cls-8" d="M89.43,75.13a.45.45,0,0,0-.46-.06c-.17.06-.44.15-.53.33a.56.56,0,0,0,.1.51c.09.16.24.14.41.17s.43-.25.52-.48S89.61,75.27,89.43,75.13Z"/></g><path class="cls-14" d="M80.42,37a23.45,23.45,0,0,0,.64-9.85,1,1,0,0,0-.69-.24l-1.05.85a52.36,52.36,0,0,1-5.88,4.32C73.53,34.38,78,37.21,80.42,37Z"/><path class="cls-14" d="M81.87,44.19A23.66,23.66,0,0,0,88,36.43a1,1,0,0,0-.44-.58l-1.35.1a51.81,51.81,0,0,1-7.29.23C77.67,38.13,79.72,43,81.87,44.19Z"/><path class="cls-14" d="M84.36,49.93a20,20,0,0,0,5.18-6.58.8.8,0,0,0-.37-.5L88,42.94a45.38,45.38,0,0,1-6.19.19C80.8,44.79,82.53,48.9,84.36,49.93Z"/><path class="cls-14" d="M73.08,32.6a20.05,20.05,0,0,0-5.26-6.54.91.91,0,0,0-.56.25c-.06.39-.12.76-.18,1.14a43.84,43.84,0,0,1-1.2,6.08C67.26,34.91,71.66,34.14,73.08,32.6Z"/><path class="cls-14" d="M65.9,33.94a17.09,17.09,0,0,0-4.48-5.57.7.7,0,0,0-.48.22c0,.32-.11.64-.15,1a37.92,37.92,0,0,1-1,5.18C60.94,35.91,64.69,35.25,65.9,33.94Z"/><path class="cls-14" d="M46.78,30.59a10.15,10.15,0,0,0,2.9-3.12.44.44,0,0,0-.16-.27h-.59A22.39,22.39,0,0,1,45.78,27C45.18,27.83,45.89,30,46.78,30.59Z"/><path class="cls-14" d="M49.08,35.06a9.15,9.15,0,0,0,1.61-3.48.33.33,0,0,0-.22-.18l-.5.16a20.3,20.3,0,0,1-2.73.74C47,33.15,48.16,34.79,49.08,35.06Z"/><path class="cls-14" d="M46.94,25.15a7.77,7.77,0,0,0,2.89-1.3.34.34,0,0,0,0-.23l-.4-.18a16.93,16.93,0,0,1-2.11-1C46.64,22.8,46.51,24.48,46.94,25.15Z"/><path class="cls-15" d="M84.76,43.82A15.74,15.74,0,0,0,68,31.29a32.64,32.64,0,0,0-7.9,1.84c-3.26,1.12-7.45,3.8-10.77,1.48-2.18-1.52-2.18-4.72-2.07-7.08.17-3.61.85-7.3.25-10.91a2.74,2.74,0,0,0-.05-.28c-2,1.4-4.19,2.54-6.28,3.8-1.33.8-2.6,1.66-3.87,2.54,1,3.14-1.31,6.72-3,9.44-2.87,4.62-4.49,10.31-3.13,15.67a25.46,25.46,0,0,0,8.37,12.79,36,36,0,0,0,8.62,5.57,32,32,0,0,0,16.48,2.5c4.86-.62,9.89-1.77,13.64-5.14.11-.09.21-.19.31-.29A22.32,22.32,0,0,0,84.76,43.82Z"/><path class="cls-16" d="M37.32,25.9a14.91,14.91,0,0,1,2.74-.62,9.18,9.18,0,0,0,3.7-1.44,13.8,13.8,0,0,0,4-4.12,19,19,0,0,0-.24-3.1,2.74,2.74,0,0,0-.05-.28c-2,1.4-4.19,2.54-6.28,3.8-1.33.8-2.6,1.66-3.87,2.54A6.17,6.17,0,0,1,37.32,25.9Z"/><path class="cls-5" d="M37.88,24.69a5.32,5.32,0,0,0,2.14,0,9.76,9.76,0,0,0,4.54-2.56,10.24,10.24,0,0,0,2.79-5.72c-2,1.37-4.13,2.5-6.19,3.74-1.33.8-2.6,1.66-3.87,2.54a5.43,5.43,0,0,1,.22,2Z"/><path class="cls-17" d="M57.32,67.38a25.82,25.82,0,0,1-11.35-8,23.79,23.79,0,0,1-4.44-10.82A59.78,59.78,0,0,1,41,41.09c0-2.42.15-4.84.1-7.25,0-1.47-.13-4.48-1.88-5.1-1.16-.41-2.39.44-3.22,1.17a9.22,9.22,0,0,0-.79.74c-.3.51-.61,1-.9,1.47-2.87,4.62-4.49,10.31-3.13,15.67a25.46,25.46,0,0,0,8.37,12.79,36,36,0,0,0,8.62,5.57,31.67,31.67,0,0,0,7.33,2.22,33.41,33.41,0,0,0,6.89.47A28.35,28.35,0,0,1,57.32,67.38Z"/><path class="cls-18" d="M38.75,32.14a20.9,20.9,0,0,0,2.25.17c-.14-1.45-.55-3.13-1.8-3.57s-2.39.44-3.22,1.17a9.22,9.22,0,0,0-.79.74L35,31A10.12,10.12,0,0,0,38.75,32.14Z"/><path class="cls-18" d="M37,40a25.8,25.8,0,0,0,4,.23c0-1.34.05-2.69.08-4-2.83,0-6-.49-7.66-2.54a25.74,25.74,0,0,0-1.75,4.12C32.94,39.19,35.14,39.75,37,40Z"/><path class="cls-18" d="M31.31,48.33a17.2,17.2,0,0,0,5.63,2.77,32.31,32.31,0,0,0,5.43,1.12,25.93,25.93,0,0,1-.84-3.69c-.08-.54-.15-1.07-.2-1.61a29.6,29.6,0,0,1-4.89-.51,13.7,13.7,0,0,1-5.76-2.34,16.22,16.22,0,0,0,.48,3.72Z"/><path class="cls-18" d="M37.78,58.71a26.17,26.17,0,0,0,4.1,1.42,30.53,30.53,0,0,0,5.45.82A18.84,18.84,0,0,1,46,59.35,20.29,20.29,0,0,1,44.42,57a32.56,32.56,0,0,1-5.75-.75,26.17,26.17,0,0,1-4.08-1.09,27.86,27.86,0,0,0,2.76,3.36Z"/><path class="cls-18" d="M54.88,66.32c-.76-.37-1.52-.77-2.25-1.2a30.1,30.1,0,0,1-5-.11c-.79-.09-1.6-.21-2.4-.37a30.35,30.35,0,0,0,2.95,1.51c.67.29,1.37.56,2.07.82A35.05,35.05,0,0,0,54.88,66.32Z"/><path class="cls-19" d="M43.82,16.45a2.76,2.76,0,0,0-.83-.8,11.74,11.74,0,0,0-4.76,1.66,8.69,8.69,0,0,0-2.36,2.51,10.21,10.21,0,0,1-2.94,3.09,4.84,4.84,0,0,1-4.25.24l-.19-.06a2.17,2.17,0,0,0-1.09.21c.49.18.94.4,1.22.52a4.27,4.27,0,0,0,3.89.15,8.86,8.86,0,0,0,2.83-2.3,7,7,0,0,1,5.78-2.6c.64,0,1.36.13,2.09.2a2.19,2.19,0,0,0,.92-1.52A1.63,1.63,0,0,0,43.82,16.45Z"/><path class="cls-19" d="M39.55,19.49c.5,0,1,.14,1.49.16a4.37,4.37,0,0,0,1.53,0l.11-.05A11.31,11.31,0,0,0,39.55,19.49Z"/><path class="cls-20" d="M23.2,9.12c.82,0,2.07.08,2.61-.7.3-.44,0-.86-.54-1.22a1.2,1.2,0,0,0,.64-.39,1.92,1.92,0,0,0,0-2.25,3.35,3.35,0,0,0-1-1c.81,0,1.39-.33,1.28-1.08A3.67,3.67,0,0,0,24.9.37a22.85,22.85,0,0,1,2.44.94,13.93,13.93,0,0,1,4,2.44,9.55,9.55,0,0,1,2.94,5.16c-1,1.51-3.7,2.22-5.24,2.42A7.73,7.73,0,0,1,22.23,9,4,4,0,0,0,23.2,9.12Z"/><path class="cls-21" d="M25,10c1.41.29,3.81.94,5-.28.06-.06,0-.15,0-.2a14.11,14.11,0,0,0-1.63-.75c-.67-.32-1.34-.64-2-1l-1-.54,1.49.56c.83.29,1.68.54,2.52.8A5,5,0,0,0,30.89,9c1.56-.07-.71-2.17-1.08-2.45A28.11,28.11,0,0,0,27,4.69c-.59-.36-1.19-.71-1.8-1A24.47,24.47,0,0,1,32,6.91c.11.08.28,0,.19-.17a19.38,19.38,0,0,0-3.86-4.27A22.35,22.35,0,0,0,24.89.37a22.23,22.23,0,0,1,2.45.94,13.93,13.93,0,0,1,4,2.44,9.55,9.55,0,0,1,2.94,5.16c-1,1.51-3.7,2.22-5.24,2.42a7.77,7.77,0,0,1-6.65-2.18A11.47,11.47,0,0,0,25,10Z"/><path class="cls-14" d="M26.17,29.82l1.42-.75A11.05,11.05,0,0,0,26,26.19a.14.14,0,0,0-.13.1c0,.16,0,.33,0,.49,0,.92,0,1.84-.09,2.75A2,2,0,0,0,26.17,29.82Z"/><path class="cls-14" d="M28.89,28.38l1.23-.65a8.75,8.75,0,0,0-2-1.54.13.13,0,0,0-.07.12c.05.12.1.25.16.37C28.45,27.24,28.68,27.81,28.89,28.38Z"/><path class="cls-14" d="M30.84,27.35l1.21-.64a9.16,9.16,0,0,0-2-1.51.11.11,0,0,0-.07.12l.15.37C30.41,26.24,30.64,26.79,30.84,27.35Z"/><path class="cls-14" d="M37.27,23.74a.86.86,0,0,0,.23.06l.39-.18.92-.47a10,10,0,0,0-2.44-2,.13.13,0,0,0-.07.12l.15.37C36.75,22.33,37,23,37.27,23.74Z"/><path class="cls-14" d="M39.24,22.75l.12,0,1.2-.86a9.26,9.26,0,0,0-2.23-1.77.11.11,0,0,0-.07.11c.06.13.11.25.16.38C38.72,21.34,39,22,39.24,22.75Z"/><path class="cls-14" d="M32.92,26.23l.59-.32c.18-.11.37-.2.55-.3a8.71,8.71,0,0,0-1.85-1.41.14.14,0,0,0-.07.12c0,.13.1.25.16.38C32.52,25.2,32.73,25.71,32.92,26.23Z"/><path class="cls-14" d="M34.85,25.17,36,24.58a8.44,8.44,0,0,0-1.8-1.36.12.12,0,0,0-.07.11l.15.38C34.47,24.19,34.67,24.68,34.85,25.17Z"/><path class="cls-15" d="M48.1,12.35a2.76,2.76,0,0,0-.66-.89s0-.07,0-.09l-.1-.06a3,3,0,0,0-1.19-1.13s0,0,0,0a2.61,2.61,0,0,1,1,1c-.48-.22-1.08-.3-1,.42a5.56,5.56,0,0,0,.24.76.66.66,0,0,1-.21.83,1.23,1.23,0,0,1-.71,0,3.84,3.84,0,0,1-.9-.41,3.7,3.7,0,0,0-2.6-.22,3.23,3.23,0,0,0-1.35,1.19,4.25,4.25,0,0,0-.74,3.38,4,4,0,0,1-.4,2.78,13,13,0,0,1-3.37,2.88,44.38,44.38,0,0,1-3.83,2.67,33.58,33.58,0,0,1-4.63,2c-.91.37-2.37.35-2.52,1.61a2.32,2.32,0,0,0,2.56,2.44c1.48-.29,2.64-2.06,3.68-3a14.61,14.61,0,0,1,5.77-3.08c1.93-.57,4-.86,5.7-2A13.21,13.21,0,0,0,46,21a9,9,0,0,0,1.1-1.37,8.24,8.24,0,0,0,.73-1.88c.11-.37.28-.71.37-1.1s.07-.74.13-1.11a8.68,8.68,0,0,0-.06-2.1A5,5,0,0,0,48.1,12.35Z"/><path class="cls-16" d="M45.81,17l.21-.07a5.84,5.84,0,0,0,.77-.53,4.38,4.38,0,0,0,1.33-4s0,0,0-.08a2.76,2.76,0,0,0-.66-.89s0-.07,0-.09l-.1-.06a3,3,0,0,0-1.19-1.13s0,0,0,0a2.61,2.61,0,0,1,1,1c-.48-.22-1.08-.3-1,.42a5.56,5.56,0,0,0,.24.76.66.66,0,0,1-.21.83,1.23,1.23,0,0,1-.71,0,3.84,3.84,0,0,1-.9-.41,3.7,3.7,0,0,0-2.6-.22,3.23,3.23,0,0,0-1.35,1.19,4.25,4.25,0,0,0-.74,3.38c0,.18,0,.36.07.54a3.07,3.07,0,0,1,2.22-.63A10.06,10.06,0,0,0,45.81,17Z"/><path class="cls-14" d="M21.38,23.86a.2.2,0,0,0,.2-.11c0-.23.05-.45.06-.68.11-1.25.24-2.5.46-3.74a2.92,2.92,0,0,0-.51-.44,2.41,2.41,0,0,0-1-.45,1.74,1.74,0,0,0-1.34.15A17.25,17.25,0,0,0,21.38,23.86Z"/><path class="cls-14" d="M24.18,23.12a.21.21,0,0,0,.2-.12l.06-.67c.1-1.25.24-2.5.46-3.74a2.92,2.92,0,0,0-.51-.44,2.33,2.33,0,0,0-1-.45,1.67,1.67,0,0,0-1.33.15A17.1,17.1,0,0,0,24.18,23.12Z"/><path class="cls-14" d="M26.79,21.32a.21.21,0,0,0,.2-.12c0-.23.05-.45.06-.67.11-1.26.24-2.51.46-3.74a3.44,3.44,0,0,0-.5-.45,2.51,2.51,0,0,0-1-.45,1.74,1.74,0,0,0-1.34.15A17.41,17.41,0,0,0,26.79,21.32Z"/><path class="cls-14" d="M30.39,21.23a.2.2,0,0,0,.2-.12c0-.23.05-.45.07-.67.1-1.26.23-2.51.45-3.74a3.44,3.44,0,0,0-.5-.45,2.45,2.45,0,0,0-1-.45,1.76,1.76,0,0,0-1.33.15A17.39,17.39,0,0,0,30.39,21.23Z"/><path class="cls-14" d="M34.11,21.06a.2.2,0,0,0,.18-.15c0-.22,0-.45,0-.67-.09-1.25-.15-2.51-.13-3.77a4.48,4.48,0,0,0-.57-.36,2.58,2.58,0,0,0-1-.29,1.78,1.78,0,0,0-1.3.36A17.65,17.65,0,0,0,34.11,21.06Z"/><path class="cls-14" d="M36.76,20.23a.21.21,0,0,0,.18-.15c0-.22,0-.45,0-.67-.09-1.26-.16-2.51-.13-3.77a3,3,0,0,0-.57-.36A2.58,2.58,0,0,0,35.14,15a1.71,1.71,0,0,0-1.29.36A17.17,17.17,0,0,0,36.76,20.23Z"/><path class="cls-14" d="M39.05,19.11a.25.25,0,0,0,.18-.15c0-.22,0-.45,0-.67-.09-1.26-.16-2.51-.13-3.77a3,3,0,0,0-.57-.36,2.43,2.43,0,0,0-1.06-.29,1.71,1.71,0,0,0-1.29.36A17.17,17.17,0,0,0,39.05,19.11Z"/><path class="cls-22" d="M48,11.73a16.16,16.16,0,0,0-1.83-4.44A7.17,7.17,0,0,0,43.12,4a6.17,6.17,0,0,0-2.65-.51,10.76,10.76,0,0,0-6.95,2.4,10.08,10.08,0,0,0-1.43,2.3,9.71,9.71,0,0,1-4.77,3.92,14.76,14.76,0,0,1-4.43.65c-1.38.05-2.87-.08-4.05.78A6.22,6.22,0,0,0,17,19.08c.49,2,2,2.06,3.63,1.58a19.29,19.29,0,0,1,7.09-.7c3.81.3,7.92.44,11.17-1.9a5.85,5.85,0,0,1,3-1.53c1.16-.05,2.28.43,3.44.13a3.92,3.92,0,0,0,2.86-3.52A6.85,6.85,0,0,0,48,11.73Z"/><path class="cls-23" d="M32.59,9.83a.57.57,0,0,1-1.13.21.57.57,0,0,1,.46-.67A.58.58,0,0,1,32.59,9.83Z"/><path class="cls-24" d="M31.86,9.69a.14.14,0,0,1-.12.17.14.14,0,0,1-.17-.12.15.15,0,0,1,.12-.17A.14.14,0,0,1,31.86,9.69Z"/><path class="cls-23" d="M37.56,9.45a.57.57,0,0,1-1.13.21A.57.57,0,0,1,36.89,9,.58.58,0,0,1,37.56,9.45Z"/><path class="cls-24" d="M36.83,9.31a.15.15,0,0,1-.12.17.14.14,0,0,1-.17-.12.14.14,0,0,1,.11-.17A.15.15,0,0,1,36.83,9.31Z"/><path class="cls-14" d="M31.5,1.68a.28.28,0,0,1,.29,0c.16.23.32.45.47.68C33.13,3.65,34,4.91,35,6.11a4.2,4.2,0,0,1-.28.78A3.23,3.23,0,0,1,33.9,8a2.23,2.23,0,0,1-1.55.64A20.74,20.74,0,0,1,31.5,1.68Z"/><path class="cls-14" d="M40.25,4.17A16.52,16.52,0,0,0,37.87,0a.23.23,0,0,0-.19.14c0,.24,0,.47,0,.7,0,1.25,0,2.5,0,3.74C38.25,5.47,39.83,5.1,40.25,4.17Z"/><path class="cls-14" d="M28.3,12.41a13.23,13.23,0,0,0-1.91-3.33.15.15,0,0,0-.15.11c0,.19,0,.37,0,.56,0,1,0,2,0,3A1.29,1.29,0,0,0,28.3,12.41Z"/><path class="cls-14" d="M22,13.75a7.4,7.4,0,0,0-1.09-1.92.1.1,0,0,0-.09.06v.32a16.42,16.42,0,0,1,0,1.72A.74.74,0,0,0,22,13.75Z"/><path class="cls-14" d="M44.83,6.17A20.92,20.92,0,0,0,46.92.4a.25.25,0,0,0-.29-.06L46,.92C44.77,2,43.55,3,42.28,4,41.91,5.3,43.58,6.52,44.83,6.17Z"/><path class="cls-25" d="M18.53,18.77c.11.58,0,1.11-.35,1.17s-.65-.37-.77-1,0-1.11.35-1.17S18.41,18.18,18.53,18.77Z"/><path class="cls-25" d="M23.42,17.8c.11.59,0,1.11-.35,1.17s-.65-.36-.77-.95,0-1.1.35-1.16S23.3,17.22,23.42,17.8Z"/><path class="cls-26" d="M18.05,16.69c-.16-.21-.3-.35-.57-.19a1.79,1.79,0,0,0-.5,1.71s.07,0,.06,0v0s0,0,0,0l0,0a1.75,1.75,0,0,0,.09-.41,3.35,3.35,0,0,1,.25-.69c.33-.74,1,.34,1.16.65,0,0,.07,0,.07-.06A2.22,2.22,0,0,0,18.05,16.69Z"/><path class="cls-26" d="M22.12,15c-.65.23-1.05,1.46-1,2.07,0,0,.07,0,.07,0,.11-.65.66-1.94,1.51-1.63.64.24,1,.81,1.41,1.29,0,0,.11-.07.09-.1C23.82,15.89,23.11,14.68,22.12,15Z"/><g class="cls-7"><path class="cls-8" d="M44.4,14.34c-.4,0-.89,0-1,.45-.08.26-.19.46,0,.71A.84.84,0,0,0,44,16c.32,0,.61-.36.81-.56a.69.69,0,0,0,.2-.7C45,14.35,44.68,14.36,44.4,14.34Z"/><path class="cls-8" d="M42.66,14.08c-.06-.2-.13-.45-.39-.44s-.25,0-.35.1a.47.47,0,0,0-.12.4c.06.16.28.25.41.32a.37.37,0,0,0,.38,0C42.74,14.35,42.7,14.22,42.66,14.08Z"/><path class="cls-8" d="M42.39,15.6c-.1,0-.26-.09-.34,0a.24.24,0,0,0-.07.13c-.06.1,0,.22,0,.32s.08.27.21.28.28-.15.37-.23a.3.3,0,0,0,.14-.3C42.68,15.69,42.48,15.64,42.39,15.6Z"/></g><g class="cls-7"><path class="cls-8" d="M41.76,21.7c-.23,0-.52,0-.6.26s-.11.27,0,.41a.5.5,0,0,0,.38.27c.19,0,.36-.21.48-.33a.41.41,0,0,0,.11-.41C42.08,21.71,41.92,21.71,41.76,21.7Z"/><path class="cls-8" d="M40.75,21.54c0-.11-.08-.25-.23-.25s-.15,0-.2.06a.27.27,0,0,0-.07.24c0,.08.16.14.23.18a.22.22,0,0,0,.22,0C40.79,21.71,40.77,21.63,40.75,21.54Z"/><path class="cls-8" d="M40.59,22.43c-.06,0-.15-.05-.2,0a.36.36,0,0,0,0,.09.23.23,0,0,0,0,.18c0,.07,0,.16.12.16s.16-.09.22-.13a.21.21,0,0,0,.08-.18C40.76,22.48,40.64,22.46,40.59,22.43Z"/></g><path class="cls-20" d="M54.12,9c-.82,0-2.08,0-2.58-.8-.28-.45.06-.86.59-1.19a1.26,1.26,0,0,1-.64-.42,1.94,1.94,0,0,1,.06-2.25,3.27,3.27,0,0,1,1-1c-.81-.09-1.37-.39-1.23-1.14a3.64,3.64,0,0,1,1.4-2,23.28,23.28,0,0,0-2.48.84,14.11,14.11,0,0,0-4.05,2.29,9.62,9.62,0,0,0-3.14,5c1,1.56,3.61,2.37,5.15,2.63A7.74,7.74,0,0,0,55.09,9,4,4,0,0,1,54.12,9Z"/><path class="cls-21" d="M52.32,9.86c-1.41.23-3.85.79-4.94-.47a.13.13,0,0,1,0-.2,13.34,13.34,0,0,1,1.65-.69c.68-.29,1.37-.58,2-.91l1-.49c-.5.17-1,.34-1.51.49-.85.26-1.7.49-2.55.71a4.74,4.74,0,0,1-1.62.26c-1.56-.14.79-2.14,1.17-2.41a28.13,28.13,0,0,1,2.84-1.71c.61-.33,1.22-.66,1.84-1a24.41,24.41,0,0,0-6.87,3c-.12.07-.28-.06-.19-.18a19.44,19.44,0,0,1,4-4.12,23.21,23.21,0,0,1,3.51-2,26,26,0,0,0-2.49.85,14.11,14.11,0,0,0-4.05,2.29,9.62,9.62,0,0,0-3.14,5c1,1.56,3.61,2.37,5.15,2.63A7.79,7.79,0,0,0,55,9.08,11.46,11.46,0,0,1,52.32,9.86Z"/><g class="cls-7"><path class="cls-8" d="M45.1,27.24c-.2-.13-.44-.27-.64-.08s-.23.18-.21.35a.46.46,0,0,0,.2.43c.16.09.41,0,.57-.05a.42.42,0,0,0,.31-.29C45.38,27.4,45.24,27.32,45.1,27.24Z"/><path class="cls-8" d="M44.3,26.59c0-.11.06-.26-.06-.33s-.13-.08-.21-.05-.16.08-.18.17.06.2.11.28a.22.22,0,0,0,.2.1C44.26,26.76,44.28,26.68,44.3,26.59Z"/><path class="cls-8" d="M43.72,27.28c0-.05-.1-.12-.17-.09a.14.14,0,0,0-.08,0,.23.23,0,0,0-.08.16c0,.06,0,.16,0,.2s.19,0,.26,0a.16.16,0,0,0,.15-.11C43.84,27.41,43.76,27.33,43.72,27.28Z"/></g><g class="cls-7"><path class="cls-8" d="M45.11,41.45c-.31-.2-.7-.41-1-.11s-.36.27-.33.54a.79.79,0,0,0,.32.67,1.4,1.4,0,0,0,.9-.08.65.65,0,0,0,.48-.45C45.54,41.71,45.33,41.59,45.11,41.45Z"/><path class="cls-8" d="M43.85,40.44c0-.18.1-.41-.1-.52s-.19-.14-.32-.08-.26.12-.28.26.1.32.17.44a.36.36,0,0,0,.31.17C43.79,40.7,43.82,40.57,43.85,40.44Z"/><path class="cls-8" d="M42.94,41.52c-.06-.07-.16-.19-.27-.15a.23.23,0,0,0-.11.08c-.09,0-.11.17-.14.25s-.06.25,0,.32.29,0,.4,0a.28.28,0,0,0,.25-.18C43.14,41.72,43,41.6,42.94,41.52Z"/></g><g class="cls-7"><path class="cls-8" d="M69.43,35.77c-.31-.19-.7-.41-1-.11s-.36.27-.33.55a.76.76,0,0,0,.32.67c.25.13.64,0,.89-.08a.63.63,0,0,0,.48-.46C69.86,36,69.65,35.91,69.43,35.77Z"/><path class="cls-8" d="M68.18,34.77c0-.19.09-.41-.11-.52s-.19-.14-.32-.08-.26.12-.28.26.1.32.17.43A.34.34,0,0,0,68,35C68.11,35,68.14,34.9,68.18,34.77Z"/><path class="cls-8" d="M67.26,35.85c-.05-.08-.15-.19-.26-.15a.24.24,0,0,0-.12.07c-.09,0-.11.17-.14.26s-.06.25,0,.32.29,0,.4,0a.27.27,0,0,0,.25-.17C67.46,36.05,67.32,35.92,67.26,35.85Z"/></g><g class="cls-7"><path class="cls-8" d="M60.13,45.88c.34.12.76.25,1-.11.14-.2.29-.34.21-.6s-.18-.51-.45-.58-.63.13-.86.25a.66.66,0,0,0-.38.55C59.65,45.71,59.88,45.78,60.13,45.88Z"/><path class="cls-8" d="M61.56,46.6c0,.19,0,.42.21.49s.21.1.33,0,.22-.17.22-.31-.17-.3-.26-.39a.34.34,0,0,0-.33-.1C61.57,46.34,61.57,46.47,61.56,46.6Z"/><path class="cls-8" d="M62.23,45.36c.07.06.19.15.29.09a.24.24,0,0,0,.1-.1.46.46,0,0,0,.08-.28c0-.11,0-.25-.1-.3s-.29,0-.39.09a.29.29,0,0,0-.21.23C62,45.2,62.16,45.29,62.23,45.36Z"/></g><g class="cls-7"><path class="cls-8" d="M48.26,54.06c-.31-.2-.69-.41-1-.11s-.36.27-.33.54a.79.79,0,0,0,.32.67,1.39,1.39,0,0,0,.9-.07.67.67,0,0,0,.48-.46C48.7,54.32,48.48,54.2,48.26,54.06Z"/><path class="cls-8" d="M47,53.05c.05-.18.1-.41-.1-.52s-.19-.14-.33-.08a.41.41,0,0,0-.28.26c0,.15.11.32.18.44a.33.33,0,0,0,.3.16C47,53.31,47,53.18,47,53.05Z"/><path class="cls-8" d="M46.1,54.13c-.06-.08-.16-.18-.27-.15a.25.25,0,0,0-.12.08c-.08,0-.1.16-.13.25s-.06.25,0,.32.29,0,.4,0a.27.27,0,0,0,.24-.18C46.3,54.33,46.16,54.21,46.1,54.13Z"/></g><g class="cls-7"><path class="cls-8" d="M80.11,42.54c.36-.08.79-.2.8-.63,0-.25.06-.45-.16-.62a.77.77,0,0,0-.69-.25c-.28.09-.46.46-.58.68a.65.65,0,0,0,0,.67C79.62,42.66,79.86,42.6,80.11,42.54Z"/><path class="cls-8" d="M81.71,42.37c.09.17.22.36.44.29s.23,0,.29-.17.09-.27,0-.38a.69.69,0,0,0-.43-.18.35.35,0,0,0-.34.09C81.57,42.14,81.64,42.25,81.71,42.37Z"/><path class="cls-8" d="M81.59,41c.1,0,.24,0,.3-.08a.35.35,0,0,0,0-.14.41.41,0,0,0-.09-.28c0-.09-.13-.21-.25-.19s-.21.2-.27.29a.28.28,0,0,0-.06.3C81.31,41,81.5,41,81.59,41Z"/></g><path class="cls-27" d="M21.07,30.77a5.18,5.18,0,0,0-1.32.36l.17-.08a2.87,2.87,0,0,0,1.16-.84c.11-.13.81-1.05.67-1.39A3.75,3.75,0,0,1,19.1,30.2,8.17,8.17,0,0,1,14,28.39c-1.52-1.21-2.66-2.85-4.25-4a5.44,5.44,0,0,0-2.76-.23A3.79,3.79,0,0,0,4,26.87V27a8.21,8.21,0,0,0,1.12,2.86l0,.07a3.85,3.85,0,0,1,.36.62,2.45,2.45,0,0,1,.38,1.19c-.08,2-2.57,2.17-3.84,1.07-.13.58.86,1.2,1.59,1.54a2.32,2.32,0,0,0-.35.35,3.53,3.53,0,0,0-.69,2c.09,1,.34,2-.64,2.78a2.75,2.75,0,0,1-2,.47,4.26,4.26,0,0,0,1.28.45,4.51,4.51,0,0,0,2.25-.06,4.83,4.83,0,0,0,1-.4c0,.63.24,1.41.75,1.58a2.89,2.89,0,0,1,.84-2.23,5.15,5.15,0,0,1,1.45-1.62c1.46-1,3.49-.27,5.12-.1a5.28,5.28,0,0,1-2.59.13,4.41,4.41,0,0,1,.39.3,3.27,3.27,0,0,0,1.21.63,5.58,5.58,0,0,0,.57.08c.34,0,.67.17,1,.18a5,5,0,0,0,3.73-1,4.67,4.67,0,0,0,1.12-1.62,10,10,0,0,0,.47-2.14,4.52,4.52,0,0,1,1.29-2.3,3.4,3.4,0,0,1,.87-.68.92.92,0,0,0,.4-.27C21.19,30.81,21.13,30.77,21.07,30.77Z"/><path class="cls-28" d="M14.4,29.83c-1.33-1-2.28-2.46-3.67-3.36a3.12,3.12,0,0,0-4.27.68c.29-.12,1.23.05,1,.1C6,27.67,6.68,29.41,7,30.44a4,4,0,0,1,.07,2.42,3.27,3.27,0,0,1-3.24,2.49A3.31,3.31,0,0,0,6,35.48c.17,0-1.45,1.22-1.29,2.49a4.84,4.84,0,0,1,2.61-2.44c2.46-.85,5.05,1.93,7.34.52.15-.09-.3,1-.72,1.31a4.19,4.19,0,0,0,2.9-3.1,7.14,7.14,0,0,1,.4-1.29,5.5,5.5,0,0,1,1.45-1.86A6.68,6.68,0,0,1,14.4,29.83Z"/><path class="cls-28" d="M15.64,34.13a4.11,4.11,0,0,1-3.46,1.46c-1.42-.06-2.84-.5-4.26-.42a3.15,3.15,0,0,0-2.23.9A2.62,2.62,0,0,0,5,37.43a4.69,4.69,0,0,1,2.3-1.9c2.46-.85,5.05,1.93,7.34.52.15-.09-.3,1-.72,1.31a4.19,4.19,0,0,0,2.9-3.1,7.14,7.14,0,0,1,.4-1.29,5.5,5.5,0,0,1,1.45-1.86,3.62,3.62,0,0,1-.47,0C17.11,31.78,16.42,33.23,15.64,34.13Z"/><path class="cls-29" d="M63,34.12a1,1,0,1,1-1.2-.53A.93.93,0,0,1,63,34.12Z"/><path class="cls-17" d="M107.27,10.28a3.1,3.1,0,0,0-.52-.74c-.18-.25-.37-.51-.58-.75-.51-.58-1.06-1.15-1.63-1.69C99.63,2.42,92.19.45,85.56.56a41.31,41.31,0,0,0-5.87.53A37,37,0,0,0,67.88,5c-.32.17-.94.58-1,1V6.1c0,.38.75,1.05,1,1.37A15.84,15.84,0,0,1,69.36,22a28.69,28.69,0,0,1-1.89,4.24,62.57,62.57,0,0,1-4,5.74c-.34.48-.75.91-1.13,1.36-.16.18-.87.93-.57,1.2s1.06-.28,1.33-.47c.53-.39,1.09-.75,1.62-1.14a22,22,0,0,1,3.21-2.12,17.45,17.45,0,0,1,7.25-2,7.79,7.79,0,0,1,7.65,5.91,8.94,8.94,0,0,0,.37,1.61c.06.14.23-.09.24-.15a11.26,11.26,0,0,1,.27-1.82c1.14-3.72,6.39-5,9.67-3.57a16.16,16.16,0,0,0,2.49.95,11.29,11.29,0,0,0-.26-1.63c-.4-3.64-.13-8,3.82-9.46a5.57,5.57,0,0,1,2.77-.31,4.5,4.5,0,0,1,.91.38c.26.12.45.37.74.45.11,0,.24-.17.16-.26a15,15,0,0,1-1-1.48c-1.62-2.48-4-7.84.09-9.22a5.31,5.31,0,0,1,2.1-.14c.3,0,.6.06.89.11s.66.27,1,.34A.19.19,0,0,0,107.27,10.28Z"/><path class="cls-18" d="M80.26,26.61C79,23,73.45,7.31,71.86,8.27c-1,.62,2.09,7.66-2.7,17.26a45.53,45.53,0,0,1-3.85,5.83c-.58.8-1.16,1.6-1.78,2.37.4-.28.81-.55,1.2-.84a22,22,0,0,1,3.21-2.12,17.45,17.45,0,0,1,7.25-2,7.72,7.72,0,0,1,6.67,3.65A55.34,55.34,0,0,0,80.26,26.61Z"/><path class="cls-18" d="M76,6.88c-.42-.14-2.09-.43-1.83.25.53,1.42,11.48,7.71,19.45,19.1a21.33,21.33,0,0,1,2,3.74c-.39-3.61-.08-7.85,3.83-9.33a5.57,5.57,0,0,1,2.77-.31l.11,0A137.36,137.36,0,0,0,84.25,10C83.74,9.78,78.26,7.63,76,6.88Z"/><path class="cls-18" d="M102.75,7.1A31.56,31.56,0,0,0,86.17,2.64c-1.7.06-11.15,1-11.36,2.66-.15,1.16,2,1,4.34,1.86,10,3.86,20.29,9.45,21.95,10.65a18.32,18.32,0,0,1,1.76,1.4c-1.61-2.55-3.78-7.67.23-9a5.31,5.31,0,0,1,2.1-.14c.3,0,.6.06.89.11s.62.25,1,.32A28.31,28.31,0,0,0,102.75,7.1Z"/><path class="cls-18" d="M94.4,30c-.76-1.17-1.45-2.37-2.21-3.54A50.71,50.71,0,0,0,82.05,14.91c-1.12-.92-2.26-2.32-3.82-3.57-.56-.45-4.24-4.15-5-3.67s.8,1.21,3.11,5.88a83.66,83.66,0,0,1,4.87,13.21,86.35,86.35,0,0,1,2.29,9.16,8.52,8.52,0,0,1,.24-1.57c1.14-3.72,6.39-5,9.67-3.57.1,0,1.36.6,2,.85C95.12,31.06,94.72,30.53,94.4,30Z"/><path class="cls-30" d="M106.75,9.54c-.18-.25-.37-.51-.58-.75-.51-.58-1.06-1.15-1.63-1.69C99.63,2.42,92.19.45,85.56.56a41.31,41.31,0,0,0-5.87.53A37,37,0,0,0,67.88,5c-.32.17-.94.58-1,1V6.1c0,.38.75,1.05,1,1.37A15.84,15.84,0,0,1,69.36,22a28.69,28.69,0,0,1-1.89,4.24,62.57,62.57,0,0,1-4,5.74c-.34.48-.75.91-1.13,1.36-.16.18-.87.93-.57,1.2.77.67,3.39-3.26,3.7-3.69a34.62,34.62,0,0,0,3.65-6,25.13,25.13,0,0,0,2-6.72,25.66,25.66,0,0,0,.28-4.63A16.39,16.39,0,0,0,70.93,10c-.26-1.06-.84-2.34-.48-3.44.55-1.66,3-2.39,4.43-2.89A35.49,35.49,0,0,1,87.51,2c1.24,0,2.48.12,3.71.25A32,32,0,0,1,100,4.63a18.42,18.42,0,0,1,4.2,2.85c.67.53,1.32,1.09,2,1.64.31.27.67.67,1.05,1C107.06,9.9,106.89,9.72,106.75,9.54Z"/><path class="cls-16" d="M49.61,45.62a5.25,5.25,0,0,0-5.29-.47c-4.7,2.47-1.47,5.28-2.49,7.73-.41,1-1.39,1.26-2.37,1.68a10.28,10.28,0,0,1-1.8.6c-.37.75-.72,1.51-1.13,2.25A32,32,0,0,1,41,58.5c.77.27,1.55.4,2.32.62a5.81,5.81,0,0,0,2.13.42,4.61,4.61,0,0,0,2-.84c3-1.89,5.17-5.87,4.3-9.45A6.11,6.11,0,0,0,49.61,45.62Z"/><path class="cls-6" d="M30.47,55.94a1.3,1.3,0,0,0-1.34-.51l-.32.07a9.41,9.41,0,0,0-1,.42,3,3,0,0,0-.73.64l.51.1c.91.16,1.82.35,2.71.6C31,57.09,30.82,56.4,30.47,55.94Z"/><path class="cls-31" d="M50.21,48.44c-1-2.22-3.76-3.8-6.09-2.45a3.71,3.71,0,0,0-1.84,2.45c-.32,1.47.74,2.82-.07,4.25-1.51,2.69-5.83,1.65-8.29,1.63a7.76,7.76,0,0,0-3.16.56c-1.76.76-3.88,3.15-1.35,4.49a6.67,6.67,0,0,0,2.86.67c.92.05,2.26.17,3-.45a19.14,19.14,0,0,0,1.63-1.87c1.39.15,2.78.5,4.16.69a34.75,34.75,0,0,0,4.69.34,6.22,6.22,0,0,0,2.92-2.18,9,9,0,0,0,1.85-7.12A4.59,4.59,0,0,0,50.21,48.44Z"/><path class="cls-6" d="M28.64,57.19a1,1,0,0,0-.95.67,2.6,2.6,0,0,0-.1.25,7.17,7.17,0,0,0-.18.9,2.26,2.26,0,0,0,.1.78l.3-.3c.52-.54,1.06-1.07,1.63-1.57C29.63,57.38,29.11,57.15,28.64,57.19Z"/><path class="cls-6" d="M29.93,58.44a1,1,0,0,0-.95.68,1.86,1.86,0,0,0-.1.25,9,9,0,0,0-.18.9,2.21,2.21,0,0,0,.1.77l.3-.3c.52-.54,1.06-1.07,1.63-1.56C30.93,58.63,30.4,58.41,29.93,58.44Z"/><path class="cls-6" d="M32.18,59.29a1.09,1.09,0,0,0-.76.89c0,.08,0,.18,0,.27,0,.3,0,.61,0,.91a2.32,2.32,0,0,0,.29.73c.08-.12.15-.24.22-.36q.56-1,1.2-1.92C33.2,59.24,32.63,59.14,32.18,59.29Z"/><g class="cls-7"><path class="cls-8" d="M45.51,53.52c.36-.06.79-.16.83-.59,0-.25.08-.45-.13-.63a.77.77,0,0,0-.68-.28c-.28.07-.48.44-.61.65a.67.67,0,0,0-.05.67C45,53.62,45.26,53.57,45.51,53.52Z"/><path class="cls-8" d="M47.12,53.43c.08.17.2.37.42.31s.24,0,.29-.15a.42.42,0,0,0,0-.39c-.08-.13-.3-.17-.43-.2a.31.31,0,0,0-.33.08C47,53.2,47.05,53.31,47.12,53.43Z"/><path class="cls-8" d="M47.07,52c.09,0,.24,0,.3-.06a.35.35,0,0,0,0-.14.41.41,0,0,0-.07-.28c0-.1-.12-.22-.24-.21s-.22.19-.29.28a.27.27,0,0,0-.06.29C46.79,52,47,52,47.07,52Z"/></g><g class="cls-7"><path class="cls-8" d="M32,57.37c.3-.06.67-.14.7-.51s.07-.39-.11-.54a.64.64,0,0,0-.58-.24c-.24.06-.41.37-.53.56a.58.58,0,0,0,0,.57C31.6,57.45,31.8,57.4,32,57.37Z"/><path class="cls-8" d="M33.4,57.29c.07.14.17.31.36.27s.2,0,.25-.14a.33.33,0,0,0,0-.33c-.07-.11-.25-.14-.36-.17a.3.3,0,0,0-.29.06C33.29,57.08,33.34,57.18,33.4,57.29Z"/><path class="cls-8" d="M33.29,56.19c.08,0,.2,0,.25,0a1.22,1.22,0,0,0,.1-.24c0-.08-.1,0-.13-.12s-.1-.19-.21-.18-.18.16-.24.24a.24.24,0,0,0-.06.25C33,56.18,33.2,56.18,33.29,56.19Z"/></g><path class="cls-16" d="M78.56,60.19a9.15,9.15,0,0,0-2.73-6.4c-3.22-2.81-8.75-2.66-12.22-.38-4.63,3.05-7.29,9.46-6.73,15.18a31.42,31.42,0,0,0,7.75.06c4.83-.62,9.82-1.76,13.56-5.07A14.92,14.92,0,0,0,78.56,60.19Z"/><path class="cls-31" d="M84.2,64.23A2.18,2.18,0,0,0,84,64c-1.29-1.24-2.61,0-3.72.83a4.8,4.8,0,0,1-2,1h-.08a21.51,21.51,0,0,0-.06-2.27c-.71-6.42-6.31-13-13.24-9.06a12.1,12.1,0,0,0-4.43,5.37,14.15,14.15,0,0,0-.76,7.29c.58,4.55,2.76,10.13,7.19,12.2a9.41,9.41,0,0,0,10.6-2.18c0,.37-2.13,10.74,1.24,9.74.73-.22.43-1.74.36-2.18.16,1.12.66,1.9,1.26,1.8.34,0,.48-.37.57-.66a7.32,7.32,0,0,0,0-2.09c.18.62.46,1.56,1.07,1.88C84.1,86.77,85,70.43,85.07,68.81S85.23,65.48,84.2,64.23Z"/><path class="cls-3" d="M79.12,85.43A10.44,10.44,0,0,1,78.27,81,7.24,7.24,0,0,0,78,83a12.71,12.71,0,0,0,.36,2.45,3.35,3.35,0,0,1,0,1.48,1.59,1.59,0,0,0,.3-.06C79.12,86.69,79.16,86,79.12,85.43Z"/><path class="cls-3" d="M80.82,83.84a18.82,18.82,0,0,1,0-5.3,10,10,0,0,0-.64,4.22,12.41,12.41,0,0,1,.3,3.62,1,1,0,0,0,.36-.59A6.72,6.72,0,0,0,80.82,83.84Z"/><path class="cls-3" d="M82.08,63.59a2.29,2.29,0,0,1,1.66,1.27,10.64,10.64,0,0,1,.71,3.4A20.33,20.33,0,0,1,84.54,72c-.14,2.68-.61,5.31-.9,8a23.22,23.22,0,0,1-.79,5c1.51-3,2.13-14.75,2.22-16.11.09-1.52.16-3.33-.87-4.58A2.18,2.18,0,0,0,84,64,1.6,1.6,0,0,0,82.08,63.59Z"/><path class="cls-5" d="M80.87,78.26c0,.54-.11,1.11-.16,1.65s0,1.31,0,2a5.09,5.09,0,0,0,.56,2.85s0,0,0,0a7.8,7.8,0,0,1-.45-3.18c0-.6,0-1.19,0-1.79a11.88,11.88,0,0,0,.06-1.46S80.87,78.23,80.87,78.26Z"/><path class="cls-5" d="M78.3,80.72a10.2,10.2,0,0,0,.22,2.76,6.31,6.31,0,0,0,.79,2.24s0,0,0-.06a14.43,14.43,0,0,1-1-4.94S78.3,80.7,78.3,80.72Z"/><path class="cls-6" d="M81.62,83.73a1.26,1.26,0,0,0-.38,1,4.13,4.13,0,0,0,1.54,2,1.15,1.15,0,0,0,0-.18c0-.93.06-1.85.16-2.77C82.67,83.07,82,83.3,81.62,83.73Z"/><path class="cls-6" d="M79.62,84.87a1.18,1.18,0,0,0-.13,1.38,2.65,2.65,0,0,0,.43.62,4.31,4.31,0,0,0,.37.37s.4.27.4.32V87.4c0-.6,0-1.2.08-1.8,0-.29.14-.62,0-.89a.54.54,0,0,0-.71-.13A1.33,1.33,0,0,0,79.62,84.87Z"/><path class="cls-6" d="M77.71,85.64A1.14,1.14,0,0,0,77.58,87a2.7,2.7,0,0,0,.42.62,4.4,4.4,0,0,0,.38.37c.05,0,.4.28.4.33v-.17c0-.6,0-1.2.08-1.79,0-.29.14-.63,0-.89a.54.54,0,0,0-.72-.13A1.28,1.28,0,0,0,77.71,85.64Z"/><g class="cls-7"><path class="cls-8" d="M72.44,60.6a1.1,1.1,0,0,0-.7-.86c-.4-.16-1-.47-1.47-.3s-.57.62-.67,1,.17.66.43,1c.47.57,1.15.29,1.7,0C72.13,61.29,72.51,61.13,72.44,60.6Z"/><path class="cls-8" d="M69.12,62.4a.55.55,0,0,0-.53.22c-.15.17-.4.43-.39.68s.23.38.42.49.35,0,.55-.06.32-.53.28-.84S69.4,62.45,69.12,62.4Z"/></g><g class="cls-7"><path class="cls-8" d="M73.83,78.63a.87.87,0,0,0,.11-.89c-.13-.32-.29-.85-.64-1a1,1,0,0,0-1,.19c-.32.19-.28.46-.32.79-.07.58.47.82.93,1S73.57,79,73.83,78.63Z"/><path class="cls-8" d="M71,77.71a.46.46,0,0,0-.42-.19c-.18,0-.47,0-.61.16a.54.54,0,0,0-.06.51c0,.19.19.22.35.29s.48-.11.64-.31S71.08,77.9,71,77.71Z"/></g><path class="cls-32" d="M50.85,18.36a6.63,6.63,0,0,1,6.42-5.92A7.24,7.24,0,0,0,50.85,18.36Z"/></g></g></g></svg>