<svg xmlns="http://www.w3.org/2000/svg" xmlns:xlink="http://www.w3.org/1999/xlink" viewBox="0 0 60.99 100"><defs><style>.cls-1{isolation:isolate;}.cls-2{fill:#965da2;}.cls-13,.cls-2,.cls-3{opacity:0.5;}.cls-3,.cls-4,.cls-7{mix-blend-mode:screen;}.cls-15,.cls-4{fill:#fff;}.cls-12,.cls-13,.cls-17,.cls-5{fill:#f8c49f;}.cls-6{fill:#e9808e;}.cls-8{fill:#48557c;}.cls-9{fill:#324482;}.cls-10{fill:#eea7a0;}.cls-11{fill:#141d20;}.cls-12{opacity:0.4;}.cls-12,.cls-13,.cls-17,.cls-21{mix-blend-mode:multiply;}.cls-14{fill:#382625;}.cls-16{fill:#263136;}.cls-18{fill:#ed807f;}.cls-19{fill:#e86982;}.cls-20{fill:#e01d55;}.cls-21{opacity:0.9;fill:url(#linear-gradient);}</style><linearGradient id="linear-gradient" x1="-3802.74" y1="-2906.16" x2="-3799.83" y2="-2906.16" gradientTransform="matrix(0, 1, 1, 0, 2926.27, 3819.01)" gradientUnits="userSpaceOnUse"><stop offset="0.01" stop-color="#b5b5b5"/><stop offset="0.62" stop-color="#646464"/><stop offset="1" stop-color="#353535"/></linearGradient></defs><g class="cls-1"><g id="Слой_2" data-name="Слой 2"><g id="Layer_1" data-name="Layer 1"><path class="cls-2" d="M50.3,49.92a15.52,15.52,0,0,0,6.13-4.75C57.61,43.66,59.57,41,59,38.86a.44.44,0,0,0-.08-.11c-.51-.56-1.48-.37-2.15-.33l-1.22.06a42.32,42.32,0,0,0-8.36,1.94,24.81,24.81,0,0,0-8.43,4.28c-1.26,1.1-3.43,3.21-4.15,5.31a2.91,2.91,0,0,0,.17.66A24,24,0,0,0,50.3,49.92Z"/><path class="cls-2" d="M48.05,59.36a15.49,15.49,0,0,0,7.67-1.2c1.76-.76,4.79-2.17,5.27-4.3,0,0,0-.09,0-.14-.17-.73-1.12-1-1.72-1.32l-1.1-.54a42.22,42.22,0,0,0-8.26-2.35,25.05,25.05,0,0,0-9.45-.32c-1.63.36-4.56,1.15-6.2,2.64a2.65,2.65,0,0,0-.16.66A23.92,23.92,0,0,0,48.05,59.36Z"/><g class="cls-3"><path class="cls-4" d="M54.2,40.7c.22.72-1.1,1.76-2.94,2.3s-3.52.41-3.73-.32,1.1-1.76,2.95-2.3S54,40,54.2,40.7Z"/><path class="cls-4" d="M46.35,43.1c.12.37-.57.92-1.54,1.2s-1.84.21-2-.17.58-.92,1.54-1.2S46.24,42.72,46.35,43.1Z"/></g><g class="cls-3"><path class="cls-4" d="M59.63,54.58c-.17.74-1.83,1-3.7.56S52.68,53.76,52.85,53s1.82-1,3.7-.55S59.8,53.85,59.63,54.58Z"/><path class="cls-4" d="M51.62,52.8c-.09.39-1,.52-1.94.29S48,52.37,48.06,52s1-.51,1.94-.29S51.71,52.42,51.62,52.8Z"/></g><path class="cls-2" d="M11.85,52a15.58,15.58,0,0,1-6.14-4.75C4.54,45.72,2.57,43,3.18,40.92l.08-.12c.51-.55,1.48-.36,2.15-.32l1.22.06A41.62,41.62,0,0,1,15,42.48a24.81,24.81,0,0,1,8.43,4.28c1.26,1.1,3.44,3.21,4.15,5.31a2.3,2.3,0,0,1-.17.65A23.85,23.85,0,0,1,11.85,52Z"/><path class="cls-2" d="M14.09,61.42a15.49,15.49,0,0,1-7.67-1.2c-1.76-.76-4.79-2.17-5.27-4.3,0-.05,0-.1,0-.15.17-.73,1.12-1,1.72-1.32L4,53.92a42.22,42.22,0,0,1,8.26-2.35,24.85,24.85,0,0,1,9.45-.32c1.63.35,4.56,1.15,6.2,2.64a2.65,2.65,0,0,1,.16.66A23.92,23.92,0,0,1,14.09,61.42Z"/><g class="cls-3"><path class="cls-4" d="M7.94,42.76c-.22.72,1.1,1.75,2.94,2.3s3.52.4,3.73-.32-1.1-1.76-2.95-2.3S8.15,42,7.94,42.76Z"/><path class="cls-4" d="M15.79,45.15c-.12.38.57.92,1.54,1.21s1.84.21,2-.17-.58-.92-1.54-1.2S15.9,44.77,15.79,45.15Z"/></g><g class="cls-3"><path class="cls-4" d="M2.51,56.64c.17.74,1.83,1,3.7.55s3.25-1.38,3.08-2.11-1.82-1-3.7-.56S2.34,55.9,2.51,56.64Z"/><path class="cls-4" d="M10.52,54.86c.09.39,1,.52,1.94.29s1.7-.72,1.61-1.11-1-.52-1.93-.29S10.43,54.47,10.52,54.86Z"/></g><path class="cls-5" d="M26.3,47.26c-3.67,2.43-10.45,4.88-19.3-.82a1,1,0,0,0-1.45.31,1.05,1.05,0,0,0,.31,1.46c9.34,6,16.77,3.71,21.06,1.09C26.71,48.62,26.5,48,26.3,47.26Z"/><path class="cls-5" d="M4.25,48.46a2.74,2.74,0,0,0,2.67-1.12A4,4,0,0,0,7,44c-.2-.55-1.1-2.23-1.36-.74a3.7,3.7,0,0,0,.24,1.61s0,.08,0,.12l-.3-.36c-.34-.42-.67-.85-1-1.3s-.6-1-.91-1.43c-.17-.24-.42-.63-.76-.52s-.34.46-.35.68A2.76,2.76,0,0,0,3.1,43.3c.14.27.3.53.46.78-.2-.2-.39-.41-.58-.63a4,4,0,0,0-.86-.92c-.52-.32-.85.28-.75.75a3.62,3.62,0,0,0,1,1.45,6.8,6.8,0,0,1,.5.57l-.68-.46c-.35-.25-.64-.57-1-.8S0,43.91.32,44.57A6.08,6.08,0,0,0,2,46.42c-.58-.15-1.44-1.16-1.89-.75C-.69,46.4,2.94,48.44,4.25,48.46Z"/><path class="cls-6" d="M53,86.14c0,.21.07.42.11.62a7,7,0,0,0,2.29,4c1.31.9,1.93-.39,2.06-1.56a10.74,10.74,0,0,0-.59-4.1c-.35-1.13-.9-2.31-2.18-2.26C53,82.93,52.83,84.7,53,86.14Z"/><path class="cls-6" d="M39,94.05a5.82,5.82,0,0,0-.41.48,7,7,0,0,0-1.63,4.34c.15,1.58,1.53,1.23,2.52.58a10.71,10.71,0,0,0,2.77-3.08c.65-1,1.19-2.17.34-3.13C41.39,91.93,40,93,39,94.05Z"/><g class="cls-7"><path class="cls-8" d="M54.72,82.87l-.25,0a4.9,4.9,0,0,1,2.26,3.18,8.37,8.37,0,0,1,.36,3.81A3.43,3.43,0,0,1,56.67,91a2.35,2.35,0,0,0,.82-1.74,10.74,10.74,0,0,0-.59-4.1C56.55,84,56,82.82,54.72,82.87Z"/><path class="cls-9" d="M54.72,82.87l-.25,0a4.9,4.9,0,0,1,2.26,3.18,8.37,8.37,0,0,1,.36,3.81A3.43,3.43,0,0,1,56.67,91a2.35,2.35,0,0,0,.82-1.74,10.74,10.74,0,0,0-.59-4.1C56.55,84,56,82.82,54.72,82.87Z"/></g><g class="cls-7"><path class="cls-8" d="M41.07,97.36a13.13,13.13,0,0,1-1.93,1.87,4.81,4.81,0,0,1-1.35.76,2.72,2.72,0,0,0,1.67-.54,10.71,10.71,0,0,0,2.77-3.08,2.94,2.94,0,0,0,.64-2.66C42.89,95,41.84,96.47,41.07,97.36Z"/><path class="cls-9" d="M41.07,97.36a13.13,13.13,0,0,1-1.93,1.87,4.81,4.81,0,0,1-1.35.76,2.72,2.72,0,0,0,1.67-.54,10.71,10.71,0,0,0,2.77-3.08,2.94,2.94,0,0,0,.64-2.66C42.89,95,41.84,96.47,41.07,97.36Z"/></g><path class="cls-5" d="M54,85.82a1.14,1.14,0,0,1-.41.07C48.41,85.78,44.09,83,41.13,78a25.55,25.55,0,0,1-2.88-7.54A1.2,1.2,0,0,1,40.61,70h0a23.53,23.53,0,0,0,2.62,6.82c2.56,4.35,6.07,6.6,10.44,6.69A1.2,1.2,0,0,1,54,85.82Z"/><path class="cls-5" d="M40.31,94.66a1.18,1.18,0,0,1-1.39-.49C31.53,82.61,27.78,68.05,27.63,67.44A1.2,1.2,0,1,1,30,66.85c0,.15,3.81,14.81,11,26a1.21,1.21,0,0,1-.37,1.66A1.23,1.23,0,0,1,40.31,94.66Z"/><path class="cls-10" d="M24.85,76.86c6.29,1.35,13.16-.65,18.55-3.92.45-.27,4.89-3.22,4.76-3.43-2.85-4.66-14.85-24-20.16-29.07l-3.9,2.64a113.59,113.59,0,0,0-.66,33.37A9.89,9.89,0,0,0,24.85,76.86Z"/><path class="cls-6" d="M27.47,45.34A6.72,6.72,0,0,0,31,43.83a36.27,36.27,0,0,0-3-3.39l-3.9,2.64s-.15.76-.35,2.13A8.37,8.37,0,0,0,27.47,45.34Z"/><path class="cls-6" d="M27.78,48.3a18.33,18.33,0,0,1-3.69.6h-.82c-.09.78-.18,1.63-.26,2.54a16.06,16.06,0,0,0,5.62-.4A22,22,0,0,0,32.24,50c.84-.33,1.67-.69,2.49-1.07-.59-.83-1.17-1.64-1.74-2.41A24,24,0,0,1,27.78,48.3Z"/><path class="cls-6" d="M33.94,51.49a24.62,24.62,0,0,1-5.22,1.67,16.51,16.51,0,0,1-5.9.52c-.09,1.21-.16,2.5-.22,3.86a10.78,10.78,0,0,0,3.54,0,37.74,37.74,0,0,0,4.7-1,25.78,25.78,0,0,0,7.12-3c-.7-1-1.41-2.07-2.11-3.08C35.23,50.86,34.59,51.19,33.94,51.49Z"/><path class="cls-6" d="M22.54,59.54c0,1.16-.05,2.37,0,3.6,3.72.81,8.09-.45,11.55-1.8,2.06-.8,3.25-1.22,5.26-2.14.41-.18,1.3-.79,1.7-1-.51-.79-1-1.59-1.57-2.4C34.33,58.81,28.39,60.58,22.54,59.54Z"/><path class="cls-6" d="M33.26,64.22c-3.41,1-7.15,2-10.72,1.29,0,.9.06,1.82.11,2.75a22.65,22.65,0,0,0,11.4-1.46,31.65,31.65,0,0,0,9.32-4.95L42.17,60A32,32,0,0,1,33.26,64.22Z"/><path class="cls-6" d="M22.81,70.71c.05.55.09,1.1.15,1.65a25.8,25.8,0,0,0,13-.8A25.13,25.13,0,0,0,46,66L44.48,63.6C38.32,68.33,30.56,71.78,22.81,70.71Z"/><path class="cls-6" d="M43.35,70.92a34.6,34.6,0,0,1-8.57,3.62,29,29,0,0,1-8.46.6,21.27,21.27,0,0,1-3.09-.3c.06.53.13,1.07.21,1.61a9.89,9.89,0,0,0,1.41.41c6.29,1.35,13.16-.65,18.55-3.92.45-.27,4.89-3.22,4.76-3.43l-.78-1.27A20.77,20.77,0,0,1,43.35,70.92Z"/><path class="cls-5" d="M15.62,61.11A1.08,1.08,0,0,1,16.28,60,26.5,26.5,0,0,0,27.6,51.35a20.38,20.38,0,0,0,2.88-5.22,1.08,1.08,0,0,1,2.06.64,22.06,22.06,0,0,1-3.15,5.78A28.67,28.67,0,0,1,17.1,62a1.07,1.07,0,0,1-1.48-.89Z"/><path class="cls-5" d="M16.63,63.21a2.74,2.74,0,0,0-.25-2.89,4,4,0,0,0-3.16-1.13c-.58,0-2.46.37-1.12,1.07a3.82,3.82,0,0,0,1.61.26h.12c-.14.07-.29.12-.43.18-.51.21-1,.38-1.54.55s-1.1.27-1.64.43c-.29.08-.73.2-.73.56s.33.46.54.54a2.85,2.85,0,0,0,1.33-.06c.3,0,.6-.12.89-.19l-.77.35a4.12,4.12,0,0,0-1.14.54c-.47.41,0,.89.48.94a3.49,3.49,0,0,0,1.68-.5c.22-.11.46-.21.7-.31l-.64.52c-.35.26-.75.43-1.07.72s-.48,1,.24,1a6.27,6.27,0,0,0,2.27-1c-.31.51-1.53,1-1.28,1.58C13.16,67.28,16.22,64.45,16.63,63.21Z"/><path class="cls-11" d="M8,16S.73,26.53,1.21,34.79c0,0,1.37.7,2.59,1.18a15.5,15.5,0,0,1,1-3.5,16.88,16.88,0,0,0,.06,3.76c3.52,1.31,9,3.09,13.28,3.39L16.9,16Z"/><path class="cls-5" d="M10.65,26s-.68-4-5-2.81-.9,9.08,5.47,7.94Z"/><path class="cls-12" d="M10.65,26s-.68-4-5-2.81-.9,9.08,5.47,7.94Z"/><path class="cls-13" d="M8.81,26.36c-.73-1.3-2.44-2.45-3.46-1.39-1.17,1.21.2,3.25,1.3,4C8.44,30.26,10.2,28.84,8.81,26.36Z"/><path class="cls-5" d="M29.62,2.53A20.66,20.66,0,0,0,6.71,14.72a10.81,10.81,0,0,1,.79,2,37.34,37.34,0,0,1,1,7.59c.05,1.87-.16,3.73-.26,5.59a12.77,12.77,0,0,0,1.41,5.43,10.88,10.88,0,0,0,3.51,4,21.24,21.24,0,0,0,11.31,4.12,21,21,0,0,0,19.45-10.8,21.29,21.29,0,0,0,2.09-6A20.66,20.66,0,0,0,29.62,2.53Z"/><path class="cls-14" d="M17.47,25.71A1.49,1.49,0,1,1,16.29,24,1.5,1.5,0,0,1,17.47,25.71Z"/><path class="cls-14" d="M32.3,27.19a1.48,1.48,0,1,1-1.17-1.74A1.48,1.48,0,0,1,32.3,27.19Z"/><path class="cls-15" d="M30.81,26.27a.46.46,0,0,1-.91-.17.47.47,0,0,1,.54-.37A.46.46,0,0,1,30.81,26.27Z"/><path class="cls-15" d="M16,24.91a.46.46,0,0,1-.54.37.47.47,0,0,1-.37-.54.46.46,0,0,1,.91.17Z"/><path class="cls-16" d="M38.76,1.28C9.23-5.27,4.51,15.39,4.51,15.39l-.4,2.93s3,0,6.77-.06c.33-1,.48-3,1-3.83.2-.32-.32,3.35-.34,4.18,1.67,0,3.69-.05,5.68,0a24.36,24.36,0,0,1,.92-4.06c.15-.33,0,3.32.13,4.15a98.19,98.19,0,0,1,12.15.91,35.38,35.38,0,0,0,.72-4.89,27.49,27.49,0,0,1,.74,5.11c1.68.35,4.34.61,5.91,1.1,0,0,4.68,13-6.42,20.15a29.51,29.51,0,0,0,8.42.28c.6-.73,1.13-1.5,1.68-2.27.22-.3.34,1.5.18,2.1,1.41-.16,3-.4,4.64-.72.19-.48.37-1,.57-1.45s.73.84.73,1.19c1.24-.27,2.53-.58,3.9-.94a6.94,6.94,0,0,0,.75-2.77c0-.36,1,1.47.93,2.29,1.37-.4,2.79-.86,4.28-1.38C57.46,37.41,60.35,6.07,38.76,1.28Z"/><path class="cls-5" d="M37.84,29.22s.89-4,5.13-2.55.45,9.11-5.86,7.66Z"/><path class="cls-17" d="M39.67,29.63c.79-1.26,2.56-2.31,3.52-1.21,1.11,1.27-.36,3.24-1.5,4C39.84,33.55,38.16,32,39.67,29.63Z"/><path class="cls-18" d="M18,36.08s5.16,2.07,9.47.31c0,0-.53,3.8-3.8,4A5,5,0,0,1,18,36.08Z"/><path class="cls-19" d="M46.56,13.36s-.82-5.21-2.24-4.83-5,3.19-4.72,4.16,5.34,3,5.34,3S47.48,16.51,46.56,13.36Z"/><path class="cls-19" d="M45.18,17s.62,5.24,2,4.93,5.14-3,4.89-4-5.21-3.24-5.21-3.24S44.4,13.84,45.18,17Z"/><path class="cls-20" d="M47.23,15a1.47,1.47,0,1,1-2.9.52,1.47,1.47,0,1,1,2.9-.52Z"/><rect class="cls-21" x="6.61" y="27.33" width="0.43" height="1.05" transform="translate(-5.66 2.04) rotate(-12.04)"/></g></g></g></svg>