<svg xmlns="http://www.w3.org/2000/svg" viewBox="0 0 90.55 100"><defs><style>.cls-1{isolation:isolate;}.cls-2{fill:#f8c49f;}.cls-3{fill:#21947b;}.cls-4{fill:#dfe0e1;}.cls-5{fill:#a7aaac;}.cls-6{fill:#164466;}.cls-7{fill:#831618;}.cls-8{fill:#ca292e;}.cls-9{fill:#9e6052;opacity:0.3;mix-blend-mode:multiply;}.cls-10{fill:#382625;}.cls-11{fill:#fff;}.cls-12{fill:#eb7c8a;}.cls-13{fill:#3c1c11;}.cls-14{fill:#f3ebe1;}.cls-15{fill:#d5cfc7;}</style></defs><g class="cls-1"><g id="Слой_2" data-name="Слой 2"><g id="Layer_1" data-name="Layer 1"><path class="cls-2" d="M66.74,95.47a1.19,1.19,0,0,1-1-.51,183.39,183.39,0,0,0-18-21.33,1.2,1.2,0,0,1,1.69-1.69A188.31,188.31,0,0,1,67.71,93.6a1.19,1.19,0,0,1-1,1.87Z"/><path class="cls-3" d="M67.59,93s6.09-3.74,7.88.42c0,0-4.12,4.65-8.89,4.38a4,4,0,0,1-1-1.35A3.75,3.75,0,0,1,65,94.71,15.32,15.32,0,0,1,67.59,93Z"/><path class="cls-4" d="M69,93.86a2.87,2.87,0,0,1,1.18-2c1.88-.59,4.26-.75,5.27,1.59a15.93,15.93,0,0,1-5.13,3.67A5.13,5.13,0,0,1,69,93.86Z"/><path class="cls-5" d="M66.76,97.37a23.22,23.22,0,0,0,5.21-2,7.23,7.23,0,0,0,3-2.81,3.87,3.87,0,0,1,.49.83s-4.12,4.65-8.89,4.38a1.78,1.78,0,0,1-.34-.37A2.28,2.28,0,0,0,66.76,97.37Z"/><path class="cls-2" d="M20.2,97.56a1.09,1.09,0,0,1-.49-.11,1.19,1.19,0,0,1-.6-1.57,188.29,188.29,0,0,1,14-24.68,1.2,1.2,0,0,1,1.66-.31A1.19,1.19,0,0,1,35,72.54,185.75,185.75,0,0,0,21.29,96.86,1.2,1.2,0,0,1,20.2,97.56Z"/><path class="cls-3" d="M19.12,95.25s-6.68-2.54-7.66,1.88c0,0,4.91,3.8,9.54,2.65a3.89,3.89,0,0,0,.7-1.5,3.71,3.71,0,0,0,.26-1.8A15.14,15.14,0,0,0,19.12,95.25Z"/><path class="cls-4" d="M17.89,96.38a3,3,0,0,0-1.55-1.79c-2-.23-4.33,0-4.88,2.54a16,16,0,0,0,5.72,2.65A5.2,5.2,0,0,0,17.89,96.38Z"/><path class="cls-5" d="M20.76,99.42a23.9,23.9,0,0,1-5.49-1,7.24,7.24,0,0,1-3.48-2.21,3.5,3.5,0,0,0-.33.91s4.91,3.8,9.54,2.65a1.62,1.62,0,0,0,.28-.42Z"/><path class="cls-6" d="M52.45,78.06a16.43,16.43,0,0,0,3.95-3.72l-3.81-4.28L51.44,66.4,32.71,68.68l-.58,2.19-4.36,6.7a24,24,0,0,0,9.64,4l3.68-6.48,1.71-.22,3.83,5.49A11.9,11.9,0,0,0,52.45,78.06Z"/><path class="cls-2" d="M48.76,50.54a7.81,7.81,0,0,1-.81,0,1.07,1.07,0,1,1,.16-2.13c.14,0,11.41.66,21.13-9.46a1.08,1.08,0,1,1,1.55,1.49C61.76,49.81,51.68,50.54,48.76,50.54Z"/><path class="cls-2" d="M74.32,40c-.49-.51-1.57.59-2.25.71a7.16,7.16,0,0,0,2.1-2c.37-.75-.36-1-.94-.68s-.81.59-1.24.85c-.27.16-.54.32-.82.47.2-.21.41-.42.62-.62a4,4,0,0,0,1.26-1.59c.16-.54-.17-1.25-.81-.92a4.57,4.57,0,0,0-1.07,1c-.23.24-.46.46-.71.69.2-.29.41-.58.59-.88a3.11,3.11,0,0,0,.63-1.41c0-.26-.05-.7-.34-.81s-.71.27-.93.55c-.4.51-.75,1.07-1.16,1.57s-.81,1-1.24,1.43l-.37.39,0-.13a4.39,4.39,0,0,0,.4-1.84c-.18-1.75-1.36.13-1.62.74a4.61,4.61,0,0,0-.13,3.89c.54,1.14,1.75,1.44,3,1.5C70.84,43,75.2,40.93,74.32,40Z"/><path class="cls-2" d="M24.21,54.31a19.69,19.69,0,0,1-12.82-4.54,1.07,1.07,0,0,1,1.36-1.66c10.48,8.62,23.63.85,23.76.77a1.07,1.07,0,0,1,1.47.37,1.05,1.05,0,0,1-.36,1.46A28.87,28.87,0,0,1,24.21,54.31Z"/><path class="cls-7" d="M36.58,47.32s-5.85,2.44-8.14,2.7a20.51,20.51,0,0,0,1.45,6.11s4.5-.5,6.41-2Z"/><path class="cls-7" d="M42.3,46.58s6.34.21,8.57-.36a20.51,20.51,0,0,1,.83,6.22s-4.4,1.14-6.71.43Z"/><path class="cls-8" d="M36.11,71.17A43.4,43.4,0,0,0,43,70.65a47.24,47.24,0,0,0,6.83-1.57c.82-.27,1.73-.51,2.57-.87C50.87,63.3,46.68,51.06,42.3,45.94l-5.92,1.17a65.67,65.67,0,0,0-4.73,23.74A14.29,14.29,0,0,0,36.11,71.17Z"/><path class="cls-7" d="M40.71,48.89a4.18,4.18,0,0,0,1.84-2.64c-.08-.11-.17-.21-.25-.31l-5.92,1.17,0,0C37.11,48.74,39,49.87,40.71,48.89Z"/><path class="cls-2" d="M9.78,50c1.19.41,2.41.58,3.34-.27A4.61,4.61,0,0,0,14.46,46c0-.67-.41-2.85-1.23-1.3a4.48,4.48,0,0,0-.32,1.86.51.51,0,0,1,0,.13c-.06-.16-.13-.33-.19-.5a18,18,0,0,1-.62-1.79c-.19-.62-.31-1.26-.49-1.89-.09-.34-.23-.85-.65-.86s-.53.39-.63.63a3.1,3.1,0,0,0,.07,1.54c0,.35.13.69.21,1-.14-.29-.28-.6-.4-.9a4.7,4.7,0,0,0-.62-1.32c-.47-.55-1,0-1.09.55a4,4,0,0,0,.57,1.95c.12.26.23.53.34.81l-.58-.75c-.3-.4-.51-.86-.84-1.25s-1.19-.55-1.12.28a7.17,7.17,0,0,0,1.2,2.64c-.59-.37-1.17-1.79-1.82-1.5C5.08,45.9,8.34,49.46,9.78,50Z"/><path class="cls-2" d="M20.56,33.45s-1.15-4.24-5.64-2.51-.05,9.84,6.67,8Z"/><path class="cls-9" d="M18.61,34c-.91-1.32-2.86-2.38-3.85-1.14-1.14,1.42.54,3.47,1.81,4.19C18.62,38.21,20.35,36.5,18.61,34Z"/><path class="cls-2" d="M37.72,3.18A22.28,22.28,0,0,0,15.21,19.8a10.47,10.47,0,0,1,1.15,2,38.42,38.42,0,0,1,2.27,7.93c.36,2,.42,4,.61,6a13.85,13.85,0,0,0,2.36,5.56A11.72,11.72,0,0,0,26,45.05,22.9,22.9,0,0,0,38.7,47.66a22.65,22.65,0,0,0,19-14.58A23.47,23.47,0,0,0,59,26.4,22.29,22.29,0,0,0,37.72,3.18Z"/><path class="cls-10" d="M30,32.71a1.6,1.6,0,0,1-3.2-.14,1.6,1.6,0,1,1,3.2.14Z"/><path class="cls-11" d="M27.8,32.18a.29.29,0,1,1-.58,0,.29.29,0,1,1,.58,0Z"/><path class="cls-10" d="M46,31.14a1.6,1.6,0,1,1-1.53-1.67A1.6,1.6,0,0,1,46,31.14Z"/><path class="cls-11" d="M43.86,30.6a.28.28,0,1,1-.56,0,.29.29,0,0,1,.29-.27A.28.28,0,0,1,43.86,30.6Z"/><path class="cls-12" d="M31.62,41s5.82,1.39,10.14-1.17c0,0,0,4.14-3.41,4.92A5.4,5.4,0,0,1,31.62,41Z"/><path class="cls-2" d="M52.72,31.44s.37-4.37,5.11-3.46,1.78,9.68-5.17,9Z"/><path class="cls-9" d="M54.73,31.62c.66-1.46,2.4-2.84,3.59-1.8,1.37,1.2.07,3.51-1,4.45C55.47,35.79,53.46,34.41,54.73,31.62Z"/><path class="cls-13" d="M27.59,38.83a6.53,6.53,0,1,1,6.56-6.49A6.53,6.53,0,0,1,27.59,38.83Zm.06-12.25a5.73,5.73,0,1,0,5.7,5.75A5.73,5.73,0,0,0,27.65,26.58Z"/><path class="cls-13" d="M44.36,37.46A6.53,6.53,0,1,1,50.91,31,6.54,6.54,0,0,1,44.36,37.46Zm0-12.25A5.73,5.73,0,1,0,50.11,31,5.73,5.73,0,0,0,44.41,25.21Z"/><path class="cls-13" d="M34,32.6l-.58-.54a4,4,0,0,1,4.95-.34l-.39.69A3.19,3.19,0,0,0,34,32.6Z"/><path class="cls-13" d="M50.51,31.36a.39.39,0,0,1-.22-.72L54,28.11a.4.4,0,0,1,.45.66l-3.72,2.52A.39.39,0,0,1,50.51,31.36Z"/><path class="cls-13" d="M21.45,33.26a.33.33,0,0,1-.19-.06l-4-2.27a.4.4,0,1,1,.39-.69l4,2.27a.4.4,0,0,1,.15.55A.43.43,0,0,1,21.45,33.26Z"/><path class="cls-14" d="M84,66.78c-3.36-2.88-7.24-5.52-9.58-9.38C73,55.07,71.74,52.34,72,49.56s2.16-4.76,3.42-7c.94-1.68,1.88-4,.87-5.87a5.32,5.32,0,0,0-3.76-2.48,12.39,12.39,0,0,0-4.13-.12,14.22,14.22,0,0,0-7.74,5.22c-.17.21-.45-.06-.35-.27a32,32,0,0,0,3.61-15.32A25.92,25.92,0,0,0,57.1,6.92a22.7,22.7,0,0,0-12-6.3A38.26,38.26,0,0,0,23.75,3,26.38,26.38,0,0,0,19.3,5.82a28.11,28.11,0,0,0-8.73,11.69,14.81,14.81,0,0,0-.71,2.36A32.62,32.62,0,0,0,11.2,32.5c1.35,4.47,4.31,8,6.53,12,.13.23-.16.41-.34.27-2-1.57-4.09-3.48-6.73-3.88-2.86-.43-4.95,1.88-5.46,4.57a7.79,7.79,0,0,0,.33,2.86A21,21,0,0,0,9,54.24c2.12,2.94,4.83,6.88,3,10.62a10.5,10.5,0,0,1-4.05,4.23c-1.86,1.16-4.09,1.8-5.75,3.26A19.39,19.39,0,0,0,0,74.58l.17,0c2.91.43,4.47,2.64,6.2,4.77,3.06,3.77,6.06,6.53,11.15,6.73,4.61.19,8.85-1.95,12.72-4.2,2.47-1.42,4.81-3.06,7.61-3.74s5.15.67,7.44,2.08c3.53,2.17,8.21,3.46,12.35,2.6,4.67-1,8.79-4.08,12.93-6.32,3-1.62,6-1.25,9.14-.22a16.92,16.92,0,0,0,7.07.75,11.17,11.17,0,0,0,3.77-1C89.6,72.22,86.93,69.31,84,66.78ZM24.21,38.7a7.27,7.27,0,0,1-3.64-7.91c.43-2.48,2-5,4.61-5.75A7.75,7.75,0,0,1,34,28.79a10.23,10.23,0,0,1,.65,6.88,5,5,0,0,1-2.47,3A8.67,8.67,0,0,1,24.21,38.7Zm18.31,4.95c-1.81,2.85-6,3.62-9,2.27-1.27-.58-4.21-3.26-3.06-4.89.7-1,2.68-.87,3.72-.88a25.37,25.37,0,0,0,4.51-.54c1.14-.22,2.93-.66,3.93.19S43.17,42.62,42.52,43.65Zm7.56-7.75a7.55,7.55,0,0,1-1.42,1.18c-3.09,2-8.08,2.47-10.1-.94a10.13,10.13,0,0,1-1.38-4.62c0-3.07,1.87-6.84,4.94-8a7.53,7.53,0,0,1,8,12.39Z"/><path class="cls-15" d="M43.47,22.11a7.65,7.65,0,0,0-4.33,2.32c-1.72,1.84-2.27,4.05-3.12,6.34-.08.21-2.87-7.66-8-7a15,15,0,0,0-4.34.93,8.45,8.45,0,0,0-4.1,9.13,8.9,8.9,0,0,0,3.64,5.61A7.59,7.59,0,0,0,29.7,40a.22.22,0,0,1,.25.32c-2.32,4.29,3.41,7.49,7.1,7.14s9.4-3.54,7.05-7.95a.22.22,0,0,1,.25-.32A8.64,8.64,0,0,0,49.05,38c4.25-2.44,5.9-9.12,2.68-13a8.23,8.23,0,0,0-3.07-2.32A11.48,11.48,0,0,0,43.47,22.11ZM24.21,38.7a7.27,7.27,0,0,1-3.64-7.91c.43-2.48,2-5,4.61-5.75A7.75,7.75,0,0,1,34,28.79a10.23,10.23,0,0,1,.65,6.88,5,5,0,0,1-2.47,3A8.67,8.67,0,0,1,24.21,38.7Zm18.31,4.95c-1.81,2.85-6,3.62-9,2.27-1.27-.58-4.21-3.26-3.06-4.89.7-1,2.68-.87,3.72-.88a25.37,25.37,0,0,0,4.51-.54c1.14-.22,2.93-.66,3.93.19S43.17,42.62,42.52,43.65Zm7.56-7.75a7.55,7.55,0,0,1-1.42,1.18c-3.09,2-8.08,2.47-10.1-.94a10.13,10.13,0,0,1-1.38-4.62c0-3.07,1.87-6.84,4.94-8a7.53,7.53,0,0,1,8,12.39Z"/><path class="cls-15" d="M84,66.78c-3.36-2.88-7.24-5.52-9.58-9.38C73,55.07,71.74,52.34,72,49.56s2.16-4.76,3.42-7c.94-1.68,1.88-4,.87-5.87a4.37,4.37,0,0,0-1.46-1.56,2.91,2.91,0,0,1-.43,2.17c-1.29,2.11-3.61,3.37-5.25,5.18a21.56,21.56,0,0,0-3.67,6.1C64.83,50,64,52.36,62.39,53c-1.46.6-2.68-.56-3.15-1.86a12.42,12.42,0,0,1-.41-5.65,18.91,18.91,0,0,1,2-6.42l-.16.18c-.17.21-.45-.06-.35-.27a32,32,0,0,0,3.61-15.32A25.92,25.92,0,0,0,57.1,6.92,22.35,22.35,0,0,0,46.78,1h0l-.16,0L46,.8,45.15.62A38.26,38.26,0,0,0,23.75,3,26.38,26.38,0,0,0,19.3,5.82,29.18,29.18,0,0,0,13.49,12h0c-.27.38-.52.78-.77,1.18a1.76,1.76,0,0,1-.14.23c-.21.36-.42.71-.61,1.08l-.3.58c-.14.28-.29.55-.42.84-.24.5-.47,1-.68,1.55a14.81,14.81,0,0,0-.71,2.36A32.62,32.62,0,0,0,11.2,32.5c.09.31.19.62.3.92,0,.09.07.17.1.25s.17.45.26.67a2.44,2.44,0,0,1,.1.24c.1.23.21.47.32.7,0,.06.05.1.07.16,1.52,3.17,3.67,6,5.38,9.11a.19.19,0,0,1,0,.22c0,.06.09.11.13.16a.19.19,0,0,1,.28,0A7.16,7.16,0,0,1,19,46.3a14.3,14.3,0,0,1,2.42,6.28,41.69,41.69,0,0,1,.07,7.9,41.69,41.69,0,0,0,2.62-7.91.22.22,0,0,1,.37-.1c1.82,2.36,1.9,5.6,2.09,8.45a22.56,22.56,0,0,1-.31,6c-.34,1.73-1.35,3.6-1.2,5.4,2.3-1.49,3.65-4.12,4.91-6.47,1.09-2,2.24-4,3.43-5.94,1.09-1.77,2.34-3.72,4.29-4.62s4.43.45,5.77,2a8.49,8.49,0,0,1,1.29,2.48c.39,1,1.06,2.37,2.36,1.85,1.65-.67,1.75-3.43,1.81-4.9s-.13-3.18,0-4.76c.09-1.27.67-2,2-1.34a47.18,47.18,0,0,1,7.72,5,52.27,52.27,0,0,1,5.34,4.63c3,3,6.61,7.28,5.9,11.87a.22.22,0,0,1-.37.1c-3.42-4-5.79-9.19-10.4-11.78C61.84,64,64.46,68.31,65,72.75c.22,1.94-.11,3.89-2.07,4.77a12.61,12.61,0,0,1-6.61,1C51,77.79,46.34,74.15,40.9,74.1a18.49,18.49,0,0,0-9.28,2.46C29,78,26.59,79.87,23.83,81a8.91,8.91,0,0,1-7.44.08,4.19,4.19,0,0,1-2.52-3.44c-.26-3.38,1.83-6.47,3-9.59-.45.48-6.11,6.91-6.65,4.69C9.75,71,12.12,69.23,13,68c1.91-3,3.74-6.66,3.1-10.27-.54-3-3.15-4.31-5.56-5.72C7,49.94,5.9,47.54,6,43.49c-2.8,3.19,1.13,8.22,3,10.75,2.12,2.94,4.83,6.88,3,10.62a10.5,10.5,0,0,1-4.05,4.23c-1.86,1.16-4.09,1.8-5.75,3.26A19.39,19.39,0,0,0,0,74.58l.17,0c2.91.43,4.47,2.64,6.2,4.77,3.06,3.77,6.06,6.53,11.15,6.73,4.61.19,8.85-1.95,12.72-4.2,2.47-1.42,4.81-3.06,7.61-3.74s5.15.67,7.44,2.08c3.53,2.17,8.21,3.46,12.35,2.6,4.67-1,8.79-4.08,12.93-6.32,3-1.62,6-1.25,9.14-.22a16.92,16.92,0,0,0,7.07.75,11.17,11.17,0,0,0,3.77-1C89.6,72.22,86.93,69.31,84,66.78ZM58.73,29c-1.3,9.94-8.91,18.8-18.9,20.68-10.33,2-20.18-3.58-25-12.75-3.65-7-5.24-15.75-.79-22.75A27.27,27.27,0,0,1,28.73,3.43C34,1.86,40.31.92,45.49,3.19a21.32,21.32,0,0,1,7.77,5.88A27.27,27.27,0,0,1,58.73,29Z"/><path class="cls-11" d="M32.15,3.59s-19.81,3.87-20,21.48C12.12,25.07,13.11,10.34,32.15,3.59Z"/><path class="cls-11" d="M7.43,43.35a2.79,2.79,0,0,1,3-.68,5.71,5.71,0,0,1,.87.24,9.52,9.52,0,0,1,3.4,2.16,23,23,0,0,1,4.84,8.11c.34.86.72,1.78,1,2.72-.43-4.6-2.89-9.9-6.47-12.78-2.33-1.87-7.29-2.29-7.79,1.45A16.06,16.06,0,0,1,7.43,43.35Z"/><path class="cls-11" d="M64.32,37.3A12,12,0,0,1,74,35.1a5.07,5.07,0,0,0-3.73-.74,12.53,12.53,0,0,0-5.83,1.89,12.09,12.09,0,0,0-5,11.12C60,43.61,61.29,39.75,64.32,37.3Z"/></g></g></g></svg>