<svg xmlns="http://www.w3.org/2000/svg" viewBox="0 0 44.72 100"><defs><style>.cls-1{isolation:isolate;}.cls-2{fill:#c6c8c9;}.cls-3{fill:#392521;}.cls-12,.cls-4{fill:#1a1718;}.cls-25,.cls-37,.cls-4{mix-blend-mode:screen;}.cls-5{fill:#e0c057;}.cls-6{fill:#000017;}.cls-7{fill:#ca292e;}.cls-8{fill:#105792;}.cls-9{fill:#0a4196;}.cls-10{fill:#e39108;}.cls-11{fill:#b90029;}.cls-13,.cls-17,.cls-18,.cls-20,.cls-21,.cls-23,.cls-29,.cls-31,.cls-34{mix-blend-mode:multiply;}.cls-14{fill:#edc280;}.cls-15,.cls-21{fill:#f8c49f;}.cls-16,.cls-17,.cls-18{fill:#e8e8e1;}.cls-17{opacity:0.5;}.cls-19{fill:#f6af81;}.cls-20{fill:#f7c6b6;}.cls-22{fill:#fffefd;}.cls-23{fill:#eaeaea;}.cls-24,.cls-25{fill:#495e63;}.cls-25,.cls-29,.cls-31{opacity:0.4;}.cls-26{fill:#232528;}.cls-27{fill:#fff;}.cls-28{fill:#0c1d29;}.cls-30,.cls-31{fill:#eaaf24;}.cls-32{fill:#f0998e;}.cls-33{fill:#ea727f;}.cls-34{fill:#bcbdc0;}.cls-35{fill:#b6755b;}.cls-36{fill:#851b1d;}.cls-37{fill:#cddde0;opacity:0.2;}</style></defs><g class="cls-1"><g id="Слой_2" data-name="Слой 2"><g id="Layer_1" data-name="Layer 1"><path class="cls-2" d="M15.81,95.77s.53-.44-.25-1.25L14.89,94l2-1.49s1,1.74,1.53,1.78C18.46,94.24,16.62,96.68,15.81,95.77Z"/><path class="cls-3" d="M18.51,94a.34.34,0,0,0-.2,0A4.51,4.51,0,0,1,17,95.43s-.24-.31-.45-.43-.51.09-.84.27c-.14.08-.39.31-.38.43a.6.6,0,0,0,.07.27s-2.21,2.54-.42,4a10.3,10.3,0,0,0,3.63-2.93l0-.57.34.12a4.27,4.27,0,0,0,.71-1.26L18.6,94A.24.24,0,0,0,18.51,94Z"/><path d="M16.4,98.41c-.36.31-1.34,1.15-1.95,1a2.08,2.08,0,0,0,.48.57,10.3,10.3,0,0,0,3.63-2.93l0-.57.34.12a4.27,4.27,0,0,0,.71-1.26l-.39-.5A9.11,9.11,0,0,1,16.4,98.41Z"/><path class="cls-4" d="M15.4,96.5a1.48,1.48,0,0,0-.48,1.41A.36.36,0,0,0,15,98l0,.08c.11.19.33.09.45,0a1.25,1.25,0,0,0,.33-.67C15.82,97.15,15.9,96.17,15.4,96.5Z"/><path class="cls-4" d="M14.84,98.54a.51.51,0,0,0-.17.49s0,0,0,0l0,0c0,.07.11,0,.15,0a.51.51,0,0,0,.12-.23C15,98.77,15,98.43,14.84,98.54Z"/><path d="M15.3,96.05a4.73,4.73,0,0,0-.66,1.08,3.75,3.75,0,0,1,1.74-.21L17,95.6A1.89,1.89,0,0,0,15.3,96.05Zm.87.63a2.49,2.49,0,0,0-1.21.15,2.63,2.63,0,0,1,.4-.69,2,2,0,0,1,1.25-.38Z"/><path class="cls-5" d="M15.26,96a4.73,4.73,0,0,0-.66,1.08,3.66,3.66,0,0,1,1.75-.21L17,95.56A1.87,1.87,0,0,0,15.26,96Zm.87.63a2.57,2.57,0,0,0-1.21.14,3,3,0,0,1,.41-.68,2,2,0,0,1,1.24-.38Z"/><path class="cls-6" d="M17.64,93l-.36-.54-.41-.61q-.23-.36-.48-.81a15,15,0,0,1-1.79-4.51l-.07-.3,0-.31c0-.2-.05-.41-.07-.61s0-.4,0-.59,0-.2,0-.29l0-.28a7.76,7.76,0,0,1,.37-2c.11-.27.18-.53.28-.74l.27-.56.28-.48A1.9,1.9,0,0,0,15.74,79a2.57,2.57,0,0,0-.32-.75,2.71,2.71,0,0,0-.58-.65,2.2,2.2,0,0,0-.78-.39,1.83,1.83,0,0,0-.84,0,2.1,2.1,0,0,0-1.44,1.09s-.13.26-.34.73c-.09.25-.2.54-.32.88s-.21.75-.32,1.17a12.53,12.53,0,0,0,.3,6.32,18.67,18.67,0,0,0,2.71,5.28l.63.87.53.63.46.54Z"/><path class="cls-7" d="M18,92.5A.36.36,0,0,1,18,93l-2.64,2.09a.34.34,0,0,1-.48-.09.36.36,0,0,1,0-.5l2.7-2A.32.32,0,0,1,18,92.5Z"/><path class="cls-8" d="M15.58,84l-6.14-.23s0-.15,0-.38a7.73,7.73,0,0,1,.09-.85,7.15,7.15,0,0,1,.13-.84l.08-.38,6,1.39A6.16,6.16,0,0,0,15.58,84Z"/><path class="cls-7" d="M15.66,83.07a3.62,3.62,0,0,1,.62-.26A4.51,4.51,0,0,1,17,82.6a7.4,7.4,0,0,1,.8-.13c.28,0,.56-.06.81-.08l.76,0,.66,0a2,2,0,0,0,.54-.12.9.9,0,0,0,.39-.26,4.3,4.3,0,0,0,.77-1.76,16.5,16.5,0,0,0,.43-2.58,11.94,11.94,0,0,0-.42-5.16,6.3,6.3,0,0,0-4.61-3.22A8,8,0,0,0,9.5,71.81a6.06,6.06,0,0,0-.82,1.24,7.1,7.1,0,0,0-.49,1.43A8.56,8.56,0,0,0,8,76a10.39,10.39,0,0,0,.08,1.49,13.86,13.86,0,0,0,.28,1.4c.12.44.28.87.42,1.25s.31.73.46,1.05.29.61.4.87Z"/><path class="cls-8" d="M10.71,82.23a5.83,5.83,0,0,0-.08-.82c0-.14,0-.29-.07-.44s0-.3-.05-.45a8.94,8.94,0,0,1,0-2.23,8,8,0,0,1,.29-1.41c.08-.25.16-.51.27-.78s.23-.54.37-.82a11.71,11.71,0,0,1,2.79-3.47,1,1,0,0,0-.23,0,4.41,4.41,0,0,0-.64.19,5.59,5.59,0,0,0-2,1.34,7.12,7.12,0,0,0-1.81,3.44,8.1,8.1,0,0,0-.16,1.23,8.54,8.54,0,0,0,.05,1.33,8.83,8.83,0,0,0,.32,1.4,8.15,8.15,0,0,0,.63,1.38Z"/><path class="cls-8" d="M14.61,82.89A23.15,23.15,0,0,1,18,81.63a3.57,3.57,0,0,0,1.52-.87,2.86,2.86,0,0,0,.38-.52,2.49,2.49,0,0,0,.21-.49,2.13,2.13,0,0,0,.11-.52,22.23,22.23,0,0,1-1.89,1.45,10.08,10.08,0,0,1-1.48.81,11.39,11.39,0,0,0-2.58,1.33Z"/><path class="cls-8" d="M12.74,82.53c.06-.23.14-.49.23-.78s.24-.6.37-.94a15.62,15.62,0,0,1,1.26-2.24,21.65,21.65,0,0,1,5-4.92,3.59,3.59,0,0,0-.68.22,9.48,9.48,0,0,0-1.93,1,11,11,0,0,0-2.69,2.59,10.33,10.33,0,0,0-1.22,2.19,9.48,9.48,0,0,0-.61,2.81Z"/><path class="cls-2" d="M29.9,95.31s-.58-.37.11-1.26l.6-.65-2.2-1.24S27.57,94,27.1,94.1C27.1,94.1,29.21,96.31,29.9,95.31Z"/><path class="cls-3" d="M27,93.86a.37.37,0,0,1,.21,0,4.64,4.64,0,0,0,1.51,1.25s.21-.34.4-.48.52,0,.87.17c.14.07.42.26.42.39a.51.51,0,0,1,0,.27s2.49,2.27.89,4a10.25,10.25,0,0,1-3.94-2.49l-.11-.56-.33.17A4.28,4.28,0,0,1,26,95.35l.89-1.44Z"/><path d="M29.62,98c.39.26,1.47,1,2.07.79a2.3,2.3,0,0,1-.42.61,10.25,10.25,0,0,1-3.94-2.49l-.11-.56-.33.17A4.28,4.28,0,0,1,26,95.35l.34-.54A9,9,0,0,0,29.62,98Z"/><path class="cls-4" d="M30.4,96A1.51,1.51,0,0,1,31,97.34l0,.09a.26.26,0,0,1,0,.08c-.08.21-.31.13-.44,0a1.22,1.22,0,0,1-.41-.63C30.05,96.68,29.86,95.72,30.4,96Z"/><path class="cls-4" d="M31.19,98a.5.5,0,0,1,.22.46,309063205122.42,309063205122.42,0,0,0,0,.06c0,.08-.1,0-.15,0a.41.41,0,0,1-.14-.21C31.07,98.2,31,97.86,31.19,98Z"/><path d="M28.69,95.28l.78,1.24a3.66,3.66,0,0,1,1.76,0,4.78,4.78,0,0,0-.78-1A1.92,1.92,0,0,0,28.69,95.28Zm.43.12a1.93,1.93,0,0,1,1.27.23,2.84,2.84,0,0,1,.49.63,2.66,2.66,0,0,0-1.23,0Z"/><path class="cls-5" d="M28.72,95.24l.78,1.23a3.8,3.8,0,0,1,1.76,0,4.78,4.78,0,0,0-.78-1A1.9,1.9,0,0,0,28.72,95.24Zm.42.11a2,2,0,0,1,1.28.23,3,3,0,0,1,.49.64,2.53,2.53,0,0,0-1.23,0Z"/><path class="cls-6" d="M30.23,94.3l.38-.62.45-.71.52-1a18.85,18.85,0,0,0,2-5.75A13,13,0,0,0,33,79.76c-.18-.42-.33-.82-.49-1.15s-.33-.61-.45-.85c-.27-.44-.44-.7-.44-.7a2.14,2.14,0,0,0-1.58-.94,2,2,0,0,0-.84.11,2.21,2.21,0,0,0-.73.48,2.32,2.32,0,0,0-.49.71,2.65,2.65,0,0,0-.24.79,1.94,1.94,0,0,0,.3,1.39l.35.45.36.53c.13.21.25.47.4.73a8.14,8.14,0,0,1,.67,2l.06.29c0,.1,0,.2,0,.3s.05.41.07.62,0,.42,0,.63v.33l0,.33a15.74,15.74,0,0,1-1.2,4.87c-.14.33-.26.63-.37.9l-.34.68c-.19.37-.29.59-.29.59Z"/><path class="cls-7" d="M30.81,94.71a.35.35,0,0,1-.47.16L27.47,93.1a.36.36,0,0,1-.12-.47.33.33,0,0,1,.45-.12l2.91,1.71A.36.36,0,0,1,30.81,94.71Z"/><path class="cls-8" d="M34.81,82.35l-6.07.94,0-.22c0-.13-.07-.29-.1-.46a3.27,3.27,0,0,0-.13-.46,1.39,1.39,0,0,1-.07-.21l5.78-2.06.13.37a8.26,8.26,0,0,1,.24.85c.07.31.16.62.19.86S34.81,82.35,34.81,82.35Z"/><path class="cls-7" d="M34.44,80.63c.08-.28.17-.59.27-.92s.2-.72.27-1.11a11.84,11.84,0,0,0,.2-1.28c0-.44,0-.91,0-1.4A10.77,10.77,0,0,0,35,74.46,7.34,7.34,0,0,0,34.61,73a7.13,7.13,0,0,0-.7-1.34,6.45,6.45,0,0,0-1-1.12,8.56,8.56,0,0,0-4-2,8,8,0,0,0-3.77.14A5.91,5.91,0,0,0,21,72.17a13.94,13.94,0,0,0,.16,5.41,19.57,19.57,0,0,0,.65,2.66A4.29,4.29,0,0,0,22.72,82a.77.77,0,0,0,.43.19,1.88,1.88,0,0,0,.59,0c.21,0,.47,0,.73-.07L25.3,82l.9,0c.3,0,.59,0,.89,0a6,6,0,0,1,.81.13,4.43,4.43,0,0,1,.67.21Z"/><path class="cls-8" d="M29.63,82a5.47,5.47,0,0,0-2.28-1.45,27.8,27.8,0,0,1-3.87-2.15l0,.16c0,.11.07.27.13.44a3.75,3.75,0,0,0,.67,1.15,3.26,3.26,0,0,0,1.55.93c.74.25,1.81.42,3.39,1Z"/><path class="cls-8" d="M33.42,80.92a8.93,8.93,0,0,0,.49-1.43,7.77,7.77,0,0,0,.15-2.75,7.75,7.75,0,0,0-.24-1.22,7.62,7.62,0,0,0-2-3.37,6.41,6.41,0,0,0-1.1-.85,6.3,6.3,0,0,0-.91-.45,4,4,0,0,0-.84-.21,12,12,0,0,1,3.23,3.28,8.13,8.13,0,0,1,1.22,3,9.51,9.51,0,0,1,.1,1.24c0,.38-.06.74-.1,1.07,0,.17,0,.32-.08.48s-.07.31-.11.47L33,81Z"/><path class="cls-8" d="M31.58,81.41c-.07-.24-.14-.52-.22-.84s-.24-.65-.39-1a10.65,10.65,0,0,0-1.49-2.37,12.84,12.84,0,0,0-2.58-2.34A16.45,16.45,0,0,0,23.35,73l.56.47,1.71,1.34a30.9,30.9,0,0,1,2.73,2.38A17.3,17.3,0,0,1,29.91,79a13.28,13.28,0,0,1,1.43,2.46Z"/><path class="cls-9" d="M35.19,51.58C32.07,45,25.1,42.74,25.1,42.74H19.28s-7,2.29-10.07,8.88S3.16,67.7,15,70.21a30,30,0,0,0,4.52.74s1.83.18,2.69.16,2.69-.17,2.69-.17a29.11,29.11,0,0,0,4.51-.75C41.29,67.64,38.31,58.15,35.19,51.58Z"/><path class="cls-10" d="M26.45,59.73A69.83,69.83,0,0,1,18,50.44c-1.24-1.64-2.41-3.32-3.55-5a17.38,17.38,0,0,0-4.18,4.37c.55,1.16,1.16,2.29,1.79,3.38a73.09,73.09,0,0,0,6.79,10,41.23,41.23,0,0,0,8,7.51,24.82,24.82,0,0,0,2.66-.52,12.5,12.5,0,0,0,6.25-3A74.3,74.3,0,0,1,26.45,59.73Z"/><path class="cls-11" d="M21.35,63.88a53.38,53.38,0,0,0,7.3,6.49c.51-.1.78-.18.78-.18a13.07,13.07,0,0,0,5.78-2.55A50.73,50.73,0,0,1,24.4,60,55.24,55.24,0,0,1,13.74,45.94a17.62,17.62,0,0,0-2.87,3A71,71,0,0,0,21.35,63.88Z"/><path class="cls-9" d="M8.86,69.63s-2.4,3.7-2.24,4.07,16,4,31.15,0L36,69.82Z"/><path class="cls-10" d="M7,72.69a2.31,2.31,0,0,0-.4,1c.15.36,16,4,31.15,0l-.48-1A68.79,68.79,0,0,1,7,72.69Z"/><path class="cls-12" d="M36.94,65.5a75.23,75.23,0,0,1-29.45.23A7.74,7.74,0,0,0,8.65,70a75.94,75.94,0,0,0,27.27-.25A8,8,0,0,0,36.94,65.5Z"/><g class="cls-13"><path class="cls-12" d="M26.29,66.91a79.54,79.54,0,0,1-8.55.06V71A77.2,77.2,0,0,0,26.29,71Z"/></g><path class="cls-14" d="M18.06,66.57v4.87h7.8V66.57Zm7,4.36H18.82V67.07H25.1Z"/><path class="cls-15" d="M41,28.84c.74,12.6-7,23.31-17.39,23.93S4.3,43.67,3.55,31.07s7-23.31,17.39-23.93S40.29,16.24,41,28.84Z"/><path class="cls-16" d="M41.7,35.91c-1,0-.57-2.23-.41-2.64.65-1.75,1.21-3.25.71-5.14a7.71,7.71,0,0,0-.57-1.47c0-.11-.77-1.16-.77-1.17a4.54,4.54,0,0,0,.28-3.81,5.61,5.61,0,0,0-4.61-3.44c-.19,0,.7,2.93.76,5.47,0,1.58,0,3.53-.88,4.9a6.67,6.67,0,0,1-1.75,1.49c-.13.12,1.43,2.14,1.87,3.1,1.37,3-1.61,4.27-4.07,4.51a13.79,13.79,0,0,1-5.11-.53C25.61,36.74,24,35.8,22.4,36h-.07v.25c-1.59,0-3,1.12-4.45,1.72a13.59,13.59,0,0,1-5,1.13c-2.47.05-5.58-.9-4.58-4,.33-1,1.64-3.2,1.49-3.3a7.15,7.15,0,0,1-1.91-1.27c-1.08-1.26-1.3-3.19-1.45-4.77-.24-2.52.3-5.55.11-5.52a5.62,5.62,0,0,0-4.17,4A4.48,4.48,0,0,0,3.09,28s-.59,1.15-.63,1.25a8.25,8.25,0,0,0-.38,1.54c-.28,1.93.46,3.36,1.31,5,.21.4.88,2.56-.1,2.68-.24,0-.63.34-.51.62.23.53,1.05.44,1.53.42H4.4a5.87,5.87,0,0,0-.77,1,4.66,4.66,0,0,0,0,4.37C4.5,46.24,6,46,7.28,46.6c.76.38.66,1.16.23,1.81-.07.11-.2.4,0,.5a1.63,1.63,0,0,0,2-.34A4.37,4.37,0,0,0,12.25,52c1.08.53,2.69.76,3.54,1.66a1.25,1.25,0,0,1,.31,1.08c-.05.26-.49.76-.36,1,.41.77,1.59.1,2-.33a4.25,4.25,0,0,0,.71-1l0,0a2.53,2.53,0,0,0,1.67,1c1,.22,2.66.12,2.95,1.43,0,.07.11,0,.15,0,.65-.29,3.5-1,5.08-3.47a.08.08,0,0,0,0,0,0,0,0,0,0,0,0,4,4,0,0,0,1,1.09c.47.38,1.72.9,2,.09.1-.27-.4-.72-.48-1a1.24,1.24,0,0,1,.18-1.1c.74-1,2.31-1.41,3.32-2.07a4.39,4.39,0,0,0,2.37-3.72,1.62,1.62,0,0,0,2,.11c.14-.13,0-.4-.1-.49-.5-.6-.69-1.36,0-1.83,1.16-.79,2.72-.69,3.44-2.12A4.65,4.65,0,0,0,41.61,38a6,6,0,0,0-.89-.94h.09c.48,0,1.31,0,1.47-.6C42.37,36.17,41.94,35.91,41.7,35.91Z"/><path class="cls-16" d="M41.7,35.91c-1,0-.57-2.23-.41-2.64.65-1.75,1.21-3.25.71-5.14a7.71,7.71,0,0,0-.57-1.47c0-.11-.77-1.16-.77-1.17a4.54,4.54,0,0,0,.28-3.81c-.84-1.84-6.93-4.18-9-4.3-.19,0,5.2,9.86,4.27,11.23a6.67,6.67,0,0,1-1.75,1.49c-.13.12,1.43,2.14,1.87,3.1,1.37,3-1.61,4.27-4.07,4.51a13.79,13.79,0,0,1-5.11-.53C25.61,36.74,24,35.8,22.4,36h-.07v.25c-1.59,0-3,1.12-4.45,1.72a13.59,13.59,0,0,1-5,1.13c-2.47.05-5.58-.9-4.58-4,.33-1,1.64-3.2,1.49-3.3a7.15,7.15,0,0,1-1.91-1.27C6.8,29.3,12.29,17.35,12.09,17.38c-2,.37-9.11,4.93-9.72,6.86A4.48,4.48,0,0,0,3.09,28s-.59,1.15-.63,1.25a8.25,8.25,0,0,0-.38,1.54c-.28,1.93.46,3.36,1.31,5,.21.4.88,2.56-.1,2.68-.24,0-.63.34-.51.62.23.53,1.05.44,1.53.42H4.4a5.87,5.87,0,0,0-.77,1,4.66,4.66,0,0,0,0,4.37C4.5,46.24,6,46,7.28,46.6c.76.38.66,1.16.23,1.81-.07.11-.2.4,0,.5a1.63,1.63,0,0,0,2-.34A4.37,4.37,0,0,0,12.25,52c1.08.53,2.69.76,3.54,1.66a1.25,1.25,0,0,1,.31,1.08c-.05.26-.49.76-.36,1,.41.77,1.59.1,2-.33a4.25,4.25,0,0,0,.71-1l0,0a2.53,2.53,0,0,0,1.67,1c1,.22,2.66.12,2.95,1.43,0,.07.11,0,.15,0,.65-.29,3.5-1,5.08-3.47a.08.08,0,0,0,0,0,0,0,0,0,0,0,0,4,4,0,0,0,1,1.09c.47.38,1.72.9,2,.09.1-.27-.4-.72-.48-1a1.24,1.24,0,0,1,.18-1.1c.74-1,2.31-1.41,3.32-2.07a4.39,4.39,0,0,0,2.37-3.72,1.62,1.62,0,0,0,2,.11c.14-.13,0-.4-.1-.49-.5-.6-.69-1.36,0-1.83,1.16-.79,2.72-.69,3.44-2.12A4.65,4.65,0,0,0,41.61,38a6,6,0,0,0-.89-.94h.09c.48,0,1.31,0,1.47-.6C42.37,36.17,41.94,35.91,41.7,35.91Z"/><path class="cls-17" d="M41.7,35.91c-1,0-.57-2.23-.41-2.64.65-1.75,1.21-3.25.71-5.14a7.71,7.71,0,0,0-.57-1.47c0-.11-.77-1.16-.77-1.17a4.54,4.54,0,0,0,.28-3.81,4.1,4.1,0,0,0-1.42-1.4A7.24,7.24,0,0,0,39.3,24c.39,1.59,1.35,2.94,1.54,4.6a8.26,8.26,0,0,1-.66,4.63,6.52,6.52,0,0,0-1,2.12,3.49,3.49,0,0,0,1,2.5c.07.07,0,.2-.08.23a2.39,2.39,0,0,1-.45.09,2.49,2.49,0,0,1,.67,1.73A3.26,3.26,0,0,1,39,42.61c-1,.72-2.08,1.15-1.57,2.62a.16.16,0,0,1-.22.19,3.68,3.68,0,0,1-1.42-1.13,6.45,6.45,0,0,1-2.23,4.25c-1.45,1.25-3.9,2.12-4,4.35,0,.12-.16.24-.26.13a3.88,3.88,0,0,1-.85-1.58,7.22,7.22,0,0,1-3.86,3,.16.16,0,0,1-.21-.18,2.54,2.54,0,0,0-.61-2.15,3,3,0,0,1-.62,2.48c-.07.08-.24.06-.26,0-.38-1.72-2.66-1.27-3.95-1.67a2.79,2.79,0,0,1-1.4-1,2.65,2.65,0,0,1-.4,1.09.16.16,0,0,1-.29,0c-.78-2.37-3.5-2.38-5.32-3.57a5.46,5.46,0,0,1-2-2.41,7,7,0,0,1-.43-1.61,3.75,3.75,0,0,1-.44.84.15.15,0,0,1-.27-.09c-.1-1.21-1.45-1.1-2.24-1.63a3.05,3.05,0,0,1-1.36-1.91c-.38-1.89.69-3.5,1-5.28a3.64,3.64,0,0,1-1.21.84c-.1,0-.24-.07-.2-.18.54-1.68-.21-2.83-1.07-4.2a8.8,8.8,0,0,1-1-2.43c-.07-.28-.13-.57-.19-.88l-.06.38c-.28,1.93.46,3.36,1.31,5,.21.4.88,2.56-.1,2.68-.24,0-.63.34-.51.62.23.53,1.05.44,1.53.42H4.4a5.87,5.87,0,0,0-.77,1,4.66,4.66,0,0,0,0,4.37C4.5,46.24,6,46,7.28,46.6c.76.38.66,1.16.23,1.81-.07.11-.2.4,0,.5a1.63,1.63,0,0,0,2-.34A4.37,4.37,0,0,0,12.25,52c1.08.53,2.69.76,3.54,1.66a1.25,1.25,0,0,1,.31,1.08c-.05.26-.49.76-.36,1,.41.77,1.59.1,2-.33a4.25,4.25,0,0,0,.71-1l0,0a2.53,2.53,0,0,0,1.67,1c1,.22,2.66.12,2.95,1.43,0,.07.11,0,.15,0,.65-.29,3.5-1,5.08-3.47a.08.08,0,0,0,0,0,0,0,0,0,0,0,0,4,4,0,0,0,1,1.09c.47.38,1.72.9,2,.09.1-.27-.4-.72-.48-1a1.24,1.24,0,0,1,.18-1.1c.74-1,2.31-1.41,3.32-2.07a4.39,4.39,0,0,0,2.37-3.72,1.62,1.62,0,0,0,2,.11c.14-.13,0-.4-.1-.49-.5-.6-.69-1.36,0-1.83,1.16-.79,2.72-.69,3.44-2.12A4.65,4.65,0,0,0,41.61,38a6,6,0,0,0-.89-.94h.09c.48,0,1.31,0,1.47-.6C42.37,36.17,41.94,35.91,41.7,35.91Z"/><path class="cls-18" d="M31.43,37.18c-.73.72-1.93-.65-5.34-1.27-2.6-.47-3.78.21-4.2.56-.45-.3-1.71-.83-4.23-.06-3.31,1-4.34,2.52-5.15,1.9,0,0-1,.59.38,1.66s4.39.65,6.41-.82A6.29,6.29,0,0,1,22,37.89a6.26,6.26,0,0,1,2.81.94c2.17,1.22,5.2,1.28,6.46.05S31.43,37.18,31.43,37.18Z"/><path class="cls-16" d="M31.4,36.72c-.73.72-1.93-.66-5.34-1.27-2.6-.47-3.78.2-4.19.55-.46-.29-1.71-.82-4.24,0-3.31,1-4.34,2.52-5.15,1.9,0,0-1,.59.38,1.65s4.39.66,6.41-.81A6.46,6.46,0,0,1,22,37.42a6.38,6.38,0,0,1,2.81.95c2.18,1.21,5.2,1.27,6.46,0S31.4,36.72,31.4,36.72Z"/><path class="cls-19" d="M22.75,30.7c-1.33-.79-2.7-.05-3.38,1.31-.24.46-1,2.07-.49,2.56s1.84,1.81,2.9,1.58c1.07.1,2.07-1.24,2.68-1.91s-.56-2.36-.91-2.81A3,3,0,0,0,22.75,30.7Z"/><path class="cls-20" d="M20.71,35.36a3.06,3.06,0,0,1-2-1.25.64.64,0,0,0,.18.46c.68.59,1.84,1.81,2.9,1.58,1.07.1,2.07-1.24,2.68-1.91a.6.6,0,0,0,.15-.31A4.78,4.78,0,0,1,20.71,35.36Z"/><path class="cls-20" d="M14.88,35.54c0,.58-.88,1.1-2,1.17s-2.12-.34-2.15-.92.87-1.1,2-1.16S14.84,35,14.88,35.54Z"/><path class="cls-20" d="M33.93,34.41c0,.57-.88,1.09-2,1.16s-2.13-.34-2.16-.91.87-1.1,2-1.17S33.9,33.83,33.93,34.41Z"/><path class="cls-18" d="M43.79,23.54a5.48,5.48,0,0,0-1.57-2.35,2.23,2.23,0,0,0-1.73-.29,3.07,3.07,0,0,0-2-2.06,3.34,3.34,0,0,0-.36-2.7,5.52,5.52,0,0,0-4.89-1.65,4.15,4.15,0,0,0-2.09-2.55,5.81,5.81,0,0,0-3.75-.3,3.45,3.45,0,0,0-1.09-1.38c-1.6-1.24-4-1.48-5.93-1.36C18,9,14.8,10.5,13.48,12.73a9.7,9.7,0,0,0-4.85,2A7.83,7.83,0,0,0,6,20.16a6.52,6.52,0,0,0-1.36,1.29A3.48,3.48,0,0,0,4,23,5.32,5.32,0,0,0,1.56,25,4,4,0,0,0,2.06,30c1.29,1.26,3.55.67,4.8-.28a5.24,5.24,0,0,0,1.52-3.49,4.2,4.2,0,0,0,2.14-.61,4.65,4.65,0,0,0,1.64-2.05,5,5,0,0,0,3.37,1,8.73,8.73,0,0,0,5.54-2,2.94,2.94,0,0,0,2,1A6.93,6.93,0,0,0,27,22.74a4.46,4.46,0,0,0,1.67,1.52,6,6,0,0,0,6.09-.63l.09.05,0,0a8.59,8.59,0,0,0,.49,2.21C36.88,29.93,45.6,28.25,43.79,23.54Z"/><path class="cls-16" d="M43.27,20.6a3.39,3.39,0,0,0,.34-2.72c-.57-1.68-1.72-3.32-3.46-3a7,7,0,0,0,0-1.31,3.63,3.63,0,0,0-1.37-2.34,2.73,2.73,0,0,0-1.93-.56,6.73,6.73,0,0,0-1.76-2.83C33.43,6.24,29.62,5,27.43,6.39a7.55,7.55,0,0,0-5-1.64,5,5,0,0,0-2.94,1.3c-1.45-.42-3.44.31-4.66,1.06a6.32,6.32,0,0,0-1.72,1.62,5.94,5.94,0,0,0-3.87.87,4.94,4.94,0,0,0-1.77,2.05,5.7,5.7,0,0,0-3.9,3.15A6,6,0,0,0,3,17.46a10,10,0,0,0-1.8,2.9A5.71,5.71,0,0,0,.85,24l-.14.19a4.45,4.45,0,0,0,.53,5.48c1.34,1.37,3.68.74,5-.29a5.69,5.69,0,0,0,1.56-3.77A4.14,4.14,0,0,0,10,24.9a5,5,0,0,0,1.7-2.21,5.08,5.08,0,0,0,3.49,1.11,8.8,8.8,0,0,0,5.74-2.13,3,3,0,0,0,2.1,1.1,6.84,6.84,0,0,0,4-.94,4.81,4.81,0,0,0,1.74,1.64,6,6,0,0,0,6.31-.67l.09.07,0,0a10,10,0,0,0,.52,2.4c1.56,4.35,10.6,2.54,8.7-2.55A7.54,7.54,0,0,0,43.27,20.6Z"/><path class="cls-21" d="M26.2,31.22c.35,1.51,1.49,2.49,2.55,2.18s1.64-1.77,1.29-3.28-1.49-2.49-2.56-2.18S25.85,29.71,26.2,31.22Z"/><path class="cls-22" d="M26.12,31.19c.33,1.42,1.4,2.34,2.4,2.06s1.55-1.68,1.22-3.1-1.41-2.34-2.4-2.06S25.79,29.77,26.12,31.19Z"/><path class="cls-23" d="M29.52,30.52c-.33-1.44-1.42-2.37-2.42-2.08a1.42,1.42,0,0,0-.73.48,1.67,1.67,0,0,1,1-.83c1-.28,2.07.64,2.4,2.06a3.12,3.12,0,0,1-.39,2.49A3.34,3.34,0,0,0,29.52,30.52Z"/><path class="cls-24" d="M26.58,31.31c.24,1.13,1,1.89,1.74,1.71s1.11-1.25.87-2.37-1-1.89-1.74-1.7S26.34,30.19,26.58,31.31Z"/><path class="cls-25" d="M26.82,31.33c.2.92.84,1.55,1.44,1.4s.91-1,.71-1.95-.84-1.55-1.43-1.4S26.62,30.4,26.82,31.33Z"/><path class="cls-26" d="M27.15,31.17c.1.58.49,1,.86.91s.6-.62.49-1.2-.48-1-.86-.91S27.05,30.59,27.15,31.17Z"/><path class="cls-27" d="M28.07,30c.17.27.46.41.64.31s.18-.41,0-.67-.46-.41-.64-.31S27.89,29.74,28.07,30Z"/><path class="cls-27" d="M27.45,29.55c.14,0,.27,0,.29-.09s-.08-.21-.21-.25-.26,0-.28.1S27.32,29.51,27.45,29.55Z"/><path class="cls-21" d="M13,31c0,1.56.88,2.77,2,2.72s2-1.35,2-2.9-.88-2.76-2-2.71S13.05,29.46,13,31Z"/><path class="cls-22" d="M13,31c0,1.46.83,2.6,1.87,2.55s1.89-1.27,1.89-2.73-.83-2.6-1.86-2.56S13,29.5,13,31Z"/><path class="cls-23" d="M16.44,31.09c0-1.48-.84-2.63-1.89-2.58a1.53,1.53,0,0,0-.81.29,1.67,1.67,0,0,1,1.13-.58c1,0,1.87,1.1,1.86,2.56a3.11,3.11,0,0,1-.94,2.33A3.43,3.43,0,0,0,16.44,31.09Z"/><path class="cls-24" d="M13.45,31.19c0,1.15.56,2.07,1.3,2.06s1.37-1,1.39-2.11-.56-2.07-1.3-2.06S13.47,30,13.45,31.19Z"/><path class="cls-25" d="M13.69,31.26c0,.94.46,1.7,1.07,1.69s1.12-.79,1.14-1.73-.46-1.7-1.07-1.69S13.71,30.31,13.69,31.26Z"/><path class="cls-26" d="M14.06,31.39c0,.59.29,1.06.67,1.06s.7-.49.71-1.09-.28-1.06-.66-1.06S14.07,30.79,14.06,31.39Z"/><path class="cls-27" d="M15.2,30.26c.11.3.36.5.56.44s.26-.34.15-.64-.35-.5-.55-.45S15.09,30,15.2,30.26Z"/><path class="cls-27" d="M14.71,29.67c.12.07.25.06.29,0s0-.21-.14-.28-.26-.06-.3,0S14.59,29.6,14.71,29.67Z"/><path class="cls-28" d="M26,27.15h0a.3.3,0,0,0,.37-.24A1.18,1.18,0,0,1,27.46,26a1.08,1.08,0,0,1,1.09.8.31.31,0,1,0,.61-.15,1.71,1.71,0,0,0-1.72-1.28,1.79,1.79,0,0,0-1.67,1.43A.31.31,0,0,0,26,27.15Z"/><path class="cls-28" d="M13.51,27.81l0,0a.33.33,0,0,0,.38-.25A1.17,1.17,0,0,1,15,26.65a1.07,1.07,0,0,1,1.09.81.31.31,0,1,0,.61-.15A1.69,1.69,0,0,0,15,26a1.78,1.78,0,0,0-1.67,1.43A.31.31,0,0,0,13.51,27.81Z"/><path class="cls-10" d="M32.51,1.82a3.76,3.76,0,0,1-4.23,2.57A3.73,3.73,0,0,1,25.22.7a3.74,3.74,0,0,1-3.55,3.22,3.75,3.75,0,0,1-3.75-3,3.72,3.72,0,0,1-2.81,3.88,3.74,3.74,0,0,1-4.38-2.29h0l3.18,8.81a30.58,30.58,0,0,1,16-.52c.87-3,1.73-6,2.6-9Z"/><g class="cls-29"><path class="cls-30" d="M13.72,10.9c0,.15.1.3.16.45a30.58,30.58,0,0,1,16-.52c.05-.17.1-.33.14-.49C21.54,8.49,16,10,13.72,10.9Z"/></g><path class="cls-31" d="M15.25,5.8A3.73,3.73,0,0,0,18,1.91a3.62,3.62,0,0,0,7.16-.23,3.73,3.73,0,0,0,3,3.69,3.66,3.66,0,0,0,3.89-1.93c.15-.54.31-1.08.46-1.62h0a3.76,3.76,0,0,1-4.23,2.57A3.73,3.73,0,0,1,25.22.7a3.74,3.74,0,0,1-3.55,3.22,3.75,3.75,0,0,1-3.75-3,3.72,3.72,0,0,1-2.81,3.88,3.74,3.74,0,0,1-4.38-2.29h0l.6,1.67A3.68,3.68,0,0,0,15.25,5.8Z"/><path class="cls-30" d="M11.43,2.8a.65.65,0,0,1-.63.68.67.67,0,0,1-.05-1.33A.66.66,0,0,1,11.43,2.8Z"/><path class="cls-27" d="M10.81,2.62a.3.3,0,0,1-.6,0,.3.3,0,0,1,.29-.32A.31.31,0,0,1,10.81,2.62Z"/><path class="cls-30" d="M18.69.88a.66.66,0,0,1-.64.68.67.67,0,0,1-.68-.64.66.66,0,1,1,1.32,0Z"/><path class="cls-27" d="M18.07.7a.31.31,0,0,1-.61,0,.31.31,0,1,1,.61,0Z"/><path class="cls-30" d="M25.91.64a.66.66,0,1,1-1.31,0A.65.65,0,0,1,25.23,0,.66.66,0,0,1,25.91.64Z"/><path class="cls-27" d="M25.29.46a.3.3,0,1,1-.6,0A.29.29,0,0,1,25,.17.3.3,0,0,1,25.29.46Z"/><path class="cls-30" d="M33.25,1.9a.66.66,0,1,1-.68-.64A.67.67,0,0,1,33.25,1.9Z"/><path class="cls-27" d="M32.63,1.73a.31.31,0,0,1-.3.31A.3.3,0,0,1,32,1.75a.31.31,0,1,1,.61,0Z"/><path class="cls-32" d="M24.1,38.79a4.5,4.5,0,0,1-2.42.77,5.76,5.76,0,0,1-2.37-.11,1.76,1.76,0,0,0,0,.61A2.33,2.33,0,0,0,22,41.73c1.41-.16,2.45-1.17,2.32-2.25A1.44,1.44,0,0,0,24.1,38.79Z"/><path class="cls-33" d="M21.18,40.07a7.77,7.77,0,0,0-1.77.5A2.57,2.57,0,0,0,22,41.73a2.75,2.75,0,0,0,2.1-1.25A4.38,4.38,0,0,0,21.18,40.07Z"/><path class="cls-34" d="M8.6,57.78a13.09,13.09,0,0,0,3.49,1.53,6.81,6.81,0,0,0,6.45-1.54A15.86,15.86,0,0,0,22.32,51a11.73,11.73,0,0,1-7.76,5.28A10.75,10.75,0,0,1,7.79,55c-.19.52-.38,1.05-.54,1.59A5.44,5.44,0,0,0,8.6,57.78Z"/><path class="cls-34" d="M32.78,61.75a13.85,13.85,0,0,1-4.28,3.52,19.24,19.24,0,0,1-3.13,1.44c5.05,0,10.64-2.52,12.47-7.21a25.4,25.4,0,0,0-1.91-6.28,9.45,9.45,0,0,1-.35,3.27A16.67,16.67,0,0,1,32.78,61.75Z"/><path class="cls-15" d="M25.15,67c1.1-.83,1.22-2.25,1.16-3.65a3.42,3.42,0,0,0-.43-1.5.29.29,0,0,0-.18-.15.06.06,0,0,0-.05-.07c-1.27.08-2.16-1.11-3.35-1.39-.33-.08-1.43-.22-1.53.28s.31.91.72,1.18,1.28.61.94,1.07a2.12,2.12,0,0,1-1.29.57A4.83,4.83,0,0,1,19,63c-.45-.13-2-.76-1.76.24a2.54,2.54,0,0,0,1.75,1.54h0c-.44-.09-1.21-.35-1.21.33,0,.45.7.71,1,.84a6.13,6.13,0,0,0,.72.25c-.63.1-1.06.28-.86.57a1.7,1.7,0,0,0,1.4.62c-.1,0-.18.29-.17.36s.17.27.29.35C20.83,68.57,23.61,68.13,25.15,67Z"/><path class="cls-35" d="M22.89,64.41a.62.62,0,0,1-.15.1,3.22,3.22,0,0,1-.42.21l-.29.1a1.69,1.69,0,0,1-.34.09l-.36.06-.39,0c-.13,0-.26,0-.38,0l-.37,0-.35,0-.3-.06-.62-.16.63.07.3,0h.35l.36,0a2.3,2.3,0,0,0,.37,0l.38,0,.36,0a3.23,3.23,0,0,0,.33-.06l.3-.08c.17-.06.33-.1.43-.15Z"/><path class="cls-35" d="M23,65.79l-.13.1a2.68,2.68,0,0,1-.37.21l-.26.1a1.58,1.58,0,0,1-.31.09l-.33.07-.35,0a2.11,2.11,0,0,1-.35,0l-.34,0-.32,0L20,66.3l-.57-.14.58.06.28,0h.64a2.07,2.07,0,0,0,.35,0l.34,0,.33-.06.3-.07.27-.08c.15-.07.29-.11.38-.16Z"/><path class="cls-35" d="M23.12,66.93A.43.43,0,0,1,23,67a2.21,2.21,0,0,1-.32.21l-.23.11a1.08,1.08,0,0,1-.27.1l-.29.08-.32,0a1.56,1.56,0,0,1-.31,0H21l-.29,0-.25,0-.5-.13s.21,0,.52,0l.24,0h.58l.3,0,.3,0,.29-.07.27-.08.23-.08A2.66,2.66,0,0,0,23,67Z"/><path class="cls-7" d="M26.5,66.11A3.67,3.67,0,0,0,28.13,66l.7-.21c.22-.06.5-.17.81-.29a8.72,8.72,0,0,0,1-.42,12.17,12.17,0,0,0,1.22-.59l.66-.37.68-.45a12.12,12.12,0,0,0,2.65-2.41A11,11,0,0,0,37.72,58a11.71,11.71,0,0,0,.67-3.11,12.54,12.54,0,0,0,0-2.16c0-.25,0-.45-.05-.59l0-.21a3.7,3.7,0,0,0-1.54-2.6,2.47,2.47,0,0,0-2.47-.22,4.14,4.14,0,0,0-1.76,1.62,3.24,3.24,0,0,0-.47,2,1.13,1.13,0,0,1,0,.12c0,.08,0,.19,0,.34a6.34,6.34,0,0,1,0,1.16,5.7,5.7,0,0,1-.31,1.46A4.61,4.61,0,0,1,31,57.27a7.86,7.86,0,0,1-2.87,2c-.24.11-.49.19-.7.27s-.4.16-.56.21l-.51.15a3.09,3.09,0,0,0-1.12.59Z"/><path class="cls-36" d="M28,63.3A12.21,12.21,0,0,0,26.31,60l-.07,0a2.43,2.43,0,0,0-1,.55l1.25,5.58A3.17,3.17,0,0,0,28,66l.38-.11A6.84,6.84,0,0,0,28,63.3Z"/><path class="cls-9" d="M25.91,67.64c-.84,0-1.35-.26-1.2-.67a7.7,7.7,0,0,0-1.07-6.39c-.22-.35.06-.81.65-1a1.85,1.85,0,0,1,.45-.11,1.63,1.63,0,0,1,.44,0,1,1,0,0,1,.66.32c1.47,2.09,2.44,4.21,1.9,6.91a1.24,1.24,0,0,1-.64.65A2.79,2.79,0,0,1,25.91,67.64Z"/><path class="cls-37" d="M26.28,66.78c-.68.06-1.12-.2-1-.56A8.23,8.23,0,0,0,24,60.62c-.2-.31,0-.7.5-.88a1.56,1.56,0,0,1,.73-.08.81.81,0,0,1,.56.29,8.91,8.91,0,0,1,1.88,5.94C27.61,66.29,27,66.69,26.28,66.78Z"/><path class="cls-34" d="M28.29,44.37c-.58-.37-1.34.92-1.95,1.18a7,7,0,0,0,1.52-2.36c.18-.79-.56-.84-1-.42s-.63.73-1,1.07-.44.43-.67.63c.14-.24.29-.49.45-.72A4,4,0,0,0,26.45,42c0-.54-.45-1.14-1-.68a4.32,4.32,0,0,0-.78,1.18c-.16.27-.34.54-.52.8.13-.31.26-.63.36-.95a3.18,3.18,0,0,0,.28-1.48c-.06-.24-.21-.65-.52-.69s-.6.42-.74.73c-.26.58-.47,1.18-.74,1.75s-.53,1.1-.84,1.63l-.26.46v-.14a4.18,4.18,0,0,0,0-1.83c-.57-1.6-1.25.43-1.36,1.07a4.5,4.5,0,0,0,.76,3.7c.78,1,2,1,3.17.74C25.69,48,29.32,45,28.29,44.37Z"/><path class="cls-15" d="M28.06,44.14c-.58-.37-1.35.91-2,1.18A7.1,7.1,0,0,0,27.63,43c.17-.8-.57-.84-1.05-.43s-.62.74-1,1.08-.44.43-.67.63c.14-.25.29-.49.44-.73a3.77,3.77,0,0,0,.82-1.79c0-.54-.44-1.13-1-.68a4.74,4.74,0,0,0-.78,1.18q-.24.42-.51.81c.13-.32.25-.63.36-1a3.11,3.11,0,0,0,.27-1.47c0-.25-.21-.65-.51-.69s-.6.42-.74.73c-.26.58-.47,1.18-.74,1.75s-.54,1.1-.85,1.63c-.08.15-.16.3-.26.45a.53.53,0,0,0,0-.13,4.18,4.18,0,0,0,0-1.83c-.56-1.6-1.24.43-1.35,1.07a4.48,4.48,0,0,0,.76,3.69c.77.95,2,1,3.17.74C25.46,47.74,29.08,44.79,28.06,44.14Z"/><path class="cls-7" d="M19.47,46.61a3.41,3.41,0,0,0-.93,1.06l-.31.51-.36.58-.5.7A12.77,12.77,0,0,1,16.08,51a5.13,5.13,0,0,1-1.42,1,1.48,1.48,0,0,1-1,.14,2.8,2.8,0,0,1-1.06-.52,6.53,6.53,0,0,1-.88-.81l-.25-.27-.08-.1a3.72,3.72,0,0,0-1.95-1.21A3.6,3.6,0,0,0,7,49.44a2.53,2.53,0,0,0-1.42,2.05,4,4,0,0,0,1,3l.15.17c.09.11.22.27.41.47a12.17,12.17,0,0,0,1.77,1.6,8.93,8.93,0,0,0,3.53,1.62l.58.1c.2,0,.41,0,.61,0a6.46,6.46,0,0,0,1.24,0l.31,0,.3-.06.59-.14a4.23,4.23,0,0,0,.57-.19l.55-.21a11.72,11.72,0,0,0,3.3-2.31,14.66,14.66,0,0,0,1.1-1.2c.32-.39.64-.76.87-1.11l.66-.94.46-.73c.25-.41.4-.64.4-.64a4.69,4.69,0,0,0,.54-1.59Z"/><path class="cls-36" d="M20.45,49.54A7.56,7.56,0,0,0,24,50.8l0-.08a3.84,3.84,0,0,0,.45-1.43l-5-2.68a2.78,2.78,0,0,0-.86.94l-.08.14-.08.14A9,9,0,0,0,20.45,49.54Z"/><path class="cls-9" d="M18.58,45.3c.41-.57.94-.76,1.2-.43a7.25,7.25,0,0,0,5.87,2.72c.44,0,.6.55.33,1.36s-.94,1.53-1.42,1.54a7.22,7.22,0,0,1-3.53-1A10,10,0,0,1,18.32,47,1.69,1.69,0,0,1,18.58,45.3Z"/><path class="cls-37" d="M19.08,46.06c.31-.49.77-.66,1-.4a7.33,7.33,0,0,0,5.27,2.27c.38,0,.53.45.31,1.11s-.8,1.23-1.21,1.23a7.33,7.33,0,0,1-3.08-.83,9.28,9.28,0,0,1-2.47-2A1.31,1.31,0,0,1,19.08,46.06Z"/></g></g></g></svg>