<svg xmlns="http://www.w3.org/2000/svg" xmlns:xlink="http://www.w3.org/1999/xlink" viewBox="0 0 66.44 100"><defs><style>.cls-1{isolation:isolate;}.cls-2{fill:#3e7ec4;}.cls-3{fill:#37b2af;}.cls-4{fill:#176a78;}.cls-5,.cls-6{fill:#43b5b4;}.cls-17,.cls-23,.cls-27,.cls-29,.cls-31,.cls-5{opacity:0.5;}.cls-14,.cls-22,.cls-23,.cls-27,.cls-29,.cls-30,.cls-31,.cls-36,.cls-38,.cls-39,.cls-5,.cls-6,.cls-7,.cls-9{mix-blend-mode:multiply;}.cls-7{fill:#23999d;opacity:0.8;}.cls-8{fill:#a0d4c3;}.cls-17,.cls-37,.cls-8{mix-blend-mode:screen;}.cls-9{fill:#94bdba;}.cls-10{fill:#fbb900;}.cls-11,.cls-22{opacity:0.4;}.cls-12,.cls-40{fill:#fff;}.cls-13,.cls-14,.cls-22,.cls-23{fill:#f8c49f;}.cls-15{fill:#4e63ac;}.cls-16{fill:#78caf4;}.cls-17{fill:#7aa3bd;}.cls-18{fill:#942221;}.cls-19{fill:#729fc4;}.cls-20{fill:#197fbe;}.cls-21{fill:#7a1b19;}.cls-24{fill:#ae2728;}.cls-25{fill:#ea8434;}.cls-26{fill:#c3422c;}.cls-28{fill:#c21729;}.cls-29{fill:#f2a686;}.cls-30,.cls-31{fill:#d5d7d8;}.cls-32{fill:#462d1b;}.cls-33{fill:#63442f;}.cls-34{fill:#170000;}.cls-35{fill:#ec8862;}.cls-36{fill:#dedfe0;}.cls-37{fill:#f6ba9e;}.cls-38,.cls-39{opacity:0.6;}.cls-38{fill:url(#radial-gradient);}.cls-39{fill:url(#radial-gradient-2);}.cls-40{opacity:0.7;mix-blend-mode:color-dodge;}</style><radialGradient id="radial-gradient" cx="-623.43" cy="1297.04" r="4.45" gradientTransform="translate(819.53 -1796.75) rotate(-2) scale(1.38)" gradientUnits="userSpaceOnUse"><stop offset="0" stop-color="#ef7b63"/><stop offset="0.12" stop-color="#f2907c"/><stop offset="0.42" stop-color="#f7bfb4"/><stop offset="0.68" stop-color="#fbe2dd"/><stop offset="0.88" stop-color="#fef7f6"/><stop offset="1" stop-color="#fff"/></radialGradient><radialGradient id="radial-gradient-2" cx="-615.96" cy="1299.42" r="4.14" xlink:href="#radial-gradient"/></defs><g class="cls-1"><g id="Слой_2" data-name="Слой 2"><g id="Layer_1" data-name="Layer 1"><path class="cls-2" d="M38.44,92.26a45.47,45.47,0,0,0,20.9.81S71.18,65.9,48.77,53.23s-41.8.93-47,15.1C-2.54,80,1.14,94.65,12.08,98.42S34.37,99,38.44,92.26Z"/><path class="cls-3" d="M6.39,68c.81.79.38,2.1,1,3,.81,1.08,2.29,0,3.41.35a2.1,2.1,0,0,1,.79.47A17.9,17.9,0,0,1,16.43,67a1,1,0,0,0-.44-.75c-.93-.39-2.8.43-3.38-.77-.37-.76.27-2.48-.61-2.88-1.12-.52-3.14,1-4-.17-1.1-1.5.6-2.63.89-4a1.92,1.92,0,0,0,0-.94,30.68,30.68,0,0,0-6.74,9.81,5.35,5.35,0,0,1,1.63-.31A3.43,3.43,0,0,1,6.39,68Z"/><path class="cls-3" d="M52.88,63.85c-.74,2-2.75,0-3.91-.36a1.9,1.9,0,0,0-2,.26c-.93.83-.46,1.72-.53,2.76-.1,1.22-.9,1.9-2.07,1.44-.59-.24-1.4-.53-1.79.27a3.26,3.26,0,0,0-.24,1.06,1.41,1.41,0,0,1-.69,1.08c-1,.49-2.14.52-3,.93A17.93,17.93,0,0,1,41,76.6a3.41,3.41,0,0,1,2.14.05c1.57.56,2.41,2.8,4.4,2.11,1.62-.57,2.24-2.25,3.39-3.38.7-.68,1.51-1.33,2.52-.95s1.54,1.31,2.29,1.9a3,3,0,0,0,2.17.74,17.76,17.76,0,0,0,2.83-.95,3.06,3.06,0,0,1,1.67,0,26.23,26.23,0,0,0-6.76-17.48,1.76,1.76,0,0,0-1.49.54C53,60.37,53.42,62.35,52.88,63.85Z"/><path class="cls-3" d="M33.84,51.07c-.89.48-3.89,1.51-2.91,3,.77,1.17,2.33,1.49,3.2,2.58a1.74,1.74,0,0,1,.15,2.28,7.13,7.13,0,0,0-1,1.27,2,2,0,0,0,.29,1.94c.51.93-1.16,1.86-2.3,2.8.4.18.8.37,1.2.59s.78.47,1.16.73a3.9,3.9,0,0,1,.76-1,2.82,2.82,0,0,1,1.46-.8c.89-.11,1.71.25,2.58.18,3.28-.25,1.27-3.66,2.51-5.58.65-1,2.09-1.12,3.14-1.39s2.18-1,1.88-2.4a5.45,5.45,0,0,1-.24-1.92A2,2,0,0,1,46.46,52,36.69,36.69,0,0,0,35,48.48a.14.14,0,0,1,0,.06A2.09,2.09,0,0,1,33.84,51.07Z"/><path class="cls-3" d="M16.19,54.5c-.28.41-.9,1.22-.32,1.71a2.15,2.15,0,0,0,1.32.41,5.55,5.55,0,0,1,1.68.17c.66.27,1.78.86,1.44,1.78-.27.73-2,2.27-1.07,3,.68.56,2.46.55,2.62,1.67a2.77,2.77,0,0,1-.15,1.1,14.6,14.6,0,0,1,2.52-.5c.08-.13.16-.26.25-.39a10.48,10.48,0,0,0,.87-1.33c.35-.71.1-1.16-.34-1.77-.57-.79-.67-1.53.14-2.2s1.55-1.08,1.5-2.1a2.94,2.94,0,0,0-.9-1.79,6,6,0,0,1-1.81-2.6c-.21-1.3.63-2.12,1.39-3a31.13,31.13,0,0,0-8.55,3l0,0A2.79,2.79,0,0,1,16.19,54.5Z"/><path class="cls-3" d="M37.86,92.32c.51-1.34,1.52-2.57,2-3.89,0-.12.09-.25.13-.37a15.54,15.54,0,0,0-3.5,2.82A5.22,5.22,0,0,1,37.86,92.32Z"/><path class="cls-3" d="M58.4,85.82c-1.09,1.23-1.75,2.8-3,3.84-2,1.63-3.09-.8-4.45-1.87-1.57-1.23-2.76.53-3.64,1.67-.59.76-1.87,2.14-2.9,1.13a4.51,4.51,0,0,1-.86-1.69,2.06,2.06,0,0,0-2.61-1.2,3.19,3.19,0,0,0-.33.11,15.42,15.42,0,0,1-1.08,2.46,17.71,17.71,0,0,0-1.27,2.31l.21-.32a45.47,45.47,0,0,0,20.9.81A42,42,0,0,0,61.69,85a1.84,1.84,0,0,0-.43-.17A2.8,2.8,0,0,0,58.4,85.82Z"/><path class="cls-3" d="M16.56,95.87A2,2,0,0,1,17,94.56c.42-.55,1.25-.91,1.56-1.52a2.23,2.23,0,0,0,0-1.31,10.91,10.91,0,0,1-2.77-1.18,1.47,1.47,0,0,1-.45.32c-.54.26-1.12.35-1.67.57a2.82,2.82,0,0,0-1.49,1.63,4.18,4.18,0,0,1-1.85,2c-.69.4-1.54.89-1.78,1.57a15.6,15.6,0,0,0,3.52,1.74,29,29,0,0,0,3.78,1s0,0,0,0a3.06,3.06,0,0,0,.9-1.86C16.75,97,16.58,96.44,16.56,95.87Z"/><path class="cls-3" d="M4.94,91.37a3.27,3.27,0,0,0,.52-2c.08-1,.9-1.23,1.77-1.33.41,0,1.39.69,1.68.08.13-.27.18-.59.33-.85a2.18,2.18,0,0,1,1-1,3,3,0,0,1,1.28-.2,15.2,15.2,0,0,1-1.78-5,1.34,1.34,0,0,1-.8.33,2.65,2.65,0,0,1-1.7-.57,1.9,1.9,0,0,0-2.46.29c-1,.73-1.54.61-2.08-.51-.32-.66-.4-1.82-.94-2.33A1.93,1.93,0,0,0,0,77.94,24.83,24.83,0,0,0,3.92,92,1.93,1.93,0,0,0,4.94,91.37Z"/><path class="cls-3" d="M30.16,97.71c-.13-1-.69-1.33-1.52-1.67A2.93,2.93,0,0,1,27,94.94c-.52-.91,1-1.75-.19-2.46-1.9-1.17-.76-1.87,0-3.29a1.92,1.92,0,0,0-.75-2.82,1,1,0,0,1-.41-.41c-.35-.9.12-1.86-.09-2.82a3.1,3.1,0,0,0-1.2-2,3.43,3.43,0,0,1-.25,1.12,10.63,10.63,0,0,0-.26,2c0,2-.78,1.57-1.25,2.73s2,2.35.82,3.8c-.34.41-1.53.41-1.56.91-.05.75-.53,1.37-.64,2.09-.14,1,.45,2,.27,3s-1.42,1.61-1.61,2.72a4.33,4.33,0,0,0-.06.58,25.91,25.91,0,0,0,10.34-1.42A3.74,3.74,0,0,0,30.16,97.71Z"/><path class="cls-3" d="M39.68,86.09,39.41,86l-.1,0c-.88-.25-1.66.37-2.53.09-.67-.21-.94-.9-1.38-1.37-.78-.81-1.92-.47-2.9-.77-1.44-.45-1.78-2.11-2.77-3.06a4.32,4.32,0,0,0-2.53-1.18,6.26,6.26,0,0,0-2.05.39c1.25,0,2.46.25,3,1.53.3.65-.24,1.32.16,2s.83.71,1.34,1.07c.74.52.89,1.18,1.33,1.9.64,1,1.93.75,2.79,1.4A3.18,3.18,0,0,1,34.93,90c.21,1.48,1.63,1.35,2.48,2.26a1.74,1.74,0,0,1,.41.89c.2-.27.39-.56.57-.85.31-.73.88-1.34,1.24-2.07a18.69,18.69,0,0,0,1.15-3.43C40.37,86.64,40.07,86.31,39.68,86.09Z"/><path class="cls-3" d="M28.51,77.51a2,2,0,0,1,1.6-.29c.48.13.78.61,1.21.83,1,.54,1.27-.28,2.15-.45a1.84,1.84,0,0,1,1.16.09c1.39.6,2.57,2,4,.54.77-.81,1.52-1.21,2.56-.43l.13.12c-.21-.89-.39-1.79-.64-2.67-.32-1.16-.69-2.68-1.65-3.48-.75-.63-1.27-.54-1.7.29a1.81,1.81,0,0,0-.26.92.75.75,0,0,1-.29.55,1.1,1.1,0,0,1-.95.26,1.19,1.19,0,0,0-1.54,1.13c-.08.54-.12,1.34-.76,1.54A3.12,3.12,0,0,1,31,75.9a1.79,1.79,0,0,0-1.42-.39c-.72.23-.68.51-1,1a2.42,2.42,0,0,1-.93.81,9.78,9.78,0,0,0-2.86,2.24A3.3,3.3,0,0,1,26,78.79a4.06,4.06,0,0,0,1.84-.7A4.57,4.57,0,0,1,28.51,77.51Z"/><path class="cls-3" d="M25.22,76.3a2.58,2.58,0,0,0-1,1.91,1.72,1.72,0,0,1,.31-.48c.55-.57,1.32-.84,1.89-1.37,1.28-1.21,1-3.28,3-3.88.62-.19,1.56,0,2.1-.39.81-.51.78-1.77,1.07-2.59.43-1.24,2.6-1.42,3.77-1.4-.76-1.51-1.94-1.5-2.74-2.27-1-.17-2.35-.24-3,.59a3.19,3.19,0,0,0-.63,2.19c0,1.24-.89,1.61-1.92,2.08-.87.4-2.17,1-2.08,2.15,0,.61.56,1.35.38,2A3.07,3.07,0,0,1,25.22,76.3Z"/><path class="cls-3" d="M25.54,63.47a12.21,12.21,0,0,0-4.67.89,1,1,0,0,1,1,.77c.17.8-.41,1.71-.63,2.46a3.56,3.56,0,0,0-.09,2c.14.48.41.94.54,1.43a1.93,1.93,0,0,1-.47,1.91c-.45.52-1,1.28-.31,1.91.3.28.66.49,1,.77a3.42,3.42,0,0,1,.94,2.11,2.64,2.64,0,0,0,.1.3,5.52,5.52,0,0,1,.5.92,3,3,0,0,0,.19.3c-.13-.81-.48-1.55-.6-2.4,0-.31.25-.58.44-.78.88-.91-1-2-1.21-2.86a2.52,2.52,0,0,1,1-2.27c.44-.44,1.1-1,1-1.72a9.17,9.17,0,0,0-.63-1.85,1.55,1.55,0,0,1,.64-2c.43-.24.88-.44,1.3-.7S26.5,63.54,25.54,63.47Z"/><path class="cls-3" d="M14.65,74.74a3.62,3.62,0,0,1,1.9-.13c1.63.68.75,3.44,2.74,3.5a7.93,7.93,0,0,1,3.3.34c0-.07-.06-.14-.09-.2a5.17,5.17,0,0,0-.88-1,3.16,3.16,0,0,0-1.12-.75c-.48-.11-.81.11-1.25.07-1.27-.11-1.16-1.26-.8-2.18.23-.56.46-1.28-.07-1.78-.21-.2-.46-.37-.66-.57A2.09,2.09,0,0,1,17,70.77c-.07-.83.25-1.65.2-2.48-.07-1.16-1-1.14-1.77-.75A21.54,21.54,0,0,0,11.77,72a1.47,1.47,0,0,1,.84-.29c.46,0,1.05.31,1.05.86a3.55,3.55,0,0,1-.2,1C13.21,74.44,13.83,74.88,14.65,74.74Z"/><path class="cls-3" d="M10,78.61A15,15,0,0,0,10.2,84a11,11,0,0,0,1.51,2.35c.3-.73,1.41-.14,2-.81s1.39-2.39,2.71-2.16c.63.11.77.65,1.31.9,1.3.58,1.49-.38,2.07-1.23a5.53,5.53,0,0,1,2.95-2,2.31,2.31,0,0,0-1.24-.12,4,4,0,0,0-1.14.75,2.67,2.67,0,0,1-1.47.61c-1.08,0-1.13-1.36-2.05-1.5s-1.16.7-1.89.95c-.43.15-.95-.22-1.2-.53C13,80.21,11.47,77.14,10,78.61Z"/><path class="cls-3" d="M20.82,84.18a14.26,14.26,0,0,0-1.41,2.45c-.13.33-.24.79-.56,1-.91.57-5.15.14-4.21,1.92,0,0,0,0,0,.07,1.12.64,2.38,1,3.53,1.57.35-.89.36-1.6,1.17-2.29s1.43-1,1.59-2.2a6.12,6.12,0,0,1,.82-2.9c.38-.54.84-1,1.24-1.56A8.36,8.36,0,0,0,20.82,84.18Z"/><path class="cls-4" d="M41.87,79a17.9,17.9,0,0,0-1-4.52,19.29,19.29,0,0,0-6.25-8.64,14.28,14.28,0,0,0-5.47-2.59,14.9,14.9,0,0,0-6.41,0,18.08,18.08,0,0,0-6.13,2.64,18.66,18.66,0,0,0-5,4.83A14.85,14.85,0,0,0,10,73.83a12.29,12.29,0,0,0-.8,3.55,15.78,15.78,0,0,0,1,7.17,12.22,12.22,0,0,0,4.61,5.73A13.9,13.9,0,0,0,25.41,92a14.54,14.54,0,0,0,3.43-1.25,11.06,11.06,0,0,0,2.94-2.19,10.09,10.09,0,0,0-.38-14.45c-3.77-3.46-9.78-2.85-13.29.64s-2.23,9.7,2,11.76c2.77,1.34,6.41.25,7.34-2.89a4.3,4.3,0,0,0,.15-.65,2.49,2.49,0,0,0-1.19-2.88c-1.08-.63-3.18-1-3.89.38a2.76,2.76,0,0,1,.44-.25A2.1,2.1,0,0,1,24,80,3,3,0,0,1,27,81.25l0,0a2.35,2.35,0,0,1,.28.86,3.11,3.11,0,0,1-.22,1.65,5.84,5.84,0,0,1-1.48,1.74c-3,2.35-6.75.48-8.07-2.76a6.84,6.84,0,0,1,1.43-7.52,8.72,8.72,0,0,1,8.6-1.75A9.76,9.76,0,0,1,31.27,76c4,4.15,1.69,11.17-3.05,13.62-6,3.12-14.16,1-16.81-5.53a14.49,14.49,0,0,1-.9-6.56,12.46,12.46,0,0,1,2.21-6.07,17.46,17.46,0,0,1,4.57-4.54A17.21,17.21,0,0,1,23,64.33a13.87,13.87,0,0,1,5.94-.11,15.19,15.19,0,0,1,8.89,6.13,18.73,18.73,0,0,1,3,16,24.76,24.76,0,0,1-1.61,4.47,13.55,13.55,0,0,1-.79,1.49,15.16,15.16,0,0,0,.86-1.45,23.16,23.16,0,0,0,1.8-4.44A20.4,20.4,0,0,0,41.87,79Z"/><path class="cls-5" d="M48.77,53.23c-22.41-12.66-41.8.93-47,15.1C-2.54,80,1.14,94.65,12.08,98.42s22.29.58,26.36-6.16a45.47,45.47,0,0,0,20.9.81S71.18,65.9,48.77,53.23Zm-19,26.05c-1,.86-2.53,0-3.58-.37a2.82,2.82,0,0,0-2.67-.14,2.87,2.87,0,0,0-1.67,2.47c1.28-.82,3.45-1,3.8.79a3,3,0,0,1-1.92,3.2,2.73,2.73,0,0,1-.4.23,3.38,3.38,0,0,1-2.67.13c-2.65-.52-3.74-3.36-3.44-6a7.58,7.58,0,0,1,1.51-4,7.66,7.66,0,0,1,4.85-2.39,6.26,6.26,0,0,1,5.8,2C30.17,76.15,31,78.24,29.76,79.28Zm8.5-3.91c-.08,1.13-.68,3.43-2.22,3.26-1.25-.13-2.16-1.86-2.72-2.8A9.37,9.37,0,0,0,30,72.08a10.36,10.36,0,0,0-5.8-1.26,11.88,11.88,0,0,0-5.5,1.81A10.93,10.93,0,0,0,15,80.57,11.6,11.6,0,0,0,16.75,87c.26.42.87,1.28.57,1.81a1.23,1.23,0,0,1-1.44.4c-1.82-.59-3.25-3-4-4.6a14,14,0,0,1-1.13-7.54,13.2,13.2,0,0,1,4.5-8.13c3.47-4.39,10.21-5.78,15.29-3.61a13.09,13.09,0,0,1,4.91,3.88C36.87,70.87,38.43,73.07,38.26,75.37ZM53.5,70.05a4.85,4.85,0,0,1-4.89,1.47C46.1,70.86,44.8,68.74,43,67c-3.9-3.74-8.73-6.4-14.25-6.34-8.32.1-15.8,5.51-19.13,13C7.18,79.17,9,85.92,12.53,90.48c.68.86,2.35,2.78,1.4,4-.7.88-2.14.78-3.11.58-4-.8-6.48-4.85-7.81-8.43A26.42,26.42,0,0,1,5.78,63.35a29.78,29.78,0,0,1,11-10,27,27,0,0,1,7.52-2.77,36.11,36.11,0,0,1,9.11-.45c4,.28,8.65.68,12.17,2.91.14.09.3.21.47.34a19,19,0,0,1,6.09,5.76C54.08,62.05,56.24,67,53.5,70.05Z"/><path class="cls-6" d="M24.41,73.11a6.14,6.14,0,0,0-1.18.18l.34-.06a9.54,9.54,0,0,1,1.51-.06C24.86,73.14,24.63,73.13,24.41,73.11Z"/><path class="cls-7" d="M48.77,53.23a42.58,42.58,0,0,0-5.31-2.54c1.25.64,2.47,1.32,3.67,2a21.9,21.9,0,0,1,8.65,8,28.72,28.72,0,0,1,4,10.9c.49,3.52.25,7.66-1.74,10.73C55.87,85.72,51.2,88,47.3,86.05a5.53,5.53,0,0,1-2.57-2.23,12.73,12.73,0,0,1-1-3.38,30.13,30.13,0,0,0-2.81-8.81c-2.67-4.68-7.55-8.21-13.06-8.24a24,24,0,0,0-4.53.4,14.51,14.51,0,0,1,5.73.56,13.59,13.59,0,0,1,6.39,3.47,17,17,0,0,1,3.43,5.79,12.09,12.09,0,0,1,.63,6.8C39.2,81.49,38.41,83.94,37,84c-1.13.07-1.78-1.38-2.16-2.22a23.71,23.71,0,0,0-1.71-3.93,10.85,10.85,0,0,0-3.65-3.26,7.9,7.9,0,0,1,1.55,2,8.39,8.39,0,0,1-.77,9.53,12.68,12.68,0,0,1-8.81,4.12A12.93,12.93,0,0,1,18,90a6.85,6.85,0,0,1-4.35-2,19.82,19.82,0,0,1-2.17-2.3,13.91,13.91,0,0,0,1,1.62,17.73,17.73,0,0,0,6.83,5.22c1.24.59,2.51,1.14,3.75,1.75A8.39,8.39,0,0,1,25.86,96c1,1.15-.73,2.15-1.6,2.54a13.29,13.29,0,0,1-6.42.9A21.23,21.23,0,0,1,5.61,94.16a15.82,15.82,0,0,0,6.47,4.26c10.8,3.71,22.29.58,26.36-6.16a45.47,45.47,0,0,0,20.9.81S71.18,65.9,48.77,53.23Z"/><path class="cls-6" d="M17.43,66.21A21.28,21.28,0,0,1,19.54,65,11.07,11.07,0,0,0,17.43,66.21Z"/><path class="cls-8" d="M4.44,87.64s-10.62-24,16.38-35.27c0,0,21.07-6.45,31.43,9.05a34,34,0,0,0-31-6.36C3.05,60.38,2.7,81.81,4.44,87.64Z"/><path class="cls-8" d="M22.91,65.17S13.5,67,11.67,76.41a13.06,13.06,0,0,0,3.57,11.67s-4.7-6.79-.87-13.76,18.72-9,23.25,0C37.62,74.32,35.27,63.25,22.91,65.17Z"/><path class="cls-8" d="M24.73,73.62s-3.39-.35-6.09,3.4a5.52,5.52,0,0,0,2.61,8.45s-3.4-2.79-2.26-6,7.83-5.14,10.27-2.18C29.26,77.28,29.09,74,24.73,73.62Z"/><path class="cls-9" d="M6.41,66.61a17.19,17.19,0,0,0,4.92,9.2,2.76,2.76,0,0,1,2.19-.19c.18.07.11.37-.08.3a2.6,2.6,0,0,0-1.89.11c.32.33.66.66,1,1a.16.16,0,0,1-.22.22c-.38-.34-.74-.69-1.1-1A7.4,7.4,0,0,0,9,77.92c-1.3,1.49-1.38,3.38-1.59,5.26-.23,2.07-.81,4.66-3.19,4.83a6.93,6.93,0,0,0,7.35.13c2.47-1.5,3.35-4.22,3.75-6.93,0-.15.22-.13.29,0,2.06,2.8,6.27,2.56,9.1,1.15,1.56-.78,4.16-2.33,4.95-4.26a8.67,8.67,0,0,1-2.71-1.25c-3.23-2.06-6.86-4.41-10.67-2.26-.12.07-.22,0-.24-.13-.41-3.13.4-6.84,3.88-7.74,1.95-.51,4-.24,6-.59a13.77,13.77,0,0,0,4.68-1.73,15,15,0,0,0,6.73-15.51A31.29,31.29,0,0,0,6.9,59.62,16.68,16.68,0,0,0,6.41,66.61Z"/><path class="cls-10" d="M24.72,77.57a12.45,12.45,0,0,1-1.94-1.83,8.74,8.74,0,0,0-2.33-1.61c-2.5-1.15-5.8-1-7.73,1.1-2.87-.22-5.36,1.93-6.4,4.49a8.69,8.69,0,0,0-.6,2.76,13.12,13.12,0,0,1-.16,2.66A7.11,7.11,0,0,1,3.3,88s10.42,0,10.3-8.55a8.52,8.52,0,0,0-.1-2.24l1.44,1.71c5.73,6.3,13.36-.8,13.36-.8A7,7,0,0,1,24.72,77.57Z"/><g class="cls-11"><path class="cls-12" d="M12.42,75.67s-4,.82-5.17,3.92-.19,6.12-3,7.8a4,4,0,0,0,2.35-2.67C7.22,82.24,6.48,77.63,12.42,75.67Z"/><path class="cls-12" d="M13.19,76.35S9.7,77.21,8.81,80s-.33,5.92-3.29,7.5a4.91,4.91,0,0,0,2.76-3.06C9.08,82,8.07,78.27,13.19,76.35Z"/><path class="cls-12" d="M7.7,86.78a7.68,7.68,0,0,0,3.23-4.29c.72-2.12.34-4.79,2.06-5.7,0,0-1.4.28-1.83,3C10.77,82.28,10.71,83.85,7.7,86.78Z"/><path class="cls-12" d="M10.68,85s3-2.13,2.49-8C13.17,77,13.15,82,10.68,85Z"/><path class="cls-12" d="M13.42,75.27s3.5-2.15,6.45-.67,4.32,4.34,7.55,3.62a4,4,0,0,1-3.55-.34C21.7,76.52,19.09,72.65,13.42,75.27Z"/><path class="cls-12" d="M13.32,76.29s3.13-1.75,5.66-.35,4.29,4.09,7.53,3.22a4.86,4.86,0,0,1-4.1-.35C20.2,77.63,18.37,74.2,13.32,76.29Z"/><path class="cls-12" d="M24.46,80.16a7.67,7.67,0,0,1-5.29-.93c-2-1-3.52-3.26-5.4-2.75,0,0,1.21-.75,3.41,1C19.14,79,20.26,80.08,24.46,80.16Z"/><path class="cls-12" d="M21.07,80.9s-3.66.51-7.31-4.16C13.76,76.74,17.22,80.41,21.07,80.9Z"/></g><path class="cls-13" d="M20.14,31.72a8.58,8.58,0,0,1-3.57-2c-1.72-1.65-2.46-4-2.19-7a.83.83,0,1,1,1.66.15c-.22,2.46.34,4.35,1.68,5.64,2.76,2.66,8,2,8.06,2A.83.83,0,1,1,26,32.18,15.77,15.77,0,0,1,20.14,31.72Z"/><path class="cls-13" d="M13.71,23.32a2.32,2.32,0,0,0,2.33.8,3.42,3.42,0,0,0,2-2.07c.19-.46.56-2-.44-1.24A3.2,3.2,0,0,0,16.81,22l-.06.09c0-.13,0-.26,0-.4,0-.46.05-.92.1-1.38s.17-.94.23-1.42c0-.25.1-.64-.18-.77s-.47.11-.61.24a2.33,2.33,0,0,0-.41,1.06c-.07.25-.11.5-.16.76,0-.25,0-.49,0-.73a3.83,3.83,0,0,0,0-1.07c-.16-.5-.7-.31-.9,0a3,3,0,0,0-.19,1.48c0,.21,0,.43,0,.64-.07-.22-.12-.44-.18-.67s-.08-.73-.19-1.08-.64-.72-.84-.14a5.23,5.23,0,0,0,0,2.12c-.28-.41-.26-1.54-.78-1.54C11.74,19.22,12.89,22.57,13.71,23.32Z"/><path class="cls-13" d="M33.71,43.56a29.68,29.68,0,0,1-.4-7.05c0-2.74-1.08-7.78-4.92-7a6.46,6.46,0,0,0-2.73,1.33A18.7,18.7,0,0,0,20,41.4a37.15,37.15,0,0,0-.43,5.37c0,1.92,0,4,1.14,5.59A6.25,6.25,0,0,0,23,54.3c3.25,1.43,7.76.71,10.68-1.15.61-.38.55-.63.56-1.29A31.62,31.62,0,0,0,34,44.65C33.9,44.29,33.8,43.92,33.71,43.56Z"/><path class="cls-14" d="M29.46,32.19a21,21,0,0,0,3.06.24h.08c-.7-1.87-2-3.36-4.21-2.91a6.83,6.83,0,0,0-2.47,1.11A6,6,0,0,0,29.46,32.19Z"/><path class="cls-13" d="M40.58,47.8a.83.83,0,0,1-.49-.65c-1.35-9.26-7.69-13.21-7.76-13.25a.85.85,0,0,1-.28-1.15.84.84,0,0,1,1.15-.28c.29.18,7.08,4.41,8.54,14.44a.84.84,0,0,1-1.16.89Z"/><path class="cls-13" d="M42.56,47.49a2.13,2.13,0,0,0-2.22-.35A3.1,3.1,0,0,0,38.9,49.3c-.09.44-.18,1.91.6,1a3,3,0,0,0,.5-1.16l0-.09c0,.12,0,.24,0,.36q.09.63.12,1.26c0,.44,0,.87,0,1.31,0,.23,0,.58.28.66s.41-.17.51-.31a2.06,2.06,0,0,0,.2-1c0-.24,0-.47,0-.71.05.22.09.43.12.65a3.16,3.16,0,0,0,.2,1c.21.42.67.16.79-.19a2.62,2.62,0,0,0-.06-1.36c0-.18-.07-.38-.1-.57.1.19.18.38.27.57s.19.64.34.94.68.55.77,0a4.79,4.79,0,0,0-.36-1.9c.32.33.48,1.34.95,1.26C45,50.86,43.41,48,42.56,47.49Z"/><path class="cls-15" d="M22.82,35.72h0a.14.14,0,0,1-.06-.2s2.3-4.26,6-6a.14.14,0,0,1,.12.26C25.25,31.47,23,35.61,23,35.65A.15.15,0,0,1,22.82,35.72Z"/><path class="cls-15" d="M30.27,38l0,0a.14.14,0,0,1-.05-.18c0-.05.06-.25.11-.48a43.23,43.23,0,0,1,1.87-6.66.15.15,0,0,1,.19-.08.15.15,0,0,1,.08.19,44.12,44.12,0,0,0-1.86,6.61c-.1.5-.11.53-.14.57A.14.14,0,0,1,30.27,38Z"/><path class="cls-15" d="M27.27,38.42l-2.18-.72a.16.16,0,0,1-.09-.19.15.15,0,0,1,.19-.09l2.18.72a.16.16,0,0,1,.09.18A.16.16,0,0,1,27.27,38.42Z"/><path class="cls-15" d="M31,39.44a.14.14,0,0,1-.1-.16.14.14,0,0,1,.16-.12,4.21,4.21,0,0,0,2.24-.34.15.15,0,1,1,.15.25,4.4,4.4,0,0,1-2.42.38Z"/><path class="cls-16" d="M26.12,36.08c0-.38-.35-.84-.81-.59-.28.16-.46.64-.52.71.33-.64.33-1,.25-1.21a.73.73,0,0,0-1.31-.15l-.41.69c.34-.94.07-1.51-.39-1.52s-.81.7-.94,1.09a2.62,2.62,0,0,0-.09.38,2.29,2.29,0,0,0-.15-.88c-.25-.54-.84-.19-1.05.15a3,3,0,0,0,.48,3.1,2.74,2.74,0,0,0,2,.86,3,3,0,0,0,2-.63A3.31,3.31,0,0,0,26.12,36.08Z"/><path class="cls-17" d="M21,35s-.17,0-.26.68a2.68,2.68,0,0,0,.65,1.94.1.1,0,0,0,.15,0C21.81,37.29,21.43,34.87,21,35Z"/><path class="cls-17" d="M22.76,34.53s-.14-.17-.43.5a3.12,3.12,0,0,0-.13,2.08.11.11,0,0,0,.15,0C22.7,37,23.19,34.55,22.76,34.53Z"/><path class="cls-17" d="M24.33,35s-.08-.2-.55.36A3.16,3.16,0,0,0,23,37.33a.11.11,0,0,0,.13.08C23.56,37.33,24.74,35.18,24.33,35Z"/><path class="cls-17" d="M25.45,36s0-.15-.43.21a2.26,2.26,0,0,0-.73,1.33.08.08,0,0,0,.09.07C24.67,37.63,25.73,36.2,25.45,36Z"/><path class="cls-16" d="M32.26,38.11c0-.38-.35-.84-.81-.59-.28.15-.46.64-.52.71A1.62,1.62,0,0,0,31.19,37a.73.73,0,0,0-1.32-.15l-.41.69c.34-.94.07-1.52-.39-1.52s-.8.7-.94,1.09a2.62,2.62,0,0,0-.09.38,2.2,2.2,0,0,0-.15-.89c-.25-.53-.84-.19-1.05.16a3,3,0,0,0,.48,3.1,2.74,2.74,0,0,0,2,.86,3,3,0,0,0,2-.63A3.21,3.21,0,0,0,32.26,38.11Z"/><path class="cls-17" d="M27.15,37s-.17,0-.26.67a2.69,2.69,0,0,0,.65,2,.1.1,0,0,0,.15,0C28,39.32,27.57,36.89,27.15,37Z"/><path class="cls-17" d="M28.9,36.55s-.14-.16-.43.51a3.12,3.12,0,0,0-.13,2.08.11.11,0,0,0,.15,0C28.84,39,29.34,36.58,28.9,36.55Z"/><path class="cls-17" d="M30.47,37.05s-.08-.2-.55.36a3.1,3.1,0,0,0-.75,1.94s0,.11.13.09C29.7,39.36,30.88,37.2,30.47,37.05Z"/><path class="cls-17" d="M31.59,38.07s0-.15-.43.21a2.26,2.26,0,0,0-.73,1.33.09.09,0,0,0,.09.07C30.81,39.66,31.87,38.22,31.59,38.07Z"/><path class="cls-18" d="M32.5,12.71a5,5,0,0,0-.76-3,2.64,2.64,0,0,0,1.71-2.15,3.14,3.14,0,0,0-1.71-2.89,1.79,1.79,0,0,0-.39-.2,4,4,0,0,0,.06-1.9A3.45,3.45,0,0,0,29,.22a3.76,3.76,0,0,0-3,.21,4.45,4.45,0,0,0-.88.75,2.9,2.9,0,0,0-.36-.35A4.55,4.55,0,0,0,21.25.11,5.39,5.39,0,0,0,18.07,2a3,3,0,0,0-.73,1.85,5.34,5.34,0,0,0-1.47,0,5,5,0,0,0-3.24,1.52c-1.68,1.8-1.89,5,.59,6.25a3.25,3.25,0,0,0,1.53.33,3.35,3.35,0,0,0,.18,2.48,2.33,2.33,0,0,0,2.24,1.37,4.49,4.49,0,0,0-.33,1.16,3.49,3.49,0,0,0,2.05,3.42,5.23,5.23,0,0,0,4.2.41,3.68,3.68,0,0,0,1.72-1.23c.14-.17.3-.37.45-.58a1.56,1.56,0,0,0,1.55.19,6.22,6.22,0,0,0,1.62-1,17,17,0,0,0,2-1.66A6.29,6.29,0,0,0,32.5,12.71Z"/><path class="cls-19" d="M26,4a1.62,1.62,0,1,1-2.29.12A1.63,1.63,0,0,1,26,4Z"/><path class="cls-20" d="M29,3.16a1.9,1.9,0,1,1-2.68-.3A1.91,1.91,0,0,1,29,3.16Z"/><path class="cls-21" d="M19.12,18a20.17,20.17,0,0,0,.33,3.46,13.05,13.05,0,0,0,.9,3.13,6,6,0,0,0,1.42,2A21.13,21.13,0,0,0,25,27.77l2.31-15-5.59-1.16a1.51,1.51,0,0,0-2.35.28A36.89,36.89,0,0,0,19.12,18Z"/><path class="cls-13" d="M22.1,18.44A2.34,2.34,0,0,0,19.33,16c-2.86.2-1.75,5.58,2.4,5.69Z"/><path class="cls-22" d="M22.1,18.44A2.34,2.34,0,0,0,19.33,16c-2.86.2-1.75,5.58,2.4,5.69Z"/><path class="cls-23" d="M20.9,18.4c-.29-.91-1.21-1.85-2-1.32s-.3,2.06.29,2.7C20.16,20.8,21.45,20.13,20.9,18.4Z"/><path class="cls-13" d="M37,6.14a13.24,13.24,0,0,0-15.95,4.68,6.9,6.9,0,0,1,.23,1.36,23,23,0,0,1-.35,4.9c-.2,1.18-.58,2.31-.88,3.47a8.24,8.24,0,0,0,.18,3.59,7,7,0,0,0,1.68,3,13.65,13.65,0,0,0,6.57,4.05,13.47,13.47,0,0,0,13.6-4.26,14,14,0,0,0,2.08-3.47A13.24,13.24,0,0,0,37,6.14Z"/><path class="cls-24" d="M50.86,17.49a10.52,10.52,0,0,0-1.45-4.71A20.25,20.25,0,0,0,33.46,3.86c-4.62-.2-9.27,1.23-12.29,4.86A11.18,11.18,0,0,0,19.62,11L19,12.74s3.54,1.67,5.76-1.23a10.66,10.66,0,0,0,6,6,13.18,13.18,0,0,0,8.68.15c.08,1.22.46,5.83-1.09,8.54a18.52,18.52,0,0,1-1,1.82,15.54,15.54,0,0,1-2.56,3.3,11.59,11.59,0,0,0,5.35-.7C46,28.66,51.2,23.43,50.86,17.49Z"/><path class="cls-13" d="M38.74,24A2.34,2.34,0,0,1,42.29,23c2.48,1.44-.9,5.78-4.67,4.05Z"/><path class="cls-14" d="M39.84,24.45c.65-.69,1.9-1.12,2.36-.3s-.64,2-1.45,2.29C39.43,26.93,38.58,25.77,39.84,24.45Z"/><path class="cls-20" d="M49.72,9.66a1.62,1.62,0,1,1-1.26-1.91A1.6,1.6,0,0,1,49.72,9.66Z"/><path class="cls-19" d="M47.71,11.54a1.91,1.91,0,1,1-1.12-2.46A1.91,1.91,0,0,1,47.71,11.54Z"/><path class="cls-18" d="M45.49,21.75A17.62,17.62,0,0,0,46.82,24,6.25,6.25,0,0,0,48,25.48a1.58,1.58,0,0,0,1.53.36c.06.25.14.49.21.7a3.71,3.71,0,0,0,1.2,1.75A5.27,5.27,0,0,0,55,29.35c1.36-.22,2.85-1,3.11-2.5a4,4,0,0,0,.09-1.2,2.37,2.37,0,0,0,2.58-.51,3.4,3.4,0,0,0,1-2.27,3.27,3.27,0,0,0,1.55.22c2.75-.28,3.66-3.4,2.71-5.66a5,5,0,0,0-2.51-2.55,5.11,5.11,0,0,0-1.4-.46,3.05,3.05,0,0,0,0-2,5.41,5.41,0,0,0-2.33-2.87A4.52,4.52,0,0,0,56.27,9a4.29,4.29,0,0,0-.46.2,4.42,4.42,0,0,0-.57-1A3.72,3.72,0,0,0,52.47,7a3.47,3.47,0,0,0-3.08,1.39,4.09,4.09,0,0,0-.6,1.8,3,3,0,0,0-.43.05,3.18,3.18,0,0,0-2.61,2.12A2.67,2.67,0,0,0,46.62,15a5,5,0,0,0-1.74,2.54A6.23,6.23,0,0,0,45.49,21.75Z"/><path class="cls-25" d="M34.74,46.2c-1.43.13-2.88,0-4.31.16a15.08,15.08,0,0,0-4.62,1.25,19.74,19.74,0,0,0-1.92,1.18c-.25.15-.62-.07-.84-.17s-.61-.44-1-.58-.7-.29-1.06-.41l-.66-.2-1.14.32.05.17h0s0,0,0,0a1.67,1.67,0,0,1,.06.2,3.89,3.89,0,0,1,.09.47c0,.15,0,.27.05.35s0,.15.06.24a.65.65,0,0,1-.11.41,2.91,2.91,0,0,1-.64.7,7.26,7.26,0,0,1-1.31.85l-.42.2-.1.06-.16.06-.33.13-1.55.62-.54.21-.59.24c-.39.16-.77.35-1.15.53a14.62,14.62,0,0,0-2.1,1.33,10.38,10.38,0,0,0-3.05,3.71,11.13,11.13,0,0,0-1,4.58c0,.38,0,.77,0,1.15s.08.76.13,1.13a11.4,11.4,0,0,0,.45,2c.17.56.38,1.06.58,1.58s.43,1,.68,1.43.47.91.73,1.34.52.85.79,1.25A28.14,28.14,0,0,0,13.43,77l0,.14v-.08l0,0,0-.13c.29-1.82.49-3.71.71-5.58.1-.94.22-1.86.35-2.77a24.52,24.52,0,0,1,.5-2.55,3.8,3.8,0,0,1,.36-.7,3.57,3.57,0,0,1,.4-.52,2.2,2.2,0,0,1,1-.64,2.17,2.17,0,0,1,1-.07,3.52,3.52,0,0,1,.41.1l.09,0h.14a2.73,2.73,0,0,0,.52,0l.66-.06.36,0,.18,0,.23,0c.63-.11,1.24-.21,1.88-.38s1.27-.36,1.9-.56a19.76,19.76,0,0,0,1.92-.82,16.39,16.39,0,0,0,3.65-2.44,15.15,15.15,0,0,0,2.9-3.5,15.7,15.7,0,0,0,1.65-3.88A16.54,16.54,0,0,0,34.83,49,19.17,19.17,0,0,0,34.74,46.2ZM20.15,47.69l-.09,0-.17,0-.23.06Z"/><path class="cls-26" d="M20.78,47.55a1.53,1.53,0,0,1-.34.09l-.4.08h0l-.06,0s-.07,0-.11,0l-.1,0h0a1.42,1.42,0,0,1,.19,0,2,2,0,0,0,.57,0,1.69,1.69,0,0,0,.42-.15Z"/><path class="cls-26" d="M20.63,47.94a.78.78,0,0,1-.24.23,1.43,1.43,0,0,1-.8.2H19.4l0,.13h.22a1.06,1.06,0,0,0,.81-.27A.63.63,0,0,0,20.63,47.94Z"/><path class="cls-26" d="M22.29,48.15a1.21,1.21,0,0,1-.58.14,1.43,1.43,0,0,1-.78-.21.85.85,0,0,1-.22-.18,1.22,1.22,0,0,0,.23.31,1.12,1.12,0,0,0,.83.3,1,1,0,0,0,.67-.27Z"/><path class="cls-26" d="M21.73,48.7a.69.69,0,0,1-.27.21,1.34,1.34,0,0,1-.83.06,1.67,1.67,0,0,1-.93-.39.71.71,0,0,0,.19.21,1,1,0,0,0,.29.17,1.58,1.58,0,0,0,.49.15,1,1,0,0,0,.84-.13.79.79,0,0,0,.18-.19A.37.37,0,0,0,21.73,48.7Z"/><path class="cls-26" d="M22.74,49.29a1.41,1.41,0,0,1-.72-.37,1.5,1.5,0,0,1-.14-.18l0-.08a1.28,1.28,0,0,0,.17.39,1.06,1.06,0,0,0,.27.3,1,1,0,0,0,.48.19.89.89,0,0,0,.87-.31,1,1,0,0,0,.18-.29.55.55,0,0,0,.05-.14,1.1,1.1,0,0,1-.28.33A1,1,0,0,1,22.74,49.29Z"/><path class="cls-26" d="M27,50a1.14,1.14,0,0,1-.68-.64,3.54,3.54,0,0,1-.14-.33c0-.09,0-.15,0-.15a4.31,4.31,0,0,0,.14.75,1.73,1.73,0,0,0,.23.54.64.64,0,0,0,.46.28,1,1,0,0,0,.94-.66,3,3,0,0,0,.2-.5l.05-.23a1.86,1.86,0,0,1-.3.55A.85.85,0,0,1,27,50Z"/><path class="cls-26" d="M31.32,50.62c-.35-.12-.53-.53-.65-.91a4.89,4.89,0,0,1-.12-.49,2.13,2.13,0,0,1,0-.22s0,.55.12,1.11a2.69,2.69,0,0,0,.19.79c.09.23.23.38.44.39.43,0,.78-.5,1-1a4.12,4.12,0,0,0,.22-.73,2,2,0,0,0,.06-.32,3.12,3.12,0,0,1-.31.79C32,50.39,31.68,50.73,31.32,50.62Z"/><path class="cls-26" d="M27,47.12a1.88,1.88,0,0,1-.2.52.85.85,0,0,1-.78.49,1,1,0,0,1-.65-.3l-.13.08h0c.17.32.42.65.83.62a1,1,0,0,0,.79-.75,1.92,1.92,0,0,0,.13-.67Z"/><path class="cls-26" d="M24.92,49.63a1.17,1.17,0,0,1-.71-.51,1.57,1.57,0,0,1-.13-.26l0-.11a2.66,2.66,0,0,0,.16.57,1.23,1.23,0,0,0,.26.42.65.65,0,0,0,.46.24,1,1,0,0,0,.91-.48,2.07,2.07,0,0,0,.19-.41l0-.18a1.52,1.52,0,0,1-.29.44A.88.88,0,0,1,24.92,49.63Z"/><path class="cls-26" d="M29,47.46a.85.85,0,0,1-.78.59,1.11,1.11,0,0,1-.79-.56,2.94,2.94,0,0,1-.24-.43h0c.05.13.14.42.27.72s.42.81.84.76.67-.48.79-.91a3.19,3.19,0,0,0,.11-.84A2.43,2.43,0,0,1,29,47.46Z"/><path class="cls-26" d="M30.4,48.56c.42-.06.67-.56.79-1.06a3.93,3.93,0,0,0,.1-1,3.42,3.42,0,0,1-.18.75c-.14.38-.4.72-.77.69a1.19,1.19,0,0,1-.81-.68,4.36,4.36,0,0,1-.27-.6s.12.48.3,1S30,48.62,30.4,48.56Z"/><path class="cls-26" d="M28.33,48.92s0,.46.13.93a2.33,2.33,0,0,0,.22.66.54.54,0,0,0,.45.34c.42,0,.75-.4,1-.84a3.49,3.49,0,0,0,.21-.62c0-.17.06-.28.06-.28a2.75,2.75,0,0,1-.31.68.85.85,0,0,1-.88.49,1.13,1.13,0,0,1-.67-.76c-.06-.16-.1-.31-.13-.42A1.64,1.64,0,0,1,28.33,48.92Z"/><path class="cls-26" d="M33.48,46.26a4,4,0,0,1-.16.84c-.14.43-.39.83-.77.78s-.63-.43-.81-.79a6.16,6.16,0,0,1-.29-.71s.14.57.32,1.13.44,1.13.85,1.07.67-.65.78-1.22a5.56,5.56,0,0,0,.09-1.1Z"/><path class="cls-26" d="M34.67,47.8c-.37,0-.63-.49-.82-.9-.11-.25-.19-.49-.24-.64h0c.06.23.16.67.29,1.11.2.64.45,1.3.86,1.22l.1,0q0-.39,0-.78A.32.32,0,0,1,34.67,47.8Z"/><path class="cls-26" d="M32.67,49.08s0,.64.09,1.3a4,4,0,0,0,.18.91c.09.25.22.43.43.43.43,0,.8-.59,1-1.2a6.49,6.49,0,0,0,.24-.83c0-.22.06-.37.06-.37a4,4,0,0,1-.33.91c-.21.43-.56.83-.91.71s-.52-.6-.64-1c-.05-.21-.09-.42-.11-.57A1.56,1.56,0,0,1,32.67,49.08Z"/><path class="cls-26" d="M20.45,49.15a.77.77,0,0,1-.24.05,2.46,2.46,0,0,1-.7-.16.06.06,0,0,1,0,0,1.42,1.42,0,0,0,.72.16A.34.34,0,0,0,20.45,49.15Z"/><path class="cls-26" d="M22.51,49.66a.9.9,0,0,1-.31.17,1.34,1.34,0,0,1-.83-.09,2.49,2.49,0,0,1-.66-.4c-.14-.12-.17-.18-.17-.19l0,.08a.94.94,0,0,0,.11.17,1.8,1.8,0,0,0,.24.24,1.57,1.57,0,0,0,.45.25,1,1,0,0,0,.86,0,.53.53,0,0,0,.21-.16A.39.39,0,0,0,22.51,49.66Z"/><path class="cls-26" d="M19.47,49.08s0,0,.08.09,0,0,0,0Z"/><path class="cls-26" d="M20.23,49.79a1.28,1.28,0,0,0,.78.3l.21-.05.06,0a.57.57,0,0,1-.3,0,1.68,1.68,0,0,1-.75-.34c-.39-.28-.6-.46-.69-.53s0,0,0,0l.22.23A6,6,0,0,0,20.23,49.79Z"/><path class="cls-26" d="M20.21,49.92h-.05L20,49.87a1.56,1.56,0,0,1-.5-.34.36.36,0,0,0,0,.09,1.61,1.61,0,0,0,.3.22l.14.06.11,0A.33.33,0,0,0,20.21,49.92Z"/><path class="cls-26" d="M21.82,51.3l-.1,0a1.19,1.19,0,0,1-.26,0,1.15,1.15,0,0,1-.72-.43,1.88,1.88,0,0,1-.26-.39,1.38,1.38,0,0,1-.13-.29,1.56,1.56,0,0,1-.06-.24.28.28,0,0,0,0,.08.57.57,0,0,0,0,.22,1.25,1.25,0,0,0,.35.79,1,1,0,0,0,.81.36A.88.88,0,0,0,21.82,51.3Z"/><path class="cls-26" d="M20.47,51.14h-.1a1,1,0,0,1-.24-.06,1.25,1.25,0,0,1-.63-.56,2.18,2.18,0,0,1-.23-.64l-.1.12a1.13,1.13,0,0,0,.19.67,1.18,1.18,0,0,0,.37.37,1,1,0,0,0,.36.13.85.85,0,0,0,.28,0Z"/><path class="cls-26" d="M20.58,51.21l-.07.11c0,.07-.09.17-.14.29a1,1,0,0,0,.48,1.27,1,1,0,0,0,.45.08,1.39,1.39,0,0,0,.35-.06l.14-.06-.13,0a1.12,1.12,0,0,1-.31,0,1,1,0,0,1-.7-.51,1.25,1.25,0,0,1-.15-.81,2.42,2.42,0,0,1,.05-.24A.24.24,0,0,1,20.58,51.21Z"/><path class="cls-26" d="M22.94,56A1.06,1.06,0,0,1,23,55a3,3,0,0,1,.25-.45l-.15.18c-.09.11-.22.26-.33.42-.21.34-.42.73-.17,1.07a.8.8,0,0,0,.5.3,1.57,1.57,0,0,0,.61,0,2.14,2.14,0,0,0,.72-.28l-.18.06a1.57,1.57,0,0,1-.43.08A.88.88,0,0,1,22.94,56Z"/><path class="cls-26" d="M27.09,59.69l-.24.11a2.4,2.4,0,0,1-.55.16c-.42.07-.87,0-1-.3a1.17,1.17,0,0,1,.23-1.06,4.59,4.59,0,0,1,.43-.59l-.24.25c-.14.16-.34.34-.51.55-.36.43-.68.9-.41,1.22a.73.73,0,0,0,.58.25,2.39,2.39,0,0,0,.77-.13,4.47,4.47,0,0,0,.68-.29A2.56,2.56,0,0,0,27.09,59.69Z"/><path class="cls-26" d="M22.7,49.66a1.16,1.16,0,0,0,0,.13,1.56,1.56,0,0,0,.07.32,1.3,1.3,0,0,0,.19.37,1,1,0,0,0,.43.31.88.88,0,0,0,.93-.18,1,1,0,0,0,.25-.28l.08-.14a1.34,1.34,0,0,1-.35.3.94.94,0,0,1-.86,0,1.37,1.37,0,0,1-.62-.55.66.66,0,0,1-.1-.22A.78.78,0,0,1,22.7,49.66Z"/><path class="cls-26" d="M24.76,50.14v.2c0,.12,0,.28,0,.45a2.21,2.21,0,0,0,.15.5.72.72,0,0,0,.41.35,1,1,0,0,0,1-.36,1.54,1.54,0,0,0,.28-.4,1.14,1.14,0,0,0,.1-.19,1.91,1.91,0,0,1-.39.43.85.85,0,0,1-.9.14,1.11,1.11,0,0,1-.57-.68,1.18,1.18,0,0,1-.08-.31C24.77,50.19,24.76,50.14,24.76,50.14Z"/><path class="cls-26" d="M23.84,52.09a1.25,1.25,0,0,1-.45-.73c0-.1,0-.2,0-.26V51a2.44,2.44,0,0,0-.06.53,1,1,0,0,0,.4.87.92.92,0,0,0,1,0,2.12,2.12,0,0,0,.34-.27l.11-.14a1.24,1.24,0,0,1-.43.26A.87.87,0,0,1,23.84,52.09Z"/><path class="cls-26" d="M21.37,50a.87.87,0,0,0,0,.34,1.29,1.29,0,0,0,.51.71.94.94,0,0,0,.89.14,1.28,1.28,0,0,0,.27-.16l.09-.09a.81.81,0,0,1-.37.14,1.08,1.08,0,0,1-.81-.24,1.9,1.9,0,0,1-.53-.59A.75.75,0,0,1,21.37,50Z"/><path class="cls-26" d="M25.64,53.29a1.12,1.12,0,0,1-.36-.85c0-.14,0-.27,0-.36s0-.14,0-.14a5.36,5.36,0,0,0-.17.72c-.05.38-.07.82.29,1a1,1,0,0,0,1.12-.21,3.76,3.76,0,0,0,.4-.38,2.06,2.06,0,0,0,.14-.19,1.61,1.61,0,0,1-.5.38A.81.81,0,0,1,25.64,53.29Z"/><path class="cls-26" d="M22,51.38l0,.13a1.52,1.52,0,0,0-.09.33.94.94,0,0,0,.22.9A.93.93,0,0,0,23,53a1.67,1.67,0,0,0,.35-.15l.14-.09-.13,0a1,1,0,0,1-.33.06.93.93,0,0,1-.8-.35,1.31,1.31,0,0,1-.22-.42,1,1,0,0,1-.07-.36A1.79,1.79,0,0,1,22,51.38Z"/><path class="cls-26" d="M23.61,52.74l-.08.18a1.86,1.86,0,0,0-.19.42.91.91,0,0,0,.1,1,1,1,0,0,0,1.07.12,2.94,2.94,0,0,0,.44-.23.82.82,0,0,0,.17-.14L25,54.2a2.14,2.14,0,0,1-.38.12.84.84,0,0,1-.88-.27.88.88,0,0,1-.19-.45,1.2,1.2,0,0,1,0-.42A2.6,2.6,0,0,1,23.61,52.74Z"/><path class="cls-26" d="M23.13,54.57l-.16,0a1.31,1.31,0,0,1-.37,0,.89.89,0,0,1-.78-.46,1.12,1.12,0,0,1-.06-.87,1.8,1.8,0,0,1,.17-.39l-.11.15c-.06.09-.16.21-.24.35a1,1,0,0,0,0,1,.81.81,0,0,0,.46.32,1.31,1.31,0,0,0,.52,0A1.73,1.73,0,0,0,23.13,54.57Z"/><path class="cls-26" d="M27.47,52A1.11,1.11,0,0,1,27,51.2c0-.15-.05-.29-.06-.39v-.17s0,.11,0,.26,0,.37,0,.58a3.17,3.17,0,0,0,.1.64.62.62,0,0,0,.39.4A1.1,1.1,0,0,0,28.42,52a3,3,0,0,0,.31-.51l.11-.25a2.26,2.26,0,0,1-.42.55A.83.83,0,0,1,27.47,52Z"/><path class="cls-26" d="M29,51.13s0,.12,0,.32,0,.45-.05.71c0,.53,0,1.1.42,1.21s.85-.28,1.15-.73a4.13,4.13,0,0,0,.35-.63l.12-.29a3.41,3.41,0,0,1-.46.67c-.28.32-.65.56-1,.38a1.19,1.19,0,0,1-.48-1,2.86,2.86,0,0,1,0-.48Z"/><path class="cls-26" d="M27.23,52.87a9.1,9.1,0,0,0-.27.91c-.11.47-.19,1,.18,1.2s.85,0,1.23-.37a4.91,4.91,0,0,0,.46-.49l.17-.24a2.65,2.65,0,0,1-.57.51,1.57,1.57,0,0,1-.52.22.65.65,0,0,1-.5-.13,1.21,1.21,0,0,1-.28-1c0-.16,0-.32.06-.43A1.9,1.9,0,0,1,27.23,52.87Z"/><path class="cls-26" d="M25.19,55.65a.75.75,0,0,1-.16-.48,1.63,1.63,0,0,1,.06-.5,4.94,4.94,0,0,1,.2-.53l-.13.23a3.49,3.49,0,0,0-.28.52c-.19.39-.34.86,0,1.14a1.11,1.11,0,0,0,1.2,0,3.7,3.7,0,0,0,.52-.32l.16-.13.05,0-.18.12a2.77,2.77,0,0,1-.45.19A.83.83,0,0,1,25.19,55.65Z"/><path class="cls-26" d="M28.39,56.91l-.21.14a3.42,3.42,0,0,1-.51.26c-.38.16-.83.19-1-.11a.78.78,0,0,1-.13-.52,2.59,2.59,0,0,1,.13-.55,5.64,5.64,0,0,1,.29-.63l-.18.28a6.09,6.09,0,0,0-.37.61c-.25.46-.47,1-.16,1.26s.87.13,1.34-.13a5.66,5.66,0,0,0,.6-.4l.17-.15Z"/><path class="cls-26" d="M24.59,56.3l-.2.21c-.11.14-.27.3-.42.49-.28.38-.54.81-.29,1.15a.81.81,0,0,0,.54.27,1.82,1.82,0,0,0,.69-.08,3.61,3.61,0,0,0,.6-.23l.25-.14-.21.08a2,2,0,0,1-.5.12c-.37,0-.77,0-.93-.35a1.11,1.11,0,0,1,.13-1A3.55,3.55,0,0,1,24.59,56.3Z"/><path class="cls-26" d="M33.05,52.25a4,4,0,0,1-.49.8c-.31.38-.7.68-1,.5s-.4-.68-.43-1.1a5.37,5.37,0,0,1,0-.57c0-.15,0-.25,0-.25l-.05.38c0,.24-.07.54-.1.86,0,.63-.07,1.29.34,1.39s.9-.38,1.23-.92a4.41,4.41,0,0,0,.38-.75C33,52.39,33.05,52.25,33.05,52.25Z"/><path class="cls-26" d="M33.17,52.12s0,.17-.07.44-.08.62-.13,1c-.07.73-.15,1.48.27,1.57h.06c.13-.27.24-.53.36-.8a.32.32,0,0,1-.14,0c-.33-.2-.38-.75-.39-1.24a6.23,6.23,0,0,1,0-.65C33.16,52.23,33.17,52.12,33.17,52.12Z"/><path class="cls-26" d="M31.13,54.77s-.07.16-.16.41-.22.55-.32.88c-.23.65-.43,1.34,0,1.52s1-.21,1.46-.71a4.91,4.91,0,0,0,.59-.71c.14-.2.22-.34.22-.34a3.93,3.93,0,0,1-.7.76,2.31,2.31,0,0,1-.62.38.52.52,0,0,1-.53-.07c-.26-.26-.21-.79-.12-1.25.05-.23.1-.44.15-.6S31.13,54.77,31.13,54.77Z"/><path class="cls-26" d="M30.89,54.82a3.45,3.45,0,0,1-.64.63,1.5,1.5,0,0,1-.57.3.52.52,0,0,1-.51-.1,1.27,1.27,0,0,1-.2-1.11c0-.2.07-.38.1-.52a1.71,1.71,0,0,1,.06-.22s-.21.54-.38,1.09-.3,1.16.08,1.36.92-.12,1.34-.54a4.31,4.31,0,0,0,.52-.59Z"/><path class="cls-26" d="M28.14,58.82a.78.78,0,0,1-.09-.55,2.45,2.45,0,0,1,.19-.62c.18-.39.38-.73.38-.73l-.22.33c-.13.19-.31.45-.47.72-.32.53-.61,1.11-.29,1.38s.95.07,1.48-.25a7.56,7.56,0,0,0,.68-.5,2,2,0,0,0,.2-.18l.08-.07a2.4,2.4,0,0,1-.24.18,4.84,4.84,0,0,1-.57.32C28.83,59.06,28.35,59.13,28.14,58.82Z"/><path class="cls-26" d="M30.24,58.28l-.62.89a4.36,4.36,0,0,0-.73,1.42l.61-.5a2.71,2.71,0,0,1,.37-1.16c.09-.18.19-.34.26-.46Z"/><path class="cls-26" d="M27.28,59.71s-.12.1-.29.27l-.61.62c-.42.48-.8,1-.53,1.3a.82.82,0,0,0,.67.22c.2-.1.4-.22.59-.34-.31,0-.57-.06-.68-.3s.08-.77.32-1.12A5.9,5.9,0,0,1,27.28,59.71Z"/><path class="cls-26" d="M18.74,50.38l-.11.09a1.08,1.08,0,0,0,.38.09.35.35,0,0,0,.15,0,.34.34,0,0,1-.12,0A1,1,0,0,1,18.74,50.38Z"/><path class="cls-26" d="M20.18,52.41a1.08,1.08,0,0,1-.41-.08,1,1,0,0,1-.61-.6,1.28,1.28,0,0,1-.05-.83,1.15,1.15,0,0,1,.13-.29.39.39,0,0,0-.08.09A1.75,1.75,0,0,0,19,51a1,1,0,0,0,.73,1.46,1.41,1.41,0,0,0,.35,0Z"/><path class="cls-26" d="M18.67,52l-.12,0a1.24,1.24,0,0,1-.3-.11,1,1,0,0,1-.54-.67.28.28,0,0,1,0-.09,1.84,1.84,0,0,1-.28.15l0,.08a1,1,0,0,0,.32.44,1.21,1.21,0,0,0,.4.19,1.65,1.65,0,0,0,.36,0Z"/><path class="cls-26" d="M17.67,53.51l-.14,0c-.07,0-.24,0-.38-.1a.91.91,0,0,1-.67-.67,1,1,0,0,1,.38-.88l.17-.14.09-.09a.39.39,0,0,1,.09-.07l-.15.09-.22.11-.26.17c-.37.25-.71.6-.56,1C16.34,53.65,17.77,53.49,17.67,53.51Z"/><path class="cls-26" d="M15.56,53h-.15L15,53a2.29,2.29,0,0,1-1.06-.28l-.64.28a3.94,3.94,0,0,0,1.51.1l.59,0Z"/><path class="cls-26" d="M16.12,55l-.21,0a3.75,3.75,0,0,1-.52-.05c-.38-.08-.85-.2-.93-.56-.15-.75,1.35-1.41,1.22-1.37l-.28.13a6.76,6.76,0,0,0-.77.38c-.58.34-1.05.79-.81,1.14s.85.4,1.38.4S16.13,55,16.12,55Z"/><path class="cls-26" d="M15.57,58.61a1.37,1.37,0,0,0,1,.55l.46,0,.2,0-.17,0a1.77,1.77,0,0,1-.37-.09,1,1,0,0,1-.7-.64.9.9,0,0,1,.33-.89,1.59,1.59,0,0,1,.33-.25l.14-.09a1.75,1.75,0,0,0-.24.11,3.42,3.42,0,0,0-.53.31C15.63,57.88,15.35,58.25,15.57,58.61Z"/><path class="cls-26" d="M17.55,62.54a.85.85,0,0,1,.23-1l.14-.08a1.08,1.08,0,0,0-.2.1,1.33,1.33,0,0,0-.3.25.76.76,0,0,0,0,.87,1.83,1.83,0,0,0,.57.67.73.73,0,0,0,.26.09.35.35,0,0,0,.15,0C18.27,63.45,17.78,63.24,17.55,62.54Z"/><path class="cls-26" d="M20.32,52.54l-.12.12a3.15,3.15,0,0,0-.27.31.91.91,0,0,0-.15,1,1,1,0,0,0,.88.49,1.72,1.72,0,0,0,.42,0l.17,0a1.26,1.26,0,0,1-.49,0,.93.93,0,0,1-.69-.57,1.14,1.14,0,0,1,.05-.87,2.5,2.5,0,0,1,.14-.25A.37.37,0,0,1,20.32,52.54Z"/><path class="cls-26" d="M20.59,55.89a1,1,0,0,0,1,.45,2.73,2.73,0,0,0,.49-.07l.2-.06a1.54,1.54,0,0,1-.57,0,.84.84,0,0,1-.75-.54,1.05,1.05,0,0,1,.12-.9,2.6,2.6,0,0,1,.2-.28l.09-.1a1.42,1.42,0,0,0-.16.14,2.87,2.87,0,0,0-.35.35C20.62,55.17,20.39,55.53,20.59,55.89Z"/><path class="cls-26" d="M18.66,55.46a.81.81,0,0,0,.37.42,1.47,1.47,0,0,0,.53.16H20l.2,0h-.16a1.54,1.54,0,0,1-.38-.07.91.91,0,0,1-.66-.64,1,1,0,0,1,.22-.87,3,3,0,0,1,.32-.34l-.17.12a2.75,2.75,0,0,0-.38.29C18.76,54.75,18.5,55.08,18.66,55.46Z"/><path class="cls-26" d="M18.75,52l-.14.11a2.84,2.84,0,0,0-.31.26.93.93,0,0,0-.26.95.88.88,0,0,0,.35.43,1.28,1.28,0,0,0,.46.17,2,2,0,0,0,.41,0,.68.68,0,0,0,.17,0h-.15a1.38,1.38,0,0,1-.33-.09.94.94,0,0,1-.6-.66,1.09,1.09,0,0,1,.14-.85A2,2,0,0,1,18.75,52Z"/><path class="cls-26" d="M21,58h-.19L20.39,58a.87.87,0,0,1-.71-.62,1.07,1.07,0,0,1,.28-.9,3.11,3.11,0,0,1,.39-.36l-.21.13a4.31,4.31,0,0,0-.44.32c-.3.27-.6.61-.44,1a.8.8,0,0,0,.41.42,1.63,1.63,0,0,0,.58.13,2.93,2.93,0,0,0,.53,0A1,1,0,0,0,21,58Z"/><path class="cls-26" d="M16.58,55c.31.76,1.7.61,1.65.61s-1.09-.06-1.21-.79A1,1,0,0,1,17.4,54l.27-.23.11-.08-.18.1a4.7,4.7,0,0,0-.49.28C16.75,54.3,16.42,54.64,16.58,55Z"/><path class="cls-26" d="M18.33,55.72c.06,0-1.53.58-1.23,1.36a1.12,1.12,0,0,0,.95.6,2.39,2.39,0,0,0,.71,0,1.84,1.84,0,0,1-.57-.11.93.93,0,0,1-.66-.68,1,1,0,0,1,.38-.87l.29-.24Z"/><path class="cls-26" d="M16.25,55.18l-.27.11a6.16,6.16,0,0,0-.64.35c-.48.3-.85.71-.62,1.07a1.5,1.5,0,0,0,1.18.47h.55l.23,0H16.5c-.12,0-.28,0-.44-.08-.34-.09-.73-.24-.82-.6C15.06,55.74,16.32,55.15,16.25,55.18Z"/><path class="cls-26" d="M23.33,58.12a1.92,1.92,0,0,1-.66.05.86.86,0,0,1-.82-.51,1.07,1.07,0,0,1,.21-.94l.25-.31.11-.12-.2.17c-.11.1-.28.23-.43.39-.29.32-.57.69-.36,1.06a1.08,1.08,0,0,0,1.1.4,2.64,2.64,0,0,0,.56-.11Z"/><path class="cls-26" d="M24.35,60a2.28,2.28,0,0,1-.74.1c-.38,0-.77-.12-.88-.48a1.09,1.09,0,0,1,.29-1,2.52,2.52,0,0,1,.3-.33,1.47,1.47,0,0,1,.14-.14l-.24.19c-.14.12-.33.25-.51.43-.35.35-.68.74-.47,1.1a1.15,1.15,0,0,0,1.21.35,4.07,4.07,0,0,0,.63-.13Z"/><path class="cls-26" d="M21.77,60l-.21,0a2.15,2.15,0,0,1-.47,0c-.34-.07-.7-.23-.77-.6a1.09,1.09,0,0,1,.35-.91,3.35,3.35,0,0,1,.45-.39l-.23.14a5,5,0,0,0-.51.34c-.36.29-.69.64-.52,1a.8.8,0,0,0,.43.4,1.69,1.69,0,0,0,.64.11,3.33,3.33,0,0,0,.58,0Z"/><path class="cls-26" d="M17.65,59.2c.3.77,1.62.64,1.67.62s-1.14,0-1.25-.79a1,1,0,0,1,.36-.87,3.16,3.16,0,0,1,.46-.33,5,5,0,0,0-.74.39C17.8,58.47,17.5,58.81,17.65,59.2Z"/><path class="cls-26" d="M19.85,61.87c-.06,0-1.16,0-1.27-.78a1,1,0,0,1,.37-.88l.16-.13.16-.11.16-.1-.26.12a4.6,4.6,0,0,0-.51.29c-.34.24-.63.58-.48,1C18.47,62,19.75,61.9,19.85,61.87Z"/><path class="cls-26" d="M17.8,61.32a1.25,1.25,0,0,1-1-.82c-.24-.71.55-1.16.59-1.17l-.23.11a1.87,1.87,0,0,0-.41.28.71.71,0,0,0-.23.93,1.28,1.28,0,0,0,.77.61A1.67,1.67,0,0,0,17.8,61.32Z"/><path class="cls-26" d="M24.54,60.08l-.28.21a6.7,6.7,0,0,0-.59.47c-.42.38-.79.79-.57,1.15a.78.78,0,0,0,.54.33,2.52,2.52,0,0,0,.77,0,4.23,4.23,0,0,0,.7-.17l.31-.12a3,3,0,0,1-.82.13c-.42,0-.85-.08-1-.44a1.16,1.16,0,0,1,.38-1c.12-.14.26-.27.35-.37Z"/><path class="cls-26" d="M25.58,61.92l-.18.13-.41.3a4.79,4.79,0,0,0-.94.85L24.6,63a2.77,2.77,0,0,1,.59-.72A4.69,4.69,0,0,1,25.58,61.92Z"/><path class="cls-26" d="M22.7,62.13l-.3.17a5.91,5.91,0,0,0-.64.38c-.46.33-.87.7-.69,1.08a.59.59,0,0,0,.15.2c.2,0,.4-.08.6-.13a.51.51,0,0,1-.19-.3,1.17,1.17,0,0,1,.49-1A5.71,5.71,0,0,1,22.7,62.13Z"/><path class="cls-26" d="M22.52,62l-.23,0a3.09,3.09,0,0,1-.5,0c-.38-.06-.76-.21-.83-.58a1.12,1.12,0,0,1,.42-.95,4.09,4.09,0,0,1,.52-.4,2.15,2.15,0,0,0-.28.15c-.16.09-.37.22-.57.36-.4.31-.78.67-.6,1a.77.77,0,0,0,.46.4,2,2,0,0,0,.7.09,5.37,5.37,0,0,0,.63,0A1.83,1.83,0,0,0,22.52,62Z"/><path class="cls-26" d="M20,62l-.29.12-.25.13-.26.16c-.34.24-.62.58-.47,1,.29.77,1.54.66,1.68.61h-.34L20,64l-.21-.07a.87.87,0,0,1-.65-.67,1,1,0,0,1,.36-.87,1,1,0,0,1,.16-.14.77.77,0,0,1,.19-.11A1.06,1.06,0,0,1,20,62Z"/><path class="cls-26" d="M20.49,64.09h0l0,0Z"/><path class="cls-26" d="M18.47,63.52l-.13.06a.75.75,0,0,0-.16.15.33.33,0,0,0-.09.21,1,1,0,0,0,0,.29l.11,0A.6.6,0,0,1,18.47,63.52Z"/><path class="cls-26" d="M13.24,54.68a8.16,8.16,0,0,1-.88.11c-.46,0-1,0-1.13-.34a.58.58,0,0,1,0-.37l-.72.52a.36.36,0,0,0,.11.29c.33.29,1,.18,1.55.07l.75-.19Z"/><path class="cls-26" d="M8.63,58.26a5,5,0,0,1-.53.43,1.65,1.65,0,0,1-.95.44l-.19.6a1.72,1.72,0,0,0,.55-.34,5,5,0,0,0,.53-.5c.16-.17.32-.32.42-.44Z"/><path class="cls-26" d="M8.34,61.23l-.14.19a4,4,0,0,1-.31.42c-.27.29-.6.59-.94.43a.79.79,0,0,1-.39-.49c0,.3,0,.61,0,.91a.47.47,0,0,0,.37.28c.42,0,.74-.45,1-.88a5.86,5.86,0,0,0,.31-.6Z"/><path class="cls-26" d="M11.07,64a1.06,1.06,0,0,0,.91-.48,2.21,2.21,0,0,0,.24-.35l.1-.16a2.61,2.61,0,0,1-.37.35.89.89,0,0,1-.88.18.91.91,0,0,1-.41-.34,1.72,1.72,0,0,1-.19-.49,1.43,1.43,0,0,1,0-.44,1.7,1.7,0,0,1,0-.19l0,.29a3.6,3.6,0,0,0,0,.65C10.46,63.45,10.66,63.91,11.07,64Z"/><path class="cls-26" d="M14.58,63.88a.7.7,0,0,0,0,.16,1.42,1.42,0,0,0,.08.35,1,1,0,0,0,.76.58l.26,0,.14-.15a1.5,1.5,0,0,1-.43-.09,1.15,1.15,0,0,1-.69-.52.75.75,0,0,1-.1-.25A.39.39,0,0,1,14.58,63.88Z"/><path class="cls-26" d="M13.45,54.8l-.34.19a5.83,5.83,0,0,0-.69.48c-.46.4-.78.91-.47,1.2a1.73,1.73,0,0,0,1.37.19l.64-.12a1.89,1.89,0,0,0,.27-.07,5.06,5.06,0,0,1-.75,0c-.39,0-.85-.08-1-.4s.06-.72.35-1A3.58,3.58,0,0,1,13.45,54.8Z"/><path class="cls-26" d="M13.23,58.37a1.58,1.58,0,0,0,1.2.3l.53-.05a1.15,1.15,0,0,0,.22,0,3.8,3.8,0,0,1-.63,0,1.13,1.13,0,0,1-.9-.47.83.83,0,0,1,.22-.94,2.51,2.51,0,0,1,.51-.43l-.28.16a2.82,2.82,0,0,0-.56.42C13.17,57.63,12.92,58.07,13.23,58.37Z"/><path class="cls-26" d="M10.77,59A1.51,1.51,0,0,0,12,58.93c.41-.16.76-.33.76-.33l-.19.06-.47.1a1.05,1.05,0,0,1-1-.19.94.94,0,0,1,0-1,3.05,3.05,0,0,1,.29-.42A1.3,1.3,0,0,1,11.6,57a2.07,2.07,0,0,0-.26.24,3.39,3.39,0,0,0-.48.59,2.16,2.16,0,0,0-.2.36,2.42,2.42,0,0,0-.1.36A.49.49,0,0,0,10.77,59Z"/><path class="cls-26" d="M11.37,56.88l-.23.09a5.38,5.38,0,0,1-.53.18c-.4.11-.87.18-1.1-.1s-.1-.76.14-1.15a3.53,3.53,0,0,1,.35-.48c.11-.12.19-.19.19-.19a3.57,3.57,0,0,0-.31.28,4.81,4.81,0,0,0-.59.7,4.64,4.64,0,0,0-.25.42,1.92,1.92,0,0,0-.14.4c-.05.25,0,.46.17.56.38.21.91,0,1.4-.24S11.37,56.88,11.37,56.88Z"/><path class="cls-26" d="M14.22,60.3l-.16,0-.4,0a1.22,1.22,0,0,1-1-.31.85.85,0,0,1-.07-.93,3.12,3.12,0,0,1,.22-.35l.12-.13a1.32,1.32,0,0,0-.21.19,3,3,0,0,0-.38.49c-.05.1-.1.2-.14.3a1.18,1.18,0,0,0-.05.31.51.51,0,0,0,.24.48,1.44,1.44,0,0,0,1.16.09A4.85,4.85,0,0,0,14.22,60.3Z"/><path class="cls-26" d="M10.41,59.58a4.82,4.82,0,0,1-.58.41c-.31.2-.7.36-1,.14A1.11,1.11,0,0,1,8.59,59a2.76,2.76,0,0,1,.17-.53,1.69,1.69,0,0,1,.1-.23l-.06.09c0,.06-.07.15-.13.25a4,4,0,0,0-.3.79,2.12,2.12,0,0,0-.08.85.52.52,0,0,0,.34.49c.4.12.8-.21,1.15-.52l.45-.43Z"/><path class="cls-26" d="M10.55,59.54l-.05.08-.1.21a2.55,2.55,0,0,0-.22.66,1.7,1.7,0,0,0,0,.74.6.6,0,0,0,.37.44,1.17,1.17,0,0,0,1.05-.35c.15-.12.28-.24.38-.33l.15-.15-.14.1a3.61,3.61,0,0,1-.36.2.87.87,0,0,1-.93,0,1,1,0,0,1-.33-1,3,3,0,0,1,.12-.46A1.16,1.16,0,0,1,10.55,59.54Z"/><path class="cls-26" d="M8.52,61.17a2.9,2.9,0,0,0-.07.35,3.74,3.74,0,0,0,0,.78c0,.58.21,1.14.61,1.17s.72-.34,1-.68a3.08,3.08,0,0,0,.27-.48l.12-.21-.12.15a2.47,2.47,0,0,1-.28.33c-.25.23-.55.46-.9.31a.78.78,0,0,1-.39-.39,1.61,1.61,0,0,1-.16-.58,1.84,1.84,0,0,1,0-.52A1.74,1.74,0,0,1,8.52,61.17Z"/><path class="cls-26" d="M16.17,60.55a2,2,0,0,1-.5-.08,1.25,1.25,0,0,1-.79-.55.78.78,0,0,1,.07-.87,1.72,1.72,0,0,1,.38-.37l-.21.13a2.13,2.13,0,0,0-.43.35c-.28.29-.43.68-.13,1a1.49,1.49,0,0,0,1,.42H16Z"/><path class="cls-26" d="M17.12,62.47a1.5,1.5,0,0,1-.36-.14,1.63,1.63,0,0,1-.68-.59.84.84,0,0,1-.06-.82,1.09,1.09,0,0,1,.25-.31l-.15.1a1.59,1.59,0,0,0-.29.29.68.68,0,0,0,.05.91,1.69,1.69,0,0,0,.84.51A1.45,1.45,0,0,0,17.12,62.47Z"/><path class="cls-26" d="M15.64,62h-.12l-.32,0a1.38,1.38,0,0,1-.86-.39.87.87,0,0,1-.21-.85,1.4,1.4,0,0,1,.14-.3.56.56,0,0,1,.08-.11,1.7,1.7,0,0,0-.41.56.78.78,0,0,0-.08.52.67.67,0,0,0,.3.46,1.46,1.46,0,0,0,1,.23A2.17,2.17,0,0,0,15.64,62Z"/><path class="cls-26" d="M12.54,62.67a1.16,1.16,0,0,0,1-.14l.32-.21.12-.11a1.85,1.85,0,0,1-.44.18,1,1,0,0,1-1.35-1,2,2,0,0,1,.05-.38.72.72,0,0,1,.06-.15.11.11,0,0,0,0,.05l-.07.18a1.83,1.83,0,0,0-.14.55,1.24,1.24,0,0,0,.08.61A.67.67,0,0,0,12.54,62.67Z"/><path class="cls-26" d="M14.57,63.38a1.07,1.07,0,0,1-.51-.74,1.5,1.5,0,0,1,0-.3.4.4,0,0,1,0-.12l0,.05,0,.13a1.21,1.21,0,0,0-.06.42.89.89,0,0,0,.57.84,1.33,1.33,0,0,0,.91.05l.26-.1.08-.06a1.09,1.09,0,0,1-.36.05A1.41,1.41,0,0,1,14.57,63.38Z"/><path class="cls-26" d="M14.42,63.87a1.52,1.52,0,0,1-.32.21,1.11,1.11,0,0,1-.86,0,1.08,1.08,0,0,1-.66-.68,1,1,0,0,1-.07-.35c0-.09,0-.14,0-.14s0,.08,0,.22a1.88,1.88,0,0,0,0,.5.92.92,0,0,0,.72.78,1.07,1.07,0,0,0,.88-.26.86.86,0,0,0,.21-.23A.44.44,0,0,0,14.42,63.87Z"/><path class="cls-26" d="M17.24,62.63a.64.64,0,0,0-.22.3.84.84,0,0,0,.24.82,2.7,2.7,0,0,0,.37.38l.14,0a2.76,2.76,0,0,1-.42-.52,1.11,1.11,0,0,1-.22-.74A.56.56,0,0,1,17.24,62.63Z"/><path class="cls-26" d="M15.74,62.05a.82.82,0,0,0-.23.42.8.8,0,0,0,.36.85,2,2,0,0,0,.86.37,1.53,1.53,0,0,0,.32,0,1.73,1.73,0,0,1-.32-.1,2,2,0,0,1-.76-.48,1,1,0,0,1-.34-.75,1.15,1.15,0,0,1,.06-.25Z"/><path class="cls-26" d="M16,63.64a1,1,0,0,0,0,.28.82.82,0,0,0,.31.55l.14-.08a1.08,1.08,0,0,1-.39-.51A.61.61,0,0,1,16,63.64Z"/><path class="cls-26" d="M12.51,69.63a2.18,2.18,0,0,1-.15.55.92.92,0,0,1-.69.64,1,1,0,0,1-.87-.4,2.31,2.31,0,0,1-.3-.48s0,.1.09.25a2.9,2.9,0,0,0,.27.52c.25.36.58.68,1,.54a1.14,1.14,0,0,0,.62-.92A3.63,3.63,0,0,0,12.51,69.63Z"/><path class="cls-26" d="M8.79,63.7a4,4,0,0,1-.32.64c-.19.31-.46.64-.83.56S7,64.4,6.92,64a4.39,4.39,0,0,1-.11-.82s0,.16,0,.4a4.75,4.75,0,0,0,.09.86,2.61,2.61,0,0,0,.28.83c.14.22.31.34.51.3.41-.06.67-.54.83-1a6,6,0,0,0,.2-.6C8.77,63.8,8.79,63.7,8.79,63.7Z"/><path class="cls-26" d="M9.81,65.59c.41,0,.66-.44.82-.78.07-.18.14-.35.18-.47l.06-.21a2.21,2.21,0,0,1-.3.5.86.86,0,0,1-.82.43A1.06,1.06,0,0,1,9,64.29a3.27,3.27,0,0,1-.15-.68s0,.13,0,.32a3.43,3.43,0,0,0,.1.72C9.13,65.17,9.39,65.64,9.81,65.59Z"/><path class="cls-26" d="M9.8,66.06a3.37,3.37,0,0,1-.22.6.92.92,0,0,1-.77.59A1,1,0,0,1,8,66.67a1.51,1.51,0,0,1-.11-.22,1.19,1.19,0,0,1-.07-.23c0-.13-.06-.22-.06-.22s0,.15.06.36a2.81,2.81,0,0,0,.08.31c0,.11.08.22.13.33.18.45.5.84.9.74a1.21,1.21,0,0,0,.72-.91,3.26,3.26,0,0,0,.11-.52C9.79,66.16,9.8,66.06,9.8,66.06Z"/><path class="cls-26" d="M7.57,66.13l0,.12-.08.29a2.3,2.3,0,0,1-.33.64l.11.34a3.47,3.47,0,0,0,.27-.87c0-.12,0-.26,0-.36S7.57,66.13,7.57,66.13Z"/><path class="cls-26" d="M11.08,67.48C11.87,67.27,12,66,12,66s-.25,1-1,1a1,1,0,0,1-.81-.51,1.61,1.61,0,0,1-.18-.38L9.93,66S10.26,67.69,11.08,67.48Z"/><path class="cls-26" d="M9.07,68.29a1.52,1.52,0,0,1,0,.19,1.73,1.73,0,0,1-.13.41.91.91,0,0,1-.71.65l-.11,0a3.71,3.71,0,0,0,.24.49h0a1.18,1.18,0,0,0,.66-1,4.45,4.45,0,0,0,.07-.52C9.07,68.38,9.07,68.29,9.07,68.29Z"/><path class="cls-26" d="M11.17,68l-.05.18a1.56,1.56,0,0,1-.13.38.92.92,0,0,1-.72.62,1,1,0,0,1-.85-.47,2,2,0,0,1-.28-.52l.08.27a4.26,4.26,0,0,0,.25.56c.22.39.55.74.94.61a1.16,1.16,0,0,0,.67-.91,3.94,3.94,0,0,0,.07-.5C11.16,68.08,11.17,68,11.17,68Z"/><path class="cls-26" d="M10.47,70a2.47,2.47,0,0,1-.15.59.9.9,0,0,1-.68.65,1,1,0,0,1-.91-.47c.14.26.3.51.44.76a.61.61,0,0,0,.63.16,1.14,1.14,0,0,0,.62-1A4.61,4.61,0,0,0,10.47,70Z"/><path class="cls-26" d="M12,65.63a1.09,1.09,0,0,0,.81-.57,2.26,2.26,0,0,0,.18-.33l0-.15a1.25,1.25,0,0,1-.29.35.92.92,0,0,1-.81.3,1,1,0,0,1-.75-.61,2.25,2.25,0,0,1-.17-.55s0,.11,0,.26a2.3,2.3,0,0,0,.13.57C11.32,65.31,11.58,65.67,12,65.63Z"/><path class="cls-26" d="M13.13,64.53s0,.08,0,.19a1.72,1.72,0,0,0,.14.42.82.82,0,0,0,.82.53,1.25,1.25,0,0,0,.81-.36.94.94,0,0,0,.22-.3,1,1,0,0,1-.28.21,1.28,1.28,0,0,1-.81.18,1,1,0,0,1-.75-.46A1.27,1.27,0,0,1,13.13,64.53Z"/><path class="cls-26" d="M13.09,66.82a1,1,0,0,1-.8-.46,1.83,1.83,0,0,1-.18-.31l0-.14s.31,1.51,1.14,1.31.88-1.39.9-1.29A.59.59,0,0,1,14,66a3.21,3.21,0,0,1-.16.3A1,1,0,0,1,13.09,66.82Z"/><path class="cls-26" d="M12.42,68.79a1,1,0,0,1-.84-.43,1.81,1.81,0,0,1-.28-.48l.08.25a3.92,3.92,0,0,0,.25.51c.21.37.53.69.93.57a1.14,1.14,0,0,0,.67-.86,2.43,2.43,0,0,0,.08-.47c0-.12,0-.19,0-.19l-.05.16a2.34,2.34,0,0,1-.13.36A1,1,0,0,1,12.42,68.79Z"/><path class="cls-26" d="M13.4,67.59a1.39,1.39,0,0,0,.07.21,2.82,2.82,0,0,0,.21.44c.19.32.48.63.84.59l.06-.43-.07,0a1,1,0,0,1-.84-.39A1.44,1.44,0,0,1,13.4,67.59Z"/><path class="cls-26" d="M12.67,69.51l.1.23a2.14,2.14,0,0,0,.26.49c.24.34.57.65,1,.5a.76.76,0,0,0,.31-.2l.07-.54a.88.88,0,0,1-.54.34A1,1,0,0,1,13,70,2.28,2.28,0,0,1,12.67,69.51Z"/><path class="cls-26" d="M14.17,65.87l0,.1s0,.07,0,.11l.08.17a1.28,1.28,0,0,0,.53.66,2.66,2.66,0,0,1,.08-.33,1.07,1.07,0,0,1-.59-.45A1.38,1.38,0,0,1,14.17,65.87Z"/><path class="cls-26" d="M11.75,71.62s-.05,1.12-.79,1.24S9.75,72,9.75,72s.61,1.61,1.39,1.28S11.75,71.62,11.75,71.62Z"/><path class="cls-26" d="M13.31,73.12s0,1.11-.75,1.25-1.23-.79-1.23-.79a3.88,3.88,0,0,0,.42.74c.26.34.62.64,1,.47a1.12,1.12,0,0,0,.57-1A2.86,2.86,0,0,0,13.31,73.12Z"/><path class="cls-26" d="M11.87,71.49s.6,1.55,1.38,1.23.62-1.63.62-1.63-.06,1.08-.8,1.21S11.87,71.49,11.87,71.49Z"/><g class="cls-27"><path class="cls-26" d="M34.74,46.2c-1.07.1-2.16,0-3.24.08a5,5,0,0,1,.06.54,14.32,14.32,0,0,1,0,2.7,13.8,13.8,0,0,1-.65,3,12.17,12.17,0,0,1-4,5.62A13.93,13.93,0,0,1,24,60,18.31,18.31,0,0,1,20.87,61c-.27.07-.53.11-.79.17l-.39.08-.38.07-1.3.2-.29,0-.23,0-.41.06a6,6,0,0,0-.81.15,3.62,3.62,0,0,0-2.62,2.29,8.11,8.11,0,0,0-.5,1.94c-.09.83-.13,1.75-.14,2.66s0,1.86.08,2.8c.09,1.87.24,3.76.38,5.61v-.08l0,0,0-.13c.29-1.82.49-3.71.71-5.58.1-.94.22-1.86.35-2.77a24.52,24.52,0,0,1,.5-2.55,3.8,3.8,0,0,1,.36-.7,3.57,3.57,0,0,1,.4-.52,2.2,2.2,0,0,1,1-.64,2.17,2.17,0,0,1,1-.07,3.52,3.52,0,0,1,.41.1l.09,0h.14a2.73,2.73,0,0,0,.52,0l.66-.06.36,0,.18,0,.23,0c.63-.11,1.24-.21,1.88-.38s1.27-.36,1.9-.56a19.76,19.76,0,0,0,1.92-.82,16.39,16.39,0,0,0,3.65-2.44,15.15,15.15,0,0,0,2.9-3.5,15.7,15.7,0,0,0,1.65-3.88A16.54,16.54,0,0,0,34.83,49,19.17,19.17,0,0,0,34.74,46.2Z"/></g><path class="cls-28" d="M35,46.17a.58.58,0,0,0-.07-.28c-.33-.62-1-.67-1.63-.7a11.67,11.67,0,0,0-3.17.28,17.83,17.83,0,0,0-4.32,1.61c-.47.28-.94.57-1.38.89-.23.17-.46.35-.68.54a2.78,2.78,0,0,1-.44-.29c-.4-.25-.8-.52-1.21-.76-.83-.49-1.43-1.31-2.38-1.61A.91.91,0,0,0,18.47,47c.28.9,1.48,1,2.24,1.21s2.4.58,3,1.39l.1.14.09-.15c.54-.85,2.07-1.48,3.58-1.87a18.33,18.33,0,0,1,3.5-.64c1.08-.08,2.37.23,3.38-.27A1,1,0,0,0,35,46.17Z"/><path class="cls-29" d="M34.84,24.39c1.14-1.32,1.95-4.94-.46-5.44-1.44-.31-2.54.76-3.08,2-.44,1-.83,3.19.67,3.59a.1.1,0,0,1,0,.18,2.28,2.28,0,0,0-.58.58,5.56,5.56,0,0,1,3.42-.48c.4.08.83.1,1.25.19C35.66,24.57,34.78,24.45,34.84,24.39Z"/><path class="cls-29" d="M25.86,23.2c0-.06,0-.14.06-.15A2.31,2.31,0,0,0,27.59,21a3.76,3.76,0,0,0-.33-2.68,1.77,1.77,0,0,0-3,.24,5.08,5.08,0,0,0-.75,3c0,.08-1.19-.22-1.87.22A12,12,0,0,1,23,22a6,6,0,0,1,1.67.64,7.55,7.55,0,0,1,1.54,1.13A4.29,4.29,0,0,1,25.86,23.2Z"/><path class="cls-12" d="M35.12,20a1.74,1.74,0,0,0-.56-.52,2,2,0,0,0-1.64,0,3.83,3.83,0,0,0-1.69,3.24,2,2,0,0,0,.51,1.49,2.63,2.63,0,0,0,1.46.51,2.13,2.13,0,0,0,1.4-.42,3.23,3.23,0,0,0,1-2.73A3.18,3.18,0,0,0,35.12,20Z"/><path class="cls-30" d="M31.66,21a2.25,2.25,0,0,1,2-1.37c1.32.05,1.85,1.23,2,2.39a4.68,4.68,0,0,0,0-.53A3.18,3.18,0,0,0,35.12,20a1.74,1.74,0,0,0-.56-.52,2,2,0,0,0-1.64,0,3.25,3.25,0,0,0-1.49,2C31.51,21.3,31.58,21.15,31.66,21Z"/><path class="cls-12" d="M27.36,20.48S27.6,18,26,17.82s-3,3.5-1.94,4.36S27.11,23.17,27.36,20.48Z"/><path class="cls-31" d="M26.91,18.85a4.69,4.69,0,0,1,.45,1.65v0S27.6,18,26,17.82a1.33,1.33,0,0,0-1.13.47A1.38,1.38,0,0,1,26.91,18.85Z"/><path class="cls-32" d="M26.84,20.69c-.19,1.14-.93,2-1.67,2s-1.19-1-1-2.1.93-2.06,1.66-2S27,19.54,26.84,20.69Z"/><path class="cls-33" d="M26.59,20.71c-.14.93-.76,1.69-1.37,1.67s-1-.78-.82-1.72S25.16,19,25.77,19,26.75,19.77,26.59,20.71Z"/><path class="cls-34" d="M26.21,20.7c-.09.59-.47,1.06-.85,1.05s-.61-.49-.52-1.08.48-1.06.86-1.05S26.31,20.11,26.21,20.7Z"/><path class="cls-12" d="M25.52,19.92c-.14.25-.38.42-.54.37s-.17-.3,0-.55.38-.41.53-.37S25.66,19.67,25.52,19.92Z"/><path class="cls-12" d="M24.79,20.79c0,.13-.1.22-.17.22s-.13-.11-.11-.22.1-.22.18-.22S24.81,20.67,24.79,20.79Z"/><path class="cls-32" d="M34.78,22.29c-.19,1.26-1,2.29-1.8,2.31s-1.3-1-1.11-2.23,1-2.3,1.79-2.32S35,21,34.78,22.29Z"/><path class="cls-33" d="M34.52,22.32c-.15,1-.82,1.89-1.48,1.91s-1.07-.81-.92-1.84.82-1.89,1.48-1.91S34.67,21.29,34.52,22.32Z"/><path class="cls-34" d="M34.11,22.33c-.1.65-.52,1.19-.93,1.2s-.67-.51-.58-1.15.51-1.19.93-1.2S34.2,21.69,34.11,22.33Z"/><path class="cls-12" d="M33.33,21.52c-.14.28-.4.47-.58.43s-.19-.31,0-.6.41-.47.58-.43S33.48,21.23,33.33,21.52Z"/><path class="cls-12" d="M32.55,22.51c0,.14-.11.25-.19.25s-.14-.11-.11-.24.1-.24.19-.24S32.57,22.38,32.55,22.51Z"/><path class="cls-29" d="M28.94,30.05a3.94,3.94,0,0,0,.73-.54,7.26,7.26,0,0,1-3-.35,2.74,2.74,0,0,0,1.36.92A2.49,2.49,0,0,0,28.94,30.05Z"/><path class="cls-35" d="M25.87,28.76a4.32,4.32,0,0,0,3.56.76A7.69,7.69,0,0,1,25.87,28.76Z"/><path class="cls-12" d="M24.78,26.15a8.73,8.73,0,0,0,7.24.32s-.39,2.27-3.54,2.41A3.46,3.46,0,0,1,24.78,26.15Z"/><path class="cls-36" d="M27.41,27.35a9.88,9.88,0,0,0,1.88.1,7.32,7.32,0,0,0,2.17-.52c.07,0,.12,0,.13.1a1.06,1.06,0,0,1,0,.43,2.6,2.6,0,0,0,.46-1,8.74,8.74,0,0,1-7.19-.29A3.83,3.83,0,0,0,27.41,27.35Z"/><path class="cls-37" d="M24.76,25.87s2.72,1.84,7.16.49C31.92,26.36,27.69,27.4,24.76,25.87Z"/><path class="cls-29" d="M28.18,24.09a1.1,1.1,0,0,1-.79-.57c-.09.74.16,1.78,1.05,1.74a1.43,1.43,0,0,0,1.22-1.54A1.87,1.87,0,0,1,28.18,24.09Z"/><path class="cls-35" d="M27.7,23.08c.37-.28,1.13,0,1.52.26,0,0,0,0,0,0a1.77,1.77,0,0,0-.47-.33,1.74,1.74,0,0,0,.05-.94c0-.05-.06-.11-.09-.17a.65.65,0,0,0-.15-.18,1.27,1.27,0,0,1-.17,1.1h0s0,0,0,0a.94.94,0,0,0-1,.18c-.47.56.15,1.78.62,2.14h0a3.72,3.72,0,0,1-.47-1.63.86.86,0,0,1,.05-.26A.3.3,0,0,1,27.7,23.08Z"/><path class="cls-37" d="M28.07,23.07s-.52-.12-.4.37,1,.52,1.19.15S28.31,23.07,28.07,23.07Z"/><path class="cls-38" d="M24.21,22.33a2,2,0,0,0-2.68.33,2,2,0,0,0,1.12,2.45,2,2,0,0,0,2.67-.32A2,2,0,0,0,24.21,22.33Zm-1.47.48a.54.54,0,0,1-.48.16.29.29,0,0,1-.28-.36.5.5,0,0,1,.47-.32h0a.3.3,0,0,1,.24.08A.33.33,0,0,1,22.74,22.81Zm.6-.22a.1.1,0,0,1-.11.06h-.12a.09.09,0,0,1-.08-.14.18.18,0,0,1,.15-.12.11.11,0,0,1,.08,0h0l.07,0A.1.1,0,0,1,23.34,22.59Z"/><path class="cls-39" d="M33.88,24.68c-1.2,0-2.19.66-2.2,1.54s.93,1.61,2.13,1.64S36,27.19,36,26.31,35.08,24.7,33.88,24.68ZM32.8,25.79a.55.55,0,0,1-.34.37A.3.3,0,0,1,32,26a.51.51,0,0,1,.27-.51h0a.28.28,0,0,1,.26-.05A.33.33,0,0,1,32.8,25.79Zm.43-.48a.08.08,0,0,1-.07.1s-.06,0-.1.06a.1.1,0,0,1-.14-.09A.21.21,0,0,1,33,25.2l.08,0v0a.1.1,0,0,1,.07,0A.1.1,0,0,1,33.23,25.31Z"/><path class="cls-35" d="M23.17,23.8a0,0,0,0,0,0,0h0s-.08,0-.14,0h0c-.06.05-.05.09,0,.11s.06,0,.13,0h0C23.16,23.88,23.18,23.84,23.17,23.8Z"/><path class="cls-35" d="M23.89,23.42c0-.09-.21,0-.24.06v0c0,.09.11.08.16,0a.26.26,0,0,0,.09-.09A0,0,0,0,0,23.89,23.42Z"/><path class="cls-35" d="M24.42,23.68c-.12-.08-.28.15-.14.15S24.55,23.76,24.42,23.68Z"/><path class="cls-35" d="M25.27,23.45h0a0,0,0,0,0,0-.05h0l0,0c-.07-.06-.2,0-.24.08s0,.06,0,.09,0,.05.07.05a.24.24,0,0,0,.21-.1s0,0,0,0Z"/><path class="cls-35" d="M25.2,24.42c0-.09-.24,0-.19.1s0,0,0,.05.16,0,.18,0A.1.1,0,0,0,25.2,24.42Z"/><path class="cls-35" d="M24.52,23.48c-.08,0-.23.11-.13.14S24.62,23.5,24.52,23.48Z"/><path class="cls-35" d="M24.09,23.07c-.07,0-.21.1-.12.12S24.18,23.09,24.09,23.07Z"/><path class="cls-35" d="M23.22,23.76v0c0,.06.11,0,.12,0l0,0C23.4,23.65,23.22,23.67,23.22,23.76Z"/><path class="cls-35" d="M23.23,22.78s0,0,0,0,.17.05.19,0,0,0,0,0S23.24,22.69,23.23,22.78Z"/><path class="cls-35" d="M23.8,22.74l0,0c0-.07-.22,0-.15.1l0,0C23.7,22.87,23.82,22.79,23.8,22.74Z"/><path class="cls-35" d="M22.93,23.41s-.13.07-.07.09S23,23.43,22.93,23.41Z"/><path class="cls-35" d="M22.5,22.92s0,0,0,0-.22.11-.12.15h0C22.48,23.11,22.63,22.94,22.5,22.92Z"/><path class="cls-35" d="M23.09,22.43l0,0c0-.05-.13,0-.1.05l0,0S23.11,22.47,23.09,22.43Z"/><path class="cls-35" d="M21.7,23.72a.06.06,0,0,0,0,0s.11,0,.13,0l0,0C21.93,23.59,21.7,23.61,21.7,23.72Z"/><path class="cls-35" d="M21.15,23.12h-.08c-.06,0-.13.07-.12.11h0s0,0,0,0H21C21.1,23.28,21.25,23.17,21.15,23.12Z"/><path class="cls-35" d="M26,25c-.1,0-.2.15-.08.16s.17-.05.17-.13S26.06,25,26,25Z"/><path class="cls-35" d="M26.4,23.34l0,0c-.08,0-.21.12-.1.13h0C26.36,23.46,26.48,23.38,26.4,23.34Z"/><path class="cls-35" d="M23.51,24.79a.14.14,0,0,0,0-.06c0-.1-.31,0-.24.13s0,0,.06.06S23.52,24.88,23.51,24.79Z"/><path class="cls-35" d="M23.12,24.13v0c0,.06.1,0,.12,0s0,0,0,0S23.11,24,23.12,24.13Z"/><path class="cls-35" d="M22.09,24.31c-.06,0-.17.08-.1.11S22.16,24.33,22.09,24.31Z"/><path class="cls-35" d="M22.13,22v0c0,.08.13,0,.16,0s0,0,0,0S22.14,21.92,22.13,22Z"/><path class="cls-35" d="M21.22,22.43s-.08.08,0,.09a.14.14,0,0,0,.18-.09C21.41,22.36,21.27,22.37,21.22,22.43Z"/><path class="cls-35" d="M21.65,22.48h0c-.06,0-.17.09-.09.1h0C21.61,22.59,21.73,22.5,21.65,22.48Z"/><path class="cls-35" d="M25.55,23.07h0s-.16.06-.09.1h0C25.53,23.24,25.65,23.07,25.55,23.07Z"/><path class="cls-35" d="M24.93,23v0c0,.08.14,0,.17,0v0C25.17,22.82,24.93,22.85,24.93,23Z"/><path class="cls-35" d="M32.23,25c-.1,0-.3.15-.17.19S32.36,25,32.23,25Z"/><path class="cls-35" d="M32,25.81c0-.07-.21,0-.18.1s0,.05,0,.09.1,0,.12,0A.15.15,0,0,0,32,25.81Z"/><path class="cls-35" d="M32.35,25.48v0c0,.1.14,0,.16,0s0,0,0,0S32.36,25.41,32.35,25.48Z"/><path class="cls-35" d="M34.17,25.61l0,0s0,.05,0,0h0C34.31,25.63,34.24,25.54,34.17,25.61Z"/><path class="cls-35" d="M33.93,26.45c0-.07-.13,0-.18,0a.23.23,0,0,0-.14.15c0,.07,0,.09.1.09s.18-.06.19-.13S34,26.48,33.93,26.45Z"/><path class="cls-35" d="M33.13,26a.15.15,0,0,0-.15.1v0c-.08.08,0,.13.11.09a.2.2,0,0,0,.08-.08S33.18,26,33.13,26Z"/><path class="cls-35" d="M34.15,25.28s-.07.09,0,.1a.2.2,0,0,0,.17-.08C34.37,25.2,34.19,25.21,34.15,25.28Z"/><path class="cls-35" d="M35,25.28h0c0,.13.18.05.21,0a0,0,0,0,0,0,0C35.23,25.14,35,25.17,35,25.28Z"/><path class="cls-35" d="M33.27,25.12v0c0,.08.11,0,.12,0a0,0,0,0,0,0,0C33.43,25,33.29,25.07,33.27,25.12Z"/><path class="cls-35" d="M35.68,25.27a.71.71,0,0,0-.07-.09c-.07-.09-.3,0-.24.12a.47.47,0,0,0,.1.1C35.54,25.46,35.71,25.36,35.68,25.27Z"/><path class="cls-35" d="M36.47,25.93a.25.25,0,0,0-.08-.1c-.11-.08-.35.14-.2.19a.25.25,0,0,0,.12,0C36.37,26.07,36.51,26,36.47,25.93Z"/><path class="cls-35" d="M35.06,26.7a.3.3,0,0,0-.15.05l-.07.05s-.07.13,0,.14H35a.24.24,0,0,0,.1-.08l0,0A.07.07,0,0,0,35.06,26.7Z"/><path class="cls-35" d="M34.46,26.08s-.07.06,0,.09.17,0,.21-.1S34.51,26,34.46,26.08Z"/><path class="cls-35" d="M36.48,26.13h-.06s-.14.06-.1.11l0,0C36.46,26.32,36.61,26.14,36.48,26.13Z"/><path class="cls-35" d="M34.86,26.17a0,0,0,0,1,0,0c0,.09.13,0,.15,0v0C35,26.08,34.87,26.1,34.86,26.17Z"/><path class="cls-35" d="M35.23,25.9v0c0,.08.13,0,.15,0v0C35.41,25.8,35.25,25.83,35.23,25.9Z"/><path class="cls-35" d="M34.92,24.81s0,0,0,0,.15,0,.17,0v0C35.12,24.7,34.94,24.74,34.92,24.81Z"/><path class="cls-35" d="M36.11,24.88s-.07,0,0,0S36.14,24.88,36.11,24.88Z"/><path class="cls-35" d="M36.85,25.19c0-.11-.2-.06-.22,0a.17.17,0,0,0,0,.1c0,.05.11,0,.15,0S36.83,25.27,36.85,25.19Z"/><path class="cls-35" d="M37.57,26.77c-.16-.11-.45.2-.22.24h0a.22.22,0,0,0,.15-.06C37.59,26.92,37.65,26.83,37.57,26.77Z"/><path class="cls-35" d="M31.62,24.66h0s-.08,0-.12,0,0,0-.06,0,0,.05,0,.08.16,0,.19-.05S31.65,24.69,31.62,24.66Z"/><path class="cls-35" d="M30.94,25.2h0s-.1,0-.1.08h0s.05,0,.09,0l0,0h0A0,0,0,0,0,30.94,25.2Z"/><path class="cls-35" d="M31.6,25.34v0c0,.07.1,0,.11,0l0,0C31.75,25.26,31.62,25.28,31.6,25.34Z"/><path class="cls-35" d="M30.57,24.21c-.07,0-.21.1-.12.12S30.66,24.23,30.57,24.21Z"/><path class="cls-35" d="M27.15,22.65h0s0-.06,0-.07-.21.2,0,.16S27.17,22.7,27.15,22.65Z"/><path class="cls-35" d="M26.6,23.23h0a.13.13,0,0,0-.11.07v0c0,.07.08.06.11,0s.13-.07.14-.14S26.63,23.2,26.6,23.23Z"/><path class="cls-35" d="M29.85,23.25l0,0c-.08,0-.21.11-.1.13h0S29.93,23.29,29.85,23.25Z"/><path class="cls-35" d="M29.41,22.87s0,0,0,0-.21,0-.14.09l0,0C29.32,23,29.43,22.92,29.41,22.87Z"/><path class="cls-35" d="M30.08,22.67c-.06,0-.18.09-.1.11S30.15,22.69,30.08,22.67Z"/><path class="cls-35" d="M30.61,23.12s-.09,0-.05.06S30.65,23.13,30.61,23.12Z"/><path class="cls-35" d="M30,24.17v0c0,.06.09,0,.11,0v0C30.19,24.07,30,24.08,30,24.17Z"/><path class="cls-35" d="M28,22.46v0c0,.07.12,0,.14,0l0,0C28.25,22.34,28,22.36,28,22.46Z"/><path class="cls-35" d="M26.88,23.91h0c-.07,0-.2.11-.09.12h0C26.84,24,27,24,26.88,23.91Z"/><path class="cls-35" d="M26,23.74v0c0,.07.11,0,.13,0v0C26.17,23.63,26,23.65,26,23.74Z"/><path class="cls-21" d="M24.88,16.75c-.1-.09.67-2.15,2.18-1.83s.93,2.84.8,2.82-.08-1.55-1-1.9S25,16.84,24.88,16.75Z"/><path class="cls-21" d="M33.15,18.78c-.11-.08.66-2.15,2.18-1.83s.93,2.84.8,2.82-.09-1.54-1-1.9S33.26,18.87,33.15,18.78Z"/><path class="cls-40" d="M13.48,53.17A12.17,12.17,0,0,0,8.16,58a11.74,11.74,0,0,0-.88,7.39c.08.49.18,1,.3,1.49a18.12,18.12,0,0,0,2,4.17,17.67,17.67,0,0,1-1.71-8.76,10.79,10.79,0,0,1,1.82-5.87,14.9,14.9,0,0,1,3.76-3.13S13.55,53.13,13.48,53.17Z"/></g></g></g></svg>