<svg xmlns="http://www.w3.org/2000/svg" viewBox="0 0 67.33 100"><defs><style>.cls-1{isolation:isolate;}.cls-2{fill:#4b1720;}.cls-14,.cls-15,.cls-18,.cls-3{fill:#f8c49f;}.cls-4{fill:#944393;}.cls-5{fill:#c35a9e;}.cls-6{fill:#83388d;}.cls-7{fill:#48557c;}.cls-8{fill:#331d55;}.cls-9{mix-blend-mode:screen;}.cls-10{fill:#324482;}.cls-11{fill:#ccadd3;}.cls-12{fill:#b484ba;}.cls-13{fill:#6e2731;}.cls-14,.cls-21,.cls-23{opacity:0.4;}.cls-14,.cls-15,.cls-18,.cls-21,.cls-23{mix-blend-mode:multiply;}.cls-15{opacity:0.5;}.cls-16{fill:#382625;}.cls-17{fill:#fff;}.cls-19{fill:#ed807f;}.cls-20{fill:#fab200;}.cls-22,.cls-23{fill:#eaaf24;}</style></defs><g class="cls-1"><g id="Слой_2" data-name="Слой 2"><g id="Layer_1" data-name="Layer 1"><path class="cls-2" d="M22.16,35.75a5.34,5.34,0,0,0-2.4-2.23,2.8,2.8,0,0,0,.3-2.91A3.38,3.38,0,0,0,16.87,29a2.49,2.49,0,0,0-.47,0,4.36,4.36,0,0,0-1-1.73,3.69,3.69,0,0,0-3.53-.73,3.94,3.94,0,0,0-2.59,1.92,4.06,4.06,0,0,0-.36,1.17,3,3,0,0,0-.53-.1,4.88,4.88,0,0,0-3.53,1.34,5.71,5.71,0,0,0-1.77,3.52,3.25,3.25,0,0,0,.41,2.08,5.79,5.79,0,0,0-1.35.8,5.25,5.25,0,0,0-2,3.22c-.47,2.56,1.2,5.58,4.12,5.24a3.3,3.3,0,0,0,1.56-.59,3.61,3.61,0,0,0,1.59,2.12,2.52,2.52,0,0,0,2.8-.05,5.07,5.07,0,0,0,.37,1.22c.62,1.47,2.35,2,3.81,1.87a5.55,5.55,0,0,0,4-2,3.82,3.82,0,0,0,.84-2.09c0-.23.06-.49.07-.76.54.15,1.19-.34,1.5-.72a6.75,6.75,0,0,0,.9-1.8,20.48,20.48,0,0,0,.86-2.65A6.61,6.61,0,0,0,22.16,35.75Z"/><path class="cls-3" d="M18.52,52a9.37,9.37,0,0,1-4.28-1C12,49.71,10.53,47.49,10,44.31a.89.89,0,0,1,.72-1,.91.91,0,0,1,1.05.72c.47,2.61,1.6,4.41,3.36,5.36,3.64,2,8.9-.21,9-.23a.9.9,0,1,1,.7,1.65A16.91,16.91,0,0,1,18.52,52Z"/><path class="cls-3" d="M9.43,45.11a2.53,2.53,0,0,0,2.65.16,3.63,3.63,0,0,0,1.46-2.71c.06-.52,0-2.26-.82-1.15a3.5,3.5,0,0,0-.46,1.42.36.36,0,0,1,0,.1c0-.13-.07-.27-.1-.41-.12-.48-.21-1-.29-1.47s-.1-1-.17-1.53c0-.27-.09-.69-.42-.74s-.46.24-.56.42a2.48,2.48,0,0,0-.12,1.21,7.91,7.91,0,0,0,.06.83c-.08-.25-.16-.5-.22-.75a3.52,3.52,0,0,0-.34-1.1c-.3-.47-.81-.12-.92.31a3.18,3.18,0,0,0,.23,1.58c.07.22.13.45.18.68-.13-.22-.25-.44-.37-.66s-.3-.72-.52-1.06-.86-.57-.91.09a5.59,5.59,0,0,0,.65,2.2C8,42.17,7.7,41,7.16,41.15,6.2,41.42,8.36,44.56,9.43,45.11Z"/><rect class="cls-4" x="18.53" y="48.84" width="0.94" height="4.4" transform="translate(-7.82 3.64) rotate(-9.09)"/><path class="cls-5" d="M18.83,48.84a3.94,3.94,0,0,1,2.83-1.94,3.67,3.67,0,1,1,1.16,7.23,4,4,0,0,1-3.3-1Z"/><path class="cls-6" d="M19.39,52.39a16.13,16.13,0,0,0,5.57.12,5.63,5.63,0,0,1-5.53.16Z"/><path class="cls-6" d="M18.94,49.6A5.59,5.59,0,0,1,24.24,48,15.91,15.91,0,0,0,19,49.88Z"/><path class="cls-6" d="M19.18,51.06a27.73,27.73,0,0,1,6.31-1s-1.8,1.24-6.28,1.17Z"/><path class="cls-7" d="M22.31,95.39a5,5,0,0,0-.46.26,5.74,5.74,0,0,0-2.51,2.92c-.34,1.28.84,1.4,1.81,1.17a9.13,9.13,0,0,0,3.05-1.61c.78-.59,1.54-1.35,1.15-2.34C24.81,94.42,23.38,94.83,22.31,95.39Z"/><path class="cls-8" d="M22.31,95.39a5,5,0,0,0-.46.26,5.74,5.74,0,0,0-2.51,2.92c-.34,1.28.84,1.4,1.81,1.17a9.13,9.13,0,0,0,3.05-1.61c.78-.59,1.54-1.35,1.15-2.34C24.81,94.42,23.38,94.83,22.31,95.39Z"/><g class="cls-9"><path class="cls-7" d="M23,98.57a10,10,0,0,1-2,.9,3.91,3.91,0,0,1-1.28.22,2.35,2.35,0,0,0,1.47,0,9.13,9.13,0,0,0,3.05-1.61c.66-.5,1.31-1.12,1.26-1.89A5.29,5.29,0,0,1,23,98.57Z"/><path class="cls-10" d="M23,98.57a10,10,0,0,1-2,.9,3.91,3.91,0,0,1-1.28.22,2.35,2.35,0,0,0,1.47,0,9.13,9.13,0,0,0,3.05-1.61c.66-.5,1.31-1.12,1.26-1.89A5.29,5.29,0,0,1,23,98.57Z"/></g><path class="cls-3" d="M23.18,96.25a1,1,0,0,1-.95-.78C19.74,84.34,21,71.92,21,71.39a1,1,0,0,1,2,.2c0,.13-1.25,12.64,1.17,23.45a1,1,0,0,1-1,1.21Z"/><path class="cls-7" d="M30.82,95.55l-.46.26a5.82,5.82,0,0,0-2.52,2.93c-.33,1.28.85,1.4,1.81,1.17a9,9,0,0,0,3.05-1.62c.79-.59,1.55-1.35,1.16-2.34C33.32,94.58,31.89,95,30.82,95.55Z"/><path class="cls-8" d="M30.82,95.55l-.46.26a5.82,5.82,0,0,0-2.52,2.93c-.33,1.28.85,1.4,1.81,1.17a9,9,0,0,0,3.05-1.62c.79-.59,1.55-1.35,1.16-2.34C33.32,94.58,31.89,95,30.82,95.55Z"/><g class="cls-9"><path class="cls-7" d="M31.51,98.73a10.16,10.16,0,0,1-2.05.91,3.85,3.85,0,0,1-1.27.21,2.24,2.24,0,0,0,1.46.06,9,9,0,0,0,3.05-1.62C33.36,97.8,34,97.18,34,96.4A5.22,5.22,0,0,1,31.51,98.73Z"/><path class="cls-10" d="M31.51,98.73a10.16,10.16,0,0,1-2.05.91,3.85,3.85,0,0,1-1.27.21,2.24,2.24,0,0,0,1.46.06,9,9,0,0,0,3.05-1.62C33.36,97.8,34,97.18,34,96.4A5.22,5.22,0,0,1,31.51,98.73Z"/></g><path class="cls-3" d="M31.69,96.41a1,1,0,0,1-1-.77c-2.49-11.13-1.25-23.56-1.2-24.09a1,1,0,0,1,1.09-.88,1,1,0,0,1,.9,1.09c0,.13-1.26,12.64,1.16,23.44a1,1,0,0,1-.76,1.19A.58.58,0,0,1,31.69,96.41Z"/><path class="cls-6" d="M21.12,58.39l-.75.35a22.22,22.22,0,0,0-4.66,4.38C12.15,68,5.34,77.83,6.3,92.38c0,0,25.08,8.65,44.53-1.82,0,0-2.22-23.52-17.42-31.21Z"/><path class="cls-6" d="M21.12,58.39l-.75.35a22.22,22.22,0,0,0-4.66,4.38C12.15,68,5.34,77.83,6.3,92.38c0,0,25.08,8.65,44.53-1.82,0,0-2.22-23.52-17.42-31.21Z"/><path class="cls-11" d="M10.76,81.22c3.53.59,6.56-2.61,8.42-5.2.1-.15,1,6.1,7.23,5.93,3.24-.09,6.41-1.9,7.1-5.18,0-.13,2.83,6.28,10.23,3.36a5.35,5.35,0,0,0,2.64-5.87c-2.61-5.82-6.67-11.72-13-14.91l-12.29-1-.75.35a22.22,22.22,0,0,0-4.66,4.38,48.08,48.08,0,0,0-8,15.72A4.21,4.21,0,0,0,10.76,81.22Z"/><path class="cls-5" d="M28,65.55a10.66,10.66,0,0,0,5,2.75c3.24.81,6.67.11,8.21-2.62a24.35,24.35,0,0,0-7.75-6.33l-7.81-.61A9,9,0,0,0,28,65.55Z"/><path class="cls-5" d="M20.06,65.3a9.9,9.9,0,0,0,4.47-6.65l-3.41-.26-.75.35a22.22,22.22,0,0,0-4.66,4.38c-.73,1-1.58,2.18-2.48,3.58C15.31,67.5,18.31,66.34,20.06,65.3Z"/><path class="cls-6" d="M24.91,58.68l-3.79-.29-.75.35a22.22,22.22,0,0,0-4.66,4.38c-.36.49-.75,1-1.15,1.6.22.07.45.13.66.18a7.22,7.22,0,0,0,4.57-.59A10.91,10.91,0,0,0,25,59,2.87,2.87,0,0,1,24.91,58.68Z"/><path class="cls-6" d="M32.33,66.13c2.4.49,5.75,0,7.61-1.82a23.65,23.65,0,0,0-6.53-5l-7.87-.62-.15.33A9,9,0,0,0,32.33,66.13Z"/><path class="cls-5" d="M46.38,74.26c-.24-.53-.49-1.06-.75-1.58-.3,2.46-1.26,4.92-3.4,5.86-3.67,1.61-7.36-1.49-8.85-4.93-.06.12-.11.26-.17.39-1.08,2.22-2.8,4.68-5.34,5.33a6.6,6.6,0,0,1-7-3.07,10.59,10.59,0,0,1-1.51-4.53l-.21.34a16.51,16.51,0,0,1-4.35,4.84c-1.28.89-3.47,2-5,1.12a5.23,5.23,0,0,1-1.43-1.25c-.22.67-.44,1.35-.64,2.06a4.21,4.21,0,0,0,3.09,2.38c3.53.59,6.56-2.61,8.42-5.2.1-.15,1,6.1,7.23,5.93,3.24-.09,6.41-1.9,7.1-5.18,0-.13,2.83,6.28,10.23,3.36A5.35,5.35,0,0,0,46.38,74.26Z"/><path class="cls-12" d="M31.35,53.69c-.34-2.06-1-5-.3-7.13a.2.2,0,0,0,0-.07l-5.28-.59s-3.21,3.2-5.39,12.84c1.81,1.47,4.53,1.82,6.79,1.77a18.38,18.38,0,0,0,6.27-1.11A16.26,16.26,0,0,1,31.35,53.69Z"/><path class="cls-6" d="M30.71,48.53a2.92,2.92,0,0,0,.16-1.6c-.18-.65-.83-.54-1.37-.59s-1-.14-1.44-.18L26.59,46c-.34,0-.79-.24-1.12-.12s-.46.49-.64.74a3.21,3.21,0,0,0-.84,2c0,.43.13,1,.68,1s1.44-.89,1.82-1.34a8.21,8.21,0,0,1,.38.82,2.11,2.11,0,0,0,1,1.13c.86.32,1.81-.45,2.35-1A2.19,2.19,0,0,0,30.71,48.53Z"/><path class="cls-2" d="M41.4,41.56a23.34,23.34,0,0,0,.83,3.11,7.76,7.76,0,0,0,.92,2.13c.34.47,1.06,1.07,1.69.93,0,.31,0,.62,0,.89a4.45,4.45,0,0,0,.85,2.46,6.42,6.42,0,0,0,4.49,2.6c1.68.2,3.71-.27,4.52-1.93a5.48,5.48,0,0,0,.5-1.39,2.92,2.92,0,0,0,3.23.24,4.13,4.13,0,0,0,2-2.35A4,4,0,0,0,62.2,49c3.35.57,5.47-2.82,5.09-5.81a6.14,6.14,0,0,0-2.15-3.85,7,7,0,0,0-1.51-1A3.7,3.7,0,0,0,64.24,36a6.58,6.58,0,0,0-1.83-4.17,5.54,5.54,0,0,0-4-1.78,3.77,3.77,0,0,0-.62.08,5,5,0,0,0-.34-1.36,4.53,4.53,0,0,0-2.88-2.39,4.26,4.26,0,0,0-4.12.63,5,5,0,0,0-1.31,1.93,3.23,3.23,0,0,0-.53-.08c-1.37-.08-3.12.32-3.8,1.65A3.25,3.25,0,0,0,45,33.89a6.18,6.18,0,0,0-2.91,2.43A7.66,7.66,0,0,0,41.4,41.56Z"/><path class="cls-13" d="M11.33,29.5a29.1,29.1,0,0,0,.88,4.9,19,19,0,0,0,1.66,4.36,8.5,8.5,0,0,0,2.27,2.63,30.33,30.33,0,0,0,4.8,1.42l1.54-21.64-8.13-1a2.19,2.19,0,0,0-3.34.67C10.72,22.74,11.16,27.58,11.33,29.5Z"/><path class="cls-3" d="M15.65,29.85s-.18-3.73-4.25-3.1-1.83,8.15,4.11,7.82Z"/><path class="cls-14" d="M15.65,29.85s-.18-3.73-4.25-3.1-1.83,8.15,4.11,7.82Z"/><path class="cls-15" d="M13.93,29.93c-.52-1.25-2-2.49-3-1.64-1.21,1-.18,3,.74,3.81C13.16,33.45,14.92,32.35,13.93,29.93Z"/><path class="cls-3" d="M35.58,10.57a19,19,0,0,0-22.27,8.56A9.3,9.3,0,0,1,13.8,21a32.85,32.85,0,0,1,.08,7c-.15,1.71-.56,3.38-.86,5.06a12,12,0,0,0,.68,5.09,10.09,10.09,0,0,0,2.77,4.05A19.23,19.23,0,0,0,45.3,39.57a20,20,0,0,0,2.57-5.19A18.93,18.93,0,0,0,35.58,10.57Z"/><path class="cls-16" d="M21.83,31a1.37,1.37,0,0,1-1.72.88A1.36,1.36,0,1,1,21.83,31Z"/><path class="cls-16" d="M35.21,34a1.36,1.36,0,1,1-.88-1.71A1.35,1.35,0,0,1,35.21,34Z"/><path class="cls-17" d="M34,33a.43.43,0,1,1-.28-.53A.42.42,0,0,1,34,33Z"/><path class="cls-17" d="M20.53,30.07a.43.43,0,0,1-.81-.26.43.43,0,0,1,.54-.28A.43.43,0,0,1,20.53,30.07Z"/><path class="cls-13" d="M56.7,25.12a15.05,15.05,0,0,0-2.64-6.54c-2.31-3.34-6.8-6.4-10.4-8.14a28.6,28.6,0,0,0-13.48-2.7c-6.63.27-13.12,2.84-17,8.38a15.66,15.66,0,0,0-1.95,3.36l-.69,2.63s2.75.36,6.19.69c.41-.83.77-2.65,1.35-3.37.21-.26-.67,3-.78,3.77,1.53.16,3.38.35,5.19.63a22.34,22.34,0,0,1,1.29-3.6c.17-.28-.39,3-.34,3.79a91.12,91.12,0,0,1,11,2.17,31.77,31.77,0,0,0,1.2-4.37,24.78,24.78,0,0,1,.11,4.73c1.5.51,3.9,1,5.27,1.66A18.36,18.36,0,0,1,39.81,39a27.86,27.86,0,0,1-1.15,2.71,22.11,22.11,0,0,1-3.27,5A16.6,16.6,0,0,0,43,45.09C51.05,41.61,57.88,33.54,56.7,25.12Z"/><path class="cls-3" d="M40.12,35.76a3.37,3.37,0,0,1,5-1.76c3.71,1.77-.61,8.34-6.21,6.32Z"/><path class="cls-18" d="M41.74,36.33c.86-1.06,2.6-1.82,3.36-.71.87,1.28-.69,2.9-1.82,3.43C41.46,39.92,40.1,38.36,41.74,36.33Z"/><path class="cls-19" d="M18.93,37.94S26,41.79,32.44,40c0,0-1.43,5.32-6.15,5.11A7.22,7.22,0,0,1,18.93,37.94Z"/><path class="cls-3" d="M44.57,61.55a.92.92,0,0,1-.76-.44c-5.18-8.62-13.12-9.93-13.2-9.94a.9.9,0,1,1,.27-1.77c.36.05,8.87,1.45,14.48,10.79a.9.9,0,0,1-.31,1.23A.94.94,0,0,1,44.57,61.55Z"/><path class="cls-3" d="M46.42,60.43a2.29,2.29,0,0,0-2.35.56,3.3,3.3,0,0,0-.54,2.74c.09.47.6,2,1,.78a3.07,3.07,0,0,0,0-1.35v-.1l.2.33c.23.39.44.79.64,1.2s.36.86.56,1.29c.1.22.26.57.56.54s.33-.34.38-.52a2.42,2.42,0,0,0-.22-1.09c-.08-.24-.18-.47-.27-.7l.39.59a3.39,3.39,0,0,0,.58.87c.39.33.74-.11.72-.51a2.89,2.89,0,0,0-.63-1.32c-.12-.17-.22-.36-.33-.54l.5.47c.26.25.45.55.73.79s.91.26.77-.32A5,5,0,0,0,48,62.4c.45.19,1,1.13,1.46.86C50.21,62.77,47.49,60.62,46.42,60.43Z"/><polygon class="cls-4" points="37.95 51.11 35.76 55.07 34.91 54.6 37.1 50.64 37.95 51.11"/><path class="cls-5" d="M37.36,50.78a4.07,4.07,0,0,0-2.07-2.86A3.92,3.92,0,0,0,30,49.31a3.87,3.87,0,0,0,1.69,5.21,4.08,4.08,0,0,0,3.53.21Z"/><path class="cls-6" d="M35.57,54a16.44,16.44,0,0,1-5.42-1.81,5.72,5.72,0,0,0,5.28,2.06Z"/><path class="cls-6" d="M37,51.47a5.73,5.73,0,0,0-4.58-3.34,16.53,16.53,0,0,1,4.44,3.6Z"/><path class="cls-6" d="M36.24,52.81a28.17,28.17,0,0,0-5.77-3.14s1.32,1.82,5.68,3.31Z"/><path class="cls-6" d="M26.79,51.17a.52.52,0,0,1-.54.52.54.54,0,0,1-.53-.54.53.53,0,0,1,.55-.52A.52.52,0,0,1,26.79,51.17Z"/><path class="cls-6" d="M26.79,51.17a.52.52,0,0,1-.54.52.54.54,0,0,1-.53-.54.53.53,0,0,1,.55-.52A.52.52,0,0,1,26.79,51.17Z"/><path class="cls-6" d="M26.47,54.5a.54.54,0,0,1-.55.52.52.52,0,0,1-.52-.54.54.54,0,0,1,.54-.53A.54.54,0,0,1,26.47,54.5Z"/><path class="cls-6" d="M26.23,58.79a.54.54,0,0,1-1.08,0,.55.55,0,0,1,.55-.53A.54.54,0,0,1,26.23,58.79Z"/><polygon class="cls-6" points="33.53 73.94 31.48 75.33 31.2 72.67 33.48 73.49 33.53 73.94"/><polygon class="cls-6" points="33.47 73.94 35.69 75.01 35.58 72.34 33.45 73.49 33.47 73.94"/><path class="cls-5" d="M33.78,73.45a.37.37,0,0,1-.07.54.38.38,0,1,1-.46-.61A.37.37,0,0,1,33.78,73.45Z"/><polygon class="cls-6" points="19.08 72.47 16.86 73.56 16.95 70.88 19.09 72.02 19.08 72.47"/><polygon class="cls-6" points="19.02 72.46 21.07 73.83 21.34 71.17 19.06 72.02 19.02 72.46"/><path class="cls-5" d="M19.41,72a.39.39,0,0,1-.68.38.38.38,0,0,1,.15-.52A.39.39,0,0,1,19.41,72Z"/><path class="cls-20" d="M49.25,5.47a3.78,3.78,0,0,1-6.84-3,3.79,3.79,0,0,1-4.33,2.2A3.78,3.78,0,0,1,35.2.74a3.79,3.79,0,0,1-3.8,3A3.79,3.79,0,0,1,27.72.38h0q.39,4.71.77,9.43a31.26,31.26,0,0,1,15.88,3.75l4.94-8.08Z"/><g class="cls-21"><path class="cls-22" d="M28.42,9.33c0,.16,0,.32,0,.48a31.26,31.26,0,0,1,15.88,3.75l.26-.43C36.73,9.05,30.86,9.07,28.42,9.33Z"/></g><path class="cls-23" d="M31.28,4.76a3.77,3.77,0,0,0,3.74-3A3.68,3.68,0,0,0,42.1,3.39a3.76,3.76,0,0,0,2,4.39,3.72,3.72,0,0,0,4.32-.85l.89-1.45h0a3.78,3.78,0,0,1-6.84-3,3.79,3.79,0,0,1-4.33,2.2A3.78,3.78,0,0,1,35.2.74a3.79,3.79,0,0,1-3.8,3A3.79,3.79,0,0,1,27.72.38h0l.15,1.78A3.71,3.71,0,0,0,31.28,4.76Z"/><path class="cls-22" d="M28.34.82A.67.67,0,0,1,27,.51a.67.67,0,0,1,1.31.31Z"/><path class="cls-17" d="M27.78.48a.31.31,0,0,1-.37.23.3.3,0,1,1,.14-.59A.29.29,0,0,1,27.78.48Z"/><path class="cls-22" d="M36,.88a.68.68,0,0,1-.81.5.67.67,0,1,1,.31-1.3A.67.67,0,0,1,36,.88Z"/><path class="cls-17" d="M35.4.54A.3.3,0,0,1,35,.77.31.31,0,0,1,34.8.4a.32.32,0,0,1,.37-.23A.31.31,0,0,1,35.4.54Z"/><path class="cls-22" d="M43.11,2.57a.67.67,0,1,1-.5-.8A.67.67,0,0,1,43.11,2.57Z"/><path class="cls-17" d="M42.55,2.23a.31.31,0,1,1-.23-.37A.32.32,0,0,1,42.55,2.23Z"/><path class="cls-22" d="M50,5.75a.67.67,0,0,1-1.3-.31.67.67,0,1,1,1.3.31Z"/><path class="cls-17" d="M49.4,5.41a.32.32,0,0,1-.37.23.31.31,0,0,1-.23-.37A.3.3,0,0,1,49.17,5,.31.31,0,0,1,49.4,5.41Z"/><path class="cls-5" d="M17.51,85.08c.14-.18,1.14,7.58,8.88,7.48,4,0,8-2.24,8.89-6.3,0-.16,3.4,7.85,12.64,4.37a5.83,5.83,0,0,0,2.57-2.46c-.17-1-.42-2.36-.77-3.88a6.94,6.94,0,0,1-3.65,4.33c-4.58,1.93-9.09-2-10.88-6.28-.08.16-.15.33-.23.49-1.37,2.73-3.55,5.75-6.72,6.51a8.19,8.19,0,0,1-8.65-3.94,13.27,13.27,0,0,1-1.8-5.65c-.08.14-.17.29-.26.42a20.42,20.42,0,0,1-5.48,5.93c-1.48,1-3.91,2.14-5.79,1.51-.06,1.15-.07,2.34,0,3.56a5.33,5.33,0,0,0,.74.2C11.35,92.16,15.17,88.25,17.51,85.08Z"/></g></g></g></svg>