<svg xmlns="http://www.w3.org/2000/svg" viewBox="0 0 78.48 100"><defs><style>.cls-1{isolation:isolate;}.cls-2,.cls-3{fill:#bf93af;}.cls-18,.cls-3,.cls-5,.cls-6{opacity:0.6;}.cls-12,.cls-14,.cls-16,.cls-17,.cls-18,.cls-24,.cls-3,.cls-5{mix-blend-mode:multiply;}.cls-12,.cls-4,.cls-5{fill:#eac7d7;}.cls-6{fill:#edebe2;}.cls-25,.cls-6{mix-blend-mode:screen;}.cls-7{fill:#e596ae;}.cls-8{fill:#c48fba;}.cls-9{fill:#bedef6;}.cls-10{fill:#8284b1;}.cls-11{fill:#f5ea8e;}.cls-13{fill:#c474a8;}.cls-14{fill:#dfd7d3;}.cls-15{fill:#ebd9d7;}.cls-16{fill:#af8791;}.cls-17{fill:#c39bad;}.cls-18{fill:#e7a5c2;}.cls-19{fill:#57446d;}.cls-20{fill:#322240;}.cls-21{fill:#fff;}.cls-22{fill:#ab79b2;}.cls-23{fill:#774c9b;}.cls-24,.cls-25{opacity:0.5;}.cls-25{fill:#c6cbe5;}</style></defs><g class="cls-1"><g id="Слой_2" data-name="Слой 2"><g id="Layer_1" data-name="Layer 1"><path class="cls-2" d="M30.34,98.34c.08-.64-.33-1.07-.44-1.78a2.27,2.27,0,0,1-.69-2.07,1,1,0,0,0-.8.06,2.87,2.87,0,0,0-.91.67,3.22,3.22,0,0,0-.49.54A6.12,6.12,0,0,0,26,97.37a2.82,2.82,0,0,0-.3.93.31.31,0,0,0,.09.28C28.42,99.3,29.9,98.67,30.34,98.34Z"/><path class="cls-3" d="M29.9,96.56a2.27,2.27,0,0,1-.69-2.07,1,1,0,0,0-.8.06,2.87,2.87,0,0,0-.91.67,3.22,3.22,0,0,0-.49.54c-.06.06-.11.13-.17.2a2.31,2.31,0,0,1,1.2.67,3,3,0,0,1,.59,2.25,3.54,3.54,0,0,0,1.71-.54C30.42,97.7,30,97.27,29.9,96.56Z"/><path class="cls-4" d="M32,87.46c.07-1.34-.22-2.95.31-4.21.23-.55.7-1,.95-1.49a1.87,1.87,0,0,0-.39-2,2.64,2.64,0,0,1-.56-1.46,6.91,6.91,0,0,1,.36-1.74c.44-1.53.86-3.07,1.27-4.61a47.46,47.46,0,0,0,1.23-5.75l0-.34a11.09,11.09,0,0,0-1.07-3.6c-1.44-2.89-6.16-4.67-8.41-2-1.3,2.63-.89,5.73-.12,8.62.93,3.52,4.11,17.93,1.77,26.48.82.2,1.85,1.45,2.78,1.7,0-.25.06-.5.1-.75a14.69,14.69,0,0,1,.2-1.64c.09-.37.52-.65.78-.88l.28-.24c.1-.4.19-.8.29-1.21C31.82,90.76,31.92,89.11,32,87.46Z"/><path class="cls-5" d="M32,87.46c.07-1.34-.22-2.95.31-4.21.23-.55.7-1,.95-1.49a1.87,1.87,0,0,0-.39-2,2.64,2.64,0,0,1-.56-1.46,6.91,6.91,0,0,1,.36-1.74c.44-1.53.86-3.07,1.27-4.61a47.46,47.46,0,0,0,1.23-5.75l0-.34a11.09,11.09,0,0,0-1.07-3.6c-1.44-2.89-6.16-4.67-8.41-2-1.3,2.63-.89,5.73-.12,8.62.93,3.52,4.11,17.93,1.77,26.48.82.2,1.85,1.45,2.78,1.7,0-.25.06-.5.1-.75a14.69,14.69,0,0,1,.2-1.64c.09-.37.52-.65.78-.88l.28-.24c.1-.4.19-.8.29-1.21C31.82,90.76,31.92,89.11,32,87.46Z"/><path class="cls-5" d="M33.94,72a47.46,47.46,0,0,0,1.23-5.75l0-.34a11.09,11.09,0,0,0-1.07-3.6c-1.44-2.89-6.16-4.67-8.41-2-1.17,2.35-.95,5.09-.35,7.71a19.92,19.92,0,0,0,5,3.7c.35.21.91.42,1.07.84a3.84,3.84,0,0,1,0,1.51c-.12,1.51-.34,3-.58,4.5.79.87,1.56,1.92.95,3-.21.37-.53.66-.76,1a2.25,2.25,0,0,0-.3,1.44c.07,1,.29,2.06.26,3.11,0,1.2-.16,2.38-.22,3.58a5.74,5.74,0,0,1-.46,2.69c-.18.3-.53.62-.59,1A4.4,4.4,0,0,0,30,96q.11.38.18.75l.06-.41a14.69,14.69,0,0,1,.2-1.64c.09-.37.52-.65.78-.88l.28-.24c.1-.4.19-.8.29-1.21.08-1.65.18-3.3.26-5,.07-1.34-.22-2.95.31-4.21.23-.55.7-1,.95-1.49a1.87,1.87,0,0,0-.39-2,2.64,2.64,0,0,1-.56-1.46,6.91,6.91,0,0,1,.36-1.74C33.11,75.05,33.53,73.51,33.94,72Z"/><path class="cls-6" d="M27.05,72.51c-.75-3.89-1.67-7.6-.95-11.57,0-.07-.08,0-.09,0-1.13,3.57-.51,6.91.33,10.46a59.13,59.13,0,0,1,1.3,5.87,31.06,31.06,0,0,0,.79,4.82c0,.06.11,0,.11-.06C28.2,78.84,27.67,75.67,27.05,72.51Z"/><path class="cls-6" d="M28.57,88.17c0-.08-.18,0-.17.09.05.57,0,1.13,0,1.69,0,.13.19,0,.21-.07A4.91,4.91,0,0,0,28.57,88.17Z"/><path class="cls-2" d="M54.73,98a9.63,9.63,0,0,0,2.17-.33,5.06,5.06,0,0,0-.34-1.85,2.22,2.22,0,0,1-.77-2,1,1,0,0,0-.78.06,2.69,2.69,0,0,0-.91.66,3.58,3.58,0,0,0-.48.53,6.11,6.11,0,0,0-1,1.59,2.94,2.94,0,0,0-.31.92.36.36,0,0,0,.1.28A7.72,7.72,0,0,0,54.73,98Z"/><path class="cls-3" d="M56.56,95.86a2.22,2.22,0,0,1-.77-2,1,1,0,0,0-.78.06,2.69,2.69,0,0,0-.91.66,3.58,3.58,0,0,0-.48.53l-.07.09a4,4,0,0,1,1.49.63,2.28,2.28,0,0,1,1,2.08,4.48,4.48,0,0,0,.89-.2A5.06,5.06,0,0,0,56.56,95.86Z"/><path class="cls-4" d="M54.34,93.75c-.07.16-.13.33-.2.49a3.43,3.43,0,0,0,2.41,1.65c.11-.18,0-1.57.1-1.76l.21-.38a38.28,38.28,0,0,0,3.8-12,6.33,6.33,0,0,0-.93-2.21c-2.83-4.15-.9-6.25-.51-10.76.48-5.46.41-15.14-7.2-15.38-3-.09-4.87,2.53-5.74,5.13a28.66,28.66,0,0,0-1.07,4.84c-.42,2.82-.54,6,.58,8.66s3.63,4.09,5.88,5.77a10.05,10.05,0,0,1,3.95,7.44,15.74,15.74,0,0,1-.6,5.37C54.73,91.65,54.53,92.7,54.34,93.75Z"/><path class="cls-5" d="M54.34,93.75c-.07.16-.13.33-.2.49a3.43,3.43,0,0,0,2.41,1.65c.11-.18,0-1.57.1-1.76l.21-.38a38.28,38.28,0,0,0,3.8-12,6.33,6.33,0,0,0-.93-2.21c-2.83-4.15-.9-6.25-.51-10.76.48-5.46.41-15.14-7.2-15.38-3-.09-4.87,2.53-5.74,5.13a28.66,28.66,0,0,0-1.07,4.84c-.42,2.82-.54,6,.58,8.66s3.63,4.09,5.88,5.77a10.05,10.05,0,0,1,3.95,7.44,15.74,15.74,0,0,1-.6,5.37C54.73,91.65,54.53,92.7,54.34,93.75Z"/><path class="cls-5" d="M49.25,71.64a14.57,14.57,0,0,1,3.63-3,.13.13,0,0,1,.19.14,9.7,9.7,0,0,0,3.52,9.08A36.75,36.75,0,0,1,60.45,81a5.65,5.65,0,0,0-.72-1.48c-2.83-4.15-.9-6.25-.51-10.76.48-5.46.41-15.14-7.2-15.38-3-.09-4.87,2.53-5.74,5.13a28.66,28.66,0,0,0-1.07,4.84c-.42,2.82-.54,6,.58,8.66A7.31,7.31,0,0,0,47,74,8.89,8.89,0,0,0,49.25,71.64Z"/><path class="cls-6" d="M56.16,82.16c-.87-3.32-3.78-5-6.45-6.74,0,0-.1.06-.07.08,2.38,1.86,4.9,3.58,5.94,6.58a11.41,11.41,0,0,1,.5,4.78,32,32,0,0,1-.73,4.59c0,.16.19,0,.22,0a22.86,22.86,0,0,0,.87-4.34A13.09,13.09,0,0,0,56.16,82.16Z"/><path class="cls-7" d="M76.89,50.53a14.06,14.06,0,0,0-10.24-7.91,11.24,11.24,0,0,0-3.11-.07.23.23,0,0,1-.1,0l-.25,0-.41.07a9.85,9.85,0,0,0-1.84.57,6.26,6.26,0,0,0-1.5.94,5.91,5.91,0,0,0-.83,1,3.37,3.37,0,0,0-.32.56,1.39,1.39,0,0,0-.08.34c0,.13,0,.82.1.89a1.76,1.76,0,0,0,.42.17,3.68,3.68,0,0,0,1.08,0c.46-.06,1-.14,1.44-.24.6.06,1.18.15,1.74.16a3.87,3.87,0,0,0,1.66-.3A17.83,17.83,0,0,1,67,47a16.29,16.29,0,0,1,2.43.66l.69.27c.23.1.46.2.67.31s.45.23.67.35l.64.4c.18.2.33.4.49.6s.31.41.45.62a12.77,12.77,0,0,1,.77,1.28c.12.21.23.44.33.65s.2.46.29.69a10.47,10.47,0,0,1,.47,1.4,12,12,0,0,1,.28,4.7,20.86,20.86,0,0,1-1.06,4.22c-.82,2.35-2,4.42-2.42,6.78a6.42,6.42,0,0,0-.1.93l0,.28A6,6,0,0,0,72.22,73a2.51,2.51,0,0,0,1.33,1.26,3.15,3.15,0,0,0,1.65.15c-.19,0-.47-.3-.71-.73-.11-.22-.22-.44-.3-.64s-.14-.37-.16-.44a6.12,6.12,0,0,1-.19-3.11,11.46,11.46,0,0,1,1-3c.47-1,1-2,1.57-3a21.84,21.84,0,0,0,1.44-3.33,7.89,7.89,0,0,0,.42-4.68A15.47,15.47,0,0,0,76.89,50.53Z"/><path class="cls-8" d="M64.65,46.71A17.83,17.83,0,0,1,67,47a16.29,16.29,0,0,1,2.43.66l.69.27c.23.1.46.2.67.31s.45.23.67.35l.64.4c.18.2.33.4.49.6s.31.41.45.62a12.77,12.77,0,0,1,.77,1.28c.12.21.23.44.33.65s.2.46.29.69a10.47,10.47,0,0,1,.47,1.4,12,12,0,0,1,.28,4.7,20.86,20.86,0,0,1-1.06,4.22c-.15.4-.29.8-.45,1.19l0,0c.75-1.21,1.68-2.32,2.45-3.63a9.93,9.93,0,0,0,.64-1.31c.09-.23.17-.46.24-.7s.13-.48.18-.72a8.53,8.53,0,0,0,.06-3.24,11.25,11.25,0,0,0-1.34-3.77,10.64,10.64,0,0,0-2.6-3,16,16,0,0,0-1.44-1c-.51-.29-1-.56-1.55-.8a16.47,16.47,0,0,0-3.28-1,14.66,14.66,0,0,0-2.93-.31,15.77,15.77,0,0,0-2.79.22c-1,.16-2,.4-3,.6a1.39,1.39,0,0,0-.14.48c0,.13,0,.82.1.89a1.76,1.76,0,0,0,.42.17,3.68,3.68,0,0,0,1.08,0c.46-.06,1-.14,1.44-.24.6.06,1.18.15,1.74.16A3.87,3.87,0,0,0,64.65,46.71Z"/><path class="cls-9" d="M75.6,76.16a3.32,3.32,0,0,1-2.14-2A6.63,6.63,0,0,1,73.08,71a25.49,25.49,0,0,1,2.11-6.71A12.19,12.19,0,0,0,75.66,63,6.28,6.28,0,0,0,76,61.43a10.2,10.2,0,0,0-.42-5.86,12.88,12.88,0,0,0-2.86-4.2,22.68,22.68,0,0,0-3.88-3.12,17.88,17.88,0,0,0-3.31-1.16,13.89,13.89,0,0,0-1.62-.3c-.54-.07-1.06-.12-1.58-.14s-1.22,0-1.92,0-1.43,0-2.09,0l0,.16a1.15,1.15,0,0,0,.29.08,3.46,3.46,0,0,1,.7.51c.3.27.56.55.62.57.62.34,1.11.61,1.56.82a13.1,13.1,0,0,0,1.27.52,12.41,12.41,0,0,1,1.31.53,5.82,5.82,0,0,1,1.4.94c1,.94,2.21,2.1,3.43,3.3l.53.5.54.52c.35.35.72.7,1.06,1.09a14.78,14.78,0,0,1,1,1.2,11,11,0,0,1,.84,1.36,6.22,6.22,0,0,1,.68,3.19,8.45,8.45,0,0,1-.79,3.12c-.77,1.65-1.8,3.08-2.21,4.88l0,.15c0,.19,0,.38-.07.57v0l0,.12c0,.38,0,.75,0,1.12a6,6,0,0,0,.47,2.35A4.33,4.33,0,0,0,72.3,76.1a3.36,3.36,0,0,0,.91.45,4.19,4.19,0,0,0,1.05.17,5.32,5.32,0,0,0,2.12-.46A3.37,3.37,0,0,1,75.6,76.16Z"/><path class="cls-7" d="M58.3,46.87A3.26,3.26,0,0,0,59,48.06c.24.39.51.76.77,1.12A15.45,15.45,0,0,1,61,51.29a6.7,6.7,0,0,1,.64,1.36l0,.08c.11.45.14.81.2,1.16a2.25,2.25,0,0,0,.47,1,12.14,12.14,0,0,0,1,1.11c.11.09.22.21.34.32l.36.33c.11.11.24.22.37.33s.24.23.38.34.52.48.81.72l.41.4.42.41a14.18,14.18,0,0,1,1.72,1.95,5.45,5.45,0,0,1,.56,2.52,9.37,9.37,0,0,1-1.35,3.75,6.44,6.44,0,0,0-.85,4.88c.33,1.34,1.64,2.33,2.68,3.26a4.87,4.87,0,0,1,1.23,1.49,3.16,3.16,0,0,1,.27,1,7.34,7.34,0,0,1,0,1.3,1.48,1.48,0,0,0,.53-.69,3.26,3.26,0,0,0,.15-.44,4.31,4.31,0,0,0,.11-.49,4.52,4.52,0,0,0-.06-1.85,7.23,7.23,0,0,0-.77-1.67,12.36,12.36,0,0,1-1.93-2.51,3.26,3.26,0,0,1-.09-3c.5-1.08,1.26-2,1.72-3a8,8,0,0,0,.67-3.5,3.67,3.67,0,0,0-.28-1.28,5.9,5.9,0,0,0-.64-1.15c-.5-.72-1.13-1.33-1.63-1.93a21.45,21.45,0,0,0-2.39-2.23A13.27,13.27,0,0,1,64.18,53c-.25-.35-.48-.66-.7-1s-.42-.63-.63-.93A15.2,15.2,0,0,0,61,48.87c-.43-.43-.93-.78-1.47-1.22A5.18,5.18,0,0,0,59,47.3a2.26,2.26,0,0,0-.34-.18l-.16-.07a.28.28,0,0,0-.12-.12l-.07-.06Z"/><path class="cls-8" d="M58.28,46.4l-.05,0c0,.17,0,.33.07.49v.05l.45.31.41.35a6.48,6.48,0,0,0,.81.58,10.8,10.8,0,0,1,1,.61.92.92,0,0,0,.21.49,12.14,12.14,0,0,1,1.34,1.39c.37.43.67.83,1,1.22s.74.78,1.21,1.22,1,.9,1.61,1.41,1.42,1.19,2.14,1.88a21.66,21.66,0,0,1,2,2.29,5.6,5.6,0,0,1,1.13,3.1A6,6,0,0,1,70.88,65a15,15,0,0,0-2,4.28,6.81,6.81,0,0,0-.09,1.37,8.05,8.05,0,0,0,1.6,4.67c.41.53.86,1.05,1.24,1.57a8,8,0,0,1,1,1.68c.22.54.42,1.13.69,1.7a21.88,21.88,0,0,1-.13-2.86,5.89,5.89,0,0,0-.79-2.74,20.77,20.77,0,0,1-1.09-2.16,5.42,5.42,0,0,1-.48-2.57,6.67,6.67,0,0,1,1-2.92,25.47,25.47,0,0,0,1.44-2.73,8.75,8.75,0,0,0,.72-3.08,6.83,6.83,0,0,0-.63-3,9.3,9.3,0,0,0-1.68-2.47,11.22,11.22,0,0,0-1-1c-.37-.32-.72-.63-1.1-.91l-.54-.43c-.19-.13-.37-.27-.54-.41l-.52-.4c-.17-.12-.33-.27-.5-.39-.73-.6-1.44-1.16-2.12-1.67-.33-.26-.67-.49-1-.73l-1-.68c-.68-.44-1.4-.9-2.23-1.34-.41-.23-.84-.46-1.3-.69L59,46.74Z"/><path class="cls-10" d="M64.11,51.9a15,15,0,0,1-1-1.27,12.6,12.6,0,0,0-1.23-1.38c-.34-.34-.71-.7-1.12-1.07L60.39,48a10.24,10.24,0,0,1-1.47-.61h0c.89.89,1.75,1.67,2.39,2.4a11.09,11.09,0,0,1,1.41,2,6.25,6.25,0,0,0,.75,1.14,11.34,11.34,0,0,0,1,1.08l.16.14.16.16c.11.1.23.19.34.3s.49.42.74.66l.41.34c.12.12.26.24.4.36.29.24.55.5.85.75a17.6,17.6,0,0,1,2.91,3.24,4.06,4.06,0,0,1,.42,3.18A7.63,7.63,0,0,1,69.42,66a7.36,7.36,0,0,0-1.29,2.27,5.55,5.55,0,0,0,.16,2.47,6.48,6.48,0,0,0,2.44,3,.16.16,0,0,0,0-.09c-1.14-1.46-2.17-3-1.67-5,.4-1.6,1.73-2.75,2.42-4.18a6.61,6.61,0,0,0,.63-3.87,5.92,5.92,0,0,0-1.81-3.44c-.58-.54-1.18-1-1.75-1.54-.29-.25-.59-.48-.86-.72s-.56-.47-.83-.69c-.55-.45-1-.87-1.5-1.27A15.23,15.23,0,0,1,64.11,51.9Z"/><path class="cls-11" d="M76.67,58.39a7.88,7.88,0,0,0,0-3.86,10.57,10.57,0,0,0-.68-1.8,11.06,11.06,0,0,0-1-1.64,12,12,0,0,0-3-3,13.11,13.11,0,0,0-3.71-1.79,16.84,16.84,0,0,0-2.65-.55,17.1,17.1,0,0,0-2.65-.13c-.86,0-1.68.08-2.48.15l-1.2.09-.6,0c-.2,0-.42,0-.57,0a4.91,4.91,0,0,0,0,.55,24.67,24.67,0,0,0,3.44,1.22l1.11.34.53.09a20,20,0,0,1,2,.4,15.29,15.29,0,0,1,2.12.68,16.23,16.23,0,0,1,4.19,2.45,7.79,7.79,0,0,1,.93.89,9.63,9.63,0,0,1,.82,1.06,10.75,10.75,0,0,1,.68,1.19,8.81,8.81,0,0,1,.5,1.25,5.76,5.76,0,0,1,.19.68c0,.22.06.45.08.67a7.26,7.26,0,0,1,0,1.32c0,.44-.13.86-.22,1.29s-.2.83-.32,1.23A10.45,10.45,0,0,0,74,62.56a4.77,4.77,0,0,0,.17,2c.23.73.87,1.84,1.64,1.85a3.34,3.34,0,0,0-.37-.66A3.92,3.92,0,0,1,75,63.12,4.88,4.88,0,0,1,75.29,62a12.45,12.45,0,0,1,.46-1.18A18,18,0,0,0,76.67,58.39Z"/><path class="cls-4" d="M68.18,51.35c-.59-.29-1.18-.55-1.73-.8l-1.57-.69c-1-.41-1.86-.79-2.83-1.25s-2.13-1-3.39-1.46l.15.09a19.39,19.39,0,0,1,2.52,1.85c.7.61,1.23,1.16,1.74,1.65.31.28.62.55,1,.82s.71.56,1.12.86c.82.61,1.8,1.29,2.9,2a15.71,15.71,0,0,1,3.2,2.44A6.12,6.12,0,0,1,73,60.69a8,8,0,0,1-.23,2.46,8.56,8.56,0,0,0,.75-1.22,6.65,6.65,0,0,0,.6-4.53,7.26,7.26,0,0,0-2.38-3.83A15.56,15.56,0,0,0,68.18,51.35Z"/><path class="cls-12" d="M64.11,56.64c.11.11.24.22.37.33s.24.23.38.34.52.48.81.72l.41.4.42.41a14.18,14.18,0,0,1,1.72,1.95,5.45,5.45,0,0,1,.56,2.52,9.37,9.37,0,0,1-1.35,3.75,7.09,7.09,0,0,0-1,2.62,24.3,24.3,0,0,0,2.58-4,16.43,16.43,0,0,0,1.58-10.17,16.89,16.89,0,0,0-4.54-9A12.56,12.56,0,0,0,64,44.87a5.08,5.08,0,0,1-1.29-1.06,1.41,1.41,0,0,1-.33-1,9.6,9.6,0,0,0-1.46.48,6.26,6.26,0,0,0-1.5.94,5.91,5.91,0,0,0-.83,1,3.85,3.85,0,0,0-.25.42h0l-.06.13a.56.56,0,0,1,0,.12v.06a.24.24,0,0,0,0,.08h0v.08c0,.13,0,.82.1.89h0A3.45,3.45,0,0,0,59,48.06c.24.39.51.76.77,1.12A15.45,15.45,0,0,1,61,51.29a6.7,6.7,0,0,1,.64,1.36l0,.08c.11.45.14.81.2,1.16a2.25,2.25,0,0,0,.47,1,12.14,12.14,0,0,0,1,1.11c.11.09.22.21.34.32Z"/><polygon class="cls-12" points="58.49 47.05 58.5 47.05 58.49 47.05 58.49 47.05"/><path class="cls-4" d="M67.69,51.22a17.3,17.3,0,0,0-9.69-8,24.47,24.47,0,0,0-10.52-.76c-4.9.63-7.18.94-12.14-.42s-6.94-19.25-8.55-20.7c-1.07-1-4.46,1.25-7.53,3.79a72.58,72.58,0,0,1,2.23,9.06,47,47,0,0,1,.63,5.67,50,50,0,0,1-.18,5.74c-.18,2.73-.72,5.38-1.16,8.07a31,31,0,0,0,.18,4.2,16.61,16.61,0,0,0,2,5.29l.36.66,0,.05c4.19,4.65,9.92,9.06,16.56,8.36,3.72-.39,6.83-2.35,9.92-4.31a11.3,11.3,0,0,1,3.66-1.73c.24-.06.47-.12.72-.16,2.91-.49,5.68,1,8.56.95,2.17,0,4.73-.74,5.73-2.83C70.39,60.24,69.76,54.83,67.69,51.22Z"/><path class="cls-5" d="M35.71,53.8c-1.25-1-.15-2.32.57-3.29a6.65,6.65,0,0,0,1.13-5.22,7.62,7.62,0,0,0-1.52-3.13L35.34,42c-4.85-1.33-6.94-19.25-8.55-20.7-1.07-1-4.46,1.25-7.53,3.79a73,73,0,0,1,2.18,8.74c.8-.18,1.73,0,2.51-.19a.12.12,0,0,1,.14.18,12.32,12.32,0,0,0-1.84,6.32,13.11,13.11,0,0,0,1.8,6,11.12,11.12,0,0,1,1.45,3.21A4,4,0,0,0,26,48.25a.12.12,0,0,1,.23,0c.79,1.62.11,3.77-1.21,5.19A8.28,8.28,0,0,0,28.78,51a.13.13,0,0,1,.23.1C28.61,53,27.85,55,28,57a7,7,0,0,0,2.22,4.76,14.36,14.36,0,0,0,2.86,1.69,9.22,9.22,0,0,1-.6-1.32l-.15-.51a5.57,5.57,0,0,1-.52-2.16c0-1,.07-2.6.9-3.28a.3.3,0,0,0,0-.08.13.13,0,0,1,.17,0,3.19,3.19,0,0,0,3.85-.51,3.71,3.71,0,0,0,.76-1.72A1.59,1.59,0,0,1,35.71,53.8Z"/><path class="cls-5" d="M67.69,51.22a17.3,17.3,0,0,0-9.69-8,24.47,24.47,0,0,0-10.52-.76l-.39.05,1.13.2a10.47,10.47,0,0,1,5.53,2.73A10,10,0,0,1,57,51.89a10.56,10.56,0,0,1-2.13,6.73,18.68,18.68,0,0,1-3.49,3.56,14.54,14.54,0,0,1-4.28,2.63,1.69,1.69,0,0,1-2.19-.67c-.82-1.24-1.34-2.59-2.53-3.55a5.69,5.69,0,0,0-4.55-1.25c-1.37.25-3.72.62-4.48,1.87-1.58,2.6-.12,7.81-.21,7.8-3.93-.56-6.92-3.28-9.23-6.45A19.7,19.7,0,0,1,21,56.94c-.06-.21-.11-.41-.16-.61A12.81,12.81,0,0,0,21,57.85a16.61,16.61,0,0,0,2,5.29l.36.66,0,.05c4.19,4.65,9.92,9.06,16.56,8.36,3.72-.39,6.83-2.35,9.92-4.31a11.3,11.3,0,0,1,3.66-1.73c.24-.06.47-.12.72-.16,2.91-.49,5.68,1,8.56.95,2.17,0,4.73-.74,5.73-2.83C70.39,60.24,69.76,54.83,67.69,51.22Z"/><path class="cls-2" d="M38.87,99.43c.08-.64-.33-1.07-.44-1.78a2.31,2.31,0,0,1-.7-2.07,1,1,0,0,0-.79.06,4.67,4.67,0,0,0-1.4,1.21,6.12,6.12,0,0,0-1,1.61,3,3,0,0,0-.3.92.35.35,0,0,0,.09.29C37,100.39,38.43,99.75,38.87,99.43Z"/><path class="cls-3" d="M38.43,97.65a2.31,2.31,0,0,1-.7-2.07,1,1,0,0,0-.79.06,4.67,4.67,0,0,0-1.4,1.21c-.06.06-.11.13-.17.2a2.31,2.31,0,0,1,1.2.67,3,3,0,0,1,.59,2.25,3.54,3.54,0,0,0,1.71-.54C39,98.79,38.54,98.36,38.43,97.65Z"/><path class="cls-4" d="M40.53,88.55c.07-1.34-.22-3,.31-4.22.23-.54.7-1,.95-1.49.36-.76,0-1.33-.39-2a2.5,2.5,0,0,1-.55-1.45,6.48,6.48,0,0,1,.35-1.74c.44-1.53.86-3.08,1.27-4.61a49.49,49.49,0,0,0,1.24-5.75c0-.11,0-.23,0-.34a11.32,11.32,0,0,0-1.06-3.6c-1.45-2.89-6.17-4.68-8.41-1.95-1.31,2.63-.9,5.73-.13,8.62C35,73.56,38.18,88,35.84,96.51c.82.21,1.86,1.46,2.78,1.71,0-.25.06-.5.1-.76.09-.54.06-1.1.2-1.64.09-.37.52-.64.78-.87l.28-.24c.1-.4.19-.81.29-1.21C40.36,91.85,40.45,90.2,40.53,88.55Z"/><path class="cls-5" d="M42.47,73.06a49.49,49.49,0,0,0,1.24-5.75c0-.11,0-.23,0-.34a11.32,11.32,0,0,0-1.06-3.6,6.37,6.37,0,0,0-5.72-3.29,5.57,5.57,0,0,1,3,2.66c1.61,2.78,1.15,6.34.61,9.35-.28,1.55-.51,3.15-.94,4.65A7.54,7.54,0,0,0,39,79.11c0,.84.54,1.22,1.05,1.8.82.93-.13,2.09-.64,2.92A2.09,2.09,0,0,0,39,85.11a9.46,9.46,0,0,0,.37,1.14,8.67,8.67,0,0,1,.2,2.44c0,1-.08,2-.15,3a3.75,3.75,0,0,1-.31,1.91c-.44.62-1.28,1-1.26,1.82s.2,1.41.21,2.13a.12.12,0,0,1-.16.12l-.34-.1a3.51,3.51,0,0,0,1.07.6c0-.25.06-.5.1-.76.09-.54.06-1.1.2-1.64.09-.37.52-.64.78-.87l.28-.24c.1-.4.19-.81.29-1.21.09-1.65.18-3.3.26-5,.07-1.34-.22-3,.31-4.22.23-.54.7-1,.95-1.49.36-.76,0-1.33-.39-2a2.5,2.5,0,0,1-.55-1.45,6.48,6.48,0,0,1,.35-1.74C41.64,76.14,42.06,74.59,42.47,73.06Z"/><path class="cls-6" d="M35.58,73.6c-.75-3.89-1.67-7.6-.95-11.58,0-.06-.08,0-.09,0-1.13,3.57-.51,6.9.33,10.46a59.13,59.13,0,0,1,1.3,5.87A31.06,31.06,0,0,0,37,83.19s.11,0,.11-.06C36.73,79.93,36.2,76.76,35.58,73.6Z"/><path class="cls-6" d="M37.1,89.26c0-.08-.17,0-.17.09,0,.57,0,1.12,0,1.69,0,.13.2,0,.21-.07A4.91,4.91,0,0,0,37.1,89.26Z"/><path class="cls-2" d="M64.39,99.65a9.47,9.47,0,0,0,2.17-.33,4.86,4.86,0,0,0-.34-1.85,2.25,2.25,0,0,1-.77-2,1,1,0,0,0-.78.06,2.66,2.66,0,0,0-.9.66,3.1,3.1,0,0,0-.48.53,6.14,6.14,0,0,0-1,1.59,2.69,2.69,0,0,0-.3.92.35.35,0,0,0,.09.28A7.72,7.72,0,0,0,64.39,99.65Z"/><path class="cls-3" d="M66.22,97.47a2.25,2.25,0,0,1-.77-2,1,1,0,0,0-.78.06,2.66,2.66,0,0,0-.9.66,3.1,3.1,0,0,0-.48.53l0,0A2.49,2.49,0,0,1,65,98.44a9,9,0,0,1,0,1.16,7.08,7.08,0,0,0,1.55-.28A4.86,4.86,0,0,0,66.22,97.47Z"/><path class="cls-4" d="M64,95.36c-.06.16-.13.33-.2.49a3.43,3.43,0,0,0,2.41,1.65c.11-.18,0-1.57.1-1.76l.21-.38a38.56,38.56,0,0,0,3.81-12,6.52,6.52,0,0,0-.93-2.21c-2.84-4.15-.91-6.25-.51-10.76.47-5.46.41-15.14-7.2-15.38-3-.09-4.87,2.53-5.75,5.13A28.66,28.66,0,0,0,54.87,65c-.42,2.82-.53,6,.58,8.66s3.63,4.09,5.89,5.77a10.05,10.05,0,0,1,4,7.44,16,16,0,0,1-.61,5.37C64.4,93.26,64.19,94.31,64,95.36Z"/><path class="cls-5" d="M69.4,81.15c-2.84-4.15-.91-6.25-.51-10.76.47-5.46.41-15.14-7.2-15.38a4.7,4.7,0,0,0-3.08,1,7,7,0,0,1,1.21-.33c3.35-.58,5.6,3,6.1,5.86.59,3.31-.19,6.59-.54,9.87-.11,1-.27,2.08-.37,3.12a8.4,8.4,0,0,0,0,2.83c.37,1.55,1.7,2.55,2.55,3.83a5.53,5.53,0,0,1,1.06,3.44,17.52,17.52,0,0,1-1.12,4.55c-.32,1-1.34,4.36-1.52,5.1-.26,1.12-1.19,1.35-2.09,1.74a3.65,3.65,0,0,0,2.33,1.47c.11-.18,0-1.57.1-1.76l.21-.38a38.56,38.56,0,0,0,3.81-12A6.52,6.52,0,0,0,69.4,81.15Z"/><path class="cls-6" d="M61.67,78.75A20.52,20.52,0,0,1,58,75.33a12.29,12.29,0,0,1-2-4.53,16.67,16.67,0,0,1-.24-5.64,22.78,22.78,0,0,1,1.05-5.61c0-.09-.1,0-.12,0a21.32,21.32,0,0,0-1.37,11.25,11.34,11.34,0,0,0,6.3,8S61.71,78.78,61.67,78.75Z"/><path class="cls-11" d="M31.62,21.35c-.14-.92-.31-3.21-1.38-3.61-.17-.06-.55.26-.37.41.39.32.45,1.19.5,1.75-.29.16-.57.52-.49.78.83,2.73-.08,5.86-1.07,8.46-1.17,2.26-2.79,4.27-3.87,6.59a9.92,9.92,0,0,0-.2,7.44,26.48,26.48,0,0,0,1.93,3.74,7.46,7.46,0,0,1,.6,2.45,4.32,4.32,0,0,1-1,2.7,4,4,0,0,0,.52-.15,3.53,3.53,0,0,0,1.79-1.41,8.61,8.61,0,0,0,.65-2,7.6,7.6,0,0,0-.8-4.2,32.67,32.67,0,0,1-1.35-5.14,10.41,10.41,0,0,1,.36-5.37c.1-.28.23-.55.35-.82.37-.54.74-1.07,1.08-1.6a18.34,18.34,0,0,0,2.26-5A11.85,11.85,0,0,0,31.62,21.35Z"/><path class="cls-7" d="M25,36.15a25.9,25.9,0,0,1,3.58-6,14.91,14.91,0,0,0,2.35-5.38,6.39,6.39,0,0,0-.36-3.67c-.29-.68-.72-1.53-1.58-1.47-.24,0-.6.31-.44.57s.42.37.56.62h0a.13.13,0,0,0,0,.11,7.57,7.57,0,0,1,.09,2.85l-.15.88A15.86,15.86,0,0,1,27.3,29a48.38,48.38,0,0,0-3.57,6.8c-1.45,3.92-1.25,9.17,2.19,12C24.22,44.13,23.49,40,25,36.15Z"/><path class="cls-9" d="M31.27,60.35a5.88,5.88,0,0,1,.07-3.64c.55-1.61,1.31-3.14,1.94-4.71.18-.47.36-.93.52-1.4A11.17,11.17,0,0,0,34,48.48c0-1.65-1-2.86-1.77-4.2-1-1.65-2.29-2.83-2.92-4.71a9.6,9.6,0,0,1,0-5.39c.44-1.71,1.08-3.35,1.44-5.08A20.7,20.7,0,0,0,31.09,27a15.41,15.41,0,0,0,.69-3,8.81,8.81,0,0,0-.19-2.8,14.83,14.83,0,0,0-1-2.4c-.09-.27-.52.1-.52.28,0,.88.41,1.76.5,2.65a10.06,10.06,0,0,1,0,1.82c-.28.16-.55.45-.55.69,0,.73-.07,1.46-.13,2.19a55.06,55.06,0,0,1-2.5,5.05c-.81,1.61-1.88,3.21-2.11,5-.27,2.11-.69,4,.05,6.08a18.94,18.94,0,0,0,2.79,4.75,8.82,8.82,0,0,1,1.95,6c-.14,2.1-.82,4-.27,6.11a4.1,4.1,0,0,0,2.67,3A4.38,4.38,0,0,1,31.27,60.35Z"/><path class="cls-7" d="M36,54.68c-.37.16-.65,0-1-.21-.88-.48-.88-1.31-.69-2.13a12.32,12.32,0,0,1,1-2.22,5.18,5.18,0,0,0-.1-3.83,13.23,13.23,0,0,0-2.53-3.73,7.89,7.89,0,0,1-1.56-4.79c0-3.3,1.73-6.36,1.7-9.65a23.15,23.15,0,0,0-.25-4.64A9.94,9.94,0,0,0,31.82,21a4.71,4.71,0,0,0-.58-.85,2.93,2.93,0,0,0-.27-.53.28.28,0,0,0-.27-.11c-.11-.13-.21-.26-.31-.4s-.39.12-.32.25.13.25.19.38c-.24.22-.4.54-.25.77a5.48,5.48,0,0,1,.35,2.55,9,9,0,0,1-.54,3c-.29.9-.69,1.72-1,2.59s-.53,1.79-.83,2.68a12.38,12.38,0,0,0,.94,10.38c1,1.73,2.18,3.11,2.65,5.12s-.46,4-.18,6.09c.16,1.16,1.1,2.87,2.47,2.93.85,0,2-.16,2.33-1.09C36.21,54.68,36.11,54.64,36,54.68Z"/><path class="cls-9" d="M35.43,43.24a13.71,13.71,0,0,1-2.78-4.67c-.53-2,.3-3.85.82-5.69a36.93,36.93,0,0,0,1-5.22,13.24,13.24,0,0,0-.52-5.08,7.76,7.76,0,0,0-.84-1.91c-.2-.32-.4-.61-.63-.91s-.76-.57-.95-1-.55.12-.51.33a2.06,2.06,0,0,0,.56.95,4.75,4.75,0,0,1,.47.75c-.16.15-.26.35-.18.48A10,10,0,0,1,33,25,10.27,10.27,0,0,1,32.12,30,22.79,22.79,0,0,0,30.3,37.1a6.72,6.72,0,0,0,.26,2.4c.31.52.65,1,1,1.48,1.08,1.59,2.31,2.94,2.65,4.9a5.8,5.8,0,0,1-.49,3.93,3,3,0,0,1-2,1.67A3,3,0,0,0,34,51a6.31,6.31,0,0,0,2.61-3.2A4.93,4.93,0,0,0,35.43,43.24Z"/><path class="cls-8" d="M35.49,42.66a3.51,3.51,0,0,1-1.71,1.77,2.58,2.58,0,0,1-3-.78,5.79,5.79,0,0,1-1-4.39,16,16,0,0,1,1.34-5.61C32.78,29.41,34.7,22,30.2,18.8c-.36-.26-1.17.32-1,.75a9.54,9.54,0,0,1,1.2,2.94l0,.34c0,.53,0,1.06,0,1.57,0,.35-.05.69-.06,1A21.44,21.44,0,0,1,29,30.81c-1.05,2.91-3.05,6.2-2.54,9.38.44,2.77,2.13,5.44,5,6a3.66,3.66,0,0,0,3-.76c.63-.58,1.51-1.77,1.2-2.69A.12.12,0,0,0,35.49,42.66Z"/><path class="cls-11" d="M28.87,41.44A6.31,6.31,0,0,1,30,37.37c.42-.68.91-1.34,1.41-2A26,26,0,0,0,33.89,29a13.67,13.67,0,0,0-.38-7,8.16,8.16,0,0,0-2.95-3.64l-.3-.35a.21.21,0,0,0-.05-.25.6.6,0,0,0-.46-.19.38.38,0,0,0-.19.05L29,17.19c-.13-.09-.41.15-.29.28l.51.53a.26.26,0,0,0,0,.28,12.77,12.77,0,0,1,3.05,5.66c.8,2.82-.47,6.27-1.9,8.67s-3.92,5.17-2.91,8.18a4,4,0,0,0,1.36,1.92,5.27,5.27,0,0,0,.48.25A4.69,4.69,0,0,1,28.87,41.44Z"/><path class="cls-13" d="M30.21,20.11a11.56,11.56,0,0,1,2.54,4.58c1.28,3.79.21,7.41-1.29,11A21.39,21.39,0,0,0,30,40.53,11.37,11.37,0,0,0,33,47.79c1.06,1.23,2.8,3.31,2.2,5A4.22,4.22,0,0,0,36,50.3a7,7,0,0,0-.06-.92,4.51,4.51,0,0,0-.5-1.14,8.56,8.56,0,0,0-1.27-1.48,10.35,10.35,0,0,1-1.66-2.48,7.82,7.82,0,0,1-.6-4.74c.54-3.14,2.48-5.86,2.94-9A12.13,12.13,0,0,0,34.63,26a9,9,0,0,0-.52-1.54c0-.19-.1-.39-.16-.58-1.06-3.42-3.53-6.67-7.38-7-.13,0-.43.29-.23.37A11.45,11.45,0,0,1,30.21,20.11Z"/><path class="cls-4" d="M27.12,21.57s6.12-4.71,3.59-11.3c0,0-6,.49-6.2,10.61A1.72,1.72,0,0,0,27.12,21.57Z"/><path class="cls-2" d="M29.68,11.72s-4.86.87-4,8.82C25.68,20.54,31.1,16.27,29.68,11.72Z"/><path class="cls-9" d="M35.39,24.35c0-.05,0-.07-.08-.06-.3,0-.38.21-.78.16a1.35,1.35,0,0,1-1-.77,5.92,5.92,0,0,1-.42-2A9.26,9.26,0,0,0,32,18a4.54,4.54,0,0,0-3-2.13,2,2,0,0,0-1.15.32,2.4,2.4,0,0,0-.85.57h0l-.11,0c-.14.05-.15.21,0,.19a1.63,1.63,0,0,1,1.85,1.09,5.9,5.9,0,0,1,.29,2,6.61,6.61,0,0,0,1.06,3.59,4.44,4.44,0,0,0,3,1.87A2.21,2.21,0,0,0,35.39,24.35Z"/><path class="cls-4" d="M30.83,24.16S38.18,21.8,38,14.75c0,0-5.85-1.59-9.43,7.88A1.72,1.72,0,0,0,30.83,24.16Z"/><path class="cls-2" d="M36.51,15.83s-4.87-.83-6.76,7C29.75,22.78,36.3,20.6,36.51,15.83Z"/><path class="cls-14" d="M30.05,19.52a20.18,20.18,0,0,0-1.51,3.18,1.72,1.72,0,0,0,2.22,1.53s.27-.09.7-.28A7.47,7.47,0,0,0,30.05,19.52Z"/><path class="cls-4" d="M30.57,27.23a6.92,6.92,0,0,0-.11-5.14,7.44,7.44,0,0,0-1.75-2.44c-3.49-3.32-8.8-5.44-13-2.31a35.28,35.28,0,0,0-4.11,3.9,12,12,0,0,1-6,3.11c-.59.2-1.18.38-1.77.55l-1.19.31A4,4,0,0,0,.83,28a14.91,14.91,0,0,0-.31,1.75A3.26,3.26,0,0,1,.22,31a2.65,2.65,0,0,1-.21.26A2.72,2.72,0,0,0,.62,33.1a17.87,17.87,0,0,0,2.77,1.51,4.59,4.59,0,0,0,2.06.6,5.86,5.86,0,0,0,1.88-.44L11,33.27c1-.4,2.52,0,3.51.08,2,.17,4,.19,6.07.25l1.4,0A12.61,12.61,0,0,0,28.13,31,9.22,9.22,0,0,0,30.57,27.23Z"/><path class="cls-5" d="M11.46,31.6l-.59.14c.27-.07.55-.13.82-.18Z"/><path class="cls-5" d="M30.46,22.09a7.44,7.44,0,0,0-1.75-2.44c-3.49-3.32-8.8-5.44-13-2.31a28.47,28.47,0,0,0-3.45,3.22c.76,2.13,2.78,3.69,5.19,2.82a.13.13,0,0,1,.15.16,1.34,1.34,0,0,1-.72.79A6.1,6.1,0,0,0,22,22.92a.13.13,0,0,1,.21.13,2.21,2.21,0,0,0,0,.52c.26,1.88,3,2.33,4.42,1.39a3.81,3.81,0,0,1-1-.88.13.13,0,0,1,.12-.21c.94.17,2.21,1,1.84,2.08a6.18,6.18,0,0,1-2.17,2.59,13.7,13.7,0,0,1-3.81,2.21A7.31,7.31,0,0,1,17,32.19c-1.5-.12-2.94-.68-4.45-.51a25.56,25.56,0,0,0-3.23.73,11.83,11.83,0,0,0-1.13.72,4.15,4.15,0,0,1-2.86,1c-.59-.08-1.16-.23-1.75-.32-.42-.07-1.18-.27-1.58,0l-.06.05c.49.27,1,.52,1.48.73a4.59,4.59,0,0,0,2.06.6,5.86,5.86,0,0,0,1.88-.44L11,33.27c1-.4,2.52,0,3.51.08,2,.17,4,.19,6.07.25l1.4,0A12.61,12.61,0,0,0,28.13,31a9.22,9.22,0,0,0,2.44-3.72A6.92,6.92,0,0,0,30.46,22.09Z"/><path class="cls-15" d="M9.44,32.14A6.66,6.66,0,0,0,7.13,27.3a7.86,7.86,0,0,0-4.45-2.12l-.11,0A4,4,0,0,0,.83,28a14.91,14.91,0,0,0-.31,1.75A3.26,3.26,0,0,1,.22,31a2.65,2.65,0,0,1-.21.26A2.72,2.72,0,0,0,.62,33.1a17.87,17.87,0,0,0,2.77,1.51,4.59,4.59,0,0,0,2.06.6,5.86,5.86,0,0,0,1.88-.44L9.14,34A5.18,5.18,0,0,0,9.44,32.14Z"/><path class="cls-16" d="M4.86,31.17s0-2.28-.51-2-1.18,2.2-.8,2.56A.79.79,0,0,0,4.86,31.17Z"/><path class="cls-17" d="M11.88,32A14.87,14.87,0,0,0,8.2,33.54c-1.13.49-3,2-7.53-.94,0,0,3.55,2.8,6.09,1.82,2.13-.81,3.22-1.77,4.82-2.15Z"/><path class="cls-18" d="M10.37,22.35c0-.26.47-.2.8,0,.84.44,5.93,3.62,5,3.7a3.84,3.84,0,0,1-1.82-.56,20.49,20.49,0,0,1-3.84-2.78A.68.68,0,0,1,10.37,22.35Z"/><path class="cls-19" d="M16.94,24.57a1.21,1.21,0,1,1-.28-1.69A1.22,1.22,0,0,1,16.94,24.57Z"/><path class="cls-20" d="M16.51,24.26a.67.67,0,0,1-1,.16.69.69,0,1,1,1-.16Z"/><path class="cls-21" d="M16.42,24.08a.22.22,0,1,1-.35-.25.22.22,0,0,1,.3,0A.21.21,0,0,1,16.42,24.08Z"/><path class="cls-7" d="M29.79,18.06a4.38,4.38,0,0,0-.56-3.39c-.94-1.48-2.59-1.76-4.28-1.84A8.52,8.52,0,0,0,20.4,14a21.84,21.84,0,0,0-2,1.43,8.31,8.31,0,0,1-1.13.72c-.32.17-1,.35-1.3.11a.66.66,0,0,1,.35-1.14c.09,0,.22-.14.07-.14-.35,0-.35-.12-.7,0a1.61,1.61,0,0,0-.59.41,1.79,1.79,0,0,0,.19,2.56,3.36,3.36,0,0,0,3.41.16,45.55,45.55,0,0,1,6-2.59,4.68,4.68,0,0,1,1.62-.16l.22.08a3.33,3.33,0,0,1,2,1.45,3.21,3.21,0,0,1,.31.85c.06.27,0,.53.09.77a.27.27,0,0,0,.29.14v.11s0,0,0,.05l.07,0h.09s0,0,0,0,.1,0,.11,0A5.69,5.69,0,0,0,29.79,18.06Z"/><path class="cls-22" d="M22.2,15.29C22.15,15,13.65,0,13.65,0s1.14,10.63,2.63,18A2.59,2.59,0,0,0,19,19.2,3.69,3.69,0,0,0,22.2,15.29Z"/><path class="cls-23" d="M16.12,16.76a5,5,0,0,0,4.08-4.92A4.31,4.31,0,0,1,16.12,16.76Z"/><path class="cls-23" d="M15.35,12.52a4.18,4.18,0,0,0,3.17-4A3.48,3.48,0,0,1,15.35,12.52Z"/><path class="cls-23" d="M14.74,8.2a3.26,3.26,0,0,0,2-2.61A2.33,2.33,0,0,1,14.74,8.2Z"/><path class="cls-23" d="M14.23,4.34a1.61,1.61,0,0,0,1-1.29A1.15,1.15,0,0,1,14.23,4.34Z"/><g class="cls-24"><path class="cls-22" d="M22.2,15.29C22.15,15,13.65,0,13.65,0l6.47,17.83a2,2,0,0,1,.15.94A3.56,3.56,0,0,0,22.2,15.29Z"/></g><path class="cls-25" d="M14,1.75,16.5,17.44a1.62,1.62,0,0,0,1.11,1.25Z"/><path class="cls-9" d="M24.31,21.81a3.9,3.9,0,0,1,2.53-1.24l1.72-.3a3,3,0,0,0,1-.27,1,1,0,0,0,.24-.19c.06-.17.21-.31.08-.59a1.64,1.64,0,0,0-.65-.68,2.61,2.61,0,0,0-.54-.24,3.76,3.76,0,0,0-1.52-.15,4.71,4.71,0,0,0-4.25,4.26,2.65,2.65,0,0,0,.13.82s0,0,0,0A2.37,2.37,0,0,0,25.2,24.5,1.84,1.84,0,0,1,24.31,21.81Z"/><path class="cls-10" d="M28.75,15s0,0,0,0a5,5,0,0,0-4.39-1.58,9.39,9.39,0,0,0-4.41,1.94,24.8,24.8,0,0,0-2.07,1.77,8.8,8.8,0,0,1-.73.57,4.09,4.09,0,0,1-2.07,1c-.81.11-2-.43-2.11-1.22-.63.75-.16,1.63.58,2.23a.24.24,0,0,0,.19,0,2.1,2.1,0,0,0,.43.41,3.23,3.23,0,0,0,1.35.45,10.85,10.85,0,0,0,4-.32,31.2,31.2,0,0,0,4.24-1.35c.68-.27,1.37-.51,2.09-.72a2.63,2.63,0,0,1,2.39.25.32.32,0,0,0,.24,0h0c-.05.14.2.08.25,0A2.77,2.77,0,0,0,28.75,15Z"/><path class="cls-4" d="M28.4,19.13a1.52,1.52,0,0,1,.44.15l0,0a.26.26,0,0,0,.12-.17,4.18,4.18,0,0,0,.14-1.32,5.06,5.06,0,0,0-.55-1.32,3.23,3.23,0,0,0-1.4-1.36,7.29,7.29,0,0,0-6.84.74,27.42,27.42,0,0,0-2.73,1.93,5.35,5.35,0,0,1-2.5,1.34,1.78,1.78,0,0,1-2.18-1.63l0,0A2.69,2.69,0,0,0,13,21.15a4.86,4.86,0,0,0,4.23,1.41,16.15,16.15,0,0,0,5.34-1.39,25.06,25.06,0,0,0,2.75-1.58A4.77,4.77,0,0,1,27,19,3.46,3.46,0,0,1,28.4,19.13Z"/><path class="cls-7" d="M28.4,19.13l.19,0a3.78,3.78,0,0,0-2.92-3.5,7,7,0,0,0-5.15,1.16c-.74.45-1.47.94-2.2,1.41a6.22,6.22,0,0,1-2.41,1.06,2.8,2.8,0,0,1-2.34-.54l-.15-.16a1.48,1.48,0,0,1-.5-1.14l0,0A2.69,2.69,0,0,0,13,21.15a4.86,4.86,0,0,0,4.23,1.41,16.15,16.15,0,0,0,5.34-1.39,25.06,25.06,0,0,0,2.75-1.58A4.77,4.77,0,0,1,27,19,3.46,3.46,0,0,1,28.4,19.13Z"/><path class="cls-8" d="M26.07,16.66c-2-.46-3.94.5-5.63,1.37-1.51.79-3.12,1.93-4.9,1.95a2.77,2.77,0,0,1-2.81-2.32A2.74,2.74,0,0,0,13,21.15a4.86,4.86,0,0,0,4.23,1.41,16.15,16.15,0,0,0,5.34-1.39,25.06,25.06,0,0,0,2.75-1.58A4.77,4.77,0,0,1,27,19a3.46,3.46,0,0,1,1.4.13l.19,0v-.09A3.59,3.59,0,0,0,26.07,16.66Z"/><path class="cls-9" d="M28.4,19.13l.18,0a2.25,2.25,0,0,0-.39-.88,3.64,3.64,0,0,0-3-1.24c-2.09.06-3.61,1.31-5.29,2.34-1.45.88-3.13,1.59-4.86,1a3,3,0,0,1-1.85-1.35,2.47,2.47,0,0,1-.25-1.28,3,3,0,0,1,0-.31l0,0A2.69,2.69,0,0,0,13,21.15a4.86,4.86,0,0,0,4.23,1.41,16.15,16.15,0,0,0,5.34-1.39,25.06,25.06,0,0,0,2.75-1.58A4.77,4.77,0,0,1,27,19,3.46,3.46,0,0,1,28.4,19.13Z"/><path class="cls-11" d="M27.42,18.17a4,4,0,0,0-2.5.17c-1.92.69-3.48,2-5.35,2.79a7,7,0,0,1-5.21.3,3,3,0,0,1-1.5-3.92A2.7,2.7,0,0,0,13,21.15a4.86,4.86,0,0,0,4.23,1.41,16.15,16.15,0,0,0,5.34-1.39,25.06,25.06,0,0,0,2.75-1.58A4.77,4.77,0,0,1,27,19a4.37,4.37,0,0,1,1.33.08A1.2,1.2,0,0,0,27.42,18.17Z"/><path class="cls-8" d="M29.72,20.14s0,0,0,0h0l0,0c.24-.45.4-.64.14-1.15a2.69,2.69,0,0,0-1.43-1.31,5.41,5.41,0,0,0-3.88.25,5.05,5.05,0,0,0-1.58,1,10.13,10.13,0,0,0-1.26,1.72c-.92,1.43-2.9,3.05-4.7,2-.07,0-.26.05-.19.11a2.54,2.54,0,0,0,1,.6,4.53,4.53,0,0,0,1.6.18,4.89,4.89,0,0,0,2.64-1.32L23.48,21a9.61,9.61,0,0,1,1.7-1.12c1-.56,3.53-.86,4.24.37a.13.13,0,0,0,0,.05C29.52,20.31,29.79,20.26,29.72,20.14Z"/><path class="cls-6" d="M5.1,24.7c-1.82.42-3.07.88-3.84,2.66-.38.89-.29,2.09-.65,3,0,0,0,0,0,0v0a4.46,4.46,0,0,1-.43.76.28.28,0,0,0,0,.09L1,30.43A9,9,0,0,0,1.09,29,4.49,4.49,0,0,1,2.5,26a8.45,8.45,0,0,1,2.57-1.08C5.14,24.85,5.24,24.67,5.1,24.7Z"/></g></g></g></svg>