<svg xmlns="http://www.w3.org/2000/svg" xmlns:xlink="http://www.w3.org/1999/xlink" viewBox="0 0 105.03 100"><defs><style>.cls-1{mask:url(#mask);filter:url(#luminosity-noclip-2);}.cls-2,.cls-22,.cls-38,.cls-39,.cls-45,.cls-47,.cls-48,.cls-49,.cls-5,.cls-53,.cls-55,.cls-56,.cls-57,.cls-62,.cls-65,.cls-69{mix-blend-mode:multiply;}.cls-2{fill:url(#linear-gradient);}.cls-3{isolation:isolate;}.cls-4,.cls-5{fill:#1c1438;}.cls-6,.cls-9{fill:#29214f;}.cls-7{fill:#0e0321;}.cls-8{fill:#67b545;}.cls-31,.cls-51,.cls-9{mix-blend-mode:screen;}.cls-10{fill:#d7e59f;}.cls-11{fill:#296824;}.cls-12{fill:#92c430;}.cls-13{fill:#2c6f27;}.cls-14{fill:#d0d2d3;}.cls-15{fill:#fff;}.cls-16{fill:#135236;}.cls-17{fill:#061c0e;}.cls-18{fill:#1d714b;}.cls-19{fill:#8f4717;}.cls-20{fill:#a5521f;}.cls-21,.cls-22{fill:#65300b;}.cls-22,.cls-45,.cls-55{opacity:0.4;}.cls-23{fill:#48a0a7;}.cls-24{fill:#265c60;}.cls-25{fill:#eb6721;}.cls-26{mask:url(#mask-2);}.cls-27{fill:url(#linear-gradient-2);}.cls-28{fill:#f6f9f0;}.cls-29{fill:#442815;}.cls-30{fill:#170600;}.cls-31{fill:#1a1718;}.cls-32,.cls-45,.cls-48,.cls-49,.cls-54{fill:#6c768a;}.cls-33{fill:#7f97b6;}.cls-34{fill:#4a5582;}.cls-35{fill:#505867;}.cls-36{fill:#7c3e14;}.cls-37,.cls-38{fill:#ab742f;}.cls-38,.cls-39{opacity:0.6;}.cls-40{fill:#361900;}.cls-41{fill:#4b3f2f;}.cls-42{fill:#6a5743;}.cls-43{fill:#ca292e;mix-blend-mode:color-dodge;}.cls-44{fill:#061d2d;}.cls-46,.cls-55,.cls-56,.cls-57{fill:#f8c49f;}.cls-47{fill:#f7c6b6;}.cls-48,.cls-69{opacity:0.3;}.cls-50,.cls-51{fill:#cddde0;}.cls-51,.cls-54,.cls-56{opacity:0.5;}.cls-52{fill:#7d869f;}.cls-58,.cls-62{fill:#565757;}.cls-59{fill:#382625;}.cls-60{fill:#cf8ba3;}.cls-61{fill:#cc6680;}.cls-63{fill:#424343;}.cls-64,.cls-65{fill:#d0857e;}.cls-66,.cls-69{fill:#176e89;}.cls-67{fill:#104f6f;}.cls-68{fill:#0c3d57;}.cls-70{fill:#71338b;}.cls-71{filter:url(#luminosity-noclip);}</style><filter id="luminosity-noclip" x="-5308.41" y="-8462" width="35.36" height="32766" filterUnits="userSpaceOnUse" color-interpolation-filters="sRGB"><feFlood flood-color="#fff" result="bg"/><feBlend in="SourceGraphic" in2="bg"/></filter><mask id="mask" x="-5308.41" y="-8462" width="35.36" height="32766" maskUnits="userSpaceOnUse"><g class="cls-71"/></mask><linearGradient id="linear-gradient" x1="-5290.73" y1="2774.92" x2="-5290.73" y2="2727.22" gradientUnits="userSpaceOnUse"><stop offset="0"/><stop offset="0.05" stop-color="#323232"/><stop offset="0.13" stop-color="#6c6c6c"/><stop offset="0.2" stop-color="#9d9d9d"/><stop offset="0.26" stop-color="#c3c3c3"/><stop offset="0.32" stop-color="#dfdfdf"/><stop offset="0.37" stop-color="#efefef"/><stop offset="0.41" stop-color="#f5f5f5"/><stop offset="0.95" stop-color="#fefefe"/><stop offset="1" stop-color="#fff"/></linearGradient><filter id="luminosity-noclip-2" x="-5308.41" y="0" width="5356.29" height="2774.92" filterUnits="userSpaceOnUse" color-interpolation-filters="sRGB"><feFlood flood-color="#fff" result="bg"/><feBlend in="SourceGraphic" in2="bg"/></filter><mask id="mask-2" x="-5308.41" y="0" width="5356.29" height="2774.92" maskUnits="userSpaceOnUse"><g class="cls-1"><path class="cls-2" d="M-5279.52,2758.33c-.23-.17-.46-.35-.7-.51a5.4,5.4,0,0,0-1,.08,5,5,0,0,1-2.31,0l-.77-1s0,0,0,0v-.06c.24-.17.48-.33.73-.48l1.46-.86.44-.26c1.1.14,2.18.35,3.27.52l.27,0a16.15,16.15,0,0,0,5.12-4.16,2.22,2.22,0,0,1-.17-.24l-.13-.26c-1-1.12-2.13-2.16-3.17-3.24a9.83,9.83,0,0,0-3-.09,3,3,0,0,0-.51,0,3.28,3.28,0,0,0-2.09,1,2,2,0,0,0-.41,2.22,1.25,1.25,0,0,0,1.83.36.27.27,0,0,0-.05-.45,3.14,3.14,0,0,0-.57-.24c-.46-.17-.1-.88.16-1a2.14,2.14,0,0,1,.69-.26,2.78,2.78,0,0,1,.91,0,17.13,17.13,0,0,1,.89,2.22l-.79.6-.55.39a8,8,0,0,1-1.24.1,11.26,11.26,0,0,1-2.17-.14c-.22,0-.43-.09-.64-.15-.49-.5-1-1-1.44-1.53s-.9-1-1.34-1.48c.24-.9.51-1.8.76-2.7l.15-.13c.48-.14,1-.28,1.44-.4.77-.21,1.54-.4,2.31-.59.49-.12,1-.12,1.55-.26.1,0,.2,0,.3-.09l.2-.15.21-.18a12.82,12.82,0,0,0,1.35-1.18h0a21.05,21.05,0,0,0-.46-4.12,14.32,14.32,0,0,0-3.05-1.88c-.3.09-.61.19-.9.31a5.46,5.46,0,0,0-.39,1.49,8.45,8.45,0,0,0,.66-1,.09.09,0,0,1,.15,0,4.49,4.49,0,0,1,1,1.3c.38.77-.46,1.72-.92,2.24a1.48,1.48,0,0,1-.95.54l-.36-.09c-.58-.15-1.16-.28-1.74-.4s-1.27-.31-1.91-.45l-.15-1.08-.18-1.17a1.61,1.61,0,0,1,.31-.39c.55-.5,1.05-1,1.59-1.54a8.61,8.61,0,0,0,.95-1l.63-.48c.27-.22.52-.47.8-.67a1,1,0,0,0,.33-.33c.2-.43-.14-1.1-.26-1.52-.19-.71-.43-1.4-.65-2.1-.11-.35-.22-.7-.32-1.05a4.79,4.79,0,0,0-.24-.92c0-.07-.38-.15-.45-.17-.33-.08-.65-.21-1-.31-.71-.25-1.41-.51-2.13-.75a20.36,20.36,0,0,0-4.22-.91c-.23,0-.59-.11-.73.16s-.2.52-.34.77l-.28.54a4.15,4.15,0,0,0-.73,1.33,3.57,3.57,0,0,0-.25,1.25,1,1,0,0,0,.11.57,3,3,0,0,0,.94,1.27,1.46,1.46,0,0,0,.61.34,1.4,1.4,0,0,0,1.72-.59,1.63,1.63,0,0,0,.31-1.12c-.13-.44-.58-.35-.94-.44a.4.4,0,0,0-.28,0c.14.2.36.36.52.55a.1.1,0,0,1-.05.16c-.23.07-.46.19-.69.28a.08.08,0,0,1-.1,0,2.14,2.14,0,0,1-.32-1c0-.3.18-.4.4-.35a3,3,0,0,1,.74,0,1.71,1.71,0,0,1,1.63,1,4.32,4.32,0,0,1,.27,1.85c-.05.81-1.31,1.1-1.93,1.26a23.76,23.76,0,0,1-3.94.62,15.16,15.16,0,0,0-1.65.2l-.18,0c-.56.81-1.16,1.61-1.72,2.42-.25.39-.51.78-.75,1.18l.76.54c.77.55,1.64.93,2.46,1.42a4.82,4.82,0,0,1,1.48,1.14c.05.53.11,1,.15,1.56s.07,1,.1,1.5c-.54.3-1.76.92-2.06,1.08s-2.71-.88-2.7-.93a2.5,2.5,0,0,1,1.42-2,1,1,0,0,1,1,.27c.07-.36,0-.77-.39-.84a2.77,2.77,0,0,0-2.44,1,4.3,4.3,0,0,0-1,2.59v.12a24.7,24.7,0,0,0,1.84,1.85h0a23.46,23.46,0,0,0,2.5.34l.22,0a2.92,2.92,0,0,1,.32.44,1.36,1.36,0,0,1-.48,1.66c-1.36,1.23-3.66-.19-5.5-.44-.62.53-1.19,1.13-1.75,1.7-.81.83-1.62,1.66-2.44,2.48-.63.63-1.26,1.26-1.86,1.91a14.49,14.49,0,0,0,.71,1.35c.54.93,1.05,1.88,1.65,2.77.31.45.63.88,1,1.3l0,0h0c.1.29.25.62.57.55a16.9,16.9,0,0,0,2-.74c.65-.25,1.32-.49,2-.73a4.37,4.37,0,0,0,.5-.09c.4-.12.71.32,1,.57s.45.46.29.81c-.06.13-.19.28-.26.42a.34.34,0,0,1-.12.12h0a.11.11,0,0,0-.1,0c-.19,0-.38-.27-.45-.39s.06-.59.15-.83a.06.06,0,0,0-.07-.08,1.83,1.83,0,0,0-.94.84,1.28,1.28,0,0,0,.06,1.17c.2.49.5.55,1,.54a6.24,6.24,0,0,0,1.83,0,3,3,0,0,0,1.41-1.45,1.82,1.82,0,0,0-.16-1.69,5.85,5.85,0,0,0-.76-1h0s.08-.07.07-.11a4.78,4.78,0,0,1,1.25-.05c.29.48.55,1,.81,1.48s.59,1,.85,1.47l0,.06a13.08,13.08,0,0,0-1.24.74c-.76.54-1.62,1-2.35,1.58l-1.07.9c-.13.12-.43.32-.45.53a4.07,4.07,0,0,0,.09.84,16.56,16.56,0,0,0,.25,2.71h0a2.32,2.32,0,0,0,.78.44c.77.42,1.63.7,2.42,1.1.24.13.56.43.84.45s.3-.18.38-.28c.45-.49,1.23-1,1.48-1.62a.05.05,0,0,0-.06-.07,3.56,3.56,0,0,0-1.14.64c-.07.06-.45.42-.54.24a1.38,1.38,0,0,1-.12-.34c-.05-.21-.12-.42-.18-.62l.55-.38c.73-.49,1.47-1,2.24-1.39s1.37-.71,2.06-1h0a.89.89,0,0,0,.24.18c.34.22.69.4,1,.64s1.65,1.09.88,1.61c-.24.17-.46.39-.7.57s-.58.38-.86.6a3.94,3.94,0,0,0-.72.55,9.79,9.79,0,0,0,2.43,1.66.09.09,0,0,1,0,.11,12,12,0,0,1-.29,1.32c.27,0,.56-.44.71-.58.32-.3.7-.51,1-.83.12-.11.35-.2.37-.39.07-.57-.68-1-1.08-1.29l-.05,0,.31-.14c.73-.33,1.5-.59,2.25-.88.36-.14.71-.28,1.06-.45a1.29,1.29,0,0,0,.39-.23.15.15,0,0,0,0-.19,6.6,6.6,0,0,1-.35-1c-.2-.73-.48-1.45-.75-2.16s-.44-1.46-.74-2.17l0-.06a18.45,18.45,0,0,1,1.57-1l.79-.44,0,0c.55.25,1.12.47,1.68.69l1.34.49a1.57,1.57,0,0,1,.4.45,2.15,2.15,0,0,1,0,2l-.12.11-.16,0-.9.16a1,1,0,0,1-.56-.53.61.61,0,0,1,0-.6,3.25,3.25,0,0,1,.82.07c.06,0,.12,0,.15-.06.2-.22.07-.54,0-.77s-.56-.35-.89-.28h0a.67.67,0,0,0-.28.06,7.29,7.29,0,0,0-.94.28c-.31.11-.43.66-.53.93a6.66,6.66,0,0,0-.44,1.42c0,.42.57.75.86,1a15,15,0,0,1,1.24,1.16,32.78,32.78,0,0,0,6.09-3.14c.08-.42.17-.84.26-1.26.21-1,.47-1.93.69-2.91-1.07-.84-2.18-1.64-3.29-2.43C-5278,2759.41-5278.77,2758.88-5279.52,2758.33Z"/></g></mask><linearGradient id="linear-gradient-2" x1="23.94" y1="64.58" x2="23.94" gradientUnits="userSpaceOnUse"><stop offset="0" stop-color="#fff"/><stop offset="0.01" stop-color="#fafbfd"/><stop offset="0.11" stop-color="#cadbe9"/><stop offset="0.2" stop-color="#a4c1d9"/><stop offset="0.28" stop-color="#88afcd"/><stop offset="0.36" stop-color="#78a4c6"/><stop offset="0.41" stop-color="#72a0c4"/><stop offset="0.51" stop-color="#7297be"/><stop offset="0.66" stop-color="#747faf"/><stop offset="0.84" stop-color="#755795"/><stop offset="1" stop-color="#77317d"/></linearGradient></defs><g class="cls-3"><g id="Слой_2" data-name="Слой 2"><g id="Layer_1" data-name="Layer 1"><path class="cls-4" d="M45.16,62h-37S3.91,69.46,5.52,77.63C7,85.06,13.67,90.25,24.89,90.87c0,0,1.18.07,1.76.06s1.76-.06,1.76-.06c11.22-.62,17.92-5.81,19.38-13.24C49.39,69.46,45.16,62,45.16,62Z"/><path class="cls-5" d="M10.62,66.45c1.3.29,2.6.6,3.91.83a46.47,46.47,0,0,0,4.85.57,91.8,91.8,0,0,0,14.07-.21,67.72,67.72,0,0,0,7.08-1c1.33-.26,2.63-.63,3.94-.08,1.83.77,2.87,2.65,3.51,4.49A26.66,26.66,0,0,0,45.16,62h-37a22.17,22.17,0,0,0-1.37,3.12A12.56,12.56,0,0,0,10.62,66.45Z"/><path class="cls-6" d="M47.08,62.39c0,2-9.39,4.15-21,4.15s-21-2.16-21-4.15,9.4-3.59,21-3.59S47.08,60.41,47.08,62.39Z"/><path class="cls-7" d="M43.26,61.76c0,1.14-7.58,2.07-16.94,2.07S9.38,62.9,9.38,61.76,17,59.67,26.32,59.67,43.26,60.6,43.26,61.76Z"/><path class="cls-8" d="M42.07,62.52c-2.48-.77-8.6-1.31-15.75-1.31s-13.26.54-15.75,1.31c2.49.77,8.6,1.31,15.75,1.31S39.59,63.29,42.07,62.52Z"/><path class="cls-6" d="M9.14,69.78a5.51,5.51,0,0,0-1.3,1.54,11.22,11.22,0,0,0-1.27,5A9.47,9.47,0,0,0,7.83,81a14.8,14.8,0,0,0,7.35,6.57A20.11,20.11,0,0,0,26.37,89c3.33-.64,5.95-2.89,5.88-6.51a10.72,10.72,0,0,0-2.76-6.75,17.85,17.85,0,0,0-3.25-2.89A21.12,21.12,0,0,0,22.9,71C19.29,69.47,12.7,66.89,9.14,69.78Z"/><path class="cls-9" d="M5.52,62.4S6.64,66.58,31.94,66C31.94,66,11.89,66.49,5.52,62.4Z"/><path class="cls-10" d="M19.82,62.47c0,.29-.59.52-1.33.52s-1.33-.23-1.33-.52.6-.53,1.33-.53S19.82,62.17,19.82,62.47Z"/><path class="cls-10" d="M35.62,62.5c0,.15-.31.27-.69.27s-.68-.12-.68-.27.3-.28.68-.28S35.62,62.35,35.62,62.5Z"/><ellipse class="cls-10" cx="23.67" cy="63.28" rx="0.69" ry="0.27"/><path class="cls-10" d="M13.85,62.35c0,.12-.25.21-.55.21s-.54-.09-.54-.21.24-.21.54-.21S13.85,62.23,13.85,62.35Z"/><path class="cls-11" d="M29.36,62.38c0,.16-.33.29-.74.29s-.73-.13-.73-.29.32-.3.73-.3S29.36,62.21,29.36,62.38Z"/><path class="cls-11" d="M16.57,62.74c0,.13-.26.23-.59.23s-.59-.1-.59-.23.26-.23.59-.23S16.57,62.61,16.57,62.74Z"/><path class="cls-11" d="M37.86,62.74c0,.13-.26.23-.59.23s-.59-.1-.59-.23.27-.23.59-.23S37.86,62.61,37.86,62.74Z"/><path class="cls-11" d="M33.75,62.48c0,.29-.58.51-1.29.51s-1.28-.22-1.28-.51.57-.51,1.28-.51S33.75,62.2,33.75,62.48Z"/><path class="cls-12" d="M32.7,62.45c0,.14-.29.25-.65.25s-.64-.11-.64-.25.29-.26.64-.26S32.7,62.31,32.7,62.45Z"/><path class="cls-13" d="M22.34,61.1A1.1,1.1,0,1,1,21.25,60,1.09,1.09,0,0,1,22.34,61.1Z"/><path class="cls-12" d="M22.06,61a.9.9,0,1,1-.9-.89A.9.9,0,0,1,22.06,61Z"/><path class="cls-10" d="M21.47,60.87a.5.5,0,0,1-.5.51.51.51,0,0,1-.51-.51.5.5,0,0,1,.51-.5A.5.5,0,0,1,21.47,60.87Z"/><path class="cls-13" d="M32.53,58.8a1.1,1.1,0,1,1-1.1-1.1A1.09,1.09,0,0,1,32.53,58.8Z"/><path class="cls-12" d="M32.25,58.71a.9.9,0,1,1-.9-.9A.9.9,0,0,1,32.25,58.71Z"/><path class="cls-10" d="M31.66,58.57a.51.51,0,0,1-.51.51.5.5,0,0,1-.5-.51.5.5,0,0,1,.5-.5A.5.5,0,0,1,31.66,58.57Z"/><path class="cls-13" d="M26.18,61.43a.81.81,0,1,1-.81-.81A.8.8,0,0,1,26.18,61.43Z"/><path class="cls-12" d="M26,61.36a.66.66,0,1,1-.66-.65A.65.65,0,0,1,26,61.36Z"/><path class="cls-10" d="M25.54,61.26a.37.37,0,0,1-.37.37.36.36,0,0,1-.37-.37.37.37,0,0,1,.37-.37A.38.38,0,0,1,25.54,61.26Z"/><path class="cls-14" d="M37.45,61.71a1,1,0,1,1-1.05-1.05A1,1,0,0,1,37.45,61.71Z"/><path class="cls-15" d="M37.1,61.56a.78.78,0,1,1-.78-.78A.77.77,0,0,1,37.1,61.56Z"/><path class="cls-16" d="M37,61.72a.55.55,0,0,1-1.09,0,.55.55,0,1,1,1.09,0Z"/><circle class="cls-17" cx="36.4" cy="61.72" r="0.28"/><path class="cls-18" d="M36.36,61.58a.18.18,0,0,1-.17.17.17.17,0,0,1-.17-.17.16.16,0,0,1,.17-.17A.17.17,0,0,1,36.36,61.58Z"/><path class="cls-14" d="M29.24,62a.67.67,0,1,1-.67-.67A.67.67,0,0,1,29.24,62Z"/><path class="cls-15" d="M29,61.86a.51.51,0,1,1-.5-.5A.5.5,0,0,1,29,61.86Z"/><path class="cls-16" d="M28.92,62a.36.36,0,0,1-.71,0,.36.36,0,0,1,.71,0Z"/><path class="cls-17" d="M28.75,62a.18.18,0,0,1-.36,0,.18.18,0,1,1,.36,0Z"/><path class="cls-18" d="M28.54,61.87a.11.11,0,1,1-.11-.11A.11.11,0,0,1,28.54,61.87Z"/><path class="cls-14" d="M17.22,61.71a1,1,0,1,1-1-1.05A1,1,0,0,1,17.22,61.71Z"/><path class="cls-15" d="M16.87,61.57a.78.78,0,1,1-.78-.78A.78.78,0,0,1,16.87,61.57Z"/><path class="cls-16" d="M16.72,61.72a.55.55,0,0,1-.55.55.55.55,0,0,1-.54-.55.54.54,0,0,1,.54-.54A.55.55,0,0,1,16.72,61.72Z"/><path class="cls-17" d="M16.46,61.72a.29.29,0,1,1-.57,0,.29.29,0,0,1,.57,0Z"/><path class="cls-18" d="M16.13,61.58a.18.18,0,0,1-.17.18.17.17,0,0,1-.17-.18.17.17,0,0,1,.17-.17A.18.18,0,0,1,16.13,61.58Z"/><path class="cls-19" d="M20.41,89.4c0-.57-.53-.87-1.07-1a.35.35,0,0,0-.05-.18l-1,0c-1,0-1.94,0-2.9,0-1.66.08-3.33.16-5,.34a27.65,27.65,0,0,0-4.51.79A9.63,9.63,0,0,0,3.81,90a2.5,2.5,0,0,0-.92,1.78A6.07,6.07,0,0,0,2.8,93,4.21,4.21,0,0,0,4.23,94.3a12.73,12.73,0,0,0,2.64,1.08,17.57,17.57,0,0,0,2.58-.48c1.75-.43,3.49-.91,5.2-1.46A17.78,17.78,0,0,0,19,91.56,2.72,2.72,0,0,0,20.41,89.4Z"/><path class="cls-20" d="M3.88,92.91c.19-.44.7-.93,1.16-.48a3.77,3.77,0,0,1,.83,2,6.49,6.49,0,0,1,.09.67l.26.09c0-.39,0-.79,0-.9a3.61,3.61,0,0,0-.58-2.06,1.12,1.12,0,0,0-1.09-.45,1.33,1.33,0,0,0-.71.63,2.56,2.56,0,0,0-.35,1.34l.19.16A2.82,2.82,0,0,1,3.88,92.91Z"/><path class="cls-20" d="M4.63,93.84c.19.11.24.41.27.6l0,.21.26.12a2.5,2.5,0,0,1,0-.25,2.3,2.3,0,0,0-.36-1.18c-.48-.56-.76.22-.83.8l.11.07C4.16,93.91,4.3,93.66,4.63,93.84Z"/><path class="cls-20" d="M7,93.65a4.4,4.4,0,0,0-1-2.6,1.66,1.66,0,0,0-2.5,0,3.75,3.75,0,0,0-.61,2l.15.19c.19-1.16.55-2.81,1.91-2.51a2.44,2.44,0,0,1,1.63,2.33,20.75,20.75,0,0,1,.13,2.09v.1l.15,0,.17,0A9.78,9.78,0,0,0,7,93.65Z"/><path class="cls-21" d="M20.41,89.4c0-.57-.53-.87-1.07-1a.35.35,0,0,0-.05-.18l-1,0c-1,0-1.94,0-2.9,0-1.66.08-3.33.16-5,.34a25.67,25.67,0,0,0-6.12,1.29,2.53,2.53,0,0,1,2.26,1.09,5.44,5.44,0,0,1,.7,4.43,20.49,20.49,0,0,0,2.18-.44c1.75-.43,3.49-.91,5.2-1.46A17.78,17.78,0,0,0,19,91.56,2.72,2.72,0,0,0,20.41,89.4Z"/><path class="cls-22" d="M20.4,89.29a4.9,4.9,0,0,1-1.95,1.32,19.84,19.84,0,0,1-2.48.9c-.74.21-1.48.43-2.23.6s-1.75.32-2.64.44a3.51,3.51,0,0,1-2.22-.21c-.58-.35-.76-1-1.17-1.52a2.6,2.6,0,0,0-2.3-1.06,5,5,0,0,0-.54.07,2.68,2.68,0,0,1,1.7,1.08,5.44,5.44,0,0,1,.7,4.43,20.49,20.49,0,0,0,2.18-.44c1.75-.43,3.49-.91,5.2-1.46A17.78,17.78,0,0,0,19,91.56a2.72,2.72,0,0,0,1.45-2.16A.45.45,0,0,0,20.4,89.29Z"/><path class="cls-20" d="M16.16,88.43a46.91,46.91,0,0,0-9.63.94,4.85,4.85,0,0,1,.88.33,4.42,4.42,0,0,1,.85.55c1.37.48,7.36-1.12,8.16-1.42S16.16,88.43,16.16,88.43Z"/><path class="cls-19" d="M31.87,89.78c-.05-.57.42-.93.93-1.17a.32.32,0,0,1,0-.19l1-.14c1-.13,1.92-.24,2.88-.31,1.66-.14,3.33-.26,5-.29a26.82,26.82,0,0,1,4.57.23,10,10,0,0,1,2.18.42A2.51,2.51,0,0,1,49.54,90a5.88,5.88,0,0,1,.24,1.18,4.1,4.1,0,0,1-1.27,1.48A12,12,0,0,1,46,94a17.1,17.1,0,0,1-2.61-.16q-2.69-.31-5.34-.81a17.54,17.54,0,0,1-4.5-1.33A2.74,2.74,0,0,1,31.87,89.78Z"/><path class="cls-20" d="M48.7,91.22c-.25-.41-.81-.83-1.21-.33A3.82,3.82,0,0,0,46.91,93c0,.17,0,.42,0,.68l-.25.12c0-.38-.06-.78-.07-.89a3.57,3.57,0,0,1,.33-2.12,1.11,1.11,0,0,1,1-.58,1.3,1.3,0,0,1,.78.54A2.54,2.54,0,0,1,49.22,92c0,.07-.11.12-.16.19A2.94,2.94,0,0,0,48.7,91.22Z"/><path class="cls-20" d="M48.07,92.24c-.18.13-.19.43-.2.63v.2l-.24.16a2.35,2.35,0,0,1,0-.26,2.29,2.29,0,0,1,.21-1.21c.41-.61.77.13.91.7l-.09.07C48.54,92.25,48.37,92,48.07,92.24Z"/><path class="cls-20" d="M45.71,92.34a4.47,4.47,0,0,1,.65-2.7,1.65,1.65,0,0,1,2.48-.26,3.65,3.65,0,0,1,.85,1.94,2.25,2.25,0,0,1-.12.21c-.33-1.14-.89-2.72-2.2-2.25A2.41,2.41,0,0,0,46,91.78a20.75,20.75,0,0,0,.13,2.09.34.34,0,0,0,0,.1L46,94h-.17A9.68,9.68,0,0,1,45.71,92.34Z"/><path class="cls-21" d="M31.87,89.78c-.05-.57.42-.93.93-1.17a.32.32,0,0,1,0-.19l1-.14c1-.13,1.92-.24,2.88-.31,1.66-.14,3.33-.26,5-.29a26,26,0,0,1,6.23.53,2.53,2.53,0,0,0-2.11,1.36,5.46,5.46,0,0,0-.14,4.48,19.6,19.6,0,0,1-2.22-.17q-2.69-.31-5.34-.81a17.54,17.54,0,0,1-4.5-1.33A2.74,2.74,0,0,1,31.87,89.78Z"/><path class="cls-22" d="M31.87,89.66A5,5,0,0,0,34,90.73a17.5,17.5,0,0,0,2.58.58c.76.12,1.51.25,2.28.33a26.49,26.49,0,0,0,2.67.11,3.52,3.52,0,0,0,2.18-.48c.53-.42.63-1.1,1-1.65a2.6,2.6,0,0,1,2.15-1.33,4.86,4.86,0,0,1,.54,0,2.72,2.72,0,0,0-1.55,1.28,5.46,5.46,0,0,0-.14,4.48,19.6,19.6,0,0,1-2.22-.17q-2.69-.31-5.34-.81a17.54,17.54,0,0,1-4.5-1.33,2.74,2.74,0,0,1-1.71-2Z"/><path class="cls-20" d="M36,88.28A47.14,47.14,0,0,1,45.63,88a6.47,6.47,0,0,0-.83.43,4,4,0,0,0-.77.65c-1.31.64-7.44-.21-8.27-.4S36,88.28,36,88.28Z"/><path class="cls-23" d="M46.29,79.58s0-.06,0-.09a.21.21,0,0,1,0-.06,10.24,10.24,0,0,0-1.63-1.91,8.39,8.39,0,0,1-1.78-2.07,2.31,2.31,0,0,1-.25-1.34,2.48,2.48,0,0,0-.48,1.31c0,.12.1.23.16.35.73,1.34,1.06,2.88.09,4.19-.74,1-2.31,1.34-3.44,1.81a4,4,0,0,0,0-.59,3.75,3.75,0,0,0-.8-1.56,8.71,8.71,0,0,1-.92-1.06c-.25,1.55-.48,3.18-1.8,4.2A7.32,7.32,0,0,1,30.77,84a10.73,10.73,0,0,0-3.81.62A6.22,6.22,0,0,0,28.49,83a2.54,2.54,0,0,0,.2-1.67c0-.15-.05-.32-.08-.5a2.7,2.7,0,0,0-.54-.83,1.52,1.52,0,0,1,.1.67,1.29,1.29,0,0,1-.7,1,5.1,5.1,0,0,1-1.76.6,9.42,9.42,0,0,0-2.08.63,3.66,3.66,0,0,0-.47.3,4.19,4.19,0,0,0-1.72-2.24,8.09,8.09,0,0,0-1.47-.8L19.44,80a6,6,0,0,1-2.54-1.26c-1.1-1.13-.5-2.55.49-3.53a5,5,0,0,0-2.22,1.7A4,4,0,0,0,14,79.69c.16,1,1.05,1.5,1.86,2l.12,0a7.83,7.83,0,0,1,.92.45c.48.3.9.75.51,1.31,0,0-.11.06-.13,0-.64-1.29-2-1-3.16-.62-.58.2-1.14.44-1.72.64a2.9,2.9,0,0,1-1.3.22c-2.19-.37-.74-2.61-1.06-4.09a1.55,1.55,0,0,0-.18.64,9.68,9.68,0,0,1-.95,1.1,7.62,7.62,0,0,0-1,1.31,1.86,1.86,0,0,0,.24,2.45,5.41,5.41,0,0,0,2.87.84c.48.06,1,.08,1.46.16a3.84,3.84,0,0,0,.35.18A2.11,2.11,0,0,1,14,87.61a3.25,3.25,0,0,0,.78,1.56,8.17,8.17,0,0,0,2.54,1,29.6,29.6,0,0,0,4.2.54,55.41,55.41,0,0,0,6.57.21,33.54,33.54,0,0,0,6.69-.9,13.66,13.66,0,0,0,3-1.06A4.74,4.74,0,0,0,39.06,88,3.61,3.61,0,0,0,39.69,87a3.61,3.61,0,0,1,1.56-1.84c.16-.09.32-.18.49-.26l.38-.17c.49-.21,1-.41,1.48-.66a6.8,6.8,0,0,0,1.75-1.2,5,5,0,0,0,.75-1.31A3.63,3.63,0,0,0,46.29,79.58Z"/><path class="cls-24" d="M44.94,78.61c-.52-.7-1.17-1.28-1.68-2a3,3,0,0,1-.21-.33,6.07,6.07,0,0,0,.4,1.28h0a12.19,12.19,0,0,1,1,1.6,3.06,3.06,0,0,1,.33,1.25A3.4,3.4,0,0,1,42.64,83a22.75,22.75,0,0,1-3.49,1.18,7.33,7.33,0,0,0-2.87,1.29A5.37,5.37,0,0,1,37.37,84c.65-.7,1.24-1.54.58-2.46a2.87,2.87,0,0,0-.29-.31,1.89,1.89,0,0,1,.05.23c.53,2.5-2.62,3.58-4.49,4a26.78,26.78,0,0,1-3.45.49c-3.47.37-4,2.08-4.07,2a4.67,4.67,0,0,1,1.14-4.89,9.48,9.48,0,0,0-2.43,1.08,10,10,0,0,0-2,3,4.22,4.22,0,0,0-.34-3.74,7.15,7.15,0,0,0-3-2.33,6.64,6.64,0,0,1-2.77-2.17,2.81,2.81,0,0,1-.41-1.78,3,3,0,0,0-.67,2.38A3.15,3.15,0,0,0,17,81.66a4,4,0,0,1,1.86,1.79c.33.85-.53,2.42-.53,2.37-.33-2.38-4-1.78-5.62-1.57-1,.12-2.25.16-2.79-.84a2.88,2.88,0,0,1-.28-1.64,3.75,3.75,0,0,0-.46,1.81c.06,1.49,1.46,2.2,2.77,2.43,1,.17,2.36.11,3,1a1.76,1.76,0,0,1,.3,1.67c-.08.21-.18.42-.28.63a9.35,9.35,0,0,0,2.34.83,29.6,29.6,0,0,0,4.2.54,55.41,55.41,0,0,0,6.57.21,33.54,33.54,0,0,0,6.69-.9c.33-.09.66-.17,1-.27,0,0,0-.08,0-.12a7.48,7.48,0,0,1,3.68-4c.89-.47,1.8-.92,2.69-1.38a16.91,16.91,0,0,0,2-1.16,3.45,3.45,0,0,0,1.45-1.89A3.09,3.09,0,0,0,44.94,78.61Z"/><path class="cls-25" d="M17.56,85.85A3.07,3.07,0,0,0,14.72,85a5.55,5.55,0,0,1-2.15,0c1.17,1.1,3.1,1,4.07,2.42a4.51,4.51,0,0,1,.86,2.82h0C18.32,88.85,18.68,87.06,17.56,85.85Z"/><path class="cls-25" d="M20.42,88.74a4.52,4.52,0,0,0,.87-1,3.32,3.32,0,0,0,.43-3.25,6,6,0,0,0-2.88-2.45,4.88,4.88,0,0,1-1.53-1.17,3.66,3.66,0,0,0,.42.68,5,5,0,0,0,.46.46,6.64,6.64,0,0,1,1.31,1.39,4.64,4.64,0,0,1,.81,1.19A5.78,5.78,0,0,1,20.42,88.74Z"/><path class="cls-25" d="M30.58,87.63c1.4-.25,3.87-.51,4.64-1.92l-.31.12a15,15,0,0,1-3.23.66,9.64,9.64,0,0,0-3,.78,3.58,3.58,0,0,0-2,2C27.47,88.21,29.49,87.82,30.58,87.63Z"/><path class="cls-25" d="M39.48,84.86a4.7,4.7,0,0,0-2.65,2,4.59,4.59,0,0,0-.78,2.1,7.72,7.72,0,0,1,3.41-3.35c.89-.47,1.8-.92,2.69-1.38h0A19,19,0,0,0,39.48,84.86Z"/><path class="cls-25" d="M25,84.56a6.46,6.46,0,0,0-1.17,1,3.52,3.52,0,0,0-.87,2.09,2.94,2.94,0,0,0,1.73,2.79,6.48,6.48,0,0,1-.52-3.83A5.71,5.71,0,0,1,25,84.56Z"/><path class="cls-19" d="M27.13,90.74c.12-.52.63-.71,1.15-.78a.33.33,0,0,1,.07-.16l.89.14c.89.14,1.76.31,2.64.51,1.5.33,3,.68,4.49,1.11a24.61,24.61,0,0,1,4,1.45,8.5,8.5,0,0,1,1.81,1,2.26,2.26,0,0,1,.55,1.76,4.73,4.73,0,0,1-.11,1.12,3.94,3.94,0,0,1-1.52,1,12.21,12.21,0,0,1-2.58.56,15.68,15.68,0,0,1-2.27-.86q-2.29-1-4.5-2.17a16.31,16.31,0,0,1-3.62-2.41A2.53,2.53,0,0,1,27.13,90.74Z"/><path class="cls-20" d="M41.63,96.61c-.11-.43-.49-1-1-.62a3.45,3.45,0,0,0-1.07,1.67,4.44,4.44,0,0,0-.2.59l-.25,0c.06-.35.16-.71.18-.81a3.39,3.39,0,0,1,.87-1.79,1,1,0,0,1,1.06-.22,1.12,1.12,0,0,1,.54.68,2.42,2.42,0,0,1,.11,1.28l-.2.12A2.6,2.6,0,0,0,41.63,96.61Z"/><path class="cls-20" d="M40.8,97.34c-.19.06-.29.33-.35.51l-.06.18-.26.06c0-.08,0-.15.07-.22a2.07,2.07,0,0,1,.51-1c.53-.44.65.32.62.86l-.1,0C41.21,97.48,41.12,97.22,40.8,97.34Z"/><path class="cls-20" d="M38.68,96.79A4.11,4.11,0,0,1,40,94.57a1.54,1.54,0,0,1,2.27.45,3.49,3.49,0,0,1,.22,2l-.16.15c0-1.09,0-2.65-1.33-2.59-1,0-1.59,1-1.87,1.85-.19.62-.32,1.25-.45,1.88,0,0,0,.07,0,.1l-.15,0-.15,0A9,9,0,0,1,38.68,96.79Z"/><path class="cls-21" d="M27.13,90.74c.12-.52.63-.71,1.15-.78a.33.33,0,0,1,.07-.16l.89.14c.89.14,1.76.31,2.64.51,1.5.33,3,.68,4.49,1.11a24,24,0,0,1,5.37,2.17,2.32,2.32,0,0,0-2.24.63,5.06,5.06,0,0,0-1.35,3.92,19.68,19.68,0,0,1-1.92-.76q-2.29-1-4.5-2.17a16.31,16.31,0,0,1-3.62-2.41A2.53,2.53,0,0,1,27.13,90.74Z"/><path class="cls-22" d="M27.16,90.64a4.47,4.47,0,0,0,1.56,1.51,16.6,16.6,0,0,0,2.12,1.22c.64.32,1.28.64,1.93.92s1.55.58,2.34.82a3.16,3.16,0,0,0,2,.17c.59-.22.86-.8,1.32-1.2a2.41,2.41,0,0,1,2.26-.59c.17,0,.32.1.48.15a2.5,2.5,0,0,0-1.72.72,5.06,5.06,0,0,0-1.35,3.92,19.68,19.68,0,0,1-1.92-.76q-2.29-1-4.5-2.17a16.31,16.31,0,0,1-3.62-2.41,2.53,2.53,0,0,1-1-2.2Z"/><path class="cls-20" d="M31.17,90.54A43.7,43.7,0,0,1,39.79,93a4.53,4.53,0,0,0-.86.15,3.85,3.85,0,0,0-.86.37c-1.33.21-6.52-2.22-7.21-2.61S31.17,90.54,31.17,90.54Z"/><path class="cls-19" d="M23.42,90.58c-.16-.52-.7-.67-1.23-.7a.24.24,0,0,0-.09-.15l-.89.21c-.89.21-1.77.46-2.64.72-1.5.46-3,.94-4.47,1.49A24.48,24.48,0,0,0,10.17,94a8.63,8.63,0,0,0-1.76,1.12A2.34,2.34,0,0,0,8,96.91,4.87,4.87,0,0,0,8.19,98a4,4,0,0,0,1.62.85,11.85,11.85,0,0,0,2.67.36,15.36,15.36,0,0,0,2.24-1c1.49-.81,3-1.66,4.4-2.57a16.25,16.25,0,0,0,3.48-2.74A2.56,2.56,0,0,0,23.42,90.58Z"/><path class="cls-20" d="M9.16,97.71c.07-.44.42-1,.95-.71a3.58,3.58,0,0,1,1.22,1.61,5.17,5.17,0,0,1,.24.58l.26,0c-.09-.36-.22-.71-.25-.81a3.39,3.39,0,0,0-1-1.75,1.05,1.05,0,0,0-1.1-.15,1.27,1.27,0,0,0-.5.74,2.53,2.53,0,0,0,0,1.31l.21.1A2.54,2.54,0,0,1,9.16,97.71Z"/><path class="cls-20" d="M10.06,98.38c.2.05.32.32.4.49a1.34,1.34,0,0,0,.07.18l.27,0c0-.09-.06-.16-.09-.23a2,2,0,0,0-.6-1c-.57-.39-.64.38-.56.93l.11,0C9.65,98.56,9.72,98.29,10.06,98.38Z"/><path class="cls-20" d="M12.17,97.65a4.2,4.2,0,0,0-1.51-2.14,1.57,1.57,0,0,0-2.27.63,3.49,3.49,0,0,0-.07,2l.18.14c-.11-1.11-.17-2.69,1.14-2.74,1.06,0,1.69.85,2,1.74.24.61.43,1.24.61,1.87l0,.09h.15l.15-.06A10.47,10.47,0,0,0,12.17,97.65Z"/><path class="cls-21" d="M23.42,90.58c-.16-.52-.7-.67-1.23-.7a.24.24,0,0,0-.09-.15l-.89.21c-.89.21-1.77.46-2.64.72-1.5.46-3,.94-4.47,1.49a24.83,24.83,0,0,0-5.28,2.64,2.35,2.35,0,0,1,2.32.46,5.12,5.12,0,0,1,1.69,3.87,19.49,19.49,0,0,0,1.89-.92c1.49-.81,3-1.66,4.4-2.57a16.25,16.25,0,0,0,3.48-2.74A2.56,2.56,0,0,0,23.42,90.58Z"/><path class="cls-22" d="M23.38,90.48a4.52,4.52,0,0,1-1.47,1.66,17,17,0,0,1-2.05,1.42c-.63.36-1.24.74-1.89,1.08s-1.52.71-2.31,1a3.31,3.31,0,0,1-2.07.33c-.61-.18-.94-.74-1.43-1.11a2.47,2.47,0,0,0-2.35-.42,4.78,4.78,0,0,0-.48.19,2.56,2.56,0,0,1,1.81.59,5.12,5.12,0,0,1,1.69,3.87,19.49,19.49,0,0,0,1.89-.92c1.49-.81,3-1.66,4.4-2.57a16.25,16.25,0,0,0,3.48-2.74,2.56,2.56,0,0,0,.82-2.31A.42.42,0,0,0,23.38,90.48Z"/><path class="cls-20" d="M19.3,90.7a44.51,44.51,0,0,0-8.56,3.15,5,5,0,0,1,.88.09,4,4,0,0,1,.91.3c1.36.11,6.44-2.77,7.11-3.23S19.3,90.7,19.3,90.7Z"/><path class="cls-21" d="M23.54,90.63,20.69,96s-.69,2.21,0,3.15,7.3,1.39,8.49-.25a6.53,6.53,0,0,0,0-2.59,43,43,0,0,0-1.52-5A3.42,3.42,0,0,0,23.54,90.63Z"/><path class="cls-22" d="M29.22,96.31a43,43,0,0,0-1.52-5,3.42,3.42,0,0,0-4.16-.64L20.69,96s-.69,2.21,0,3.15,7.3,1.39,8.49-.25A6.53,6.53,0,0,0,29.22,96.31ZM27.37,98c-.86,0-1.72.09-2.58,0a13.31,13.31,0,0,1-2.68-.27,1.29,1.29,0,0,1-.93-.82.3.3,0,0,0,0,.1c0,.08-.14,0-.13,0s0-.18.08-.27l-.06-.18c0-.07.1-.11.12,0a10.19,10.19,0,0,1,.43-1c.2-.43.4-.87.63-1.29a2.11,2.11,0,0,1,.69-.82A2.45,2.45,0,0,1,23.8,93a5.45,5.45,0,0,1,1.8-.1,1.7,1.7,0,0,1,1.26.66A13.7,13.7,0,0,1,27.79,96a5.28,5.28,0,0,1,.44,1.5C28.25,98,27.77,98,27.37,98Z"/><path class="cls-19" d="M29.27,98.41a3.49,3.49,0,0,0-.73-2.52,5.18,5.18,0,0,0-3.2-1.45,4.89,4.89,0,0,0-3.86.86,3.58,3.58,0,0,0-.93,1.28,5.8,5.8,0,0,0-.15,1.66c0,.11,0,.23.05.34a1.72,1.72,0,0,0,.24.57c.7.95,7.3,1.39,8.49-.25A3.43,3.43,0,0,0,29.27,98.41Z"/><path class="cls-20" d="M22.86,98.27a2.7,2.7,0,0,1,2.2-1A2.49,2.49,0,0,1,27,99.86l.57-.11a3.06,3.06,0,0,0-1.8-3.14,3,3,0,0,0-2.86.72,3,3,0,0,0-.79,1.46,3.93,3.93,0,0,0-.15.91l.21,0A2.34,2.34,0,0,1,22.86,98.27Z"/><path class="cls-20" d="M25,98.9a1.33,1.33,0,0,1,.7,1.08l.51,0c-.08-.83-.6-1.76-1.44-1.74a1.92,1.92,0,0,0-1.59,1.69l.59,0C23.85,99.38,24.35,98.65,25,98.9Z"/><path class="cls-20" d="M28.39,97A4.24,4.24,0,0,0,25,95a4.19,4.19,0,0,0-3.38,1.23,4,4,0,0,0-.73,3.06,1.26,1.26,0,0,0,.26.13A3.69,3.69,0,0,1,25,95.35a3.78,3.78,0,0,1,3.14,1.82,4.85,4.85,0,0,1,.53,2.19l.14-.09A3.7,3.7,0,0,0,28.39,97Z"/><g class="cls-26"><path class="cls-27" d="M39.12,42.12c-.31-.23-.63-.47-.95-.69a7.76,7.76,0,0,0-1.39.12,6.75,6.75,0,0,1-3.13,0c-.36-.43-.7-.87-1-1.31a.14.14,0,0,1,0-.07v-.07c.32-.23.65-.45,1-.65.66-.4,1.31-.79,2-1.17l.61-.35c1.48.18,3,.47,4.42.7l.36,0a21.8,21.8,0,0,0,6.94-5.62,3.42,3.42,0,0,1-.23-.33l-.18-.35c-1.36-1.52-2.88-2.93-4.28-4.39a13.86,13.86,0,0,0-4-.13,5.31,5.31,0,0,0-.69,0,4.62,4.62,0,0,0-2.85,1.38,2.68,2.68,0,0,0-.54,3,1.68,1.68,0,0,0,2.47.47.37.37,0,0,0-.06-.61,5.81,5.81,0,0,0-.78-.32c-.62-.22-.13-1.18.21-1.41a2.92,2.92,0,0,1,1-.34A3.6,3.6,0,0,1,39.11,30a23.89,23.89,0,0,1,1.2,3l-1.06.81-.75.53a13.25,13.25,0,0,1-1.69.14,15.15,15.15,0,0,1-2.93-.2,8.44,8.44,0,0,1-.87-.2c-.66-.68-1.32-1.36-1.95-2.07s-1.21-1.32-1.81-2c.33-1.22.69-2.43,1-3.65l.2-.18c.65-.19,1.29-.38,1.95-.55,1-.28,2.08-.53,3.13-.79.66-.17,1.42-.17,2.09-.36l.41-.11.27-.21.29-.24a17.56,17.56,0,0,0,1.83-1.61h0a29.89,29.89,0,0,0-.62-5.58,19.94,19.94,0,0,0-4.13-2.54c-.42.13-.82.26-1.22.41a7.63,7.63,0,0,0-.53,2,10.54,10.54,0,0,0,.9-1.38.12.12,0,0,1,.2,0A6.42,6.42,0,0,1,36.4,17c.51,1-.62,2.33-1.25,3a2,2,0,0,1-1.28.72l-.49-.11c-.78-.21-1.57-.38-2.36-.55s-1.72-.42-2.59-.61c-.07-.49-.13-1-.2-1.47S28.07,17,28,16.42a2,2,0,0,1,.43-.53c.73-.67,1.41-1.41,2.15-2.08a12.19,12.19,0,0,0,1.29-1.3l.84-.65c.36-.29.7-.63,1.08-.9a1.29,1.29,0,0,0,.45-.45c.27-.59-.18-1.49-.34-2.06-.27-1-.59-1.9-.89-2.84-.15-.47-.29-.94-.43-1.42a8.18,8.18,0,0,0-.33-1.25c-.05-.09-.51-.2-.61-.22-.44-.11-.88-.29-1.3-.44-1-.32-1.92-.68-2.89-1A27.42,27.42,0,0,0,21.72,0c-.31,0-.8-.14-1,.22s-.28.7-.46,1L19.89,2a5.76,5.76,0,0,0-1,1.8,4.52,4.52,0,0,0-.34,1.7,1.33,1.33,0,0,0,.14.77A4.23,4.23,0,0,0,20,8a1.9,1.9,0,0,0,.84.45,1.88,1.88,0,0,0,2.32-.79,2.16,2.16,0,0,0,.42-1.52c-.17-.59-.78-.47-1.27-.6a.6.6,0,0,0-.37,0,9.73,9.73,0,0,0,.69.75.13.13,0,0,1-.06.21c-.32.11-.62.26-.93.39a.14.14,0,0,1-.15-.06,3,3,0,0,1-.42-1.36c0-.39.23-.53.53-.47a4.86,4.86,0,0,1,1,0,2.27,2.27,0,0,1,2.2,1.41,5.56,5.56,0,0,1,.37,2.49c-.06,1.1-1.77,1.5-2.61,1.71a33.16,33.16,0,0,1-5.34.84,18.61,18.61,0,0,0-2.23.28.94.94,0,0,0-.24.06C14,12.92,13.17,14,12.41,15.1q-.52.78-1,1.59l1,.74c1.05.74,2.23,1.26,3.33,1.92a6.57,6.57,0,0,1,2,1.55c.06.71.14,1.41.2,2.11s.1,1.35.14,2c-.74.4-2.38,1.25-2.8,1.46s-3.66-1.19-3.65-1.26a3.38,3.38,0,0,1,1.93-2.75,1.32,1.32,0,0,1,1.31.36c.1-.49,0-1-.52-1.13a3.76,3.76,0,0,0-3.3,1.35,5.8,5.8,0,0,0-1.4,3.51v.17a30.92,30.92,0,0,0,2.5,2.49s0,0,0,0a32.11,32.11,0,0,0,3.39.46l.3.05a3.32,3.32,0,0,1,.43.59,1.83,1.83,0,0,1-.65,2.24c-1.84,1.68-5-.25-7.44-.59-.84.71-1.61,1.52-2.37,2.3Q4.18,36,2.52,37.66c-.85.85-1.7,1.71-2.52,2.6.29.62.62,1.23,1,1.82.73,1.26,1.43,2.55,2.25,3.76.4.6.84,1.19,1.29,1.75l0,0h0c.14.39.34.85.77.75a21.5,21.5,0,0,0,2.74-1c.89-.34,1.79-.66,2.7-1a5.28,5.28,0,0,0,.67-.13c.54-.15,1,.43,1.31.78s.61.62.39,1.09a5.84,5.84,0,0,1-.35.57.53.53,0,0,1-.16.17l0,0a.16.16,0,0,0-.13,0,1,1,0,0,1-.61-.52c-.18-.36.08-.8.2-1.13,0-.07,0-.12-.1-.11a2.58,2.58,0,0,0-1.27,1.15,1.73,1.73,0,0,0,.09,1.58c.27.66.67.74,1.33.72a8.25,8.25,0,0,0,2.48,0A4,4,0,0,0,16.5,48.6a2.49,2.49,0,0,0-.22-2.29,7.66,7.66,0,0,0-1-1.39h0a.19.19,0,0,0,.11-.14,6,6,0,0,1,1.69-.07c.39.65.74,1.33,1.09,2s.8,1.31,1.15,2a.56.56,0,0,1,.05.08,14.88,14.88,0,0,0-1.68,1c-1,.74-2.2,1.32-3.19,2.14l-1.44,1.23c-.18.15-.59.42-.61.7A5,5,0,0,0,12.57,55a21.48,21.48,0,0,0,.34,3.66h0c.26.32.7.4,1.05.59,1,.57,2.21.94,3.28,1.49.33.17.76.59,1.14.61.2,0,.4-.25.52-.38.6-.67,1.65-1.33,2-2.19a.07.07,0,0,0-.09-.1,4.9,4.9,0,0,0-1.54.87c-.09.08-.61.56-.74.33a2.57,2.57,0,0,1-.15-.47c-.07-.28-.16-.56-.25-.84.25-.17.5-.35.75-.51,1-.67,2-1.31,3-1.89s1.85-1,2.79-1.41l0,0a1.67,1.67,0,0,0,.32.24c.46.29.93.54,1.37.86s2.24,1.47,1.2,2.19c-.33.22-.63.53-.95.77s-.8.51-1.17.8a6.4,6.4,0,0,0-1,.75,13.82,13.82,0,0,0,3.29,2.25.12.12,0,0,1,.06.14,17.8,17.8,0,0,1-.39,1.79c.36,0,.75-.59.95-.78.44-.41.95-.7,1.38-1.12.16-.16.47-.27.5-.53.08-.78-.93-1.37-1.47-1.75l-.07-.06c.2-.09.36-.17.43-.19,1-.46,2-.81,3-1.2.48-.19,1-.38,1.43-.61A1.65,1.65,0,0,0,34.2,58c.08-.11.07-.14,0-.25a10.41,10.41,0,0,1-.48-1.32,29.6,29.6,0,0,0-1-2.92c-.37-1-.6-2-1-2.94l0-.09c.69-.47,1.4-.91,2.13-1.31l1.06-.59a.15.15,0,0,0,.07,0c.75.34,1.51.64,2.28.94l1.81.67a1.94,1.94,0,0,1,.54.61,2.91,2.91,0,0,1,0,2.65.8.8,0,0,1-.17.15l-.21,0L38,53.92a1.32,1.32,0,0,1-.77-.72.86.86,0,0,1,0-.81,4.25,4.25,0,0,1,1.12.1c.08,0,.15,0,.2-.1.27-.29.1-.73,0-1-.23-.48-.76-.46-1.21-.37h0a1.18,1.18,0,0,0-.37.09,11.09,11.09,0,0,0-1.28.38c-.42.15-.58.9-.71,1.26a9.52,9.52,0,0,0-.61,1.92c0,.58.78,1,1.17,1.3A22.48,22.48,0,0,1,37.1,57.5c2.78-1.25,5.79-2.41,8.25-4.25.11-.57.22-1.14.35-1.7.29-1.31.64-2.62.93-3.94-1.45-1.15-3-2.23-4.45-3.3C41.16,43.58,40.13,42.87,39.12,42.12Z"/></g><path class="cls-28" d="M22,43.57c-.11.83,0,2.19-1.1,2.41,1.06.11,1,1.59,1.1,2.42.1-.83-.06-2.25,1.1-2.42C22,45.69,22.14,44.4,22,43.57Z"/><path class="cls-28" d="M25,48.14c-.08.61,0,1.6-.81,1.76.78.08.73,1.16.81,1.77.08-.61,0-1.65.8-1.77C24.91,49.69,25,48.75,25,48.14Z"/><path class="cls-28" d="M26.17,42.44c-.06.48,0,1.27-.64,1.4.62.07.58.93.64,1.41.06-.48,0-1.31.64-1.41C26.14,43.68,26.23,42.92,26.17,42.44Z"/><path class="cls-28" d="M18.68,13.24c-.11.84,0,2.19-1.1,2.42,1.06.1,1,1.59,1.1,2.42.11-.83-.05-2.25,1.1-2.42C18.63,15.37,18.79,14.08,18.68,13.24Z"/><path class="cls-28" d="M21.59,17.81c-.08.61,0,1.61-.8,1.77.77.08.72,1.16.8,1.76.08-.6,0-1.64.8-1.76C21.55,19.37,21.67,18.42,21.59,17.81Z"/><path class="cls-28" d="M22.81,12.11c-.06.49,0,1.28-.63,1.41.61.06.57.93.63,1.41.07-.48,0-1.31.65-1.41C22.78,13.35,22.88,12.6,22.81,12.11Z"/><path class="cls-28" d="M40,43.57c-.11.83,0,2.19-1.1,2.41,1.06.11,1,1.59,1.1,2.42.11-.83,0-2.25,1.1-2.42C39.92,45.69,40.08,44.4,40,43.57Z"/><path class="cls-28" d="M42.88,48.14c-.08.61,0,1.6-.8,1.76.77.08.72,1.16.8,1.77.08-.61,0-1.65.8-1.77C42.84,49.69,43,48.75,42.88,48.14Z"/><path class="cls-28" d="M4.36,37.11c-.11.84,0,2.2-1.1,2.42,1.06.11,1,1.59,1.1,2.42.11-.83-.06-2.25,1.1-2.42C4.3,39.24,4.47,38,4.36,37.11Z"/><path class="cls-28" d="M7.27,41.69c-.08.6,0,1.6-.81,1.76.78.08.73,1.16.81,1.77.08-.61,0-1.65.8-1.77C7.23,43.24,7.35,42.29,7.27,41.69Z"/><path class="cls-29" d="M70.76,89.91c0,.27.7,2.82.7,2.82s-4.69,2-3.36,5.36a16.06,16.06,0,0,0,7.15-1.29l.48-.75.37.43A6.81,6.81,0,0,0,78,95.28l-1.15-6.7S70.78,89.65,70.76,89.91Z"/><path class="cls-30" d="M71.3,97c-.71.14-2.69.57-3.43-.07a3.45,3.45,0,0,0,.23,1.13,16.06,16.06,0,0,0,7.15-1.29l.48-.75.37.43A6.81,6.81,0,0,0,78,95.28l-.17-1A14.25,14.25,0,0,1,71.3,97Z"/><path class="cls-31" d="M70.89,93.58a2.28,2.28,0,0,0-1.7,1.57.59.59,0,0,0,0,.14s0,.09,0,.13c0,.35.38.38.63.31a2,2,0,0,0,1-.67C71,94.77,71.82,93.5,70.89,93.58Z"/><path class="cls-31" d="M69.07,96a.76.76,0,0,0-.59.54.09.09,0,0,0,0,0v.05c0,.12.13.13.21.1a.71.71,0,0,0,.34-.23C69.1,96.45,69.39,96,69.07,96Z"/><path class="cls-29" d="M56.59,89.94c-.05.26.35,2.88.35,2.88s-4.91,1.4-4,4.9a15.93,15.93,0,0,0,7.24-.4l.58-.67.32.46a6.4,6.4,0,0,0,2-1l-.3-6.79S56.64,89.68,56.59,89.94Z"/><path class="cls-30" d="M56.24,97.06c-.72,0-2.74.23-3.4-.49a3.35,3.35,0,0,0,.1,1.15,15.93,15.93,0,0,0,7.24-.4l.58-.67.32.46a6.4,6.4,0,0,0,2-1l0-1A14.25,14.25,0,0,1,56.24,97.06Z"/><path class="cls-31" d="M56.27,93.59a2.29,2.29,0,0,0-1.89,1.34l0,.14,0,.13c0,.34.33.42.59.39a2.08,2.08,0,0,0,1-.55C56.21,94.78,57.2,93.63,56.27,93.59Z"/><path class="cls-31" d="M54.15,95.8a.8.8,0,0,0-.66.47v0s0,0,0,0,.12.14.21.13A.67.67,0,0,0,54,96.3C54.13,96.21,54.47,95.81,54.15,95.8Z"/><path class="cls-32" d="M55.54,67.36s-4.46,9.46-4.13,14c.3,4.13,4,10.53,4,10.53s1.16.73,6-.22,4.46-.08,8.07.43,8,1,10.47-.51c0,0,2.33-19.84-2.14-25.34Z"/><polygon class="cls-33" points="59.01 87.07 55.31 86.53 55.17 83.86 59.01 83.86 59.01 87.07"/><path class="cls-34" d="M55.69,86.39h0s0,0,0,0,0,.18-.07.26,0,.12,0,.16,0,0,0,0,0-.08,0-.13a2.51,2.51,0,0,1,0-.27h0S55.7,86.39,55.69,86.39Z"/><path class="cls-34" d="M56.3,86.54s0,0,0,0l0,.18a.26.26,0,0,0,0,.15s0,0,0,0a.9.9,0,0,0,0-.16A.75.75,0,0,0,56.3,86.54Z"/><path class="cls-34" d="M56.78,86.57s0,0,0,0a1.16,1.16,0,0,1,0,.18.37.37,0,0,0,0,.18s0,0,.06,0a.88.88,0,0,0,0-.17A1,1,0,0,0,56.78,86.57Z"/><path class="cls-34" d="M57.52,86.71s0,.1-.06.15a.27.27,0,0,0,0,.2s0,0,0,0a1.13,1.13,0,0,0,0-.18.71.71,0,0,1,0-.15S57.52,86.7,57.52,86.71Z"/><path class="cls-34" d="M58,86.79s0,0,0,0a1.29,1.29,0,0,1,0,.19.45.45,0,0,0,0,.2s.06,0,.06,0a1.41,1.41,0,0,0,0-.2A.6.6,0,0,0,58,86.79Z"/><path class="cls-34" d="M58.48,86.84s0,0,0,0a.8.8,0,0,0-.05.21.5.5,0,0,0,0,.21s.06,0,.06,0a.68.68,0,0,0,0-.2A.65.65,0,0,0,58.48,86.84Z"/><path class="cls-34" d="M58.88,86.88s0,0,0,0a2.32,2.32,0,0,0-.06.45s.05,0,.05,0a1.81,1.81,0,0,0,0-.23A.81.81,0,0,0,58.88,86.88Z"/><path class="cls-34" d="M59.26,86.66a.3.3,0,0,0-.16,0,.87.87,0,0,0-.23,0s0,0,0,0l.19,0a.51.51,0,0,0,.17,0S59.28,86.68,59.26,86.66Z"/><path class="cls-34" d="M59.18,86.21s-.11,0-.16,0a.41.41,0,0,0-.16,0s0,0,0,0h0c.1,0,.21.06.31,0S59.2,86.22,59.18,86.21Z"/><path class="cls-34" d="M59.15,85.69l-.3,0s0,0,0,0H59a.24.24,0,0,0,.15,0S59.19,85.68,59.15,85.69Z"/><path class="cls-34" d="M59.12,85.14l-.13,0a.32.32,0,0,1-.14,0s0,0,0,0,.07,0,.11,0a.28.28,0,0,0,.18,0S59.15,85.13,59.12,85.14Z"/><path class="cls-34" d="M59.14,84.41a.25.25,0,0,0-.12,0,.42.42,0,0,0-.15,0s0,0,0,0,.19,0,.27,0S59.17,84.41,59.14,84.41Z"/><path class="cls-34" d="M59.15,84l-.33,0s0,0,0,0l.22,0s.1,0,.13,0S59.17,84,59.15,84Z"/><path class="cls-34" d="M58.61,83.68a1.28,1.28,0,0,0-.07.39c0,.05.07,0,.08,0s0-.25,0-.38S58.61,83.67,58.61,83.68Z"/><path class="cls-34" d="M58.13,83.65s0,0,0,0a2.68,2.68,0,0,0,0,.4s0,0,0,0a.55.55,0,0,0,0-.18C58.13,83.79,58.14,83.72,58.13,83.65Z"/><path class="cls-34" d="M57.53,84l0-.29s0,0,0,0a2,2,0,0,0,0,.42s.05,0,.05,0S57.53,84,57.53,84Z"/><path class="cls-34" d="M57,83.65s0,0,0,0a1.7,1.7,0,0,0,0,.39s0,0,0,0S57,83.77,57,83.65Z"/><path class="cls-34" d="M56.37,83.67s0,0,0,0a.6.6,0,0,0,0,.19.38.38,0,0,0,0,.18s0,0,0,0A2.21,2.21,0,0,0,56.37,83.67Z"/><path class="cls-34" d="M55.77,83.85a1.36,1.36,0,0,1,0-.2s0,0,0,0a1,1,0,0,0,0,.39s0,0,0,0A.5.5,0,0,0,55.77,83.85Z"/><path class="cls-34" d="M55.37,83.89a.65.65,0,0,1,0-.2s0,0,0,0a.83.83,0,0,0,0,.35s0,0,0,0A.68.68,0,0,0,55.37,83.89Z"/><path class="cls-34" d="M55.35,84.15h-.14a.75.75,0,0,0-.15,0s0,0,0,0a.68.68,0,0,0,.28,0S55.38,84.16,55.35,84.15Z"/><path class="cls-34" d="M55.4,84.62s-.13,0-.19,0a.25.25,0,0,0-.12,0s0,0,0,0,.2,0,.29,0S55.42,84.64,55.4,84.62Z"/><path class="cls-34" d="M55.42,85.13c-.05,0-.12,0-.18,0s-.1,0-.13,0,0,0,0,0,.28.05.31.05S55.44,85.14,55.42,85.13Z"/><path class="cls-34" d="M55.46,85.63c-.11,0-.21.06-.31,0a0,0,0,0,0,0,0s.08,0,.1,0a.78.78,0,0,0,.22,0S55.49,85.64,55.46,85.63Z"/><path class="cls-34" d="M55.44,86.16h-.26s0,0,0,0,.06,0,.09,0,.15,0,.2,0S55.48,86.16,55.44,86.16Z"/><polygon class="cls-33" points="75.77 87.5 75.58 83.02 78.68 82.26 79.55 86.77 75.77 87.5"/><path class="cls-34" d="M75.82,83.44h0s0,0,0,0-.22,0-.32,0-.15,0-.19,0a.06.06,0,0,0,0,0c0,.07.1,0,.16,0l.33,0h0S75.82,83.45,75.82,83.44Z"/><path class="cls-34" d="M75.79,84.19s0,0,0,0h-.22a.28.28,0,0,0-.18,0s0,0,0,0h.2Z"/><path class="cls-34" d="M75.86,84.76s0,0,0,0h-.22a.3.3,0,0,0-.21,0s0,0,0,0a1.48,1.48,0,0,0,.21,0Z"/><path class="cls-34" d="M75.86,85.66a.58.58,0,0,0-.19,0,.39.39,0,0,0-.24,0s0,.06,0,.06a.82.82,0,0,0,.22,0h.18S75.88,85.66,75.86,85.66Z"/><path class="cls-34" d="M75.87,86.23s0,0,0,0a1,1,0,0,1-.25,0,.85.85,0,0,0-.23,0s0,.07,0,.07a2,2,0,0,0,.24,0A1.43,1.43,0,0,0,75.87,86.23Z"/><path class="cls-34" d="M75.92,86.82s0,0,0,0h-.26a.52.52,0,0,0-.25,0s0,.06,0,.06a1,1,0,0,0,.24,0A.61.61,0,0,0,75.92,86.82Z"/><path class="cls-34" d="M76,87.31s0,0,0,0a3.33,3.33,0,0,0-.55,0s0,.06,0,.06a1.23,1.23,0,0,0,.27,0A1.24,1.24,0,0,0,76,87.31Z"/><path class="cls-34" d="M76.31,87.7a.66.66,0,0,0,0-.2.77.77,0,0,0-.07-.26s0,0,0,0a1.92,1.92,0,0,1,0,.24.45.45,0,0,0,0,.2S76.29,87.73,76.31,87.7Z"/><path class="cls-34" d="M76.83,87.51a.67.67,0,0,0,0-.2.39.39,0,0,0-.06-.18s0,0,0,0h0c0,.12,0,.26,0,.37S76.81,87.54,76.83,87.51Z"/><path class="cls-34" d="M77.44,87.36a2.42,2.42,0,0,0-.12-.35s0,0,0,0,0,.12,0,.18a.36.36,0,0,0,.07.18S77.45,87.4,77.44,87.36Z"/><path class="cls-34" d="M78.08,87.19,78,87.05a.49.49,0,0,1,0-.16s0,0,0,0a.26.26,0,0,0,0,.15.56.56,0,0,0,.09.19S78.09,87.23,78.08,87.19Z"/><path class="cls-34" d="M78.94,87.06a.57.57,0,0,0,0-.14.38.38,0,0,0-.08-.17s0,0,0,0,0,.24.09.31S78.94,87.09,78.94,87.06Z"/><path class="cls-34" d="M79.39,87a2.74,2.74,0,0,0-.09-.39s0,0,0,0a2.48,2.48,0,0,0,0,.27c0,.05,0,.12.07.14S79.4,87,79.39,87Z"/><path class="cls-34" d="M79.68,86.26a1.92,1.92,0,0,0-.48,0c-.06,0,0,.08,0,.08a3.26,3.26,0,0,0,.45,0S79.69,86.26,79.68,86.26Z"/><path class="cls-34" d="M79.61,85.69s0,0,0,0a2.42,2.42,0,0,0-.47.06s0,.06,0,.06a.56.56,0,0,0,.22,0A1.11,1.11,0,0,0,79.61,85.69Z"/><path class="cls-34" d="M79.12,85.05l.33-.09s0,0,0,0a2,2,0,0,0-.5.11s0,0,0,.06S79.06,85.07,79.12,85.05Z"/><path class="cls-34" d="M79.35,84.32s0,0,0,0a1.77,1.77,0,0,0-.46.08s0,.06,0,.06Z"/><path class="cls-34" d="M79.18,83.63s0,0,0,0a.54.54,0,0,0-.22,0,.59.59,0,0,0-.2.07s0,0,0,0S79,83.65,79.18,83.63Z"/><path class="cls-34" d="M78.83,83l.24-.07s0,0,0,0a1.21,1.21,0,0,0-.45.12s0,.06,0,0A1.06,1.06,0,0,0,78.83,83Z"/><path class="cls-34" d="M78.69,82.49l.24-.07s0,0,0,0a1,1,0,0,0-.41.11s0,.07.05.06Z"/><path class="cls-34" d="M78.38,82.53a.33.33,0,0,0,0-.17c0-.06,0-.12,0-.18s0,0,0,0a1,1,0,0,0,0,.34S78.38,82.57,78.38,82.53Z"/><path class="cls-34" d="M77.84,82.7c0-.06,0-.17,0-.23a.24.24,0,0,0,0-.14s0,0,0,0,0,.24.06.34S77.83,82.72,77.84,82.7Z"/><path class="cls-34" d="M77.25,82.84c0-.07,0-.15,0-.22a.45.45,0,0,1,0-.16s0,0,0,0,0,.35,0,.38S77.23,82.86,77.25,82.84Z"/><path class="cls-34" d="M76.66,83c0-.12-.11-.23-.11-.36s0,0,0,0,0,.1,0,.12a.82.82,0,0,0,.1.26S76.67,83,76.66,83Z"/><path class="cls-34" d="M76,83.1,76,83l0-.12a.23.23,0,0,1,0-.12,0,0,0,0,0,0,0s0,.08,0,.12,0,.17.08.23S76.05,83.14,76,83.1Z"/><path class="cls-35" d="M61.33,73.76s6,11.53,6.38,15.4C67.71,89.16,66.81,80.33,61.33,73.76Z"/><path class="cls-36" d="M69.94,73.58a23.62,23.62,0,0,1-9.86-2,16.15,16.15,0,0,1-5-3.38.12.12,0,0,1,0-.18.13.13,0,0,1,.18,0c.06.07,6.61,7.19,19.87,4.85A6.4,6.4,0,0,0,77,71.4a4.2,4.2,0,0,0,.84-4.4.12.12,0,0,1,.08-.16.12.12,0,0,1,.16.08c1.44,4.12-2.83,6.16-2.87,6.18h0A29.91,29.91,0,0,1,69.94,73.58Z"/><path class="cls-37" d="M78.39,78.32a.9.9,0,0,0-.14-.2c-.07-.08,0-.34,0-.44a3.07,3.07,0,0,0-.11-.86,4.12,4.12,0,0,0-.67-1.38,8.06,8.06,0,0,0-1-1.2A4.16,4.16,0,0,1,75.2,73a1.8,1.8,0,0,1,0-.22c0-.09-.11-.18-.18-.16a.4.4,0,0,0-.22.17.67.67,0,0,0-.06.12h0c-.24.61-.82.95-1.24,1.34a8.74,8.74,0,0,0-1.06,1.2,4.32,4.32,0,0,0-.67,1.38,4,4,0,0,0-.11.86c0,.1.06.36,0,.44a1.43,1.43,0,0,0-.14.2c-.09.17-.2.48.07.34a1,1,0,0,0,.2-.13c.06,0,.1,0,.15.06a1.74,1.74,0,0,0,.64.28,22.56,22.56,0,0,0,4.79,0,1.86,1.86,0,0,0,.65-.28s.08-.11.14-.06a1.37,1.37,0,0,0,.2.13C78.59,78.8,78.48,78.49,78.39,78.32Z"/><path class="cls-38" d="M78.39,78.32a.9.9,0,0,0-.14-.2c-.07-.08,0-.34,0-.44a3.07,3.07,0,0,0-.11-.86,4.12,4.12,0,0,0-.67-1.38,8.06,8.06,0,0,0-1-1.2A4.16,4.16,0,0,1,75.2,73a1.8,1.8,0,0,1,0-.22c0-.09-.11-.18-.18-.16a.4.4,0,0,0-.22.17.67.67,0,0,0-.06.12h0c-.24.61-.82.95-1.24,1.34a8.74,8.74,0,0,0-1.06,1.2,4.32,4.32,0,0,0-.67,1.38,4,4,0,0,0-.11.86c0,.1.06.36,0,.44a1.43,1.43,0,0,0-.14.2c-.09.17-.2.48.07.34a1,1,0,0,0,.2-.13c.06,0,.1,0,.15.06a1.74,1.74,0,0,0,.64.28,22.56,22.56,0,0,0,4.79,0,1.86,1.86,0,0,0,.65-.28s.08-.11.14-.06a1.37,1.37,0,0,0,.2.13C78.59,78.8,78.48,78.49,78.39,78.32ZM76.66,78a1.84,1.84,0,0,1-1.11.55c-1,.2-2.75.37-3.26-.69a1.41,1.41,0,0,1-.18-.51,2.47,2.47,0,0,1,.45-1.52,5.82,5.82,0,0,1,1.09-1.38c.44-.39.91-.72,1.45-.3a2.38,2.38,0,0,1,.61.73,2.57,2.57,0,0,1,0-.62.06.06,0,0,1,.09,0,4,4,0,0,1,1.08,2.54A2,2,0,0,1,76.66,78Z"/><path class="cls-37" d="M75,72.94c.11-.06.9-.66.82-1.22,0-.09-.09,0-.15,0a.27.27,0,0,1-.26,0c-.07,0-.1-.14-.19-.15s-.16.05-.24.05a1.22,1.22,0,0,1-.24-.1c-.11,0-.33-.1-.37.07a1.64,1.64,0,0,0,.34,1.14c0,.09.1.21.21.23Z"/><g class="cls-39"><path class="cls-37" d="M75.83,71.69a1.37,1.37,0,0,1-.78.86s0,0,0,0a1,1,0,0,1,0-.35l0,.09s-.06.18-.14.16-.13-.21-.15-.29l0-.12a.45.45,0,0,0,0,.12c0,.1,0,.2,0,.3a0,0,0,0,1-.06,0A1.65,1.65,0,0,1,74.4,72s0,0,0-.06a2.5,2.5,0,0,0,.35.8c0,.09.1.21.21.23l.08,0c.11-.06.9-.66.82-1.22C75.84,71.7,75.83,71.7,75.83,71.69Z"/></g><path class="cls-40" d="M75.41,72.89h0s0,0,0,0a1.76,1.76,0,0,1-.2.09.47.47,0,0,0,.22-.22s0,0,0,0,0,0,0,0a.61.61,0,0,1-.32.06.39.39,0,0,1-.32-.15s0,0,0,0,.12.26.24.25l.2,0a.63.63,0,0,1-.43,0s0,0,0,0a.11.11,0,0,0,.06.11l0,0s0,0,0,0,.27.08.33.07a.74.74,0,0,0,.43-.17S75.43,72.91,75.41,72.89Z"/><path class="cls-36" d="M75.35,72.78a.92.92,0,0,1-.69,0s0,0,0,0,.21.16.3.18A.24.24,0,0,0,75,73a.62.62,0,0,1-.38,0s0,0,0,0,.25.09.33.08a.78.78,0,0,0,.41-.22,0,0,0,0,0,0,0h0S75.38,72.76,75.35,72.78Z"/><path class="cls-36" d="M75.49,73.65a.92.92,0,0,0,.05-.52.65.65,0,0,0-.09-.23s-.08-.05-.1-.07,0,0,0,0a.13.13,0,0,0,0,.1,1.26,1.26,0,0,1-.37.7,3.35,3.35,0,0,0-.4.53c-.15.24-.27.67.07.82,0,0,.09,0,.06-.07-.48-.38.13-1,.4-1.3a1.31,1.31,0,0,0,.3-.56.14.14,0,0,1,0,.06,1.33,1.33,0,0,1-.16.85,1.76,1.76,0,0,0-.1.68.85.85,0,0,0,.24.47s.09,0,.08-.06a1.18,1.18,0,0,0-.11-.19.64.64,0,0,1-.1-.43A2.17,2.17,0,0,1,75.49,73.65Z"/><path class="cls-41" d="M74.87,75a.19.19,0,0,1-.18.18.18.18,0,0,1-.18-.18.19.19,0,0,1,.18-.18A.19.19,0,0,1,74.87,75Z"/><path class="cls-42" d="M74.7,75a.08.08,0,1,1-.08-.08A.09.09,0,0,1,74.7,75Z"/><path class="cls-41" d="M75.62,75.11a.17.17,0,0,1-.17.18.18.18,0,1,1,0-.36A.17.17,0,0,1,75.62,75.11Z"/><path class="cls-42" d="M75.46,75.07a.08.08,0,0,1-.16,0,.08.08,0,0,1,.16,0Z"/><path class="cls-43" d="M74.45,71.84a.57.57,0,0,1,0-.29h0c-.12.19,0,.52.08.7,0,0,0,0,0,0A1.38,1.38,0,0,1,74.45,71.84Z"/><path class="cls-43" d="M74.77,71.8h0a.69.69,0,0,0,0,.32s0,0,0,0S74.77,71.9,74.77,71.8Z"/><path class="cls-44" d="M70.65,31c-7-4.21-19.16-3.18-19.16-3.18l-2.26.53s-.57.79.66,2.84l1.21-.58c.13-.07-.42.77-.68,1.08a.87.87,0,0,0-.12.14,13.67,13.67,0,0,0,.88,1.14c.2-.18.85-.43.8-.32s-.25.53-.38.79C55,36.85,74.73,50.47,82.5,51.57a11.8,11.8,0,0,1,.36-3,18.5,18.5,0,0,1,1,3.09,1.74,1.74,0,0,0,1.78-1.41C87,43.23,77.6,35.15,70.65,31Z"/><path class="cls-45" d="M60.17,70.84a25.37,25.37,0,0,0,8.46.69c2.55-.23,5.09-.49,7.34-1.8a8.91,8.91,0,0,0,2.65-2.16,7.11,7.11,0,0,0-.84-1.32L55.54,67.36s-.1.2-.25.54C56.32,69.64,58.17,70.33,60.17,70.84Z"/><path class="cls-46" d="M43.75,54.76l1.69-2.48-.82-.57a3.08,3.08,0,0,0,.06-.61,5.82,5.82,0,0,0-.28-2.34c-.08-.29-.45-1.73-.95-1.52a1.26,1.26,0,0,0-.56,1.07,2.53,2.53,0,0,0,.11.83c-.15-.28-.68-1.07-.88-1.33-.34-.45-1.46-1.76-2.15-1.49s-.15,1,.12,1.38l.53.71L41,49c-.86-.94-2.12-2-2.47-1.17-.23.56.48,1.22.77,1.59s.49.54.74.81c-.48-.34-1.14-.82-1.38-1-.47-.27-1.08-.12-.81.51a7.69,7.69,0,0,0,1.9,2c-.55-.13-1.65-1.3-2.08-.9-.28.26.11.76.28.93a8.12,8.12,0,0,0,1.4,1,7,7,0,0,0,1.54.85,3.1,3.1,0,0,0,1.44.15Z"/><path class="cls-47" d="M42.5,52.43a1.59,1.59,0,0,1,.5-2.11V49.14l.19,1.19A1.89,1.89,0,0,0,42.5,52.43Z"/><path class="cls-32" d="M43.05,55.22a4.56,4.56,0,0,0,1.11,1.23l.15.11.45.32c.19.13.41.31.69.49l.93.58a22.79,22.79,0,0,0,5.43,2.37,22.44,22.44,0,0,0,3.11.66,24.23,24.23,0,0,0,2.75.22c.81,0,1.48,0,1.95-.05l.74-.06A4.17,4.17,0,0,0,63,59.9a2,2,0,0,0,.57-2.06,2.78,2.78,0,0,0-1.4-1.52,4.22,4.22,0,0,0-2.29-.4l-.57,0c-.37,0-.89,0-1.52,0s-1.36-.07-2.13-.17a17.74,17.74,0,0,1-2.4-.51,17.54,17.54,0,0,1-4.18-1.82L48.33,53c-.22-.14-.39-.28-.54-.38l-.35-.25-.12-.1a4.68,4.68,0,0,0-1.17-.65Z"/><path class="cls-48" d="M63.55,57.84a2.78,2.78,0,0,0-1.4-1.52,4.22,4.22,0,0,0-2.29-.4l-.57,0c-.37,0-.89,0-1.52,0s-1.36-.07-2.13-.17a17.74,17.74,0,0,1-2.4-.51,17.54,17.54,0,0,1-4.18-1.82l-.66-.42a4.71,4.71,0,0,0,.47,1.57,14.26,14.26,0,0,1,1.5,3,4.14,4.14,0,0,1-.1,2.16c.5.19,1,.36,1.54.51a22.44,22.44,0,0,0,3.11.66,24.23,24.23,0,0,0,2.75.22c.81,0,1.48,0,1.95-.05l.74-.06A4.17,4.17,0,0,0,63,59.9,2,2,0,0,0,63.55,57.84Z"/><path class="cls-49" d="M46,55.12a7.5,7.5,0,0,0,1.28-2.85l-.06-.05a3.86,3.86,0,0,0-1.06-.56l-3.1,3.56a3.62,3.62,0,0,0,1,1.11l.31.25A4.72,4.72,0,0,0,46,55.12Z"/><path class="cls-50" d="M41.61,55.46c-.56-.67-.67-1.22-.29-1.29a5.17,5.17,0,0,0,3.76-3.8c.09-.34.6-.32,1.13.06s.95,1,.89,1.36a7.47,7.47,0,0,1-1.17,2.82,5.13,5.13,0,0,1-2.47,1.83C43.05,56.57,42.19,56.11,41.61,55.46Z"/><path class="cls-51" d="M42.45,55.35a1.47,1.47,0,0,1-.43-.7c-.05-.19,0-.34.15-.39a5.47,5.47,0,0,0,3.1-3.59c.08-.3.5-.29.93,0a1.4,1.4,0,0,1,.71,1.15A5.85,5.85,0,0,1,44,56a.92.92,0,0,1-.7-.09A2.67,2.67,0,0,1,42.45,55.35Z"/><path class="cls-52" d="M77.67,53.36a11.27,11.27,0,0,0-4.49-5.25,10.71,10.71,0,0,0-6.87-1.28c-2.87.22-6.56.42-8.76,2.52A13.89,13.89,0,0,0,54,55.28a17.12,17.12,0,0,0-.8,3.81c-.24,2.89.07,7,2.49,9,2,1.62,5,2,7.47,2.3,3.94.41,9,.82,12.55-1.4,2.81-1.77,3.64-5,3.5-8.17A19,19,0,0,0,77.67,53.36Z"/><g class="cls-53"><path class="cls-54" d="M74,62.66a35,35,0,0,1-4.65,1.71,33.8,33.8,0,0,1-7.22,1c2.49,2,6.22,2,9.21,1.35a16,16,0,0,0,5.47-1.89,15.65,15.65,0,0,0,2.36-1.93,14.32,14.32,0,0,0,.06-2.07c0-.39,0-.77-.07-1.16l-.23.18A25.19,25.19,0,0,1,74,62.66Z"/></g><path class="cls-46" d="M55.41,38.94a2.54,2.54,0,0,0-3-2.61c-3.1.22-1.89,6.06,2.61,6.18Z"/><path class="cls-55" d="M55.41,38.94a2.54,2.54,0,0,0-3-2.61c-3.1.22-1.89,6.06,2.61,6.18Z"/><path class="cls-56" d="M54.11,38.9c-.31-1-1.31-2-2.16-1.43s-.32,2.24.32,2.93C53.31,41.51,54.71,40.79,54.11,38.9Z"/><path class="cls-46" d="M71.62,25.61a14.37,14.37,0,0,0-17.3,5.08,7.29,7.29,0,0,1,.25,1.47,24.86,24.86,0,0,1-.38,5.31c-.22,1.28-.63,2.51-1,3.77a9,9,0,0,0,.2,3.89,7.55,7.55,0,0,0,1.83,3.23,14.74,14.74,0,0,0,7.12,4.39,14.57,14.57,0,0,0,14.74-4.62,14.81,14.81,0,0,0,2.26-3.76A14.36,14.36,0,0,0,71.62,25.61Z"/><path class="cls-57" d="M71.62,25.61a14.37,14.37,0,0,0-17.3,5.08,7.29,7.29,0,0,1,.25,1.47,20.64,20.64,0,0,1,0,2.61,10.28,10.28,0,0,1,5.66-5.15,13.69,13.69,0,0,1,8.93.47,6,6,0,0,1,3,2.4l.09.14a10.33,10.33,0,0,1,1,1.75,10.65,10.65,0,0,1,1,3.09,5.82,5.82,0,0,1-.74,4.1c-.38.63-.82,1.24-1.2,1.87a4.87,4.87,0,0,0-.2,1.24,6,6,0,0,1-.54,2.45A10.19,10.19,0,0,1,67.91,51a13.51,13.51,0,0,1-4.8,1.91,14.54,14.54,0,0,0,14-4.78,14.81,14.81,0,0,0,2.26-3.76A14.36,14.36,0,0,0,71.62,25.61Z"/><path class="cls-47" d="M69.94,45.47c-.11.5-1,.73-2,.51s-1.73-.79-1.62-1.29,1-.72,2-.5S70,45,69.94,45.47Z"/><path class="cls-47" d="M57.39,42.89c-.1.5-1,.73-2,.51s-1.72-.79-1.62-1.28,1-.73,2-.51S57.5,42.4,57.39,42.89Z"/><path class="cls-58" d="M85.89,35.76A8.61,8.61,0,0,0,83.56,31a5.49,5.49,0,0,0-1.76-1.34c-.27-.13-.56-.24-.84-.35,0-.21-.11-.42-.17-.63a8.66,8.66,0,0,0-2.43-3.55,11,11,0,0,0-3.51-1.82,15.18,15.18,0,0,0-4.46-1,20.76,20.76,0,0,0-9.29,1,19.15,19.15,0,0,0-3.94,2.05,19.71,19.71,0,0,1-2,1.3,10.4,10.4,0,0,1-2,.54c-.08,0-.19.11-.17.21a1.28,1.28,0,0,0,1,.79,3.54,3.54,0,0,0-.49.45,5.38,5.38,0,0,0-1.33,2.86,8.39,8.39,0,0,0,.47,3.64,7.15,7.15,0,0,1,.11,1.9v.12l0,.16C52.56,38.5,52,39.8,50.67,39c-.11-.07-.25.11-.29.19a1.16,1.16,0,0,0,.48,1.47H51l-.67.67A4.91,4.91,0,0,0,49,43.59,3.26,3.26,0,0,0,49.38,46a3.55,3.55,0,0,0,.77.91,1.13,1.13,0,0,1,.35.89c0,.52-.56.68-1,.79-.06,0-.17.1-.14.19a1.48,1.48,0,0,0,1.2.84,1.54,1.54,0,0,0-.17.19A5.11,5.11,0,0,0,49,52.45c-.11,1,.47,1.52,1.06,2.2l.05.06c.75.41,1.74.69,1.83,1.61a1.48,1.48,0,0,1-1.31,1.6s0,.09,0,.1a3,3,0,0,0,1.39.06c.06,0,.46-.26.22.08-.11.15-.24.27-.35.43a3.33,3.33,0,0,0-.48,3c.42,1.18,1.7,1.63,2.7,2.17a2.69,2.69,0,0,1,1.53,1.87,1.48,1.48,0,0,1-.08.6,1.63,1.63,0,0,1-1.27,1.24,1.94,1.94,0,0,0,1.84-.26,3.3,3.3,0,0,0,.1,1.65c.19.6.94,1,1.46,1.21a1.85,1.85,0,0,1,1.19,2.39,3.68,3.68,0,0,0,.71-.23c.25-.15.51-.29.76-.42a2.35,2.35,0,0,0,.11.35c.11.27.48.8.82.72s.65-.85,1-1.1c.53-.37,1.19-.58,1.76-.9a4.58,4.58,0,0,0,1.25-1,1,1,0,0,0,.88.72c.09,0,.27-.14.22-.24-.58-1,1-1.63,1.77-1.87a5.28,5.28,0,0,0,1.65-.85,3.19,3.19,0,0,0,.57-.59,1.33,1.33,0,0,0,1.32-.29c0-.05.06-.11,0-.16-.49-.76,0-1.26.7-1.67.48-.29,1-.59,1.49-.85A7,7,0,0,0,76.23,62a2.64,2.64,0,0,0,.57-1.22,3.93,3.93,0,0,0,0-1.28,1.7,1.7,0,0,0-.43-1,2,2,0,0,0,.8,0c.33-.06,2.22-.63,1.9-1.27a.09.09,0,0,0-.06,0c-.87,0-1-.84-.7-1.46a4.3,4.3,0,0,1,1-1.14,4.92,4.92,0,0,0,1.31-2.13,2.19,2.19,0,0,0-.38-2,8.22,8.22,0,0,0-.62-.69,2.19,2.19,0,0,0,1.51-.44c.08-.06.46-.3.28-.47-.92-.89.22-2.11.84-2.78a12.25,12.25,0,0,0,2.62-3.73,7,7,0,0,0,.52-1.11A12.8,12.8,0,0,0,86,38.52,12.14,12.14,0,0,0,85.89,35.76Zm-11,3.5a6.17,6.17,0,0,1-.11.62,24.5,24.5,0,0,1-1.87,3.3c-.92,1.81,0,3.53-2.17,4.41-1.74.7-3.68-.36-5.18-1.17-.86-.46-1.7-1-2.59-1.41a9,9,0,0,0-4-.92c-1.09,0-2.22.76-3.31.39a3.67,3.67,0,0,1-2.09-2.25c-.37-1.26.58-1.95,1.09-3a11,11,0,0,0,.33-2.75A11.69,11.69,0,0,1,56,33.32a8,8,0,0,1,1.85-2.76,8.53,8.53,0,0,1,4.51-1.78,15.6,15.6,0,0,1,5,0,9.43,9.43,0,0,1,2.86,1,10.1,10.1,0,0,1,4.64,9.47Z"/><path class="cls-59" d="M67.08,40.8a.9.9,0,1,1-.46-1.18A.9.9,0,0,1,67.08,40.8Z"/><path class="cls-15" d="M66,40.08a.15.15,0,0,1-.2.08.16.16,0,0,1-.08-.21.15.15,0,1,1,.28.13Z"/><path class="cls-59" d="M58.72,38.94a.9.9,0,1,1-.46-1.18A.9.9,0,0,1,58.72,38.94Z"/><path class="cls-15" d="M57.69,38.22a.17.17,0,0,1-.21.08.16.16,0,0,1-.08-.21.15.15,0,0,1,.21-.08A.17.17,0,0,1,57.69,38.22Z"/><path class="cls-46" d="M78.76,41.5a2.82,2.82,0,0,0-2.46-.25A4.22,4.22,0,0,0,74.46,43c-.37.74-.8,2.11,0,2.76a2.6,2.6,0,0,0,1.46.53C78.93,46.12,80.94,42.77,78.76,41.5Z"/><path class="cls-57" d="M76.1,43.06c.71-.75,2.06-1.22,2.57-.33s-.71,2.15-1.58,2.48C75.66,45.75,74.73,44.48,76.1,43.06Z"/><path class="cls-60" d="M58.88,44.52a7.76,7.76,0,0,0,4.93.58s-1.09,4.3-3.44,4.12S58.88,44.52,58.88,44.52Z"/><path class="cls-61" d="M58.91,47.81a1.66,1.66,0,0,0,1.46,1.41c1.35.1,2.28-1.26,2.83-2.45A4.51,4.51,0,0,0,58.91,47.81Z"/><path class="cls-62" d="M67.92,47.09c-.64.43-1.16-.9-3.31-2.05-1.63-.88-2.57-.57-2.92-.37-.24-.33-1-1-2.82-.87C56.43,44,55.42,45,55,44.32c0,0-.81.27-.1,1.4s2.8,1.38,4.47.59c1-.48,1.35-.51,1.71-.47s.7.61,1.45,1.48c1.19,1.39,3.79,1.83,4.9,1.09S67.92,47.09,67.92,47.09Z"/><path class="cls-63" d="M67.92,46.72c-.64.43-1.16-.9-3.31-2C63,43.79,62,44.1,61.69,44.3c-.24-.33-1-1-2.82-.87-2.44.18-3.45,1.18-3.86.52,0,0-.81.27-.1,1.4s2.8,1.38,4.47.6c1-.49,1.35-.52,1.71-.48s.7.61,1.45,1.48c1.19,1.4,3.79,1.83,4.9,1.09S67.92,46.72,67.92,46.72Z"/><path class="cls-64" d="M62.75,38.71a2.71,2.71,0,0,0-.36-.46c-1.09-1.18-1.72-.1-1.93,1a3.24,3.24,0,0,1-1.54,2.18,1.62,1.62,0,0,0-.1,2.83,3.32,3.32,0,0,0,3.11.74C64.08,44,63.8,40.34,62.75,38.71Z"/><path class="cls-65" d="M61.11,44.39a2.78,2.78,0,0,1-3.06-1.71,1.72,1.72,0,0,0,.77,1.56,3.32,3.32,0,0,0,3.11.74,2.76,2.76,0,0,0,1.46-1.9A3.16,3.16,0,0,1,61.11,44.39Z"/><path class="cls-46" d="M63.17,65.23a3.36,3.36,0,0,0,1.63-2.71,3,3,0,0,0-.06-1.29.27.27,0,0,0-.12-.15,0,0,0,0,0,0-.06c-1-.19-1.53-1.31-2.43-1.76-.25-.13-1.11-.45-1.28-.06s.07.78.35,1.07.91.74.55,1a1.74,1.74,0,0,1-1.14.21,4.07,4.07,0,0,1-1.71-.66c-.33-.19-1.48-1-1.46-.15a2.13,2.13,0,0,0,1.12,1.57h0c-.34-.15-.9-.51-1,0-.09.36.43.71.66.87a3.61,3.61,0,0,0,.53.33c-.53,0-.91,0-.8.3a1.38,1.38,0,0,0,1,.76c-.07,0-.2.21-.2.26a.46.46,0,0,0,.16.34C59.39,65.7,61.71,65.87,63.17,65.23Z"/><path class="cls-47" d="M61.83,62.76l-.13.05-.38.09-.25,0h-.6l-.31,0c-.1,0-.21,0-.31-.07l-.29-.09-.27-.09-.24-.11c-.28-.14-.46-.25-.46-.25l.49.18.24.09.27.08.29.08.3.06.31,0,.3,0a1.31,1.31,0,0,0,.28,0h.25c.15,0,.28,0,.37,0Z"/><path class="cls-47" d="M61.69,63.89l-.12,0-.34.1-.23,0a1.2,1.2,0,0,1-.27,0h-.28l-.29,0a2.8,2.8,0,0,1-.28-.06l-.27-.08-.25-.08-.21-.1-.43-.22.45.16.22.08.25.07.26.07a1.35,1.35,0,0,0,.28,0l.28,0H61l.23,0,.34,0Z"/><path class="cls-47" d="M61.54,64.82a.34.34,0,0,1-.1.06,1.73,1.73,0,0,1-.3.1l-.21,0a.85.85,0,0,1-.23,0h-.25l-.26,0-.26,0-.24-.07-.22-.07-.19-.09-.38-.2.4.14.19.08.23,0,.23.06.25,0,.25,0h.47l.21,0,.3-.06Z"/><path class="cls-32" d="M64.77,65.19a4,4,0,0,0,1.55.39l.7,0h1.33l.57,0a17.13,17.13,0,0,0,5.82-1.28,13.93,13.93,0,0,0,2.87-1.65,12.59,12.59,0,0,0,2.14-2A13.53,13.53,0,0,0,81,59.05a5.18,5.18,0,0,0,.3-.48l.11-.18a3.93,3.93,0,0,0,.45-2.9A2,2,0,0,0,80.33,54a3,3,0,0,0-2,.39,3.87,3.87,0,0,0-1.48,1.47l-.06.11c0,.07-.1.18-.19.31a8.44,8.44,0,0,1-.78,1,8.54,8.54,0,0,1-3.12,2.26,12.06,12.06,0,0,1-4,.87l-.43,0h-1l-.56,0a4.56,4.56,0,0,0-1.29.12Z"/><path class="cls-49" d="M67.07,63.47a7.5,7.5,0,0,0-.5-3.08H66.5a3.69,3.69,0,0,0-1.16.13l-.57,4.68a3.4,3.4,0,0,0,1.37.38l.39,0A4.9,4.9,0,0,0,67.07,63.47Z"/><path class="cls-50" d="M63.76,66.21c-.8-.22-1.18-.61-.92-.89a5.33,5.33,0,0,0,.91-5.26c-.11-.33.31-.6,1-.6a2.74,2.74,0,0,1,.92.18,1,1,0,0,1,.55.45c.77,2,.91,4-.43,5.88a1.21,1.21,0,0,1-.79.32A3.29,3.29,0,0,1,63.76,66.21Z"/><path class="cls-51" d="M64.36,65.65c-.65-.15-1-.49-.8-.74a5.6,5.6,0,0,0,.52-4.71c-.1-.3.23-.53.76-.52a1.36,1.36,0,0,1,1.21.55,6.06,6.06,0,0,1-.13,5.13C65.74,65.67,65,65.78,64.36,65.65Z"/><path class="cls-63" d="M58.63,35.31a1.66,1.66,0,0,0-1.17.72c-.41.69,0,.67.58.6s1.67.62,1.77-.22S59.28,35.22,58.63,35.31Z"/><path class="cls-63" d="M66.79,36.6a1.59,1.59,0,0,0-1.16.72c-.42.68,0,.67.57.6s1.67.62,1.77-.23S67.44,36.51,66.79,36.6Z"/><path class="cls-66" d="M71.47,24.54a17.08,17.08,0,0,0-1.59-.82,9.78,9.78,0,0,0-2.07-.78A21.6,21.6,0,0,1,71.47,24.54Z"/><path class="cls-67" d="M60.77,24.49C61.07,24.32,75.09,15,82.14,14s15.37,2.06,18.52,2.55,5.47.33,3.82,1.16-3.9,1-5.77,1.73-4.27,1-4.58.66.16,1.07.16,1.07.37.58-.68.66-1.87.25-2,.58a2.75,2.75,0,0,0-.23,1.07c0,.33-.15,2.64-1.2,3.14s-4.31,13.15-4.31,13.15Z"/><path class="cls-68" d="M98.51,18.2c-1.46,0-2.92,0-4.38,0l-1.22,0c-.31,0-.87-.2-.91.3a17.42,17.42,0,0,0,0,1.77.12.12,0,0,1-.16.12c-1.6-.35-3.11-1-4.73-1.26A11.37,11.37,0,0,0,88,22.49a.13.13,0,0,1-.12.17A5.68,5.68,0,0,0,86.2,23c.24.51.69,1,.64,1.56a2.08,2.08,0,0,1-.53,1.08,14.8,14.8,0,0,0-1.15,1.49c-.42.71-.8,1.44-1.22,2.15s-.65,2.12-1.13,1.66a15,15,0,0,0-4.2-2.87c-.65-.45-1.35-.84-2-1.23a40.45,40.45,0,0,0-4.88-2.34,24.26,24.26,0,0,0-8.28-1.72c-1.57,1-2.57,1.64-2.65,1.68l25.08,15.3s3.26-12.66,4.31-13.15,1.2-2.81,1.2-3.14a2.75,2.75,0,0,1,.23-1.07c.15-.33,1-.5,2-.58s.68-.66.68-.66-.45-1.4-.16-1.07,2.71.08,4.58-.66,4.12-.91,5.77-1.73c.42-.21.58-.36.54-.47A41,41,0,0,1,98.51,18.2Z"/><path class="cls-66" d="M86.13,38.66A24.23,24.23,0,0,0,83.78,35a38.1,38.1,0,0,0-6.41-6.28,39,39,0,0,0-7.49-5,9.53,9.53,0,0,0-2.16-.8,16.44,16.44,0,0,0-2-.23,6,6,0,0,1-1.43-.33c-1.4.39-3.32.87-4.7,1.34-2.35.8-4.67,1.72-6.93,2.74a26.46,26.46,0,0,0-3,1.57l-.41.29c1,0,1.92.07,2.88.15l.55,0a21.34,21.34,0,0,1,2.77,0c.32-.24,2.53-1.16,3.27-1.5.15-.07-1,1.13-1.42,1.7a14.19,14.19,0,0,1,2.54.74q1.17.27,2.34.57a4.55,4.55,0,0,1,1.47-.79c.09,0-.1.8-.24,1.12a23,23,0,0,1,5.66,2.35,19.86,19.86,0,0,1,3.63,2.84c1.27,1.26,2.34,2.7,3.7,3.89l.39.34c.39-.14.67-.7.89-1,.42-.52.89-1,1.33-1.5-.1.27-.25.56-.34.81s-.24.67-.34,1a13.58,13.58,0,0,0-.62,1.42l.08.07h0A10.92,10.92,0,0,0,79,39.3c.24-.22.45-.47.67-.71.46-.5-.26.78-.1.5-.13.22-.21.47-.34.7a8.67,8.67,0,0,1-.57,1.09,1.41,1.41,0,0,0-.18.27c.7.57,1.39,1.15,2,1.77a21,21,0,0,1,3.1,3.74,26.34,26.34,0,0,1,2,3.56,20.25,20.25,0,0,0,.88-4.76A36,36,0,0,0,86.13,38.66Z"/><path class="cls-69" d="M86.13,38.66A24.23,24.23,0,0,0,83.78,35a38.1,38.1,0,0,0-6.41-6.28c-1.59-1.24-3.21-2.52-4.94-3.61,3.91,2.49,6.72,6.31,9.92,9.61a.13.13,0,0,1,0,.12c-.77,2.64-1.41,5.31-1.94,8l.08.07a21,21,0,0,1,3.1,3.74,26.34,26.34,0,0,1,2,3.56,20.25,20.25,0,0,0,.88-4.76A36,36,0,0,0,86.13,38.66Z"/><polygon class="cls-66" points="82.53 27.18 77.81 26.49 77.63 23.09 82.53 23.09 82.53 27.18"/><path class="cls-15" d="M78.29,26.31h0l0,0c0,.11,0,.23-.09.34s0,.14,0,.19,0,0,0,0,0-.11,0-.16,0-.24.05-.36h0A0,0,0,0,0,78.29,26.31Z"/><path class="cls-15" d="M79.07,26.5s0,0,0,0,0,.15,0,.23a.41.41,0,0,0,0,.19s.06,0,.07,0a1.52,1.52,0,0,0,0-.21A1.34,1.34,0,0,0,79.07,26.5Z"/><path class="cls-15" d="M79.68,26.55s0,0,0,0,0,.15-.05.23a.45.45,0,0,0,0,.23s.06,0,.07,0a1.64,1.64,0,0,0,0-.23A.74.74,0,0,0,79.68,26.55Z"/><path class="cls-15" d="M80.62,26.72a.62.62,0,0,0-.07.19.5.5,0,0,0,0,.27s.07,0,.08,0a.82.82,0,0,0,0-.22,1.38,1.38,0,0,1,0-.2S80.63,26.71,80.62,26.72Z"/><path class="cls-15" d="M81.22,26.83s0,0,0,0a2.21,2.21,0,0,1-.05.25.75.75,0,0,0,0,.26s.08,0,.08,0a1,1,0,0,0,0-.25A.66.66,0,0,0,81.22,26.83Z"/><path class="cls-15" d="M81.85,26.9s0,0,0,0a1.34,1.34,0,0,0-.07.27.59.59,0,0,0,0,.26c0,.05.07,0,.08,0s0-.17,0-.25A1.06,1.06,0,0,0,81.85,26.9Z"/><path class="cls-15" d="M82.37,26.94s0,0,0,0a2.8,2.8,0,0,0-.08.58s.06,0,.07,0a2.66,2.66,0,0,0,0-.28A1.42,1.42,0,0,0,82.37,26.94Z"/><path class="cls-15" d="M82.85,26.67a.5.5,0,0,0-.21-.05.94.94,0,0,0-.29,0s0,0,0,0l.24,0a.52.52,0,0,0,.21,0S82.88,26.69,82.85,26.67Z"/><path class="cls-15" d="M82.75,26.09a.39.39,0,0,0-.21,0,.34.34,0,0,0-.2,0s0,0,0,0h0c.13,0,.27.08.4,0S82.78,26.1,82.75,26.09Z"/><path class="cls-15" d="M82.72,25.42a2.6,2.6,0,0,0-.39,0s0,0,0,0h.2a.25.25,0,0,0,.19,0S82.76,25.41,82.72,25.42Z"/><path class="cls-15" d="M82.67,24.72l-.16,0a.62.62,0,0,1-.18,0s0,0,0,0a.29.29,0,0,0,.16,0,.43.43,0,0,0,.22-.06S82.71,24.71,82.67,24.72Z"/><path class="cls-15" d="M82.7,23.79a.45.45,0,0,0-.16,0,.41.41,0,0,0-.18.05s0,0,0,0,.25,0,.34-.05S82.74,23.79,82.7,23.79Z"/><path class="cls-15" d="M82.71,23.3a3,3,0,0,0-.42,0s0,0,0,0l.29,0s.12,0,.16,0S82.74,23.3,82.71,23.3Z"/><path class="cls-15" d="M82,22.85a2.85,2.85,0,0,0-.08.51c0,.06.09,0,.1,0s0-.32,0-.48S82,22.84,82,22.85Z"/><path class="cls-15" d="M81.41,22.81s0,0,0,0a2.1,2.1,0,0,0,0,.5s.06,0,.07,0a1,1,0,0,0,0-.24A2.43,2.43,0,0,0,81.41,22.81Z"/><path class="cls-15" d="M80.64,23.2c0-.12,0-.24,0-.36s0,0,0,0a2,2,0,0,0,0,.54s.05,0,.06,0S80.64,23.27,80.64,23.2Z"/><path class="cls-15" d="M79.93,23.29c0-.16,0-.32,0-.48s0,0,0,0A3.15,3.15,0,0,0,79.93,23.29Z"/><path class="cls-15" d="M79.16,22.85s0,0,0,0a1,1,0,0,0,0,.24.54.54,0,0,0,0,.22s0,0,0,0A3.49,3.49,0,0,0,79.16,22.85Z"/><path class="cls-15" d="M78.39,23.08a2.46,2.46,0,0,1,0-.26s0,0,0,0a1.2,1.2,0,0,0,0,.5s.06,0,.06,0A.76.76,0,0,0,78.39,23.08Z"/><path class="cls-15" d="M77.88,23.13a1.1,1.1,0,0,1,0-.26s0,0,0,0a1,1,0,0,0,0,.45s.07,0,.07,0Z"/><path class="cls-15" d="M77.86,23.46a.37.37,0,0,0-.18,0,1.34,1.34,0,0,0-.2,0s0,0,0,0a.89.89,0,0,0,.36,0S77.9,23.47,77.86,23.46Z"/><path class="cls-15" d="M77.93,24.06c-.06,0-.18,0-.25,0s-.11,0-.15,0,0,.05,0,0,.26.05.38,0S78,24.08,77.93,24.06Z"/><path class="cls-15" d="M78,24.71c-.06-.05-.16,0-.23,0a.47.47,0,0,1-.17,0s0,0,0,0,.36.07.4.06S78,24.73,78,24.71Z"/><path class="cls-15" d="M78,25.35c-.14,0-.27.08-.4,0s0,0,0,0,.1,0,.13,0a1,1,0,0,0,.29,0S78,25.36,78,25.35Z"/><path class="cls-15" d="M78,26l-.08,0h-.25s0,0,0,0,.09,0,.12.05.19,0,.26,0S78,26,78,26Z"/><path class="cls-70" d="M34.68,52.17c0,.37,0,1-.49,1.07.47,0,.44.7.49,1.07,0-.37,0-1,.49-1.07C34.66,53.11,34.73,52.54,34.68,52.17Z"/><path class="cls-70" d="M34,45.38c-.06.5,0,1.3-.65,1.44.63.06.59.94.65,1.44.07-.5,0-1.34.66-1.44C34,46.65,34.06,45.88,34,45.38Z"/><path class="cls-70" d="M37.6,39.8c-.06.49,0,1.3-.65,1.44.63.06.59.94.65,1.44.07-.5,0-1.34.66-1.44C37.57,41.06,37.67,40.29,37.6,39.8Z"/><path class="cls-70" d="M41.64,46.24c-.07.49,0,1.3-.66,1.44.64.06.59.94.66,1.44.06-.5,0-1.34.65-1.44C41.61,47.51,41.7,46.73,41.64,46.24Z"/><path class="cls-70" d="M30,33.61c-.06.5,0,1.31-.65,1.44.63.06.59,1,.65,1.44.07-.49,0-1.34.66-1.44C30,34.88,30.11,34.11,30,33.61Z"/><path class="cls-70" d="M26.26,48.39c-.06.49,0,1.3-.65,1.43.63.07.59,1,.65,1.44.07-.49,0-1.33.66-1.44C26.23,49.65,26.33,48.88,26.26,48.39Z"/></g></g></g></svg>